<?xml version="1.0" encoding="UTF-8"?>
<!--Generator: Apple Native CoreSVG 149-->
<!DOCTYPE svg
PUBLIC "-//W3C//DTD SVG 1.1//EN"
       "http://www.w3.org/Graphics/SVG/1.1/DTD/svg11.dtd">
<svg version="1.1" xmlns="http://www.w3.org/2000/svg" xmlns:xlink="http://www.w3.org/1999/xlink" width="3300" height="2200">
 <!--glyph: "", point size: 100.0, font version: "17.0d9e1", template writer version: "59"-->
 <style>.multicolor-0:tintColor {fill:#007AFF;opacity:1.0}
.multicolor-1:systemBlueColor {fill:#007AFF;opacity:1.0}

.hierarchical-0:secondary {fill:#4D4D4D}
.hierarchical-1:primary {fill:#212121}

.SFSymbolsPreview007AFF {fill:#007AFF;opacity:1.0}
</style>
 <g id="Notes">
  <rect height="2200" id="artboard" style="fill:white;opacity:1" width="3300" x="0" y="0"/>
  <line style="fill:none;stroke:black;opacity:1;stroke-width:0.5;" x1="263" x2="3036" y1="292" y2="292"/>
  <text style="stroke:none;fill:black;font-family:sans-serif;font-size:13;font-weight:bold;" transform="matrix(1 0 0 1 263 322)">Weight/Scale Variations</text>
  <text style="stroke:none;fill:black;font-family:sans-serif;font-size:13;text-anchor:middle;" transform="matrix(1 0 0 1 559.711 322)">Ultralight</text>
  <text style="stroke:none;fill:black;font-family:sans-serif;font-size:13;text-anchor:middle;" transform="matrix(1 0 0 1 856.422 322)">Thin</text>
  <text style="stroke:none;fill:black;font-family:sans-serif;font-size:13;text-anchor:middle;" transform="matrix(1 0 0 1 1153.13 322)">Light</text>
  <text style="stroke:none;fill:black;font-family:sans-serif;font-size:13;text-anchor:middle;" transform="matrix(1 0 0 1 1449.84 322)">Regular</text>
  <text style="stroke:none;fill:black;font-family:sans-serif;font-size:13;text-anchor:middle;" transform="matrix(1 0 0 1 1746.56 322)">Medium</text>
  <text style="stroke:none;fill:black;font-family:sans-serif;font-size:13;text-anchor:middle;" transform="matrix(1 0 0 1 2043.27 322)">Semibold</text>
  <text style="stroke:none;fill:black;font-family:sans-serif;font-size:13;text-anchor:middle;" transform="matrix(1 0 0 1 2339.98 322)">Bold</text>
  <text style="stroke:none;fill:black;font-family:sans-serif;font-size:13;text-anchor:middle;" transform="matrix(1 0 0 1 2636.69 322)">Heavy</text>
  <text style="stroke:none;fill:black;font-family:sans-serif;font-size:13;text-anchor:middle;" transform="matrix(1 0 0 1 2933.4 322)">Black</text>
  <line style="fill:none;stroke:black;opacity:1;stroke-width:0.5;" x1="263" x2="3036" y1="1903" y2="1903"/>
  <g transform="matrix(1 0 0 1 263 1933)">
   <path d="M9.24805 0.830078Q10.8691 0.830078 12.2949 0.214844Q13.7207-0.400391 14.8096-1.49414Q15.8984-2.58789 16.5186-4.01367Q17.1387-5.43945 17.1387-7.05078Q17.1387-8.66211 16.5186-10.0879Q15.8984-11.5137 14.8047-12.6074Q13.7109-13.7012 12.2852-14.3164Q10.8594-14.9316 9.23828-14.9316Q7.62695-14.9316 6.20117-14.3164Q4.77539-13.7012 3.69141-12.6074Q2.60742-11.5137 1.9873-10.0879Q1.36719-8.66211 1.36719-7.05078Q1.36719-5.43945 1.9873-4.01367Q2.60742-2.58789 3.69629-1.49414Q4.78516-0.400391 6.21094 0.214844Q7.63672 0.830078 9.24805 0.830078ZM9.24805-0.654297Q7.91992-0.654297 6.7627-1.14746Q5.60547-1.64062 4.73145-2.51953Q3.85742-3.39844 3.36426-4.56055Q2.87109-5.72266 2.87109-7.05078Q2.87109-8.37891 3.35938-9.54102Q3.84766-10.7031 4.72168-11.582Q5.5957-12.4609 6.75293-12.9541Q7.91016-13.4473 9.23828-13.4473Q10.5762-13.4473 11.7334-12.9541Q12.8906-12.4609 13.7695-11.582Q14.6484-10.7031 15.1465-9.54102Q15.6445-8.37891 15.6445-7.05078Q15.6445-5.72266 15.1514-4.56055Q14.6582-3.39844 13.7842-2.51953Q12.9102-1.64062 11.748-1.14746Q10.5859-0.654297 9.24805-0.654297ZM5.83984-7.04102Q5.83984-6.71875 6.04492-6.51855Q6.25-6.31836 6.5918-6.31836L8.50586-6.31836L8.50586-4.39453Q8.50586-4.0625 8.70605-3.85742Q8.90625-3.65234 9.22852-3.65234Q9.56055-3.65234 9.76562-3.85742Q9.9707-4.0625 9.9707-4.39453L9.9707-6.31836L11.8945-6.31836Q12.2266-6.31836 12.4316-6.51855Q12.6367-6.71875 12.6367-7.04102Q12.6367-7.37305 12.4316-7.57812Q12.2266-7.7832 11.8945-7.7832L9.9707-7.7832L9.9707-9.69727Q9.9707-10.0391 9.76562-10.2441Q9.56055-10.4492 9.22852-10.4492Q8.90625-10.4492 8.70605-10.2441Q8.50586-10.0391 8.50586-9.69727L8.50586-7.7832L6.5918-7.7832Q6.25-7.7832 6.04492-7.57812Q5.83984-7.37305 5.83984-7.04102Z"/>
  </g>
  <g transform="matrix(1 0 0 1 281.867 1933)">
   <path d="M11.709 2.91016Q13.75 2.91016 15.5518 2.12891Q17.3535 1.34766 18.7305-0.0292969Q20.1074-1.40625 20.8887-3.20801Q21.6699-5.00977 21.6699-7.05078Q21.6699-9.0918 20.8887-10.8936Q20.1074-12.6953 18.7305-14.0723Q17.3535-15.4492 15.5469-16.2305Q13.7402-17.0117 11.6992-17.0117Q9.6582-17.0117 7.85645-16.2305Q6.05469-15.4492 4.68262-14.0723Q3.31055-12.6953 2.5293-10.8936Q1.74805-9.0918 1.74805-7.05078Q1.74805-5.00977 2.5293-3.20801Q3.31055-1.40625 4.6875-0.0292969Q6.06445 1.34766 7.86621 2.12891Q9.66797 2.91016 11.709 2.91016ZM11.709 1.25Q9.98047 1.25 8.47656 0.605469Q6.97266-0.0390625 5.83496-1.17676Q4.69727-2.31445 4.05762-3.81836Q3.41797-5.32227 3.41797-7.05078Q3.41797-8.7793 4.05762-10.2832Q4.69727-11.7871 5.83008-12.9297Q6.96289-14.0723 8.4668-14.7119Q9.9707-15.3516 11.6992-15.3516Q13.4277-15.3516 14.9316-14.7119Q16.4355-14.0723 17.5781-12.9297Q18.7207-11.7871 19.3652-10.2832Q20.0098-8.7793 20.0098-7.05078Q20.0098-5.32227 19.3701-3.81836Q18.7305-2.31445 17.5928-1.17676Q16.4551-0.0390625 14.9463 0.605469Q13.4375 1.25 11.709 1.25ZM7.39258-7.04102Q7.39258-6.68945 7.62695-6.46484Q7.86133-6.24023 8.23242-6.24023L10.8789-6.24023L10.8789-3.57422Q10.8789-3.21289 11.1035-2.9834Q11.3281-2.75391 11.6797-2.75391Q12.0508-2.75391 12.2852-2.9834Q12.5195-3.21289 12.5195-3.57422L12.5195-6.24023L15.1758-6.24023Q15.5371-6.24023 15.7715-6.46484Q16.0059-6.68945 16.0059-7.04102Q16.0059-7.41211 15.7715-7.6416Q15.5371-7.87109 15.1758-7.87109L12.5195-7.87109L12.5195-10.5176Q12.5195-10.8984 12.2852-11.1279Q12.0508-11.3574 11.6797-11.3574Q11.3281-11.3574 11.1035-11.1279Q10.8789-10.8984 10.8789-10.5176L10.8789-7.87109L8.23242-7.87109Q7.85156-7.87109 7.62207-7.6416Q7.39258-7.41211 7.39258-7.04102Z"/>
  </g>
  <g transform="matrix(1 0 0 1 305.646 1933)">
   <path d="M14.9707 5.66406Q17.0605 5.66406 18.96 5.01465Q20.8594 4.36523 22.4512 3.19336Q24.043 2.02148 25.2197 0.429688Q26.3965-1.16211 27.0459-3.06641Q27.6953-4.9707 27.6953-7.05078Q27.6953-9.14062 27.0459-11.04Q26.3965-12.9395 25.2197-14.5312Q24.043-16.123 22.4512-17.2998Q20.8594-18.4766 18.9551-19.126Q17.0508-19.7754 14.9609-19.7754Q12.8711-19.7754 10.9717-19.126Q9.07227-18.4766 7.48535-17.2998Q5.89844-16.123 4.72168-14.5312Q3.54492-12.9395 2.90039-11.04Q2.25586-9.14062 2.25586-7.05078Q2.25586-4.9707 2.90527-3.06641Q3.55469-1.16211 4.72656 0.429688Q5.89844 2.02148 7.49023 3.19336Q9.08203 4.36523 10.9814 5.01465Q12.8809 5.66406 14.9707 5.66406ZM14.9707 3.84766Q13.1641 3.84766 11.5283 3.2959Q9.89258 2.74414 8.53516 1.74805Q7.17773 0.751953 6.17676-0.610352Q5.17578-1.97266 4.62891-3.6084Q4.08203-5.24414 4.08203-7.05078Q4.08203-8.86719 4.62891-10.5029Q5.17578-12.1387 6.17188-13.501Q7.16797-14.8633 8.52539-15.8594Q9.88281-16.8555 11.5186-17.4023Q13.1543-17.9492 14.9609-17.9492Q16.7773-17.9492 18.4131-17.4023Q20.0488-16.8555 21.4111-15.8594Q22.7734-14.8633 23.7695-13.501Q24.7656-12.1387 25.3174-10.5029Q25.8691-8.86719 25.8691-7.05078Q25.8789-5.24414 25.332-3.6084Q24.7852-1.97266 23.7842-0.610352Q22.7832 0.751953 21.4209 1.74805Q20.0586 2.74414 18.4229 3.2959Q16.7871 3.84766 14.9707 3.84766ZM9.45312-7.04102Q9.45312-6.66016 9.71191-6.41113Q9.9707-6.16211 10.3711-6.16211L14.0625-6.16211L14.0625-2.46094Q14.0625-2.06055 14.3115-1.80664Q14.5605-1.55273 14.9414-1.55273Q15.3516-1.55273 15.6055-1.80664Q15.8594-2.06055 15.8594-2.46094L15.8594-6.16211L19.5605-6.16211Q19.9609-6.16211 20.2148-6.41113Q20.4688-6.66016 20.4688-7.04102Q20.4688-7.45117 20.2148-7.70508Q19.9609-7.95898 19.5605-7.95898L15.8594-7.95898L15.8594-11.6504Q15.8594-12.0605 15.6055-12.3145Q15.3516-12.5684 14.9414-12.5684Q14.5605-12.5684 14.3115-12.3096Q14.0625-12.0508 14.0625-11.6504L14.0625-7.95898L10.3711-7.95898Q9.96094-7.95898 9.70703-7.70508Q9.45312-7.45117 9.45312-7.04102Z"/>
  </g>
  <text style="stroke:none;fill:black;font-family:sans-serif;font-size:13;font-weight:bold;" transform="matrix(1 0 0 1 263 1953)">Design Variations</text>
  <text style="stroke:none;fill:black;font-family:sans-serif;font-size:13;" transform="matrix(1 0 0 1 263 1971)">Symbols are supported in up to nine weights and three scales.</text>
  <text style="stroke:none;fill:black;font-family:sans-serif;font-size:13;" transform="matrix(1 0 0 1 263 1989)">For optimal layout with text and other symbols, vertically align</text>
  <text style="stroke:none;fill:black;font-family:sans-serif;font-size:13;" transform="matrix(1 0 0 1 263 2007)">symbols with the adjacent text.</text>
  <line style="fill:none;stroke:#00AEEF;stroke-width:0.5;opacity:1.0;" x1="776" x2="776" y1="1919" y2="1933"/>
  <g transform="matrix(1 0 0 1 776 1933)">
   <path d="M3.31055 0.15625Q3.70117 0.15625 3.91602-0.00976562Q4.13086-0.175781 4.26758-0.585938L5.52734-4.0332L11.2891-4.0332L12.5488-0.585938Q12.6855-0.175781 12.9004-0.00976562Q13.1152 0.15625 13.4961 0.15625Q13.8867 0.15625 14.1162-0.0585938Q14.3457-0.273438 14.3457-0.644531Q14.3457-0.869141 14.2383-1.17188L9.6582-13.3691Q9.48242-13.8184 9.17969-14.043Q8.87695-14.2676 8.4082-14.2676Q7.5-14.2676 7.17773-13.3789L2.59766-1.16211Q2.49023-0.859375 2.49023-0.634766Q2.49023-0.263672 2.70996-0.0537109Q2.92969 0.15625 3.31055 0.15625ZM6.00586-5.51758L8.37891-12.0898L8.42773-12.0898L10.8008-5.51758Z"/>
  </g>
  <line style="fill:none;stroke:#00AEEF;stroke-width:0.5;opacity:1.0;" x1="793.197" x2="793.197" y1="1919" y2="1933"/>
  <text style="stroke:none;fill:black;font-family:sans-serif;font-size:13;font-weight:bold;" transform="matrix(1 0 0 1 776 1953)">Margins</text>
  <text style="stroke:none;fill:black;font-family:sans-serif;font-size:13;" transform="matrix(1 0 0 1 776 1971)">Leading and trailing margins on the left and right side of each symbol</text>
  <text style="stroke:none;fill:black;font-family:sans-serif;font-size:13;" transform="matrix(1 0 0 1 776 1989)">can be adjusted by modifying the x-location of the margin guidelines.</text>
  <text style="stroke:none;fill:black;font-family:sans-serif;font-size:13;" transform="matrix(1 0 0 1 776 2007)">Modifications are automatically applied proportionally to all</text>
  <text style="stroke:none;fill:black;font-family:sans-serif;font-size:13;" transform="matrix(1 0 0 1 776 2025)">scales and weights.</text>
  <g transform="matrix(1 0 0 1 1289 1933)">
   <path d="M2.8418 1.86523L4.54102 3.57422Q5.18555 4.22852 5.90332 4.17969Q6.62109 4.13086 7.31445 3.35938L18.0078-8.42773L17.041-9.4043L6.42578 2.27539Q6.16211 2.57812 5.89355 2.61719Q5.625 2.65625 5.27344 2.30469L4.10156 1.14258Q3.75 0.791016 3.79395 0.522461Q3.83789 0.253906 4.14062-0.0195312L15.6152-10.8203L14.6387-11.7871L3.04688-0.898438Q2.30469-0.214844 2.25098 0.498047Q2.19727 1.21094 2.8418 1.86523ZM9.25781-16.3281Q8.94531-16.0254 8.90625-15.6348Q8.86719-15.2441 9.04297-14.9512Q9.21875-14.6777 9.55566-14.541Q9.89258-14.4043 10.3809-14.5215Q11.4746-14.7754 12.5977-14.7314Q13.7207-14.6875 14.7949-13.9844L14.209-12.5293Q13.9551-11.9043 14.0674-11.4404Q14.1797-10.9766 14.5801-10.5664L16.875-8.25195Q17.2363-7.88086 17.5781-7.82227Q17.9199-7.76367 18.3398-7.8418L19.4043-8.03711L20.0684-7.36328L20.0293-6.80664Q20-6.43555 20.1221-6.12305Q20.2441-5.81055 20.6055-5.44922L21.3672-4.70703Q21.7285-4.3457 22.1533-4.33105Q22.5781-4.31641 22.9297-4.66797L25.8398-7.58789Q26.1914-7.93945 26.1816-8.35449Q26.1719-8.76953 25.8105-9.13086L25.0391-9.89258Q24.6875-10.2539 24.3799-10.3857Q24.0723-10.5176 23.7109-10.4883L23.1348-10.4395L22.4902-11.0742L22.7344-12.1973Q22.832-12.6172 22.6953-12.9834Q22.5586-13.3496 22.1191-13.7891L19.9219-15.9766Q18.6719-17.2168 17.2607-17.8369Q15.8496-18.457 14.4189-18.4814Q12.9883-18.5059 11.665-17.959Q10.3418-17.4121 9.25781-16.3281ZM10.752-15.957Q11.6602-16.6211 12.7002-16.9043Q13.7402-17.1875 14.8047-17.085Q15.8691-16.9824 16.8701-16.5137Q17.8711-16.0449 18.7012-15.2051L21.1328-12.793Q21.3086-12.6172 21.3525-12.4512Q21.3965-12.2852 21.3379-12.0312L21.0156-10.5469L22.5195-9.0625L23.5059-9.12109Q23.6914-9.13086 23.7891-9.09668Q23.8867-9.0625 24.0332-8.91602L24.6094-8.33984L22.168-5.89844L21.5918-6.47461Q21.4453-6.62109 21.4062-6.71875Q21.3672-6.81641 21.377-7.01172L21.4453-7.98828L19.9512-9.47266L18.4277-9.21875Q18.1836-9.16992 18.042-9.2041Q17.9004-9.23828 17.7148-9.41406L15.7129-11.416Q15.5176-11.5918 15.4932-11.7529Q15.4688-11.9141 15.5859-12.1875L16.4648-14.2773Q15.293-15.3711 13.8281-15.791Q12.3633-16.2109 10.8398-15.7617Q10.7227-15.7324 10.6885-15.8057Q10.6543-15.8789 10.752-15.957Z"/>
  </g>
  <text style="stroke:none;fill:black;font-family:sans-serif;font-size:13;font-weight:bold;" transform="matrix(1 0 0 1 1289 1953)">Exporting</text>
  <text style="stroke:none;fill:black;font-family:sans-serif;font-size:13;" transform="matrix(1 0 0 1 1289 1971)">Symbols should be outlined when exporting to ensure the</text>
  <text style="stroke:none;fill:black;font-family:sans-serif;font-size:13;" transform="matrix(1 0 0 1 1289 1989)">design is preserved when submitting to Xcode.</text>
  <text id="template-version" style="stroke:none;fill:black;font-family:sans-serif;font-size:13;text-anchor:end;" transform="matrix(1 0 0 1 3036 1933)">Template v.3.0</text>
  <text style="stroke:none;fill:black;font-family:sans-serif;font-size:13;text-anchor:end;" transform="matrix(1 0 0 1 3036 1951)">Requires Xcode 13 or greater</text>
  <text id="descriptive-name" style="stroke:none;fill:black;font-family:sans-serif;font-size:13;text-anchor:end;" transform="matrix(1 0 0 1 3036 1969)">Generated from logo.appstore.square</text>
  <text style="stroke:none;fill:black;font-family:sans-serif;font-size:13;text-anchor:end;" transform="matrix(1 0 0 1 3036 1987)">Typeset at 100 points</text>
  <text style="stroke:none;fill:black;font-family:sans-serif;font-size:13;" transform="matrix(1 0 0 1 263 726)">Small</text>
  <text style="stroke:none;fill:black;font-family:sans-serif;font-size:13;" transform="matrix(1 0 0 1 263 1156)">Medium</text>
  <text style="stroke:none;fill:black;font-family:sans-serif;font-size:13;" transform="matrix(1 0 0 1 263 1586)">Large</text>
 </g>
 <g id="Guides">
  <g id="H-reference" style="fill:#27AAE1;stroke:none;" transform="matrix(1 0 0 1 339 696)">
   <path d="M0.976562 0L3.66211 0L29.3457-67.1387L30.0293-67.1387L30.0293-70.459L28.125-70.459ZM11.6699-24.4629L46.9727-24.4629L46.2402-26.709L12.4512-26.709ZM55.127 0L57.7637 0L30.6152-70.459L29.4434-70.459L29.4434-67.1387Z"/>
  </g>
  <line id="Baseline-S" style="fill:none;stroke:#27AAE1;opacity:1;stroke-width:0.5;" x1="263" x2="3036" y1="696" y2="696"/>
  <line id="Capline-S" style="fill:none;stroke:#27AAE1;opacity:1;stroke-width:0.5;" x1="263" x2="3036" y1="625.541" y2="625.541"/>
  <g id="H-reference" style="fill:#27AAE1;stroke:none;" transform="matrix(1 0 0 1 339 1126)">
   <path d="M0.976562 0L3.66211 0L29.3457-67.1387L30.0293-67.1387L30.0293-70.459L28.125-70.459ZM11.6699-24.4629L46.9727-24.4629L46.2402-26.709L12.4512-26.709ZM55.127 0L57.7637 0L30.6152-70.459L29.4434-70.459L29.4434-67.1387Z"/>
  </g>
  <line id="Baseline-M" style="fill:none;stroke:#27AAE1;opacity:1;stroke-width:0.5;" x1="263" x2="3036" y1="1126" y2="1126"/>
  <line id="Capline-M" style="fill:none;stroke:#27AAE1;opacity:1;stroke-width:0.5;" x1="263" x2="3036" y1="1055.54" y2="1055.54"/>
  <g id="H-reference" style="fill:#27AAE1;stroke:none;" transform="matrix(1 0 0 1 339 1556)">
   <path d="M0.976562 0L3.66211 0L29.3457-67.1387L30.0293-67.1387L30.0293-70.459L28.125-70.459ZM11.6699-24.4629L46.9727-24.4629L46.2402-26.709L12.4512-26.709ZM55.127 0L57.7637 0L30.6152-70.459L29.4434-70.459L29.4434-67.1387Z"/>
  </g>
  <line id="Baseline-L" style="fill:none;stroke:#27AAE1;opacity:1;stroke-width:0.5;" x1="263" x2="3036" y1="1556" y2="1556"/>
  <line id="Capline-L" style="fill:none;stroke:#27AAE1;opacity:1;stroke-width:0.5;" x1="263" x2="3036" y1="1485.54" y2="1485.54"/>
  <line id="left-margin-Regular-M" style="fill:none;stroke:#00AEEF;stroke-width:0.5;opacity:1.0;" x1="1392.12" x2="1392.12" y1="1030.73" y2="1150.14"/>
  <line id="right-margin-Regular-M" style="fill:none;stroke:#00AEEF;stroke-width:0.5;opacity:1.0;" x1="1507.57" x2="1507.57" y1="1030.73" y2="1150.14"/>
 </g>
 <g id="Symbols">
  <g id="Black-L" transform="matrix(1 0 0 1 2855.3 1556)">
   <path class="multicolor-0:tintColor hierarchical-0:secondary SFSymbolsPreview007AFF" d="M40.2642 26.815L115.903 26.815C123.515 26.815 129.322 24.8118 133.488 20.6459C137.654 16.4801 139.655 10.7149 139.655 3.14864L139.655-72.6604C139.655-80.2267 137.654-86.0343 133.488-90.1577C129.322-94.3236 123.515-96.3268 115.903-96.3268L40.2642-96.3268C32.6952-96.3268 26.8876-94.3262 22.7218-90.1604C18.5559-85.9945 16.5553-80.2294 16.5553-72.6631L16.5553 3.146C16.5553 10.7149 18.5559 16.5225 22.7218 20.6459C26.8876 24.8144 32.6952 26.815 40.2642 26.815ZM42.9408 6.87725C40.7925 6.87725 39.231 6.28772 38.0546 5.27335C36.8781 4.25897 36.4507 2.53545 36.4507 0.225024L36.4507-69.8989C36.4507-72.1669 37.0402-73.8904 38.0546-74.9472C39.231-75.9616 40.7925-76.4315 42.9408-76.4315L113.107-76.4315C115.253-76.4315 116.934-75.9616 117.993-74.9472C119.053-73.9328 119.6-72.2093 119.6-69.8989L119.6 0.225024C119.6 2.53545 119.01 4.21653 117.993 5.27335C116.934 6.28772 115.256 6.87725 113.107 6.87725L42.9408 6.87725Z"/>
   <path class="multicolor-1:systemBlueColor hierarchical-1:primary SFSymbolsPreview007AFF" d="M77.9616-59.4609L79.938-62.7549C81.0909-64.7313 83.7261-65.5548 85.7025-64.4019C87.6789-63.249 88.5024-60.6138 87.3495-58.6374L69.0227-26.8503L82.1987-26.8503C86.4809-26.8503 88.9514-21.7446 86.975-18.2859L48.2731-18.2859C45.9673-18.2859 43.9909-20.2623 43.9909-22.5681C43.9909-24.8739 45.9673-26.8503 48.2731-26.8503L59.1433-26.8503L73.0206-50.8965L68.7384-58.4727C67.5855-60.4491 68.2443-63.0843 70.3854-64.2372C72.3618-65.3901 74.997-64.7313 76.1499-62.5902L77.9616-59.4609L77.9616-59.4609ZM61.4916-13.8416L57.3741-6.75953C56.2212-4.78313 53.586-3.95963 51.6096-5.11253C49.6332-6.26543 48.8097-8.90063 49.9626-10.877L53.0919-16.1474C56.5081-17.4624 59.308-16.6389 61.4916-13.8416L61.4916-13.8416ZM96.857-26.8503L107.892-26.8503C110.198-26.8503 112.174-24.8739 112.174-22.5681C112.174-20.2623 110.198-18.2859 107.892-18.2859L101.798-18.2859L105.915-11.0391C107.068-9.0627 106.41-6.4275 104.268-5.2746C102.292-4.1217 99.6569-4.7805 98.504-6.9216C91.5866-19.1094 86.3162-28.1679 82.6928-34.2618C79.0694-40.3557 81.7046-46.6143 84.1751-48.7554C87.0201-43.6523 91.2572-36.4055 96.857-26.8503L96.857-26.8503Z"/>
  </g>
  <g id="Heavy-L" transform="matrix(1 0 0 1 2559.5 1556)">
   <path class="multicolor-0:tintColor hierarchical-0:secondary SFSymbolsPreview007AFF" d="M39.2375 25.9148L115.087 25.9148C122.441 25.9148 128.021 24.006 131.979 20.0484C135.936 16.0908 137.833 10.5719 137.833 3.29073L137.833-72.8025C137.833-80.0837 135.936-85.6636 131.979-89.5602C128.021-93.5178 122.441-95.4266 115.087-95.4266L39.2375-95.4266C31.944-95.4266 26.3641-93.5301 22.4065-89.5725C18.449-85.615 16.5525-80.0961 16.5525-72.8149L16.5525 3.27837C16.5525 10.5719 18.449 16.1518 22.4065 20.0484C26.3641 24.0183 31.944 25.9148 39.2375 25.9148ZM41.3213 8.42964C38.8976 8.42964 37.1269 7.76419 35.8083 6.598C34.4898 5.4318 33.9767 3.50877 33.9767 0.93266L33.9767-70.5968C33.9767-73.112 34.6421-75.035 35.8083-76.2621C37.1269-77.4283 38.8976-78.0024 41.3213-78.0024L112.912-78.0024C115.323-78.0024 117.185-77.4283 118.425-76.2621C119.664-75.0959 120.269-73.1729 120.269-70.5968L120.269 0.93266C120.269 3.50877 119.603 5.37085 118.425 6.598C117.185 7.76419 115.336 8.42964 112.912 8.42964L41.3213 8.42964Z"/>
   <path class="multicolor-1:systemBlueColor hierarchical-1:primary SFSymbolsPreview007AFF" d="M77.0585-59.4609L79.0349-62.7549C80.1878-64.7313 82.823-65.5548 84.7994-64.4019C86.7758-63.249 87.5993-60.6138 86.4464-58.6374L68.0914-26.8503L81.2674-26.8503C85.5496-26.8503 88.0201-21.7446 86.0437-18.2859L47.3515-18.2859C45.0457-18.2859 43.0693-20.2623 43.0693-22.5681C43.0693-24.8739 45.0457-26.8503 47.3515-26.8503L58.2217-26.8503L72.1175-50.8965L67.8353-58.4727C66.6824-60.4491 67.3412-63.0843 69.4823-64.2372C71.4587-65.3901 74.0939-64.7313 75.2468-62.5902L77.0585-59.4609L77.0585-59.4609ZM60.5885-13.8514L56.471-6.76926C55.3181-4.79286 52.6829-3.96936 50.7065-5.12226C48.7301-6.27516 47.9066-8.91036 49.0595-10.8868L52.1888-16.1572C55.5865-17.4624 58.3864-16.6389 60.5885-13.8514L60.5885-13.8514ZM95.9257-26.8503L106.961-26.8503C109.266-26.8503 111.243-24.8739 111.243-22.5681C111.243-20.2623 109.266-18.2859 106.961-18.2859L100.867-18.2859L104.984-11.0391C106.137-9.0627 105.478-6.4275 103.337-5.2746C101.361-4.1217 98.7256-4.7805 97.5727-6.9216C90.6553-19.1094 85.3849-28.1679 81.7615-34.2618C78.1381-40.3557 80.7733-46.6143 83.2438-48.7554C86.117-43.6621 90.3259-36.4153 95.9257-26.8503L95.9257-26.8503Z"/>
  </g>
  <g id="Bold-L" transform="matrix(1 0 0 1 2263.93 1556)">
   <path class="multicolor-0:tintColor hierarchical-0:secondary SFSymbolsPreview007AFF" d="M37.9441 24.7898L114.088 24.7898C121.102 24.7898 126.391 22.9925 130.092 19.2915C133.793 15.5905 135.562 10.3765 135.562 3.46737L135.562-72.9792C135.562-79.8883 133.793-85.1781 130.092-88.8033C126.391-92.5043 121.102-94.3016 114.088-94.3016L37.9441-94.3016C31.0059-94.3016 25.7161-92.5335 22.0151-88.8324C18.3141-85.1314 16.5459-79.9174 16.5459-73.0083L16.5459 3.43824C16.5459 10.3765 18.3141 15.6663 22.0151 19.2915C25.7161 23.0217 31.0059 24.7898 37.9441 24.7898ZM39.3648 10.3371C36.5858 10.3371 34.5398 9.57499 33.0446 8.21538C31.5494 6.85577 30.9229 4.67421 30.9229 1.75962L30.9229-71.407C30.9229-74.2458 31.685-76.4274 33.0446-77.8627C34.5398-79.2224 36.5858-79.9247 39.3648-79.9247L112.607-79.9247C115.357-79.9247 117.463-79.2224 118.927-77.8627C120.392-76.5031 121.078-74.3216 121.078-71.407L121.078 1.75962C121.078 4.67421 120.316 6.78002 118.927 8.21538C117.463 9.57499 115.386 10.3371 112.607 10.3371L39.3648 10.3371Z"/>
   <path class="multicolor-1:systemBlueColor hierarchical-1:primary SFSymbolsPreview007AFF" d="M75.9269-59.4609L77.9033-62.7549C79.0562-64.7313 81.6914-65.5548 83.6678-64.4019C85.6442-63.249 86.4677-60.6138 85.3148-58.6374L66.9283-26.8503L80.1043-26.8503C84.3865-26.8503 86.857-21.7446 84.8806-18.2859L46.2052-18.2859C43.8994-18.2859 41.923-20.2623 41.923-22.5681C41.923-24.8739 43.8994-26.8503 46.2052-26.8503L57.0754-26.8503L70.9859-50.8965L66.7037-58.4727C65.5508-60.4491 66.2096-63.0843 68.3507-64.2372C70.3271-65.3901 72.9623-64.7313 74.1152-62.5902L75.9269-59.4609L75.9269-59.4609ZM59.4569-13.8681L55.3394-6.78604C54.1865-4.80964 51.5513-3.98614 49.5749-5.13904C47.5985-6.29194 46.775-8.92714 47.9279-10.9035L51.0572-16.1739C54.4402-17.4624 57.2401-16.6389 59.4569-13.8681L59.4569-13.8681ZM94.7626-26.8503L105.797-26.8503C108.103-26.8503 110.08-24.8739 110.08-22.5681C110.08-20.2623 108.103-18.2859 105.797-18.2859L99.7036-18.2859L103.821-11.0391C104.974-9.0627 104.315-6.4275 102.174-5.2746C100.198-4.1217 97.5625-4.7805 96.4096-6.9216C89.4922-19.1094 84.2218-28.1679 80.5984-34.2618C76.975-40.3557 79.6102-46.6143 82.0807-48.7554C84.9854-43.6788 89.1628-36.432 94.7626-26.8503L94.7626-26.8503Z"/>
  </g>
  <g id="Semibold-L" transform="matrix(1 0 0 1 1968.01 1556)">
   <path class="multicolor-0:tintColor hierarchical-0:secondary SFSymbolsPreview007AFF" d="M37.0525 24.0143L113.399 24.0143C120.178 24.0143 125.268 22.2939 128.792 18.7697C132.316 15.2456 133.996 10.2418 133.996 3.58915L133.996-73.1009C133.996-79.7536 132.316-84.8434 128.792-88.2815C125.268-91.8057 120.178-93.5261 113.399-93.5261L37.0525-93.5261C30.3591-93.5261 25.2694-91.8464 21.7453-88.3222C18.2211-84.7981 16.5414-79.7943 16.5414-73.1416L16.5414 3.54845C16.5414 10.2418 18.2211 15.3316 21.7453 18.7697C25.2694 22.3346 30.3591 24.0143 37.0525 24.0143ZM38.016 11.6522C34.9921 11.6522 32.7563 10.8233 31.1393 9.33039C29.5224 7.83745 28.8176 5.47765 28.8176 2.32972L28.8176-71.9655C28.8176-75.0275 29.6464-77.3873 31.1393-78.9662C32.7563-80.4591 34.9921-81.2499 38.016-81.2499L112.397-81.2499C115.38-81.2499 117.654-80.4591 119.274-78.9662C120.893-77.4733 121.636-75.1134 121.636-71.9655L121.636 2.32972C121.636 5.47765 120.808 7.75149 119.274 9.33039C117.654 10.8233 115.421 11.6522 112.397 11.6522L38.016 11.6522Z"/>
   <path class="multicolor-1:systemBlueColor hierarchical-1:primary SFSymbolsPreview007AFF" d="M75.1469-59.4609L77.1233-62.7549C78.2762-64.7313 80.9114-65.5548 82.8878-64.4019C84.8642-63.249 85.6877-60.6138 84.5348-58.6374L66.1264-26.8503L79.3024-26.8503C83.5846-26.8503 86.0551-21.7446 84.0787-18.2859L45.4149-18.2859C43.1091-18.2859 41.1327-20.2623 41.1327-22.5681C41.1327-24.8739 43.1091-26.8503 45.4149-26.8503L56.2851-26.8503L70.2059-50.8965L65.9237-58.4727C64.7708-60.4491 65.4296-63.0843 67.5707-64.2372C69.5471-65.3901 72.1823-64.7313 73.3352-62.5902L75.1469-59.4609L75.1469-59.4609ZM58.6769-13.8797L54.5594-6.7976C53.4065-4.8212 50.7713-3.9977 48.7949-5.1506C46.8185-6.3035 45.995-8.9387 47.1479-10.9151L50.2772-16.1855C53.6499-17.4624 56.4498-16.6389 58.6769-13.8797L58.6769-13.8797ZM93.9607-26.8503L104.996-26.8503C107.301-26.8503 109.278-24.8739 109.278-22.5681C109.278-20.2623 107.301-18.2859 104.996-18.2859L98.9017-18.2859L103.019-11.0391C104.172-9.0627 103.513-6.4275 101.372-5.2746C99.3958-4.1217 96.7606-4.7805 95.6077-6.9216C88.6903-19.1094 83.4199-28.1679 79.7965-34.2618C76.1731-40.3557 78.8083-46.6143 81.2788-48.7554C84.2054-43.6904 88.3609-36.4436 93.9607-26.8503L93.9607-26.8503Z"/>
  </g>
  <g id="Medium-L" transform="matrix(1 0 0 1 1671.89 1556)">
   <path class="multicolor-0:tintColor hierarchical-0:secondary SFSymbolsPreview007AFF" d="M36.3764 23.4262L112.876 23.4262C119.478 23.4262 124.416 21.7641 127.806 18.3741C131.196 14.9841 132.809 10.1397 132.809 3.68148L132.809-73.1933C132.809-79.6515 131.196-84.5896 127.806-87.8859C124.416-91.2759 119.478-92.938 112.876-92.938L36.3764-92.938C29.8687-92.938 24.9307-91.3254 21.5406-87.9354C18.1506-84.5453 16.538-79.701 16.538-73.2427L16.538 3.63201C16.538 10.1397 18.1506 15.0778 21.5406 18.3741C24.9307 21.8136 29.8687 23.4262 36.3764 23.4262ZM36.9933 12.6493C33.7836 12.6493 31.4039 11.7699 29.6947 10.1758C27.9854 8.5818 27.2212 6.08685 27.2212 2.76199L27.2212-72.389C27.2212-75.6202 28.1006-78.1151 29.6947-79.8029C31.4039-81.3969 33.7836-82.2548 36.9933-82.2548L112.238-82.2548C115.398-82.2548 117.799-81.3969 119.537-79.8029C121.274-78.2088 122.059-75.7139 122.059-72.389L122.059 2.76199C122.059 6.08685 121.18 8.4881 119.537 10.1758C117.799 11.7699 115.448 12.6493 112.238 12.6493L36.9933 12.6493Z"/>
   <path class="multicolor-1:systemBlueColor hierarchical-1:primary SFSymbolsPreview007AFF" d="M74.5554-59.4609L76.5318-62.7549C77.6847-64.7313 80.3199-65.5548 82.2963-64.4019C84.2727-63.249 85.0962-60.6138 83.9433-58.6374L65.5184-26.8503L78.6944-26.8503C82.9766-26.8503 85.4471-21.7446 83.4707-18.2859L44.8157-18.2859C42.5099-18.2859 40.5335-20.2623 40.5335-22.5681C40.5335-24.8739 42.5099-26.8503 44.8157-26.8503L55.6859-26.8503L69.6144-50.8965L65.3322-58.4727C64.1793-60.4491 64.8381-63.0843 66.9792-64.2372C68.9556-65.3901 71.5908-64.7313 72.7437-62.5902L74.5554-59.4609L74.5554-59.4609ZM58.0854-13.8885L53.9679-6.80637C52.815-4.82997 50.1798-4.00647 48.2034-5.15937C46.227-6.31227 45.4035-8.94747 46.5564-10.9239L49.6857-16.1943C53.0507-17.4624 55.8506-16.6389 58.0854-13.8885L58.0854-13.8885ZM93.3527-26.8503L104.388-26.8503C106.693-26.8503 108.67-24.8739 108.67-22.5681C108.67-20.2623 106.693-18.2859 104.388-18.2859L98.2937-18.2859L102.411-11.0391C103.564-9.0627 102.905-6.4275 100.764-5.2746C98.7878-4.1217 96.1526-4.7805 94.9997-6.9216C88.0823-19.1094 82.8119-28.1679 79.1885-34.2618C75.5651-40.3557 78.2003-46.6143 80.6708-48.7554C83.6139-43.6992 87.7529-36.4524 93.3527-26.8503L93.3527-26.8503Z"/>
  </g>
  <g id="Regular-L" transform="matrix(1 0 0 1 1375.96 1556)">
   <path class="multicolor-0:tintColor hierarchical-0:secondary SFSymbolsPreview007AFF" d="M35.4946 22.6592L112.195 22.6592C118.564 22.6592 123.305 21.0731 126.52 17.858C129.735 14.6429 131.26 10.0065 131.26 3.80191L131.26-73.3137C131.26-79.5183 129.735-84.2585 126.52-87.3698C123.305-90.5849 118.564-92.171 112.195-92.171L35.4946-92.171C29.2291-92.171 24.4888-90.6458 21.2738-87.4307C18.0587-84.2157 16.5335-79.5792 16.5335-73.3746L16.5335 3.74101C16.5335 10.0065 18.0587 14.7467 21.2738 17.858C24.4888 21.134 29.2291 22.6592 35.4946 22.6592ZM35.6593 13.9498C32.2074 13.9498 29.64 13.0045 27.8103 11.2786C25.9806 9.55269 25.1391 6.88146 25.1391 3.32583L25.1391-72.9414C25.1391-76.3933 26.0844-79.0645 27.8103-80.8942C29.64-82.6201 32.2074-83.5654 35.6593-83.5654L112.03-83.5654C115.421-83.5654 117.989-82.6201 119.879-80.8942C121.77-79.1683 122.611-76.4971 122.611-72.9414L122.611 3.32583C122.611 6.88146 121.666 9.44889 119.879 11.2786C117.989 13.0045 115.482 13.9498 112.03 13.9498L35.6593 13.9498Z"/>
   <path class="multicolor-1:systemBlueColor hierarchical-1:primary SFSymbolsPreview007AFF" d="M73.7839-59.4609L75.7603-62.7549C76.9132-64.7313 79.5484-65.5548 81.5248-64.4019C83.5012-63.249 84.3247-60.6138 83.1718-58.6374L64.7254-26.8503L77.9014-26.8503C82.1836-26.8503 84.6541-21.7446 82.6777-18.2859L44.0341-18.2859C41.7283-18.2859 39.7519-20.2623 39.7519-22.5681C39.7519-24.8739 41.7283-26.8503 44.0341-26.8503L54.9043-26.8503L68.8429-50.8965L64.5607-58.4727C63.4078-60.4491 64.0666-63.0843 66.2077-64.2372C68.1841-65.3901 70.8193-64.7313 71.9722-62.5902L73.7839-59.4609L73.7839-59.4609ZM57.3139-13.8999L53.1964-6.8178C52.0435-4.8414 49.4083-4.0179 47.4319-5.1708C45.4555-6.3237 44.632-8.9589 45.7849-10.9353L48.9142-16.2057C52.2691-17.4624 55.069-16.6389 57.3139-13.8999L57.3139-13.8999ZM92.5597-26.8503L103.595-26.8503C105.9-26.8503 107.877-24.8739 107.877-22.5681C107.877-20.2623 105.9-18.2859 103.595-18.2859L97.5007-18.2859L101.618-11.0391C102.771-9.0627 102.112-6.4275 99.9712-5.2746C97.9948-4.1217 95.3596-4.7805 94.2067-6.9216C87.2893-19.1094 82.0189-28.1679 78.3955-34.2618C74.7721-40.3557 77.4073-46.6143 79.8778-48.7554C82.8424-43.7106 86.9599-36.4638 92.5597-26.8503L92.5597-26.8503Z"/>
  </g>
  <g id="Light-L" transform="matrix(1 0 0 1 1080.09 1556)">
   <path class="multicolor-0:tintColor hierarchical-0:secondary SFSymbolsPreview007AFF" d="M34.4615 21.8186L111.582 21.8186C117.573 21.8186 122.061 20.2746 125.108 17.2276C128.155 14.1806 129.596 9.7543 129.596 3.928L129.596-73.4398C129.596-79.2661 128.155-83.7542 125.108-86.7394C122.061-89.7864 117.573-91.3304 111.582-91.3304L34.4615-91.3304C28.5323-91.3304 24.0442-89.8893 20.9972-86.8423C17.9503-83.7954 16.5091-79.369 16.5091-73.5427L16.5091 3.82507C16.5091 9.7543 17.9503 14.2424 20.9972 17.2276C24.0442 20.3775 28.5323 21.8186 34.4615 21.8186ZM34.6262 15.1687C30.8381 15.1687 27.9765 14.1393 26.0207 12.2453C24.0649 10.3512 23.0973 7.42784 23.0973 3.578L23.0973-73.1516C23.0973-76.9396 24.1267-79.863 26.0207-81.8188C27.9765-83.7129 30.8381-84.7422 34.6262-84.7422L111.418-84.7422C115.103-84.7422 117.964-83.7129 120.023-81.8188C122.082-79.9248 123.049-77.0014 123.049-73.1516L123.049 3.578C123.049 7.42784 122.02 10.2895 120.023 12.2453C117.964 14.1393 115.206 15.1687 111.418 15.1687L34.6262 15.1687Z"/>
   <path class="multicolor-1:systemBlueColor hierarchical-1:primary SFSymbolsPreview007AFF" d="M72.9189-59.4609L74.8953-62.7549C76.0482-64.7313 78.6834-65.5548 80.6598-64.4019C82.6362-63.249 83.4597-60.6138 82.3068-58.6374L63.8604-26.8503L77.0364-26.8503C81.3186-26.8503 83.7891-21.7446 81.8127-18.2859L43.2112-18.2859C40.9054-18.2859 38.929-20.2623 38.929-22.5681C38.929-24.8739 40.9054-26.8503 43.2112-26.8503L54.0814-26.8503L67.9779-50.8965L63.6957-58.4727C62.5428-60.4491 63.2016-63.0843 65.3427-64.2372C67.3191-65.3901 69.9543-64.7313 71.1072-62.5902L72.9189-59.4609L72.9189-59.4609ZM56.4489-13.9419L52.3314-6.85983C51.1785-4.88343 48.5433-4.05993 46.5669-5.21283C44.5905-6.36573 43.767-9.00093 44.9199-10.9773L48.0492-16.2477C51.4462-17.4624 54.2461-16.6389 56.4489-13.9419L56.4489-13.9419ZM91.6947-26.8503L102.73-26.8503C105.035-26.8503 107.012-24.8739 107.012-22.5681C107.012-20.2623 105.035-18.2859 102.73-18.2859L96.6357-18.2859L100.753-11.0391C101.906-9.0627 101.247-6.4275 99.1062-5.2746C97.1298-4.1217 94.4946-4.7805 93.3417-6.9216C86.4243-19.1094 81.1539-28.1679 77.5305-34.2618C73.9071-40.3557 76.5423-46.6143 79.0128-48.7554C81.9774-43.7526 86.0949-36.5058 91.6947-26.8503L91.6947-26.8503Z"/>
  </g>
  <g id="Thin-L" transform="matrix(1 0 0 1 784.489 1556)">
   <path class="multicolor-0:tintColor hierarchical-0:secondary SFSymbolsPreview007AFF" d="M33.0952 20.7069L110.772 20.7069C116.263 20.7069 120.417 19.2184 123.242 16.3938C126.066 13.5692 127.396 9.42078 127.396 4.09476L127.396-73.6066C127.396-78.9326 126.066-83.0872 123.242-85.9056C120.417-88.7302 116.263-90.2187 110.772-90.2187L33.0952-90.2187C27.6107-90.2187 23.4561-88.8887 20.6315-86.0641C17.8068-83.2395 16.4769-79.0911 16.4769-73.7651L16.4769 3.93624C16.4769 9.42078 17.8068 13.5754 20.6315 16.3938C23.4561 19.3769 27.6107 20.7069 33.0952 20.7069ZM33.2599 16.7807C29.0271 16.7807 25.7764 15.6401 23.6538 13.5238C21.5313 11.4074 20.3969 8.15046 20.3969 3.91152L20.3969-73.4295C20.3969-77.6623 21.5374-80.9192 23.6538-83.0417C25.7764-85.1581 29.0271-86.2987 33.2599-86.2987L110.607-86.2987C114.681-86.2987 117.932-85.1581 120.213-83.0417C122.494-80.9254 123.629-77.6684 123.629-73.4295L123.629 3.91152C123.629 8.15046 122.488 11.4012 120.213 13.5238C117.932 15.6401 114.84 16.7807 110.607 16.7807L33.2599 16.7807Z"/>
   <path class="multicolor-1:systemBlueColor hierarchical-1:primary SFSymbolsPreview007AFF" d="M71.775-59.4609L73.7514-62.7549C74.9043-64.7313 77.5395-65.5548 79.5159-64.4019C81.4923-63.249 82.3158-60.6138 81.1629-58.6374L62.7165-26.8503L75.8925-26.8503C80.1747-26.8503 82.6452-21.7446 80.6688-18.2859L42.1228-18.2859C39.817-18.2859 37.8406-20.2623 37.8406-22.5681C37.8406-24.8739 39.817-26.8503 42.1228-26.8503L52.993-26.8503L66.834-50.8965L62.5518-58.4727C61.3989-60.4491 62.0577-63.0843 64.1988-64.2372C66.1752-65.3901 68.8104-64.7313 69.9633-62.5902L71.775-59.4609L71.775-59.4609ZM55.305-13.9975L51.1875-6.91542C50.0346-4.93902 47.3994-4.11552 45.423-5.26842C43.4466-6.42132 42.6231-9.05652 43.776-11.0329L46.9053-16.3033C50.3578-17.4624 53.1577-16.6389 55.305-13.9975L55.305-13.9975ZM90.5508-26.8503L101.586-26.8503C103.891-26.8503 105.868-24.8739 105.868-22.5681C105.868-20.2623 103.891-18.2859 101.586-18.2859L95.4918-18.2859L99.6093-11.0391C100.762-9.0627 100.103-6.4275 97.9623-5.2746C95.9859-4.1217 93.3507-4.7805 92.1978-6.9216C85.2804-19.1094 80.01-28.1679 76.3866-34.2618C72.7632-40.3557 75.3984-46.6143 77.8689-48.7554C80.8335-43.8082 84.951-36.5614 90.5508-26.8503L90.5508-26.8503Z"/>
  </g>
  <g id="Ultralight-L" transform="matrix(1 0 0 1 488.348 1556)">
   <path class="multicolor-0:tintColor hierarchical-0:secondary SFSymbolsPreview007AFF" d="M32.3954 20.1375L110.357 20.1375C115.591 20.1375 119.575 18.6775 122.286 15.9667C124.996 13.256 126.269 9.24995 126.269 4.18017L126.269-73.692C126.269-78.7618 124.996-82.7455 122.286-85.4785C119.575-88.1893 115.591-89.6493 110.357-89.6493L32.3954-89.6493C27.1386-89.6493 23.1548-88.3763 20.4441-85.6655C17.7334-82.9548 16.4604-78.9487 16.4604-73.879L16.4604 3.99318C16.4604 9.24995 17.7334 13.2337 20.4441 15.9667C23.1548 18.8645 27.1386 20.1375 32.3954 20.1375ZM32.5601 17.6064C28.0995 17.6064 24.6495 16.4089 22.4415 14.1786C20.2335 11.9483 19.0138 8.52059 19.0138 4.08235L19.0138-73.5719C19.0138-78.0324 20.2113-81.4601 22.4415-83.6681C24.6495-85.8984 28.0995-87.0959 32.5601-87.0959L110.192-87.0959C114.466-87.0959 117.916-85.8984 120.311-83.6681C122.705-81.4378 123.925-78.0101 123.925-73.5719L123.925 4.08235C123.925 8.52059 122.728 11.9706 120.311 14.1786C117.916 16.4089 114.653 17.6064 110.192 17.6064L32.5601 17.6064Z"/>
   <path class="multicolor-1:systemBlueColor hierarchical-1:primary SFSymbolsPreview007AFF" d="M71.189-59.4609L73.1654-62.7549C74.3183-64.7313 76.9535-65.5548 78.9299-64.4019C80.9063-63.249 81.7298-60.6138 80.5769-58.6374L62.1305-26.8503L75.3065-26.8503C79.5887-26.8503 82.0592-21.7446 80.0828-18.2859L41.5653-18.2859C39.2595-18.2859 37.2831-20.2623 37.2831-22.5681C37.2831-24.8739 39.2595-26.8503 41.5653-26.8503L52.4355-26.8503L66.248-50.8965L61.9658-58.4727C60.8129-60.4491 61.4717-63.0843 63.6128-64.2372C65.5892-65.3901 68.2244-64.7313 69.3773-62.5902L71.189-59.4609L71.189-59.4609ZM54.719-14.026L50.6015-6.94389C49.4486-4.96749 46.8134-4.14399 44.837-5.29689C42.8606-6.44979 42.0371-9.08499 43.19-11.0614L46.3193-16.3318C49.8003-17.4624 52.6002-16.6389 54.719-14.026L54.719-14.026ZM89.9648-26.8503L101-26.8503C103.306-26.8503 105.282-24.8739 105.282-22.5681C105.282-20.2623 103.306-18.2859 101-18.2859L94.9058-18.2859L99.0233-11.0391C100.176-9.0627 99.5174-6.4275 97.3763-5.2746C95.3999-4.1217 92.7647-4.7805 91.6118-6.9216C84.6944-19.1094 79.424-28.1679 75.8006-34.2618C72.1772-40.3557 74.8124-46.6143 77.2829-48.7554C80.2475-43.8367 84.365-36.5899 89.9648-26.8503L89.9648-26.8503Z"/>
  </g>
  <g id="Black-M" transform="matrix(1 0 0 1 2872.22 1126)">
   <path class="multicolor-0:tintColor hierarchical-0:secondary SFSymbolsPreview007AFF" d="M31.9367 13.4942L90.414 13.4942C96.4804 13.4942 101.141 11.8668 104.525 8.48308C107.909 5.09939 109.537 0.44974 109.537-5.606L109.537-64.1284C109.537-70.1841 107.909-74.8451 104.525-78.2175C101.141-81.6012 96.4804-83.2286 90.414-83.2286L31.9367-83.2286C25.8816-83.2286 21.2207-81.6006 17.837-78.2169C14.4533-74.8332 12.8252-70.1835 12.8252-64.1278L12.8252-5.60538C12.8252 0.44974 14.4533 5.11068 17.837 8.48308C21.2207 11.8662 25.8816 13.4942 31.9367 13.4942ZM34.5199-3.78128C33.0466-3.78128 31.9769-4.18416 31.1705-4.86234C30.3641-5.54051 30.0894-6.7385 30.0894-8.34001L30.0894-61.5226C30.0894-63.1128 30.4923-64.3108 31.1705-65.0003C31.9769-65.6785 33.0466-65.9644 34.5199-65.9644L87.7138-65.9644C89.1877-65.9644 90.3744-65.6785 91.0633-65.0003C91.7521-64.3221 92.1437-63.1241 92.1437-61.5226L92.1437-8.34001C92.1437-6.7385 91.7408-5.5518 91.0633-4.86234C90.3744-4.18416 89.1871-3.78128 87.7138-3.78128L34.5199-3.78128Z"/>
   <path class="multicolor-1:systemBlueColor hierarchical-1:primary SFSymbolsPreview007AFF" d="M61.059-54.0072L62.5902-56.5592C63.4834-58.0904 65.525-58.7284 67.0562-57.8352C68.5874-56.942 69.2254-54.9004 68.3322-53.3692L54.158-28.7424L64.366-28.7424C67.6836-28.7424 69.5976-24.7868 68.0664-22.1072L38.0797-22.1072C36.2933-22.1072 34.7621-23.6384 34.7621-25.4248C34.7621-27.2112 36.2933-28.7424 38.0797-28.7424L46.5013-28.7424L57.231-47.372L53.9134-53.2416C53.0202-54.7728 53.5306-56.8144 55.1894-57.7076C56.7206-58.6008 58.7622-58.0904 59.6554-56.4316L61.059-54.0072L61.059-54.0072ZM48.299-18.6614L45.109-13.1746C44.2158-11.6434 42.1742-11.0054 40.643-11.8986C39.1118-12.7918 38.4738-14.8334 39.367-16.3646L41.7914-20.4478C44.4597-21.4692 46.6289-20.8312 48.299-18.6614L48.299-18.6614ZM75.7224-28.7424L84.2716-28.7424C86.058-28.7424 87.5892-27.2112 87.5892-25.4248C87.5892-23.6384 86.058-22.1072 84.2716-22.1072L79.5504-22.1072L82.7404-16.4928C83.6336-14.9616 83.1232-12.92 81.4644-12.0268C79.9332-11.1336 77.8916-11.644 76.9984-13.3028C71.6392-22.7452 67.556-29.7632 64.7488-34.4844C61.9416-39.2056 63.9832-44.0544 65.8972-45.7132C68.077-41.757 71.384-36.1426 75.7224-28.7424L75.7224-28.7424Z"/>
  </g>
  <g id="Heavy-M" transform="matrix(1 0 0 1 2576.33 1126)">
   <path class="multicolor-0:tintColor hierarchical-0:secondary SFSymbolsPreview007AFF" d="M31.0284 12.6917L89.6723 12.6917C95.5225 12.6917 99.984 11.1527 103.18 7.95708C106.375 4.76149 107.909 0.333168 107.909-5.47873L107.909-64.2557C107.909-70.0676 106.375-74.5291 103.18-77.6915C99.984-80.8871 95.5225-82.4261 89.6723-82.4261L31.0284-82.4261C25.2115-82.4261 20.7499-80.8921 17.5543-77.6965C14.3587-74.5009 12.8247-70.0726 12.8247-64.2607L12.8247-5.48373C12.8247 0.333168 14.3587 4.79475 17.5543 7.95708C20.7499 11.1577 25.2115 12.6917 31.0284 12.6917ZM33.0321-2.37616C31.3206-2.37616 30.0734-2.8455 29.1397-3.65658C28.2061-4.46766 27.8593-5.83742 27.8593-7.67151L27.8593-62.1855C27.8593-63.9863 28.3286-65.3561 29.1397-66.2004C30.0734-67.0115 31.3206-67.3915 33.0321-67.3915L87.5793-67.3915C89.2858-67.3915 90.6223-67.0115 91.4716-66.2004C92.321-65.3893 92.7571-64.0196 92.7571-62.1855L92.7571-7.67151C92.7571-5.83742 92.2877-4.50092 91.4716-3.65658C90.6223-2.8455 89.2908-2.37616 87.5793-2.37616L33.0321-2.37616Z"/>
   <path class="multicolor-1:systemBlueColor hierarchical-1:primary SFSymbolsPreview007AFF" d="M60.256-54.0072L61.7872-56.5592C62.6804-58.0904 64.722-58.7284 66.2532-57.8352C67.7844-56.942 68.4224-54.9004 67.5292-53.3692L53.3273-28.7424L63.5353-28.7424C66.8529-28.7424 68.7669-24.7868 67.2357-22.1072L37.2547-22.1072C35.4683-22.1072 33.9371-23.6384 33.9371-25.4248C33.9371-27.2112 35.4683-28.7424 37.2547-28.7424L45.6763-28.7424L56.428-47.372L53.1104-53.2416C52.2172-54.7728 52.7276-56.8144 54.3864-57.7076C55.9176-58.6008 57.9592-58.0904 58.8524-56.4316L60.256-54.0072L60.256-54.0072ZM47.496-18.667L44.306-13.1802C43.4128-11.649 41.3712-11.011 39.84-11.9042C38.3088-12.7974 37.6708-14.839 38.564-16.3702L40.9884-20.4534C43.6347-21.4692 45.8039-20.8312 47.496-18.667L47.496-18.667ZM74.8917-28.7424L83.4409-28.7424C85.2273-28.7424 86.7585-27.2112 86.7585-25.4248C86.7585-23.6384 85.2273-22.1072 83.4409-22.1072L78.7197-22.1072L81.9097-16.4928C82.8029-14.9616 82.2925-12.92 80.6337-12.0268C79.1025-11.1336 77.0609-11.644 76.1677-13.3028C70.8085-22.7452 66.7253-29.7632 63.9181-34.4844C61.1109-39.2056 63.1525-44.0544 65.0665-45.7132C67.274-41.7626 70.5533-36.1482 74.8917-28.7424L74.8917-28.7424Z"/>
  </g>
  <g id="Bold-M" transform="matrix(1 0 0 1 2280.53 1126)">
   <path class="multicolor-0:tintColor hierarchical-0:secondary SFSymbolsPreview007AFF" d="M30.0123 11.7939L88.8427 11.7939C94.4509 11.7939 98.6895 10.3539 101.675 7.36868C104.66 4.3835 106.089 0.202765 106.089-5.33635L106.089-64.3981C106.089-69.9372 104.66-74.1757 101.675-77.1031C98.6895-80.0883 94.4509-81.5283 88.8427-81.5283L30.0123-81.5283C24.4619-81.5283 20.2233-80.0996 17.2381-77.1144C14.2529-74.1292 12.8242-69.9485 12.8242-64.4094L12.8242-5.34765C12.8242 0.202765 14.2529 4.44133 17.2381 7.36868C20.2233 10.3652 24.4619 11.7939 30.0123 11.7939ZM31.3677-0.804329C29.3897-0.804329 27.9441-1.34801 26.868-2.30776C25.792-3.26752 25.3646-4.82942 25.3646-6.9237L25.3646-62.927C25.3646-64.9634 25.9083-66.5253 26.868-67.5429C27.9441-68.5027 29.3897-68.9879 31.3677-68.9879L87.4288-68.9879C89.3955-68.9879 90.8996-68.5027 91.9284-67.5429C92.9573-66.5832 93.4432-65.0213 93.4432-62.927L93.4432-6.9237C93.4432-4.82942 92.8995-3.32535 91.9284-2.30776C90.8996-1.34801 89.4068-0.804329 87.4288-0.804329L31.3677-0.804329Z"/>
   <path class="multicolor-1:systemBlueColor hierarchical-1:primary SFSymbolsPreview007AFF" d="M59.3577-54.0072L60.8889-56.5592C61.7821-58.0904 63.8237-58.7284 65.3549-57.8352C66.8861-56.942 67.5241-54.9004 66.6309-53.3692L52.3982-28.7424L62.6062-28.7424C65.9238-28.7424 67.8378-24.7868 66.3066-22.1072L36.3319-22.1072C34.5455-22.1072 33.0143-23.6384 33.0143-25.4248C33.0143-27.2112 34.5455-28.7424 36.3319-28.7424L44.7535-28.7424L55.5297-47.372L52.2121-53.2416C51.3189-54.7728 51.8293-56.8144 53.4881-57.7076C55.0193-58.6008 57.0609-58.0904 57.9541-56.4316L59.3577-54.0072L59.3577-54.0072ZM46.5977-18.6733L43.4077-13.1865C42.5145-11.6553 40.4729-11.0173 38.9417-11.9105C37.4105-12.8037 36.7725-14.8453 37.6657-16.3765L40.0901-20.4597C42.7119-21.4692 44.8811-20.8312 46.5977-18.6733L46.5977-18.6733ZM73.9626-28.7424L82.5118-28.7424C84.2982-28.7424 85.8294-27.2112 85.8294-25.4248C85.8294-23.6384 84.2982-22.1072 82.5118-22.1072L77.7906-22.1072L80.9806-16.4928C81.8738-14.9616 81.3634-12.92 79.7046-12.0268C78.1734-11.1336 76.1318-11.644 75.2386-13.3028C69.8794-22.7452 65.7962-29.7632 62.989-34.4844C60.1818-39.2056 62.2234-44.0544 64.1374-45.7132C66.3757-41.7689 69.6242-36.1545 73.9626-28.7424L73.9626-28.7424Z"/>
  </g>
  <g id="Semibold-M" transform="matrix(1 0 0 1 1984.45 1126)">
   <path class="multicolor-0:tintColor hierarchical-0:secondary SFSymbolsPreview007AFF" d="M29.3118 11.1751L88.2707 11.1751C93.7122 11.1751 97.797 9.80315 100.637 6.96303C103.477 4.12292 104.834 0.112865 104.834-5.23819L104.834-64.4962C104.834-69.8473 103.477-73.9321 100.637-76.6974C97.797-79.5376 93.7122-80.9095 88.2707-80.9095L29.3118-80.9095C23.9451-80.9095 19.8603-79.5532 17.0201-76.7131C14.18-73.873 12.8238-69.8629 12.8238-64.5119L12.8238-5.25384C12.8238 0.112865 14.18 4.19769 17.0201 6.96303C19.8603 9.8188 23.9451 11.1751 29.3118 11.1751ZM30.2203 0.27928C28.0586 0.27928 26.4762-0.315646 25.302-1.3779C24.1277-2.44015 23.6448-4.13452 23.6448-6.40816L23.6448-63.4382C23.6448-65.6371 24.2397-67.3314 25.302-68.4685C26.4762-69.5307 28.0586-70.0884 30.2203-70.0884L87.3251-70.0884C89.4711-70.0884 91.0907-69.5307 92.2434-68.4685C93.396-67.4062 93.9162-65.7118 93.9162-63.4382L93.9162-6.40816C93.9162-4.13452 93.3213-2.51492 92.2434-1.3779C91.0907-0.315646 89.4868 0.27928 87.3251 0.27928L30.2203 0.27928Z"/>
   <path class="multicolor-1:systemBlueColor hierarchical-1:primary SFSymbolsPreview007AFF" d="M58.7384-54.0072L60.2696-56.5592C61.1628-58.0904 63.2044-58.7284 64.7356-57.8352C66.2668-56.942 66.9048-54.9004 66.0116-53.3692L51.7576-28.7424L61.9656-28.7424C65.2832-28.7424 67.1972-24.7868 65.666-22.1072L35.6957-22.1072C33.9093-22.1072 32.3781-23.6384 32.3781-25.4248C32.3781-27.2112 33.9093-28.7424 35.6957-28.7424L44.1173-28.7424L54.9104-47.372L51.5928-53.2416C50.6996-54.7728 51.21-56.8144 52.8688-57.7076C54.4-58.6008 56.4416-58.0904 57.3348-56.4316L58.7384-54.0072L58.7384-54.0072ZM45.9784-18.6776L42.7884-13.1908C41.8952-11.6596 39.8536-11.0216 38.3224-11.9148C36.7912-12.808 36.1532-14.8496 37.0464-16.3808L39.4708-20.464C42.0757-21.4692 44.2449-20.8312 45.9784-18.6776L45.9784-18.6776ZM73.322-28.7424L81.8712-28.7424C83.6576-28.7424 85.1888-27.2112 85.1888-25.4248C85.1888-23.6384 83.6576-22.1072 81.8712-22.1072L77.15-22.1072L80.34-16.4928C81.2332-14.9616 80.7228-12.92 79.064-12.0268C77.5328-11.1336 75.4912-11.644 74.598-13.3028C69.2388-22.7452 65.1556-29.7632 62.3484-34.4844C59.5412-39.2056 61.5828-44.0544 63.4968-45.7132C65.7564-41.7732 68.9836-36.1588 73.322-28.7424L73.322-28.7424Z"/>
  </g>
  <g id="Medium-M" transform="matrix(1 0 0 1 1688.21 1126)">
   <path class="multicolor-0:tintColor hierarchical-0:secondary SFSymbolsPreview007AFF" d="M28.7806 10.7058L87.8371 10.7058C93.1521 10.7058 97.1203 9.38558 99.8504 6.65546C102.581 3.92533 103.882 0.0447002 103.882-5.16377L103.882-64.5706C103.882-69.7791 102.581-73.7473 99.8504-76.3899C97.1203-79.12 93.1521-80.4402 87.8371-80.4402L28.7806-80.4402C23.5532-80.4402 19.585-79.1389 16.8549-76.4088C14.1247-73.6787 12.8235-69.798 12.8235-64.5896L12.8235-5.18271C12.8235 0.0447002 14.1247 4.01294 16.8549 6.65546C19.585 9.40452 23.5532 10.7058 28.7806 10.7058ZM29.3502 1.10092C27.0493 1.10092 25.3631 0.467133 24.1145-0.672838C22.8659-1.81281 22.3407-3.60761 22.3407-6.01726L22.3407-63.8258C22.3407-66.1478 22.9745-67.9426 24.1145-69.1702C25.3631-70.3102 27.0493-70.9229 29.3502-70.9229L87.2464-70.9229C89.5284-70.9229 91.2356-70.3102 92.4822-69.1702C93.7287-68.0303 94.2749-66.2354 94.2749-63.8258L94.2749-6.01726C94.2749-3.60761 93.6411-1.90042 92.4822-0.672838C91.2356 0.467133 89.5474 1.10092 87.2464 1.10092L29.3502 1.10092Z"/>
   <path class="multicolor-1:systemBlueColor hierarchical-1:primary SFSymbolsPreview007AFF" d="M58.2689-54.0072L59.8001-56.5592C60.6933-58.0904 62.7349-58.7284 64.2661-57.8352C65.7973-56.942 66.4353-54.9004 65.5421-53.3692L51.2719-28.7424L61.4799-28.7424C64.7975-28.7424 66.7115-24.7868 65.1803-22.1072L35.2132-22.1072C33.4268-22.1072 31.8956-23.6384 31.8956-25.4248C31.8956-27.2112 33.4268-28.7424 35.2132-28.7424L43.6348-28.7424L54.4409-47.372L51.1233-53.2416C50.2301-54.7728 50.7405-56.8144 52.3993-57.7076C53.9305-58.6008 55.9721-58.0904 56.8653-56.4316L58.2689-54.0072L58.2689-54.0072ZM45.5089-18.6809L42.3189-13.1941C41.4257-11.6629 39.3841-11.0249 37.8529-11.9181C36.3217-12.8113 35.6837-14.8529 36.5769-16.3841L39.0013-20.4673C41.5932-21.4692 43.7624-20.8312 45.5089-18.6809L45.5089-18.6809ZM72.8363-28.7424L81.3855-28.7424C83.1719-28.7424 84.7031-27.2112 84.7031-25.4248C84.7031-23.6384 83.1719-22.1072 81.3855-22.1072L76.6643-22.1072L79.8543-16.4928C80.7475-14.9616 80.2371-12.92 78.5783-12.0268C77.0471-11.1336 75.0055-11.644 74.1123-13.3028C68.7531-22.7452 64.6699-29.7632 61.8627-34.4844C59.0555-39.2056 61.0971-44.0544 63.0111-45.7132C65.2869-41.7765 68.4979-36.1621 72.8363-28.7424L72.8363-28.7424Z"/>
  </g>
  <g id="Regular-M" transform="matrix(1 0 0 1 1392.12 1126)">
   <path class="multicolor-0:tintColor hierarchical-0:secondary SFSymbolsPreview007AFF" d="M28.0878 10.0937L87.2714 10.0937C92.4215 10.0937 96.2377 8.84093 98.8243 6.25427C101.411 3.66761 102.641-0.0442109 102.641-5.06669L102.641-64.6677C102.641-69.6902 101.411-73.5064 98.8243-75.9887C96.2377-78.5753 92.4215-79.8281 87.2714-79.8281L28.0878-79.8281C23.0421-79.8281 19.2259-78.5986 16.6393-76.0119C14.0526-73.4252 12.8231-69.7134 12.8231-64.6909L12.8231-5.08993C12.8231-0.0442109 14.0526 3.77198 16.6393 6.25427C19.2259 8.86417 23.0421 10.0937 28.0878 10.0937ZM28.2154 2.17262C25.7328 2.17262 23.9113 1.48815 22.5656 0.246809C21.2199-0.994532 20.6398-2.92034 20.6398-5.50739L20.6398-64.3314C20.6398-66.8141 21.3243-68.7399 22.5656-70.0856C23.9113-71.3269 25.7328-72.0114 28.2154-72.0114L87.1438-72.0114C89.6032-72.0114 91.4247-71.3269 92.7936-70.0856C94.1626-68.8442 94.7427-66.9184 94.7427-64.3314L94.7427-5.50739C94.7427-2.92034 94.0582-1.0989 92.7936 0.246809C91.4247 1.48815 89.6265 2.17262 87.1438 2.17262L28.2154 2.17262Z"/>
   <path class="multicolor-1:systemBlueColor hierarchical-1:primary SFSymbolsPreview007AFF" d="M57.6564-54.0072L59.1876-56.5592C60.0808-58.0904 62.1224-58.7284 63.6536-57.8352C65.1848-56.942 65.8228-54.9004 64.9296-53.3692L50.6384-28.7424L60.8464-28.7424C64.164-28.7424 66.078-24.7868 64.5468-22.1072L34.584-22.1072C32.7976-22.1072 31.2664-23.6384 31.2664-25.4248C31.2664-27.2112 32.7976-28.7424 34.584-28.7424L43.0056-28.7424L53.8284-47.372L50.5108-53.2416C49.6176-54.7728 50.128-56.8144 51.7868-57.7076C53.318-58.6008 55.3596-58.0904 56.2528-56.4316L57.6564-54.0072L57.6564-54.0072ZM44.8964-18.6852L41.7064-13.1984C40.8132-11.6672 38.7716-11.0292 37.2404-11.9224C35.7092-12.8156 35.0712-14.8572 35.9644-16.3884L38.3888-20.4716C40.964-21.4692 43.1332-20.8312 44.8964-18.6852L44.8964-18.6852ZM72.2028-28.7424L80.752-28.7424C82.5384-28.7424 84.0696-27.2112 84.0696-25.4248C84.0696-23.6384 82.5384-22.1072 80.752-22.1072L76.0308-22.1072L79.2208-16.4928C80.114-14.9616 79.6036-12.92 77.9448-12.0268C76.4136-11.1336 74.372-11.644 73.4788-13.3028C68.1196-22.7452 64.0364-29.7632 61.2292-34.4844C58.422-39.2056 60.4636-44.0544 62.3776-45.7132C64.6744-41.7808 67.8644-36.1664 72.2028-28.7424L72.2028-28.7424Z"/>
  </g>
  <g id="Light-M" transform="matrix(1 0 0 1 1096.17 1126)">
   <path class="multicolor-0:tintColor hierarchical-0:secondary SFSymbolsPreview007AFF" d="M27.1616 9.34007L86.722 9.34007C91.533 9.34007 95.1231 8.12499 97.559 5.68906C99.9949 3.25312 101.149-0.270298 101.149-4.95365L101.149-64.7807C101.149-69.4641 99.9949-73.0542 97.559-75.4235C95.1231-77.8594 91.533-79.0745 86.722-79.0745L27.1616-79.0745C22.4174-79.0745 18.8273-77.9203 16.3913-75.4844C13.9554-73.0484 12.8012-69.525 12.8012-64.8417L12.8012-5.01457C12.8012-0.270298 13.9554 3.3198 16.3913 5.68906C18.8273 8.18591 22.4174 9.34007 27.1616 9.34007ZM27.2892 3.26537C24.5051 3.26537 22.4199 2.50554 20.9611 1.11348C19.5024-0.27859 18.8092-2.43049 18.8092-5.2813L18.8092-64.5198C18.8092-67.3039 19.5691-69.4558 20.9611-70.9146C22.4199-72.3066 24.5051-73.0665 27.2892-73.0665L86.5944-73.0665C89.3176-73.0665 91.4028-72.3066 92.9225-70.9146C94.4422-69.5225 95.1353-67.3706 95.1353-64.5198L95.1353-5.2813C95.1353-2.43049 94.3755-0.345274 92.9225 1.11348C91.4028 2.50554 89.3785 3.26537 86.5944 3.26537L27.2892 3.26537Z"/>
   <path class="multicolor-1:systemBlueColor hierarchical-1:primary SFSymbolsPreview007AFF" d="M56.8809-54.0072L58.4121-56.5592C59.3053-58.0904 61.3469-58.7284 62.8781-57.8352C64.4093-56.942 65.0473-54.9004 64.1541-53.3692L49.8629-28.7424L60.0709-28.7424C63.3885-28.7424 65.3025-24.7868 63.7713-22.1072L33.8462-22.1072C32.0598-22.1072 30.5286-23.6384 30.5286-25.4248C30.5286-27.2112 32.0598-28.7424 33.8462-28.7424L42.2678-28.7424L53.0529-47.372L49.7353-53.2416C48.8421-54.7728 49.3525-56.8144 51.0113-57.7076C52.5425-58.6008 54.5841-58.0904 55.4773-56.4316L56.8809-54.0072L56.8809-54.0072ZM44.1209-18.7229L40.9309-13.2361C40.0377-11.7049 37.9961-11.0669 36.4649-11.9601C34.9337-12.8533 34.2957-14.8949 35.1889-16.4261L37.6133-20.5093C40.2262-21.4692 42.3954-20.8312 44.1209-18.7229L44.1209-18.7229ZM71.4273-28.7424L79.9765-28.7424C81.7629-28.7424 83.2941-27.2112 83.2941-25.4248C83.2941-23.6384 81.7629-22.1072 79.9765-22.1072L75.2553-22.1072L78.4453-16.4928C79.3385-14.9616 78.8281-12.92 77.1693-12.0268C75.6381-11.1336 73.5965-11.644 72.7033-13.3028C67.3441-22.7452 63.2609-29.7632 60.4537-34.4844C57.6465-39.2056 59.6881-44.0544 61.6021-45.7132C63.8989-41.8185 67.0889-36.2041 71.4273-28.7424L71.4273-28.7424Z"/>
  </g>
  <g id="Thin-M" transform="matrix(1 0 0 1 800.452 1126)">
   <path class="multicolor-0:tintColor hierarchical-0:secondary SFSymbolsPreview007AFF" d="M25.9367 8.34335L85.9954 8.34335C90.3578 8.34335 93.6489 7.1781 95.8855 4.94151C98.1221 2.70492 99.1766-0.569316 99.1766-4.80414L99.1766-64.9303C99.1766-69.1651 98.1221-72.4562 95.8855-74.6759C93.6489-76.9125 90.3578-78.0777 85.9954-78.0777L25.9367-78.0777C21.5911-78.0777 18.3-77.0233 16.0634-74.7867C13.8268-72.5501 12.7723-69.2758 12.7723-65.041L12.7723-4.91489C12.7723-0.569316 13.8268 2.72177 16.0634 4.94151C18.3 7.28885 21.5911 8.34335 25.9367 8.34335ZM26.0643 4.71063C22.8814 4.71063 20.4474 3.85112 18.8391 2.25971C17.2309 0.668301 16.3882-1.78262 16.3882-4.98228L16.3882-64.769C16.3882-67.9518 17.2477-70.4027 18.8391-72.011C20.4474-73.6024 22.8814-74.4619 26.0643-74.4619L85.8678-74.4619C88.9399-74.4619 91.3739-73.6024 93.0929-72.011C94.8119-70.4195 95.6546-67.9686 95.6546-64.769L95.6546-4.98228C95.6546-1.78262 94.7951 0.651454 93.0929 2.25971C91.3739 3.85112 89.0506 4.71063 85.8678 4.71063L26.0643 4.71063Z"/>
   <path class="multicolor-1:systemBlueColor hierarchical-1:primary SFSymbolsPreview007AFF" d="M55.8553-54.0072L57.3865-56.5592C58.2797-58.0904 60.3213-58.7284 61.8525-57.8352C63.3837-56.942 64.0217-54.9004 63.1285-53.3692L48.8373-28.7424L59.0453-28.7424C62.3629-28.7424 64.2769-24.7868 62.7457-22.1072L32.8704-22.1072C31.084-22.1072 29.5528-23.6384 29.5528-25.4248C29.5528-27.2112 31.084-28.7424 32.8704-28.7424L41.292-28.7424L52.0273-47.372L48.7097-53.2416C47.8165-54.7728 48.3269-56.8144 49.9857-57.7076C51.5169-58.6008 53.5585-58.0904 54.4517-56.4316L55.8553-54.0072L55.8553-54.0072ZM43.0953-18.7728L39.9053-13.286C39.0121-11.7548 36.9705-11.1168 35.4393-12.01C33.9081-12.9032 33.2701-14.9448 34.1633-16.476L36.5877-20.5592C39.2504-21.4692 41.4196-20.8312 43.0953-18.7728L43.0953-18.7728ZM70.4017-28.7424L78.9509-28.7424C80.7373-28.7424 82.2685-27.2112 82.2685-25.4248C82.2685-23.6384 80.7373-22.1072 78.9509-22.1072L74.2297-22.1072L77.4197-16.4928C78.3129-14.9616 77.8025-12.92 76.1437-12.0268C74.6125-11.1336 72.5709-11.644 71.6777-13.3028C66.3185-22.7452 62.2353-29.7632 59.4281-34.4844C56.6209-39.2056 58.6625-44.0544 60.5765-45.7132C62.8733-41.8684 66.0633-36.254 70.4017-28.7424L70.4017-28.7424Z"/>
  </g>
  <g id="Ultralight-M" transform="matrix(1 0 0 1 504.251 1126)">
   <path class="multicolor-0:tintColor hierarchical-0:secondary SFSymbolsPreview007AFF" d="M25.3092 7.83283L85.6232 7.83283C89.7559 7.83283 92.8938 6.69311 95.0283 4.55862C97.1628 2.42414 98.1663-0.722472 98.1663-4.72756L98.1663-65.0068C98.1663-69.0119 97.1628-72.1499 95.0283-74.293C92.8938-76.4275 89.7559-77.5672 85.6232-77.5672L25.3092-77.5672C21.1679-77.5672 18.0299-76.5638 15.8954-74.4293C13.761-72.2948 12.7575-69.1482 12.7575-65.1431L12.7575-4.86384C12.7575-0.722472 13.761 2.41546 15.8954 4.55862C18.0299 6.82938 21.1679 7.83283 25.3092 7.83283ZM25.4368 5.45088C22.0498 5.45088 19.4371 4.54032 17.7522 2.84681C16.0674 1.15329 15.1481-1.45078 15.1481-4.82913L15.1481-64.8966C15.1481-68.2836 16.0587-70.8877 17.7522-72.5725C19.4371-74.266 22.0498-75.1766 25.4368-75.1766L85.4956-75.1766C88.7464-75.1766 91.3591-74.266 93.1802-72.5725C95.0013-70.879 95.9206-68.2749 95.9206-64.8966L95.9206-4.82913C95.9206-1.45078 95.01 1.16197 93.1802 2.84681C91.3591 4.54032 88.8826 5.45088 85.4956 5.45088L25.4368 5.45088Z"/>
   <path class="multicolor-1:systemBlueColor hierarchical-1:primary SFSymbolsPreview007AFF" d="M55.3299-54.0072L56.8611-56.5592C57.7543-58.0904 59.7959-58.7284 61.3271-57.8352C62.8583-56.942 63.4963-54.9004 62.6031-53.3692L48.3119-28.7424L58.5199-28.7424C61.8375-28.7424 63.7515-24.7868 62.2203-22.1072L32.3706-22.1072C30.5842-22.1072 29.053-23.6384 29.053-25.4248C29.053-27.2112 30.5842-28.7424 32.3706-28.7424L40.7922-28.7424L51.5019-47.372L48.1843-53.2416C47.2911-54.7728 47.8015-56.8144 49.4603-57.7076C50.9915-58.6008 53.0331-58.0904 53.9263-56.4316L55.3299-54.0072L55.3299-54.0072ZM42.5699-18.7983L39.3799-13.3115C38.4867-11.7803 36.4451-11.1423 34.9139-12.0355C33.3827-12.9287 32.7447-14.9703 33.6379-16.5015L36.0623-20.5847C38.7506-21.4692 40.9198-20.8312 42.5699-18.7983L42.5699-18.7983ZM69.8763-28.7424L78.4255-28.7424C80.2119-28.7424 81.7431-27.2112 81.7431-25.4248C81.7431-23.6384 80.2119-22.1072 78.4255-22.1072L73.7043-22.1072L76.8943-16.4928C77.7875-14.9616 77.2771-12.92 75.6183-12.0268C74.0871-11.1336 72.0455-11.644 71.1523-13.3028C65.7931-22.7452 61.7099-29.7632 58.9027-34.4844C56.0955-39.2056 58.1371-44.0544 60.0511-45.7132C62.3479-41.8939 65.5379-36.2795 69.8763-28.7424L69.8763-28.7424Z"/>
  </g>
  <g id="Black-S" transform="matrix(1 0 0 1 2885.25 696)">
   <path class="multicolor-0:tintColor hierarchical-0:secondary SFSymbolsPreview007AFF" d="M25.25 3.15L71.05 3.15C75.85 3.15 79.55 1.85 82.25-0.85C84.95-3.55 86.25-7.25 86.25-12.05L86.25-57.85C86.25-62.65 84.95-66.35 82.25-69.05C79.55-71.75 75.85-73.05 71.05-73.05L25.25-73.05C20.45-73.05 16.75-71.75 14.05-69.05C11.35-66.35 10.05-62.65 10.05-57.85L10.05-12.05C10.05-7.25 11.35-3.55 14.05-0.85C16.75 1.85 20.45 3.15 25.25 3.15ZM27.45-10.95C26.35-10.95 25.55-11.25 24.95-11.75C24.35-12.25 24.15-13.15 24.15-14.35L24.15-55.65C24.15-56.85 24.45-57.75 24.95-58.25C25.55-58.75 26.35-58.95 27.45-58.95L68.75-58.95C69.85-58.95 70.75-58.75 71.25-58.25C71.75-57.75 72.05-56.85 72.05-55.65L72.05-14.35C72.05-13.15 71.75-12.25 71.25-11.75C70.75-11.25 69.85-10.95 68.75-10.95L27.45-10.95Z"/>
   <path class="multicolor-1:systemBlueColor hierarchical-1:primary SFSymbolsPreview007AFF" d="M48.05-49.95L49.25-51.95C49.95-53.15 51.55-53.65 52.75-52.95C53.95-52.25 54.45-50.65 53.75-49.45L42.65-30.15L50.65-30.15C53.25-30.15 54.75-27.05 53.55-24.95L30.05-24.95C28.65-24.95 27.45-26.15 27.45-27.55C27.45-28.95 28.65-30.15 30.05-30.15L36.65-30.15L45.05-44.75L42.45-49.35C41.75-50.55 42.15-52.15 43.45-52.85C44.65-53.55 46.25-53.15 46.95-51.85L48.05-49.95L48.05-49.95ZM38.05-22.25L35.55-17.95C34.85-16.75 33.25-16.25 32.05-16.95C30.85-17.65 30.35-19.25 31.05-20.45L32.95-23.65C35.05-24.45 36.75-23.95 38.05-22.25L38.05-22.25ZM59.55-30.15L66.25-30.15C67.65-30.15 68.85-28.95 68.85-27.55C68.85-26.15 67.65-24.95 66.25-24.95L62.55-24.95L65.05-20.55C65.75-19.35 65.35-17.75 64.05-17.05C62.85-16.35 61.25-16.75 60.55-18.05C56.35-25.45 53.15-30.95 50.95-34.65C48.75-38.35 50.35-42.15 51.85-43.45C53.55-40.35 56.15-35.95 59.55-30.15L59.55-30.15Z"/>
  </g>
  <g id="Heavy-S" transform="matrix(1 0 0 1 2589.14 696)">
   <path class="multicolor-0:tintColor hierarchical-0:secondary SFSymbolsPreview007AFF" d="M24.5915 2.55995L70.4859 2.55995C75.1443 2.55995 78.7027 1.33075 81.2611-1.22763C83.8195-3.78602 85.0487-7.32081 85.0487-11.9556L85.0487-57.9444C85.0487-62.5792 83.8195-66.1376 81.2611-68.6724C78.7027-71.2308 75.1443-72.4599 70.4859-72.4599L24.5915-72.4599C19.9567-72.4599 16.3983-71.2308 13.8399-68.6724C11.2816-66.114 10.0524-62.5792 10.0524-57.9444L10.0524-11.9556C10.0524-7.32081 11.2816-3.76242 13.8399-1.22763C16.3983 1.33075 19.9567 2.55995 24.5915 2.55995ZM26.2959-9.88791C25.0306-9.88791 24.1126-10.2351 23.4182-10.8295C22.7238-11.4239 22.4766-12.4419 22.4766-13.8072L22.4766-56.1928C22.4766-57.5345 22.8238-58.5525 23.4182-59.1705C24.1126-59.7649 25.0306-60.0357 26.2959-60.0357L68.7052-60.0357C69.9704-60.0357 70.9648-59.7649 71.5828-59.1705C72.2008-58.5761 72.5244-57.5581 72.5244-56.1928L72.5244-13.8072C72.5244-12.4419 72.1772-11.4475 71.5828-10.8295C70.9648-10.2351 69.9704-9.88791 68.7052-9.88791L26.2959-9.88791Z"/>
   <path class="multicolor-1:systemBlueColor hierarchical-1:primary SFSymbolsPreview007AFF" d="M47.4623-49.95L48.6623-51.95C49.3623-53.15 50.9623-53.65 52.1623-52.95C53.3623-52.25 53.8623-50.65 53.1623-49.45L42.0387-30.15L50.0387-30.15C52.6387-30.15 54.1387-27.05 52.9387-24.95L29.4387-24.95C28.0387-24.95 26.8387-26.15 26.8387-27.55C26.8387-28.95 28.0387-30.15 29.4387-30.15L36.0387-30.15L44.4623-44.75L41.8623-49.35C41.1623-50.55 41.5623-52.15 42.8623-52.85C44.0623-53.55 45.6623-53.15 46.3623-51.85L47.4623-49.95L47.4623-49.95ZM37.4623-22.25L34.9623-17.95C34.2623-16.75 32.6623-16.25 31.4623-16.95C30.2623-17.65 29.7623-19.25 30.4623-20.45L32.3623-23.65C34.4387-24.45 36.1387-23.95 37.4623-22.25L37.4623-22.25ZM58.9387-30.15L65.6387-30.15C67.0387-30.15 68.2387-28.95 68.2387-27.55C68.2387-26.15 67.0387-24.95 65.6387-24.95L61.9387-24.95L64.4387-20.55C65.1387-19.35 64.7387-17.75 63.4387-17.05C62.2387-16.35 60.6387-16.75 59.9387-18.05C55.7387-25.45 52.5387-30.95 50.3387-34.65C48.1387-38.35 49.7387-42.15 51.2387-43.45C52.9623-40.35 55.5387-35.95 58.9387-30.15L58.9387-30.15Z"/>
  </g>
  <g id="Bold-S" transform="matrix(1 0 0 1 2293.1 696)">
   <path class="multicolor-0:tintColor hierarchical-0:secondary SFSymbolsPreview007AFF" d="M23.855 1.9L69.855 1.9C74.355 1.9 77.755 0.75 80.155-1.65C82.555-4.05 83.705-7.4 83.705-11.85L83.705-58.05C83.705-62.5 82.555-65.9 80.155-68.25C77.755-70.65 74.355-71.8 69.855-71.8L23.855-71.8C19.405-71.8 16.005-70.65 13.605-68.25C11.205-65.85 10.055-62.5 10.055-58.05L10.055-11.85C10.055-7.4 11.205-4 13.605-1.65C16.005 0.75 19.405 1.9 23.855 1.9ZM25.005-8.7C23.555-8.7 22.505-9.1 21.705-9.8C20.905-10.5 20.605-11.65 20.605-13.2L20.605-56.8C20.605-58.3 21.005-59.45 21.705-60.2C22.505-60.9 23.555-61.25 25.005-61.25L68.655-61.25C70.105-61.25 71.205-60.9 71.955-60.2C72.705-59.5 73.055-58.35 73.055-56.8L73.055-13.2C73.055-11.65 72.655-10.55 71.955-9.8C71.205-9.1 70.105-8.7 68.655-8.7L25.005-8.7Z"/>
   <path class="multicolor-1:systemBlueColor hierarchical-1:primary SFSymbolsPreview007AFF" d="M46.805-49.95L48.005-51.95C48.705-53.15 50.305-53.65 51.505-52.95C52.705-52.25 53.205-50.65 52.505-49.45L41.355-30.15L49.355-30.15C51.955-30.15 53.455-27.05 52.255-24.95L28.755-24.95C27.355-24.95 26.155-26.15 26.155-27.55C26.155-28.95 27.355-30.15 28.755-30.15L35.355-30.15L43.805-44.75L41.205-49.35C40.505-50.55 40.905-52.15 42.205-52.85C43.405-53.55 45.005-53.15 45.705-51.85L46.805-49.95L46.805-49.95ZM36.805-22.25L34.305-17.95C33.605-16.75 32.005-16.25 30.805-16.95C29.605-17.65 29.105-19.25 29.805-20.45L31.705-23.65C33.755-24.45 35.455-23.95 36.805-22.25L36.805-22.25ZM58.255-30.15L64.955-30.15C66.355-30.15 67.555-28.95 67.555-27.55C67.555-26.15 66.355-24.95 64.955-24.95L61.255-24.95L63.755-20.55C64.455-19.35 64.055-17.75 62.755-17.05C61.555-16.35 59.955-16.75 59.255-18.05C55.055-25.45 51.855-30.95 49.655-34.65C47.455-38.35 49.055-42.15 50.555-43.45C52.305-40.35 54.855-35.95 58.255-30.15L58.255-30.15Z"/>
  </g>
  <g id="Semibold-S" transform="matrix(1 0 0 1 1996.86 696)">
   <path class="multicolor-0:tintColor hierarchical-0:secondary SFSymbolsPreview007AFF" d="M23.3472 1.445L69.42 1.445C73.8108 1.445 77.1016 0.3496 79.3924-1.9412C81.6832-4.232 82.7786-7.4546 82.7786-11.7772L82.7786-58.1228C82.7786-62.4454 81.6832-65.7362 79.3924-67.9588C77.1016-70.2496 73.8108-71.345 69.42-71.345L23.3472-71.345C19.0246-71.345 15.7338-70.2496 13.443-67.9588C11.1522-65.668 10.0568-62.4454 10.0568-58.1228L10.0568-11.7772C10.0568-7.4546 11.1522-4.1638 13.443-1.9412C15.7338 0.3496 19.0246 1.445 23.3472 1.445ZM24.115-7.881C22.5376-7.881 21.3966-8.3174 20.5238-9.0902C19.651-9.863 19.3146-11.104 19.3146-12.7814L19.3146-57.2186C19.3146-58.8278 19.751-60.0688 20.5238-60.9098C21.3966-61.6826 22.5376-62.0872 24.115-62.0872L68.6204-62.0872C70.1978-62.0872 71.3706-61.6826 72.2116-60.9098C73.0526-60.137 73.4208-58.896 73.4208-57.2186L73.4208-12.7814C73.4208-11.104 72.9844-9.9312 72.2116-9.0902C71.3706-8.3174 70.1978-7.881 68.6204-7.881L24.115-7.881Z"/>
   <path class="multicolor-1:systemBlueColor hierarchical-1:primary SFSymbolsPreview007AFF" d="M46.3518-49.95L47.5518-51.95C48.2518-53.15 49.8518-53.65 51.0518-52.95C52.2518-52.25 52.7518-50.65 52.0518-49.45L40.8836-30.15L48.8836-30.15C51.4836-30.15 52.9836-27.05 51.7836-24.95L28.2836-24.95C26.8836-24.95 25.6836-26.15 25.6836-27.55C25.6836-28.95 26.8836-30.15 28.2836-30.15L34.8836-30.15L43.3518-44.75L40.7518-49.35C40.0518-50.55 40.4518-52.15 41.7518-52.85C42.9518-53.55 44.5518-53.15 45.2518-51.85L46.3518-49.95L46.3518-49.95ZM36.3518-22.25L33.8518-17.95C33.1518-16.75 31.5518-16.25 30.3518-16.95C29.1518-17.65 28.6518-19.25 29.3518-20.45L31.2518-23.65C33.2836-24.45 34.9836-23.95 36.3518-22.25L36.3518-22.25ZM57.7836-30.15L64.4836-30.15C65.8836-30.15 67.0836-28.95 67.0836-27.55C67.0836-26.15 65.8836-24.95 64.4836-24.95L60.7836-24.95L63.2836-20.55C63.9836-19.35 63.5836-17.75 62.2836-17.05C61.0836-16.35 59.4836-16.75 58.7836-18.05C54.5836-25.45 51.3836-30.95 49.1836-34.65C46.9836-38.35 48.5836-42.15 50.0836-43.45C51.8518-40.35 54.3836-35.95 57.7836-30.15L57.7836-30.15Z"/>
  </g>
  <g id="Medium-S" transform="matrix(1 0 0 1 1700.5 696)">
   <path class="multicolor-0:tintColor hierarchical-0:secondary SFSymbolsPreview007AFF" d="M22.9622 1.1L69.0902 1.1C73.3982 1.1 76.6062 0.046 78.8142-2.162C81.0222-4.37 82.0762-7.496 82.0762-11.722L82.0762-58.178C82.0762-62.404 81.0222-65.612 78.8142-67.738C76.6062-69.946 73.3982-71 69.0902-71L22.9622-71C18.7362-71 15.5282-69.946 13.3202-67.738C11.1122-65.53 10.0582-62.404 10.0582-58.178L10.0582-11.722C10.0582-7.496 11.1122-4.288 13.3202-2.162C15.5282 0.046 18.7362 1.1 22.9622 1.1ZM23.4402-7.26C21.7662-7.26 20.5562-7.724 19.6282-8.552C18.7002-9.38 18.3362-10.69 18.3362-12.464L18.3362-57.536C18.3362-59.228 18.8002-60.538 19.6282-61.448C20.5562-62.276 21.7662-62.722 23.4402-62.722L68.5942-62.722C70.2682-62.722 71.4962-62.276 72.4062-61.448C73.3162-60.62 73.6982-59.31 73.6982-57.536L73.6982-12.464C73.6982-10.69 73.2342-9.462 72.4062-8.552C71.4962-7.724 70.2682-7.26 68.5942-7.26L23.4402-7.26Z"/>
   <path class="multicolor-1:systemBlueColor hierarchical-1:primary SFSymbolsPreview007AFF" d="M46.0082-49.95L47.2082-51.95C47.9082-53.15 49.5082-53.65 50.7082-52.95C51.9082-52.25 52.4082-50.65 51.7082-49.45L40.5262-30.15L48.5262-30.15C51.1262-30.15 52.6262-27.05 51.4262-24.95L27.9262-24.95C26.5262-24.95 25.3262-26.15 25.3262-27.55C25.3262-28.95 26.5262-30.15 27.9262-30.15L34.5262-30.15L43.0082-44.75L40.4082-49.35C39.7082-50.55 40.1082-52.15 41.4082-52.85C42.6082-53.55 44.2082-53.15 44.9082-51.85L46.0082-49.95L46.0082-49.95ZM36.0082-22.25L33.5082-17.95C32.8082-16.75 31.2082-16.25 30.0082-16.95C28.8082-17.65 28.3082-19.25 29.0082-20.45L30.9082-23.65C32.9262-24.45 34.6262-23.95 36.0082-22.25L36.0082-22.25ZM57.4262-30.15L64.1262-30.15C65.5262-30.15 66.7262-28.95 66.7262-27.55C66.7262-26.15 65.5262-24.95 64.1262-24.95L60.4262-24.95L62.9262-20.55C63.6262-19.35 63.2262-17.75 61.9262-17.05C60.7262-16.35 59.1262-16.75 58.4262-18.05C54.2262-25.45 51.0262-30.95 48.8262-34.65C46.6262-38.35 48.2262-42.15 49.7262-43.45C51.5082-40.35 54.0262-35.95 57.4262-30.15L57.4262-30.15Z"/>
  </g>
  <g id="Regular-S" transform="matrix(1 0 0 1 1404.24 696)">
   <path class="multicolor-0:tintColor hierarchical-0:secondary SFSymbolsPreview007AFF" d="M22.46 0.65L68.66 0.65C72.86 0.65 75.96-0.35 78.06-2.45C80.16-4.55 81.16-7.55 81.16-11.65L81.16-58.25C81.16-62.35 80.16-65.45 78.06-67.45C75.96-69.55 72.86-70.55 68.66-70.55L22.46-70.55C18.36-70.55 15.26-69.55 13.16-67.45C11.06-65.35 10.06-62.35 10.06-58.25L10.06-11.65C10.06-7.55 11.06-4.45 13.16-2.45C15.26-0.35 18.36 0.65 22.46 0.65ZM22.56-6.45C20.76-6.45 19.46-6.95 18.46-7.85C17.46-8.75 17.06-10.15 17.06-12.05L17.06-57.95C17.06-59.75 17.56-61.15 18.46-62.15C19.46-63.05 20.76-63.55 22.56-63.55L68.56-63.55C70.36-63.55 71.66-63.05 72.66-62.15C73.66-61.25 74.06-59.85 74.06-57.95L74.06-12.05C74.06-10.15 73.56-8.85 72.66-7.85C71.66-6.95 70.36-6.45 68.56-6.45L22.56-6.45Z"/>
   <path class="multicolor-1:systemBlueColor hierarchical-1:primary SFSymbolsPreview007AFF" d="M45.56-49.95L46.76-51.95C47.46-53.15 49.06-53.65 50.26-52.95C51.46-52.25 51.96-50.65 51.26-49.45L40.06-30.15L48.06-30.15C50.66-30.15 52.16-27.05 50.96-24.95L27.46-24.95C26.06-24.95 24.86-26.15 24.86-27.55C24.86-28.95 26.06-30.15 27.46-30.15L34.06-30.15L42.56-44.75L39.96-49.35C39.26-50.55 39.66-52.15 40.96-52.85C42.16-53.55 43.76-53.15 44.46-51.85L45.56-49.95L45.56-49.95ZM35.56-22.25L33.06-17.95C32.36-16.75 30.76-16.25 29.56-16.95C28.36-17.65 27.86-19.25 28.56-20.45L30.46-23.65C32.46-24.45 34.16-23.95 35.56-22.25L35.56-22.25ZM56.96-30.15L63.66-30.15C65.06-30.15 66.26-28.95 66.26-27.55C66.26-26.15 65.06-24.95 63.66-24.95L59.96-24.95L62.46-20.55C63.16-19.35 62.76-17.75 61.46-17.05C60.26-16.35 58.66-16.75 57.96-18.05C53.76-25.45 50.56-30.95 48.36-34.65C46.16-38.35 47.76-42.15 49.26-43.45C51.06-40.35 53.56-35.95 56.96-30.15L56.96-30.15Z"/>
  </g>
  <g id="Light-S" transform="matrix(1 0 0 1 1108.2 696)">
   <path class="multicolor-0:tintColor hierarchical-0:secondary SFSymbolsPreview007AFF" d="M21.6407-0.0166667L68.174-0.0166667C72.074-0.0166667 74.974-0.983333 76.9407-2.95C78.9073-4.91667 79.8407-7.75 79.8407-11.55L79.8407-58.35C79.8407-62.15 78.9073-65.05 76.9407-66.95C74.974-68.9167 72.074-69.8833 68.174-69.8833L21.6407-69.8833C17.8073-69.8833 14.9073-68.95 12.9407-66.9833C10.974-65.0167 10.0407-62.1833 10.0407-58.3833L10.0407-11.5833C10.0407-7.75 10.974-4.85 12.9407-2.95C14.9073-0.95 17.8073-0.0166667 21.6407-0.0166667ZM21.7407-5.48333C19.674-5.48333 18.1407-6.05 17.0407-7.08333C15.9407-8.11667 15.4407-9.71667 15.4407-11.85L15.4407-58.1167C15.4407-60.1833 16.0073-61.7833 17.0407-62.8833C18.1407-63.9167 19.674-64.4833 21.7407-64.4833L68.074-64.4833C70.1073-64.4833 71.6407-63.9167 72.774-62.8833C73.9073-61.85 74.4073-60.25 74.4073-58.1167L74.4073-11.85C74.4073-9.71667 73.8407-8.18333 72.774-7.08333C71.6407-6.05 70.1407-5.48333 68.074-5.48333L21.7407-5.48333Z"/>
   <path class="multicolor-1:systemBlueColor hierarchical-1:primary SFSymbolsPreview007AFF" d="M44.874-49.95L46.074-51.95C46.774-53.15 48.374-53.65 49.574-52.95C50.774-52.25 51.274-50.65 50.574-49.45L39.374-30.15L47.374-30.15C49.974-30.15 51.474-27.05 50.274-24.95L26.8073-24.95C25.4073-24.95 24.2073-26.15 24.2073-27.55C24.2073-28.95 25.4073-30.15 26.8073-30.15L33.4073-30.15L41.874-44.75L39.274-49.35C38.574-50.55 38.974-52.15 40.274-52.85C41.474-53.55 43.074-53.15 43.774-51.85L44.874-49.95L44.874-49.95ZM34.874-22.2833L32.374-17.9833C31.674-16.7833 30.074-16.2833 28.874-16.9833C27.674-17.6833 27.174-19.2833 27.874-20.4833L29.774-23.6833C31.8073-24.45 33.5073-23.95 34.874-22.2833L34.874-22.2833ZM56.274-30.15L62.974-30.15C64.374-30.15 65.574-28.95 65.574-27.55C65.574-26.15 64.374-24.95 62.974-24.95L59.274-24.95L61.774-20.55C62.474-19.35 62.074-17.75 60.774-17.05C59.574-16.35 57.974-16.75 57.274-18.05C53.074-25.45 49.874-30.95 47.674-34.65C45.474-38.35 47.074-42.15 48.574-43.45C50.374-40.3833 52.874-35.9833 56.274-30.15L56.274-30.15Z"/>
  </g>
  <g id="Thin-S" transform="matrix(1 0 0 1 812.371 696)">
   <path class="multicolor-0:tintColor hierarchical-0:secondary SFSymbolsPreview007AFF" d="M20.557-0.898387L67.5312-0.898387C71.0345-0.898387 73.6699-1.82097 75.4603-3.61129C77.2506-5.40161 78.0957-8.01452 78.0957-11.4177L78.0957-58.4823C78.0957-61.8855 77.2506-64.521 75.4603-66.2887C73.6699-68.079 71.0345-69.0016 67.5312-69.0016L20.557-69.0016C17.0764-69.0016 14.4409-68.1565 12.6506-66.3661C10.8603-64.5758 10.0151-61.9629 10.0151-58.5597L10.0151-11.4952C10.0151-8.01452 10.8603-5.37903 12.6506-3.61129C14.4409-1.74355 17.0764-0.898387 20.557-0.898387ZM20.657-4.20484C18.2377-4.20484 16.3957-4.85968 15.1635-6.06935C13.9312-7.27903 13.299-9.14355 13.299-11.5855L13.299-58.3371C13.299-60.7565 13.9538-62.621 15.1635-63.8532C16.3957-65.0629 18.2377-65.7177 20.657-65.7177L67.4312-65.7177C69.7732-65.7177 71.6151-65.0629 72.9248-63.8532C74.2345-62.6435 74.8667-60.779 74.8667-58.3371L74.8667-11.5855C74.8667-9.14355 74.2119-7.30161 72.9248-6.06935C71.6151-4.85968 69.8506-4.20484 67.4312-4.20484L20.657-4.20484Z"/>
   <path class="multicolor-1:systemBlueColor hierarchical-1:primary SFSymbolsPreview007AFF" d="M43.9667-49.95L45.1667-51.95C45.8667-53.15 47.4667-53.65 48.6667-52.95C49.8667-52.25 50.3667-50.65 49.6667-49.45L38.4667-30.15L46.4667-30.15C49.0667-30.15 50.5667-27.05 49.3667-24.95L25.9441-24.95C24.5441-24.95 23.3441-26.15 23.3441-27.55C23.3441-28.95 24.5441-30.15 25.9441-30.15L32.5441-30.15L40.9667-44.75L38.3667-49.35C37.6667-50.55 38.0667-52.15 39.3667-52.85C40.5667-53.55 42.1667-53.15 42.8667-51.85L43.9667-49.95L43.9667-49.95ZM33.9667-22.3274L31.4667-18.0274C30.7667-16.8274 29.1667-16.3274 27.9667-17.0274C26.7667-17.7274 26.2667-19.3274 26.9667-20.5274L28.8667-23.7274C30.9441-24.45 32.6441-23.95 33.9667-22.3274L33.9667-22.3274ZM55.3667-30.15L62.0667-30.15C63.4667-30.15 64.6667-28.95 64.6667-27.55C64.6667-26.15 63.4667-24.95 62.0667-24.95L58.3667-24.95L60.8667-20.55C61.5667-19.35 61.1667-17.75 59.8667-17.05C58.6667-16.35 57.0667-16.75 56.3667-18.05C52.1667-25.45 48.9667-30.95 46.7667-34.65C44.5667-38.35 46.1667-42.15 47.6667-43.45C49.4667-40.4274 51.9667-36.0274 55.3667-30.15L55.3667-30.15Z"/>
  </g>
  <g id="Ultralight-S" transform="matrix(1 0 0 1 516.111 696)">
   <path class="multicolor-0:tintColor hierarchical-0:secondary SFSymbolsPreview007AFF" d="M20.002-1.35L67.202-1.35C70.502-1.35 73.002-2.25 74.702-3.95C76.402-5.65 77.202-8.15 77.202-11.35L77.202-58.55C77.202-61.75 76.402-64.25 74.702-65.95C73.002-67.65 70.502-68.55 67.202-68.55L20.002-68.55C16.702-68.55 14.202-67.75 12.502-66.05C10.802-64.35 10.002-61.85 10.002-58.65L10.002-11.45C10.002-8.15 10.802-5.65 12.502-3.95C14.202-2.15 16.702-1.35 20.002-1.35ZM20.102-3.55C17.502-3.55 15.502-4.25 14.202-5.55C12.902-6.85 12.202-8.85 12.202-11.45L12.202-58.45C12.202-61.05 12.902-63.05 14.202-64.35C15.502-65.65 17.502-66.35 20.102-66.35L67.102-66.35C69.602-66.35 71.602-65.65 73.002-64.35C74.402-63.05 75.102-61.05 75.102-58.45L75.102-11.45C75.102-8.85 74.402-6.85 73.002-5.55C71.602-4.25 69.702-3.55 67.102-3.55L20.102-3.55Z"/>
   <path class="multicolor-1:systemBlueColor hierarchical-1:primary SFSymbolsPreview007AFF" d="M43.502-49.95L44.702-51.95C45.402-53.15 47.002-53.65 48.202-52.95C49.402-52.25 49.902-50.65 49.202-49.45L38.002-30.15L46.002-30.15C48.602-30.15 50.102-27.05 48.902-24.95L25.502-24.95C24.102-24.95 22.902-26.15 22.902-27.55C22.902-28.95 24.102-30.15 25.502-30.15L32.102-30.15L40.502-44.75L37.902-49.35C37.202-50.55 37.602-52.15 38.902-52.85C40.102-53.55 41.702-53.15 42.402-51.85L43.502-49.95L43.502-49.95ZM33.502-22.35L31.002-18.05C30.302-16.85 28.702-16.35 27.502-17.05C26.302-17.75 25.802-19.35 26.502-20.55L28.402-23.75C30.502-24.45 32.202-23.95 33.502-22.35L33.502-22.35ZM54.902-30.15L61.602-30.15C63.002-30.15 64.202-28.95 64.202-27.55C64.202-26.15 63.002-24.95 61.602-24.95L57.902-24.95L60.402-20.55C61.102-19.35 60.702-17.75 59.402-17.05C58.202-16.35 56.602-16.75 55.902-18.05C51.702-25.45 48.502-30.95 46.302-34.65C44.102-38.35 45.702-42.15 47.202-43.45C49.002-40.45 51.502-36.05 54.902-30.15L54.902-30.15Z"/>
  </g>
 </g>
</svg>
