<?xml version="1.0" encoding="UTF-8"?>
<!--Generator: Apple Native CoreSVG 149-->
<!DOCTYPE svg
PUBLIC "-//W3C//DTD SVG 1.1//EN"
       "http://www.w3.org/Graphics/SVG/1.1/DTD/svg11.dtd">
<svg version="1.1" xmlns="http://www.w3.org/2000/svg" xmlns:xlink="http://www.w3.org/1999/xlink" width="3300" height="2200">
 <!--glyph: "", point size: 100.0, font version: "17.0d9e1", template writer version: "59"-->
 <style>.multicolor-0:systemCyanColor {fill:#55BEF0;opacity:1.0}
.multicolor-1:systemBlueColor {fill:#007AFF;opacity:1.0}

.hierarchical-0:secondary {fill:#4D4D4D}
.hierarchical-1:primary {fill:#212121}

.SFSymbolsPreview007AFF {fill:#007AFF;opacity:1.0}
.SFSymbolsPreview55BEF0 {fill:#55BEF0;opacity:1.0}
</style>
 <g id="Notes">
  <rect height="2200" id="artboard" style="fill:white;opacity:1" width="3300" x="0" y="0"/>
  <line style="fill:none;stroke:black;opacity:1;stroke-width:0.5;" x1="263" x2="3036" y1="292" y2="292"/>
  <text style="stroke:none;fill:black;font-family:sans-serif;font-size:13;font-weight:bold;" transform="matrix(1 0 0 1 263 322)">Weight/Scale Variations</text>
  <text style="stroke:none;fill:black;font-family:sans-serif;font-size:13;text-anchor:middle;" transform="matrix(1 0 0 1 559.711 322)">Ultralight</text>
  <text style="stroke:none;fill:black;font-family:sans-serif;font-size:13;text-anchor:middle;" transform="matrix(1 0 0 1 856.422 322)">Thin</text>
  <text style="stroke:none;fill:black;font-family:sans-serif;font-size:13;text-anchor:middle;" transform="matrix(1 0 0 1 1153.13 322)">Light</text>
  <text style="stroke:none;fill:black;font-family:sans-serif;font-size:13;text-anchor:middle;" transform="matrix(1 0 0 1 1449.84 322)">Regular</text>
  <text style="stroke:none;fill:black;font-family:sans-serif;font-size:13;text-anchor:middle;" transform="matrix(1 0 0 1 1746.56 322)">Medium</text>
  <text style="stroke:none;fill:black;font-family:sans-serif;font-size:13;text-anchor:middle;" transform="matrix(1 0 0 1 2043.27 322)">Semibold</text>
  <text style="stroke:none;fill:black;font-family:sans-serif;font-size:13;text-anchor:middle;" transform="matrix(1 0 0 1 2339.98 322)">Bold</text>
  <text style="stroke:none;fill:black;font-family:sans-serif;font-size:13;text-anchor:middle;" transform="matrix(1 0 0 1 2636.69 322)">Heavy</text>
  <text style="stroke:none;fill:black;font-family:sans-serif;font-size:13;text-anchor:middle;" transform="matrix(1 0 0 1 2933.4 322)">Black</text>
  <line style="fill:none;stroke:black;opacity:1;stroke-width:0.5;" x1="263" x2="3036" y1="1903" y2="1903"/>
  <g transform="matrix(1 0 0 1 263 1933)">
   <path d="M9.24805 0.830078Q10.8691 0.830078 12.2949 0.214844Q13.7207-0.400391 14.8096-1.49414Q15.8984-2.58789 16.5186-4.01367Q17.1387-5.43945 17.1387-7.05078Q17.1387-8.66211 16.5186-10.0879Q15.8984-11.5137 14.8047-12.6074Q13.7109-13.7012 12.2852-14.3164Q10.8594-14.9316 9.23828-14.9316Q7.62695-14.9316 6.20117-14.3164Q4.77539-13.7012 3.69141-12.6074Q2.60742-11.5137 1.9873-10.0879Q1.36719-8.66211 1.36719-7.05078Q1.36719-5.43945 1.9873-4.01367Q2.60742-2.58789 3.69629-1.49414Q4.78516-0.400391 6.21094 0.214844Q7.63672 0.830078 9.24805 0.830078ZM9.24805-0.654297Q7.91992-0.654297 6.7627-1.14746Q5.60547-1.64062 4.73145-2.51953Q3.85742-3.39844 3.36426-4.56055Q2.87109-5.72266 2.87109-7.05078Q2.87109-8.37891 3.35938-9.54102Q3.84766-10.7031 4.72168-11.582Q5.5957-12.4609 6.75293-12.9541Q7.91016-13.4473 9.23828-13.4473Q10.5762-13.4473 11.7334-12.9541Q12.8906-12.4609 13.7695-11.582Q14.6484-10.7031 15.1465-9.54102Q15.6445-8.37891 15.6445-7.05078Q15.6445-5.72266 15.1514-4.56055Q14.6582-3.39844 13.7842-2.51953Q12.9102-1.64062 11.748-1.14746Q10.5859-0.654297 9.24805-0.654297ZM5.83984-7.04102Q5.83984-6.71875 6.04492-6.51855Q6.25-6.31836 6.5918-6.31836L8.50586-6.31836L8.50586-4.39453Q8.50586-4.0625 8.70605-3.85742Q8.90625-3.65234 9.22852-3.65234Q9.56055-3.65234 9.76562-3.85742Q9.9707-4.0625 9.9707-4.39453L9.9707-6.31836L11.8945-6.31836Q12.2266-6.31836 12.4316-6.51855Q12.6367-6.71875 12.6367-7.04102Q12.6367-7.37305 12.4316-7.57812Q12.2266-7.7832 11.8945-7.7832L9.9707-7.7832L9.9707-9.69727Q9.9707-10.0391 9.76562-10.2441Q9.56055-10.4492 9.22852-10.4492Q8.90625-10.4492 8.70605-10.2441Q8.50586-10.0391 8.50586-9.69727L8.50586-7.7832L6.5918-7.7832Q6.25-7.7832 6.04492-7.57812Q5.83984-7.37305 5.83984-7.04102Z"/>
  </g>
  <g transform="matrix(1 0 0 1 281.867 1933)">
   <path d="M11.709 2.91016Q13.75 2.91016 15.5518 2.12891Q17.3535 1.34766 18.7305-0.0292969Q20.1074-1.40625 20.8887-3.20801Q21.6699-5.00977 21.6699-7.05078Q21.6699-9.0918 20.8887-10.8936Q20.1074-12.6953 18.7305-14.0723Q17.3535-15.4492 15.5469-16.2305Q13.7402-17.0117 11.6992-17.0117Q9.6582-17.0117 7.85645-16.2305Q6.05469-15.4492 4.68262-14.0723Q3.31055-12.6953 2.5293-10.8936Q1.74805-9.0918 1.74805-7.05078Q1.74805-5.00977 2.5293-3.20801Q3.31055-1.40625 4.6875-0.0292969Q6.06445 1.34766 7.86621 2.12891Q9.66797 2.91016 11.709 2.91016ZM11.709 1.25Q9.98047 1.25 8.47656 0.605469Q6.97266-0.0390625 5.83496-1.17676Q4.69727-2.31445 4.05762-3.81836Q3.41797-5.32227 3.41797-7.05078Q3.41797-8.7793 4.05762-10.2832Q4.69727-11.7871 5.83008-12.9297Q6.96289-14.0723 8.4668-14.7119Q9.9707-15.3516 11.6992-15.3516Q13.4277-15.3516 14.9316-14.7119Q16.4355-14.0723 17.5781-12.9297Q18.7207-11.7871 19.3652-10.2832Q20.0098-8.7793 20.0098-7.05078Q20.0098-5.32227 19.3701-3.81836Q18.7305-2.31445 17.5928-1.17676Q16.4551-0.0390625 14.9463 0.605469Q13.4375 1.25 11.709 1.25ZM7.39258-7.04102Q7.39258-6.68945 7.62695-6.46484Q7.86133-6.24023 8.23242-6.24023L10.8789-6.24023L10.8789-3.57422Q10.8789-3.21289 11.1035-2.9834Q11.3281-2.75391 11.6797-2.75391Q12.0508-2.75391 12.2852-2.9834Q12.5195-3.21289 12.5195-3.57422L12.5195-6.24023L15.1758-6.24023Q15.5371-6.24023 15.7715-6.46484Q16.0059-6.68945 16.0059-7.04102Q16.0059-7.41211 15.7715-7.6416Q15.5371-7.87109 15.1758-7.87109L12.5195-7.87109L12.5195-10.5176Q12.5195-10.8984 12.2852-11.1279Q12.0508-11.3574 11.6797-11.3574Q11.3281-11.3574 11.1035-11.1279Q10.8789-10.8984 10.8789-10.5176L10.8789-7.87109L8.23242-7.87109Q7.85156-7.87109 7.62207-7.6416Q7.39258-7.41211 7.39258-7.04102Z"/>
  </g>
  <g transform="matrix(1 0 0 1 305.646 1933)">
   <path d="M14.9707 5.66406Q17.0605 5.66406 18.96 5.01465Q20.8594 4.36523 22.4512 3.19336Q24.043 2.02148 25.2197 0.429688Q26.3965-1.16211 27.0459-3.06641Q27.6953-4.9707 27.6953-7.05078Q27.6953-9.14062 27.0459-11.04Q26.3965-12.9395 25.2197-14.5312Q24.043-16.123 22.4512-17.2998Q20.8594-18.4766 18.9551-19.126Q17.0508-19.7754 14.9609-19.7754Q12.8711-19.7754 10.9717-19.126Q9.07227-18.4766 7.48535-17.2998Q5.89844-16.123 4.72168-14.5312Q3.54492-12.9395 2.90039-11.04Q2.25586-9.14062 2.25586-7.05078Q2.25586-4.9707 2.90527-3.06641Q3.55469-1.16211 4.72656 0.429688Q5.89844 2.02148 7.49023 3.19336Q9.08203 4.36523 10.9814 5.01465Q12.8809 5.66406 14.9707 5.66406ZM14.9707 3.84766Q13.1641 3.84766 11.5283 3.2959Q9.89258 2.74414 8.53516 1.74805Q7.17773 0.751953 6.17676-0.610352Q5.17578-1.97266 4.62891-3.6084Q4.08203-5.24414 4.08203-7.05078Q4.08203-8.86719 4.62891-10.5029Q5.17578-12.1387 6.17188-13.501Q7.16797-14.8633 8.52539-15.8594Q9.88281-16.8555 11.5186-17.4023Q13.1543-17.9492 14.9609-17.9492Q16.7773-17.9492 18.4131-17.4023Q20.0488-16.8555 21.4111-15.8594Q22.7734-14.8633 23.7695-13.501Q24.7656-12.1387 25.3174-10.5029Q25.8691-8.86719 25.8691-7.05078Q25.8789-5.24414 25.332-3.6084Q24.7852-1.97266 23.7842-0.610352Q22.7832 0.751953 21.4209 1.74805Q20.0586 2.74414 18.4229 3.2959Q16.7871 3.84766 14.9707 3.84766ZM9.45312-7.04102Q9.45312-6.66016 9.71191-6.41113Q9.9707-6.16211 10.3711-6.16211L14.0625-6.16211L14.0625-2.46094Q14.0625-2.06055 14.3115-1.80664Q14.5605-1.55273 14.9414-1.55273Q15.3516-1.55273 15.6055-1.80664Q15.8594-2.06055 15.8594-2.46094L15.8594-6.16211L19.5605-6.16211Q19.9609-6.16211 20.2148-6.41113Q20.4688-6.66016 20.4688-7.04102Q20.4688-7.45117 20.2148-7.70508Q19.9609-7.95898 19.5605-7.95898L15.8594-7.95898L15.8594-11.6504Q15.8594-12.0605 15.6055-12.3145Q15.3516-12.5684 14.9414-12.5684Q14.5605-12.5684 14.3115-12.3096Q14.0625-12.0508 14.0625-11.6504L14.0625-7.95898L10.3711-7.95898Q9.96094-7.95898 9.70703-7.70508Q9.45312-7.45117 9.45312-7.04102Z"/>
  </g>
  <text style="stroke:none;fill:black;font-family:sans-serif;font-size:13;font-weight:bold;" transform="matrix(1 0 0 1 263 1953)">Design Variations</text>
  <text style="stroke:none;fill:black;font-family:sans-serif;font-size:13;" transform="matrix(1 0 0 1 263 1971)">Symbols are supported in up to nine weights and three scales.</text>
  <text style="stroke:none;fill:black;font-family:sans-serif;font-size:13;" transform="matrix(1 0 0 1 263 1989)">For optimal layout with text and other symbols, vertically align</text>
  <text style="stroke:none;fill:black;font-family:sans-serif;font-size:13;" transform="matrix(1 0 0 1 263 2007)">symbols with the adjacent text.</text>
  <line style="fill:none;stroke:#00AEEF;stroke-width:0.5;opacity:1.0;" x1="776" x2="776" y1="1919" y2="1933"/>
  <g transform="matrix(1 0 0 1 776 1933)">
   <path d="M3.31055 0.15625Q3.70117 0.15625 3.91602-0.00976562Q4.13086-0.175781 4.26758-0.585938L5.52734-4.0332L11.2891-4.0332L12.5488-0.585938Q12.6855-0.175781 12.9004-0.00976562Q13.1152 0.15625 13.4961 0.15625Q13.8867 0.15625 14.1162-0.0585938Q14.3457-0.273438 14.3457-0.644531Q14.3457-0.869141 14.2383-1.17188L9.6582-13.3691Q9.48242-13.8184 9.17969-14.043Q8.87695-14.2676 8.4082-14.2676Q7.5-14.2676 7.17773-13.3789L2.59766-1.16211Q2.49023-0.859375 2.49023-0.634766Q2.49023-0.263672 2.70996-0.0537109Q2.92969 0.15625 3.31055 0.15625ZM6.00586-5.51758L8.37891-12.0898L8.42773-12.0898L10.8008-5.51758Z"/>
  </g>
  <line style="fill:none;stroke:#00AEEF;stroke-width:0.5;opacity:1.0;" x1="793.197" x2="793.197" y1="1919" y2="1933"/>
  <text style="stroke:none;fill:black;font-family:sans-serif;font-size:13;font-weight:bold;" transform="matrix(1 0 0 1 776 1953)">Margins</text>
  <text style="stroke:none;fill:black;font-family:sans-serif;font-size:13;" transform="matrix(1 0 0 1 776 1971)">Leading and trailing margins on the left and right side of each symbol</text>
  <text style="stroke:none;fill:black;font-family:sans-serif;font-size:13;" transform="matrix(1 0 0 1 776 1989)">can be adjusted by modifying the x-location of the margin guidelines.</text>
  <text style="stroke:none;fill:black;font-family:sans-serif;font-size:13;" transform="matrix(1 0 0 1 776 2007)">Modifications are automatically applied proportionally to all</text>
  <text style="stroke:none;fill:black;font-family:sans-serif;font-size:13;" transform="matrix(1 0 0 1 776 2025)">scales and weights.</text>
  <g transform="matrix(1 0 0 1 1289 1933)">
   <path d="M2.8418 1.86523L4.54102 3.57422Q5.18555 4.22852 5.90332 4.17969Q6.62109 4.13086 7.31445 3.35938L18.0078-8.42773L17.041-9.4043L6.42578 2.27539Q6.16211 2.57812 5.89355 2.61719Q5.625 2.65625 5.27344 2.30469L4.10156 1.14258Q3.75 0.791016 3.79395 0.522461Q3.83789 0.253906 4.14062-0.0195312L15.6152-10.8203L14.6387-11.7871L3.04688-0.898438Q2.30469-0.214844 2.25098 0.498047Q2.19727 1.21094 2.8418 1.86523ZM9.25781-16.3281Q8.94531-16.0254 8.90625-15.6348Q8.86719-15.2441 9.04297-14.9512Q9.21875-14.6777 9.55566-14.541Q9.89258-14.4043 10.3809-14.5215Q11.4746-14.7754 12.5977-14.7314Q13.7207-14.6875 14.7949-13.9844L14.209-12.5293Q13.9551-11.9043 14.0674-11.4404Q14.1797-10.9766 14.5801-10.5664L16.875-8.25195Q17.2363-7.88086 17.5781-7.82227Q17.9199-7.76367 18.3398-7.8418L19.4043-8.03711L20.0684-7.36328L20.0293-6.80664Q20-6.43555 20.1221-6.12305Q20.2441-5.81055 20.6055-5.44922L21.3672-4.70703Q21.7285-4.3457 22.1533-4.33105Q22.5781-4.31641 22.9297-4.66797L25.8398-7.58789Q26.1914-7.93945 26.1816-8.35449Q26.1719-8.76953 25.8105-9.13086L25.0391-9.89258Q24.6875-10.2539 24.3799-10.3857Q24.0723-10.5176 23.7109-10.4883L23.1348-10.4395L22.4902-11.0742L22.7344-12.1973Q22.832-12.6172 22.6953-12.9834Q22.5586-13.3496 22.1191-13.7891L19.9219-15.9766Q18.6719-17.2168 17.2607-17.8369Q15.8496-18.457 14.4189-18.4814Q12.9883-18.5059 11.665-17.959Q10.3418-17.4121 9.25781-16.3281ZM10.752-15.957Q11.6602-16.6211 12.7002-16.9043Q13.7402-17.1875 14.8047-17.085Q15.8691-16.9824 16.8701-16.5137Q17.8711-16.0449 18.7012-15.2051L21.1328-12.793Q21.3086-12.6172 21.3525-12.4512Q21.3965-12.2852 21.3379-12.0312L21.0156-10.5469L22.5195-9.0625L23.5059-9.12109Q23.6914-9.13086 23.7891-9.09668Q23.8867-9.0625 24.0332-8.91602L24.6094-8.33984L22.168-5.89844L21.5918-6.47461Q21.4453-6.62109 21.4062-6.71875Q21.3672-6.81641 21.377-7.01172L21.4453-7.98828L19.9512-9.47266L18.4277-9.21875Q18.1836-9.16992 18.042-9.2041Q17.9004-9.23828 17.7148-9.41406L15.7129-11.416Q15.5176-11.5918 15.4932-11.7529Q15.4688-11.9141 15.5859-12.1875L16.4648-14.2773Q15.293-15.3711 13.8281-15.791Q12.3633-16.2109 10.8398-15.7617Q10.7227-15.7324 10.6885-15.8057Q10.6543-15.8789 10.752-15.957Z"/>
  </g>
  <text style="stroke:none;fill:black;font-family:sans-serif;font-size:13;font-weight:bold;" transform="matrix(1 0 0 1 1289 1953)">Exporting</text>
  <text style="stroke:none;fill:black;font-family:sans-serif;font-size:13;" transform="matrix(1 0 0 1 1289 1971)">Symbols should be outlined when exporting to ensure the</text>
  <text style="stroke:none;fill:black;font-family:sans-serif;font-size:13;" transform="matrix(1 0 0 1 1289 1989)">design is preserved when submitting to Xcode.</text>
  <text id="template-version" style="stroke:none;fill:black;font-family:sans-serif;font-size:13;text-anchor:end;" transform="matrix(1 0 0 1 3036 1933)">Template v.3.0</text>
  <text style="stroke:none;fill:black;font-family:sans-serif;font-size:13;text-anchor:end;" transform="matrix(1 0 0 1 3036 1951)">Requires Xcode 13 or greater</text>
  <text id="descriptive-name" style="stroke:none;fill:black;font-family:sans-serif;font-size:13;text-anchor:end;" transform="matrix(1 0 0 1 3036 1969)">Generated from logo.paypal.alternative</text>
  <text style="stroke:none;fill:black;font-family:sans-serif;font-size:13;text-anchor:end;" transform="matrix(1 0 0 1 3036 1987)">Typeset at 100 points</text>
  <text style="stroke:none;fill:black;font-family:sans-serif;font-size:13;" transform="matrix(1 0 0 1 263 726)">Small</text>
  <text style="stroke:none;fill:black;font-family:sans-serif;font-size:13;" transform="matrix(1 0 0 1 263 1156)">Medium</text>
  <text style="stroke:none;fill:black;font-family:sans-serif;font-size:13;" transform="matrix(1 0 0 1 263 1586)">Large</text>
 </g>
 <g id="Guides">
  <g id="H-reference" style="fill:#27AAE1;stroke:none;" transform="matrix(1 0 0 1 339 696)">
   <path d="M0.976562 0L3.66211 0L29.3457-67.1387L30.0293-67.1387L30.0293-70.459L28.125-70.459ZM11.6699-24.4629L46.9727-24.4629L46.2402-26.709L12.4512-26.709ZM55.127 0L57.7637 0L30.6152-70.459L29.4434-70.459L29.4434-67.1387Z"/>
  </g>
  <line id="Baseline-S" style="fill:none;stroke:#27AAE1;opacity:1;stroke-width:0.5;" x1="263" x2="3036" y1="696" y2="696"/>
  <line id="Capline-S" style="fill:none;stroke:#27AAE1;opacity:1;stroke-width:0.5;" x1="263" x2="3036" y1="625.541" y2="625.541"/>
  <g id="H-reference" style="fill:#27AAE1;stroke:none;" transform="matrix(1 0 0 1 339 1126)">
   <path d="M0.976562 0L3.66211 0L29.3457-67.1387L30.0293-67.1387L30.0293-70.459L28.125-70.459ZM11.6699-24.4629L46.9727-24.4629L46.2402-26.709L12.4512-26.709ZM55.127 0L57.7637 0L30.6152-70.459L29.4434-70.459L29.4434-67.1387Z"/>
  </g>
  <line id="Baseline-M" style="fill:none;stroke:#27AAE1;opacity:1;stroke-width:0.5;" x1="263" x2="3036" y1="1126" y2="1126"/>
  <line id="Capline-M" style="fill:none;stroke:#27AAE1;opacity:1;stroke-width:0.5;" x1="263" x2="3036" y1="1055.54" y2="1055.54"/>
  <g id="H-reference" style="fill:#27AAE1;stroke:none;" transform="matrix(1 0 0 1 339 1556)">
   <path d="M0.976562 0L3.66211 0L29.3457-67.1387L30.0293-67.1387L30.0293-70.459L28.125-70.459ZM11.6699-24.4629L46.9727-24.4629L46.2402-26.709L12.4512-26.709ZM55.127 0L57.7637 0L30.6152-70.459L29.4434-70.459L29.4434-67.1387Z"/>
  </g>
  <line id="Baseline-L" style="fill:none;stroke:#27AAE1;opacity:1;stroke-width:0.5;" x1="263" x2="3036" y1="1556" y2="1556"/>
  <line id="Capline-L" style="fill:none;stroke:#27AAE1;opacity:1;stroke-width:0.5;" x1="263" x2="3036" y1="1485.54" y2="1485.54"/>
  <line id="left-margin-Regular-M" style="fill:none;stroke:#00AEEF;stroke-width:0.5;opacity:1.0;" x1="1396.44" x2="1396.44" y1="1030.73" y2="1150.14"/>
  <line id="right-margin-Regular-M" style="fill:none;stroke:#00AEEF;stroke-width:0.5;opacity:1.0;" x1="1503.25" x2="1503.25" y1="1030.73" y2="1150.14"/>
 </g>
 <g id="Symbols">
  <g id="Black-L" transform="matrix(1 0 0 1 2860.87 1556)">
   <path class="multicolor-0:systemCyanColor hierarchical-0:secondary SFSymbolsPreview55BEF0" d="M122.391-61.2726C121.073-62.9196 119.097-64.4019 116.956-65.5548C115.638-66.2136 114.32-66.8724 112.673-67.3665C112.344-67.3665 112.015-67.5312 111.521-67.6959C110.697-67.8606 109.874-68.19 109.05-68.3547C108.227-68.5194 107.403-68.6841 106.415-68.8488C103.286-69.3429 99.9915-69.5076 96.3681-69.5076L66.0633-69.5076C65.2398-69.5076 64.581-69.3429 63.9222-69.0135C62.4399-68.3547 61.4517-67.0371 61.287-65.3901L54.8637-24.2151L54.699-23.0622L48.7698 13.9953L47.1228 24.5361C46.7934 26.3478 48.2757 27.9948 50.0874 27.9948L70.3455 27.9948C72.816 27.9948 74.7924 26.1831 75.1218 23.8773L75.2865 22.8891L79.0746-1.4865L79.2393-2.8041C79.5687-5.1099 81.7098-6.9216 84.0156-6.9216L86.9802-6.9216C106.58-6.9216 121.897-14.8272 126.508-37.8852C128.32-47.4378 127.332-55.5081 122.391-61.2726Z"/>
   <path class="multicolor-1:systemBlueColor hierarchical-1:primary SFSymbolsPreview007AFF" d="M117.12-65.5548C118.603-75.2721 117.12-81.8601 111.85-87.954C106.085-94.542 95.5446-97.3419 82.2039-97.3419L43.17-97.3419C40.3701-97.3419 38.0643-95.3655 37.7349-92.5656L21.4296 10.2072C21.1002 12.1836 22.7472 13.9953 24.7236 13.9953L48.7698 13.9953L54.8637-24.2151L54.699-23.0622C55.1931-25.6974 57.4989-27.8385 60.1341-27.8385L71.4984-27.8385C93.8976-27.8385 111.521-36.897 116.626-63.249L117.12-65.5548Z"/>
  </g>
  <g id="Heavy-L" transform="matrix(1 0 0 1 2565.07 1556)">
   <path class="multicolor-0:systemCyanColor hierarchical-0:secondary SFSymbolsPreview55BEF0" d="M121.49-61.2726C120.173-62.9196 118.196-64.4019 116.055-65.5548C114.738-66.2136 113.42-66.8724 111.773-67.3665C111.444-67.3665 111.114-67.5312 110.62-67.6959C109.797-67.8606 108.973-68.19 108.15-68.3547C107.326-68.5194 106.503-68.6841 105.515-68.8488C102.385-69.3429 99.0912-69.5076 95.4678-69.5076L65.163-69.5076C64.3395-69.5076 63.6807-69.3429 63.0219-69.0135C61.5396-68.3547 60.5514-67.0371 60.3867-65.3901L53.9634-24.2151L53.7987-23.0622L47.8695 13.9953L46.2225 24.5361C45.8931 26.3478 47.3754 27.9948 49.1871 27.9948L69.4452 27.9948C71.9157 27.9948 73.8921 26.1831 74.2215 23.8773L74.3862 22.8891L78.1743-1.4865L78.339-2.8041C78.6684-5.1099 80.8095-6.9216 83.1153-6.9216L86.0799-6.9216C105.679-6.9216 120.996-14.8272 125.608-37.8852C127.42-47.4378 126.431-55.5081 121.49-61.2726Z"/>
   <path class="multicolor-1:systemBlueColor hierarchical-1:primary SFSymbolsPreview007AFF" d="M116.22-65.5548C117.702-75.2721 116.22-81.8601 110.95-87.954C105.185-94.542 94.6443-97.3419 81.3036-97.3419L42.2697-97.3419C39.4698-97.3419 37.164-95.3655 36.8346-92.5656L20.5293 10.2072C20.1999 12.1836 21.8469 13.9953 23.8233 13.9953L47.8695 13.9953L53.9634-24.2151L53.7987-23.0622C54.2928-25.6974 56.5986-27.8385 59.2338-27.8385L70.5981-27.8385C92.9973-27.8385 110.62-36.897 115.726-63.249L116.22-65.5548Z"/>
  </g>
  <g id="Bold-L" transform="matrix(1 0 0 1 2269.5 1556)">
   <path class="multicolor-0:systemCyanColor hierarchical-0:secondary SFSymbolsPreview55BEF0" d="M120.365-61.2726C119.048-62.9196 117.071-64.4019 114.93-65.5548C113.613-66.2136 112.295-66.8724 110.648-67.3665C110.319-67.3665 109.989-67.5312 109.495-67.6959C108.672-67.8606 107.848-68.19 107.025-68.3547C106.201-68.5194 105.378-68.6841 104.39-68.8488C101.26-69.3429 97.9663-69.5076 94.3429-69.5076L64.0381-69.5076C63.2146-69.5076 62.5558-69.3429 61.897-69.0135C60.4147-68.3547 59.4265-67.0371 59.2618-65.3901L52.8385-24.2151L52.6738-23.0622L46.7446 13.9953L45.0976 24.5361C44.7682 26.3478 46.2505 27.9948 48.0622 27.9948L68.3203 27.9948C70.7908 27.9948 72.7672 26.1831 73.0966 23.8773L73.2613 22.8891L77.0494-1.4865L77.2141-2.8041C77.5435-5.1099 79.6846-6.9216 81.9904-6.9216L84.955-6.9216C104.554-6.9216 119.871-14.8272 124.483-37.8852C126.295-47.4378 125.306-55.5081 120.365-61.2726Z"/>
   <path class="multicolor-1:systemBlueColor hierarchical-1:primary SFSymbolsPreview007AFF" d="M115.095-65.5548C116.577-75.2721 115.095-81.8601 109.825-87.954C104.06-94.542 93.5194-97.3419 80.1787-97.3419L41.1448-97.3419C38.3449-97.3419 36.0391-95.3655 35.7097-92.5656L19.4044 10.2072C19.075 12.1836 20.722 13.9953 22.6984 13.9953L46.7446 13.9953L52.8385-24.2151L52.6738-23.0622C53.1679-25.6974 55.4737-27.8385 58.1089-27.8385L69.4732-27.8385C91.8724-27.8385 109.495-36.897 114.601-63.249L115.095-65.5548Z"/>
  </g>
  <g id="Semibold-L" transform="matrix(1 0 0 1 1973.58 1556)">
   <path class="multicolor-0:systemCyanColor hierarchical-0:secondary SFSymbolsPreview55BEF0" d="M119.59-61.2726C118.272-62.9196 116.296-64.4019 114.155-65.5548C112.837-66.2136 111.52-66.8724 109.873-67.3665C109.543-67.3665 109.214-67.5312 108.72-67.6959C107.896-67.8606 107.073-68.19 106.249-68.3547C105.426-68.5194 104.602-68.6841 103.614-68.8488C100.485-69.3429 97.1907-69.5076 93.5673-69.5076L63.2625-69.5076C62.439-69.5076 61.7802-69.3429 61.1214-69.0135C59.6391-68.3547 58.6509-67.0371 58.4862-65.3901L52.0629-24.2151L51.8982-23.0622L45.969 13.9953L44.322 24.5361C43.9926 26.3478 45.4749 27.9948 47.2866 27.9948L67.5447 27.9948C70.0152 27.9948 71.9916 26.1831 72.321 23.8773L72.4857 22.8891L76.2738-1.4865L76.4385-2.8041C76.7679-5.1099 78.909-6.9216 81.2148-6.9216L84.1794-6.9216C103.779-6.9216 119.096-14.8272 123.707-37.8852C125.519-47.4378 124.531-55.5081 119.59-61.2726Z"/>
   <path class="multicolor-1:systemBlueColor hierarchical-1:primary SFSymbolsPreview007AFF" d="M114.32-65.5548C115.802-75.2721 114.32-81.8601 109.049-87.954C103.285-94.542 92.7438-97.3419 79.4031-97.3419L40.3692-97.3419C37.5693-97.3419 35.2635-95.3655 34.9341-92.5656L18.6288 10.2072C18.2994 12.1836 19.9464 13.9953 21.9228 13.9953L45.969 13.9953L52.0629-24.2151L51.8982-23.0622C52.3923-25.6974 54.6981-27.8385 57.3333-27.8385L68.6976-27.8385C91.0968-27.8385 108.72-36.897 113.825-63.249L114.32-65.5548Z"/>
  </g>
  <g id="Medium-L" transform="matrix(1 0 0 1 1677.46 1556)">
   <path class="multicolor-0:systemCyanColor hierarchical-0:secondary SFSymbolsPreview55BEF0" d="M119.002-61.2726C117.684-62.9196 115.708-64.4019 113.567-65.5548C112.249-66.2136 110.932-66.8724 109.285-67.3665C108.955-67.3665 108.626-67.5312 108.132-67.6959C107.308-67.8606 106.485-68.19 105.661-68.3547C104.838-68.5194 104.014-68.6841 103.026-68.8488C99.8967-69.3429 96.6027-69.5076 92.9793-69.5076L62.6745-69.5076C61.851-69.5076 61.1922-69.3429 60.5334-69.0135C59.0511-68.3547 58.0629-67.0371 57.8982-65.3901L51.4749-24.2151L51.3102-23.0622L45.381 13.9953L43.734 24.5361C43.4046 26.3478 44.8869 27.9948 46.6986 27.9948L66.9567 27.9948C69.4272 27.9948 71.4036 26.1831 71.733 23.8773L71.8977 22.8891L75.6858-1.4865L75.8505-2.8041C76.1799-5.1099 78.321-6.9216 80.6268-6.9216L83.5914-6.9216C103.191-6.9216 118.508-14.8272 123.119-37.8852C124.931-47.4378 123.943-55.5081 119.002-61.2726Z"/>
   <path class="multicolor-1:systemBlueColor hierarchical-1:primary SFSymbolsPreview007AFF" d="M113.731-65.5548C115.214-75.2721 113.731-81.8601 108.461-87.954C102.697-94.542 92.1558-97.3419 78.8151-97.3419L39.7812-97.3419C36.9813-97.3419 34.6755-95.3655 34.3461-92.5656L18.0408 10.2072C17.7114 12.1836 19.3584 13.9953 21.3348 13.9953L45.381 13.9953L51.4749-24.2151L51.3102-23.0622C51.8043-25.6974 54.1101-27.8385 56.7453-27.8385L68.1096-27.8385C90.5088-27.8385 108.132-36.897 113.237-63.249L113.731-65.5548Z"/>
  </g>
  <g id="Regular-L" transform="matrix(1 0 0 1 1381.53 1556)">
   <path class="multicolor-0:systemCyanColor hierarchical-0:secondary SFSymbolsPreview55BEF0" d="M118.235-61.2726C116.917-62.9196 114.941-64.4019 112.8-65.5548C111.482-66.2136 110.165-66.8724 108.518-67.3665C108.188-67.3665 107.859-67.5312 107.365-67.6959C106.541-67.8606 105.718-68.19 104.894-68.3547C104.071-68.5194 103.247-68.6841 102.259-68.8488C99.1297-69.3429 95.8357-69.5076 92.2123-69.5076L61.9075-69.5076C61.084-69.5076 60.4252-69.3429 59.7664-69.0135C58.2841-68.3547 57.2959-67.0371 57.1312-65.3901L50.7079-24.2151L50.5432-23.0622L44.614 13.9953L42.967 24.5361C42.6376 26.3478 44.1199 27.9948 45.9316 27.9948L66.1897 27.9948C68.6602 27.9948 70.6366 26.1831 70.966 23.8773L71.1307 22.8891L74.9188-1.4865L75.0835-2.8041C75.4129-5.1099 77.554-6.9216 79.8598-6.9216L82.8244-6.9216C102.424-6.9216 117.741-14.8272 122.352-37.8852C124.164-47.4378 123.176-55.5081 118.235-61.2726Z"/>
   <path class="multicolor-1:systemBlueColor hierarchical-1:primary SFSymbolsPreview007AFF" d="M112.964-65.5548C114.447-75.2721 112.964-81.8601 107.694-87.954C101.93-94.542 91.3888-97.3419 78.0481-97.3419L39.0142-97.3419C36.2143-97.3419 33.9085-95.3655 33.5791-92.5656L17.2738 10.2072C16.9444 12.1836 18.5914 13.9953 20.5678 13.9953L44.614 13.9953L50.7079-24.2151L50.5432-23.0622C51.0373-25.6974 53.3431-27.8385 55.9783-27.8385L67.3426-27.8385C89.7418-27.8385 107.365-36.897 112.47-63.249L112.964-65.5548Z"/>
  </g>
  <g id="Light-L" transform="matrix(1 0 0 1 1085.66 1556)">
   <path class="multicolor-0:systemCyanColor hierarchical-0:secondary SFSymbolsPreview55BEF0" d="M117.394-61.2726C116.077-62.9196 114.1-64.4019 111.959-65.5548C110.642-66.2136 109.324-66.8724 107.677-67.3665C107.348-67.3665 107.018-67.5312 106.524-67.6959C105.701-67.8606 104.877-68.19 104.054-68.3547C103.23-68.5194 102.407-68.6841 101.418-68.8488C98.2891-69.3429 94.9951-69.5076 91.3717-69.5076L61.0669-69.5076C60.2434-69.5076 59.5846-69.3429 58.9258-69.0135C57.4435-68.3547 56.4553-67.0371 56.2906-65.3901L49.8673-24.2151L49.7026-23.0622L43.7734 13.9953L42.1264 24.5361C41.797 26.3478 43.2793 27.9948 45.091 27.9948L65.3491 27.9948C67.8196 27.9948 69.796 26.1831 70.1254 23.8773L70.2901 22.8891L74.0782-1.4865L74.2429-2.8041C74.5723-5.1099 76.7134-6.9216 79.0192-6.9216L81.9838-6.9216C101.583-6.9216 116.9-14.8272 121.512-37.8852C123.324-47.4378 122.335-55.5081 117.394-61.2726Z"/>
   <path class="multicolor-1:systemBlueColor hierarchical-1:primary SFSymbolsPreview007AFF" d="M112.124-65.5548C113.606-75.2721 112.124-81.8601 106.854-87.954C101.089-94.542 90.5482-97.3419 77.2075-97.3419L38.1736-97.3419C35.3737-97.3419 33.0679-95.3655 32.7385-92.5656L16.4332 10.2072C16.1038 12.1836 17.7508 13.9953 19.7272 13.9953L43.7734 13.9953L49.8673-24.2151L49.7026-23.0622C50.1967-25.6974 52.5025-27.8385 55.1377-27.8385L66.502-27.8385C88.9012-27.8385 106.524-36.897 111.63-63.249L112.124-65.5548Z"/>
  </g>
  <g id="Thin-L" transform="matrix(1 0 0 1 790.058 1556)">
   <path class="multicolor-0:systemCyanColor hierarchical-0:secondary SFSymbolsPreview55BEF0" d="M116.283-61.2726C114.965-62.9196 112.989-64.4019 110.847-65.5548C109.53-66.2136 108.212-66.8724 106.565-67.3665C106.236-67.3665 105.906-67.5312 105.412-67.6959C104.589-67.8606 103.765-68.19 102.942-68.3547C102.118-68.5194 101.295-68.6841 100.307-68.8488C97.1774-69.3429 93.8834-69.5076 90.26-69.5076L59.9552-69.5076C59.1317-69.5076 58.4729-69.3429 57.8141-69.0135C56.3318-68.3547 55.3436-67.0371 55.1789-65.3901L48.7556-24.2151L48.5909-23.0622L42.6617 13.9953L41.0147 24.5361C40.6853 26.3478 42.1676 27.9948 43.9793 27.9948L64.2374 27.9948C66.7079 27.9948 68.6843 26.1831 69.0137 23.8773L69.1784 22.8891L72.9665-1.4865L73.1312-2.8041C73.4606-5.1099 75.6017-6.9216 77.9075-6.9216L80.8721-6.9216C100.471-6.9216 115.788-14.8272 120.4-37.8852C122.212-47.4378 121.224-55.5081 116.283-61.2726Z"/>
   <path class="multicolor-1:systemBlueColor hierarchical-1:primary SFSymbolsPreview007AFF" d="M111.012-65.5548C112.494-75.2721 111.012-81.8601 105.742-87.954C99.9773-94.542 89.4365-97.3419 76.0958-97.3419L37.0619-97.3419C34.262-97.3419 31.9562-95.3655 31.6268-92.5656L15.3215 10.2072C14.9921 12.1836 16.6391 13.9953 18.6155 13.9953L42.6617 13.9953L48.7556-24.2151L48.5909-23.0622C49.085-25.6974 51.3908-27.8385 54.026-27.8385L65.3903-27.8385C87.7895-27.8385 105.412-36.897 110.518-63.249L111.012-65.5548Z"/>
  </g>
  <g id="Ultralight-L" transform="matrix(1 0 0 1 493.916 1556)">
   <path class="multicolor-0:systemCyanColor hierarchical-0:secondary SFSymbolsPreview55BEF0" d="M115.713-61.2726C114.396-62.9196 112.419-64.4019 110.278-65.5548C108.96-66.2136 107.643-66.8724 105.996-67.3665C105.666-67.3665 105.337-67.5312 104.843-67.6959C104.019-67.8606 103.196-68.19 102.372-68.3547C101.549-68.5194 100.725-68.6841 99.7372-68.8488C96.6079-69.3429 93.3139-69.5076 89.6905-69.5076L59.3857-69.5076C58.5622-69.5076 57.9034-69.3429 57.2446-69.0135C55.7623-68.3547 54.7741-67.0371 54.6094-65.3901L48.1861-24.2151L48.0214-23.0622L42.0922 13.9953L40.4452 24.5361C40.1158 26.3478 41.5981 27.9948 43.4098 27.9948L63.6679 27.9948C66.1384 27.9948 68.1148 26.1831 68.4442 23.8773L68.6089 22.8891L72.397-1.4865L72.5617-2.8041C72.8911-5.1099 75.0322-6.9216 77.338-6.9216L80.3026-6.9216C99.9019-6.9216 115.219-14.8272 119.831-37.8852C121.642-47.4378 120.654-55.5081 115.713-61.2726Z"/>
   <path class="multicolor-1:systemBlueColor hierarchical-1:primary SFSymbolsPreview007AFF" d="M110.443-65.5548C111.925-75.2721 110.443-81.8601 105.172-87.954C99.4078-94.542 88.867-97.3419 75.5263-97.3419L36.4924-97.3419C33.6925-97.3419 31.3867-95.3655 31.0573-92.5656L14.752 10.2072C14.4226 12.1836 16.0696 13.9953 18.046 13.9953L42.0922 13.9953L48.1861-24.2151L48.0214-23.0622C48.5155-25.6974 50.8213-27.8385 53.4565-27.8385L64.8208-27.8385C87.22-27.8385 104.843-36.897 109.949-63.249L110.443-65.5548Z"/>
  </g>
  <g id="Black-M" transform="matrix(1 0 0 1 2876.53 1126)">
   <path class="multicolor-0:systemCyanColor hierarchical-0:secondary SFSymbolsPreview55BEF0" d="M95.481-55.4108C94.4602-56.6868 92.929-57.8352 91.2702-58.7284C90.2494-59.2388 89.2286-59.7492 87.9526-60.132C87.6974-60.132 87.4422-60.2596 87.0594-60.3872C86.4214-60.5148 85.7834-60.77 85.1454-60.8976C84.5074-61.0252 83.8694-61.1528 83.1038-61.2804C80.6794-61.6632 78.1274-61.7908 75.3202-61.7908L51.8418-61.7908C51.2038-61.7908 50.6934-61.6632 50.183-61.408C49.0346-60.8976 48.269-59.8768 48.1414-58.6008L43.165-26.7008L43.0374-25.8076L38.4438 2.9024L37.1678 11.0688C36.9126 12.4724 38.061 13.7484 39.4646 13.7484L55.1594 13.7484C57.0734 13.7484 58.6046 12.3448 58.8598 10.5584L58.9874 9.7928L61.9222-9.092L62.0498-10.1128C62.305-11.8992 63.9638-13.3028 65.7502-13.3028L68.047-13.3028C83.2314-13.3028 95.0982-19.4276 98.671-37.2916C100.075-44.6924 99.309-50.9448 95.481-55.4108Z"/>
   <path class="multicolor-1:systemBlueColor hierarchical-1:primary SFSymbolsPreview007AFF" d="M91.3978-58.7284C92.5462-66.2568 91.3978-71.3608 87.3146-76.082C82.8486-81.186 74.6822-83.3552 64.3466-83.3552L34.1054-83.3552C31.9362-83.3552 30.1498-81.824 29.8946-79.6548L17.2622-0.0324C17.007 1.4988 18.283 2.9024 19.8142 2.9024L38.4438 2.9024L43.165-26.7008L43.0374-25.8076C43.4202-27.8492 45.2066-29.508 47.2482-29.508L56.0526-29.508C73.4062-29.508 87.0594-36.526 91.015-56.942L91.3978-58.7284Z"/>
  </g>
  <g id="Heavy-M" transform="matrix(1 0 0 1 2580.64 1126)">
   <path class="multicolor-0:systemCyanColor hierarchical-0:secondary SFSymbolsPreview55BEF0" d="M94.6785-55.4108C93.6577-56.6868 92.1265-57.8352 90.4677-58.7284C89.4469-59.2388 88.4261-59.7492 87.1501-60.132C86.8949-60.132 86.6397-60.2596 86.2569-60.3872C85.6189-60.5148 84.9809-60.77 84.3429-60.8976C83.7049-61.0252 83.0669-61.1528 82.3013-61.2804C79.8769-61.6632 77.3249-61.7908 74.5177-61.7908L51.0393-61.7908C50.4013-61.7908 49.8909-61.6632 49.3805-61.408C48.2321-60.8976 47.4665-59.8768 47.3389-58.6008L42.3625-26.7008L42.2349-25.8076L37.6413 2.9024L36.3653 11.0688C36.1101 12.4724 37.2585 13.7484 38.6621 13.7484L54.3569 13.7484C56.2709 13.7484 57.8021 12.3448 58.0573 10.5584L58.1849 9.7928L61.1197-9.092L61.2473-10.1128C61.5025-11.8992 63.1613-13.3028 64.9477-13.3028L67.2445-13.3028C82.4289-13.3028 94.2957-19.4276 97.8685-37.2916C99.2721-44.6924 98.5065-50.9448 94.6785-55.4108Z"/>
   <path class="multicolor-1:systemBlueColor hierarchical-1:primary SFSymbolsPreview007AFF" d="M90.5953-58.7284C91.7437-66.2568 90.5953-71.3608 86.5121-76.082C82.0461-81.186 73.8797-83.3552 63.5441-83.3552L33.3029-83.3552C31.1337-83.3552 29.3473-81.824 29.0921-79.6548L16.4597-0.0324C16.2045 1.4988 17.4805 2.9024 19.0117 2.9024L37.6413 2.9024L42.3625-26.7008L42.2349-25.8076C42.6177-27.8492 44.4041-29.508 46.4457-29.508L55.2501-29.508C72.6037-29.508 86.2569-36.526 90.2125-56.942L90.5953-58.7284Z"/>
  </g>
  <g id="Bold-M" transform="matrix(1 0 0 1 2284.84 1126)">
   <path class="multicolor-0:systemCyanColor hierarchical-0:secondary SFSymbolsPreview55BEF0" d="M93.7808-55.4108C92.76-56.6868 91.2288-57.8352 89.57-58.7284C88.5492-59.2388 87.5284-59.7492 86.2524-60.132C85.9972-60.132 85.742-60.2596 85.3592-60.3872C84.7212-60.5148 84.0832-60.77 83.4452-60.8976C82.8072-61.0252 82.1692-61.1528 81.4036-61.2804C78.9792-61.6632 76.4272-61.7908 73.62-61.7908L50.1416-61.7908C49.5036-61.7908 48.9932-61.6632 48.4828-61.408C47.3344-60.8976 46.5688-59.8768 46.4412-58.6008L41.4648-26.7008L41.3372-25.8076L36.7436 2.9024L35.4676 11.0688C35.2124 12.4724 36.3608 13.7484 37.7644 13.7484L53.4592 13.7484C55.3732 13.7484 56.9044 12.3448 57.1596 10.5584L57.2872 9.7928L60.222-9.092L60.3496-10.1128C60.6048-11.8992 62.2636-13.3028 64.05-13.3028L66.3468-13.3028C81.5312-13.3028 93.398-19.4276 96.9708-37.2916C98.3744-44.6924 97.6088-50.9448 93.7808-55.4108Z"/>
   <path class="multicolor-1:systemBlueColor hierarchical-1:primary SFSymbolsPreview007AFF" d="M89.6976-58.7284C90.846-66.2568 89.6976-71.3608 85.6144-76.082C81.1484-81.186 72.982-83.3552 62.6464-83.3552L32.4052-83.3552C30.236-83.3552 28.4496-81.824 28.1944-79.6548L15.562-0.0324C15.3068 1.4988 16.5828 2.9024 18.114 2.9024L36.7436 2.9024L41.4648-26.7008L41.3372-25.8076C41.72-27.8492 43.5064-29.508 45.548-29.508L54.3524-29.508C71.706-29.508 85.3592-36.526 89.3148-56.942L89.6976-58.7284Z"/>
  </g>
  <g id="Semibold-M" transform="matrix(1 0 0 1 1988.76 1126)">
   <path class="multicolor-0:systemCyanColor hierarchical-0:secondary SFSymbolsPreview55BEF0" d="M93.1619-55.4108C92.1411-56.6868 90.6099-57.8352 88.9511-58.7284C87.9303-59.2388 86.9095-59.7492 85.6335-60.132C85.3783-60.132 85.1231-60.2596 84.7403-60.3872C84.1023-60.5148 83.4643-60.77 82.8263-60.8976C82.1883-61.0252 81.5503-61.1528 80.7847-61.2804C78.3603-61.6632 75.8083-61.7908 73.0011-61.7908L49.5227-61.7908C48.8847-61.7908 48.3743-61.6632 47.8639-61.408C46.7155-60.8976 45.9499-59.8768 45.8223-58.6008L40.8459-26.7008L40.7183-25.8076L36.1247 2.9024L34.8487 11.0688C34.5935 12.4724 35.7419 13.7484 37.1455 13.7484L52.8403 13.7484C54.7543 13.7484 56.2855 12.3448 56.5407 10.5584L56.6683 9.7928L59.6031-9.092L59.7307-10.1128C59.9859-11.8992 61.6447-13.3028 63.4311-13.3028L65.7279-13.3028C80.9123-13.3028 92.7791-19.4276 96.3519-37.2916C97.7555-44.6924 96.9899-50.9448 93.1619-55.4108Z"/>
   <path class="multicolor-1:systemBlueColor hierarchical-1:primary SFSymbolsPreview007AFF" d="M89.0787-58.7284C90.2271-66.2568 89.0787-71.3608 84.9955-76.082C80.5295-81.186 72.3631-83.3552 62.0275-83.3552L31.7863-83.3552C29.6171-83.3552 27.8307-81.824 27.5755-79.6548L14.9431-0.0324C14.6879 1.4988 15.9639 2.9024 17.4951 2.9024L36.1247 2.9024L40.8459-26.7008L40.7183-25.8076C41.1011-27.8492 42.8875-29.508 44.9291-29.508L53.7335-29.508C71.0871-29.508 84.7403-36.526 88.6959-56.942L89.0787-58.7284Z"/>
  </g>
  <g id="Medium-M" transform="matrix(1 0 0 1 1692.53 1126)">
   <path class="multicolor-0:systemCyanColor hierarchical-0:secondary SFSymbolsPreview55BEF0" d="M92.6926-55.4108C91.6718-56.6868 90.1406-57.8352 88.4818-58.7284C87.461-59.2388 86.4402-59.7492 85.1642-60.132C84.909-60.132 84.6538-60.2596 84.271-60.3872C83.633-60.5148 82.995-60.77 82.357-60.8976C81.719-61.0252 81.081-61.1528 80.3154-61.2804C77.891-61.6632 75.339-61.7908 72.5318-61.7908L49.0534-61.7908C48.4154-61.7908 47.905-61.6632 47.3946-61.408C46.2462-60.8976 45.4806-59.8768 45.353-58.6008L40.3766-26.7008L40.249-25.8076L35.6554 2.9024L34.3794 11.0688C34.1242 12.4724 35.2726 13.7484 36.6762 13.7484L52.371 13.7484C54.285 13.7484 55.8162 12.3448 56.0714 10.5584L56.199 9.7928L59.1338-9.092L59.2614-10.1128C59.5166-11.8992 61.1754-13.3028 62.9618-13.3028L65.2586-13.3028C80.443-13.3028 92.3098-19.4276 95.8826-37.2916C97.2862-44.6924 96.5206-50.9448 92.6926-55.4108Z"/>
   <path class="multicolor-1:systemBlueColor hierarchical-1:primary SFSymbolsPreview007AFF" d="M88.6094-58.7284C89.7578-66.2568 88.6094-71.3608 84.5262-76.082C80.0602-81.186 71.8938-83.3552 61.5582-83.3552L31.317-83.3552C29.1478-83.3552 27.3614-81.824 27.1062-79.6548L14.4738-0.0324C14.2186 1.4988 15.4946 2.9024 17.0258 2.9024L35.6554 2.9024L40.3766-26.7008L40.249-25.8076C40.6318-27.8492 42.4182-29.508 44.4598-29.508L53.2642-29.508C70.6178-29.508 84.271-36.526 88.2266-56.942L88.6094-58.7284Z"/>
  </g>
  <g id="Regular-M" transform="matrix(1 0 0 1 1396.44 1126)">
   <path class="multicolor-0:systemCyanColor hierarchical-0:secondary SFSymbolsPreview55BEF0" d="M92.0805-55.4108C91.0597-56.6868 89.5285-57.8352 87.8697-58.7284C86.8489-59.2388 85.8281-59.7492 84.5521-60.132C84.2969-60.132 84.0417-60.2596 83.6589-60.3872C83.0209-60.5148 82.3829-60.77 81.7449-60.8976C81.1069-61.0252 80.4689-61.1528 79.7033-61.2804C77.2789-61.6632 74.7269-61.7908 71.9197-61.7908L48.4413-61.7908C47.8033-61.7908 47.2929-61.6632 46.7825-61.408C45.6341-60.8976 44.8685-59.8768 44.7409-58.6008L39.7645-26.7008L39.6369-25.8076L35.0433 2.9024L33.7673 11.0688C33.5121 12.4724 34.6605 13.7484 36.0641 13.7484L51.7589 13.7484C53.6729 13.7484 55.2041 12.3448 55.4593 10.5584L55.5869 9.7928L58.5217-9.092L58.6493-10.1128C58.9045-11.8992 60.5633-13.3028 62.3497-13.3028L64.6465-13.3028C79.8309-13.3028 91.6977-19.4276 95.2705-37.2916C96.6741-44.6924 95.9085-50.9448 92.0805-55.4108Z"/>
   <path class="multicolor-1:systemBlueColor hierarchical-1:primary SFSymbolsPreview007AFF" d="M87.9973-58.7284C89.1457-66.2568 87.9973-71.3608 83.9141-76.082C79.4481-81.186 71.2817-83.3552 60.9461-83.3552L30.7049-83.3552C28.5357-83.3552 26.7493-81.824 26.4941-79.6548L13.8617-0.0324C13.6065 1.4988 14.8825 2.9024 16.4137 2.9024L35.0433 2.9024L39.7645-26.7008L39.6369-25.8076C40.0197-27.8492 41.8061-29.508 43.8477-29.508L52.6521-29.508C70.0057-29.508 83.6589-36.526 87.6145-56.942L87.9973-58.7284Z"/>
  </g>
  <g id="Light-M" transform="matrix(1 0 0 1 1100.48 1126)">
   <path class="multicolor-0:systemCyanColor hierarchical-0:secondary SFSymbolsPreview55BEF0" d="M91.3269-55.4108C90.3061-56.6868 88.7749-57.8352 87.1161-58.7284C86.0953-59.2388 85.0745-59.7492 83.7985-60.132C83.5433-60.132 83.2881-60.2596 82.9053-60.3872C82.2673-60.5148 81.6293-60.77 80.9913-60.8976C80.3533-61.0252 79.7153-61.1528 78.9497-61.2804C76.5253-61.6632 73.9733-61.7908 71.1661-61.7908L47.6877-61.7908C47.0497-61.7908 46.5393-61.6632 46.0289-61.408C44.8805-60.8976 44.1149-59.8768 43.9873-58.6008L39.0109-26.7008L38.8833-25.8076L34.2897 2.9024L33.0137 11.0688C32.7585 12.4724 33.9069 13.7484 35.3105 13.7484L51.0053 13.7484C52.9193 13.7484 54.4505 12.3448 54.7057 10.5584L54.8333 9.7928L57.7681-9.092L57.8957-10.1128C58.1509-11.8992 59.8097-13.3028 61.5961-13.3028L63.8929-13.3028C79.0773-13.3028 90.9441-19.4276 94.5169-37.2916C95.9205-44.6924 95.1549-50.9448 91.3269-55.4108Z"/>
   <path class="multicolor-1:systemBlueColor hierarchical-1:primary SFSymbolsPreview007AFF" d="M87.2437-58.7284C88.3921-66.2568 87.2437-71.3608 83.1605-76.082C78.6945-81.186 70.5281-83.3552 60.1925-83.3552L29.9513-83.3552C27.7821-83.3552 25.9957-81.824 25.7405-79.6548L13.1081-0.0324C12.8529 1.4988 14.1289 2.9024 15.6601 2.9024L34.2897 2.9024L39.0109-26.7008L38.8833-25.8076C39.2661-27.8492 41.0525-29.508 43.0941-29.508L51.8985-29.508C69.2521-29.508 82.9053-36.526 86.8609-56.942L87.2437-58.7284Z"/>
  </g>
  <g id="Thin-M" transform="matrix(1 0 0 1 804.766 1126)">
   <path class="multicolor-0:systemCyanColor hierarchical-0:secondary SFSymbolsPreview55BEF0" d="M90.3302-55.4108C89.3094-56.6868 87.7782-57.8352 86.1194-58.7284C85.0986-59.2388 84.0778-59.7492 82.8018-60.132C82.5466-60.132 82.2914-60.2596 81.9086-60.3872C81.2706-60.5148 80.6326-60.77 79.9946-60.8976C79.3566-61.0252 78.7186-61.1528 77.953-61.2804C75.5286-61.6632 72.9766-61.7908 70.1694-61.7908L46.691-61.7908C46.053-61.7908 45.5426-61.6632 45.0322-61.408C43.8838-60.8976 43.1182-59.8768 42.9906-58.6008L38.0142-26.7008L37.8866-25.8076L33.293 2.9024L32.017 11.0688C31.7618 12.4724 32.9102 13.7484 34.3138 13.7484L50.0086 13.7484C51.9226 13.7484 53.4538 12.3448 53.709 10.5584L53.8366 9.7928L56.7714-9.092L56.899-10.1128C57.1542-11.8992 58.813-13.3028 60.5994-13.3028L62.8962-13.3028C78.0806-13.3028 89.9474-19.4276 93.5202-37.2916C94.9238-44.6924 94.1582-50.9448 90.3302-55.4108Z"/>
   <path class="multicolor-1:systemBlueColor hierarchical-1:primary SFSymbolsPreview007AFF" d="M86.247-58.7284C87.3954-66.2568 86.247-71.3608 82.1638-76.082C77.6978-81.186 69.5314-83.3552 59.1958-83.3552L28.9546-83.3552C26.7854-83.3552 24.999-81.824 24.7438-79.6548L12.1114-0.0324C11.8562 1.4988 13.1322 2.9024 14.6634 2.9024L33.293 2.9024L38.0142-26.7008L37.8866-25.8076C38.2694-27.8492 40.0558-29.508 42.0974-29.508L50.9018-29.508C68.2554-29.508 81.9086-36.526 85.8642-56.942L86.247-58.7284Z"/>
  </g>
  <g id="Ultralight-M" transform="matrix(1 0 0 1 508.565 1126)">
   <path class="multicolor-0:systemCyanColor hierarchical-0:secondary SFSymbolsPreview55BEF0" d="M89.8197-55.4108C88.7989-56.6868 87.2677-57.8352 85.6089-58.7284C84.5881-59.2388 83.5673-59.7492 82.2913-60.132C82.0361-60.132 81.7809-60.2596 81.3981-60.3872C80.7601-60.5148 80.1221-60.77 79.4841-60.8976C78.8461-61.0252 78.2081-61.1528 77.4425-61.2804C75.0181-61.6632 72.4661-61.7908 69.6589-61.7908L46.1805-61.7908C45.5425-61.7908 45.0321-61.6632 44.5217-61.408C43.3733-60.8976 42.6077-59.8768 42.4801-58.6008L37.5037-26.7008L37.3761-25.8076L32.7825 2.9024L31.5065 11.0688C31.2513 12.4724 32.3997 13.7484 33.8033 13.7484L49.4981 13.7484C51.4121 13.7484 52.9433 12.3448 53.1985 10.5584L53.3261 9.7928L56.2609-9.092L56.3885-10.1128C56.6437-11.8992 58.3025-13.3028 60.0889-13.3028L62.3857-13.3028C77.5701-13.3028 89.4369-19.4276 93.0097-37.2916C94.4133-44.6924 93.6477-50.9448 89.8197-55.4108Z"/>
   <path class="multicolor-1:systemBlueColor hierarchical-1:primary SFSymbolsPreview007AFF" d="M85.7365-58.7284C86.8849-66.2568 85.7365-71.3608 81.6533-76.082C77.1873-81.186 69.0209-83.3552 58.6853-83.3552L28.4441-83.3552C26.2749-83.3552 24.4885-81.824 24.2333-79.6548L11.6009-0.0324C11.3457 1.4988 12.6217 2.9024 14.1529 2.9024L32.7825 2.9024L37.5037-26.7008L37.3761-25.8076C37.7589-27.8492 39.5453-29.508 41.5869-29.508L50.3913-29.508C67.7449-29.508 81.3981-36.526 85.3537-56.942L85.7365-58.7284Z"/>
  </g>
  <g id="Black-S" transform="matrix(1 0 0 1 2888.63 696)">
   <path class="multicolor-0:systemCyanColor hierarchical-0:secondary SFSymbolsPreview55BEF0" d="M75.0276-51.05C74.2276-52.05 73.0276-52.95 71.7276-53.65C70.9276-54.05 70.1276-54.45 69.1276-54.75C68.9276-54.75 68.7276-54.85 68.4276-54.95C67.9276-55.05 67.4276-55.25 66.9276-55.35C66.4276-55.45 65.9276-55.55 65.3276-55.65C63.4276-55.95 61.4276-56.05 59.2276-56.05L40.8276-56.05C40.3276-56.05 39.9276-55.95 39.5276-55.75C38.6276-55.35 38.0276-54.55 37.9276-53.55L34.0276-28.55L33.9276-27.85L30.3276-5.35L29.3276 1.05C29.1276 2.15 30.0276 3.15 31.1276 3.15L43.4276 3.15C44.9276 3.15 46.1276 2.05 46.3276 0.65L46.4276 0.05L48.7276-14.75L48.8276-15.55C49.0276-16.95 50.3276-18.05 51.7276-18.05L53.5276-18.05C65.4276-18.05 74.7276-22.85 77.5276-36.85C78.6276-42.65 78.0276-47.55 75.0276-51.05Z"/>
   <path class="multicolor-1:systemBlueColor hierarchical-1:primary SFSymbolsPreview007AFF" d="M71.8276-53.65C72.7276-59.55 71.8276-63.55 68.6276-67.25C65.1276-71.25 58.7276-72.95 50.6276-72.95L26.9276-72.95C25.2276-72.95 23.8276-71.75 23.6276-70.05L13.7276-7.65C13.5276-6.45 14.5276-5.35 15.7276-5.35L30.3276-5.35L34.0276-28.55L33.9276-27.85C34.2276-29.45 35.6276-30.75 37.2276-30.75L44.1276-30.75C57.7276-30.75 68.4276-36.25 71.5276-52.25L71.8276-53.65Z"/>
  </g>
  <g id="Heavy-S" transform="matrix(1 0 0 1 2592.52 696)">
   <path class="multicolor-0:systemCyanColor hierarchical-0:secondary SFSymbolsPreview55BEF0" d="M74.4376-51.05C73.6376-52.05 72.4376-52.95 71.1376-53.65C70.3376-54.05 69.5376-54.45 68.5376-54.75C68.3376-54.75 68.1376-54.85 67.8376-54.95C67.3376-55.05 66.8376-55.25 66.3376-55.35C65.8376-55.45 65.3376-55.55 64.7376-55.65C62.8376-55.95 60.8376-56.05 58.6376-56.05L40.2376-56.05C39.7376-56.05 39.3376-55.95 38.9376-55.75C38.0376-55.35 37.4376-54.55 37.3376-53.55L33.4376-28.55L33.3376-27.85L29.7376-5.35L28.7376 1.05C28.5376 2.15 29.4376 3.15 30.5376 3.15L42.8376 3.15C44.3376 3.15 45.5376 2.05 45.7376 0.65L45.8376 0.05L48.1376-14.75L48.2376-15.55C48.4376-16.95 49.7376-18.05 51.1376-18.05L52.9376-18.05C64.8376-18.05 74.1376-22.85 76.9376-36.85C78.0376-42.65 77.4376-47.55 74.4376-51.05Z"/>
   <path class="multicolor-1:systemBlueColor hierarchical-1:primary SFSymbolsPreview007AFF" d="M71.2376-53.65C72.1376-59.55 71.2376-63.55 68.0376-67.25C64.5376-71.25 58.1376-72.95 50.0376-72.95L26.3376-72.95C24.6376-72.95 23.2376-71.75 23.0376-70.05L13.1376-7.65C12.9376-6.45 13.9376-5.35 15.1376-5.35L29.7376-5.35L33.4376-28.55L33.3376-27.85C33.6376-29.45 35.0376-30.75 36.6376-30.75L43.5376-30.75C57.1376-30.75 67.8376-36.25 70.9376-52.25L71.2376-53.65Z"/>
  </g>
  <g id="Bold-S" transform="matrix(1 0 0 1 2296.48 696)">
   <path class="multicolor-0:systemCyanColor hierarchical-0:secondary SFSymbolsPreview55BEF0" d="M73.7776-51.05C72.9776-52.05 71.7776-52.95 70.4776-53.65C69.6776-54.05 68.8776-54.45 67.8776-54.75C67.6776-54.75 67.4776-54.85 67.1776-54.95C66.6776-55.05 66.1776-55.25 65.6776-55.35C65.1776-55.45 64.6776-55.55 64.0776-55.65C62.1776-55.95 60.1776-56.05 57.9776-56.05L39.5776-56.05C39.0776-56.05 38.6776-55.95 38.2776-55.75C37.3776-55.35 36.7776-54.55 36.6776-53.55L32.7776-28.55L32.6776-27.85L29.0776-5.35L28.0776 1.05C27.8776 2.15 28.7776 3.15 29.8776 3.15L42.1776 3.15C43.6776 3.15 44.8776 2.05 45.0776 0.65L45.1776 0.05L47.4776-14.75L47.5776-15.55C47.7776-16.95 49.0776-18.05 50.4776-18.05L52.2776-18.05C64.1776-18.05 73.4776-22.85 76.2776-36.85C77.3776-42.65 76.7776-47.55 73.7776-51.05Z"/>
   <path class="multicolor-1:systemBlueColor hierarchical-1:primary SFSymbolsPreview007AFF" d="M70.5776-53.65C71.4776-59.55 70.5776-63.55 67.3776-67.25C63.8776-71.25 57.4776-72.95 49.3776-72.95L25.6776-72.95C23.9776-72.95 22.5776-71.75 22.3776-70.05L12.4776-7.65C12.2776-6.45 13.2776-5.35 14.4776-5.35L29.0776-5.35L32.7776-28.55L32.6776-27.85C32.9776-29.45 34.3776-30.75 35.9776-30.75L42.8776-30.75C56.4776-30.75 67.1776-36.25 70.2776-52.25L70.5776-53.65Z"/>
  </g>
  <g id="Semibold-S" transform="matrix(1 0 0 1 2000.24 696)">
   <path class="multicolor-0:systemCyanColor hierarchical-0:secondary SFSymbolsPreview55BEF0" d="M73.3226-51.05C72.5226-52.05 71.3226-52.95 70.0226-53.65C69.2226-54.05 68.4226-54.45 67.4226-54.75C67.2226-54.75 67.0226-54.85 66.7226-54.95C66.2226-55.05 65.7226-55.25 65.2226-55.35C64.7226-55.45 64.2226-55.55 63.6226-55.65C61.7226-55.95 59.7226-56.05 57.5226-56.05L39.1226-56.05C38.6226-56.05 38.2226-55.95 37.8226-55.75C36.9226-55.35 36.3226-54.55 36.2226-53.55L32.3226-28.55L32.2226-27.85L28.6226-5.35L27.6226 1.05C27.4226 2.15 28.3226 3.15 29.4226 3.15L41.7226 3.15C43.2226 3.15 44.4226 2.05 44.6226 0.65L44.7226 0.05L47.0226-14.75L47.1226-15.55C47.3226-16.95 48.6226-18.05 50.0226-18.05L51.8226-18.05C63.7226-18.05 73.0226-22.85 75.8226-36.85C76.9226-42.65 76.3226-47.55 73.3226-51.05Z"/>
   <path class="multicolor-1:systemBlueColor hierarchical-1:primary SFSymbolsPreview007AFF" d="M70.1226-53.65C71.0226-59.55 70.1226-63.55 66.9226-67.25C63.4226-71.25 57.0226-72.95 48.9226-72.95L25.2226-72.95C23.5226-72.95 22.1226-71.75 21.9226-70.05L12.0226-7.65C11.8226-6.45 12.8226-5.35 14.0226-5.35L28.6226-5.35L32.3226-28.55L32.2226-27.85C32.5226-29.45 33.9226-30.75 35.5226-30.75L42.4226-30.75C56.0226-30.75 66.7226-36.25 69.8226-52.25L70.1226-53.65Z"/>
  </g>
  <g id="Medium-S" transform="matrix(1 0 0 1 1703.88 696)">
   <path class="multicolor-0:systemCyanColor hierarchical-0:secondary SFSymbolsPreview55BEF0" d="M72.9776-51.05C72.1776-52.05 70.9776-52.95 69.6776-53.65C68.8776-54.05 68.0776-54.45 67.0776-54.75C66.8776-54.75 66.6776-54.85 66.3776-54.95C65.8776-55.05 65.3776-55.25 64.8776-55.35C64.3776-55.45 63.8776-55.55 63.2776-55.65C61.3776-55.95 59.3776-56.05 57.1776-56.05L38.7776-56.05C38.2776-56.05 37.8776-55.95 37.4776-55.75C36.5776-55.35 35.9776-54.55 35.8776-53.55L31.9776-28.55L31.8776-27.85L28.2776-5.35L27.2776 1.05C27.0776 2.15 27.9776 3.15 29.0776 3.15L41.3776 3.15C42.8776 3.15 44.0776 2.05 44.2776 0.65L44.3776 0.05L46.6776-14.75L46.7776-15.55C46.9776-16.95 48.2776-18.05 49.6776-18.05L51.4776-18.05C63.3776-18.05 72.6776-22.85 75.4776-36.85C76.5776-42.65 75.9776-47.55 72.9776-51.05Z"/>
   <path class="multicolor-1:systemBlueColor hierarchical-1:primary SFSymbolsPreview007AFF" d="M69.7776-53.65C70.6776-59.55 69.7776-63.55 66.5776-67.25C63.0776-71.25 56.6776-72.95 48.5776-72.95L24.8776-72.95C23.1776-72.95 21.7776-71.75 21.5776-70.05L11.6776-7.65C11.4776-6.45 12.4776-5.35 13.6776-5.35L28.2776-5.35L31.9776-28.55L31.8776-27.85C32.1776-29.45 33.5776-30.75 35.1776-30.75L42.0776-30.75C55.6776-30.75 66.3776-36.25 69.4776-52.25L69.7776-53.65Z"/>
  </g>
  <g id="Regular-S" transform="matrix(1 0 0 1 1407.63 696)">
   <path class="multicolor-0:systemCyanColor hierarchical-0:secondary SFSymbolsPreview55BEF0" d="M72.5276-51.05C71.7276-52.05 70.5276-52.95 69.2276-53.65C68.4276-54.05 67.6276-54.45 66.6276-54.75C66.4276-54.75 66.2276-54.85 65.9276-54.95C65.4276-55.05 64.9276-55.25 64.4276-55.35C63.9276-55.45 63.4276-55.55 62.8276-55.65C60.9276-55.95 58.9276-56.05 56.7276-56.05L38.3276-56.05C37.8276-56.05 37.4276-55.95 37.0276-55.75C36.1276-55.35 35.5276-54.55 35.4276-53.55L31.5276-28.55L31.4276-27.85L27.8276-5.35L26.8276 1.05C26.6276 2.15 27.5276 3.15 28.6276 3.15L40.9276 3.15C42.4276 3.15 43.6276 2.05 43.8276 0.65L43.9276 0.05L46.2276-14.75L46.3276-15.55C46.5276-16.95 47.8276-18.05 49.2276-18.05L51.0276-18.05C62.9276-18.05 72.2276-22.85 75.0276-36.85C76.1276-42.65 75.5276-47.55 72.5276-51.05Z"/>
   <path class="multicolor-1:systemBlueColor hierarchical-1:primary SFSymbolsPreview007AFF" d="M69.3276-53.65C70.2276-59.55 69.3276-63.55 66.1276-67.25C62.6276-71.25 56.2276-72.95 48.1276-72.95L24.4276-72.95C22.7276-72.95 21.3276-71.75 21.1276-70.05L11.2276-7.65C11.0276-6.45 12.0276-5.35 13.2276-5.35L27.8276-5.35L31.5276-28.55L31.4276-27.85C31.7276-29.45 33.1276-30.75 34.7276-30.75L41.6276-30.75C55.2276-30.75 65.9276-36.25 69.0276-52.25L69.3276-53.65Z"/>
  </g>
  <g id="Light-S" transform="matrix(1 0 0 1 1111.58 696)">
   <path class="multicolor-0:systemCyanColor hierarchical-0:secondary SFSymbolsPreview55BEF0" d="M71.8609-51.05C71.0609-52.05 69.8609-52.95 68.5609-53.65C67.7609-54.05 66.9609-54.45 65.9609-54.75C65.7609-54.75 65.5609-54.85 65.2609-54.95C64.7609-55.05 64.2609-55.25 63.7609-55.35C63.2609-55.45 62.7609-55.55 62.1609-55.65C60.2609-55.95 58.2609-56.05 56.0609-56.05L37.6609-56.05C37.1609-56.05 36.7609-55.95 36.3609-55.75C35.4609-55.35 34.8609-54.55 34.7609-53.55L30.8609-28.55L30.7609-27.85L27.1609-5.35L26.1609 1.05C25.9609 2.15 26.8609 3.15 27.9609 3.15L40.2609 3.15C41.7609 3.15 42.9609 2.05 43.1609 0.65L43.2609 0.05L45.5609-14.75L45.6609-15.55C45.8609-16.95 47.1609-18.05 48.5609-18.05L50.3609-18.05C62.2609-18.05 71.5609-22.85 74.3609-36.85C75.4609-42.65 74.8609-47.55 71.8609-51.05Z"/>
   <path class="multicolor-1:systemBlueColor hierarchical-1:primary SFSymbolsPreview007AFF" d="M68.6609-53.65C69.5609-59.55 68.6609-63.55 65.4609-67.25C61.9609-71.25 55.5609-72.95 47.4609-72.95L23.7609-72.95C22.0609-72.95 20.6609-71.75 20.4609-70.05L10.5609-7.65C10.3609-6.45 11.3609-5.35 12.5609-5.35L27.1609-5.35L30.8609-28.55L30.7609-27.85C31.0609-29.45 32.4609-30.75 34.0609-30.75L40.9609-30.75C54.5609-30.75 65.2609-36.25 68.3609-52.25L68.6609-53.65Z"/>
  </g>
  <g id="Thin-S" transform="matrix(1 0 0 1 815.752 696)">
   <path class="multicolor-0:systemCyanColor hierarchical-0:secondary SFSymbolsPreview55BEF0" d="M70.9792-51.05C70.1792-52.05 68.9792-52.95 67.6792-53.65C66.8792-54.05 66.0792-54.45 65.0792-54.75C64.8792-54.75 64.6792-54.85 64.3792-54.95C63.8792-55.05 63.3792-55.25 62.8792-55.35C62.3792-55.45 61.8792-55.55 61.2792-55.65C59.3792-55.95 57.3792-56.05 55.1792-56.05L36.7792-56.05C36.2792-56.05 35.8792-55.95 35.4792-55.75C34.5792-55.35 33.9792-54.55 33.8792-53.55L29.9792-28.55L29.8792-27.85L26.2792-5.35L25.2792 1.05C25.0792 2.15 25.9792 3.15 27.0792 3.15L39.3792 3.15C40.8792 3.15 42.0792 2.05 42.2792 0.65L42.3792 0.05L44.6792-14.75L44.7792-15.55C44.9792-16.95 46.2792-18.05 47.6792-18.05L49.4792-18.05C61.3792-18.05 70.6792-22.85 73.4792-36.85C74.5792-42.65 73.9792-47.55 70.9792-51.05Z"/>
   <path class="multicolor-1:systemBlueColor hierarchical-1:primary SFSymbolsPreview007AFF" d="M67.7792-53.65C68.6792-59.55 67.7792-63.55 64.5792-67.25C61.0792-71.25 54.6792-72.95 46.5792-72.95L22.8792-72.95C21.1792-72.95 19.7792-71.75 19.5792-70.05L9.67922-7.65C9.47922-6.45 10.4792-5.35 11.6792-5.35L26.2792-5.35L29.9792-28.55L29.8792-27.85C30.1792-29.45 31.5792-30.75 33.1792-30.75L40.0792-30.75C53.6792-30.75 64.3792-36.25 67.4792-52.25L67.7792-53.65Z"/>
  </g>
  <g id="Ultralight-S" transform="matrix(1 0 0 1 519.492 696)">
   <path class="multicolor-0:systemCyanColor hierarchical-0:secondary SFSymbolsPreview55BEF0" d="M70.5276-51.05C69.7276-52.05 68.5276-52.95 67.2276-53.65C66.4276-54.05 65.6276-54.45 64.6276-54.75C64.4276-54.75 64.2276-54.85 63.9276-54.95C63.4276-55.05 62.9276-55.25 62.4276-55.35C61.9276-55.45 61.4276-55.55 60.8276-55.65C58.9276-55.95 56.9276-56.05 54.7276-56.05L36.3276-56.05C35.8276-56.05 35.4276-55.95 35.0276-55.75C34.1276-55.35 33.5276-54.55 33.4276-53.55L29.5276-28.55L29.4276-27.85L25.8276-5.35L24.8276 1.05C24.6276 2.15 25.5276 3.15 26.6276 3.15L38.9276 3.15C40.4276 3.15 41.6276 2.05 41.8276 0.65L41.9276 0.05L44.2276-14.75L44.3276-15.55C44.5276-16.95 45.8276-18.05 47.2276-18.05L49.0276-18.05C60.9276-18.05 70.2276-22.85 73.0276-36.85C74.1276-42.65 73.5276-47.55 70.5276-51.05Z"/>
   <path class="multicolor-1:systemBlueColor hierarchical-1:primary SFSymbolsPreview007AFF" d="M67.3276-53.65C68.2276-59.55 67.3276-63.55 64.1276-67.25C60.6276-71.25 54.2276-72.95 46.1276-72.95L22.4276-72.95C20.7276-72.95 19.3276-71.75 19.1276-70.05L9.22761-7.65C9.02761-6.45 10.0276-5.35 11.2276-5.35L25.8276-5.35L29.5276-28.55L29.4276-27.85C29.7276-29.45 31.1276-30.75 32.7276-30.75L39.6276-30.75C53.2276-30.75 63.9276-36.25 67.0276-52.25L67.3276-53.65Z"/>
  </g>
 </g>
</svg>
