<?xml version="1.0" encoding="UTF-8"?>
<!--Generator: Apple Native CoreSVG 149-->
<!DOCTYPE svg
PUBLIC "-//W3C//DTD SVG 1.1//EN"
       "http://www.w3.org/Graphics/SVG/1.1/DTD/svg11.dtd">
<svg version="1.1" xmlns="http://www.w3.org/2000/svg" xmlns:xlink="http://www.w3.org/1999/xlink" width="3300" height="2200">
 <!--glyph: "", point size: 100.0, font version: "17.0d9e1", template writer version: "59"-->
 <style>.hierarchical-0:primary {fill:#212121}
.hierarchical-1:secondary {fill:#4D4D4D}

.clearBehindLayer {}
.SFSymbolsPreview212121 {fill:#212121;opacity:1.0}
.SFSymbolsPreview4D4D4D {fill:#4D4D4D;opacity:1.0}
</style>
 <g id="Notes">
  <rect height="2200" id="artboard" style="fill:white;opacity:1" width="3300" x="0" y="0"/>
  <line style="fill:none;stroke:black;opacity:1;stroke-width:0.5;" x1="263" x2="3036" y1="292" y2="292"/>
  <text style="stroke:none;fill:black;font-family:sans-serif;font-size:13;font-weight:bold;" transform="matrix(1 0 0 1 263 322)">Weight/Scale Variations</text>
  <text style="stroke:none;fill:black;font-family:sans-serif;font-size:13;text-anchor:middle;" transform="matrix(1 0 0 1 559.711 322)">Ultralight</text>
  <text style="stroke:none;fill:black;font-family:sans-serif;font-size:13;text-anchor:middle;" transform="matrix(1 0 0 1 856.422 322)">Thin</text>
  <text style="stroke:none;fill:black;font-family:sans-serif;font-size:13;text-anchor:middle;" transform="matrix(1 0 0 1 1153.13 322)">Light</text>
  <text style="stroke:none;fill:black;font-family:sans-serif;font-size:13;text-anchor:middle;" transform="matrix(1 0 0 1 1449.84 322)">Regular</text>
  <text style="stroke:none;fill:black;font-family:sans-serif;font-size:13;text-anchor:middle;" transform="matrix(1 0 0 1 1746.56 322)">Medium</text>
  <text style="stroke:none;fill:black;font-family:sans-serif;font-size:13;text-anchor:middle;" transform="matrix(1 0 0 1 2043.27 322)">Semibold</text>
  <text style="stroke:none;fill:black;font-family:sans-serif;font-size:13;text-anchor:middle;" transform="matrix(1 0 0 1 2339.98 322)">Bold</text>
  <text style="stroke:none;fill:black;font-family:sans-serif;font-size:13;text-anchor:middle;" transform="matrix(1 0 0 1 2636.69 322)">Heavy</text>
  <text style="stroke:none;fill:black;font-family:sans-serif;font-size:13;text-anchor:middle;" transform="matrix(1 0 0 1 2933.4 322)">Black</text>
  <line style="fill:none;stroke:black;opacity:1;stroke-width:0.5;" x1="263" x2="3036" y1="1903" y2="1903"/>
  <g transform="matrix(1 0 0 1 263 1933)">
   <path d="M9.24805 0.830078Q10.8691 0.830078 12.2949 0.214844Q13.7207-0.400391 14.8096-1.49414Q15.8984-2.58789 16.5186-4.01367Q17.1387-5.43945 17.1387-7.05078Q17.1387-8.66211 16.5186-10.0879Q15.8984-11.5137 14.8047-12.6074Q13.7109-13.7012 12.2852-14.3164Q10.8594-14.9316 9.23828-14.9316Q7.62695-14.9316 6.20117-14.3164Q4.77539-13.7012 3.69141-12.6074Q2.60742-11.5137 1.9873-10.0879Q1.36719-8.66211 1.36719-7.05078Q1.36719-5.43945 1.9873-4.01367Q2.60742-2.58789 3.69629-1.49414Q4.78516-0.400391 6.21094 0.214844Q7.63672 0.830078 9.24805 0.830078ZM9.24805-0.654297Q7.91992-0.654297 6.7627-1.14746Q5.60547-1.64062 4.73145-2.51953Q3.85742-3.39844 3.36426-4.56055Q2.87109-5.72266 2.87109-7.05078Q2.87109-8.37891 3.35938-9.54102Q3.84766-10.7031 4.72168-11.582Q5.5957-12.4609 6.75293-12.9541Q7.91016-13.4473 9.23828-13.4473Q10.5762-13.4473 11.7334-12.9541Q12.8906-12.4609 13.7695-11.582Q14.6484-10.7031 15.1465-9.54102Q15.6445-8.37891 15.6445-7.05078Q15.6445-5.72266 15.1514-4.56055Q14.6582-3.39844 13.7842-2.51953Q12.9102-1.64062 11.748-1.14746Q10.5859-0.654297 9.24805-0.654297ZM5.83984-7.04102Q5.83984-6.71875 6.04492-6.51855Q6.25-6.31836 6.5918-6.31836L8.50586-6.31836L8.50586-4.39453Q8.50586-4.0625 8.70605-3.85742Q8.90625-3.65234 9.22852-3.65234Q9.56055-3.65234 9.76562-3.85742Q9.9707-4.0625 9.9707-4.39453L9.9707-6.31836L11.8945-6.31836Q12.2266-6.31836 12.4316-6.51855Q12.6367-6.71875 12.6367-7.04102Q12.6367-7.37305 12.4316-7.57812Q12.2266-7.7832 11.8945-7.7832L9.9707-7.7832L9.9707-9.69727Q9.9707-10.0391 9.76562-10.2441Q9.56055-10.4492 9.22852-10.4492Q8.90625-10.4492 8.70605-10.2441Q8.50586-10.0391 8.50586-9.69727L8.50586-7.7832L6.5918-7.7832Q6.25-7.7832 6.04492-7.57812Q5.83984-7.37305 5.83984-7.04102Z"/>
  </g>
  <g transform="matrix(1 0 0 1 281.867 1933)">
   <path d="M11.709 2.91016Q13.75 2.91016 15.5518 2.12891Q17.3535 1.34766 18.7305-0.0292969Q20.1074-1.40625 20.8887-3.20801Q21.6699-5.00977 21.6699-7.05078Q21.6699-9.0918 20.8887-10.8936Q20.1074-12.6953 18.7305-14.0723Q17.3535-15.4492 15.5469-16.2305Q13.7402-17.0117 11.6992-17.0117Q9.6582-17.0117 7.85645-16.2305Q6.05469-15.4492 4.68262-14.0723Q3.31055-12.6953 2.5293-10.8936Q1.74805-9.0918 1.74805-7.05078Q1.74805-5.00977 2.5293-3.20801Q3.31055-1.40625 4.6875-0.0292969Q6.06445 1.34766 7.86621 2.12891Q9.66797 2.91016 11.709 2.91016ZM11.709 1.25Q9.98047 1.25 8.47656 0.605469Q6.97266-0.0390625 5.83496-1.17676Q4.69727-2.31445 4.05762-3.81836Q3.41797-5.32227 3.41797-7.05078Q3.41797-8.7793 4.05762-10.2832Q4.69727-11.7871 5.83008-12.9297Q6.96289-14.0723 8.4668-14.7119Q9.9707-15.3516 11.6992-15.3516Q13.4277-15.3516 14.9316-14.7119Q16.4355-14.0723 17.5781-12.9297Q18.7207-11.7871 19.3652-10.2832Q20.0098-8.7793 20.0098-7.05078Q20.0098-5.32227 19.3701-3.81836Q18.7305-2.31445 17.5928-1.17676Q16.4551-0.0390625 14.9463 0.605469Q13.4375 1.25 11.709 1.25ZM7.39258-7.04102Q7.39258-6.68945 7.62695-6.46484Q7.86133-6.24023 8.23242-6.24023L10.8789-6.24023L10.8789-3.57422Q10.8789-3.21289 11.1035-2.9834Q11.3281-2.75391 11.6797-2.75391Q12.0508-2.75391 12.2852-2.9834Q12.5195-3.21289 12.5195-3.57422L12.5195-6.24023L15.1758-6.24023Q15.5371-6.24023 15.7715-6.46484Q16.0059-6.68945 16.0059-7.04102Q16.0059-7.41211 15.7715-7.6416Q15.5371-7.87109 15.1758-7.87109L12.5195-7.87109L12.5195-10.5176Q12.5195-10.8984 12.2852-11.1279Q12.0508-11.3574 11.6797-11.3574Q11.3281-11.3574 11.1035-11.1279Q10.8789-10.8984 10.8789-10.5176L10.8789-7.87109L8.23242-7.87109Q7.85156-7.87109 7.62207-7.6416Q7.39258-7.41211 7.39258-7.04102Z"/>
  </g>
  <g transform="matrix(1 0 0 1 305.646 1933)">
   <path d="M14.9707 5.66406Q17.0605 5.66406 18.96 5.01465Q20.8594 4.36523 22.4512 3.19336Q24.043 2.02148 25.2197 0.429688Q26.3965-1.16211 27.0459-3.06641Q27.6953-4.9707 27.6953-7.05078Q27.6953-9.14062 27.0459-11.04Q26.3965-12.9395 25.2197-14.5312Q24.043-16.123 22.4512-17.2998Q20.8594-18.4766 18.9551-19.126Q17.0508-19.7754 14.9609-19.7754Q12.8711-19.7754 10.9717-19.126Q9.07227-18.4766 7.48535-17.2998Q5.89844-16.123 4.72168-14.5312Q3.54492-12.9395 2.90039-11.04Q2.25586-9.14062 2.25586-7.05078Q2.25586-4.9707 2.90527-3.06641Q3.55469-1.16211 4.72656 0.429688Q5.89844 2.02148 7.49023 3.19336Q9.08203 4.36523 10.9814 5.01465Q12.8809 5.66406 14.9707 5.66406ZM14.9707 3.84766Q13.1641 3.84766 11.5283 3.2959Q9.89258 2.74414 8.53516 1.74805Q7.17773 0.751953 6.17676-0.610352Q5.17578-1.97266 4.62891-3.6084Q4.08203-5.24414 4.08203-7.05078Q4.08203-8.86719 4.62891-10.5029Q5.17578-12.1387 6.17188-13.501Q7.16797-14.8633 8.52539-15.8594Q9.88281-16.8555 11.5186-17.4023Q13.1543-17.9492 14.9609-17.9492Q16.7773-17.9492 18.4131-17.4023Q20.0488-16.8555 21.4111-15.8594Q22.7734-14.8633 23.7695-13.501Q24.7656-12.1387 25.3174-10.5029Q25.8691-8.86719 25.8691-7.05078Q25.8789-5.24414 25.332-3.6084Q24.7852-1.97266 23.7842-0.610352Q22.7832 0.751953 21.4209 1.74805Q20.0586 2.74414 18.4229 3.2959Q16.7871 3.84766 14.9707 3.84766ZM9.45312-7.04102Q9.45312-6.66016 9.71191-6.41113Q9.9707-6.16211 10.3711-6.16211L14.0625-6.16211L14.0625-2.46094Q14.0625-2.06055 14.3115-1.80664Q14.5605-1.55273 14.9414-1.55273Q15.3516-1.55273 15.6055-1.80664Q15.8594-2.06055 15.8594-2.46094L15.8594-6.16211L19.5605-6.16211Q19.9609-6.16211 20.2148-6.41113Q20.4688-6.66016 20.4688-7.04102Q20.4688-7.45117 20.2148-7.70508Q19.9609-7.95898 19.5605-7.95898L15.8594-7.95898L15.8594-11.6504Q15.8594-12.0605 15.6055-12.3145Q15.3516-12.5684 14.9414-12.5684Q14.5605-12.5684 14.3115-12.3096Q14.0625-12.0508 14.0625-11.6504L14.0625-7.95898L10.3711-7.95898Q9.96094-7.95898 9.70703-7.70508Q9.45312-7.45117 9.45312-7.04102Z"/>
  </g>
  <text style="stroke:none;fill:black;font-family:sans-serif;font-size:13;font-weight:bold;" transform="matrix(1 0 0 1 263 1953)">Design Variations</text>
  <text style="stroke:none;fill:black;font-family:sans-serif;font-size:13;" transform="matrix(1 0 0 1 263 1971)">Symbols are supported in up to nine weights and three scales.</text>
  <text style="stroke:none;fill:black;font-family:sans-serif;font-size:13;" transform="matrix(1 0 0 1 263 1989)">For optimal layout with text and other symbols, vertically align</text>
  <text style="stroke:none;fill:black;font-family:sans-serif;font-size:13;" transform="matrix(1 0 0 1 263 2007)">symbols with the adjacent text.</text>
  <line style="fill:none;stroke:#00AEEF;stroke-width:0.5;opacity:1.0;" x1="776" x2="776" y1="1919" y2="1933"/>
  <g transform="matrix(1 0 0 1 776 1933)">
   <path d="M3.31055 0.15625Q3.70117 0.15625 3.91602-0.00976562Q4.13086-0.175781 4.26758-0.585938L5.52734-4.0332L11.2891-4.0332L12.5488-0.585938Q12.6855-0.175781 12.9004-0.00976562Q13.1152 0.15625 13.4961 0.15625Q13.8867 0.15625 14.1162-0.0585938Q14.3457-0.273438 14.3457-0.644531Q14.3457-0.869141 14.2383-1.17188L9.6582-13.3691Q9.48242-13.8184 9.17969-14.043Q8.87695-14.2676 8.4082-14.2676Q7.5-14.2676 7.17773-13.3789L2.59766-1.16211Q2.49023-0.859375 2.49023-0.634766Q2.49023-0.263672 2.70996-0.0537109Q2.92969 0.15625 3.31055 0.15625ZM6.00586-5.51758L8.37891-12.0898L8.42773-12.0898L10.8008-5.51758Z"/>
  </g>
  <line style="fill:none;stroke:#00AEEF;stroke-width:0.5;opacity:1.0;" x1="793.197" x2="793.197" y1="1919" y2="1933"/>
  <text style="stroke:none;fill:black;font-family:sans-serif;font-size:13;font-weight:bold;" transform="matrix(1 0 0 1 776 1953)">Margins</text>
  <text style="stroke:none;fill:black;font-family:sans-serif;font-size:13;" transform="matrix(1 0 0 1 776 1971)">Leading and trailing margins on the left and right side of each symbol</text>
  <text style="stroke:none;fill:black;font-family:sans-serif;font-size:13;" transform="matrix(1 0 0 1 776 1989)">can be adjusted by modifying the x-location of the margin guidelines.</text>
  <text style="stroke:none;fill:black;font-family:sans-serif;font-size:13;" transform="matrix(1 0 0 1 776 2007)">Modifications are automatically applied proportionally to all</text>
  <text style="stroke:none;fill:black;font-family:sans-serif;font-size:13;" transform="matrix(1 0 0 1 776 2025)">scales and weights.</text>
  <g transform="matrix(1 0 0 1 1289 1933)">
   <path d="M2.8418 1.86523L4.54102 3.57422Q5.18555 4.22852 5.90332 4.17969Q6.62109 4.13086 7.31445 3.35938L18.0078-8.42773L17.041-9.4043L6.42578 2.27539Q6.16211 2.57812 5.89355 2.61719Q5.625 2.65625 5.27344 2.30469L4.10156 1.14258Q3.75 0.791016 3.79395 0.522461Q3.83789 0.253906 4.14062-0.0195312L15.6152-10.8203L14.6387-11.7871L3.04688-0.898438Q2.30469-0.214844 2.25098 0.498047Q2.19727 1.21094 2.8418 1.86523ZM9.25781-16.3281Q8.94531-16.0254 8.90625-15.6348Q8.86719-15.2441 9.04297-14.9512Q9.21875-14.6777 9.55566-14.541Q9.89258-14.4043 10.3809-14.5215Q11.4746-14.7754 12.5977-14.7314Q13.7207-14.6875 14.7949-13.9844L14.209-12.5293Q13.9551-11.9043 14.0674-11.4404Q14.1797-10.9766 14.5801-10.5664L16.875-8.25195Q17.2363-7.88086 17.5781-7.82227Q17.9199-7.76367 18.3398-7.8418L19.4043-8.03711L20.0684-7.36328L20.0293-6.80664Q20-6.43555 20.1221-6.12305Q20.2441-5.81055 20.6055-5.44922L21.3672-4.70703Q21.7285-4.3457 22.1533-4.33105Q22.5781-4.31641 22.9297-4.66797L25.8398-7.58789Q26.1914-7.93945 26.1816-8.35449Q26.1719-8.76953 25.8105-9.13086L25.0391-9.89258Q24.6875-10.2539 24.3799-10.3857Q24.0723-10.5176 23.7109-10.4883L23.1348-10.4395L22.4902-11.0742L22.7344-12.1973Q22.832-12.6172 22.6953-12.9834Q22.5586-13.3496 22.1191-13.7891L19.9219-15.9766Q18.6719-17.2168 17.2607-17.8369Q15.8496-18.457 14.4189-18.4814Q12.9883-18.5059 11.665-17.959Q10.3418-17.4121 9.25781-16.3281ZM10.752-15.957Q11.6602-16.6211 12.7002-16.9043Q13.7402-17.1875 14.8047-17.085Q15.8691-16.9824 16.8701-16.5137Q17.8711-16.0449 18.7012-15.2051L21.1328-12.793Q21.3086-12.6172 21.3525-12.4512Q21.3965-12.2852 21.3379-12.0312L21.0156-10.5469L22.5195-9.0625L23.5059-9.12109Q23.6914-9.13086 23.7891-9.09668Q23.8867-9.0625 24.0332-8.91602L24.6094-8.33984L22.168-5.89844L21.5918-6.47461Q21.4453-6.62109 21.4062-6.71875Q21.3672-6.81641 21.377-7.01172L21.4453-7.98828L19.9512-9.47266L18.4277-9.21875Q18.1836-9.16992 18.042-9.2041Q17.9004-9.23828 17.7148-9.41406L15.7129-11.416Q15.5176-11.5918 15.4932-11.7529Q15.4688-11.9141 15.5859-12.1875L16.4648-14.2773Q15.293-15.3711 13.8281-15.791Q12.3633-16.2109 10.8398-15.7617Q10.7227-15.7324 10.6885-15.8057Q10.6543-15.8789 10.752-15.957Z"/>
  </g>
  <text style="stroke:none;fill:black;font-family:sans-serif;font-size:13;font-weight:bold;" transform="matrix(1 0 0 1 1289 1953)">Exporting</text>
  <text style="stroke:none;fill:black;font-family:sans-serif;font-size:13;" transform="matrix(1 0 0 1 1289 1971)">Symbols should be outlined when exporting to ensure the</text>
  <text style="stroke:none;fill:black;font-family:sans-serif;font-size:13;" transform="matrix(1 0 0 1 1289 1989)">design is preserved when submitting to Xcode.</text>
  <text id="template-version" style="stroke:none;fill:black;font-family:sans-serif;font-size:13;text-anchor:end;" transform="matrix(1 0 0 1 3036 1933)">Template v.3.0</text>
  <text style="stroke:none;fill:black;font-family:sans-serif;font-size:13;text-anchor:end;" transform="matrix(1 0 0 1 3036 1951)">Requires Xcode 13 or greater</text>
  <text id="descriptive-name" style="stroke:none;fill:black;font-family:sans-serif;font-size:13;text-anchor:end;" transform="matrix(1 0 0 1 3036 1969)">Generated from logo.github.square</text>
  <text style="stroke:none;fill:black;font-family:sans-serif;font-size:13;text-anchor:end;" transform="matrix(1 0 0 1 3036 1987)">Typeset at 100 points</text>
  <text style="stroke:none;fill:black;font-family:sans-serif;font-size:13;" transform="matrix(1 0 0 1 263 726)">Small</text>
  <text style="stroke:none;fill:black;font-family:sans-serif;font-size:13;" transform="matrix(1 0 0 1 263 1156)">Medium</text>
  <text style="stroke:none;fill:black;font-family:sans-serif;font-size:13;" transform="matrix(1 0 0 1 263 1586)">Large</text>
 </g>
 <g id="Guides">
  <g id="H-reference" style="fill:#27AAE1;stroke:none;" transform="matrix(1 0 0 1 339 696)">
   <path d="M0.976562 0L3.66211 0L29.3457-67.1387L30.0293-67.1387L30.0293-70.459L28.125-70.459ZM11.6699-24.4629L46.9727-24.4629L46.2402-26.709L12.4512-26.709ZM55.127 0L57.7637 0L30.6152-70.459L29.4434-70.459L29.4434-67.1387Z"/>
  </g>
  <line id="Baseline-S" style="fill:none;stroke:#27AAE1;opacity:1;stroke-width:0.5;" x1="263" x2="3036" y1="696" y2="696"/>
  <line id="Capline-S" style="fill:none;stroke:#27AAE1;opacity:1;stroke-width:0.5;" x1="263" x2="3036" y1="625.541" y2="625.541"/>
  <g id="H-reference" style="fill:#27AAE1;stroke:none;" transform="matrix(1 0 0 1 339 1126)">
   <path d="M0.976562 0L3.66211 0L29.3457-67.1387L30.0293-67.1387L30.0293-70.459L28.125-70.459ZM11.6699-24.4629L46.9727-24.4629L46.2402-26.709L12.4512-26.709ZM55.127 0L57.7637 0L30.6152-70.459L29.4434-70.459L29.4434-67.1387Z"/>
  </g>
  <line id="Baseline-M" style="fill:none;stroke:#27AAE1;opacity:1;stroke-width:0.5;" x1="263" x2="3036" y1="1126" y2="1126"/>
  <line id="Capline-M" style="fill:none;stroke:#27AAE1;opacity:1;stroke-width:0.5;" x1="263" x2="3036" y1="1055.54" y2="1055.54"/>
  <g id="H-reference" style="fill:#27AAE1;stroke:none;" transform="matrix(1 0 0 1 339 1556)">
   <path d="M0.976562 0L3.66211 0L29.3457-67.1387L30.0293-67.1387L30.0293-70.459L28.125-70.459ZM11.6699-24.4629L46.9727-24.4629L46.2402-26.709L12.4512-26.709ZM55.127 0L57.7637 0L30.6152-70.459L29.4434-70.459L29.4434-67.1387Z"/>
  </g>
  <line id="Baseline-L" style="fill:none;stroke:#27AAE1;opacity:1;stroke-width:0.5;" x1="263" x2="3036" y1="1556" y2="1556"/>
  <line id="Capline-L" style="fill:none;stroke:#27AAE1;opacity:1;stroke-width:0.5;" x1="263" x2="3036" y1="1485.54" y2="1485.54"/>
  <line id="left-margin-Regular-M" style="fill:none;stroke:#00AEEF;stroke-width:0.5;opacity:1.0;" x1="1392.12" x2="1392.12" y1="1030.73" y2="1150.14"/>
  <line id="right-margin-Regular-M" style="fill:none;stroke:#00AEEF;stroke-width:0.5;opacity:1.0;" x1="1507.57" x2="1507.57" y1="1030.73" y2="1150.14"/>
 </g>
 <g id="Symbols">
  <g id="Black-L" transform="matrix(1 0 0 1 2855.3 1556)">
   <path class="hierarchical-0:primary SFSymbolsPreview212121" d="M104.318-68.6087C104.318-68.6087 100.23-69.9714 90.5716-63.5325C86.6482-64.5658 82.2758-65.2246 78.0231-65.2246C73.7703-65.2246 69.5176-64.5658 65.4746-63.5325C55.9809-69.9714 51.7282-68.6087 51.7282-68.6087C49.0028-61.6306 50.8596-56.5544 51.2341-55.3564C48.0146-51.8075 45.9931-47.3901 45.9931-41.9393C45.9931-22.7872 57.5534-18.3698 68.7392-17.1718C67.2118-15.9738 66.0138-13.6229 65.5197-10.4035C62.6296-9.2055 55.4868-7.01932 50.9498-14.6562C50.9498-14.6562 48.3891-19.5678 43.3128-19.8972C43.3128-19.8972 38.4013-19.8972 42.9834-16.8424C42.9834-16.8424 46.3676-15.315 48.5989-9.5349C48.5989-9.5349 51.4889 0.288201 65.4001-2.76657C65.5648 1.48618 65.5648 4.80524 65.5648 6.00323C65.5648 6.33263 64.7413 7.86001 64.5766 8.18941C68.4999 9.22269 73.5762 9.50701 77.6642 9.55209C82.0817 9.55209 87.4873 8.42554 91.4107 7.39226C91.246 7.06286 90.2127 5.34443 90.2127 5.01503C90.2127 3.48764 90.2127-1.31372 90.2127-7.96243C90.2127-12.7093 88.6853-15.764 86.8285-17.2914C98.0143-18.6541 109.575-22.7422 109.575-42.059C109.575-47.5097 107.553-52.0468 104.334-55.476C105.187-56.5544 107.043-61.7953 104.318-68.6087Z"/>
   <path class="hierarchical-1:secondary clearBehindLayer SFSymbolsPreview4D4D4D" d="M40.2642 26.815L115.903 26.815C123.515 26.815 129.322 24.8118 133.488 20.6459C137.654 16.4801 139.655 10.7149 139.655 3.14864L139.655-72.6604C139.655-80.2267 137.654-86.0343 133.488-90.1577C129.322-94.3236 123.515-96.3268 115.903-96.3268L40.2642-96.3268C32.6952-96.3268 26.8876-94.3262 22.7218-90.1604C18.5559-85.9945 16.5553-80.2294 16.5553-72.6631L16.5553 3.146C16.5553 10.7149 18.5559 16.5225 22.7218 20.6459C26.8876 24.8144 32.6952 26.815 40.2642 26.815ZM42.9408 6.87725C40.7925 6.87725 39.231 6.28772 38.0546 5.27335C36.8781 4.25897 36.4507 2.53545 36.4507 0.225024L36.4507-69.8989C36.4507-72.1669 37.0402-73.8904 38.0546-74.9472C39.231-75.9616 40.7925-76.4315 42.9408-76.4315L113.107-76.4315C115.253-76.4315 116.934-75.9616 117.993-74.9472C119.053-73.9328 119.6-72.2093 119.6-69.8989L119.6 0.225024C119.6 2.53545 119.01 4.21653 117.993 5.27335C116.934 6.28772 115.256 6.87725 113.107 6.87725L42.9408 6.87725Z"/>
  </g>
  <g id="Heavy-L" transform="matrix(1 0 0 1 2559.5 1556)">
   <path class="hierarchical-0:primary SFSymbolsPreview212121" d="M103.735-68.966C103.735-68.966 99.5624-70.3569 89.7347-63.8051C85.7266-64.8666 81.2978-65.5254 76.9604-65.5254C72.6229-65.5254 68.2855-64.8666 64.1861-63.8051C54.523-70.3569 50.1855-68.966 50.1855-68.966C47.4037-61.8467 49.2887-56.6858 49.6914-55.4596C46.4155-51.8543 44.3658-47.3521 44.3658-41.7885C44.3658-22.2976 56.1519-17.7955 67.5353-16.5693C65.9797-15.3431 64.7535-12.9639 64.2594-9.68802C61.3128-8.4618 54.0289-6.24739 49.4354-14.0255C49.4354-14.0255 46.8182-19.0217 41.6573-19.3511C41.6573-19.3511 36.6611-19.3511 41.3279-16.2399C41.3279-16.2399 44.7685-14.6843 47.0562-8.7912C47.0562-8.7912 50.0028 1.20127 64.168-1.90995C64.3327 2.42749 64.3327 6.33628 64.3327 7.56249C64.3327 7.89189 63.5092 9.4475 63.3445 9.7769C67.3525 10.8384 72.5135 11.0945 76.6862 11.1678C81.1883 11.1678 86.6787 10.1385 90.6867 9.07701C90.522 8.74761 89.4605 6.90369 89.4605 6.57429C89.4605 5.01868 89.4605-0.372415 89.4605-7.16228C89.4605-11.9938 87.9049-15.105 86.0199-16.6607C97.4033-18.0516 109.189-22.2243 109.189-41.8799C109.189-47.4435 107.14-52.037 103.864-55.551C104.632-56.6858 106.517-62.0114 103.735-68.966Z"/>
   <path class="hierarchical-1:secondary clearBehindLayer SFSymbolsPreview4D4D4D" d="M39.2375 25.9148L115.087 25.9148C122.441 25.9148 128.021 24.006 131.979 20.0484C135.936 16.0908 137.833 10.5719 137.833 3.29073L137.833-72.8025C137.833-80.0837 135.936-85.6636 131.979-89.5602C128.021-93.5178 122.441-95.4266 115.087-95.4266L39.2375-95.4266C31.944-95.4266 26.3641-93.5301 22.4065-89.5725C18.449-85.615 16.5525-80.0961 16.5525-72.8149L16.5525 3.27837C16.5525 10.5719 18.449 16.1518 22.4065 20.0484C26.3641 24.0183 31.944 25.9148 39.2375 25.9148ZM41.3213 8.42964C38.8976 8.42964 37.1269 7.76419 35.8083 6.598C34.4898 5.4318 33.9767 3.50877 33.9767 0.93266L33.9767-70.5968C33.9767-73.112 34.6421-75.035 35.8083-76.2621C37.1269-77.4283 38.8976-78.0024 41.3213-78.0024L112.912-78.0024C115.323-78.0024 117.185-77.4283 118.425-76.2621C119.664-75.0959 120.269-73.1729 120.269-70.5968L120.269 0.93266C120.269 3.50877 119.603 5.37085 118.425 6.598C117.185 7.76419 115.336 8.42964 112.912 8.42964L41.3213 8.42964Z"/>
  </g>
  <g id="Bold-L" transform="matrix(1 0 0 1 2263.93 1556)">
   <path class="hierarchical-0:primary SFSymbolsPreview212121" d="M102.968-69.3598C102.968-69.3598 98.7003-70.7822 88.6831-64.1041C84.5803-65.1972 80.0883-65.856 75.6561-65.856C71.224-65.856 66.7918-65.1972 62.6292-64.1041C52.7767-70.7822 48.3445-69.3598 48.3445-69.3598C45.4995-62.0826 47.4161-56.8269 47.8504-55.5691C44.5113-51.9006 42.43-47.3038 42.43-41.6138C42.43-21.744 54.4687-17.1471 66.0732-15.8893C64.486-14.6315 63.2282-12.2209 62.7341-8.88177C59.7244-7.62398 52.2826-5.37799 47.6259-13.3139C47.6259-13.3139 44.9456-18.4049 39.6899-18.7343C39.6899-18.7343 34.5989-18.7343 39.3605-15.5599C39.3605-15.5599 42.8643-13.9727 45.2152-7.95338C45.2152-7.95338 48.2249 2.22857 62.6743-0.945815C62.839 3.48636 62.839 8.17274 62.839 9.43054C62.839 9.75994 62.0155 11.3471 61.8508 11.6765C65.9536 12.7696 71.2092 12.9941 75.4767 13.099C80.0736 13.099 85.6587 12.2375 89.7614 11.1444C89.5967 10.815 88.5036 8.77174 88.5036 8.44234C88.5036 6.85514 88.5036 0.68646 88.5036-6.2613C88.5036-11.1876 86.9165-14.362 84.9999-15.9491C96.6043-17.3716 108.643-21.6391 108.643-41.6736C108.643-47.3636 106.562-52.0203 103.223-55.6289C103.896-56.8269 105.813-62.2473 102.968-69.3598Z"/>
   <path class="hierarchical-1:secondary clearBehindLayer SFSymbolsPreview4D4D4D" d="M37.9441 24.7898L114.088 24.7898C121.102 24.7898 126.391 22.9925 130.092 19.2915C133.793 15.5905 135.562 10.3765 135.562 3.46737L135.562-72.9792C135.562-79.8883 133.793-85.1781 130.092-88.8033C126.391-92.5043 121.102-94.3016 114.088-94.3016L37.9441-94.3016C31.0059-94.3016 25.7161-92.5335 22.0151-88.8324C18.3141-85.1314 16.5459-79.9174 16.5459-73.0083L16.5459 3.43824C16.5459 10.3765 18.3141 15.6663 22.0151 19.2915C25.7161 23.0217 31.0059 24.7898 37.9441 24.7898ZM39.3648 10.3371C36.5858 10.3371 34.5398 9.57499 33.0446 8.21538C31.5494 6.85577 30.9229 4.67421 30.9229 1.75962L30.9229-71.407C30.9229-74.2458 31.685-76.4274 33.0446-77.8627C34.5398-79.2224 36.5858-79.9247 39.3648-79.9247L112.607-79.9247C115.357-79.9247 117.463-79.2224 118.927-77.8627C120.392-76.5031 121.078-74.3216 121.078-71.407L121.078 1.75962C121.078 4.67421 120.316 6.78002 118.927 8.21538C117.463 9.57499 115.386 10.3371 112.607 10.3371L39.3648 10.3371Z"/>
  </g>
  <g id="Semibold-L" transform="matrix(1 0 0 1 1968.01 1556)">
   <path class="hierarchical-0:primary SFSymbolsPreview212121" d="M102.439-69.6312C102.439-69.6312 98.106-71.0755 87.9581-64.3102C83.79-65.4251 79.2545-66.0839 74.757-66.0839C70.2595-66.0839 65.762-65.4251 61.5559-64.3102C51.5727-71.0755 47.0753-69.6312 47.0753-69.6312C44.1867-62.2452 46.1251-56.9242 46.5812-55.6446C43.1985-51.9326 41.0955-47.2704 41.0955-41.4934C41.0955-21.3623 53.3084-16.7002 65.0652-15.4206C63.4562-14.141 62.1767-11.7086 61.6826-8.32595C58.6294-7.04639 51.0786-4.77863 46.3784-12.8234C46.3784-12.8234 43.6546-17.9797 38.3336-18.3091C38.3336-18.3091 33.1773-18.3091 38.0042-15.0912C38.0042-15.0912 41.5515-13.4822 43.946-7.37579C43.946-7.37579 46.9992 2.93678 61.6445-0.281144C61.8092 4.21634 61.8092 9.43879 61.8092 10.7184C61.8092 11.0478 60.9857 12.6567 60.821 12.9861C64.9891 14.101 70.3101 14.3037 74.6429 14.4304C79.3051 14.4304 84.9555 13.6845 89.1236 12.5696C88.9589 12.2402 87.844 10.0596 87.844 9.73015C87.844 8.12119 87.844 1.41644 87.844-5.64017C87.844-10.6318 86.235-13.8497 84.2967-15.4586C96.0535-16.9029 108.266-21.2357 108.266-41.5314C108.266-47.3085 106.163-52.0087 102.781-55.6827C103.389-56.9242 105.327-62.4099 102.439-69.6312Z"/>
   <path class="hierarchical-1:secondary clearBehindLayer SFSymbolsPreview4D4D4D" d="M37.0525 24.0143L113.399 24.0143C120.178 24.0143 125.268 22.2939 128.792 18.7697C132.316 15.2456 133.996 10.2418 133.996 3.58915L133.996-73.1009C133.996-79.7536 132.316-84.8434 128.792-88.2815C125.268-91.8057 120.178-93.5261 113.399-93.5261L37.0525-93.5261C30.3591-93.5261 25.2694-91.8464 21.7453-88.3222C18.2211-84.7981 16.5414-79.7943 16.5414-73.1416L16.5414 3.54845C16.5414 10.2418 18.2211 15.3316 21.7453 18.7697C25.2694 22.3346 30.3591 24.0143 37.0525 24.0143ZM38.016 11.6522C34.9921 11.6522 32.7563 10.8233 31.1393 9.33039C29.5224 7.83745 28.8176 5.47765 28.8176 2.32972L28.8176-71.9655C28.8176-75.0275 29.6464-77.3873 31.1393-78.9662C32.7563-80.4591 34.9921-81.2499 38.016-81.2499L112.397-81.2499C115.38-81.2499 117.654-80.4591 119.274-78.9662C120.893-77.4733 121.636-75.1134 121.636-71.9655L121.636 2.32972C121.636 5.47765 120.808 7.75149 119.274 9.33039C117.654 10.8233 115.421 11.6522 112.397 11.6522L38.016 11.6522Z"/>
  </g>
  <g id="Medium-L" transform="matrix(1 0 0 1 1671.89 1556)">
   <path class="hierarchical-0:primary SFSymbolsPreview212121" d="M102.038-69.837C102.038-69.837 97.6553-71.2978 87.4084-64.4665C83.1908-65.5979 78.6223-66.2567 74.0753-66.2567C69.5282-66.2567 64.9812-65.5979 60.7421-64.4665C50.6599-71.2978 46.1129-69.837 46.1129-69.837C43.1913-62.3685 45.1462-56.998 45.6188-55.7019C42.2031-51.9569 40.0836-47.2452 40.0836-41.4021C40.0836-21.073 52.4285-16.3613 64.3009-15.0652C62.6754-13.7691 61.3794-11.3201 60.8853-7.90451C57.799-6.60844 50.1658-4.32417 45.4325-12.4515C45.4325-12.4515 42.6757-17.6573 37.3052-17.9867C37.3052-17.9867 32.0994-17.9867 36.9758-14.7358C36.9758-14.7358 40.5561-13.1103 42.9836-6.93784C42.9836-6.93784 46.0698 3.47378 60.8637 0.222838C61.0284 4.76984 61.0284 10.3988 61.0284 11.6948C61.0284 12.0242 60.2049 13.6497 60.0402 13.9791C64.2578 15.1105 69.6284 15.2967 74.0107 15.4399C78.7224 15.4399 84.4223 14.7816 88.6399 13.6503C88.4752 13.3209 87.3438 11.036 87.3438 10.7066C87.3438 9.08116 87.3438 1.96994 87.3438-5.1692C87.3438-10.2103 85.7183-13.4612 83.7635-15.0867C95.6359-16.5475 107.981-20.9298 107.981-41.4236C107.981-47.2667 105.861-51.9999 102.446-55.7234C103.004-56.998 104.959-62.5332 102.038-69.837Z"/>
   <path class="hierarchical-1:secondary clearBehindLayer SFSymbolsPreview4D4D4D" d="M36.3764 23.4262L112.876 23.4262C119.478 23.4262 124.416 21.7641 127.806 18.3741C131.196 14.9841 132.809 10.1397 132.809 3.68148L132.809-73.1933C132.809-79.6515 131.196-84.5896 127.806-87.8859C124.416-91.2759 119.478-92.938 112.876-92.938L36.3764-92.938C29.8687-92.938 24.9307-91.3254 21.5406-87.9354C18.1506-84.5453 16.538-79.701 16.538-73.2427L16.538 3.63201C16.538 10.1397 18.1506 15.0778 21.5406 18.3741C24.9307 21.8136 29.8687 23.4262 36.3764 23.4262ZM36.9933 12.6493C33.7836 12.6493 31.4039 11.7699 29.6947 10.1758C27.9854 8.5818 27.2212 6.08685 27.2212 2.76199L27.2212-72.389C27.2212-75.6202 28.1006-78.1151 29.6947-79.8029C31.4039-81.3969 33.7836-82.2548 36.9933-82.2548L112.238-82.2548C115.398-82.2548 117.799-81.3969 119.537-79.8029C121.274-78.2088 122.059-75.7139 122.059-72.389L122.059 2.76199C122.059 6.08685 121.18 8.4881 119.537 10.1758C117.799 11.7699 115.448 12.6493 112.238 12.6493L36.9933 12.6493Z"/>
  </g>
  <g id="Regular-L" transform="matrix(1 0 0 1 1375.96 1556)">
   <path class="hierarchical-0:primary SFSymbolsPreview212121" d="M101.514-70.1055C101.514-70.1055 97.0675-71.5878 86.6914-64.6704C82.4092-65.8233 77.7976-66.4821 73.186-66.4821C68.5744-66.4821 63.9628-65.8233 59.6806-64.6704C49.4692-71.5878 44.8576-70.1055 44.8576-70.1055C41.893-62.5293 43.8694-57.0942 44.3635-55.7766C40.9048-51.9885 38.7637-47.2122 38.7637-41.283C38.7637-20.6955 51.2809-15.9192 63.304-14.6016C61.657-13.284 60.3394-10.8135 59.8453-7.3548C56.716-6.0372 48.9751-3.7314 44.1988-11.9664C44.1988-11.9664 41.3989-17.2368 35.9638-17.5662C35.9638-17.5662 30.6934-17.5662 35.6344-14.2722C35.6344-14.2722 39.2578-12.6252 41.7283-6.3666C41.7283-6.3666 44.8576 4.1742 59.8453 0.880205C60.01 5.4918 60.01 11.6509 60.01 12.9685C60.01 13.2979 59.1865 14.9449 59.0218 15.2743C63.304 16.4272 68.7391 16.5919 73.186 16.7566C77.9623 16.7566 83.7268 16.2127 88.009 15.0598C87.8443 14.7304 86.6914 12.3097 86.6914 11.9803C86.6914 10.3333 86.6914 2.6919 86.6914-4.5549C86.6914-9.6606 85.0444-12.9546 83.068-14.6016C95.0911-16.0839 107.608-20.5308 107.608-41.283C107.608-47.2122 105.467-51.9885 102.009-55.7766C102.503-57.0942 104.479-62.694 101.514-70.1055Z"/>
   <path class="hierarchical-1:secondary clearBehindLayer SFSymbolsPreview4D4D4D" d="M35.4946 22.6592L112.195 22.6592C118.564 22.6592 123.305 21.0731 126.52 17.858C129.735 14.6429 131.26 10.0065 131.26 3.80191L131.26-73.3137C131.26-79.5183 129.735-84.2585 126.52-87.3698C123.305-90.5849 118.564-92.171 112.195-92.171L35.4946-92.171C29.2291-92.171 24.4888-90.6458 21.2738-87.4307C18.0587-84.2157 16.5335-79.5792 16.5335-73.3746L16.5335 3.74101C16.5335 10.0065 18.0587 14.7467 21.2738 17.858C24.4888 21.134 29.2291 22.6592 35.4946 22.6592ZM35.6593 13.9498C32.2074 13.9498 29.64 13.0045 27.8103 11.2786C25.9806 9.55269 25.1391 6.88146 25.1391 3.32583L25.1391-72.9414C25.1391-76.3933 26.0844-79.0645 27.8103-80.8942C29.64-82.6201 32.2074-83.5654 35.6593-83.5654L112.03-83.5654C115.421-83.5654 117.989-82.6201 119.879-80.8942C121.77-79.1683 122.611-76.4971 122.611-72.9414L122.611 3.32583C122.611 6.88146 121.666 9.44889 119.879 11.2786C117.989 13.0045 115.482 13.9498 112.03 13.9498L35.6593 13.9498Z"/>
  </g>
  <g id="Light-L" transform="matrix(1 0 0 1 1080.09 1556)">
   <path class="hierarchical-0:primary SFSymbolsPreview212121" d="M100.691-70.0635C100.691-70.0635 96.2446-71.5458 85.8685-64.6284C81.5863-65.7813 76.9747-66.4401 72.3631-66.4401C67.7515-66.4401 63.1399-65.7813 58.8577-64.6284C48.6463-71.5458 44.0347-70.0635 44.0347-70.0635C41.0701-62.4873 43.0465-57.0522 43.5406-55.7346C40.0819-51.9465 37.9408-47.1702 37.9408-41.241C37.9408-20.6535 50.458-15.8772 62.4811-14.5596C60.8341-13.242 59.5165-10.7715 59.0224-7.31277C55.8931-5.99517 48.1522-3.68937 43.3759-11.9244C43.3759-11.9244 40.576-17.1948 35.1409-17.5242C35.1409-17.5242 29.8705-17.5242 34.8115-14.2302C34.8115-14.2302 38.4349-12.5832 40.9054-6.32457C40.9054-6.32457 44.0347 4.21623 59.0224 0.922234C59.1871 5.53383 59.1871 12.5335 59.1871 13.8511C59.1871 14.1805 58.3636 15.8275 58.1989 16.1569C62.4811 17.3098 67.9162 17.4745 72.3631 17.6392C77.1394 17.6392 82.9039 17.5156 87.1861 16.3627C87.0214 16.0333 85.8685 13.1923 85.8685 12.8629C85.8685 11.2159 85.8685 2.73393 85.8685-4.51287C85.8685-9.61857 84.2215-12.9126 82.2451-14.5596C94.2682-16.0419 106.785-20.4888 106.785-41.241C106.785-47.1702 104.644-51.9465 101.186-55.7346C101.68-57.0522 103.656-62.652 100.691-70.0635Z"/>
   <path class="hierarchical-1:secondary clearBehindLayer SFSymbolsPreview4D4D4D" d="M34.4615 21.8186L111.582 21.8186C117.573 21.8186 122.061 20.2746 125.108 17.2276C128.155 14.1806 129.596 9.7543 129.596 3.928L129.596-73.4398C129.596-79.2661 128.155-83.7542 125.108-86.7394C122.061-89.7864 117.573-91.3304 111.582-91.3304L34.4615-91.3304C28.5323-91.3304 24.0442-89.8893 20.9972-86.8423C17.9503-83.7954 16.5091-79.369 16.5091-73.5427L16.5091 3.82507C16.5091 9.7543 17.9503 14.2424 20.9972 17.2276C24.0442 20.3775 28.5323 21.8186 34.4615 21.8186ZM34.6262 15.1687C30.8381 15.1687 27.9765 14.1393 26.0207 12.2453C24.0649 10.3512 23.0973 7.42784 23.0973 3.578L23.0973-73.1516C23.0973-76.9396 24.1267-79.863 26.0207-81.8188C27.9765-83.7129 30.8381-84.7422 34.6262-84.7422L111.418-84.7422C115.103-84.7422 117.964-83.7129 120.023-81.8188C122.082-79.9248 123.049-77.0014 123.049-73.1516L123.049 3.578C123.049 7.42784 122.02 10.2895 120.023 12.2453C117.964 14.1393 115.206 15.1687 111.418 15.1687L34.6262 15.1687Z"/>
  </g>
  <g id="Thin-L" transform="matrix(1 0 0 1 784.489 1556)">
   <path class="hierarchical-0:primary SFSymbolsPreview212121" d="M99.6031-70.0079C99.6031-70.0079 95.1562-71.4902 84.7801-64.5728C80.4979-65.7257 75.8863-66.3845 71.2747-66.3845C66.6631-66.3845 62.0515-65.7257 57.7693-64.5728C47.5579-71.4902 42.9463-70.0079 42.9463-70.0079C39.9817-62.4317 41.9581-56.9966 42.4522-55.679C38.9935-51.8909 36.8524-47.1146 36.8524-41.1854C36.8524-20.5979 49.3696-15.8216 61.3927-14.504C59.7457-13.1864 58.4281-10.7159 57.934-7.25718C54.8047-5.93958 47.0638-3.63378 42.2875-11.8688C42.2875-11.8688 39.4876-17.1392 34.0525-17.4686C34.0525-17.4686 28.7821-17.4686 33.7231-14.1746C33.7231-14.1746 37.3465-12.5276 39.817-6.26898C39.817-6.26898 42.9463 4.27182 57.934 0.97782C58.0987 5.58942 58.0987 13.7008 58.0987 15.0184C58.0987 15.3478 57.2752 16.9948 57.1105 17.3242C61.3927 18.4771 66.8278 18.6418 71.2747 18.8065C76.051 18.8065 81.8155 19.2388 86.0977 18.0859C85.933 17.7565 84.7801 14.3596 84.7801 14.0302C84.7801 12.3832 84.7801 2.78952 84.7801-4.45728C84.7801-9.56298 83.1331-12.857 81.1567-14.504C93.1798-15.9863 105.697-20.4332 105.697-41.1854C105.697-47.1146 103.556-51.8909 100.097-55.679C100.591-56.9966 102.568-62.5964 99.6031-70.0079Z"/>
   <path class="hierarchical-1:secondary clearBehindLayer SFSymbolsPreview4D4D4D" d="M33.0952 20.7069L110.772 20.7069C116.263 20.7069 120.417 19.2184 123.242 16.3938C126.066 13.5692 127.396 9.42078 127.396 4.09476L127.396-73.6066C127.396-78.9326 126.066-83.0872 123.242-85.9056C120.417-88.7302 116.263-90.2187 110.772-90.2187L33.0952-90.2187C27.6107-90.2187 23.4561-88.8887 20.6315-86.0641C17.8068-83.2395 16.4769-79.0911 16.4769-73.7651L16.4769 3.93624C16.4769 9.42078 17.8068 13.5754 20.6315 16.3938C23.4561 19.3769 27.6107 20.7069 33.0952 20.7069ZM33.2599 16.7807C29.0271 16.7807 25.7764 15.6401 23.6538 13.5238C21.5313 11.4074 20.3969 8.15046 20.3969 3.91152L20.3969-73.4295C20.3969-77.6623 21.5374-80.9192 23.6538-83.0417C25.7764-85.1581 29.0271-86.2987 33.2599-86.2987L110.607-86.2987C114.681-86.2987 117.932-85.1581 120.213-83.0417C122.494-80.9254 123.629-77.6684 123.629-73.4295L123.629 3.91152C123.629 8.15046 122.488 11.4012 120.213 13.5238C117.932 15.6401 114.84 16.7807 110.607 16.7807L33.2599 16.7807Z"/>
  </g>
  <g id="Ultralight-L" transform="matrix(1 0 0 1 488.348 1556)">
   <path class="hierarchical-0:primary SFSymbolsPreview212121" d="M99.0456-69.9794C99.0456-69.9794 94.5987-71.4617 84.2226-64.5443C79.9404-65.6972 75.3288-66.356 70.7172-66.356C66.1056-66.356 61.494-65.6972 57.2118-64.5443C47.0004-71.4617 42.3888-69.9794 42.3888-69.9794C39.4242-62.4032 41.4006-56.9681 41.8947-55.6505C38.436-51.8624 36.2949-47.0861 36.2949-41.1569C36.2949-20.5694 48.8121-15.7931 60.8352-14.4755C59.1882-13.1579 57.8706-10.6874 57.3765-7.22871C54.2472-5.91111 46.5063-3.60531 41.73-11.8403C41.73-11.8403 38.9301-17.1107 33.495-17.4401C33.495-17.4401 28.2246-17.4401 33.1656-14.1461C33.1656-14.1461 36.789-12.4991 39.2595-6.24051C39.2595-6.24051 42.3888 4.30029 57.3765 1.00629C57.5412 5.61789 57.5412 14.2987 57.5412 15.6163C57.5412 15.9457 56.7177 17.5927 56.553 17.9221C60.8352 19.075 66.2703 19.2397 70.7172 19.4044C75.4935 19.4044 81.258 20.1214 85.5402 18.9685C85.3755 18.6391 84.2226 14.9575 84.2226 14.6281C84.2226 12.9811 84.2226 2.81799 84.2226-4.42881C84.2226-9.53451 82.5756-12.8285 80.5992-14.4755C92.6223-15.9578 105.14-20.4047 105.14-41.1569C105.14-47.0861 102.998-51.8624 99.5397-55.6505C100.034-56.9681 102.01-62.5679 99.0456-69.9794Z"/>
   <path class="hierarchical-1:secondary clearBehindLayer SFSymbolsPreview4D4D4D" d="M32.3954 20.1375L110.357 20.1375C115.591 20.1375 119.575 18.6775 122.286 15.9667C124.996 13.256 126.269 9.24995 126.269 4.18017L126.269-73.692C126.269-78.7618 124.996-82.7455 122.286-85.4785C119.575-88.1893 115.591-89.6493 110.357-89.6493L32.3954-89.6493C27.1386-89.6493 23.1548-88.3763 20.4441-85.6655C17.7334-82.9548 16.4604-78.9487 16.4604-73.879L16.4604 3.99318C16.4604 9.24995 17.7334 13.2337 20.4441 15.9667C23.1548 18.8645 27.1386 20.1375 32.3954 20.1375ZM32.5601 17.6064C28.0995 17.6064 24.6495 16.4089 22.4415 14.1786C20.2335 11.9483 19.0138 8.52059 19.0138 4.08235L19.0138-73.5719C19.0138-78.0324 20.2113-81.4601 22.4415-83.6681C24.6495-85.8984 28.0995-87.0959 32.5601-87.0959L110.192-87.0959C114.466-87.0959 117.916-85.8984 120.311-83.6681C122.705-81.4378 123.925-78.0101 123.925-73.5719L123.925 4.08235C123.925 8.52059 122.728 11.9706 120.311 14.1786C117.916 16.4089 114.653 17.6064 110.192 17.6064L32.5601 17.6064Z"/>
  </g>
  <g id="Black-M" transform="matrix(1 0 0 1 2872.22 1126)">
   <path class="hierarchical-0:primary SFSymbolsPreview212121" d="M81.2089-60.7817C81.2089-60.7817 78.1145-61.8132 70.7773-56.9217C67.8105-57.698 64.4716-58.2084 61.2496-58.2084C58.0276-58.2084 54.8056-57.698 51.7219-56.9217C44.5123-61.8132 41.2903-60.7817 41.2903-60.7817C39.2273-55.4968 40.6416-51.6368 40.9075-50.7329C38.4617-48.032 36.9199-44.6824 36.9199-40.5565C36.9199-26.0097 45.682-22.6601 54.1783-21.7562C53.0192-20.8524 52.1153-19.0553 51.7325-16.6096C49.542-15.7057 44.1295-14.0362 40.6629-19.8316C40.6629-19.8316 38.7276-23.564 34.8676-23.8192C34.8676-23.8192 31.1352-23.8192 34.6124-21.501C34.6124-21.501 37.1857-20.342 38.8659-15.9609C38.8659-15.9609 41.0564-8.49609 51.6156-10.8142C51.7432-7.59222 51.7432-5.41376 51.7432-4.50989C51.7432-4.25469 51.1052-3.09562 50.9776-2.84042C53.9444-2.06416 57.8044-1.81962 60.8988-1.80896C64.2484-1.80896 68.3636-2.70839 71.3304-3.48466C71.2028-3.73986 70.4265-5.02029 70.4265-5.27549C70.4265-6.43456 70.4265-9.76142 70.4265-14.7912C70.4265-18.396 69.2675-20.7141 67.8532-21.8732C76.3495-22.9046 85.1116-25.999 85.1116-40.6734C85.1116-44.7993 83.5697-48.2658 81.124-50.8498C81.8576-51.6368 83.2719-55.6244 81.2089-60.7817Z"/>
   <path class="hierarchical-1:secondary clearBehindLayer SFSymbolsPreview4D4D4D" d="M31.9367 13.4942L90.414 13.4942C96.4804 13.4942 101.141 11.8668 104.525 8.48308C107.909 5.09939 109.537 0.44974 109.537-5.606L109.537-64.1284C109.537-70.1841 107.909-74.8451 104.525-78.2175C101.141-81.6012 96.4804-83.2286 90.414-83.2286L31.9367-83.2286C25.8816-83.2286 21.2207-81.6006 17.837-78.2169C14.4533-74.8332 12.8252-70.1835 12.8252-64.1278L12.8252-5.60538C12.8252 0.44974 14.4533 5.11068 17.837 8.48308C21.2207 11.8662 25.8816 13.4942 31.9367 13.4942ZM34.5199-3.78128C33.0466-3.78128 31.9769-4.18416 31.1705-4.86234C30.3641-5.54051 30.0894-6.7385 30.0894-8.34001L30.0894-61.5226C30.0894-63.1128 30.4923-64.3108 31.1705-65.0003C31.9769-65.6785 33.0466-65.9644 34.5199-65.9644L87.7138-65.9644C89.1877-65.9644 90.3744-65.6785 91.0633-65.0003C91.7521-64.3221 92.1437-63.1241 92.1437-61.5226L92.1437-8.34001C92.1437-6.7385 91.7408-5.5518 91.0633-4.86234C90.3744-4.18416 89.1871-3.78128 87.7138-3.78128L34.5199-3.78128Z"/>
  </g>
  <g id="Heavy-M" transform="matrix(1 0 0 1 2576.33 1126)">
   <path class="hierarchical-0:primary SFSymbolsPreview212121" d="M80.7151-61.1348C80.7151-61.1348 77.5379-62.1939 70.0351-57.192C66.9855-57.9959 63.5914-58.5063 60.2866-58.5063C56.9818-58.5063 53.6771-57.9959 50.5381-57.192C43.163-62.1939 39.8582-61.1348 39.8582-61.1348C37.74-55.7119 39.1819-51.7691 39.4754-50.8376C36.9744-48.0815 35.405-44.6491 35.405-40.4129C35.405-25.5349 44.3879-22.1025 53.0773-21.1711C51.8907-20.2396 50.9592-18.4149 50.5764-15.914C48.3307-14.9826 42.7802-13.2855 39.2584-19.2188C39.2584-19.2188 37.2679-23.034 33.3251-23.2892C33.3251-23.2892 29.5099-23.2892 33.0699-20.9159C33.0699-20.9159 35.6984-19.7292 37.4338-15.2378C37.4338-15.2378 39.6795-7.60738 50.4871-9.9807C50.6147-6.67592 50.6147-3.99849 50.6147-3.06703C50.6147-2.81183 49.9767-1.62516 49.8491-1.36996C52.8986-0.566101 56.8414-0.349164 60.0186-0.310901C63.451-0.310901 67.649-1.15403 70.6986-1.95789C70.571-2.21309 69.7671-3.57743 69.7671-3.83263C69.7671-5.01929 69.7671-8.84512 69.7671-14.0128C69.7671-17.7004 68.5805-20.0737 67.1386-21.2604C75.828-22.3195 84.8109-25.4967 84.8109-40.5022C84.8109-44.7385 83.2415-48.2602 80.7406-50.927C81.3914-51.7691 82.8332-55.8395 80.7151-61.1348Z"/>
   <path class="hierarchical-1:secondary clearBehindLayer SFSymbolsPreview4D4D4D" d="M31.0284 12.6917L89.6723 12.6917C95.5225 12.6917 99.984 11.1527 103.18 7.95708C106.375 4.76149 107.909 0.333168 107.909-5.47873L107.909-64.2557C107.909-70.0676 106.375-74.5291 103.18-77.6915C99.984-80.8871 95.5225-82.4261 89.6723-82.4261L31.0284-82.4261C25.2115-82.4261 20.7499-80.8921 17.5543-77.6965C14.3587-74.5009 12.8247-70.0726 12.8247-64.2607L12.8247-5.48373C12.8247 0.333168 14.3587 4.79475 17.5543 7.95708C20.7499 11.1577 25.2115 12.6917 31.0284 12.6917ZM33.0321-2.37616C31.3206-2.37616 30.0734-2.8455 29.1397-3.65658C28.2061-4.46766 27.8593-5.83742 27.8593-7.67151L27.8593-62.1855C27.8593-63.9863 28.3286-65.3561 29.1397-66.2004C30.0734-67.0115 31.3206-67.3915 33.0321-67.3915L87.5793-67.3915C89.2858-67.3915 90.6223-67.0115 91.4716-66.2004C92.321-65.3893 92.7571-64.0196 92.7571-62.1855L92.7571-7.67151C92.7571-5.83742 92.2877-4.50092 91.4716-3.65658C90.6223-2.8455 89.2908-2.37616 87.5793-2.37616L33.0321-2.37616Z"/>
  </g>
  <g id="Bold-M" transform="matrix(1 0 0 1 2280.53 1126)">
   <path class="hierarchical-0:primary SFSymbolsPreview212121" d="M80.1627-61.5298C80.1627-61.5298 76.8929-62.6198 69.2049-57.4944C66.0627-58.3292 62.6068-58.8396 59.2094-58.8396C55.812-58.8396 52.4146-58.3292 49.2139-57.4944C41.6535-62.6198 38.2561-61.5298 38.2561-61.5298C36.0763-55.9526 37.549-51.9172 37.8733-50.9548C35.3107-48.137 33.7103-44.612 33.7103-40.2522C33.7103-25.0038 42.9402-21.4788 51.8457-20.5165C50.6282-19.5542 49.6659-17.6986 49.2831-15.136C46.9756-14.1736 41.2707-12.4457 37.6873-18.5334C37.6873-18.5334 35.635-22.4412 31.5996-22.6964C31.5996-22.6964 27.6918-22.6964 31.3444-20.2613C31.3444-20.2613 34.0347-19.0438 35.8317-14.4288C35.8317-14.4288 38.1392-6.61323 49.2246-9.04829C49.3522-5.65089 49.3522-2.41531 49.3522-1.45298C49.3522-1.19778 48.7142 0.0197574 48.5866 0.274957C51.7288 1.10969 55.7642 1.29576 59.034 1.36489C62.559 1.36489 66.8496 0.58475 69.9918-0.249984C69.8642-0.505184 69.0295-1.96338 69.0295-2.21858C69.0295-3.43611 69.0295-7.82009 69.0295-13.1422C69.0295-16.9224 67.8119-19.3574 66.3392-20.575C75.2447-21.6649 84.4746-24.9347 84.4746-40.3107C84.4746-44.6704 82.8743-48.2539 80.3116-51.0133C80.8698-51.9172 82.3425-56.0802 80.1627-61.5298Z"/>
   <path class="hierarchical-1:secondary clearBehindLayer SFSymbolsPreview4D4D4D" d="M30.0123 11.7939L88.8427 11.7939C94.4509 11.7939 98.6895 10.3539 101.675 7.36868C104.66 4.3835 106.089 0.202765 106.089-5.33635L106.089-64.3981C106.089-69.9372 104.66-74.1757 101.675-77.1031C98.6895-80.0883 94.4509-81.5283 88.8427-81.5283L30.0123-81.5283C24.4619-81.5283 20.2233-80.0996 17.2381-77.1144C14.2529-74.1292 12.8242-69.9485 12.8242-64.4094L12.8242-5.34765C12.8242 0.202765 14.2529 4.44133 17.2381 7.36868C20.2233 10.3652 24.4619 11.7939 30.0123 11.7939ZM31.3677-0.804329C29.3897-0.804329 27.9441-1.34801 26.868-2.30776C25.792-3.26752 25.3646-4.82942 25.3646-6.9237L25.3646-62.927C25.3646-64.9634 25.9083-66.5253 26.868-67.5429C27.9441-68.5027 29.3897-68.9879 31.3677-68.9879L87.4288-68.9879C89.3955-68.9879 90.8996-68.5027 91.9284-67.5429C92.9573-66.5832 93.4432-65.0213 93.4432-62.927L93.4432-6.9237C93.4432-4.82942 92.8995-3.32535 91.9284-2.30776C90.8996-1.34801 89.4068-0.804329 87.4288-0.804329L31.3677-0.804329Z"/>
  </g>
  <g id="Semibold-M" transform="matrix(1 0 0 1 1984.45 1126)">
   <path class="hierarchical-0:primary SFSymbolsPreview212121" d="M79.7818-61.8021C79.7818-61.8021 76.4482-62.9134 68.6325-57.7029C65.4265-58.5589 61.928-59.0693 58.4668-59.0693C55.0055-59.0693 51.5443-58.5589 48.3011-57.7029C40.613-62.9134 37.1517-61.8021 37.1517-61.8021C34.9293-56.1185 36.4233-52.0192 36.7689-51.0356C34.1637-48.1752 32.5421-44.5863 32.5421-40.1415C32.5421-24.6377 41.9422-21.0488 50.9967-20.0652C49.7579-19.0816 48.7743-17.2048 48.3915-14.5996C46.0414-13.616 40.2302-11.8667 36.6041-18.0608C36.6041-18.0608 34.5093-22.0325 30.4101-22.2877C30.4101-22.2877 26.4384-22.2877 30.1549-19.81C30.1549-19.81 32.8877-18.5712 34.7273-13.8712C34.7273-13.8712 37.0774-5.92787 48.3543-8.4055C48.4819-4.94425 48.4819-1.32387 48.4819-0.340259C48.4819-0.0850592 47.8439 1.15376 47.7163 1.40896C50.9223 2.26497 55.0216 2.42976 58.3552 2.52017C61.9441 2.52017 66.2985 1.78345 69.5046 0.927438C69.377 0.672238 68.5209-0.850659 68.5209-1.10586C68.5209-2.34467 68.5209-7.11345 68.5209-12.5419C68.5209-16.386 67.2821-18.8636 65.7881-20.1024C74.8426-21.2136 84.2427-24.5473 84.2427-40.1787C84.2427-44.6235 82.6211-48.2496 80.0159-51.0728C80.5103-52.0192 82.0043-56.2461 79.7818-61.8021Z"/>
   <path class="hierarchical-1:secondary clearBehindLayer SFSymbolsPreview4D4D4D" d="M29.3118 11.1751L88.2707 11.1751C93.7122 11.1751 97.797 9.80315 100.637 6.96303C103.477 4.12292 104.834 0.112865 104.834-5.23819L104.834-64.4962C104.834-69.8473 103.477-73.9321 100.637-76.6974C97.797-79.5376 93.7122-80.9095 88.2707-80.9095L29.3118-80.9095C23.9451-80.9095 19.8603-79.5532 17.0201-76.7131C14.18-73.873 12.8238-69.8629 12.8238-64.5119L12.8238-5.25384C12.8238 0.112865 14.18 4.19769 17.0201 6.96303C19.8603 9.8188 23.9451 11.1751 29.3118 11.1751ZM30.2203 0.27928C28.0586 0.27928 26.4762-0.315646 25.302-1.3779C24.1277-2.44015 23.6448-4.13452 23.6448-6.40816L23.6448-63.4382C23.6448-65.6371 24.2397-67.3314 25.302-68.4685C26.4762-69.5307 28.0586-70.0884 30.2203-70.0884L87.3251-70.0884C89.4711-70.0884 91.0907-69.5307 92.2434-68.4685C93.396-67.4062 93.9162-65.7118 93.9162-63.4382L93.9162-6.40816C93.9162-4.13452 93.3213-2.51492 92.2434-1.3779C91.0907-0.315646 89.4868 0.27928 87.3251 0.27928L30.2203 0.27928Z"/>
  </g>
  <g id="Medium-M" transform="matrix(1 0 0 1 1688.21 1126)">
   <path class="hierarchical-0:primary SFSymbolsPreview212121" d="M79.4931-62.0086C79.4931-62.0086 76.111-63.136 68.1985-57.861C64.944-58.7331 61.4133-59.2435 57.9037-59.2435C54.394-59.2435 50.8844-58.7331 47.6089-57.861C39.824-63.136 36.3143-62.0086 36.3143-62.0086C34.0596-56.2443 35.5697-52.0966 35.9315-51.0969C33.294-48.2042 31.6562-44.5669 31.6562-40.0575C31.6562-24.3601 41.1855-20.7228 50.3529-19.7231C49.098-18.7233 48.0982-16.8304 47.7154-14.1929C45.3331-13.1931 39.4412-11.4278 35.7829-17.7025C35.7829-17.7025 33.6557-21.7226 29.5081-21.9778C29.5081-21.9778 25.488-21.9778 29.2529-19.4679C29.2529-19.4679 32.018-18.2129 33.8899-13.4483C33.8899-13.4483 36.2722-5.4082 47.6944-7.9181C47.822-4.40844 47.822-0.496303 47.822 0.503449C47.822 0.758649 47.184 2.0136 47.0564 2.2688C50.3108 3.14095 54.4585 3.2896 57.8405 3.39615C61.4778 3.39615 65.8807 2.69236 69.1351 1.82021C69.0075 1.56501 68.1354-0.00695085 68.1354-0.262151C68.1354-1.5171 68.1354-6.57764 68.1354-12.0868C68.1354-15.9793 66.8804-18.4892 65.3703-19.7441C74.5377-20.8715 84.0669-24.2535 84.0669-40.0785C84.0669-44.588 82.4292-48.2463 79.7917-51.1179C80.2376-52.0966 81.7478-56.3719 79.4931-62.0086Z"/>
   <path class="hierarchical-1:secondary clearBehindLayer SFSymbolsPreview4D4D4D" d="M28.7806 10.7058L87.8371 10.7058C93.1521 10.7058 97.1203 9.38558 99.8504 6.65546C102.581 3.92533 103.882 0.0447002 103.882-5.16377L103.882-64.5706C103.882-69.7791 102.581-73.7473 99.8504-76.3899C97.1203-79.12 93.1521-80.4402 87.8371-80.4402L28.7806-80.4402C23.5532-80.4402 19.585-79.1389 16.8549-76.4088C14.1247-73.6787 12.8235-69.798 12.8235-64.5896L12.8235-5.18271C12.8235 0.0447002 14.1247 4.01294 16.8549 6.65546C19.585 9.40452 23.5532 10.7058 28.7806 10.7058ZM29.3502 1.10092C27.0493 1.10092 25.3631 0.467133 24.1145-0.672838C22.8659-1.81281 22.3407-3.60761 22.3407-6.01726L22.3407-63.8258C22.3407-66.1478 22.9745-67.9426 24.1145-69.1702C25.3631-70.3102 27.0493-70.9229 29.3502-70.9229L87.2464-70.9229C89.5284-70.9229 91.2356-70.3102 92.4822-69.1702C93.7287-68.0303 94.2749-66.2354 94.2749-63.8258L94.2749-6.01726C94.2749-3.60761 93.6411-1.90042 92.4822-0.672838C91.2356 0.467133 89.5474 1.10092 87.2464 1.10092L29.3502 1.10092Z"/>
  </g>
  <g id="Regular-M" transform="matrix(1 0 0 1 1392.12 1126)">
   <path class="hierarchical-0:primary SFSymbolsPreview212121" d="M79.1164-62.278C79.1164-62.278 75.6712-63.4264 67.6324-58.0672C64.3148-58.9604 60.742-59.4708 57.1692-59.4708C53.5964-59.4708 50.0236-58.9604 46.706-58.0672C38.7948-63.4264 35.222-62.278 35.222-62.278C32.9252-56.4084 34.4564-52.1976 34.8392-51.1768C32.1596-48.242 30.5008-44.5416 30.5008-39.948C30.5008-23.998 40.1984-20.2976 49.5132-19.2768C48.2372-18.256 47.2164-16.342 46.8336-13.6624C44.4092-12.6416 38.412-10.8552 34.7116-17.2352C34.7116-17.2352 32.5424-21.3184 28.3316-21.5736C28.3316-21.5736 24.2484-21.5736 28.0764-19.0216C28.0764-19.0216 30.8836-17.7456 32.7976-12.8968C32.7976-12.8968 35.222-4.73036 46.8336-7.28236C46.9612-3.70956 46.9612 0.583138 46.9612 1.60394C46.9612 1.85914 46.3232 3.13514 46.1956 3.39034C49.5132 4.28354 53.724 4.41114 57.1692 4.53874C60.8696 4.53874 65.3356 3.87789 68.6532 2.98469C68.5256 2.72949 67.6324 1.09354 67.6324 0.838338C67.6324-0.437662 67.6324-5.87876 67.6324-11.4932C67.6324-15.4488 66.3564-18.0008 64.8252-19.2768C74.14-20.4252 83.8376-23.8704 83.8376-39.948C83.8376-44.5416 82.1788-48.242 79.4992-51.1768C79.882-52.1976 81.4132-56.536 79.1164-62.278Z"/>
   <path class="hierarchical-1:secondary clearBehindLayer SFSymbolsPreview4D4D4D" d="M28.0878 10.0937L87.2714 10.0937C92.4215 10.0937 96.2377 8.84093 98.8243 6.25427C101.411 3.66761 102.641-0.0442109 102.641-5.06669L102.641-64.6677C102.641-69.6902 101.411-73.5064 98.8243-75.9887C96.2377-78.5753 92.4215-79.8281 87.2714-79.8281L28.0878-79.8281C23.0421-79.8281 19.2259-78.5986 16.6393-76.0119C14.0526-73.4252 12.8231-69.7134 12.8231-64.6909L12.8231-5.08993C12.8231-0.0442109 14.0526 3.77198 16.6393 6.25427C19.2259 8.86417 23.0421 10.0937 28.0878 10.0937ZM28.2154 2.17262C25.7328 2.17262 23.9113 1.48815 22.5656 0.246809C21.2199-0.994532 20.6398-2.92034 20.6398-5.50739L20.6398-64.3314C20.6398-66.8141 21.3243-68.7399 22.5656-70.0856C23.9113-71.3269 25.7328-72.0114 28.2154-72.0114L87.1438-72.0114C89.6032-72.0114 91.4247-71.3269 92.7936-70.0856C94.1626-68.8442 94.7427-66.9184 94.7427-64.3314L94.7427-5.50739C94.7427-2.92034 94.0582-1.0989 92.7936 0.246809C91.4247 1.48815 89.6265 2.17262 87.1438 2.17262L28.2154 2.17262Z"/>
  </g>
  <g id="Light-M" transform="matrix(1 0 0 1 1096.17 1126)">
   <path class="hierarchical-0:primary SFSymbolsPreview212121" d="M78.3786-62.2403C78.3786-62.2403 74.9334-63.3887 66.8946-58.0295C63.577-58.9227 60.0042-59.4331 56.4314-59.4331C52.8586-59.4331 49.2858-58.9227 45.9682-58.0295C38.057-63.3887 34.4842-62.2403 34.4842-62.2403C32.1874-56.3707 33.7186-52.1599 34.1014-51.1391C31.4218-48.2043 29.763-44.5039 29.763-39.9103C29.763-23.9603 39.4606-20.2599 48.7754-19.2391C47.4994-18.2183 46.4786-16.3043 46.0958-13.6247C43.6714-12.6039 37.6742-10.8175 33.9738-17.1975C33.9738-17.1975 31.8046-21.2807 27.5938-21.5359C27.5938-21.5359 23.5106-21.5359 27.3386-18.9839C27.3386-18.9839 30.1458-17.7079 32.0598-12.8591C32.0598-12.8591 34.4842-4.69268 46.0958-7.24468C46.2234-3.67188 46.2234 1.37444 46.2234 2.39524C46.2234 2.65044 45.5854 3.92644 45.4578 4.18164C48.7754 5.07484 52.9862 5.20244 56.4314 5.33004C60.1318 5.33004 64.5978 5.04601 67.9154 4.15281C67.7878 3.89761 66.8946 1.88484 66.8946 1.62964C66.8946 0.353643 66.8946-5.84108 66.8946-11.4555C66.8946-15.4111 65.6186-17.9631 64.0874-19.2391C73.4022-20.3875 83.0998-23.8327 83.0998-39.9103C83.0998-44.5039 81.441-48.2043 78.7614-51.1391C79.1442-52.1599 80.6754-56.4983 78.3786-62.2403Z"/>
   <path class="hierarchical-1:secondary clearBehindLayer SFSymbolsPreview4D4D4D" d="M27.1616 9.34007L86.722 9.34007C91.533 9.34007 95.1231 8.12499 97.559 5.68906C99.9949 3.25312 101.149-0.270298 101.149-4.95365L101.149-64.7807C101.149-69.4641 99.9949-73.0542 97.559-75.4235C95.1231-77.8594 91.533-79.0745 86.722-79.0745L27.1616-79.0745C22.4174-79.0745 18.8273-77.9203 16.3913-75.4844C13.9554-73.0484 12.8012-69.525 12.8012-64.8417L12.8012-5.01457C12.8012-0.270298 13.9554 3.3198 16.3913 5.68906C18.8273 8.18591 22.4174 9.34007 27.1616 9.34007ZM27.2892 3.26537C24.5051 3.26537 22.4199 2.50554 20.9611 1.11348C19.5024-0.27859 18.8092-2.43049 18.8092-5.2813L18.8092-64.5198C18.8092-67.3039 19.5691-69.4558 20.9611-70.9146C22.4199-72.3066 24.5051-73.0665 27.2892-73.0665L86.5944-73.0665C89.3176-73.0665 91.4028-72.3066 92.9225-70.9146C94.4422-69.5225 95.1353-67.3706 95.1353-64.5198L95.1353-5.2813C95.1353-2.43049 94.3755-0.345274 92.9225 1.11348C91.4028 2.50554 89.3785 3.26537 86.5944 3.26537L27.2892 3.26537Z"/>
  </g>
  <g id="Thin-M" transform="matrix(1 0 0 1 800.452 1126)">
   <path class="hierarchical-0:primary SFSymbolsPreview212121" d="M77.4028-62.1904C77.4028-62.1904 73.9576-63.3388 65.9188-57.9796C62.6012-58.8728 59.0284-59.3832 55.4556-59.3832C51.8828-59.3832 48.31-58.8728 44.9924-57.9796C37.0812-63.3388 33.5084-62.1904 33.5084-62.1904C31.2116-56.3208 32.7428-52.11 33.1256-51.0892C30.446-48.1544 28.7872-44.454 28.7872-39.8604C28.7872-23.9104 38.4848-20.21 47.7996-19.1892C46.5236-18.1684 45.5028-16.2544 45.12-13.5748C42.6956-12.554 36.6984-10.7676 32.998-17.1476C32.998-17.1476 30.8288-21.2308 26.618-21.486C26.618-21.486 22.5348-21.486 26.3628-18.934C26.3628-18.934 29.17-17.658 31.084-12.8092C31.084-12.8092 33.5084-4.64285 45.12-7.19485C45.2476-3.62205 45.2476 2.42101 45.2476 3.44181C45.2476 3.69701 44.6096 4.97301 44.482 5.22821C47.7996 6.12141 52.0104 6.24901 55.4556 6.37661C59.156 6.37661 63.622 6.59093 66.9396 5.69773C66.812 5.44253 65.9188 2.93141 65.9188 2.67621C65.9188 1.40021 65.9188-5.79125 65.9188-11.4056C65.9188-15.3612 64.6428-17.9132 63.1116-19.1892C72.4264-20.3376 82.124-23.7828 82.124-39.8604C82.124-44.454 80.4652-48.1544 77.7856-51.0892C78.1684-52.11 79.6996-56.4484 77.4028-62.1904Z"/>
   <path class="hierarchical-1:secondary clearBehindLayer SFSymbolsPreview4D4D4D" d="M25.9367 8.34335L85.9954 8.34335C90.3578 8.34335 93.6489 7.1781 95.8855 4.94151C98.1221 2.70492 99.1766-0.569316 99.1766-4.80414L99.1766-64.9303C99.1766-69.1651 98.1221-72.4562 95.8855-74.6759C93.6489-76.9125 90.3578-78.0777 85.9954-78.0777L25.9367-78.0777C21.5911-78.0777 18.3-77.0233 16.0634-74.7867C13.8268-72.5501 12.7723-69.2758 12.7723-65.041L12.7723-4.91489C12.7723-0.569316 13.8268 2.72177 16.0634 4.94151C18.3 7.28885 21.5911 8.34335 25.9367 8.34335ZM26.0643 4.71063C22.8814 4.71063 20.4474 3.85112 18.8391 2.25971C17.2309 0.668301 16.3882-1.78262 16.3882-4.98228L16.3882-64.769C16.3882-67.9518 17.2477-70.4027 18.8391-72.011C20.4474-73.6024 22.8814-74.4619 26.0643-74.4619L85.8678-74.4619C88.9399-74.4619 91.3739-73.6024 93.0929-72.011C94.8119-70.4195 95.6546-67.9686 95.6546-64.769L95.6546-4.98228C95.6546-1.78262 94.7951 0.651454 93.0929 2.25971C91.3739 3.85112 89.0506 4.71063 85.8678 4.71063L26.0643 4.71063Z"/>
  </g>
  <g id="Ultralight-M" transform="matrix(1 0 0 1 504.251 1126)">
   <path class="hierarchical-0:primary SFSymbolsPreview212121" d="M76.903-62.1649C76.903-62.1649 73.4578-63.3133 65.419-57.9541C62.1014-58.8473 58.5286-59.3577 54.9558-59.3577C51.383-59.3577 47.8102-58.8473 44.4926-57.9541C36.5814-63.3133 33.0086-62.1649 33.0086-62.1649C30.7118-56.2953 32.243-52.0845 32.6258-51.0637C29.9462-48.1289 28.2874-44.4285 28.2874-39.8349C28.2874-23.8849 37.985-20.1845 47.2998-19.1637C46.0238-18.1429 45.003-16.2289 44.6202-13.5493C42.1958-12.5285 36.1986-10.7421 32.4982-17.1221C32.4982-17.1221 30.329-21.2053 26.1182-21.4605C26.1182-21.4605 22.035-21.4605 25.863-18.9085C25.863-18.9085 28.6702-17.6325 30.5842-12.7837C30.5842-12.7837 33.0086-4.61732 44.6202-7.16932C44.7478-3.59652 44.7478 2.95705 44.7478 3.97785C44.7478 4.23305 44.1098 5.50905 43.9822 5.76425C47.2998 6.65745 51.5106 6.78505 54.9558 6.91265C58.6562 6.91265 63.1222 7.38224 66.4398 6.48904C66.3122 6.23384 65.419 3.46745 65.419 3.21225C65.419 1.93625 65.419-5.76572 65.419-11.3801C65.419-15.3357 64.143-17.8877 62.6118-19.1637C71.9266-20.3121 81.6242-23.7573 81.6242-39.8349C81.6242-44.4285 79.9654-48.1289 77.2858-51.0637C77.6686-52.0845 79.1998-56.4229 76.903-62.1649Z"/>
   <path class="hierarchical-1:secondary clearBehindLayer SFSymbolsPreview4D4D4D" d="M25.3092 7.83283L85.6232 7.83283C89.7559 7.83283 92.8938 6.69311 95.0283 4.55862C97.1628 2.42414 98.1663-0.722472 98.1663-4.72756L98.1663-65.0068C98.1663-69.0119 97.1628-72.1499 95.0283-74.293C92.8938-76.4275 89.7559-77.5672 85.6232-77.5672L25.3092-77.5672C21.1679-77.5672 18.0299-76.5638 15.8954-74.4293C13.761-72.2948 12.7575-69.1482 12.7575-65.1431L12.7575-4.86384C12.7575-0.722472 13.761 2.41546 15.8954 4.55862C18.0299 6.82938 21.1679 7.83283 25.3092 7.83283ZM25.4368 5.45088C22.0498 5.45088 19.4371 4.54032 17.7522 2.84681C16.0674 1.15329 15.1481-1.45078 15.1481-4.82913L15.1481-64.8966C15.1481-68.2836 16.0587-70.8877 17.7522-72.5725C19.4371-74.266 22.0498-75.1766 25.4368-75.1766L85.4956-75.1766C88.7464-75.1766 91.3591-74.266 93.1802-72.5725C95.0013-70.879 95.9206-68.2749 95.9206-64.8966L95.9206-4.82913C95.9206-1.45078 95.01 1.16197 93.1802 2.84681C91.3591 4.54032 88.8826 5.45088 85.4956 5.45088L25.4368 5.45088Z"/>
  </g>
  <g id="Black-S" transform="matrix(1 0 0 1 2885.25 696)">
   <path class="hierarchical-0:primary SFSymbolsPreview212121" d="M63.75-55.15C63.75-55.15 61.35-55.95 55.65-52.15C53.35-52.75 50.75-53.15 48.25-53.15C45.75-53.15 43.25-52.75 40.85-52.15C35.25-55.95 32.75-55.15 32.75-55.15C31.15-51.05 32.25-48.05 32.45-47.35C30.55-45.25 29.35-42.65 29.35-39.45C29.35-28.15 36.15-25.55 42.75-24.85C41.85-24.15 41.15-22.75 40.85-20.85C39.15-20.15 34.95-18.85 32.25-23.35C32.25-23.35 30.75-26.25 27.75-26.45C27.75-26.45 24.85-26.45 27.55-24.65C27.55-24.65 29.55-23.75 30.85-20.35C30.85-20.35 32.55-14.55 40.75-16.35C40.85-13.85 40.85-12.25 40.85-11.55C40.85-11.35 40.35-10.45 40.25-10.25C42.55-9.65 45.55-9.45 47.95-9.45C50.55-9.45 53.75-10.15 56.05-10.75C55.95-10.95 55.35-11.95 55.35-12.15C55.35-13.05 55.35-15.55 55.35-19.45C55.35-22.25 54.45-24.05 53.35-24.95C59.95-25.75 66.75-28.15 66.75-39.55C66.75-42.75 65.55-45.45 63.65-47.45C64.25-48.05 65.35-51.15 63.75-55.15Z"/>
   <path class="hierarchical-1:secondary clearBehindLayer SFSymbolsPreview4D4D4D" d="M25.25 3.15L71.05 3.15C75.85 3.15 79.55 1.85 82.25-0.85C84.95-3.55 86.25-7.25 86.25-12.05L86.25-57.85C86.25-62.65 84.95-66.35 82.25-69.05C79.55-71.75 75.85-73.05 71.05-73.05L25.25-73.05C20.45-73.05 16.75-71.75 14.05-69.05C11.35-66.35 10.05-62.65 10.05-57.85L10.05-12.05C10.05-7.25 11.35-3.55 14.05-0.85C16.75 1.85 20.45 3.15 25.25 3.15ZM27.45-10.95C26.35-10.95 25.55-11.25 24.95-11.75C24.35-12.25 24.15-13.15 24.15-14.35L24.15-55.65C24.15-56.85 24.45-57.75 24.95-58.25C25.55-58.75 26.35-58.95 27.45-58.95L68.75-58.95C69.85-58.95 70.75-58.75 71.25-58.25C71.75-57.75 72.05-56.85 72.05-55.65L72.05-14.35C72.05-13.15 71.75-12.25 71.25-11.75C70.75-11.25 69.85-10.95 68.75-10.95L27.45-10.95Z"/>
  </g>
  <g id="Heavy-S" transform="matrix(1 0 0 1 2589.14 696)">
   <path class="hierarchical-0:primary SFSymbolsPreview212121" d="M63.4219-55.4568C63.4219-55.4568 60.9511-56.2804 55.1095-52.386C52.7387-53.0096 50.0915-53.4096 47.5207-53.4096C44.9499-53.4096 42.3791-53.0096 39.9319-52.386C34.1903-56.2804 31.6195-55.4568 31.6195-55.4568C29.9723-51.2388 31.0959-48.168 31.3195-47.4444C29.3723-45.2972 28.1487-42.6264 28.1487-39.332C28.1487-27.7488 35.1375-25.078 41.9027-24.3544C40.9791-23.6308 40.2555-22.2072 39.9555-20.2599C38.2083-19.5363 33.8903-18.2127 31.1431-22.8308C31.1431-22.8308 29.5959-25.8016 26.5251-26.0016C26.5251-26.0016 23.5542-26.0016 26.3251-24.1544C26.3251-24.1544 28.3723-23.2308 29.7195-19.7363C29.7195-19.7363 31.4667-13.7947 39.8791-15.6419C39.9791-13.0711 39.9791-11.1407 39.9791-10.4171C39.9791-10.2171 39.4791-9.2935 39.3791-9.0935C41.7499-8.46989 44.8207-8.2935 47.2915-8.26989C49.9623-8.26989 53.2331-8.96989 55.6039-9.5935C55.5039-9.7935 54.8803-10.8171 54.8803-11.0171C54.8803-11.9407 54.8803-14.7711 54.8803-18.7891C54.8803-21.6599 53.9567-23.5072 52.8331-24.4308C59.5983-25.2544 66.5871-27.7252 66.5871-39.4084C66.5871-42.7028 65.3635-45.45 63.4163-47.5208C63.9455-48.168 65.0691-51.3388 63.4219-55.4568Z"/>
   <path class="hierarchical-1:secondary clearBehindLayer SFSymbolsPreview4D4D4D" d="M24.5915 2.55995L70.4859 2.55995C75.1443 2.55995 78.7027 1.33075 81.2611-1.22763C83.8195-3.78602 85.0487-7.32081 85.0487-11.9556L85.0487-57.9444C85.0487-62.5792 83.8195-66.1376 81.2611-68.6724C78.7027-71.2308 75.1443-72.4599 70.4859-72.4599L24.5915-72.4599C19.9567-72.4599 16.3983-71.2308 13.8399-68.6724C11.2816-66.114 10.0524-62.5792 10.0524-57.9444L10.0524-11.9556C10.0524-7.32081 11.2816-3.76242 13.8399-1.22763C16.3983 1.33075 19.9567 2.55995 24.5915 2.55995ZM26.2959-9.88791C25.0306-9.88791 24.1126-10.2351 23.4182-10.8295C22.7238-11.4239 22.4766-12.4419 22.4766-13.8072L22.4766-56.1928C22.4766-57.5345 22.8238-58.5525 23.4182-59.1705C24.1126-59.7649 25.0306-60.0357 26.2959-60.0357L68.7052-60.0357C69.9704-60.0357 70.9648-59.7649 71.5828-59.1705C72.2008-58.5761 72.5244-57.5581 72.5244-56.1928L72.5244-13.8072C72.5244-12.4419 72.1772-11.4475 71.5828-10.8295C70.9648-10.2351 69.9704-9.88791 68.7052-9.88791L26.2959-9.88791Z"/>
  </g>
  <g id="Bold-S" transform="matrix(1 0 0 1 2293.1 696)">
   <path class="hierarchical-0:primary SFSymbolsPreview212121" d="M63.055-55.8C63.055-55.8 60.505-56.65 54.505-52.65C52.055-53.3 49.355-53.7 46.705-53.7C44.055-53.7 41.405-53.3 38.905-52.65C33.005-56.65 30.355-55.8 30.355-55.8C28.655-51.45 29.805-48.3 30.055-47.55C28.055-45.35 26.805-42.6 26.805-39.2C26.805-27.3 34.005-24.55 40.955-23.8C40.005-23.05 39.255-21.6 38.955-19.6C37.155-18.85 32.705-17.5 29.905-22.25C29.905-22.25 28.305-25.3 25.155-25.5C25.155-25.5 22.105-25.5 24.955-23.6C24.955-23.6 27.055-22.65 28.455-19.05C28.455-19.05 30.255-12.95 38.905-14.85C39.005-12.2 39.005-9.9 39.005-9.15C39.005-8.95 38.505-8 38.405-7.8C40.855-7.15 44.005-7 46.555-6.95C49.305-6.95 52.655-7.65 55.105-8.3C55.005-8.5 54.355-9.55 54.355-9.75C54.355-10.7 54.355-13.9 54.355-18.05C54.355-21 53.405-22.9 52.255-23.85C59.205-24.7 66.405-27.25 66.405-39.25C66.405-42.65 65.155-45.45 63.155-47.6C63.605-48.3 64.755-51.55 63.055-55.8Z"/>
   <path class="hierarchical-1:secondary clearBehindLayer SFSymbolsPreview4D4D4D" d="M23.855 1.9L69.855 1.9C74.355 1.9 77.755 0.75 80.155-1.65C82.555-4.05 83.705-7.4 83.705-11.85L83.705-58.05C83.705-62.5 82.555-65.9 80.155-68.25C77.755-70.65 74.355-71.8 69.855-71.8L23.855-71.8C19.405-71.8 16.005-70.65 13.605-68.25C11.205-65.85 10.055-62.5 10.055-58.05L10.055-11.85C10.055-7.4 11.205-4 13.605-1.65C16.005 0.75 19.405 1.9 23.855 1.9ZM25.005-8.7C23.555-8.7 22.505-9.1 21.705-9.8C20.905-10.5 20.605-11.65 20.605-13.2L20.605-56.8C20.605-58.3 21.005-59.45 21.705-60.2C22.505-60.9 23.555-61.25 25.005-61.25L68.655-61.25C70.105-61.25 71.205-60.9 71.955-60.2C72.705-59.5 73.055-58.35 73.055-56.8L73.055-13.2C73.055-11.65 72.655-10.55 71.955-9.8C71.205-9.1 70.105-8.7 68.655-8.7L25.005-8.7Z"/>
  </g>
  <g id="Semibold-S" transform="matrix(1 0 0 1 1996.86 696)">
   <path class="hierarchical-0:primary SFSymbolsPreview212121" d="M62.802-56.0366C62.802-56.0366 60.1974-56.9048 54.0882-52.832C51.5836-53.5002 48.8472-53.9002 46.1426-53.9002C43.438-53.9002 40.7334-53.5002 38.197-52.832C32.1878-56.9048 29.4832-56.0366 29.4832-56.0366C27.7468-51.5956 28.915-48.391 29.1832-47.6228C27.1468-45.3864 25.8786-42.5818 25.8786-39.109C25.8786-26.9906 33.2242-24.186 40.3016-23.4178C39.3334-22.6496 38.5652-21.1814 38.2652-19.145C36.4288-18.3768 31.8878-17.0086 29.0514-21.8496C29.0514-21.8496 27.415-24.9542 24.2104-25.1542C24.2104-25.1542 21.1058-25.1542 24.0104-23.2178C24.0104-23.2178 26.1468-22.2496 27.5832-18.5768C27.5832-18.5768 29.4196-12.3676 38.2334-14.304C38.3334-11.5994 38.3334-9.0446 38.3334-8.2764C38.3334-8.0764 37.8334-7.1082 37.7334-6.9082C40.238-6.24 43.4426-6.1082 46.0472-6.04C48.8518-6.04 52.2564-6.74 54.761-7.4082C54.661-7.6082 53.9928-8.6764 53.9928-8.8764C53.9928-9.8446 53.9928-13.2994 53.9928-17.5404C53.9928-20.545 53.0246-22.4814 51.8564-23.4496C58.9338-24.3178 66.2794-26.9224 66.2794-39.1408C66.2794-42.6136 65.0112-45.45 62.9748-47.6546C63.3702-48.391 64.5384-51.6956 62.802-56.0366Z"/>
   <path class="hierarchical-1:secondary clearBehindLayer SFSymbolsPreview4D4D4D" d="M23.3472 1.445L69.42 1.445C73.8108 1.445 77.1016 0.3496 79.3924-1.9412C81.6832-4.232 82.7786-7.4546 82.7786-11.7772L82.7786-58.1228C82.7786-62.4454 81.6832-65.7362 79.3924-67.9588C77.1016-70.2496 73.8108-71.345 69.42-71.345L23.3472-71.345C19.0246-71.345 15.7338-70.2496 13.443-67.9588C11.1522-65.668 10.0568-62.4454 10.0568-58.1228L10.0568-11.7772C10.0568-7.4546 11.1522-4.1638 13.443-1.9412C15.7338 0.3496 19.0246 1.445 23.3472 1.445ZM24.115-7.881C22.5376-7.881 21.3966-8.3174 20.5238-9.0902C19.651-9.863 19.3146-11.104 19.3146-12.7814L19.3146-57.2186C19.3146-58.8278 19.751-60.0688 20.5238-60.9098C21.3966-61.6826 22.5376-62.0872 24.115-62.0872L68.6204-62.0872C70.1978-62.0872 71.3706-61.6826 72.2116-60.9098C73.0526-60.137 73.4208-58.896 73.4208-57.2186L73.4208-12.7814C73.4208-11.104 72.9844-9.9312 72.2116-9.0902C71.3706-8.3174 70.1978-7.881 68.6204-7.881L24.115-7.881Z"/>
  </g>
  <g id="Medium-S" transform="matrix(1 0 0 1 1700.5 696)">
   <path class="hierarchical-0:primary SFSymbolsPreview212121" d="M62.6102-56.216C62.6102-56.216 59.9642-57.098 53.7722-52.97C51.2262-53.652 48.4622-54.052 45.7162-54.052C42.9702-54.052 40.2242-53.652 37.6602-52.97C31.5682-57.098 28.8222-56.216 28.8222-56.216C27.0582-51.706 28.2402-48.46 28.5222-47.678C26.4582-45.414 25.1762-42.568 25.1762-39.04C25.1762-26.756 32.6322-23.91 39.8062-23.128C38.8242-22.346 38.0422-20.864 37.7422-18.8C35.8782-18.018 31.2682-16.636 28.4042-21.546C28.4042-21.546 26.7402-24.692 23.4942-24.892C23.4942-24.892 20.3482-24.892 23.2942-22.928C23.2942-22.928 25.4582-21.946 26.9222-18.218C26.9222-18.218 28.7862-11.926 37.7242-13.89C37.8242-11.144 37.8242-8.396 37.8242-7.614C37.8242-7.414 37.3242-6.432 37.2242-6.232C39.7702-5.55 43.0162-5.432 45.6622-5.35C48.5082-5.35 51.9542-6.05 54.5002-6.732C54.4002-6.932 53.7182-8.014 53.7182-8.214C53.7182-9.196 53.7182-12.844 53.7182-17.154C53.7182-20.2 52.7362-22.164 51.5542-23.146C58.7282-24.028 66.1842-26.674 66.1842-39.058C66.1842-42.586 64.9022-45.45 62.8382-47.696C63.1922-48.46 64.3742-51.806 62.6102-56.216Z"/>
   <path class="hierarchical-1:secondary clearBehindLayer SFSymbolsPreview4D4D4D" d="M22.9622 1.1L69.0902 1.1C73.3982 1.1 76.6062 0.046 78.8142-2.162C81.0222-4.37 82.0762-7.496 82.0762-11.722L82.0762-58.178C82.0762-62.404 81.0222-65.612 78.8142-67.738C76.6062-69.946 73.3982-71 69.0902-71L22.9622-71C18.7362-71 15.5282-69.946 13.3202-67.738C11.1122-65.53 10.0582-62.404 10.0582-58.178L10.0582-11.722C10.0582-7.496 11.1122-4.288 13.3202-2.162C15.5282 0.046 18.7362 1.1 22.9622 1.1ZM23.4402-7.26C21.7662-7.26 20.5562-7.724 19.6282-8.552C18.7002-9.38 18.3362-10.69 18.3362-12.464L18.3362-57.536C18.3362-59.228 18.8002-60.538 19.6282-61.448C20.5562-62.276 21.7662-62.722 23.4402-62.722L68.5942-62.722C70.2682-62.722 71.4962-62.276 72.4062-61.448C73.3162-60.62 73.6982-59.31 73.6982-57.536L73.6982-12.464C73.6982-10.69 73.2342-9.462 72.4062-8.552C71.4962-7.724 70.2682-7.26 68.5942-7.26L23.4402-7.26Z"/>
  </g>
  <g id="Regular-S" transform="matrix(1 0 0 1 1404.24 696)">
   <path class="hierarchical-0:primary SFSymbolsPreview212121" d="M62.36-56.45C62.36-56.45 59.66-57.35 53.36-53.15C50.76-53.85 47.96-54.25 45.16-54.25C42.36-54.25 39.56-53.85 36.96-53.15C30.76-57.35 27.96-56.45 27.96-56.45C26.16-51.85 27.36-48.55 27.66-47.75C25.56-45.45 24.26-42.55 24.26-38.95C24.26-26.45 31.86-23.55 39.16-22.75C38.16-21.95 37.36-20.45 37.06-18.35C35.16-17.55 30.46-16.15 27.56-21.15C27.56-21.15 25.86-24.35 22.56-24.55C22.56-24.55 19.36-24.55 22.36-22.55C22.36-22.55 24.56-21.55 26.06-17.75C26.06-17.75 27.96-11.35 37.06-13.35C37.16-10.55 37.16-7.55 37.16-6.75C37.16-6.55 36.66-5.55 36.56-5.35C39.16-4.65 42.46-4.55 45.16-4.45C48.06-4.45 51.56-5.15 54.16-5.85C54.06-6.05 53.36-7.15 53.36-7.35C53.36-8.35 53.36-12.25 53.36-16.65C53.36-19.75 52.36-21.75 51.16-22.75C58.46-23.65 66.06-26.35 66.06-38.95C66.06-42.55 64.76-45.45 62.66-47.75C62.96-48.55 64.16-51.95 62.36-56.45Z"/>
   <path class="hierarchical-1:secondary clearBehindLayer SFSymbolsPreview4D4D4D" d="M22.46 0.65L68.66 0.65C72.86 0.65 75.96-0.35 78.06-2.45C80.16-4.55 81.16-7.55 81.16-11.65L81.16-58.25C81.16-62.35 80.16-65.45 78.06-67.45C75.96-69.55 72.86-70.55 68.66-70.55L22.46-70.55C18.36-70.55 15.26-69.55 13.16-67.45C11.06-65.35 10.06-62.35 10.06-58.25L10.06-11.65C10.06-7.55 11.06-4.45 13.16-2.45C15.26-0.35 18.36 0.65 22.46 0.65ZM22.56-6.45C20.76-6.45 19.46-6.95 18.46-7.85C17.46-8.75 17.06-10.15 17.06-12.05L17.06-57.95C17.06-59.75 17.56-61.15 18.46-62.15C19.46-63.05 20.76-63.55 22.56-63.55L68.56-63.55C70.36-63.55 71.66-63.05 72.66-62.15C73.66-61.25 74.06-59.85 74.06-57.95L74.06-12.05C74.06-10.15 73.56-8.85 72.66-7.85C71.66-6.95 70.36-6.45 68.56-6.45L22.56-6.45Z"/>
  </g>
  <g id="Light-S" transform="matrix(1 0 0 1 1108.2 696)">
   <path class="hierarchical-0:primary SFSymbolsPreview212121" d="M61.7073-56.4167C61.7073-56.4167 59.0073-57.3167 52.7073-53.1167C50.1073-53.8167 47.3073-54.2167 44.5073-54.2167C41.7073-54.2167 38.9073-53.8167 36.3073-53.1167C30.1073-57.3167 27.3073-56.4167 27.3073-56.4167C25.5073-51.8167 26.7073-48.5167 27.0073-47.7167C24.9073-45.4167 23.6073-42.5167 23.6073-38.9167C23.6073-26.4167 31.2073-23.5167 38.5073-22.7167C37.5073-21.9167 36.7073-20.4167 36.4073-18.3167C34.5073-17.5167 29.8073-16.1167 26.9073-21.1167C26.9073-21.1167 25.2073-24.3167 21.9073-24.5167C21.9073-24.5167 18.7073-24.5167 21.7073-22.5167C21.7073-22.5167 23.9073-21.5167 25.4073-17.7167C25.4073-17.7167 27.3073-11.3167 36.4073-13.3167C36.5073-10.5167 36.5073-6.85 36.5073-6.05C36.5073-5.85 36.0073-4.85 35.9073-4.65C38.5073-3.95 41.8073-3.85 44.5073-3.75C47.4073-3.75 50.9073-4.11667 53.5073-4.81667C53.4073-5.01667 52.7073-6.45 52.7073-6.65C52.7073-7.65 52.7073-12.2167 52.7073-16.6167C52.7073-19.7167 51.7073-21.7167 50.5073-22.7167C57.8073-23.6167 65.4073-26.3167 65.4073-38.9167C65.4073-42.5167 64.1073-45.4167 62.0073-47.7167C62.3073-48.5167 63.5073-51.9167 61.7073-56.4167Z"/>
   <path class="hierarchical-1:secondary clearBehindLayer SFSymbolsPreview4D4D4D" d="M21.6407-0.0166667L68.174-0.0166667C72.074-0.0166667 74.974-0.983333 76.9407-2.95C78.9073-4.91667 79.8407-7.75 79.8407-11.55L79.8407-58.35C79.8407-62.15 78.9073-65.05 76.9407-66.95C74.974-68.9167 72.074-69.8833 68.174-69.8833L21.6407-69.8833C17.8073-69.8833 14.9073-68.95 12.9407-66.9833C10.974-65.0167 10.0407-62.1833 10.0407-58.3833L10.0407-11.5833C10.0407-7.75 10.974-4.85 12.9407-2.95C14.9073-0.95 17.8073-0.0166667 21.6407-0.0166667ZM21.7407-5.48333C19.674-5.48333 18.1407-6.05 17.0407-7.08333C15.9407-8.11667 15.4407-9.71667 15.4407-11.85L15.4407-58.1167C15.4407-60.1833 16.0073-61.7833 17.0407-62.8833C18.1407-63.9167 19.674-64.4833 21.7407-64.4833L68.074-64.4833C70.1073-64.4833 71.6407-63.9167 72.774-62.8833C73.9073-61.85 74.4073-60.25 74.4073-58.1167L74.4073-11.85C74.4073-9.71667 73.8407-8.18333 72.774-7.08333C71.6407-6.05 70.1407-5.48333 68.074-5.48333L21.7407-5.48333Z"/>
  </g>
  <g id="Thin-S" transform="matrix(1 0 0 1 812.371 696)">
   <path class="hierarchical-0:primary SFSymbolsPreview212121" d="M60.8441-56.3726C60.8441-56.3726 58.1441-57.2726 51.8441-53.0726C49.2441-53.7726 46.4441-54.1726 43.6441-54.1726C40.8441-54.1726 38.0441-53.7726 35.4441-53.0726C29.2441-57.2726 26.4441-56.3726 26.4441-56.3726C24.6441-51.7726 25.8441-48.4726 26.1441-47.6726C24.0441-45.3726 22.7441-42.4726 22.7441-38.8726C22.7441-26.3726 30.3441-23.4726 37.6441-22.6726C36.6441-21.8726 35.8441-20.3726 35.5441-18.2726C33.6441-17.4726 28.9441-16.0726 26.0441-21.0726C26.0441-21.0726 24.3441-24.2726 21.0441-24.4726C21.0441-24.4726 17.8441-24.4726 20.8441-22.4726C20.8441-22.4726 23.0441-21.4726 24.5441-17.6726C24.5441-17.6726 26.4441-11.2726 35.5441-13.2726C35.6441-10.4726 35.6441-5.92419 35.6441-5.12419C35.6441-4.92419 35.1441-3.92419 35.0441-3.72419C37.6441-3.02419 40.9441-2.92419 43.6441-2.82419C46.5441-2.82419 50.0441-2.75 52.6441-3.45C52.5441-3.65 51.8441-5.52419 51.8441-5.72419C51.8441-6.72419 51.8441-12.1726 51.8441-16.5726C51.8441-19.6726 50.8441-21.6726 49.6441-22.6726C56.9441-23.5726 64.5441-26.2726 64.5441-38.8726C64.5441-42.4726 63.2441-45.3726 61.1441-47.6726C61.4441-48.4726 62.6441-51.8726 60.8441-56.3726Z"/>
   <path class="hierarchical-1:secondary clearBehindLayer SFSymbolsPreview4D4D4D" d="M20.557-0.898387L67.5312-0.898387C71.0345-0.898387 73.6699-1.82097 75.4603-3.61129C77.2506-5.40161 78.0957-8.01452 78.0957-11.4177L78.0957-58.4823C78.0957-61.8855 77.2506-64.521 75.4603-66.2887C73.6699-68.079 71.0345-69.0016 67.5312-69.0016L20.557-69.0016C17.0764-69.0016 14.4409-68.1565 12.6506-66.3661C10.8603-64.5758 10.0151-61.9629 10.0151-58.5597L10.0151-11.4952C10.0151-8.01452 10.8603-5.37903 12.6506-3.61129C14.4409-1.74355 17.0764-0.898387 20.557-0.898387ZM20.657-4.20484C18.2377-4.20484 16.3957-4.85968 15.1635-6.06935C13.9312-7.27903 13.299-9.14355 13.299-11.5855L13.299-58.3371C13.299-60.7565 13.9538-62.621 15.1635-63.8532C16.3957-65.0629 18.2377-65.7177 20.657-65.7177L67.4312-65.7177C69.7732-65.7177 71.6151-65.0629 72.9248-63.8532C74.2345-62.6435 74.8667-60.779 74.8667-58.3371L74.8667-11.5855C74.8667-9.14355 74.2119-7.30161 72.9248-6.06935C71.6151-4.85968 69.8506-4.20484 67.4312-4.20484L20.657-4.20484Z"/>
  </g>
  <g id="Ultralight-S" transform="matrix(1 0 0 1 516.111 696)">
   <path class="hierarchical-0:primary SFSymbolsPreview212121" d="M60.402-56.35C60.402-56.35 57.702-57.25 51.402-53.05C48.802-53.75 46.002-54.15 43.202-54.15C40.402-54.15 37.602-53.75 35.002-53.05C28.802-57.25 26.002-56.35 26.002-56.35C24.202-51.75 25.402-48.45 25.702-47.65C23.602-45.35 22.302-42.45 22.302-38.85C22.302-26.35 29.902-23.45 37.202-22.65C36.202-21.85 35.402-20.35 35.102-18.25C33.202-17.45 28.502-16.05 25.602-21.05C25.602-21.05 23.902-24.25 20.602-24.45C20.602-24.45 17.402-24.45 20.402-22.45C20.402-22.45 22.602-21.45 24.102-17.65C24.102-17.65 26.002-11.25 35.102-13.25C35.202-10.45 35.202-5.45 35.202-4.65C35.202-4.45 34.702-3.45 34.602-3.25C37.202-2.55 40.502-2.45 43.202-2.35C46.102-2.35 49.602-2.05 52.202-2.75C52.102-2.95 51.402-5.05 51.402-5.25C51.402-6.25 51.402-12.15 51.402-16.55C51.402-19.65 50.402-21.65 49.202-22.65C56.502-23.55 64.102-26.25 64.102-38.85C64.102-42.45 62.802-45.35 60.702-47.65C61.002-48.45 62.202-51.85 60.402-56.35Z"/>
   <path class="hierarchical-1:secondary clearBehindLayer SFSymbolsPreview4D4D4D" d="M20.002-1.35L67.202-1.35C70.502-1.35 73.002-2.25 74.702-3.95C76.402-5.65 77.202-8.15 77.202-11.35L77.202-58.55C77.202-61.75 76.402-64.25 74.702-65.95C73.002-67.65 70.502-68.55 67.202-68.55L20.002-68.55C16.702-68.55 14.202-67.75 12.502-66.05C10.802-64.35 10.002-61.85 10.002-58.65L10.002-11.45C10.002-8.15 10.802-5.65 12.502-3.95C14.202-2.15 16.702-1.35 20.002-1.35ZM20.102-3.55C17.502-3.55 15.502-4.25 14.202-5.55C12.902-6.85 12.202-8.85 12.202-11.45L12.202-58.45C12.202-61.05 12.902-63.05 14.202-64.35C15.502-65.65 17.502-66.35 20.102-66.35L67.102-66.35C69.602-66.35 71.602-65.65 73.002-64.35C74.402-63.05 75.102-61.05 75.102-58.45L75.102-11.45C75.102-8.85 74.402-6.85 73.002-5.55C71.602-4.25 69.702-3.55 67.102-3.55L20.102-3.55Z"/>
  </g>
 </g>
</svg>
