<?xml version="1.0" encoding="UTF-8"?>
<!--Generator: Apple Native CoreSVG 149-->
<!DOCTYPE svg
PUBLIC "-//W3C//DTD SVG 1.1//EN"
       "http://www.w3.org/Graphics/SVG/1.1/DTD/svg11.dtd">
<svg version="1.1" xmlns="http://www.w3.org/2000/svg" xmlns:xlink="http://www.w3.org/1999/xlink" width="3300" height="2200">
 <!--glyph: "", point size: 100.0, font version: "17.0d9e1", template writer version: "59"-->
 <style>.multicolor-0:systemCyanColor {fill:#55BEF0;opacity:1.0}
.multicolor-1:systemBlueColor {fill:#007AFF;opacity:1.0}
.multicolor-2:tintColor {fill:#007AFF;opacity:1.0}

.hierarchical-0:tertiary {fill:#8E8E8E}
.hierarchical-1:secondary {fill:#4D4D4D}
.hierarchical-2:primary {fill:#212121}

.SFSymbolsPreview007AFF {fill:#007AFF;opacity:1.0}
.SFSymbolsPreview55BEF0 {fill:#55BEF0;opacity:1.0}
</style>
 <g id="Notes">
  <rect height="2200" id="artboard" style="fill:white;opacity:1" width="3300" x="0" y="0"/>
  <line style="fill:none;stroke:black;opacity:1;stroke-width:0.5;" x1="263" x2="3036" y1="292" y2="292"/>
  <text style="stroke:none;fill:black;font-family:sans-serif;font-size:13;font-weight:bold;" transform="matrix(1 0 0 1 263 322)">Weight/Scale Variations</text>
  <text style="stroke:none;fill:black;font-family:sans-serif;font-size:13;text-anchor:middle;" transform="matrix(1 0 0 1 559.711 322)">Ultralight</text>
  <text style="stroke:none;fill:black;font-family:sans-serif;font-size:13;text-anchor:middle;" transform="matrix(1 0 0 1 856.422 322)">Thin</text>
  <text style="stroke:none;fill:black;font-family:sans-serif;font-size:13;text-anchor:middle;" transform="matrix(1 0 0 1 1153.13 322)">Light</text>
  <text style="stroke:none;fill:black;font-family:sans-serif;font-size:13;text-anchor:middle;" transform="matrix(1 0 0 1 1449.84 322)">Regular</text>
  <text style="stroke:none;fill:black;font-family:sans-serif;font-size:13;text-anchor:middle;" transform="matrix(1 0 0 1 1746.56 322)">Medium</text>
  <text style="stroke:none;fill:black;font-family:sans-serif;font-size:13;text-anchor:middle;" transform="matrix(1 0 0 1 2043.27 322)">Semibold</text>
  <text style="stroke:none;fill:black;font-family:sans-serif;font-size:13;text-anchor:middle;" transform="matrix(1 0 0 1 2339.98 322)">Bold</text>
  <text style="stroke:none;fill:black;font-family:sans-serif;font-size:13;text-anchor:middle;" transform="matrix(1 0 0 1 2636.69 322)">Heavy</text>
  <text style="stroke:none;fill:black;font-family:sans-serif;font-size:13;text-anchor:middle;" transform="matrix(1 0 0 1 2933.4 322)">Black</text>
  <line style="fill:none;stroke:black;opacity:1;stroke-width:0.5;" x1="263" x2="3036" y1="1903" y2="1903"/>
  <g transform="matrix(1 0 0 1 263 1933)">
   <path d="M9.24805 0.830078Q10.8691 0.830078 12.2949 0.214844Q13.7207-0.400391 14.8096-1.49414Q15.8984-2.58789 16.5186-4.01367Q17.1387-5.43945 17.1387-7.05078Q17.1387-8.66211 16.5186-10.0879Q15.8984-11.5137 14.8047-12.6074Q13.7109-13.7012 12.2852-14.3164Q10.8594-14.9316 9.23828-14.9316Q7.62695-14.9316 6.20117-14.3164Q4.77539-13.7012 3.69141-12.6074Q2.60742-11.5137 1.9873-10.0879Q1.36719-8.66211 1.36719-7.05078Q1.36719-5.43945 1.9873-4.01367Q2.60742-2.58789 3.69629-1.49414Q4.78516-0.400391 6.21094 0.214844Q7.63672 0.830078 9.24805 0.830078ZM9.24805-0.654297Q7.91992-0.654297 6.7627-1.14746Q5.60547-1.64062 4.73145-2.51953Q3.85742-3.39844 3.36426-4.56055Q2.87109-5.72266 2.87109-7.05078Q2.87109-8.37891 3.35938-9.54102Q3.84766-10.7031 4.72168-11.582Q5.5957-12.4609 6.75293-12.9541Q7.91016-13.4473 9.23828-13.4473Q10.5762-13.4473 11.7334-12.9541Q12.8906-12.4609 13.7695-11.582Q14.6484-10.7031 15.1465-9.54102Q15.6445-8.37891 15.6445-7.05078Q15.6445-5.72266 15.1514-4.56055Q14.6582-3.39844 13.7842-2.51953Q12.9102-1.64062 11.748-1.14746Q10.5859-0.654297 9.24805-0.654297ZM5.83984-7.04102Q5.83984-6.71875 6.04492-6.51855Q6.25-6.31836 6.5918-6.31836L8.50586-6.31836L8.50586-4.39453Q8.50586-4.0625 8.70605-3.85742Q8.90625-3.65234 9.22852-3.65234Q9.56055-3.65234 9.76562-3.85742Q9.9707-4.0625 9.9707-4.39453L9.9707-6.31836L11.8945-6.31836Q12.2266-6.31836 12.4316-6.51855Q12.6367-6.71875 12.6367-7.04102Q12.6367-7.37305 12.4316-7.57812Q12.2266-7.7832 11.8945-7.7832L9.9707-7.7832L9.9707-9.69727Q9.9707-10.0391 9.76562-10.2441Q9.56055-10.4492 9.22852-10.4492Q8.90625-10.4492 8.70605-10.2441Q8.50586-10.0391 8.50586-9.69727L8.50586-7.7832L6.5918-7.7832Q6.25-7.7832 6.04492-7.57812Q5.83984-7.37305 5.83984-7.04102Z"/>
  </g>
  <g transform="matrix(1 0 0 1 281.867 1933)">
   <path d="M11.709 2.91016Q13.75 2.91016 15.5518 2.12891Q17.3535 1.34766 18.7305-0.0292969Q20.1074-1.40625 20.8887-3.20801Q21.6699-5.00977 21.6699-7.05078Q21.6699-9.0918 20.8887-10.8936Q20.1074-12.6953 18.7305-14.0723Q17.3535-15.4492 15.5469-16.2305Q13.7402-17.0117 11.6992-17.0117Q9.6582-17.0117 7.85645-16.2305Q6.05469-15.4492 4.68262-14.0723Q3.31055-12.6953 2.5293-10.8936Q1.74805-9.0918 1.74805-7.05078Q1.74805-5.00977 2.5293-3.20801Q3.31055-1.40625 4.6875-0.0292969Q6.06445 1.34766 7.86621 2.12891Q9.66797 2.91016 11.709 2.91016ZM11.709 1.25Q9.98047 1.25 8.47656 0.605469Q6.97266-0.0390625 5.83496-1.17676Q4.69727-2.31445 4.05762-3.81836Q3.41797-5.32227 3.41797-7.05078Q3.41797-8.7793 4.05762-10.2832Q4.69727-11.7871 5.83008-12.9297Q6.96289-14.0723 8.4668-14.7119Q9.9707-15.3516 11.6992-15.3516Q13.4277-15.3516 14.9316-14.7119Q16.4355-14.0723 17.5781-12.9297Q18.7207-11.7871 19.3652-10.2832Q20.0098-8.7793 20.0098-7.05078Q20.0098-5.32227 19.3701-3.81836Q18.7305-2.31445 17.5928-1.17676Q16.4551-0.0390625 14.9463 0.605469Q13.4375 1.25 11.709 1.25ZM7.39258-7.04102Q7.39258-6.68945 7.62695-6.46484Q7.86133-6.24023 8.23242-6.24023L10.8789-6.24023L10.8789-3.57422Q10.8789-3.21289 11.1035-2.9834Q11.3281-2.75391 11.6797-2.75391Q12.0508-2.75391 12.2852-2.9834Q12.5195-3.21289 12.5195-3.57422L12.5195-6.24023L15.1758-6.24023Q15.5371-6.24023 15.7715-6.46484Q16.0059-6.68945 16.0059-7.04102Q16.0059-7.41211 15.7715-7.6416Q15.5371-7.87109 15.1758-7.87109L12.5195-7.87109L12.5195-10.5176Q12.5195-10.8984 12.2852-11.1279Q12.0508-11.3574 11.6797-11.3574Q11.3281-11.3574 11.1035-11.1279Q10.8789-10.8984 10.8789-10.5176L10.8789-7.87109L8.23242-7.87109Q7.85156-7.87109 7.62207-7.6416Q7.39258-7.41211 7.39258-7.04102Z"/>
  </g>
  <g transform="matrix(1 0 0 1 305.646 1933)">
   <path d="M14.9707 5.66406Q17.0605 5.66406 18.96 5.01465Q20.8594 4.36523 22.4512 3.19336Q24.043 2.02148 25.2197 0.429688Q26.3965-1.16211 27.0459-3.06641Q27.6953-4.9707 27.6953-7.05078Q27.6953-9.14062 27.0459-11.04Q26.3965-12.9395 25.2197-14.5312Q24.043-16.123 22.4512-17.2998Q20.8594-18.4766 18.9551-19.126Q17.0508-19.7754 14.9609-19.7754Q12.8711-19.7754 10.9717-19.126Q9.07227-18.4766 7.48535-17.2998Q5.89844-16.123 4.72168-14.5312Q3.54492-12.9395 2.90039-11.04Q2.25586-9.14062 2.25586-7.05078Q2.25586-4.9707 2.90527-3.06641Q3.55469-1.16211 4.72656 0.429688Q5.89844 2.02148 7.49023 3.19336Q9.08203 4.36523 10.9814 5.01465Q12.8809 5.66406 14.9707 5.66406ZM14.9707 3.84766Q13.1641 3.84766 11.5283 3.2959Q9.89258 2.74414 8.53516 1.74805Q7.17773 0.751953 6.17676-0.610352Q5.17578-1.97266 4.62891-3.6084Q4.08203-5.24414 4.08203-7.05078Q4.08203-8.86719 4.62891-10.5029Q5.17578-12.1387 6.17188-13.501Q7.16797-14.8633 8.52539-15.8594Q9.88281-16.8555 11.5186-17.4023Q13.1543-17.9492 14.9609-17.9492Q16.7773-17.9492 18.4131-17.4023Q20.0488-16.8555 21.4111-15.8594Q22.7734-14.8633 23.7695-13.501Q24.7656-12.1387 25.3174-10.5029Q25.8691-8.86719 25.8691-7.05078Q25.8789-5.24414 25.332-3.6084Q24.7852-1.97266 23.7842-0.610352Q22.7832 0.751953 21.4209 1.74805Q20.0586 2.74414 18.4229 3.2959Q16.7871 3.84766 14.9707 3.84766ZM9.45312-7.04102Q9.45312-6.66016 9.71191-6.41113Q9.9707-6.16211 10.3711-6.16211L14.0625-6.16211L14.0625-2.46094Q14.0625-2.06055 14.3115-1.80664Q14.5605-1.55273 14.9414-1.55273Q15.3516-1.55273 15.6055-1.80664Q15.8594-2.06055 15.8594-2.46094L15.8594-6.16211L19.5605-6.16211Q19.9609-6.16211 20.2148-6.41113Q20.4688-6.66016 20.4688-7.04102Q20.4688-7.45117 20.2148-7.70508Q19.9609-7.95898 19.5605-7.95898L15.8594-7.95898L15.8594-11.6504Q15.8594-12.0605 15.6055-12.3145Q15.3516-12.5684 14.9414-12.5684Q14.5605-12.5684 14.3115-12.3096Q14.0625-12.0508 14.0625-11.6504L14.0625-7.95898L10.3711-7.95898Q9.96094-7.95898 9.70703-7.70508Q9.45312-7.45117 9.45312-7.04102Z"/>
  </g>
  <text style="stroke:none;fill:black;font-family:sans-serif;font-size:13;font-weight:bold;" transform="matrix(1 0 0 1 263 1953)">Design Variations</text>
  <text style="stroke:none;fill:black;font-family:sans-serif;font-size:13;" transform="matrix(1 0 0 1 263 1971)">Symbols are supported in up to nine weights and three scales.</text>
  <text style="stroke:none;fill:black;font-family:sans-serif;font-size:13;" transform="matrix(1 0 0 1 263 1989)">For optimal layout with text and other symbols, vertically align</text>
  <text style="stroke:none;fill:black;font-family:sans-serif;font-size:13;" transform="matrix(1 0 0 1 263 2007)">symbols with the adjacent text.</text>
  <line style="fill:none;stroke:#00AEEF;stroke-width:0.5;opacity:1.0;" x1="776" x2="776" y1="1919" y2="1933"/>
  <g transform="matrix(1 0 0 1 776 1933)">
   <path d="M3.31055 0.15625Q3.70117 0.15625 3.91602-0.00976562Q4.13086-0.175781 4.26758-0.585938L5.52734-4.0332L11.2891-4.0332L12.5488-0.585938Q12.6855-0.175781 12.9004-0.00976562Q13.1152 0.15625 13.4961 0.15625Q13.8867 0.15625 14.1162-0.0585938Q14.3457-0.273438 14.3457-0.644531Q14.3457-0.869141 14.2383-1.17188L9.6582-13.3691Q9.48242-13.8184 9.17969-14.043Q8.87695-14.2676 8.4082-14.2676Q7.5-14.2676 7.17773-13.3789L2.59766-1.16211Q2.49023-0.859375 2.49023-0.634766Q2.49023-0.263672 2.70996-0.0537109Q2.92969 0.15625 3.31055 0.15625ZM6.00586-5.51758L8.37891-12.0898L8.42773-12.0898L10.8008-5.51758Z"/>
  </g>
  <line style="fill:none;stroke:#00AEEF;stroke-width:0.5;opacity:1.0;" x1="793.197" x2="793.197" y1="1919" y2="1933"/>
  <text style="stroke:none;fill:black;font-family:sans-serif;font-size:13;font-weight:bold;" transform="matrix(1 0 0 1 776 1953)">Margins</text>
  <text style="stroke:none;fill:black;font-family:sans-serif;font-size:13;" transform="matrix(1 0 0 1 776 1971)">Leading and trailing margins on the left and right side of each symbol</text>
  <text style="stroke:none;fill:black;font-family:sans-serif;font-size:13;" transform="matrix(1 0 0 1 776 1989)">can be adjusted by modifying the x-location of the margin guidelines.</text>
  <text style="stroke:none;fill:black;font-family:sans-serif;font-size:13;" transform="matrix(1 0 0 1 776 2007)">Modifications are automatically applied proportionally to all</text>
  <text style="stroke:none;fill:black;font-family:sans-serif;font-size:13;" transform="matrix(1 0 0 1 776 2025)">scales and weights.</text>
  <g transform="matrix(1 0 0 1 1289 1933)">
   <path d="M2.8418 1.86523L4.54102 3.57422Q5.18555 4.22852 5.90332 4.17969Q6.62109 4.13086 7.31445 3.35938L18.0078-8.42773L17.041-9.4043L6.42578 2.27539Q6.16211 2.57812 5.89355 2.61719Q5.625 2.65625 5.27344 2.30469L4.10156 1.14258Q3.75 0.791016 3.79395 0.522461Q3.83789 0.253906 4.14062-0.0195312L15.6152-10.8203L14.6387-11.7871L3.04688-0.898438Q2.30469-0.214844 2.25098 0.498047Q2.19727 1.21094 2.8418 1.86523ZM9.25781-16.3281Q8.94531-16.0254 8.90625-15.6348Q8.86719-15.2441 9.04297-14.9512Q9.21875-14.6777 9.55566-14.541Q9.89258-14.4043 10.3809-14.5215Q11.4746-14.7754 12.5977-14.7314Q13.7207-14.6875 14.7949-13.9844L14.209-12.5293Q13.9551-11.9043 14.0674-11.4404Q14.1797-10.9766 14.5801-10.5664L16.875-8.25195Q17.2363-7.88086 17.5781-7.82227Q17.9199-7.76367 18.3398-7.8418L19.4043-8.03711L20.0684-7.36328L20.0293-6.80664Q20-6.43555 20.1221-6.12305Q20.2441-5.81055 20.6055-5.44922L21.3672-4.70703Q21.7285-4.3457 22.1533-4.33105Q22.5781-4.31641 22.9297-4.66797L25.8398-7.58789Q26.1914-7.93945 26.1816-8.35449Q26.1719-8.76953 25.8105-9.13086L25.0391-9.89258Q24.6875-10.2539 24.3799-10.3857Q24.0723-10.5176 23.7109-10.4883L23.1348-10.4395L22.4902-11.0742L22.7344-12.1973Q22.832-12.6172 22.6953-12.9834Q22.5586-13.3496 22.1191-13.7891L19.9219-15.9766Q18.6719-17.2168 17.2607-17.8369Q15.8496-18.457 14.4189-18.4814Q12.9883-18.5059 11.665-17.959Q10.3418-17.4121 9.25781-16.3281ZM10.752-15.957Q11.6602-16.6211 12.7002-16.9043Q13.7402-17.1875 14.8047-17.085Q15.8691-16.9824 16.8701-16.5137Q17.8711-16.0449 18.7012-15.2051L21.1328-12.793Q21.3086-12.6172 21.3525-12.4512Q21.3965-12.2852 21.3379-12.0312L21.0156-10.5469L22.5195-9.0625L23.5059-9.12109Q23.6914-9.13086 23.7891-9.09668Q23.8867-9.0625 24.0332-8.91602L24.6094-8.33984L22.168-5.89844L21.5918-6.47461Q21.4453-6.62109 21.4062-6.71875Q21.3672-6.81641 21.377-7.01172L21.4453-7.98828L19.9512-9.47266L18.4277-9.21875Q18.1836-9.16992 18.042-9.2041Q17.9004-9.23828 17.7148-9.41406L15.7129-11.416Q15.5176-11.5918 15.4932-11.7529Q15.4688-11.9141 15.5859-12.1875L16.4648-14.2773Q15.293-15.3711 13.8281-15.791Q12.3633-16.2109 10.8398-15.7617Q10.7227-15.7324 10.6885-15.8057Q10.6543-15.8789 10.752-15.957Z"/>
  </g>
  <text style="stroke:none;fill:black;font-family:sans-serif;font-size:13;font-weight:bold;" transform="matrix(1 0 0 1 1289 1953)">Exporting</text>
  <text style="stroke:none;fill:black;font-family:sans-serif;font-size:13;" transform="matrix(1 0 0 1 1289 1971)">Symbols should be outlined when exporting to ensure the</text>
  <text style="stroke:none;fill:black;font-family:sans-serif;font-size:13;" transform="matrix(1 0 0 1 1289 1989)">design is preserved when submitting to Xcode.</text>
  <text id="template-version" style="stroke:none;fill:black;font-family:sans-serif;font-size:13;text-anchor:end;" transform="matrix(1 0 0 1 3036 1933)">Template v.3.0</text>
  <text style="stroke:none;fill:black;font-family:sans-serif;font-size:13;text-anchor:end;" transform="matrix(1 0 0 1 3036 1951)">Requires Xcode 13 or greater</text>
  <text id="descriptive-name" style="stroke:none;fill:black;font-family:sans-serif;font-size:13;text-anchor:end;" transform="matrix(1 0 0 1 3036 1969)">Generated from logo.paypal.square</text>
  <text style="stroke:none;fill:black;font-family:sans-serif;font-size:13;text-anchor:end;" transform="matrix(1 0 0 1 3036 1987)">Typeset at 100 points</text>
  <text style="stroke:none;fill:black;font-family:sans-serif;font-size:13;" transform="matrix(1 0 0 1 263 726)">Small</text>
  <text style="stroke:none;fill:black;font-family:sans-serif;font-size:13;" transform="matrix(1 0 0 1 263 1156)">Medium</text>
  <text style="stroke:none;fill:black;font-family:sans-serif;font-size:13;" transform="matrix(1 0 0 1 263 1586)">Large</text>
 </g>
 <g id="Guides">
  <g id="H-reference" style="fill:#27AAE1;stroke:none;" transform="matrix(1 0 0 1 339 696)">
   <path d="M0.976562 0L3.66211 0L29.3457-67.1387L30.0293-67.1387L30.0293-70.459L28.125-70.459ZM11.6699-24.4629L46.9727-24.4629L46.2402-26.709L12.4512-26.709ZM55.127 0L57.7637 0L30.6152-70.459L29.4434-70.459L29.4434-67.1387Z"/>
  </g>
  <line id="Baseline-S" style="fill:none;stroke:#27AAE1;opacity:1;stroke-width:0.5;" x1="263" x2="3036" y1="696" y2="696"/>
  <line id="Capline-S" style="fill:none;stroke:#27AAE1;opacity:1;stroke-width:0.5;" x1="263" x2="3036" y1="625.541" y2="625.541"/>
  <g id="H-reference" style="fill:#27AAE1;stroke:none;" transform="matrix(1 0 0 1 339 1126)">
   <path d="M0.976562 0L3.66211 0L29.3457-67.1387L30.0293-67.1387L30.0293-70.459L28.125-70.459ZM11.6699-24.4629L46.9727-24.4629L46.2402-26.709L12.4512-26.709ZM55.127 0L57.7637 0L30.6152-70.459L29.4434-70.459L29.4434-67.1387Z"/>
  </g>
  <line id="Baseline-M" style="fill:none;stroke:#27AAE1;opacity:1;stroke-width:0.5;" x1="263" x2="3036" y1="1126" y2="1126"/>
  <line id="Capline-M" style="fill:none;stroke:#27AAE1;opacity:1;stroke-width:0.5;" x1="263" x2="3036" y1="1055.54" y2="1055.54"/>
  <g id="H-reference" style="fill:#27AAE1;stroke:none;" transform="matrix(1 0 0 1 339 1556)">
   <path d="M0.976562 0L3.66211 0L29.3457-67.1387L30.0293-67.1387L30.0293-70.459L28.125-70.459ZM11.6699-24.4629L46.9727-24.4629L46.2402-26.709L12.4512-26.709ZM55.127 0L57.7637 0L30.6152-70.459L29.4434-70.459L29.4434-67.1387Z"/>
  </g>
  <line id="Baseline-L" style="fill:none;stroke:#27AAE1;opacity:1;stroke-width:0.5;" x1="263" x2="3036" y1="1556" y2="1556"/>
  <line id="Capline-L" style="fill:none;stroke:#27AAE1;opacity:1;stroke-width:0.5;" x1="263" x2="3036" y1="1485.54" y2="1485.54"/>
  <line id="left-margin-Regular-M" style="fill:none;stroke:#00AEEF;stroke-width:0.5;opacity:1.0;" x1="1392.12" x2="1392.12" y1="1030.73" y2="1150.14"/>
  <line id="right-margin-Regular-M" style="fill:none;stroke:#00AEEF;stroke-width:0.5;opacity:1.0;" x1="1507.57" x2="1507.57" y1="1030.73" y2="1150.14"/>
 </g>
 <g id="Symbols">
  <g id="Black-L" transform="matrix(1 0 0 1 2855.3 1556)">
   <path class="multicolor-0:systemCyanColor hierarchical-1:secondary SFSymbolsPreview55BEF0" d="M102.01-48.5907L102.01-48.5907L102.01-48.5907C102.01-48.2613 101.846-47.7672 101.846-47.4378C99.2105-33.7677 90.152-29.1561 78.623-29.1561L72.6938-29.1561C71.2115-29.1561 70.0586-28.1679 69.8939-26.6856L69.8939-26.6856L69.8939-26.6856L66.8097-7.5804L65.9437-2.1453C65.779-1.1571 66.4378-0.3336 67.426-0.3336L77.9668-0.3336C79.2844-0.3336 80.2726-1.1571 80.4373-2.4747L80.602-2.9688L82.5784-15.486L82.7431-16.1448C82.9078-17.2977 84.0607-18.2859 85.2136-18.2859L86.6959-18.2859C96.9073-18.2859 104.813-22.4034 107.119-34.2618C108.107-39.2028 107.613-43.3203 104.978-46.2849C104.151-47.2731 103.163-48.0966 102.01-48.5907Z"/>
   <path class="multicolor-1:systemBlueColor hierarchical-2:primary SFSymbolsPreview007AFF" d="M98.0576-52.7082C98.0576-52.3788 97.8929-51.8847 97.8929-51.5553C95.2577-37.8852 86.1992-33.2736 74.6702-33.2736L68.741-33.2736C67.2587-33.2736 66.1058-32.2854 65.9411-30.8031L66.1058-31.4619L62.9765-11.6979L50.3848-11.6979C49.3966-11.6979 48.5731-12.6861 48.7378-13.6743L57.1375-66.7077C57.3022-68.0253 58.6198-69.1782 59.9374-69.1782L80.0308-69.1782C86.9482-69.1782 92.3833-67.6959 95.3479-64.2372C98.0576-61.1079 98.7164-57.6492 98.0576-52.7082Z"/>
   <path class="multicolor-2:tintColor hierarchical-0:tertiary SFSymbolsPreview007AFF" d="M40.2642 26.815L115.903 26.815C123.515 26.815 129.322 24.8118 133.488 20.6459C137.654 16.4801 139.655 10.7149 139.655 3.14864L139.655-72.6604C139.655-80.2267 137.654-86.0343 133.488-90.1577C129.322-94.3236 123.515-96.3268 115.903-96.3268L40.2642-96.3268C32.6952-96.3268 26.8876-94.3262 22.7218-90.1604C18.5559-85.9945 16.5553-80.2294 16.5553-72.6631L16.5553 3.146C16.5553 10.7149 18.5559 16.5225 22.7218 20.6459C26.8876 24.8144 32.6952 26.815 40.2642 26.815ZM42.9408 6.87725C40.7925 6.87725 39.231 6.28772 38.0546 5.27335C36.8781 4.25897 36.4507 2.53545 36.4507 0.225024L36.4507-69.8989C36.4507-72.1669 37.0402-73.8904 38.0546-74.9472C39.231-75.9616 40.7925-76.4315 42.9408-76.4315L113.107-76.4315C115.253-76.4315 116.934-75.9616 117.993-74.9472C119.053-73.9328 119.6-72.2093 119.6-69.8989L119.6 0.225024C119.6 2.53545 119.01 4.21653 117.993 5.27335C116.934 6.28772 115.256 6.87725 113.107 6.87725C113.107 6.87725 42.9408 6.87725 42.9408 6.87725Z"/>
  </g>
  <g id="Heavy-L" transform="matrix(1 0 0 1 2559.5 1556)">
   <path class="multicolor-0:systemCyanColor hierarchical-1:secondary SFSymbolsPreview55BEF0" d="M101.117-48.5907L101.117-48.5907L101.117-48.5907C101.117-48.2613 100.952-47.7672 100.952-47.4378C98.3171-33.7677 89.2586-29.1561 77.7296-29.1561L71.8004-29.1561C70.3181-29.1561 69.1652-28.1679 69.0005-26.6856L69.0005-26.6856L69.0005-26.6856L65.9446-7.5804L65.0601-2.1453C64.8954-1.1571 65.5542-0.3336 66.5424-0.3336L77.0832-0.3336C78.4008-0.3336 79.389-1.1571 79.5537-2.4747L79.7184-2.9688L81.6948-15.486L81.8595-16.1448C82.0242-17.2977 83.1771-18.2859 84.33-18.2859L85.8123-18.2859C96.0237-18.2859 103.929-22.4034 106.235-34.2618C107.223-39.2028 106.729-43.3203 104.094-46.2849C103.258-47.2731 102.27-48.0966 101.117-48.5907Z"/>
   <path class="multicolor-1:systemBlueColor hierarchical-2:primary SFSymbolsPreview007AFF" d="M97.1642-52.7082C97.1642-52.3788 96.9995-51.8847 96.9995-51.5553C94.3643-37.8852 85.3058-33.2736 73.7768-33.2736L67.8476-33.2736C66.3653-33.2736 65.2124-32.2854 65.0477-30.8031L65.2124-31.4619L62.0831-11.6979L49.5479-11.6979C48.5597-11.6979 47.7362-12.6861 47.9009-13.6743L56.3006-66.7077C56.4653-68.0253 57.7829-69.1782 59.1005-69.1782L79.1939-69.1782C86.1113-69.1782 91.5464-67.6959 94.511-64.2372C97.1642-61.1079 97.823-57.6492 97.1642-52.7082Z"/>
   <path class="multicolor-2:tintColor hierarchical-0:tertiary SFSymbolsPreview007AFF" d="M39.2375 25.9148L115.087 25.9148C122.441 25.9148 128.021 24.006 131.979 20.0484C135.936 16.0908 137.833 10.5719 137.833 3.29073L137.833-72.8025C137.833-80.0837 135.936-85.6636 131.979-89.5602C128.021-93.5178 122.441-95.4266 115.087-95.4266L39.2375-95.4266C31.944-95.4266 26.3641-93.5301 22.4065-89.5725C18.449-85.615 16.5525-80.0961 16.5525-72.8149L16.5525 3.27837C16.5525 10.5719 18.449 16.1518 22.4065 20.0484C26.3641 24.0183 31.944 25.9148 39.2375 25.9148ZM41.3213 8.42964C38.8976 8.42964 37.1269 7.76419 35.8083 6.598C34.4898 5.4318 33.9767 3.50877 33.9767 0.93266L33.9767-70.5968C33.9767-73.112 34.6421-75.035 35.8083-76.2621C37.1269-77.4283 38.8976-78.0024 41.3213-78.0024L112.912-78.0024C115.323-78.0024 117.185-77.4283 118.425-76.2621C119.664-75.0959 120.269-73.1729 120.269-70.5968L120.269 0.93266C120.269 3.50877 119.603 5.37085 118.425 6.598C117.185 7.76419 115.336 8.42964 112.912 8.42964C112.912 8.42964 41.3213 8.42964 41.3213 8.42964Z"/>
  </g>
  <g id="Bold-L" transform="matrix(1 0 0 1 2263.93 1556)">
   <path class="multicolor-0:systemCyanColor hierarchical-1:secondary SFSymbolsPreview55BEF0" d="M100.002-48.5907L100.002-48.5907L100.002-48.5907C100.002-48.2613 99.8376-47.7672 99.8376-47.4378C97.2024-33.7677 88.1439-29.1561 76.6149-29.1561L70.6857-29.1561C69.2034-29.1561 68.0505-28.1679 67.8858-26.6856L67.8858-26.6856L67.8858-26.6856L64.8614-7.5804L63.9621-2.1453C63.7974-1.1571 64.4562-0.3336 65.4444-0.3336L75.9852-0.3336C77.3028-0.3336 78.291-1.1571 78.4557-2.4747L78.6204-2.9688L80.5968-15.486L80.7615-16.1448C80.9262-17.2977 82.0791-18.2859 83.232-18.2859L84.7143-18.2859C94.9257-18.2859 102.831-22.4034 105.137-34.2618C106.125-39.2028 105.631-43.3203 102.996-46.2849C102.143-47.2731 101.155-48.0966 100.002-48.5907Z"/>
   <path class="multicolor-1:systemBlueColor hierarchical-2:primary SFSymbolsPreview007AFF" d="M96.0495-52.7082C96.0495-52.3788 95.8848-51.8847 95.8848-51.5553C93.2496-37.8852 84.1911-33.2736 72.6621-33.2736L66.7329-33.2736C65.2506-33.2736 64.0977-32.2854 63.933-30.8031L64.0977-31.4619L60.9684-11.6979L48.4963-11.6979C47.5081-11.6979 46.6846-12.6861 46.8493-13.6743L55.249-66.7077C55.4137-68.0253 56.7313-69.1782 58.0489-69.1782L78.1423-69.1782C85.0597-69.1782 90.4948-67.6959 93.4594-64.2372C96.0495-61.1079 96.7083-57.6492 96.0495-52.7082Z"/>
   <path class="multicolor-2:tintColor hierarchical-0:tertiary SFSymbolsPreview007AFF" d="M37.9441 24.7898L114.088 24.7898C121.102 24.7898 126.391 22.9925 130.092 19.2915C133.793 15.5905 135.562 10.3765 135.562 3.46737L135.562-72.9792C135.562-79.8883 133.793-85.1781 130.092-88.8033C126.391-92.5043 121.102-94.3016 114.088-94.3016L37.9441-94.3016C31.0059-94.3016 25.7161-92.5335 22.0151-88.8324C18.3141-85.1314 16.5459-79.9174 16.5459-73.0083L16.5459 3.43824C16.5459 10.3765 18.3141 15.6663 22.0151 19.2915C25.7161 23.0217 31.0059 24.7898 37.9441 24.7898ZM39.3648 10.3371C36.5858 10.3371 34.5398 9.57499 33.0446 8.21538C31.5494 6.85577 30.9229 4.67421 30.9229 1.75962L30.9229-71.407C30.9229-74.2458 31.685-76.4274 33.0446-77.8627C34.5398-79.2224 36.5858-79.9247 39.3648-79.9247L112.607-79.9247C115.357-79.9247 117.463-79.2224 118.927-77.8627C120.392-76.5031 121.078-74.3216 121.078-71.407L121.078 1.75962C121.078 4.67421 120.316 6.78002 118.927 8.21538C117.463 9.57499 115.386 10.3371 112.607 10.3371C112.607 10.3371 39.3648 10.3371 39.3648 10.3371Z"/>
  </g>
  <g id="Semibold-L" transform="matrix(1 0 0 1 1968.01 1556)">
   <path class="multicolor-0:systemCyanColor hierarchical-1:secondary SFSymbolsPreview55BEF0" d="M99.2338-48.5907L99.2338-48.5907L99.2338-48.5907C99.2338-48.2613 99.0691-47.7672 99.0691-47.4378C96.4339-33.7677 87.3754-29.1561 75.8464-29.1561L69.9172-29.1561C68.4349-29.1561 67.282-28.1679 67.1173-26.6856L67.1173-26.6856L67.1173-26.6856L64.1146-7.5804L63.2052-2.1453C63.0405-1.1571 63.6993-0.3336 64.6875-0.3336L75.2283-0.3336C76.5459-0.3336 77.5341-1.1571 77.6988-2.4747L77.8635-2.9688L79.8399-15.486L80.0046-16.1448C80.1693-17.2977 81.3222-18.2859 82.4751-18.2859L83.9574-18.2859C94.1688-18.2859 102.074-22.4034 104.38-34.2618C105.368-39.2028 104.874-43.3203 102.239-46.2849C101.375-47.2731 100.387-48.0966 99.2338-48.5907Z"/>
   <path class="multicolor-1:systemBlueColor hierarchical-2:primary SFSymbolsPreview007AFF" d="M95.281-52.7082C95.281-52.3788 95.1163-51.8847 95.1163-51.5553C92.4811-37.8852 83.4226-33.2736 71.8936-33.2736L65.9644-33.2736C64.4821-33.2736 63.3292-32.2854 63.1645-30.8031L63.3292-31.4619L60.1999-11.6979L47.7713-11.6979C46.7831-11.6979 45.9596-12.6861 46.1243-13.6743L54.524-66.7077C54.6887-68.0253 56.0063-69.1782 57.3239-69.1782L77.4173-69.1782C84.3347-69.1782 89.7698-67.6959 92.7344-64.2372C95.281-61.1079 95.9398-57.6492 95.281-52.7082Z"/>
   <path class="multicolor-2:tintColor hierarchical-0:tertiary SFSymbolsPreview007AFF" d="M37.0525 24.0143L113.399 24.0143C120.178 24.0143 125.268 22.2939 128.792 18.7697C132.316 15.2456 133.996 10.2418 133.996 3.58915L133.996-73.1009C133.996-79.7536 132.316-84.8434 128.792-88.2815C125.268-91.8057 120.178-93.5261 113.399-93.5261L37.0525-93.5261C30.3591-93.5261 25.2694-91.8464 21.7453-88.3222C18.2211-84.7981 16.5414-79.7943 16.5414-73.1416L16.5414 3.54845C16.5414 10.2418 18.2211 15.3316 21.7453 18.7697C25.2694 22.3346 30.3591 24.0143 37.0525 24.0143ZM38.016 11.6522C34.9921 11.6522 32.7563 10.8233 31.1393 9.33039C29.5224 7.83745 28.8176 5.47765 28.8176 2.32972L28.8176-71.9655C28.8176-75.0275 29.6464-77.3873 31.1393-78.9662C32.7563-80.4591 34.9921-81.2499 38.016-81.2499L112.397-81.2499C115.38-81.2499 117.654-80.4591 119.274-78.9662C120.893-77.4733 121.636-75.1134 121.636-71.9655L121.636 2.32972C121.636 5.47765 120.808 7.75149 119.274 9.33039C117.654 10.8233 115.421 11.6522 112.397 11.6522C112.397 11.6522 38.016 11.6522 38.016 11.6522Z"/>
  </g>
  <g id="Medium-L" transform="matrix(1 0 0 1 1671.89 1556)">
   <path class="multicolor-0:systemCyanColor hierarchical-1:secondary SFSymbolsPreview55BEF0" d="M98.6511-48.5907L98.6511-48.5907L98.6511-48.5907C98.6511-48.2613 98.4864-47.7672 98.4864-47.4378C95.8512-33.7677 86.7927-29.1561 75.2637-29.1561L69.3345-29.1561C67.8522-29.1561 66.6993-28.1679 66.5346-26.6856L66.5346-26.6856L66.5346-26.6856L63.5484-7.5804L62.6312-2.1453C62.4665-1.1571 63.1253-0.3336 64.1135-0.3336L74.6543-0.3336C75.9719-0.3336 76.9601-1.1571 77.1248-2.4747L77.2895-2.9688L79.2659-15.486L79.4306-16.1448C79.5953-17.2977 80.7482-18.2859 81.9011-18.2859L83.3834-18.2859C93.5948-18.2859 101.5-22.4034 103.806-34.2618C104.794-39.2028 104.3-43.3203 101.665-46.2849C100.792-47.2731 99.804-48.0966 98.6511-48.5907Z"/>
   <path class="multicolor-1:systemBlueColor hierarchical-2:primary SFSymbolsPreview007AFF" d="M94.6983-52.7082C94.6983-52.3788 94.5336-51.8847 94.5336-51.5553C91.8984-37.8852 82.8399-33.2736 71.3109-33.2736L65.3817-33.2736C63.8994-33.2736 62.7465-32.2854 62.5818-30.8031L62.7465-31.4619L59.6172-11.6979L47.2216-11.6979C46.2334-11.6979 45.4099-12.6861 45.5746-13.6743L53.9743-66.7077C54.139-68.0253 55.4566-69.1782 56.7742-69.1782L76.8676-69.1782C83.785-69.1782 89.2201-67.6959 92.1847-64.2372C94.6983-61.1079 95.3571-57.6492 94.6983-52.7082Z"/>
   <path class="multicolor-2:tintColor hierarchical-0:tertiary SFSymbolsPreview007AFF" d="M36.3764 23.4262L112.876 23.4262C119.478 23.4262 124.416 21.7641 127.806 18.3741C131.196 14.9841 132.809 10.1397 132.809 3.68148L132.809-73.1933C132.809-79.6515 131.196-84.5896 127.806-87.8859C124.416-91.2759 119.478-92.938 112.876-92.938L36.3764-92.938C29.8687-92.938 24.9307-91.3254 21.5406-87.9354C18.1506-84.5453 16.538-79.701 16.538-73.2427L16.538 3.63201C16.538 10.1397 18.1506 15.0778 21.5406 18.3741C24.9307 21.8136 29.8687 23.4262 36.3764 23.4262ZM36.9933 12.6493C33.7836 12.6493 31.4039 11.7699 29.6947 10.1758C27.9854 8.5818 27.2212 6.08685 27.2212 2.76199L27.2212-72.389C27.2212-75.6202 28.1006-78.1151 29.6947-79.8029C31.4039-81.3969 33.7836-82.2548 36.9933-82.2548L112.238-82.2548C115.398-82.2548 117.799-81.3969 119.537-79.8029C121.274-78.2088 122.059-75.7139 122.059-72.389L122.059 2.76199C122.059 6.08685 121.18 8.4881 119.537 10.1758C117.799 11.7699 115.448 12.6493 112.238 12.6493C112.238 12.6493 36.9933 12.6493 36.9933 12.6493Z"/>
  </g>
  <g id="Regular-L" transform="matrix(1 0 0 1 1375.96 1556)">
   <path class="multicolor-0:systemCyanColor hierarchical-1:secondary SFSymbolsPreview55BEF0" d="M97.891-48.5907L97.891-48.5907L97.891-48.5907C97.891-48.2613 97.7263-47.7672 97.7263-47.4378C95.0911-33.7677 86.0326-29.1561 74.5036-29.1561L68.5744-29.1561C67.0921-29.1561 65.9392-28.1679 65.7745-26.6856L65.7745-26.6856L65.7745-26.6856L62.8099-7.5804L61.8826-2.1453C61.7179-1.1571 62.3767-0.3336 63.3649-0.3336L73.9057-0.3336C75.2233-0.3336 76.2115-1.1571 76.3762-2.4747L76.5409-2.9688L78.5173-15.486L78.682-16.1448C78.8467-17.2977 79.9996-18.2859 81.1525-18.2859L82.6348-18.2859C92.8462-18.2859 100.752-22.4034 103.058-34.2618C104.046-39.2028 103.552-43.3203 100.917-46.2849C100.032-47.2731 99.0439-48.0966 97.891-48.5907Z"/>
   <path class="multicolor-1:systemBlueColor hierarchical-2:primary SFSymbolsPreview007AFF" d="M93.9382-52.7082C93.9382-52.3788 93.7735-51.8847 93.7735-51.5553C91.1383-37.8852 82.0798-33.2736 70.5508-33.2736L64.6216-33.2736C63.1393-33.2736 61.9864-32.2854 61.8217-30.8031L61.9864-31.4619L58.8571-11.6979L46.5046-11.6979C45.5164-11.6979 44.6929-12.6861 44.8576-13.6743L53.2573-66.7077C53.422-68.0253 54.7396-69.1782 56.0572-69.1782L76.1506-69.1782C83.068-69.1782 88.5031-67.6959 91.4677-64.2372C93.9382-61.1079 94.597-57.6492 93.9382-52.7082Z"/>
   <path class="multicolor-2:tintColor hierarchical-0:tertiary SFSymbolsPreview007AFF" d="M35.4946 22.6592L112.195 22.6592C118.564 22.6592 123.305 21.0731 126.52 17.858C129.735 14.6429 131.26 10.0065 131.26 3.80191L131.26-73.3137C131.26-79.5183 129.735-84.2585 126.52-87.3698C123.305-90.5849 118.564-92.171 112.195-92.171L35.4946-92.171C29.2291-92.171 24.4888-90.6458 21.2738-87.4307C18.0587-84.2157 16.5335-79.5792 16.5335-73.3746L16.5335 3.74101C16.5335 10.0065 18.0587 14.7467 21.2738 17.858C24.4888 21.134 29.2291 22.6592 35.4946 22.6592ZM35.6593 13.9498C32.2074 13.9498 29.64 13.0045 27.8103 11.2786C25.9806 9.55269 25.1391 6.88146 25.1391 3.32583L25.1391-72.9414C25.1391-76.3933 26.0844-79.0645 27.8103-80.8942C29.64-82.6201 32.2074-83.5654 35.6593-83.5654L112.03-83.5654C115.421-83.5654 117.989-82.6201 119.879-80.8942C121.77-79.1683 122.611-76.4971 122.611-72.9414L122.611 3.32583C122.611 6.88146 121.666 9.44889 119.879 11.2786C117.989 13.0045 115.482 13.9498 112.03 13.9498C112.03 13.9498 35.6593 13.9498 35.6593 13.9498Z"/>
  </g>
  <g id="Light-L" transform="matrix(1 0 0 1 1080.09 1556)">
   <path class="multicolor-0:systemCyanColor hierarchical-1:secondary SFSymbolsPreview55BEF0" d="M97.0681-48.5907L97.0681-48.5907L97.0681-48.5907C97.0681-48.2613 96.9034-47.7672 96.9034-47.4378C94.2682-33.7677 85.2097-29.1561 73.6807-29.1561L67.7515-29.1561C66.2692-29.1561 65.1163-28.1679 64.9516-26.6856L64.9516-26.6856L64.9516-26.6856L61.987-7.5804L61.1017-2.1453C60.937-1.1571 61.5958-0.3336 62.584-0.3336L73.1248-0.3336C74.4424-0.3336 75.4306-1.1571 75.5953-2.4747L75.76-2.9688L77.7364-15.486L77.9011-16.1448C78.0658-17.2977 79.2187-18.2859 80.3716-18.2859L81.8539-18.2859C92.0653-18.2859 99.9709-22.4034 102.277-34.2618C103.265-39.2028 102.771-43.3203 100.136-46.2849C99.2092-47.2731 98.221-48.0966 97.0681-48.5907Z"/>
   <path class="multicolor-1:systemBlueColor hierarchical-2:primary SFSymbolsPreview007AFF" d="M93.1153-52.7082C93.1153-52.3788 92.9506-51.8847 92.9506-51.5553C90.3154-37.8852 81.2569-33.2736 69.7279-33.2736L63.7987-33.2736C62.3164-33.2736 61.1635-32.2854 60.9988-30.8031L61.1635-31.4619L58.0342-11.6979L45.6817-11.6979C44.6935-11.6979 43.87-12.6861 44.0347-13.6743L52.4344-66.7077C52.5991-68.0253 53.9167-69.1782 55.2343-69.1782L75.3277-69.1782C82.2451-69.1782 87.6802-67.6959 90.6448-64.2372C93.1153-61.1079 93.7741-57.6492 93.1153-52.7082Z"/>
   <path class="multicolor-2:tintColor hierarchical-0:tertiary SFSymbolsPreview007AFF" d="M34.4615 21.8186L111.582 21.8186C117.573 21.8186 122.061 20.2746 125.108 17.2276C128.155 14.1806 129.596 9.7543 129.596 3.928L129.596-73.4398C129.596-79.2661 128.155-83.7542 125.108-86.7394C122.061-89.7864 117.573-91.3304 111.582-91.3304L34.4615-91.3304C28.5323-91.3304 24.0442-89.8893 20.9972-86.8423C17.9503-83.7954 16.5091-79.369 16.5091-73.5427L16.5091 3.82507C16.5091 9.7543 17.9503 14.2424 20.9972 17.2276C24.0442 20.3775 28.5323 21.8186 34.4615 21.8186ZM34.6262 15.1687C30.8381 15.1687 27.9765 14.1393 26.0207 12.2453C24.0649 10.3512 23.0973 7.42784 23.0973 3.578L23.0973-73.1516C23.0973-76.9396 24.1267-79.863 26.0207-81.8188C27.9765-83.7129 30.8381-84.7422 34.6262-84.7422L111.418-84.7422C115.103-84.7422 117.964-83.7129 120.023-81.8188C122.082-79.9248 123.049-77.0014 123.049-73.1516L123.049 3.578C123.049 7.42784 122.02 10.2895 120.023 12.2453C117.964 14.1393 115.206 15.1687 111.418 15.1687C111.418 15.1687 34.6262 15.1687 34.6262 15.1687Z"/>
  </g>
  <g id="Thin-L" transform="matrix(1 0 0 1 784.489 1556)">
   <path class="multicolor-0:systemCyanColor hierarchical-1:secondary SFSymbolsPreview55BEF0" d="M95.9797-48.5907L95.9797-48.5907L95.9797-48.5907C95.9797-48.2613 95.815-47.7672 95.815-47.4378C93.1798-33.7677 84.1213-29.1561 72.5923-29.1561L66.6631-29.1561C65.1808-29.1561 64.0279-28.1679 63.8632-26.6856L63.8632-26.6856L63.8632-26.6856L60.8986-7.5804L60.0689-2.1453C59.9042-1.1571 60.563-0.3336 61.5512-0.3336L72.092-0.3336C73.4096-0.3336 74.3978-1.1571 74.5625-2.4747L74.7272-2.9688L76.7036-15.486L76.8683-16.1448C77.033-17.2977 78.1859-18.2859 79.3388-18.2859L80.8211-18.2859C91.0325-18.2859 98.9381-22.4034 101.244-34.2618C102.232-39.2028 101.738-43.3203 99.1028-46.2849C98.1208-47.2731 97.1326-48.0966 95.9797-48.5907Z"/>
   <path class="multicolor-1:systemBlueColor hierarchical-2:primary SFSymbolsPreview007AFF" d="M92.0269-52.7082C92.0269-52.3788 91.8622-51.8847 91.8622-51.5553C89.227-37.8852 80.1685-33.2736 68.6395-33.2736L62.7103-33.2736C61.228-33.2736 60.0751-32.2854 59.9104-30.8031L60.0751-31.4619L56.9458-11.6979L44.5933-11.6979C43.6051-11.6979 42.7816-12.6861 42.9463-13.6743L51.346-66.7077C51.5107-68.0253 52.8283-69.1782 54.1459-69.1782L74.2393-69.1782C81.1567-69.1782 86.5918-67.6959 89.5564-64.2372C92.0269-61.1079 92.6857-57.6492 92.0269-52.7082Z"/>
   <path class="multicolor-2:tintColor hierarchical-0:tertiary SFSymbolsPreview007AFF" d="M33.0952 20.7069L110.772 20.7069C116.263 20.7069 120.417 19.2184 123.242 16.3938C126.066 13.5692 127.396 9.42078 127.396 4.09476L127.396-73.6066C127.396-78.9326 126.066-83.0872 123.242-85.9056C120.417-88.7302 116.263-90.2187 110.772-90.2187L33.0952-90.2187C27.6107-90.2187 23.4561-88.8887 20.6315-86.0641C17.8068-83.2395 16.4769-79.0911 16.4769-73.7651L16.4769 3.93624C16.4769 9.42078 17.8068 13.5754 20.6315 16.3938C23.4561 19.3769 27.6107 20.7069 33.0952 20.7069ZM33.2599 16.7807C29.0271 16.7807 25.7764 15.6401 23.6538 13.5238C21.5313 11.4074 20.3969 8.15046 20.3969 3.91152L20.3969-73.4295C20.3969-77.6623 21.5374-80.9192 23.6538-83.0417C25.7764-85.1581 29.0271-86.2987 33.2599-86.2987L110.607-86.2987C114.681-86.2987 117.932-85.1581 120.213-83.0417C122.494-80.9254 123.629-77.6684 123.629-73.4295L123.629 3.91152C123.629 8.15046 122.488 11.4012 120.213 13.5238C117.932 15.6401 114.84 16.7807 110.607 16.7807C110.607 16.7807 33.2599 16.7807 33.2599 16.7807Z"/>
  </g>
  <g id="Ultralight-L" transform="matrix(1 0 0 1 488.348 1556)">
   <path class="multicolor-0:systemCyanColor hierarchical-1:secondary SFSymbolsPreview55BEF0" d="M95.4222-48.5907L95.4222-48.5907L95.4222-48.5907C95.4222-48.2613 95.2575-47.7672 95.2575-47.4378C92.6223-33.7677 83.5638-29.1561 72.0348-29.1561L66.1056-29.1561C64.6233-29.1561 63.4704-28.1679 63.3057-26.6856L63.3057-26.6856L63.3057-26.6856L60.3411-7.5804L59.5399-2.1453C59.3752-1.1571 60.034-0.3336 61.0222-0.3336L71.563-0.3336C72.8806-0.3336 73.8688-1.1571 74.0335-2.4747L74.1982-2.9688L76.1746-15.486L76.3393-16.1448C76.504-17.2977 77.6569-18.2859 78.8098-18.2859L80.2921-18.2859C90.5035-18.2859 98.4091-22.4034 100.715-34.2618C101.703-39.2028 101.209-43.3203 98.5738-46.2849C97.5633-47.2731 96.5751-48.0966 95.4222-48.5907Z"/>
   <path class="multicolor-1:systemBlueColor hierarchical-2:primary SFSymbolsPreview007AFF" d="M91.4694-52.7082C91.4694-52.3788 91.3047-51.8847 91.3047-51.5553C88.6695-37.8852 79.611-33.2736 68.082-33.2736L62.1528-33.2736C60.6705-33.2736 59.5176-32.2854 59.3529-30.8031L59.5176-31.4619L56.3883-11.6979L44.0358-11.6979C43.0476-11.6979 42.2241-12.6861 42.3888-13.6743L50.7885-66.7077C50.9532-68.0253 52.2708-69.1782 53.5884-69.1782L73.6818-69.1782C80.5992-69.1782 86.0343-67.6959 88.9989-64.2372C91.4694-61.1079 92.1282-57.6492 91.4694-52.7082Z"/>
   <path class="multicolor-2:tintColor hierarchical-0:tertiary SFSymbolsPreview007AFF" d="M32.3954 20.1375L110.357 20.1375C115.591 20.1375 119.575 18.6775 122.286 15.9667C124.996 13.256 126.269 9.24995 126.269 4.18017L126.269-73.692C126.269-78.7618 124.996-82.7455 122.286-85.4785C119.575-88.1893 115.591-89.6493 110.357-89.6493L32.3954-89.6493C27.1386-89.6493 23.1548-88.3763 20.4441-85.6655C17.7334-82.9548 16.4604-78.9487 16.4604-73.879L16.4604 3.99318C16.4604 9.24995 17.7334 13.2337 20.4441 15.9667C23.1548 18.8645 27.1386 20.1375 32.3954 20.1375ZM32.5601 17.6064C28.0995 17.6064 24.6495 16.4089 22.4415 14.1786C20.2335 11.9483 19.0138 8.52059 19.0138 4.08235L19.0138-73.5719C19.0138-78.0324 20.2113-81.4601 22.4415-83.6681C24.6495-85.8984 28.0995-87.0959 32.5601-87.0959L110.192-87.0959C114.466-87.0959 117.916-85.8984 120.311-83.6681C122.705-81.4378 123.925-78.0101 123.925-73.5719L123.925 4.08235C123.925 8.52059 122.728 11.9706 120.311 14.1786C117.916 16.4089 114.653 17.6064 110.192 17.6064C110.192 17.6064 32.5601 17.6064 32.5601 17.6064Z"/>
  </g>
  <g id="Black-M" transform="matrix(1 0 0 1 2872.22 1126)">
   <path class="multicolor-0:systemCyanColor hierarchical-1:secondary SFSymbolsPreview55BEF0" d="M79.688-45.5856L79.688-45.5856L79.688-45.5856C79.688-45.3304 79.5604-44.9476 79.5604-44.6924C77.5188-34.1016 70.5008-30.5288 61.5688-30.5288L56.9752-30.5288C55.8268-30.5288 54.9336-29.7632 54.806-28.6148L54.806-28.6148L54.806-28.6148L52.3923-13.8132L51.743-9.6024C51.6154-8.8368 52.1258-8.1988 52.8914-8.1988L61.0578-8.1988C62.0786-8.1988 62.8442-8.8368 62.9718-9.8576L63.0994-10.2404L64.6306-19.938L64.7582-20.4484C64.8858-21.3416 65.779-22.1072 66.6722-22.1072L67.8206-22.1072C75.7318-22.1072 81.8566-25.2972 83.643-34.4844C84.4086-38.3124 84.0258-41.5024 81.9842-43.7992C81.3468-44.5648 80.5812-45.2028 79.688-45.5856Z"/>
   <path class="multicolor-1:systemBlueColor hierarchical-2:primary SFSymbolsPreview007AFF" d="M76.6256-48.7756C76.6256-48.5204 76.498-48.1376 76.498-47.8824C74.4564-37.2916 67.4384-33.7188 58.5064-33.7188L53.9128-33.7188C52.7644-33.7188 51.8712-32.9532 51.7436-31.8048L51.8712-32.3152L49.4468-17.0032L39.6429-17.0032C38.8773-17.0032 38.2393-17.7688 38.3669-18.5344L44.8745-59.6216C45.0021-60.6424 46.0229-61.5356 47.0437-61.5356L62.6109-61.5356C67.9701-61.5356 72.1809-60.3872 74.4777-57.7076C76.6256-55.2832 77.136-52.6036 76.6256-48.7756Z"/>
   <path class="multicolor-2:tintColor hierarchical-0:tertiary SFSymbolsPreview007AFF" d="M31.9367 13.4942L90.414 13.4942C96.4804 13.4942 101.141 11.8668 104.525 8.48308C107.909 5.09939 109.537 0.44974 109.537-5.606L109.537-64.1284C109.537-70.1841 107.909-74.8451 104.525-78.2175C101.141-81.6012 96.4804-83.2286 90.414-83.2286L31.9367-83.2286C25.8816-83.2286 21.2207-81.6006 17.837-78.2169C14.4533-74.8332 12.8252-70.1835 12.8252-64.1278L12.8252-5.60538C12.8252 0.44974 14.4533 5.11068 17.837 8.48308C21.2207 11.8662 25.8816 13.4942 31.9367 13.4942ZM34.5199-3.78128C33.0466-3.78128 31.9769-4.18416 31.1705-4.86234C30.3641-5.54051 30.0894-6.7385 30.0894-8.34001L30.0894-61.5226C30.0894-63.1128 30.4923-64.3108 31.1705-65.0003C31.9769-65.6785 33.0466-65.9644 34.5199-65.9644L87.7138-65.9644C89.1877-65.9644 90.3744-65.6785 91.0633-65.0003C91.7521-64.3221 92.1437-63.1241 92.1437-61.5226L92.1437-8.34001C92.1437-6.7385 91.7408-5.5518 91.0633-4.86234C90.3744-4.18416 89.1871-3.78128 87.7138-3.78128C87.7138-3.78128 34.5199-3.78128 34.5199-3.78128Z"/>
  </g>
  <g id="Heavy-M" transform="matrix(1 0 0 1 2576.33 1126)">
   <path class="multicolor-0:systemCyanColor hierarchical-1:secondary SFSymbolsPreview55BEF0" d="M78.8906-45.5856L78.8906-45.5856L78.8906-45.5856C78.8906-45.3304 78.763-44.9476 78.763-44.6924C76.7214-34.1016 69.7034-30.5288 60.7714-30.5288L56.1778-30.5288C55.0294-30.5288 54.1362-29.7632 54.0086-28.6148L54.0086-28.6148L54.0086-28.6148L51.6225-13.8132L50.9512-9.6024C50.8236-8.8368 51.334-8.1988 52.0996-8.1988L60.266-8.1988C61.2868-8.1988 62.0524-8.8368 62.18-9.8576L62.3076-10.2404L63.8388-19.938L63.9664-20.4484C64.094-21.3416 64.9872-22.1072 65.8804-22.1072L67.0288-22.1072C74.94-22.1072 81.0648-25.2972 82.8512-34.4844C83.6168-38.3124 83.234-41.5024 81.1924-43.7992C80.5494-44.5648 79.7838-45.2028 78.8906-45.5856Z"/>
   <path class="multicolor-1:systemBlueColor hierarchical-2:primary SFSymbolsPreview007AFF" d="M75.8282-48.7756C75.8282-48.5204 75.7006-48.1376 75.7006-47.8824C73.659-37.2916 66.641-33.7188 57.709-33.7188L53.1154-33.7188C51.967-33.7188 51.0738-32.9532 50.9462-31.8048L51.0738-32.3152L48.6494-17.0032L38.9007-17.0032C38.1351-17.0032 37.4971-17.7688 37.6247-18.5344L44.1323-59.6216C44.2599-60.6424 45.2807-61.5356 46.3015-61.5356L61.8687-61.5356C67.2279-61.5356 71.4387-60.3872 73.7355-57.7076C75.8282-55.2832 76.3386-52.6036 75.8282-48.7756Z"/>
   <path class="multicolor-2:tintColor hierarchical-0:tertiary SFSymbolsPreview007AFF" d="M31.0284 12.6917L89.6723 12.6917C95.5225 12.6917 99.984 11.1527 103.18 7.95708C106.375 4.76149 107.909 0.333168 107.909-5.47873L107.909-64.2557C107.909-70.0676 106.375-74.5291 103.18-77.6915C99.984-80.8871 95.5225-82.4261 89.6723-82.4261L31.0284-82.4261C25.2115-82.4261 20.7499-80.8921 17.5543-77.6965C14.3587-74.5009 12.8247-70.0726 12.8247-64.2607L12.8247-5.48373C12.8247 0.333168 14.3587 4.79475 17.5543 7.95708C20.7499 11.1577 25.2115 12.6917 31.0284 12.6917ZM33.0321-2.37616C31.3206-2.37616 30.0734-2.8455 29.1397-3.65658C28.2061-4.46766 27.8593-5.83742 27.8593-7.67151L27.8593-62.1855C27.8593-63.9863 28.3286-65.3561 29.1397-66.2004C30.0734-67.0115 31.3206-67.3915 33.0321-67.3915L87.5793-67.3915C89.2858-67.3915 90.6223-67.0115 91.4716-66.2004C92.321-65.3893 92.7571-64.0196 92.7571-62.1855L92.7571-7.67151C92.7571-5.83742 92.2877-4.50092 91.4716-3.65658C90.6223-2.8455 89.2908-2.37616 87.5793-2.37616C87.5793-2.37616 33.0321-2.37616 33.0321-2.37616Z"/>
  </g>
  <g id="Bold-M" transform="matrix(1 0 0 1 2280.53 1126)">
   <path class="multicolor-0:systemCyanColor hierarchical-1:secondary SFSymbolsPreview55BEF0" d="M77.9986-45.5856L77.9986-45.5856L77.9986-45.5856C77.9986-45.3304 77.871-44.9476 77.871-44.6924C75.8294-34.1016 68.8114-30.5288 59.8794-30.5288L55.2858-30.5288C54.1374-30.5288 53.2442-29.7632 53.1166-28.6148L53.1166-28.6148L53.1166-28.6148L50.7613-13.8132L50.0655-9.6024C49.9379-8.8368 50.4483-8.1988 51.2139-8.1988L59.3803-8.1988C60.4011-8.1988 61.1667-8.8368 61.2943-9.8576L61.4219-10.2404L62.9531-19.938L63.0807-20.4484C63.2083-21.3416 64.1015-22.1072 64.9947-22.1072L66.1431-22.1072C74.0543-22.1072 80.1791-25.2972 81.9655-34.4844C82.7311-38.3124 82.3483-41.5024 80.3067-43.7992C79.6574-44.5648 78.8918-45.2028 77.9986-45.5856Z"/>
   <path class="multicolor-1:systemBlueColor hierarchical-2:primary SFSymbolsPreview007AFF" d="M74.9362-48.7756C74.9362-48.5204 74.8086-48.1376 74.8086-47.8824C72.767-37.2916 65.749-33.7188 56.817-33.7188L52.2234-33.7188C51.075-33.7188 50.1818-32.9532 50.0542-31.8048L50.1818-32.3152L47.7574-17.0032L38.0705-17.0032C37.3049-17.0032 36.6669-17.7688 36.7945-18.5344L43.3021-59.6216C43.4297-60.6424 44.4505-61.5356 45.4713-61.5356L61.0385-61.5356C66.3977-61.5356 70.6085-60.3872 72.9053-57.7076C74.9362-55.2832 75.4466-52.6036 74.9362-48.7756Z"/>
   <path class="multicolor-2:tintColor hierarchical-0:tertiary SFSymbolsPreview007AFF" d="M30.0123 11.7939L88.8427 11.7939C94.4509 11.7939 98.6895 10.3539 101.675 7.36868C104.66 4.3835 106.089 0.202765 106.089-5.33635L106.089-64.3981C106.089-69.9372 104.66-74.1757 101.675-77.1031C98.6895-80.0883 94.4509-81.5283 88.8427-81.5283L30.0123-81.5283C24.4619-81.5283 20.2233-80.0996 17.2381-77.1144C14.2529-74.1292 12.8242-69.9485 12.8242-64.4094L12.8242-5.34765C12.8242 0.202765 14.2529 4.44133 17.2381 7.36868C20.2233 10.3652 24.4619 11.7939 30.0123 11.7939ZM31.3677-0.804329C29.3897-0.804329 27.9441-1.34801 26.868-2.30776C25.792-3.26752 25.3646-4.82942 25.3646-6.9237L25.3646-62.927C25.3646-64.9634 25.9083-66.5253 26.868-67.5429C27.9441-68.5027 29.3897-68.9879 31.3677-68.9879L87.4288-68.9879C89.3955-68.9879 90.8996-68.5027 91.9284-67.5429C92.9573-66.5832 93.4432-65.0213 93.4432-62.927L93.4432-6.9237C93.4432-4.82942 92.8995-3.32535 91.9284-2.30776C90.8996-1.34801 89.4068-0.804329 87.4288-0.804329C87.4288-0.804329 31.3677-0.804329 31.3677-0.804329Z"/>
  </g>
  <g id="Semibold-M" transform="matrix(1 0 0 1 1984.45 1126)">
   <path class="multicolor-0:systemCyanColor hierarchical-1:secondary SFSymbolsPreview55BEF0" d="M77.3837-45.5856L77.3837-45.5856L77.3837-45.5856C77.3837-45.3304 77.2561-44.9476 77.2561-44.6924C75.2145-34.1016 68.1965-30.5288 59.2645-30.5288L54.6709-30.5288C53.5225-30.5288 52.6293-29.7632 52.5017-28.6148L52.5017-28.6148L52.5017-28.6148L50.1677-13.8132L49.4549-9.6024C49.3273-8.8368 49.8377-8.1988 50.6033-8.1988L58.7697-8.1988C59.7905-8.1988 60.5561-8.8368 60.6837-9.8576L60.8113-10.2404L62.3425-19.938L62.4701-20.4484C62.5977-21.3416 63.4909-22.1072 64.3841-22.1072L65.5325-22.1072C73.4437-22.1072 79.5685-25.2972 81.3549-34.4844C82.1205-38.3124 81.7377-41.5024 79.6961-43.7992C79.0425-44.5648 78.2769-45.2028 77.3837-45.5856Z"/>
   <path class="multicolor-1:systemBlueColor hierarchical-2:primary SFSymbolsPreview007AFF" d="M74.3213-48.7756C74.3213-48.5204 74.1937-48.1376 74.1937-47.8824C72.1521-37.2916 65.1341-33.7188 56.2021-33.7188L51.6085-33.7188C50.4601-33.7188 49.5669-32.9532 49.4393-31.8048L49.5669-32.3152L47.1425-17.0032L37.4981-17.0032C36.7325-17.0032 36.0945-17.7688 36.2221-18.5344L42.7297-59.6216C42.8573-60.6424 43.8781-61.5356 44.8989-61.5356L60.4661-61.5356C65.8253-61.5356 70.0361-60.3872 72.3329-57.7076C74.3213-55.2832 74.8317-52.6036 74.3213-48.7756Z"/>
   <path class="multicolor-2:tintColor hierarchical-0:tertiary SFSymbolsPreview007AFF" d="M29.3118 11.1751L88.2707 11.1751C93.7122 11.1751 97.797 9.80315 100.637 6.96303C103.477 4.12292 104.834 0.112865 104.834-5.23819L104.834-64.4962C104.834-69.8473 103.477-73.9321 100.637-76.6974C97.797-79.5376 93.7122-80.9095 88.2707-80.9095L29.3118-80.9095C23.9451-80.9095 19.8603-79.5532 17.0201-76.7131C14.18-73.873 12.8238-69.8629 12.8238-64.5119L12.8238-5.25384C12.8238 0.112865 14.18 4.19769 17.0201 6.96303C19.8603 9.8188 23.9451 11.1751 29.3118 11.1751ZM30.2203 0.27928C28.0586 0.27928 26.4762-0.315646 25.302-1.3779C24.1277-2.44015 23.6448-4.13452 23.6448-6.40816L23.6448-63.4382C23.6448-65.6371 24.2397-67.3314 25.302-68.4685C26.4762-69.5307 28.0586-70.0884 30.2203-70.0884L87.3251-70.0884C89.4711-70.0884 91.0907-69.5307 92.2434-68.4685C93.396-67.4062 93.9162-65.7118 93.9162-63.4382L93.9162-6.40816C93.9162-4.13452 93.3213-2.51492 92.2434-1.3779C91.0907-0.315646 89.4868 0.27928 87.3251 0.27928C87.3251 0.27928 30.2203 0.27928 30.2203 0.27928Z"/>
  </g>
  <g id="Medium-M" transform="matrix(1 0 0 1 1688.21 1126)">
   <path class="multicolor-0:systemCyanColor hierarchical-1:secondary SFSymbolsPreview55BEF0" d="M76.9174-45.5856L76.9174-45.5856L76.9174-45.5856C76.9174-45.3304 76.7898-44.9476 76.7898-44.6924C74.7482-34.1016 67.7302-30.5288 58.7982-30.5288L54.2046-30.5288C53.0562-30.5288 52.163-29.7632 52.0354-28.6148L52.0354-28.6148L52.0354-28.6148L49.7175-13.8132L48.9919-9.6024C48.8643-8.8368 49.3747-8.1988 50.1403-8.1988L58.3067-8.1988C59.3275-8.1988 60.0931-8.8368 60.2207-9.8576L60.3483-10.2404L61.8795-19.938L62.0071-20.4484C62.1347-21.3416 63.0279-22.1072 63.9211-22.1072L65.0695-22.1072C72.9807-22.1072 79.1055-25.2972 80.8919-34.4844C81.6575-38.3124 81.2747-41.5024 79.2331-43.7992C78.5762-44.5648 77.8106-45.2028 76.9174-45.5856Z"/>
   <path class="multicolor-1:systemBlueColor hierarchical-2:primary SFSymbolsPreview007AFF" d="M73.855-48.7756C73.855-48.5204 73.7274-48.1376 73.7274-47.8824C71.6858-37.2916 64.6678-33.7188 55.7358-33.7188L51.1422-33.7188C49.9938-33.7188 49.1006-32.9532 48.973-31.8048L49.1006-32.3152L46.6762-17.0032L37.0641-17.0032C36.2985-17.0032 35.6605-17.7688 35.7881-18.5344L42.2957-59.6216C42.4233-60.6424 43.4441-61.5356 44.4649-61.5356L60.0321-61.5356C65.3913-61.5356 69.6021-60.3872 71.8989-57.7076C73.855-55.2832 74.3654-52.6036 73.855-48.7756Z"/>
   <path class="multicolor-2:tintColor hierarchical-0:tertiary SFSymbolsPreview007AFF" d="M28.7806 10.7058L87.8371 10.7058C93.1521 10.7058 97.1203 9.38558 99.8504 6.65546C102.581 3.92533 103.882 0.0447002 103.882-5.16377L103.882-64.5706C103.882-69.7791 102.581-73.7473 99.8504-76.3899C97.1203-79.12 93.1521-80.4402 87.8371-80.4402L28.7806-80.4402C23.5532-80.4402 19.585-79.1389 16.8549-76.4088C14.1247-73.6787 12.8235-69.798 12.8235-64.5896L12.8235-5.18271C12.8235 0.0447002 14.1247 4.01294 16.8549 6.65546C19.585 9.40452 23.5532 10.7058 28.7806 10.7058ZM29.3502 1.10092C27.0493 1.10092 25.3631 0.467133 24.1145-0.672838C22.8659-1.81281 22.3407-3.60761 22.3407-6.01726L22.3407-63.8258C22.3407-66.1478 22.9745-67.9426 24.1145-69.1702C25.3631-70.3102 27.0493-70.9229 29.3502-70.9229L87.2464-70.9229C89.5284-70.9229 91.2356-70.3102 92.4822-69.1702C93.7287-68.0303 94.2749-66.2354 94.2749-63.8258L94.2749-6.01726C94.2749-3.60761 93.6411-1.90042 92.4822-0.672838C91.2356 0.467133 89.5474 1.10092 87.2464 1.10092C87.2464 1.10092 29.3502 1.10092 29.3502 1.10092Z"/>
  </g>
  <g id="Regular-M" transform="matrix(1 0 0 1 1392.12 1126)">
   <path class="multicolor-0:systemCyanColor hierarchical-1:secondary SFSymbolsPreview55BEF0" d="M76.3092-45.5856L76.3092-45.5856L76.3092-45.5856C76.3092-45.3304 76.1816-44.9476 76.1816-44.6924C74.14-34.1016 67.122-30.5288 58.19-30.5288L53.5964-30.5288C52.448-30.5288 51.5548-29.7632 51.4272-28.6148L51.4272-28.6148L51.4272-28.6148L49.1304-13.8132L48.3881-9.6024C48.2605-8.8368 48.7709-8.1988 49.5365-8.1988L57.7029-8.1988C58.7237-8.1988 59.4893-8.8368 59.6169-9.8576L59.7445-10.2404L61.2757-19.938L61.4033-20.4484C61.5309-21.3416 62.4241-22.1072 63.3173-22.1072L64.4657-22.1072C72.3769-22.1072 78.5017-25.2972 80.2881-34.4844C81.0537-38.3124 80.6709-41.5024 78.6293-43.7992C77.968-44.5648 77.2024-45.2028 76.3092-45.5856Z"/>
   <path class="multicolor-1:systemBlueColor hierarchical-2:primary SFSymbolsPreview007AFF" d="M73.2468-48.7756C73.2468-48.5204 73.1192-48.1376 73.1192-47.8824C71.0776-37.2916 64.0596-33.7188 55.1276-33.7188L50.534-33.7188C49.3856-33.7188 48.4924-32.9532 48.3648-31.8048L48.4924-32.3152L46.068-17.0032L36.498-17.0032C35.7324-17.0032 35.0944-17.7688 35.222-18.5344L41.7296-59.6216C41.8572-60.6424 42.878-61.5356 43.8988-61.5356L59.466-61.5356C64.8252-61.5356 69.036-60.3872 71.3328-57.7076C73.2468-55.2832 73.7572-52.6036 73.2468-48.7756Z"/>
   <path class="multicolor-2:tintColor hierarchical-0:tertiary SFSymbolsPreview007AFF" d="M28.0878 10.0937L87.2714 10.0937C92.4215 10.0937 96.2377 8.84093 98.8243 6.25427C101.411 3.66761 102.641-0.0442109 102.641-5.06669L102.641-64.6677C102.641-69.6902 101.411-73.5064 98.8243-75.9887C96.2377-78.5753 92.4215-79.8281 87.2714-79.8281L28.0878-79.8281C23.0421-79.8281 19.2259-78.5986 16.6393-76.0119C14.0526-73.4252 12.8231-69.7134 12.8231-64.6909L12.8231-5.08993C12.8231-0.0442109 14.0526 3.77198 16.6393 6.25427C19.2259 8.86417 23.0421 10.0937 28.0878 10.0937ZM28.2154 2.17262C25.7328 2.17262 23.9113 1.48815 22.5656 0.246809C21.2199-0.994532 20.6398-2.92034 20.6398-5.50739L20.6398-64.3314C20.6398-66.8141 21.3243-68.7399 22.5656-70.0856C23.9113-71.3269 25.7328-72.0114 28.2154-72.0114L87.1438-72.0114C89.6032-72.0114 91.4247-71.3269 92.7936-70.0856C94.1626-68.8442 94.7427-66.9184 94.7427-64.3314L94.7427-5.50739C94.7427-2.92034 94.0582-1.0989 92.7936 0.246809C91.4247 1.48815 89.6265 2.17262 87.1438 2.17262C87.1438 2.17262 28.2154 2.17262 28.2154 2.17262Z"/>
  </g>
  <g id="Light-M" transform="matrix(1 0 0 1 1096.17 1126)">
   <path class="multicolor-0:systemCyanColor hierarchical-1:secondary SFSymbolsPreview55BEF0" d="M75.5714-45.5856L75.5714-45.5856L75.5714-45.5856C75.5714-45.3304 75.4438-44.9476 75.4438-44.6924C73.4022-34.1016 66.3842-30.5288 57.4522-30.5288L52.8586-30.5288C51.7102-30.5288 50.817-29.7632 50.6894-28.6148L50.6894-28.6148L50.6894-28.6148L48.3926-13.8132L47.6879-9.6024C47.5603-8.8368 48.0707-8.1988 48.8363-8.1988L57.0027-8.1988C58.0235-8.1988 58.7891-8.8368 58.9167-9.8576L59.0443-10.2404L60.5755-19.938L60.7031-20.4484C60.8307-21.3416 61.7239-22.1072 62.6171-22.1072L63.7655-22.1072C71.6767-22.1072 77.8015-25.2972 79.5879-34.4844C80.3535-38.3124 79.9707-41.5024 77.9291-43.7992C77.2302-44.5648 76.4646-45.2028 75.5714-45.5856Z"/>
   <path class="multicolor-1:systemBlueColor hierarchical-2:primary SFSymbolsPreview007AFF" d="M72.509-48.7756C72.509-48.5204 72.3814-48.1376 72.3814-47.8824C70.3398-37.2916 63.3218-33.7188 54.3898-33.7188L49.7962-33.7188C48.6478-33.7188 47.7546-32.9532 47.627-31.8048L47.7546-32.3152L45.3302-17.0032L35.7602-17.0032C34.9946-17.0032 34.3566-17.7688 34.4842-18.5344L40.9918-59.6216C41.1194-60.6424 42.1402-61.5356 43.161-61.5356L58.7282-61.5356C64.0874-61.5356 68.2982-60.3872 70.595-57.7076C72.509-55.2832 73.0194-52.6036 72.509-48.7756Z"/>
   <path class="multicolor-2:tintColor hierarchical-0:tertiary SFSymbolsPreview007AFF" d="M27.1616 9.34007L86.722 9.34007C91.533 9.34007 95.1231 8.12499 97.559 5.68906C99.9949 3.25312 101.149-0.270298 101.149-4.95365L101.149-64.7807C101.149-69.4641 99.9949-73.0542 97.559-75.4235C95.1231-77.8594 91.533-79.0745 86.722-79.0745L27.1616-79.0745C22.4174-79.0745 18.8273-77.9203 16.3913-75.4844C13.9554-73.0484 12.8012-69.525 12.8012-64.8417L12.8012-5.01457C12.8012-0.270298 13.9554 3.3198 16.3913 5.68906C18.8273 8.18591 22.4174 9.34007 27.1616 9.34007ZM27.2892 3.26537C24.5051 3.26537 22.4199 2.50554 20.9611 1.11348C19.5024-0.27859 18.8092-2.43049 18.8092-5.2813L18.8092-64.5198C18.8092-67.3039 19.5691-69.4558 20.9611-70.9146C22.4199-72.3066 24.5051-73.0665 27.2892-73.0665L86.5944-73.0665C89.3176-73.0665 91.4028-72.3066 92.9225-70.9146C94.4422-69.5225 95.1353-67.3706 95.1353-64.5198L95.1353-5.2813C95.1353-2.43049 94.3755-0.345274 92.9225 1.11348C91.4028 2.50554 89.3785 3.26537 86.5944 3.26537C86.5944 3.26537 27.2892 3.26537 27.2892 3.26537Z"/>
  </g>
  <g id="Thin-M" transform="matrix(1 0 0 1 800.452 1126)">
   <path class="multicolor-0:systemCyanColor hierarchical-1:secondary SFSymbolsPreview55BEF0" d="M74.5956-45.5856L74.5956-45.5856L74.5956-45.5856C74.5956-45.3304 74.468-44.9476 74.468-44.6924C72.4264-34.1016 65.4084-30.5288 56.4764-30.5288L51.8828-30.5288C50.7344-30.5288 49.8412-29.7632 49.7136-28.6148L49.7136-28.6148L49.7136-28.6148L47.4168-13.8132L46.762-9.6024C46.6344-8.8368 47.1448-8.1988 47.9104-8.1988L56.0768-8.1988C57.0976-8.1988 57.8632-8.8368 57.9908-9.8576L58.1184-10.2404L59.6496-19.938L59.7772-20.4484C59.9048-21.3416 60.798-22.1072 61.6912-22.1072L62.8396-22.1072C70.7508-22.1072 76.8756-25.2972 78.662-34.4844C79.4276-38.3124 79.0448-41.5024 77.0032-43.7992C76.2544-44.5648 75.4888-45.2028 74.5956-45.5856Z"/>
   <path class="multicolor-1:systemBlueColor hierarchical-2:primary SFSymbolsPreview007AFF" d="M71.5332-48.7756C71.5332-48.5204 71.4056-48.1376 71.4056-47.8824C69.364-37.2916 62.346-33.7188 53.414-33.7188L48.8204-33.7188C47.672-33.7188 46.7788-32.9532 46.6512-31.8048L46.7788-32.3152L44.3544-17.0032L34.7844-17.0032C34.0188-17.0032 33.3808-17.7688 33.5084-18.5344L40.016-59.6216C40.1436-60.6424 41.1644-61.5356 42.1852-61.5356L57.7524-61.5356C63.1116-61.5356 67.3224-60.3872 69.6192-57.7076C71.5332-55.2832 72.0436-52.6036 71.5332-48.7756Z"/>
   <path class="multicolor-2:tintColor hierarchical-0:tertiary SFSymbolsPreview007AFF" d="M25.9367 8.34335L85.9954 8.34335C90.3578 8.34335 93.6489 7.1781 95.8855 4.94151C98.1221 2.70492 99.1766-0.569316 99.1766-4.80414L99.1766-64.9303C99.1766-69.1651 98.1221-72.4562 95.8855-74.6759C93.6489-76.9125 90.3578-78.0777 85.9954-78.0777L25.9367-78.0777C21.5911-78.0777 18.3-77.0233 16.0634-74.7867C13.8268-72.5501 12.7723-69.2758 12.7723-65.041L12.7723-4.91489C12.7723-0.569316 13.8268 2.72177 16.0634 4.94151C18.3 7.28885 21.5911 8.34335 25.9367 8.34335ZM26.0643 4.71063C22.8814 4.71063 20.4474 3.85112 18.8391 2.25971C17.2309 0.668301 16.3882-1.78262 16.3882-4.98228L16.3882-64.769C16.3882-67.9518 17.2477-70.4027 18.8391-72.011C20.4474-73.6024 22.8814-74.4619 26.0643-74.4619L85.8678-74.4619C88.9399-74.4619 91.3739-73.6024 93.0929-72.011C94.8119-70.4195 95.6546-67.9686 95.6546-64.769L95.6546-4.98228C95.6546-1.78262 94.7951 0.651454 93.0929 2.25971C91.3739 3.85112 89.0506 4.71063 85.8678 4.71063C85.8678 4.71063 26.0643 4.71063 26.0643 4.71063Z"/>
  </g>
  <g id="Ultralight-M" transform="matrix(1 0 0 1 504.251 1126)">
   <path class="multicolor-0:systemCyanColor hierarchical-1:secondary SFSymbolsPreview55BEF0" d="M74.0958-45.5856L74.0958-45.5856L74.0958-45.5856C74.0958-45.3304 73.9682-44.9476 73.9682-44.6924C71.9266-34.1016 64.9086-30.5288 55.9766-30.5288L51.383-30.5288C50.2346-30.5288 49.3414-29.7632 49.2138-28.6148L49.2138-28.6148L49.2138-28.6148L46.917-13.8132L46.2877-9.6024C46.1601-8.8368 46.6705-8.1988 47.4361-8.1988L55.6025-8.1988C56.6233-8.1988 57.3889-8.8368 57.5165-9.8576L57.6441-10.2404L59.1753-19.938L59.3029-20.4484C59.4305-21.3416 60.3237-22.1072 61.2169-22.1072L62.3653-22.1072C70.2765-22.1072 76.4013-25.2972 78.1877-34.4844C78.9533-38.3124 78.5705-41.5024 76.5289-43.7992C75.7546-44.5648 74.989-45.2028 74.0958-45.5856Z"/>
   <path class="multicolor-1:systemBlueColor hierarchical-2:primary SFSymbolsPreview007AFF" d="M71.0334-48.7756C71.0334-48.5204 70.9058-48.1376 70.9058-47.8824C68.8642-37.2916 61.8462-33.7188 52.9142-33.7188L48.3206-33.7188C47.1722-33.7188 46.279-32.9532 46.1514-31.8048L46.279-32.3152L43.8546-17.0032L34.2846-17.0032C33.519-17.0032 32.881-17.7688 33.0086-18.5344L39.5162-59.6216C39.6438-60.6424 40.6646-61.5356 41.6854-61.5356L57.2526-61.5356C62.6118-61.5356 66.8226-60.3872 69.1194-57.7076C71.0334-55.2832 71.5438-52.6036 71.0334-48.7756Z"/>
   <path class="multicolor-2:tintColor hierarchical-0:tertiary SFSymbolsPreview007AFF" d="M25.3092 7.83283L85.6232 7.83283C89.7559 7.83283 92.8938 6.69311 95.0283 4.55862C97.1628 2.42414 98.1663-0.722472 98.1663-4.72756L98.1663-65.0068C98.1663-69.0119 97.1628-72.1499 95.0283-74.293C92.8938-76.4275 89.7559-77.5672 85.6232-77.5672L25.3092-77.5672C21.1679-77.5672 18.0299-76.5638 15.8954-74.4293C13.761-72.2948 12.7575-69.1482 12.7575-65.1431L12.7575-4.86384C12.7575-0.722472 13.761 2.41546 15.8954 4.55862C18.0299 6.82938 21.1679 7.83283 25.3092 7.83283ZM25.4368 5.45088C22.0498 5.45088 19.4371 4.54032 17.7522 2.84681C16.0674 1.15329 15.1481-1.45078 15.1481-4.82913L15.1481-64.8966C15.1481-68.2836 16.0587-70.8877 17.7522-72.5725C19.4371-74.266 22.0498-75.1766 25.4368-75.1766L85.4956-75.1766C88.7464-75.1766 91.3591-74.266 93.1802-72.5725C95.0013-70.879 95.9206-68.2749 95.9206-64.8966L95.9206-4.82913C95.9206-1.45078 95.01 1.16197 93.1802 2.84681C91.3591 4.54032 88.8826 5.45088 85.4956 5.45088C85.4956 5.45088 25.4368 5.45088 25.4368 5.45088Z"/>
  </g>
  <g id="Black-S" transform="matrix(1 0 0 1 2885.25 696)">
   <path class="multicolor-0:systemCyanColor hierarchical-1:secondary SFSymbolsPreview55BEF0" d="M62.65-43.35L62.65-43.35L62.65-43.35C62.65-43.15 62.55-42.85 62.55-42.65C60.95-34.35 55.45-31.55 48.45-31.55L44.85-31.55C43.95-31.55 43.25-30.95 43.15-30.05L43.15-30.05L43.15-30.05L41.25-18.45L40.75-15.15C40.65-14.55 41.05-14.05 41.65-14.05L48.05-14.05C48.85-14.05 49.45-14.55 49.55-15.35L49.65-15.65L50.85-23.25L50.95-23.65C51.05-24.35 51.75-24.95 52.45-24.95L53.35-24.95C59.55-24.95 64.35-27.45 65.75-34.65C66.35-37.65 66.05-40.15 64.45-41.95C63.95-42.55 63.35-43.05 62.65-43.35Z"/>
   <path class="multicolor-1:systemBlueColor hierarchical-2:primary SFSymbolsPreview007AFF" d="M60.25-45.85C60.25-45.65 60.15-45.35 60.15-45.15C58.55-36.85 53.05-34.05 46.05-34.05L42.45-34.05C41.55-34.05 40.85-33.45 40.75-32.55L40.85-32.95L38.95-20.95L31.25-20.95C30.65-20.95 30.15-21.55 30.25-22.15L35.35-54.35C35.45-55.15 36.25-55.85 37.05-55.85L49.25-55.85C53.45-55.85 56.75-54.95 58.55-52.85C60.25-50.95 60.65-48.85 60.25-45.85Z"/>
   <path class="multicolor-2:tintColor hierarchical-0:tertiary SFSymbolsPreview007AFF" d="M25.25 3.15L71.05 3.15C75.85 3.15 79.55 1.85 82.25-0.85C84.95-3.55 86.25-7.25 86.25-12.05L86.25-57.85C86.25-62.65 84.95-66.35 82.25-69.05C79.55-71.75 75.85-73.05 71.05-73.05L25.25-73.05C20.45-73.05 16.75-71.75 14.05-69.05C11.35-66.35 10.05-62.65 10.05-57.85L10.05-12.05C10.05-7.25 11.35-3.55 14.05-0.85C16.75 1.85 20.45 3.15 25.25 3.15ZM27.45-10.95C26.35-10.95 25.55-11.25 24.95-11.75C24.35-12.25 24.15-13.15 24.15-14.35L24.15-55.65C24.15-56.85 24.45-57.75 24.95-58.25C25.55-58.75 26.35-58.95 27.45-58.95L68.75-58.95C69.85-58.95 70.75-58.75 71.25-58.25C71.75-57.75 72.05-56.85 72.05-55.65L72.05-14.35C72.05-13.15 71.75-12.25 71.25-11.75C70.75-11.25 69.85-10.95 68.75-10.95C68.75-10.95 27.45-10.95 27.45-10.95Z"/>
  </g>
  <g id="Heavy-S" transform="matrix(1 0 0 1 2589.14 696)">
   <path class="multicolor-0:systemCyanColor hierarchical-1:secondary SFSymbolsPreview55BEF0" d="M62.0623-43.35L62.0623-43.35L62.0623-43.35C62.0623-43.15 61.9623-42.85 61.9623-42.65C60.3623-34.35 54.8623-31.55 47.8623-31.55L44.2623-31.55C43.3623-31.55 42.6623-30.95 42.5623-30.05L42.5623-30.05L42.5623-30.05L40.6859-18.45L40.1623-15.15C40.0623-14.55 40.4623-14.05 41.0623-14.05L47.4623-14.05C48.2623-14.05 48.8623-14.55 48.9623-15.35L49.0623-15.65L50.2623-23.25L50.3623-23.65C50.4623-24.35 51.1623-24.95 51.8623-24.95L52.7623-24.95C58.9623-24.95 63.7623-27.45 65.1623-34.65C65.7623-37.65 65.4623-40.15 63.8623-41.95C63.3623-42.55 62.7623-43.05 62.0623-43.35Z"/>
   <path class="multicolor-1:systemBlueColor hierarchical-2:primary SFSymbolsPreview007AFF" d="M59.6623-45.85C59.6623-45.65 59.5623-45.35 59.5623-45.15C57.9623-36.85 52.4623-34.05 45.4623-34.05L41.8623-34.05C40.9623-34.05 40.2623-33.45 40.1623-32.55L40.2623-32.95L38.3623-20.95L30.7095-20.95C30.1095-20.95 29.6095-21.55 29.7095-22.15L34.8095-54.35C34.9095-55.15 35.7095-55.85 36.5095-55.85L48.7095-55.85C52.9095-55.85 56.2095-54.95 58.0095-52.85C59.6623-50.95 60.0623-48.85 59.6623-45.85Z"/>
   <path class="multicolor-2:tintColor hierarchical-0:tertiary SFSymbolsPreview007AFF" d="M24.5915 2.55995L70.4859 2.55995C75.1443 2.55995 78.7027 1.33075 81.2611-1.22763C83.8195-3.78602 85.0487-7.32081 85.0487-11.9556L85.0487-57.9444C85.0487-62.5792 83.8195-66.1376 81.2611-68.6724C78.7027-71.2308 75.1443-72.4599 70.4859-72.4599L24.5915-72.4599C19.9567-72.4599 16.3983-71.2308 13.8399-68.6724C11.2816-66.114 10.0524-62.5792 10.0524-57.9444L10.0524-11.9556C10.0524-7.32081 11.2816-3.76242 13.8399-1.22763C16.3983 1.33075 19.9567 2.55995 24.5915 2.55995ZM26.2959-9.88791C25.0306-9.88791 24.1126-10.2351 23.4182-10.8295C22.7238-11.4239 22.4766-12.4419 22.4766-13.8072L22.4766-56.1928C22.4766-57.5345 22.8238-58.5525 23.4182-59.1705C24.1126-59.7649 25.0306-60.0357 26.2959-60.0357L68.7052-60.0357C69.9704-60.0357 70.9648-59.7649 71.5828-59.1705C72.2008-58.5761 72.5244-57.5581 72.5244-56.1928L72.5244-13.8072C72.5244-12.4419 72.1772-11.4475 71.5828-10.8295C70.9648-10.2351 69.9704-9.88791 68.7052-9.88791C68.7052-9.88791 26.2959-9.88791 26.2959-9.88791Z"/>
  </g>
  <g id="Bold-S" transform="matrix(1 0 0 1 2293.1 696)">
   <path class="multicolor-0:systemCyanColor hierarchical-1:secondary SFSymbolsPreview55BEF0" d="M61.405-43.35L61.405-43.35L61.405-43.35C61.405-43.15 61.305-42.85 61.305-42.65C59.705-34.35 54.205-31.55 47.205-31.55L43.605-31.55C42.705-31.55 42.005-30.95 41.905-30.05L41.905-30.05L41.905-30.05L40.055-18.45L39.505-15.15C39.405-14.55 39.805-14.05 40.405-14.05L46.805-14.05C47.605-14.05 48.205-14.55 48.305-15.35L48.405-15.65L49.605-23.25L49.705-23.65C49.805-24.35 50.505-24.95 51.205-24.95L52.105-24.95C58.305-24.95 63.105-27.45 64.505-34.65C65.105-37.65 64.805-40.15 63.205-41.95C62.705-42.55 62.105-43.05 61.405-43.35Z"/>
   <path class="multicolor-1:systemBlueColor hierarchical-2:primary SFSymbolsPreview007AFF" d="M59.005-45.85C59.005-45.65 58.905-45.35 58.905-45.15C57.305-36.85 51.805-34.05 44.805-34.05L41.205-34.05C40.305-34.05 39.605-33.45 39.505-32.55L39.605-32.95L37.705-20.95L30.105-20.95C29.505-20.95 29.005-21.55 29.105-22.15L34.205-54.35C34.305-55.15 35.105-55.85 35.905-55.85L48.105-55.85C52.305-55.85 55.605-54.95 57.405-52.85C59.005-50.95 59.405-48.85 59.005-45.85Z"/>
   <path class="multicolor-2:tintColor hierarchical-0:tertiary SFSymbolsPreview007AFF" d="M23.855 1.9L69.855 1.9C74.355 1.9 77.755 0.75 80.155-1.65C82.555-4.05 83.705-7.4 83.705-11.85L83.705-58.05C83.705-62.5 82.555-65.9 80.155-68.25C77.755-70.65 74.355-71.8 69.855-71.8L23.855-71.8C19.405-71.8 16.005-70.65 13.605-68.25C11.205-65.85 10.055-62.5 10.055-58.05L10.055-11.85C10.055-7.4 11.205-4 13.605-1.65C16.005 0.75 19.405 1.9 23.855 1.9ZM25.005-8.7C23.555-8.7 22.505-9.1 21.705-9.8C20.905-10.5 20.605-11.65 20.605-13.2L20.605-56.8C20.605-58.3 21.005-59.45 21.705-60.2C22.505-60.9 23.555-61.25 25.005-61.25L68.655-61.25C70.105-61.25 71.205-60.9 71.955-60.2C72.705-59.5 73.055-58.35 73.055-56.8L73.055-13.2C73.055-11.65 72.655-10.55 71.955-9.8C71.205-9.1 70.105-8.7 68.655-8.7C68.655-8.7 25.005-8.7 25.005-8.7Z"/>
  </g>
  <g id="Semibold-S" transform="matrix(1 0 0 1 1996.86 696)">
   <path class="multicolor-0:systemCyanColor hierarchical-1:secondary SFSymbolsPreview55BEF0" d="M60.9518-43.35L60.9518-43.35L60.9518-43.35C60.9518-43.15 60.8518-42.85 60.8518-42.65C59.2518-34.35 53.7518-31.55 46.7518-31.55L43.1518-31.55C42.2518-31.55 41.5518-30.95 41.4518-30.05L41.4518-30.05L41.4518-30.05L39.62-18.45L39.0518-15.15C38.9518-14.55 39.3518-14.05 39.9518-14.05L46.3518-14.05C47.1518-14.05 47.7518-14.55 47.8518-15.35L47.9518-15.65L49.1518-23.25L49.2518-23.65C49.3518-24.35 50.0518-24.95 50.7518-24.95L51.6518-24.95C57.8518-24.95 62.6518-27.45 64.0518-34.65C64.6518-37.65 64.3518-40.15 62.7518-41.95C62.2518-42.55 61.6518-43.05 60.9518-43.35Z"/>
   <path class="multicolor-1:systemBlueColor hierarchical-2:primary SFSymbolsPreview007AFF" d="M58.5518-45.85C58.5518-45.65 58.4518-45.35 58.4518-45.15C56.8518-36.85 51.3518-34.05 44.3518-34.05L40.7518-34.05C39.8518-34.05 39.1518-33.45 39.0518-32.55L39.1518-32.95L37.2518-20.95L29.6882-20.95C29.0882-20.95 28.5882-21.55 28.6882-22.15L33.7882-54.35C33.8882-55.15 34.6882-55.85 35.4882-55.85L47.6882-55.85C51.8882-55.85 55.1882-54.95 56.9882-52.85C58.5518-50.95 58.9518-48.85 58.5518-45.85Z"/>
   <path class="multicolor-2:tintColor hierarchical-0:tertiary SFSymbolsPreview007AFF" d="M23.3472 1.445L69.42 1.445C73.8108 1.445 77.1016 0.3496 79.3924-1.9412C81.6832-4.232 82.7786-7.4546 82.7786-11.7772L82.7786-58.1228C82.7786-62.4454 81.6832-65.7362 79.3924-67.9588C77.1016-70.2496 73.8108-71.345 69.42-71.345L23.3472-71.345C19.0246-71.345 15.7338-70.2496 13.443-67.9588C11.1522-65.668 10.0568-62.4454 10.0568-58.1228L10.0568-11.7772C10.0568-7.4546 11.1522-4.1638 13.443-1.9412C15.7338 0.3496 19.0246 1.445 23.3472 1.445ZM24.115-7.881C22.5376-7.881 21.3966-8.3174 20.5238-9.0902C19.651-9.863 19.3146-11.104 19.3146-12.7814L19.3146-57.2186C19.3146-58.8278 19.751-60.0688 20.5238-60.9098C21.3966-61.6826 22.5376-62.0872 24.115-62.0872L68.6204-62.0872C70.1978-62.0872 71.3706-61.6826 72.2116-60.9098C73.0526-60.137 73.4208-58.896 73.4208-57.2186L73.4208-12.7814C73.4208-11.104 72.9844-9.9312 72.2116-9.0902C71.3706-8.3174 70.1978-7.881 68.6204-7.881C68.6204-7.881 24.115-7.881 24.115-7.881Z"/>
  </g>
  <g id="Medium-S" transform="matrix(1 0 0 1 1700.5 696)">
   <path class="multicolor-0:systemCyanColor hierarchical-1:secondary SFSymbolsPreview55BEF0" d="M60.6082-43.35L60.6082-43.35L60.6082-43.35C60.6082-43.15 60.5082-42.85 60.5082-42.65C58.9082-34.35 53.4082-31.55 46.4082-31.55L42.8082-31.55C41.9082-31.55 41.2082-30.95 41.1082-30.05L41.1082-30.05L41.1082-30.05L39.2902-18.45L38.7082-15.15C38.6082-14.55 39.0082-14.05 39.6082-14.05L46.0082-14.05C46.8082-14.05 47.4082-14.55 47.5082-15.35L47.6082-15.65L48.8082-23.25L48.9082-23.65C49.0082-24.35 49.7082-24.95 50.4082-24.95L51.3082-24.95C57.5082-24.95 62.3082-27.45 63.7082-34.65C64.3082-37.65 64.0082-40.15 62.4082-41.95C61.9082-42.55 61.3082-43.05 60.6082-43.35Z"/>
   <path class="multicolor-1:systemBlueColor hierarchical-2:primary SFSymbolsPreview007AFF" d="M58.2082-45.85C58.2082-45.65 58.1082-45.35 58.1082-45.15C56.5082-36.85 51.0082-34.05 44.0082-34.05L40.4082-34.05C39.5082-34.05 38.8082-33.45 38.7082-32.55L38.8082-32.95L36.9082-20.95L29.3722-20.95C28.7722-20.95 28.2722-21.55 28.3722-22.15L33.4722-54.35C33.5722-55.15 34.3722-55.85 35.1722-55.85L47.3722-55.85C51.5722-55.85 54.8722-54.95 56.6722-52.85C58.2082-50.95 58.6082-48.85 58.2082-45.85Z"/>
   <path class="multicolor-2:tintColor hierarchical-0:tertiary SFSymbolsPreview007AFF" d="M22.9622 1.1L69.0902 1.1C73.3982 1.1 76.6062 0.046 78.8142-2.162C81.0222-4.37 82.0762-7.496 82.0762-11.722L82.0762-58.178C82.0762-62.404 81.0222-65.612 78.8142-67.738C76.6062-69.946 73.3982-71 69.0902-71L22.9622-71C18.7362-71 15.5282-69.946 13.3202-67.738C11.1122-65.53 10.0582-62.404 10.0582-58.178L10.0582-11.722C10.0582-7.496 11.1122-4.288 13.3202-2.162C15.5282 0.046 18.7362 1.1 22.9622 1.1ZM23.4402-7.26C21.7662-7.26 20.5562-7.724 19.6282-8.552C18.7002-9.38 18.3362-10.69 18.3362-12.464L18.3362-57.536C18.3362-59.228 18.8002-60.538 19.6282-61.448C20.5562-62.276 21.7662-62.722 23.4402-62.722L68.5942-62.722C70.2682-62.722 71.4962-62.276 72.4062-61.448C73.3162-60.62 73.6982-59.31 73.6982-57.536L73.6982-12.464C73.6982-10.69 73.2342-9.462 72.4062-8.552C71.4962-7.724 70.2682-7.26 68.5942-7.26C68.5942-7.26 23.4402-7.26 23.4402-7.26Z"/>
  </g>
  <g id="Regular-S" transform="matrix(1 0 0 1 1404.24 696)">
   <path class="multicolor-0:systemCyanColor hierarchical-1:secondary SFSymbolsPreview55BEF0" d="M60.16-43.35L60.16-43.35L60.16-43.35C60.16-43.15 60.06-42.85 60.06-42.65C58.46-34.35 52.96-31.55 45.96-31.55L42.36-31.55C41.46-31.55 40.76-30.95 40.66-30.05L40.66-30.05L40.66-30.05L38.86-18.45L38.26-15.15C38.16-14.55 38.56-14.05 39.16-14.05L45.56-14.05C46.36-14.05 46.96-14.55 47.06-15.35L47.16-15.65L48.36-23.25L48.46-23.65C48.56-24.35 49.26-24.95 49.96-24.95L50.86-24.95C57.06-24.95 61.86-27.45 63.26-34.65C63.86-37.65 63.56-40.15 61.96-41.95C61.46-42.55 60.86-43.05 60.16-43.35Z"/>
   <path class="multicolor-1:systemBlueColor hierarchical-2:primary SFSymbolsPreview007AFF" d="M57.76-45.85C57.76-45.65 57.66-45.35 57.66-45.15C56.06-36.85 50.56-34.05 43.56-34.05L39.96-34.05C39.06-34.05 38.36-33.45 38.26-32.55L38.36-32.95L36.46-20.95L28.96-20.95C28.36-20.95 27.86-21.55 27.96-22.15L33.06-54.35C33.16-55.15 33.96-55.85 34.76-55.85L46.96-55.85C51.16-55.85 54.46-54.95 56.26-52.85C57.76-50.95 58.16-48.85 57.76-45.85Z"/>
   <path class="multicolor-2:tintColor hierarchical-0:tertiary SFSymbolsPreview007AFF" d="M22.46 0.65L68.66 0.65C72.86 0.65 75.96-0.35 78.06-2.45C80.16-4.55 81.16-7.55 81.16-11.65L81.16-58.25C81.16-62.35 80.16-65.45 78.06-67.45C75.96-69.55 72.86-70.55 68.66-70.55L22.46-70.55C18.36-70.55 15.26-69.55 13.16-67.45C11.06-65.35 10.06-62.35 10.06-58.25L10.06-11.65C10.06-7.55 11.06-4.45 13.16-2.45C15.26-0.35 18.36 0.65 22.46 0.65ZM22.56-6.45C20.76-6.45 19.46-6.95 18.46-7.85C17.46-8.75 17.06-10.15 17.06-12.05L17.06-57.95C17.06-59.75 17.56-61.15 18.46-62.15C19.46-63.05 20.76-63.55 22.56-63.55L68.56-63.55C70.36-63.55 71.66-63.05 72.66-62.15C73.66-61.25 74.06-59.85 74.06-57.95L74.06-12.05C74.06-10.15 73.56-8.85 72.66-7.85C71.66-6.95 70.36-6.45 68.56-6.45C68.56-6.45 22.56-6.45 22.56-6.45Z"/>
  </g>
  <g id="Light-S" transform="matrix(1 0 0 1 1108.2 696)">
   <path class="multicolor-0:systemCyanColor hierarchical-1:secondary SFSymbolsPreview55BEF0" d="M59.5073-43.35L59.5073-43.35L59.5073-43.35C59.5073-43.15 59.4073-42.85 59.4073-42.65C57.8073-34.35 52.3073-31.55 45.3073-31.55L41.7073-31.55C40.8073-31.55 40.1073-30.95 40.0073-30.05L40.0073-30.05L40.0073-30.05L38.2073-18.45L37.6407-15.15C37.5407-14.55 37.9407-14.05 38.5407-14.05L44.9407-14.05C45.7407-14.05 46.3407-14.55 46.4407-15.35L46.5407-15.65L47.7407-23.25L47.8407-23.65C47.9407-24.35 48.6407-24.95 49.3407-24.95L50.2407-24.95C56.4407-24.95 61.2407-27.45 62.6407-34.65C63.2407-37.65 62.9407-40.15 61.3407-41.95C60.8073-42.55 60.2073-43.05 59.5073-43.35Z"/>
   <path class="multicolor-1:systemBlueColor hierarchical-2:primary SFSymbolsPreview007AFF" d="M57.1073-45.85C57.1073-45.65 57.0073-45.35 57.0073-45.15C55.4073-36.85 49.9073-34.05 42.9073-34.05L39.3073-34.05C38.4073-34.05 37.7073-33.45 37.6073-32.55L37.7073-32.95L35.8073-20.95L28.3073-20.95C27.7073-20.95 27.2073-21.55 27.3073-22.15L32.4073-54.35C32.5073-55.15 33.3073-55.85 34.1073-55.85L46.3073-55.85C50.5073-55.85 53.8073-54.95 55.6073-52.85C57.1073-50.95 57.5073-48.85 57.1073-45.85Z"/>
   <path class="multicolor-2:tintColor hierarchical-0:tertiary SFSymbolsPreview007AFF" d="M21.6407-0.0166667L68.174-0.0166667C72.074-0.0166667 74.974-0.983333 76.9407-2.95C78.9073-4.91667 79.8407-7.75 79.8407-11.55L79.8407-58.35C79.8407-62.15 78.9073-65.05 76.9407-66.95C74.974-68.9167 72.074-69.8833 68.174-69.8833L21.6407-69.8833C17.8073-69.8833 14.9073-68.95 12.9407-66.9833C10.974-65.0167 10.0407-62.1833 10.0407-58.3833L10.0407-11.5833C10.0407-7.75 10.974-4.85 12.9407-2.95C14.9073-0.95 17.8073-0.0166667 21.6407-0.0166667ZM21.7407-5.48333C19.674-5.48333 18.1407-6.05 17.0407-7.08333C15.9407-8.11667 15.4407-9.71667 15.4407-11.85L15.4407-58.1167C15.4407-60.1833 16.0073-61.7833 17.0407-62.8833C18.1407-63.9167 19.674-64.4833 21.7407-64.4833L68.074-64.4833C70.1073-64.4833 71.6407-63.9167 72.774-62.8833C73.9073-61.85 74.4073-60.25 74.4073-58.1167L74.4073-11.85C74.4073-9.71667 73.8407-8.18333 72.774-7.08333C71.6407-6.05 70.1407-5.48333 68.074-5.48333C68.074-5.48333 21.7407-5.48333 21.7407-5.48333Z"/>
  </g>
  <g id="Thin-S" transform="matrix(1 0 0 1 812.371 696)">
   <path class="multicolor-0:systemCyanColor hierarchical-1:secondary SFSymbolsPreview55BEF0" d="M58.6441-43.35L58.6441-43.35L58.6441-43.35C58.6441-43.15 58.5441-42.85 58.5441-42.65C56.9441-34.35 51.4441-31.55 44.4441-31.55L40.8441-31.55C39.9441-31.55 39.2441-30.95 39.1441-30.05L39.1441-30.05L39.1441-30.05L37.3441-18.45L36.8215-15.15C36.7215-14.55 37.1215-14.05 37.7215-14.05L44.1215-14.05C44.9215-14.05 45.5215-14.55 45.6215-15.35L45.7215-15.65L46.9215-23.25L47.0215-23.65C47.1215-24.35 47.8215-24.95 48.5215-24.95L49.4215-24.95C55.6215-24.95 60.4215-27.45 61.8215-34.65C62.4215-37.65 62.1215-40.15 60.5215-41.95C59.9441-42.55 59.3441-43.05 58.6441-43.35Z"/>
   <path class="multicolor-1:systemBlueColor hierarchical-2:primary SFSymbolsPreview007AFF" d="M56.2441-45.85C56.2441-45.65 56.1441-45.35 56.1441-45.15C54.5441-36.85 49.0441-34.05 42.0441-34.05L38.4441-34.05C37.5441-34.05 36.8441-33.45 36.7441-32.55L36.8441-32.95L34.9441-20.95L27.4441-20.95C26.8441-20.95 26.3441-21.55 26.4441-22.15L31.5441-54.35C31.6441-55.15 32.4441-55.85 33.2441-55.85L45.4441-55.85C49.6441-55.85 52.9441-54.95 54.7441-52.85C56.2441-50.95 56.6441-48.85 56.2441-45.85Z"/>
   <path class="multicolor-2:tintColor hierarchical-0:tertiary SFSymbolsPreview007AFF" d="M20.557-0.898387L67.5312-0.898387C71.0345-0.898387 73.6699-1.82097 75.4603-3.61129C77.2506-5.40161 78.0957-8.01452 78.0957-11.4177L78.0957-58.4823C78.0957-61.8855 77.2506-64.521 75.4603-66.2887C73.6699-68.079 71.0345-69.0016 67.5312-69.0016L20.557-69.0016C17.0764-69.0016 14.4409-68.1565 12.6506-66.3661C10.8603-64.5758 10.0151-61.9629 10.0151-58.5597L10.0151-11.4952C10.0151-8.01452 10.8603-5.37903 12.6506-3.61129C14.4409-1.74355 17.0764-0.898387 20.557-0.898387ZM20.657-4.20484C18.2377-4.20484 16.3957-4.85968 15.1635-6.06935C13.9312-7.27903 13.299-9.14355 13.299-11.5855L13.299-58.3371C13.299-60.7565 13.9538-62.621 15.1635-63.8532C16.3957-65.0629 18.2377-65.7177 20.657-65.7177L67.4312-65.7177C69.7732-65.7177 71.6151-65.0629 72.9248-63.8532C74.2345-62.6435 74.8667-60.779 74.8667-58.3371L74.8667-11.5855C74.8667-9.14355 74.2119-7.30161 72.9248-6.06935C71.6151-4.85968 69.8506-4.20484 67.4312-4.20484C67.4312-4.20484 20.657-4.20484 20.657-4.20484Z"/>
  </g>
  <g id="Ultralight-S" transform="matrix(1 0 0 1 516.111 696)">
   <path class="multicolor-0:systemCyanColor hierarchical-1:secondary SFSymbolsPreview55BEF0" d="M58.202-43.35L58.202-43.35L58.202-43.35C58.202-43.15 58.102-42.85 58.102-42.65C56.502-34.35 51.002-31.55 44.002-31.55L40.402-31.55C39.502-31.55 38.802-30.95 38.702-30.05L38.702-30.05L38.702-30.05L36.902-18.45L36.402-15.15C36.302-14.55 36.702-14.05 37.302-14.05L43.702-14.05C44.502-14.05 45.102-14.55 45.202-15.35L45.302-15.65L46.502-23.25L46.602-23.65C46.702-24.35 47.402-24.95 48.102-24.95L49.002-24.95C55.202-24.95 60.002-27.45 61.402-34.65C62.002-37.65 61.702-40.15 60.102-41.95C59.502-42.55 58.902-43.05 58.202-43.35Z"/>
   <path class="multicolor-1:systemBlueColor hierarchical-2:primary SFSymbolsPreview007AFF" d="M55.802-45.85C55.802-45.65 55.702-45.35 55.702-45.15C54.102-36.85 48.602-34.05 41.602-34.05L38.002-34.05C37.102-34.05 36.402-33.45 36.302-32.55L36.402-32.95L34.502-20.95L27.002-20.95C26.402-20.95 25.902-21.55 26.002-22.15L31.102-54.35C31.202-55.15 32.002-55.85 32.802-55.85L45.002-55.85C49.202-55.85 52.502-54.95 54.302-52.85C55.802-50.95 56.202-48.85 55.802-45.85Z"/>
   <path class="multicolor-2:tintColor hierarchical-0:tertiary SFSymbolsPreview007AFF" d="M20.002-1.35L67.202-1.35C70.502-1.35 73.002-2.25 74.702-3.95C76.402-5.65 77.202-8.15 77.202-11.35L77.202-58.55C77.202-61.75 76.402-64.25 74.702-65.95C73.002-67.65 70.502-68.55 67.202-68.55L20.002-68.55C16.702-68.55 14.202-67.75 12.502-66.05C10.802-64.35 10.002-61.85 10.002-58.65L10.002-11.45C10.002-8.15 10.802-5.65 12.502-3.95C14.202-2.15 16.702-1.35 20.002-1.35ZM20.102-3.55C17.502-3.55 15.502-4.25 14.202-5.55C12.902-6.85 12.202-8.85 12.202-11.45L12.202-58.45C12.202-61.05 12.902-63.05 14.202-64.35C15.502-65.65 17.502-66.35 20.102-66.35L67.102-66.35C69.602-66.35 71.602-65.65 73.002-64.35C74.402-63.05 75.102-61.05 75.102-58.45L75.102-11.45C75.102-8.85 74.402-6.85 73.002-5.55C71.602-4.25 69.702-3.55 67.102-3.55C67.102-3.55 20.102-3.55 20.102-3.55Z"/>
  </g>
 </g>
</svg>
