<?xml version="1.0" encoding="UTF-8"?>
<!--Generator: Apple Native CoreSVG 175-->
<!DOCTYPE svg
PUBLIC "-//W3C//DTD SVG 1.1//EN"
       "http://www.w3.org/Graphics/SVG/1.1/DTD/svg11.dtd">
<svg version="1.1" xmlns="http://www.w3.org/2000/svg" xmlns:xlink="http://www.w3.org/1999/xlink" width="3300" height="2200">
 <!--glyph: "", point size: 100.0, font version: "17.0d12e1", template writer version: "65.1"-->
 <style>.multicolor-0:tintColor {fill:#007AFF;opacity:1.0}
.multicolor-1:systemBlueColor {fill:#007AFF;opacity:1.0}

.hierarchical-0:secondary {fill:#4D4D4D}
.hierarchical-1:primary {fill:#212121}

.SFSymbolsPreview007AFF {fill:#007AFF;opacity:1.0}
</style>
 <g id="Notes">
  <rect height="2200" id="artboard" style="fill:white;opacity:1" width="3300" x="0" y="0"/>
  <line style="fill:none;stroke:black;opacity:1;stroke-width:0.5;" x1="263" x2="3036" y1="292" y2="292"/>
  <text style="stroke:none;fill:black;font-family:sans-serif;font-size:13;font-weight:bold;" transform="matrix(1 0 0 1 263 322)">Weight/Scale Variations</text>
  <text style="stroke:none;fill:black;font-family:sans-serif;font-size:13;text-anchor:middle;" transform="matrix(1 0 0 1 559.711 322)">Ultralight</text>
  <text style="stroke:none;fill:black;font-family:sans-serif;font-size:13;text-anchor:middle;" transform="matrix(1 0 0 1 856.422 322)">Thin</text>
  <text style="stroke:none;fill:black;font-family:sans-serif;font-size:13;text-anchor:middle;" transform="matrix(1 0 0 1 1153.13 322)">Light</text>
  <text style="stroke:none;fill:black;font-family:sans-serif;font-size:13;text-anchor:middle;" transform="matrix(1 0 0 1 1449.84 322)">Regular</text>
  <text style="stroke:none;fill:black;font-family:sans-serif;font-size:13;text-anchor:middle;" transform="matrix(1 0 0 1 1746.56 322)">Medium</text>
  <text style="stroke:none;fill:black;font-family:sans-serif;font-size:13;text-anchor:middle;" transform="matrix(1 0 0 1 2043.27 322)">Semibold</text>
  <text style="stroke:none;fill:black;font-family:sans-serif;font-size:13;text-anchor:middle;" transform="matrix(1 0 0 1 2339.98 322)">Bold</text>
  <text style="stroke:none;fill:black;font-family:sans-serif;font-size:13;text-anchor:middle;" transform="matrix(1 0 0 1 2636.69 322)">Heavy</text>
  <text style="stroke:none;fill:black;font-family:sans-serif;font-size:13;text-anchor:middle;" transform="matrix(1 0 0 1 2933.4 322)">Black</text>
  <line style="fill:none;stroke:black;opacity:1;stroke-width:0.5;" x1="263" x2="3036" y1="1903" y2="1903"/>
  <g transform="matrix(1 0 0 1 263 1933)">
   <path d="M9.24805 0.830078Q10.8691 0.830078 12.2949 0.214844Q13.7207-0.400391 14.8096-1.49414Q15.8984-2.58789 16.5186-4.01367Q17.1387-5.43945 17.1387-7.05078Q17.1387-8.66211 16.5186-10.0879Q15.8984-11.5137 14.8047-12.6074Q13.7109-13.7012 12.2852-14.3164Q10.8594-14.9316 9.23828-14.9316Q7.62695-14.9316 6.20117-14.3164Q4.77539-13.7012 3.69141-12.6074Q2.60742-11.5137 1.9873-10.0879Q1.36719-8.66211 1.36719-7.05078Q1.36719-5.43945 1.9873-4.01367Q2.60742-2.58789 3.69629-1.49414Q4.78516-0.400391 6.21094 0.214844Q7.63672 0.830078 9.24805 0.830078ZM9.24805-0.654297Q7.91992-0.654297 6.7627-1.14746Q5.60547-1.64062 4.73145-2.51953Q3.85742-3.39844 3.36426-4.56055Q2.87109-5.72266 2.87109-7.05078Q2.87109-8.37891 3.35938-9.54102Q3.84766-10.7031 4.72168-11.582Q5.5957-12.4609 6.75293-12.9541Q7.91016-13.4473 9.23828-13.4473Q10.5762-13.4473 11.7334-12.9541Q12.8906-12.4609 13.7695-11.582Q14.6484-10.7031 15.1465-9.54102Q15.6445-8.37891 15.6445-7.05078Q15.6445-5.72266 15.1514-4.56055Q14.6582-3.39844 13.7842-2.51953Q12.9102-1.64062 11.748-1.14746Q10.5859-0.654297 9.24805-0.654297ZM5.6543-7.05078Q5.6543-6.72852 5.85938-6.52832Q6.06445-6.32812 6.40625-6.32812L8.51562-6.32812L8.51562-4.20898Q8.51562-3.88672 8.71094-3.67676Q8.90625-3.4668 9.23828-3.4668Q9.56055-3.4668 9.77051-3.67676Q9.98047-3.88672 9.98047-4.20898L9.98047-6.32812L12.0898-6.32812Q12.4219-6.32812 12.627-6.52832Q12.832-6.72852 12.832-7.05078Q12.832-7.38281 12.627-7.58789Q12.4219-7.79297 12.0898-7.79297L9.98047-7.79297L9.98047-9.90234Q9.98047-10.2344 9.77051-10.4443Q9.56055-10.6543 9.23828-10.6543Q8.90625-10.6543 8.71094-10.4443Q8.51562-10.2344 8.51562-9.90234L8.51562-7.79297L6.40625-7.79297Q6.06445-7.79297 5.85938-7.58789Q5.6543-7.38281 5.6543-7.05078Z"/>
  </g>
  <g transform="matrix(1 0 0 1 281.867 1933)">
   <path d="M11.709 2.91016Q13.75 2.91016 15.5518 2.12891Q17.3535 1.34766 18.7305-0.0292969Q20.1074-1.40625 20.8887-3.20801Q21.6699-5.00977 21.6699-7.05078Q21.6699-9.0918 20.8887-10.8936Q20.1074-12.6953 18.7305-14.0723Q17.3535-15.4492 15.5469-16.2305Q13.7402-17.0117 11.6992-17.0117Q9.6582-17.0117 7.85645-16.2305Q6.05469-15.4492 4.68262-14.0723Q3.31055-12.6953 2.5293-10.8936Q1.74805-9.0918 1.74805-7.05078Q1.74805-5.00977 2.5293-3.20801Q3.31055-1.40625 4.6875-0.0292969Q6.06445 1.34766 7.86621 2.12891Q9.66797 2.91016 11.709 2.91016ZM11.709 1.25Q9.98047 1.25 8.47656 0.605469Q6.97266-0.0390625 5.83496-1.17676Q4.69727-2.31445 4.05762-3.81836Q3.41797-5.32227 3.41797-7.05078Q3.41797-8.7793 4.05762-10.2832Q4.69727-11.7871 5.83008-12.9297Q6.96289-14.0723 8.4668-14.7119Q9.9707-15.3516 11.6992-15.3516Q13.4277-15.3516 14.9316-14.7119Q16.4355-14.0723 17.5781-12.9297Q18.7207-11.7871 19.3652-10.2832Q20.0098-8.7793 20.0098-7.05078Q20.0098-5.32227 19.3701-3.81836Q18.7305-2.31445 17.5928-1.17676Q16.4551-0.0390625 14.9463 0.605469Q13.4375 1.25 11.709 1.25ZM7.17773-7.05078Q7.17773-6.69922 7.41211-6.47461Q7.64648-6.25 8.01758-6.25L10.8887-6.25L10.8887-3.36914Q10.8887-2.99805 11.1133-2.76855Q11.3379-2.53906 11.6895-2.53906Q12.0605-2.53906 12.29-2.76855Q12.5195-2.99805 12.5195-3.36914L12.5195-6.25L15.4004-6.25Q15.7715-6.25 16.001-6.47461Q16.2305-6.69922 16.2305-7.05078Q16.2305-7.42188 16.001-7.65137Q15.7715-7.88086 15.4004-7.88086L12.5195-7.88086L12.5195-10.752Q12.5195-11.1328 12.29-11.3623Q12.0605-11.5918 11.6895-11.5918Q11.3379-11.5918 11.1133-11.3574Q10.8887-11.123 10.8887-10.752L10.8887-7.88086L8.01758-7.88086Q7.63672-7.88086 7.40723-7.65137Q7.17773-7.42188 7.17773-7.05078Z"/>
  </g>
  <g transform="matrix(1 0 0 1 305.646 1933)">
   <path d="M14.9707 5.66406Q17.0605 5.66406 18.96 5.01465Q20.8594 4.36523 22.4512 3.19336Q24.043 2.02148 25.2197 0.429688Q26.3965-1.16211 27.0459-3.06641Q27.6953-4.9707 27.6953-7.05078Q27.6953-9.14062 27.0459-11.04Q26.3965-12.9395 25.2197-14.5312Q24.043-16.123 22.4512-17.2998Q20.8594-18.4766 18.9551-19.126Q17.0508-19.7754 14.9609-19.7754Q12.8711-19.7754 10.9717-19.126Q9.07227-18.4766 7.48535-17.2998Q5.89844-16.123 4.72168-14.5312Q3.54492-12.9395 2.90039-11.04Q2.25586-9.14062 2.25586-7.05078Q2.25586-4.9707 2.90527-3.06641Q3.55469-1.16211 4.72656 0.429688Q5.89844 2.02148 7.49023 3.19336Q9.08203 4.36523 10.9814 5.01465Q12.8809 5.66406 14.9707 5.66406ZM14.9707 3.84766Q13.1641 3.84766 11.5283 3.2959Q9.89258 2.74414 8.53516 1.74805Q7.17773 0.751953 6.17676-0.610352Q5.17578-1.97266 4.62891-3.6084Q4.08203-5.24414 4.08203-7.05078Q4.08203-8.86719 4.62891-10.5029Q5.17578-12.1387 6.17188-13.501Q7.16797-14.8633 8.52539-15.8594Q9.88281-16.8555 11.5186-17.4023Q13.1543-17.9492 14.9609-17.9492Q16.7773-17.9492 18.4131-17.4023Q20.0488-16.8555 21.4111-15.8594Q22.7734-14.8633 23.7695-13.501Q24.7656-12.1387 25.3174-10.5029Q25.8691-8.86719 25.8691-7.05078Q25.8789-5.24414 25.332-3.6084Q24.7852-1.97266 23.7842-0.610352Q22.7832 0.751953 21.4209 1.74805Q20.0586 2.74414 18.4229 3.2959Q16.7871 3.84766 14.9707 3.84766ZM9.19922-7.05078Q9.19922-6.66992 9.45801-6.4209Q9.7168-6.17188 10.1172-6.17188L14.0625-6.17188L14.0625-2.2168Q14.0625-1.81641 14.3115-1.55762Q14.5605-1.29883 14.9512-1.29883Q15.3516-1.29883 15.6104-1.55273Q15.8691-1.80664 15.8691-2.2168L15.8691-6.17188L19.8242-6.17188Q20.2246-6.17188 20.4785-6.4209Q20.7324-6.66992 20.7324-7.05078Q20.7324-7.46094 20.4785-7.71484Q20.2246-7.96875 19.8242-7.96875L15.8691-7.96875L15.8691-11.9141Q15.8691-12.3242 15.6104-12.583Q15.3516-12.8418 14.9512-12.8418Q14.5605-12.8418 14.3115-12.583Q14.0625-12.3242 14.0625-11.9141L14.0625-7.96875L10.1172-7.96875Q9.70703-7.96875 9.45312-7.71484Q9.19922-7.46094 9.19922-7.05078Z"/>
  </g>
  <text style="stroke:none;fill:black;font-family:sans-serif;font-size:13;font-weight:bold;" transform="matrix(1 0 0 1 263 1953)">Design Variations</text>
  <text style="stroke:none;fill:black;font-family:sans-serif;font-size:13;" transform="matrix(1 0 0 1 263 1971)">Symbols are supported in up to nine weights and three scales.</text>
  <text style="stroke:none;fill:black;font-family:sans-serif;font-size:13;" transform="matrix(1 0 0 1 263 1989)">For optimal layout with text and other symbols, vertically align</text>
  <text style="stroke:none;fill:black;font-family:sans-serif;font-size:13;" transform="matrix(1 0 0 1 263 2007)">symbols with the adjacent text.</text>
  <line style="fill:none;stroke:#00AEEF;stroke-width:0.5;opacity:1.0;" x1="776" x2="776" y1="1919" y2="1933"/>
  <g transform="matrix(1 0 0 1 776 1933)">
   <path d="M3.31055 0.15625Q3.70117 0.15625 3.91602-0.00976562Q4.13086-0.175781 4.26758-0.585938L5.52734-4.0332L11.2891-4.0332L12.5488-0.585938Q12.6855-0.175781 12.9004-0.00976562Q13.1152 0.15625 13.4961 0.15625Q13.8867 0.15625 14.1162-0.0585938Q14.3457-0.273438 14.3457-0.644531Q14.3457-0.869141 14.2383-1.17188L9.6582-13.3691Q9.48242-13.8184 9.17969-14.043Q8.87695-14.2676 8.4082-14.2676Q7.5-14.2676 7.17773-13.3789L2.59766-1.16211Q2.49023-0.859375 2.49023-0.634766Q2.49023-0.263672 2.70996-0.0537109Q2.92969 0.15625 3.31055 0.15625ZM6.00586-5.51758L8.37891-12.0898L8.42773-12.0898L10.8008-5.51758Z"/>
  </g>
  <line style="fill:none;stroke:#00AEEF;stroke-width:0.5;opacity:1.0;" x1="793.197" x2="793.197" y1="1919" y2="1933"/>
  <text style="stroke:none;fill:black;font-family:sans-serif;font-size:13;font-weight:bold;" transform="matrix(1 0 0 1 776 1953)">Margins</text>
  <text style="stroke:none;fill:black;font-family:sans-serif;font-size:13;" transform="matrix(1 0 0 1 776 1971)">Leading and trailing margins on the left and right side of each symbol</text>
  <text style="stroke:none;fill:black;font-family:sans-serif;font-size:13;" transform="matrix(1 0 0 1 776 1989)">can be adjusted by modifying the x-location of the margin guidelines.</text>
  <text style="stroke:none;fill:black;font-family:sans-serif;font-size:13;" transform="matrix(1 0 0 1 776 2007)">Modifications are automatically applied proportionally to all</text>
  <text style="stroke:none;fill:black;font-family:sans-serif;font-size:13;" transform="matrix(1 0 0 1 776 2025)">scales and weights.</text>
  <g transform="matrix(1 0 0 1 1289 1933)">
   <path d="M2.8418 1.86523L4.54102 3.57422Q5.18555 4.22852 5.90332 4.17969Q6.62109 4.13086 7.31445 3.35938L18.0078-8.42773L17.041-9.4043L6.42578 2.27539Q6.16211 2.57812 5.89355 2.61719Q5.625 2.65625 5.27344 2.30469L4.10156 1.14258Q3.75 0.791016 3.79395 0.522461Q3.83789 0.253906 4.14062-0.0195312L15.6152-10.8203L14.6387-11.7871L3.04688-0.898438Q2.30469-0.214844 2.25098 0.498047Q2.19727 1.21094 2.8418 1.86523ZM9.25781-16.3281Q8.94531-16.0254 8.90625-15.6348Q8.86719-15.2441 9.04297-14.9512Q9.21875-14.6777 9.55566-14.541Q9.89258-14.4043 10.3809-14.5215Q11.4746-14.7754 12.5977-14.7314Q13.7207-14.6875 14.7949-13.9844L14.209-12.5293Q13.9551-11.9043 14.0674-11.4404Q14.1797-10.9766 14.5801-10.5664L16.875-8.25195Q17.2363-7.88086 17.5781-7.82227Q17.9199-7.76367 18.3398-7.8418L19.4043-8.03711L20.0684-7.36328L20.0293-6.80664Q20-6.43555 20.1221-6.12305Q20.2441-5.81055 20.6055-5.44922L21.3672-4.70703Q21.7285-4.3457 22.1533-4.33105Q22.5781-4.31641 22.9297-4.66797L25.8398-7.58789Q26.1914-7.93945 26.1816-8.35449Q26.1719-8.76953 25.8105-9.13086L25.0391-9.89258Q24.6875-10.2539 24.3799-10.3857Q24.0723-10.5176 23.7109-10.4883L23.1348-10.4395L22.4902-11.0742L22.7344-12.1973Q22.832-12.6172 22.6953-12.9834Q22.5586-13.3496 22.1191-13.7891L19.9219-15.9766Q18.6719-17.2168 17.2607-17.8369Q15.8496-18.457 14.4189-18.4814Q12.9883-18.5059 11.665-17.959Q10.3418-17.4121 9.25781-16.3281ZM10.752-15.957Q11.6602-16.6211 12.7002-16.9043Q13.7402-17.1875 14.8047-17.085Q15.8691-16.9824 16.8701-16.5137Q17.8711-16.0449 18.7012-15.2051L21.1328-12.793Q21.3086-12.6172 21.3525-12.4512Q21.3965-12.2852 21.3379-12.0312L21.0156-10.5469L22.5195-9.0625L23.5059-9.12109Q23.6914-9.13086 23.7891-9.09668Q23.8867-9.0625 24.0332-8.91602L24.6094-8.33984L22.168-5.89844L21.5918-6.47461Q21.4453-6.62109 21.4062-6.71875Q21.3672-6.81641 21.377-7.01172L21.4453-7.98828L19.9512-9.47266L18.4277-9.21875Q18.1836-9.16992 18.042-9.2041Q17.9004-9.23828 17.7148-9.41406L15.7129-11.416Q15.5176-11.5918 15.4932-11.7529Q15.4688-11.9141 15.5859-12.1875L16.4648-14.2773Q15.293-15.3711 13.8281-15.791Q12.3633-16.2109 10.8398-15.7617Q10.7227-15.7324 10.6885-15.8057Q10.6543-15.8789 10.752-15.957Z"/>
  </g>
  <text style="stroke:none;fill:black;font-family:sans-serif;font-size:13;font-weight:bold;" transform="matrix(1 0 0 1 1289 1953)">Exporting</text>
  <text style="stroke:none;fill:black;font-family:sans-serif;font-size:13;" transform="matrix(1 0 0 1 1289 1971)">Symbols should be outlined when exporting to ensure the</text>
  <text style="stroke:none;fill:black;font-family:sans-serif;font-size:13;" transform="matrix(1 0 0 1 1289 1989)">design is preserved when submitting to Xcode.</text>
  <text id="template-version" style="stroke:none;fill:black;font-family:sans-serif;font-size:13;text-anchor:end;" transform="matrix(1 0 0 1 3036 1933)">Template v.3.0</text>
  <text style="stroke:none;fill:black;font-family:sans-serif;font-size:13;text-anchor:end;" transform="matrix(1 0 0 1 3036 1951)">Requires Xcode 13 or greater</text>
  <text id="descriptive-name" style="stroke:none;fill:black;font-family:sans-serif;font-size:13;text-anchor:end;" transform="matrix(1 0 0 1 3036 1969)">Generated from logo.twitter.circle</text>
  <text style="stroke:none;fill:black;font-family:sans-serif;font-size:13;text-anchor:end;" transform="matrix(1 0 0 1 3036 1987)">Typeset at 100 points</text>
  <text style="stroke:none;fill:black;font-family:sans-serif;font-size:13;" transform="matrix(1 0 0 1 263 726)">Small</text>
  <text style="stroke:none;fill:black;font-family:sans-serif;font-size:13;" transform="matrix(1 0 0 1 263 1156)">Medium</text>
  <text style="stroke:none;fill:black;font-family:sans-serif;font-size:13;" transform="matrix(1 0 0 1 263 1586)">Large</text>
 </g>
 <g id="Guides">
  <g id="H-reference" style="fill:#27AAE1;stroke:none;" transform="matrix(1 0 0 1 339 696)">
   <path d="M0.993347 0L3.6377 0L29.3282-67.1326L30.0301-67.1326L30.0301-70.459L28.1227-70.459ZM11.6882-24.4797L46.9818-24.4797L46.2311-26.7288L12.4382-26.7288ZM55.1193 0L57.7637 0L30.6381-70.459L29.4327-70.459L29.4327-67.1326Z"/>
  </g>
  <line id="Baseline-S" style="fill:none;stroke:#27AAE1;opacity:1;stroke-width:0.5;" x1="263" x2="3036" y1="696" y2="696"/>
  <line id="Capline-S" style="fill:none;stroke:#27AAE1;opacity:1;stroke-width:0.5;" x1="263" x2="3036" y1="625.541" y2="625.541"/>
  <g id="H-reference" style="fill:#27AAE1;stroke:none;" transform="matrix(1 0 0 1 339 1126)">
   <path d="M0.993347 0L3.6377 0L29.3282-67.1326L30.0301-67.1326L30.0301-70.459L28.1227-70.459ZM11.6882-24.4797L46.9818-24.4797L46.2311-26.7288L12.4382-26.7288ZM55.1193 0L57.7637 0L30.6381-70.459L29.4327-70.459L29.4327-67.1326Z"/>
  </g>
  <line id="Baseline-M" style="fill:none;stroke:#27AAE1;opacity:1;stroke-width:0.5;" x1="263" x2="3036" y1="1126" y2="1126"/>
  <line id="Capline-M" style="fill:none;stroke:#27AAE1;opacity:1;stroke-width:0.5;" x1="263" x2="3036" y1="1055.54" y2="1055.54"/>
  <g id="H-reference" style="fill:#27AAE1;stroke:none;" transform="matrix(1 0 0 1 339 1556)">
   <path d="M0.993347 0L3.6377 0L29.3282-67.1326L30.0301-67.1326L30.0301-70.459L28.1227-70.459ZM11.6882-24.4797L46.9818-24.4797L46.2311-26.7288L12.4382-26.7288ZM55.1193 0L57.7637 0L30.6381-70.459L29.4327-70.459L29.4327-67.1326Z"/>
  </g>
  <line id="Baseline-L" style="fill:none;stroke:#27AAE1;opacity:1;stroke-width:0.5;" x1="263" x2="3036" y1="1556" y2="1556"/>
  <line id="Capline-L" style="fill:none;stroke:#27AAE1;opacity:1;stroke-width:0.5;" x1="263" x2="3036" y1="1485.54" y2="1485.54"/>
  <line id="left-margin-Ultralight-S" style="fill:none;stroke:#00AEEF;stroke-width:0.5;opacity:1.0;" x1="515.611" x2="515.611" y1="600.73" y2="720.135"/>
  <line id="right-margin-Ultralight-S" style="fill:none;stroke:#00AEEF;stroke-width:0.5;opacity:1.0;" x1="603.811" x2="603.811" y1="600.73" y2="720.135"/>
  <line id="left-margin-Regular-S" style="fill:none;stroke:#00AEEF;stroke-width:0.5;opacity:1.0;" x1="1403.59" x2="1403.59" y1="600.73" y2="720.135"/>
  <line id="right-margin-Regular-S" style="fill:none;stroke:#00AEEF;stroke-width:0.5;opacity:1.0;" x1="1496.09" x2="1496.09" y1="600.73" y2="720.135"/>
  <line id="left-margin-Black-S" style="fill:none;stroke:#00AEEF;stroke-width:0.5;opacity:1.0;" x1="2884.6" x2="2884.6" y1="600.73" y2="720.135"/>
  <line id="right-margin-Black-S" style="fill:none;stroke:#00AEEF;stroke-width:0.5;opacity:1.0;" x1="2982.2" x2="2982.2" y1="600.73" y2="720.135"/>
 </g>
 <g id="Symbols">
  <g id="Black-S" transform="matrix(1 0 0 1 2884.6 696)">
   <path class="multicolor-0:tintColor hierarchical-0:secondary SFSymbolsPreview007AFF" d="M48.77 6.8C54.57 6.8 59.97 5.7 65.07 3.5C70.17 1.3 74.57-1.7 78.47-5.6C82.37-9.5 85.37-13.9 87.57-19C89.77-24.1 90.87-29.5 90.87-35.3C90.87-41.1 89.77-46.5 87.57-51.6C85.37-56.7 82.37-61.1 78.47-65C74.57-68.9 70.17-71.9 65.07-74.1C59.97-76.3 54.57-77.4 48.77-77.4C42.97-77.4 37.57-76.3 32.47-74.1C27.37-71.9 22.97-68.9 19.07-65C15.17-61.1 12.17-56.7 9.97-51.6C7.87-46.4 6.77-41 6.77-35.2C6.77-29.4 7.87-24 10.07-18.9C12.27-13.8 15.27-9.4 19.17-5.5C23.07-1.6 27.47 1.4 32.57 3.6C37.57 5.7 42.97 6.8 48.77 6.8ZM48.77-7.4C44.97-7.4 41.37-8.1 37.97-9.5C34.57-10.9 31.67-12.9 29.07-15.5C26.57-18 24.57-21 23.07-24.4C21.67-27.8 20.87-31.4 20.87-35.2C20.87-39 21.57-42.6 23.07-46C24.47-49.4 26.47-52.3 29.07-54.9C31.57-57.4 34.57-59.4 37.97-60.9C41.37-62.3 44.97-63.1 48.77-63.1C52.57-63.1 56.17-62.4 59.57-60.9C62.97-59.5 65.87-57.5 68.47-54.9C70.97-52.4 72.97-49.4 74.47-46C75.87-42.6 76.67-39 76.67-35.2C76.67-31.4 75.97-27.8 74.47-24.4C73.07-21 71.07-18.1 68.47-15.5C65.97-13 62.97-11 59.57-9.5C56.27-8.1 52.67-7.4 48.77-7.4Z"/>
   <path class="multicolor-1:systemBlueColor hierarchical-1:primary SFSymbolsPreview007AFF" d="M42.17-17.8C57.77-17.8 66.27-30.7 66.27-41.9C66.27-42.3 66.27-42.7 66.27-43C67.87-44.2 69.37-45.7 70.47-47.4C68.97-46.7 67.27-46.3 65.57-46.1C67.27-47.1 68.67-48.8 69.27-50.8C67.67-49.8 65.87-49.1 63.87-48.7C62.27-50.3 60.17-51.4 57.67-51.4C52.97-51.4 49.17-47.6 49.17-42.9C49.17-42.2 49.27-41.6 49.37-41C42.37-41.4 36.07-44.7 31.97-49.9C31.27-48.6 30.87-47.2 30.87-45.7C30.87-42.8 32.37-40.2 34.67-38.6C33.27-38.6 31.97-39 30.87-39.6C30.87-39.6 30.87-39.6 30.87-39.5C30.87-35.4 33.77-32 37.67-31.2C36.97-31 36.17-30.9 35.47-30.9C34.87-30.9 34.37-30.9 33.87-31C34.97-27.7 38.07-25.2 41.77-25.1C38.77-22.9 35.17-21.5 31.17-21.5C30.47-21.5 29.77-21.5 29.17-21.6C32.97-19.2 37.37-17.8 42.17-17.8Z"/>
  </g>
  <g id="Regular-S" transform="matrix(1 0 0 1 1403.59 696)">
   <path class="multicolor-0:tintColor hierarchical-0:secondary SFSymbolsPreview007AFF" d="M46.18 4.2C51.58 4.2 56.68 3.2 61.38 1.1C66.08-1 70.38-3.8 73.98-7.5C77.58-11.1 80.48-15.3 82.48-20.1C84.48-24.9 85.58-29.9 85.58-35.3C85.58-40.7 84.58-45.7 82.48-50.5C80.38-55.3 77.58-59.5 73.88-63.1C70.28-66.7 66.08-69.6 61.28-71.6C56.48-73.7 51.48-74.7 46.08-74.7C40.68-74.7 35.68-73.7 30.88-71.6C26.08-69.5 21.98-66.7 18.38-63.1C14.78-59.5 11.88-55.3 9.88-50.5C7.78-45.7 6.78-40.7 6.78-35.3C6.78-29.9 7.78-24.9 9.88-20.1C11.98-15.3 14.78-11.1 18.38-7.5C21.98-3.9 26.18-1 30.98 1C35.78 3 40.88 4.2 46.18 4.2ZM46.18-3.3C41.78-3.3 37.58-4.1 33.78-5.8C29.88-7.4 26.58-9.7 23.58-12.7C20.68-15.6 18.38-19 16.78-22.9C15.18-26.8 14.28-30.9 14.28-35.4C14.28-39.9 15.08-44 16.68-47.9C18.28-51.8 20.58-55.2 23.48-58.1C26.38-61 29.78-63.3 33.68-65C37.58-66.6 41.68-67.5 46.08-67.5C50.58-67.5 54.68-66.7 58.58-65C62.48-63.3 65.88-61.1 68.78-58.1C71.68-55.2 73.98-51.8 75.68-47.9C77.38-44 78.18-39.9 78.18-35.4C78.18-30.9 77.38-26.8 75.68-22.9C74.08-19 71.78-15.6 68.88-12.7C65.98-9.7 62.58-7.4 58.68-5.7C54.88-4.1 50.68-3.3 46.18-3.3Z"/>
   <path class="multicolor-1:systemBlueColor hierarchical-1:primary SFSymbolsPreview007AFF" d="M39.58-17.5C55.18-17.5 63.68-30.4 63.68-41.6C63.68-42 63.68-42.4 63.68-42.7C65.28-43.9 66.78-45.4 67.88-47.1C66.38-46.4 64.68-46 62.98-45.8C64.68-46.8 66.08-48.5 66.68-50.5C65.08-49.5 63.28-48.8 61.28-48.4C59.88-50 57.68-51 55.18-51C50.48-51 46.68-47.2 46.68-42.5C46.68-41.8 46.78-41.2 46.88-40.6C39.88-41 33.58-44.3 29.48-49.5C28.78-48.2 28.38-46.8 28.38-45.3C28.38-42.4 29.88-39.8 32.18-38.2C30.78-38.2 29.48-38.6 28.38-39.2C28.38-39.2 28.38-39.2 28.38-39.1C28.38-35 31.28-31.6 35.18-30.8C34.48-30.6 33.68-30.5 32.98-30.5C32.38-30.5 31.88-30.5 31.38-30.6C32.48-27.3 35.58-24.8 39.28-24.7C36.28-22.5 32.68-21.1 28.68-21.1C27.98-21.1 27.28-21.1 26.68-21.2C30.38-18.9 34.78-17.5 39.58-17.5Z"/>
  </g>
  <g id="Ultralight-S" transform="matrix(1 0 0 1 515.611 696)">
   <path class="multicolor-0:tintColor hierarchical-0:secondary SFSymbolsPreview007AFF" d="M44.149 2C49.249 2 54.049 1 58.549-0.9C63.049-2.8 66.949-5.5 70.449-8.9C73.849-12.3 76.549-16.3 78.449-20.8C80.349-25.3 81.349-30.1 81.349-35.2C81.349-40.3 80.349-45.1 78.449-49.6C76.549-54.1 73.849-58 70.449-61.5C67.049-64.9 63.049-67.6 58.549-69.5C54.049-71.4 49.249-72.4 44.149-72.4C39.049-72.4 34.249-71.4 29.749-69.5C25.249-67.6 21.249-64.9 17.849-61.5C14.449-58.1 11.749-54.1 9.849-49.6C7.949-45.1 6.949-40.3 6.949-35.2C6.949-30.1 7.949-25.3 9.849-20.8C11.749-16.3 14.449-12.4 17.849-8.9C21.249-5.5 25.249-2.8 29.749-0.9C34.149 1 38.949 2 44.149 2ZM44.149-0.3C39.349-0.3 34.849-1.2 30.549-3C26.349-4.8 22.549-7.3 19.349-10.5C16.149-13.7 13.649-17.4 11.849-21.7C10.049-25.9 9.049-30.4 9.049-35.3C9.049-40.2 9.949-44.6 11.749-48.9C13.549-53.1 16.049-56.9 19.249-60.1C22.449-63.3 26.149-65.8 30.449-67.6C34.649-69.4 39.249-70.3 44.049-70.3C48.849-70.3 53.449-69.4 57.649-67.6C61.849-65.8 65.649-63.3 68.849-60.1C72.049-56.9 74.549-53.2 76.349-48.9C78.149-44.7 79.049-40.1 79.049-35.3C79.049-30.5 78.149-26 76.349-21.7C74.549-17.5 72.049-13.7 68.849-10.5C65.649-7.3 61.949-4.8 57.749-3C53.449-1.2 48.949-0.3 44.149-0.3Z"/>
   <path class="multicolor-1:systemBlueColor hierarchical-1:primary SFSymbolsPreview007AFF" d="M37.449-17.8C53.049-17.8 61.549-30.7 61.549-41.9C61.549-42.3 61.549-42.7 61.549-43C63.149-44.2 64.649-45.7 65.749-47.4C64.249-46.7 62.549-46.3 60.849-46.1C62.549-47.1 63.949-48.8 64.549-50.8C62.949-49.8 61.149-49.1 59.149-48.7C57.549-50.3 55.449-51.4 52.949-51.4C48.249-51.4 44.449-47.6 44.449-42.9C44.449-42.2 44.549-41.6 44.649-41C37.649-41.4 31.349-44.7 27.249-49.9C26.549-48.6 26.149-47.2 26.149-45.7C26.149-42.8 27.649-40.2 29.949-38.6C28.549-38.6 27.249-39 26.149-39.6C26.149-39.6 26.149-39.6 26.149-39.5C26.149-35.4 29.049-32 32.949-31.2C32.249-31 31.449-30.9 30.749-30.9C30.149-30.9 29.649-30.9 29.149-31C30.249-27.7 33.349-25.2 37.049-25.1C34.049-22.9 30.449-21.5 26.449-21.5C25.749-21.5 25.049-21.5 24.449-21.6C28.249-19.2 32.649-17.8 37.449-17.8Z"/>
  </g>
 </g>
</svg>
