<?xml version="1.0" encoding="UTF-8"?>
<!--Generator: Apple Native CoreSVG 149-->
<!DOCTYPE svg
PUBLIC "-//W3C//DTD SVG 1.1//EN"
       "http://www.w3.org/Graphics/SVG/1.1/DTD/svg11.dtd">
<svg version="1.1" xmlns="http://www.w3.org/2000/svg" xmlns:xlink="http://www.w3.org/1999/xlink" width="3300" height="2200">
 <!--glyph: "", point size: 100.0, font version: "17.0d9e1", template writer version: "59"-->
 <style>.multicolor-0:systemBlueColor {fill:#007AFF;opacity:1.0}

.hierarchical-0:secondary {fill:#4D4D4D}
.hierarchical-1:primary {fill:#212121}

.SFSymbolsPreview007AFF {fill:#007AFF;opacity:1.0}
.SFSymbolsPreviewFFFFFF {fill:#FFFFFF;opacity:1.0}
</style>
 <g id="Notes">
  <rect height="2200" id="artboard" style="fill:white;opacity:1" width="3300" x="0" y="0"/>
  <line style="fill:none;stroke:black;opacity:1;stroke-width:0.5;" x1="263" x2="3036" y1="292" y2="292"/>
  <text style="stroke:none;fill:black;font-family:sans-serif;font-size:13;font-weight:bold;" transform="matrix(1 0 0 1 263 322)">Weight/Scale Variations</text>
  <text style="stroke:none;fill:black;font-family:sans-serif;font-size:13;text-anchor:middle;" transform="matrix(1 0 0 1 559.711 322)">Ultralight</text>
  <text style="stroke:none;fill:black;font-family:sans-serif;font-size:13;text-anchor:middle;" transform="matrix(1 0 0 1 856.422 322)">Thin</text>
  <text style="stroke:none;fill:black;font-family:sans-serif;font-size:13;text-anchor:middle;" transform="matrix(1 0 0 1 1153.13 322)">Light</text>
  <text style="stroke:none;fill:black;font-family:sans-serif;font-size:13;text-anchor:middle;" transform="matrix(1 0 0 1 1449.84 322)">Regular</text>
  <text style="stroke:none;fill:black;font-family:sans-serif;font-size:13;text-anchor:middle;" transform="matrix(1 0 0 1 1746.56 322)">Medium</text>
  <text style="stroke:none;fill:black;font-family:sans-serif;font-size:13;text-anchor:middle;" transform="matrix(1 0 0 1 2043.27 322)">Semibold</text>
  <text style="stroke:none;fill:black;font-family:sans-serif;font-size:13;text-anchor:middle;" transform="matrix(1 0 0 1 2339.98 322)">Bold</text>
  <text style="stroke:none;fill:black;font-family:sans-serif;font-size:13;text-anchor:middle;" transform="matrix(1 0 0 1 2636.69 322)">Heavy</text>
  <text style="stroke:none;fill:black;font-family:sans-serif;font-size:13;text-anchor:middle;" transform="matrix(1 0 0 1 2933.4 322)">Black</text>
  <line style="fill:none;stroke:black;opacity:1;stroke-width:0.5;" x1="263" x2="3036" y1="1903" y2="1903"/>
  <g transform="matrix(1 0 0 1 263 1933)">
   <path d="M9.24805 0.830078Q10.8691 0.830078 12.2949 0.214844Q13.7207-0.400391 14.8096-1.49414Q15.8984-2.58789 16.5186-4.01367Q17.1387-5.43945 17.1387-7.05078Q17.1387-8.66211 16.5186-10.0879Q15.8984-11.5137 14.8047-12.6074Q13.7109-13.7012 12.2852-14.3164Q10.8594-14.9316 9.23828-14.9316Q7.62695-14.9316 6.20117-14.3164Q4.77539-13.7012 3.69141-12.6074Q2.60742-11.5137 1.9873-10.0879Q1.36719-8.66211 1.36719-7.05078Q1.36719-5.43945 1.9873-4.01367Q2.60742-2.58789 3.69629-1.49414Q4.78516-0.400391 6.21094 0.214844Q7.63672 0.830078 9.24805 0.830078ZM9.24805-0.654297Q7.91992-0.654297 6.7627-1.14746Q5.60547-1.64062 4.73145-2.51953Q3.85742-3.39844 3.36426-4.56055Q2.87109-5.72266 2.87109-7.05078Q2.87109-8.37891 3.35938-9.54102Q3.84766-10.7031 4.72168-11.582Q5.5957-12.4609 6.75293-12.9541Q7.91016-13.4473 9.23828-13.4473Q10.5762-13.4473 11.7334-12.9541Q12.8906-12.4609 13.7695-11.582Q14.6484-10.7031 15.1465-9.54102Q15.6445-8.37891 15.6445-7.05078Q15.6445-5.72266 15.1514-4.56055Q14.6582-3.39844 13.7842-2.51953Q12.9102-1.64062 11.748-1.14746Q10.5859-0.654297 9.24805-0.654297ZM5.83984-7.04102Q5.83984-6.71875 6.04492-6.51855Q6.25-6.31836 6.5918-6.31836L8.50586-6.31836L8.50586-4.39453Q8.50586-4.0625 8.70605-3.85742Q8.90625-3.65234 9.22852-3.65234Q9.56055-3.65234 9.76562-3.85742Q9.9707-4.0625 9.9707-4.39453L9.9707-6.31836L11.8945-6.31836Q12.2266-6.31836 12.4316-6.51855Q12.6367-6.71875 12.6367-7.04102Q12.6367-7.37305 12.4316-7.57812Q12.2266-7.7832 11.8945-7.7832L9.9707-7.7832L9.9707-9.69727Q9.9707-10.0391 9.76562-10.2441Q9.56055-10.4492 9.22852-10.4492Q8.90625-10.4492 8.70605-10.2441Q8.50586-10.0391 8.50586-9.69727L8.50586-7.7832L6.5918-7.7832Q6.25-7.7832 6.04492-7.57812Q5.83984-7.37305 5.83984-7.04102Z"/>
  </g>
  <g transform="matrix(1 0 0 1 281.867 1933)">
   <path d="M11.709 2.91016Q13.75 2.91016 15.5518 2.12891Q17.3535 1.34766 18.7305-0.0292969Q20.1074-1.40625 20.8887-3.20801Q21.6699-5.00977 21.6699-7.05078Q21.6699-9.0918 20.8887-10.8936Q20.1074-12.6953 18.7305-14.0723Q17.3535-15.4492 15.5469-16.2305Q13.7402-17.0117 11.6992-17.0117Q9.6582-17.0117 7.85645-16.2305Q6.05469-15.4492 4.68262-14.0723Q3.31055-12.6953 2.5293-10.8936Q1.74805-9.0918 1.74805-7.05078Q1.74805-5.00977 2.5293-3.20801Q3.31055-1.40625 4.6875-0.0292969Q6.06445 1.34766 7.86621 2.12891Q9.66797 2.91016 11.709 2.91016ZM11.709 1.25Q9.98047 1.25 8.47656 0.605469Q6.97266-0.0390625 5.83496-1.17676Q4.69727-2.31445 4.05762-3.81836Q3.41797-5.32227 3.41797-7.05078Q3.41797-8.7793 4.05762-10.2832Q4.69727-11.7871 5.83008-12.9297Q6.96289-14.0723 8.4668-14.7119Q9.9707-15.3516 11.6992-15.3516Q13.4277-15.3516 14.9316-14.7119Q16.4355-14.0723 17.5781-12.9297Q18.7207-11.7871 19.3652-10.2832Q20.0098-8.7793 20.0098-7.05078Q20.0098-5.32227 19.3701-3.81836Q18.7305-2.31445 17.5928-1.17676Q16.4551-0.0390625 14.9463 0.605469Q13.4375 1.25 11.709 1.25ZM7.39258-7.04102Q7.39258-6.68945 7.62695-6.46484Q7.86133-6.24023 8.23242-6.24023L10.8789-6.24023L10.8789-3.57422Q10.8789-3.21289 11.1035-2.9834Q11.3281-2.75391 11.6797-2.75391Q12.0508-2.75391 12.2852-2.9834Q12.5195-3.21289 12.5195-3.57422L12.5195-6.24023L15.1758-6.24023Q15.5371-6.24023 15.7715-6.46484Q16.0059-6.68945 16.0059-7.04102Q16.0059-7.41211 15.7715-7.6416Q15.5371-7.87109 15.1758-7.87109L12.5195-7.87109L12.5195-10.5176Q12.5195-10.8984 12.2852-11.1279Q12.0508-11.3574 11.6797-11.3574Q11.3281-11.3574 11.1035-11.1279Q10.8789-10.8984 10.8789-10.5176L10.8789-7.87109L8.23242-7.87109Q7.85156-7.87109 7.62207-7.6416Q7.39258-7.41211 7.39258-7.04102Z"/>
  </g>
  <g transform="matrix(1 0 0 1 305.646 1933)">
   <path d="M14.9707 5.66406Q17.0605 5.66406 18.96 5.01465Q20.8594 4.36523 22.4512 3.19336Q24.043 2.02148 25.2197 0.429688Q26.3965-1.16211 27.0459-3.06641Q27.6953-4.9707 27.6953-7.05078Q27.6953-9.14062 27.0459-11.04Q26.3965-12.9395 25.2197-14.5312Q24.043-16.123 22.4512-17.2998Q20.8594-18.4766 18.9551-19.126Q17.0508-19.7754 14.9609-19.7754Q12.8711-19.7754 10.9717-19.126Q9.07227-18.4766 7.48535-17.2998Q5.89844-16.123 4.72168-14.5312Q3.54492-12.9395 2.90039-11.04Q2.25586-9.14062 2.25586-7.05078Q2.25586-4.9707 2.90527-3.06641Q3.55469-1.16211 4.72656 0.429688Q5.89844 2.02148 7.49023 3.19336Q9.08203 4.36523 10.9814 5.01465Q12.8809 5.66406 14.9707 5.66406ZM14.9707 3.84766Q13.1641 3.84766 11.5283 3.2959Q9.89258 2.74414 8.53516 1.74805Q7.17773 0.751953 6.17676-0.610352Q5.17578-1.97266 4.62891-3.6084Q4.08203-5.24414 4.08203-7.05078Q4.08203-8.86719 4.62891-10.5029Q5.17578-12.1387 6.17188-13.501Q7.16797-14.8633 8.52539-15.8594Q9.88281-16.8555 11.5186-17.4023Q13.1543-17.9492 14.9609-17.9492Q16.7773-17.9492 18.4131-17.4023Q20.0488-16.8555 21.4111-15.8594Q22.7734-14.8633 23.7695-13.501Q24.7656-12.1387 25.3174-10.5029Q25.8691-8.86719 25.8691-7.05078Q25.8789-5.24414 25.332-3.6084Q24.7852-1.97266 23.7842-0.610352Q22.7832 0.751953 21.4209 1.74805Q20.0586 2.74414 18.4229 3.2959Q16.7871 3.84766 14.9707 3.84766ZM9.45312-7.04102Q9.45312-6.66016 9.71191-6.41113Q9.9707-6.16211 10.3711-6.16211L14.0625-6.16211L14.0625-2.46094Q14.0625-2.06055 14.3115-1.80664Q14.5605-1.55273 14.9414-1.55273Q15.3516-1.55273 15.6055-1.80664Q15.8594-2.06055 15.8594-2.46094L15.8594-6.16211L19.5605-6.16211Q19.9609-6.16211 20.2148-6.41113Q20.4688-6.66016 20.4688-7.04102Q20.4688-7.45117 20.2148-7.70508Q19.9609-7.95898 19.5605-7.95898L15.8594-7.95898L15.8594-11.6504Q15.8594-12.0605 15.6055-12.3145Q15.3516-12.5684 14.9414-12.5684Q14.5605-12.5684 14.3115-12.3096Q14.0625-12.0508 14.0625-11.6504L14.0625-7.95898L10.3711-7.95898Q9.96094-7.95898 9.70703-7.70508Q9.45312-7.45117 9.45312-7.04102Z"/>
  </g>
  <text style="stroke:none;fill:black;font-family:sans-serif;font-size:13;font-weight:bold;" transform="matrix(1 0 0 1 263 1953)">Design Variations</text>
  <text style="stroke:none;fill:black;font-family:sans-serif;font-size:13;" transform="matrix(1 0 0 1 263 1971)">Symbols are supported in up to nine weights and three scales.</text>
  <text style="stroke:none;fill:black;font-family:sans-serif;font-size:13;" transform="matrix(1 0 0 1 263 1989)">For optimal layout with text and other symbols, vertically align</text>
  <text style="stroke:none;fill:black;font-family:sans-serif;font-size:13;" transform="matrix(1 0 0 1 263 2007)">symbols with the adjacent text.</text>
  <line style="fill:none;stroke:#00AEEF;stroke-width:0.5;opacity:1.0;" x1="776" x2="776" y1="1919" y2="1933"/>
  <g transform="matrix(1 0 0 1 776 1933)">
   <path d="M3.31055 0.15625Q3.70117 0.15625 3.91602-0.00976562Q4.13086-0.175781 4.26758-0.585938L5.52734-4.0332L11.2891-4.0332L12.5488-0.585938Q12.6855-0.175781 12.9004-0.00976562Q13.1152 0.15625 13.4961 0.15625Q13.8867 0.15625 14.1162-0.0585938Q14.3457-0.273438 14.3457-0.644531Q14.3457-0.869141 14.2383-1.17188L9.6582-13.3691Q9.48242-13.8184 9.17969-14.043Q8.87695-14.2676 8.4082-14.2676Q7.5-14.2676 7.17773-13.3789L2.59766-1.16211Q2.49023-0.859375 2.49023-0.634766Q2.49023-0.263672 2.70996-0.0537109Q2.92969 0.15625 3.31055 0.15625ZM6.00586-5.51758L8.37891-12.0898L8.42773-12.0898L10.8008-5.51758Z"/>
  </g>
  <line style="fill:none;stroke:#00AEEF;stroke-width:0.5;opacity:1.0;" x1="793.197" x2="793.197" y1="1919" y2="1933"/>
  <text style="stroke:none;fill:black;font-family:sans-serif;font-size:13;font-weight:bold;" transform="matrix(1 0 0 1 776 1953)">Margins</text>
  <text style="stroke:none;fill:black;font-family:sans-serif;font-size:13;" transform="matrix(1 0 0 1 776 1971)">Leading and trailing margins on the left and right side of each symbol</text>
  <text style="stroke:none;fill:black;font-family:sans-serif;font-size:13;" transform="matrix(1 0 0 1 776 1989)">can be adjusted by modifying the x-location of the margin guidelines.</text>
  <text style="stroke:none;fill:black;font-family:sans-serif;font-size:13;" transform="matrix(1 0 0 1 776 2007)">Modifications are automatically applied proportionally to all</text>
  <text style="stroke:none;fill:black;font-family:sans-serif;font-size:13;" transform="matrix(1 0 0 1 776 2025)">scales and weights.</text>
  <g transform="matrix(1 0 0 1 1289 1933)">
   <path d="M2.8418 1.86523L4.54102 3.57422Q5.18555 4.22852 5.90332 4.17969Q6.62109 4.13086 7.31445 3.35938L18.0078-8.42773L17.041-9.4043L6.42578 2.27539Q6.16211 2.57812 5.89355 2.61719Q5.625 2.65625 5.27344 2.30469L4.10156 1.14258Q3.75 0.791016 3.79395 0.522461Q3.83789 0.253906 4.14062-0.0195312L15.6152-10.8203L14.6387-11.7871L3.04688-0.898438Q2.30469-0.214844 2.25098 0.498047Q2.19727 1.21094 2.8418 1.86523ZM9.25781-16.3281Q8.94531-16.0254 8.90625-15.6348Q8.86719-15.2441 9.04297-14.9512Q9.21875-14.6777 9.55566-14.541Q9.89258-14.4043 10.3809-14.5215Q11.4746-14.7754 12.5977-14.7314Q13.7207-14.6875 14.7949-13.9844L14.209-12.5293Q13.9551-11.9043 14.0674-11.4404Q14.1797-10.9766 14.5801-10.5664L16.875-8.25195Q17.2363-7.88086 17.5781-7.82227Q17.9199-7.76367 18.3398-7.8418L19.4043-8.03711L20.0684-7.36328L20.0293-6.80664Q20-6.43555 20.1221-6.12305Q20.2441-5.81055 20.6055-5.44922L21.3672-4.70703Q21.7285-4.3457 22.1533-4.33105Q22.5781-4.31641 22.9297-4.66797L25.8398-7.58789Q26.1914-7.93945 26.1816-8.35449Q26.1719-8.76953 25.8105-9.13086L25.0391-9.89258Q24.6875-10.2539 24.3799-10.3857Q24.0723-10.5176 23.7109-10.4883L23.1348-10.4395L22.4902-11.0742L22.7344-12.1973Q22.832-12.6172 22.6953-12.9834Q22.5586-13.3496 22.1191-13.7891L19.9219-15.9766Q18.6719-17.2168 17.2607-17.8369Q15.8496-18.457 14.4189-18.4814Q12.9883-18.5059 11.665-17.959Q10.3418-17.4121 9.25781-16.3281ZM10.752-15.957Q11.6602-16.6211 12.7002-16.9043Q13.7402-17.1875 14.8047-17.085Q15.8691-16.9824 16.8701-16.5137Q17.8711-16.0449 18.7012-15.2051L21.1328-12.793Q21.3086-12.6172 21.3525-12.4512Q21.3965-12.2852 21.3379-12.0312L21.0156-10.5469L22.5195-9.0625L23.5059-9.12109Q23.6914-9.13086 23.7891-9.09668Q23.8867-9.0625 24.0332-8.91602L24.6094-8.33984L22.168-5.89844L21.5918-6.47461Q21.4453-6.62109 21.4062-6.71875Q21.3672-6.81641 21.377-7.01172L21.4453-7.98828L19.9512-9.47266L18.4277-9.21875Q18.1836-9.16992 18.042-9.2041Q17.9004-9.23828 17.7148-9.41406L15.7129-11.416Q15.5176-11.5918 15.4932-11.7529Q15.4688-11.9141 15.5859-12.1875L16.4648-14.2773Q15.293-15.3711 13.8281-15.791Q12.3633-16.2109 10.8398-15.7617Q10.7227-15.7324 10.6885-15.8057Q10.6543-15.8789 10.752-15.957Z"/>
  </g>
  <text style="stroke:none;fill:black;font-family:sans-serif;font-size:13;font-weight:bold;" transform="matrix(1 0 0 1 1289 1953)">Exporting</text>
  <text style="stroke:none;fill:black;font-family:sans-serif;font-size:13;" transform="matrix(1 0 0 1 1289 1971)">Symbols should be outlined when exporting to ensure the</text>
  <text style="stroke:none;fill:black;font-family:sans-serif;font-size:13;" transform="matrix(1 0 0 1 1289 1989)">design is preserved when submitting to Xcode.</text>
  <text id="template-version" style="stroke:none;fill:black;font-family:sans-serif;font-size:13;text-anchor:end;" transform="matrix(1 0 0 1 3036 1933)">Template v.3.0</text>
  <text style="stroke:none;fill:black;font-family:sans-serif;font-size:13;text-anchor:end;" transform="matrix(1 0 0 1 3036 1951)">Requires Xcode 13 or greater</text>
  <text id="descriptive-name" style="stroke:none;fill:black;font-family:sans-serif;font-size:13;text-anchor:end;" transform="matrix(1 0 0 1 3036 1969)">Generated from logo.appstore.circle.fill</text>
  <text style="stroke:none;fill:black;font-family:sans-serif;font-size:13;text-anchor:end;" transform="matrix(1 0 0 1 3036 1987)">Typeset at 100 points</text>
  <text style="stroke:none;fill:black;font-family:sans-serif;font-size:13;" transform="matrix(1 0 0 1 263 726)">Small</text>
  <text style="stroke:none;fill:black;font-family:sans-serif;font-size:13;" transform="matrix(1 0 0 1 263 1156)">Medium</text>
  <text style="stroke:none;fill:black;font-family:sans-serif;font-size:13;" transform="matrix(1 0 0 1 263 1586)">Large</text>
 </g>
 <g id="Guides">
  <g id="H-reference" style="fill:#27AAE1;stroke:none;" transform="matrix(1 0 0 1 339 696)">
   <path d="M0.976562 0L3.66211 0L29.3457-67.1387L30.0293-67.1387L30.0293-70.459L28.125-70.459ZM11.6699-24.4629L46.9727-24.4629L46.2402-26.709L12.4512-26.709ZM55.127 0L57.7637 0L30.6152-70.459L29.4434-70.459L29.4434-67.1387Z"/>
  </g>
  <line id="Baseline-S" style="fill:none;stroke:#27AAE1;opacity:1;stroke-width:0.5;" x1="263" x2="3036" y1="696" y2="696"/>
  <line id="Capline-S" style="fill:none;stroke:#27AAE1;opacity:1;stroke-width:0.5;" x1="263" x2="3036" y1="625.541" y2="625.541"/>
  <g id="H-reference" style="fill:#27AAE1;stroke:none;" transform="matrix(1 0 0 1 339 1126)">
   <path d="M0.976562 0L3.66211 0L29.3457-67.1387L30.0293-67.1387L30.0293-70.459L28.125-70.459ZM11.6699-24.4629L46.9727-24.4629L46.2402-26.709L12.4512-26.709ZM55.127 0L57.7637 0L30.6152-70.459L29.4434-70.459L29.4434-67.1387Z"/>
  </g>
  <line id="Baseline-M" style="fill:none;stroke:#27AAE1;opacity:1;stroke-width:0.5;" x1="263" x2="3036" y1="1126" y2="1126"/>
  <line id="Capline-M" style="fill:none;stroke:#27AAE1;opacity:1;stroke-width:0.5;" x1="263" x2="3036" y1="1055.54" y2="1055.54"/>
  <g id="H-reference" style="fill:#27AAE1;stroke:none;" transform="matrix(1 0 0 1 339 1556)">
   <path d="M0.976562 0L3.66211 0L29.3457-67.1387L30.0293-67.1387L30.0293-70.459L28.125-70.459ZM11.6699-24.4629L46.9727-24.4629L46.2402-26.709L12.4512-26.709ZM55.127 0L57.7637 0L30.6152-70.459L29.4434-70.459L29.4434-67.1387Z"/>
  </g>
  <line id="Baseline-L" style="fill:none;stroke:#27AAE1;opacity:1;stroke-width:0.5;" x1="263" x2="3036" y1="1556" y2="1556"/>
  <line id="Capline-L" style="fill:none;stroke:#27AAE1;opacity:1;stroke-width:0.5;" x1="263" x2="3036" y1="1485.54" y2="1485.54"/>
  <line id="left-margin-Regular-M" style="fill:none;stroke:#00AEEF;stroke-width:0.5;opacity:1.0;" x1="1391.01" x2="1391.01" y1="1030.73" y2="1150.14"/>
  <line id="right-margin-Regular-M" style="fill:none;stroke:#00AEEF;stroke-width:0.5;opacity:1.0;" x1="1508.68" x2="1508.68" y1="1030.73" y2="1150.14"/>
 </g>
 <g id="Symbols">
  <g id="Black-L" transform="matrix(1 0 0 1 2853.82 1556)">
   <path class="multicolor-0:systemBlueColor hierarchical-0:secondary SFSymbolsPreview007AFF" d="M142.205-61.0876C138.631-69.3442 133.783-76.4929 127.455-82.7783C121.173-89.0611 114.021-93.9518 105.765-97.4824C97.5082-101.013 88.8-102.822 79.4356-102.822C70.0712-102.822 61.363-101.055 53.1065-97.4824C44.85-93.9093 37.7437-89.0611 31.4583-82.7783C25.1755-76.4956 20.2848-69.3442 16.7542-61.0876C13.2236-52.8311 11.4146-44.1229 11.4146-34.7585C11.4146-25.3942 13.1812-16.6833 16.7542-8.42943C20.3273-0.172882 25.1755 6.97585 31.4583 13.2613C37.741 19.544 44.8924 24.4347 53.1489 27.9653C61.4055 31.4959 70.1137 33.305 79.4781 33.305C88.8424 33.305 97.5957 31.5383 105.807 27.9653C114.019 24.3922 121.17 19.544 127.498 13.2613C133.781 6.97848 138.671-0.172882 142.205-8.42943C145.778-16.686 147.544-25.3942 147.544-34.7585C147.544-44.1229 145.738-52.8735 142.205-61.0876Z"/>
   <path class="multicolor-0:systemBlueColor hierarchical-1:primary SFSymbolsPreviewFFFFFF" d="M58.9704-10.8413C57.8175-8.86492 55.1823-8.04142 53.2059-9.19432C51.2295-10.3472 50.406-12.9824 51.5589-14.9588L54.6882-20.2292C58.1469-21.2174 60.9468-20.5586 63.0879-17.7587L58.9704-10.8413ZM88.4941-22.3703L49.7896-22.3703C47.4838-22.3703 45.5074-24.3467 45.5074-26.6525C45.5074-28.9583 47.4838-30.9347 49.7896-30.9347L60.6598-30.9347L74.4946-54.9809L70.2124-62.5571C69.0595-64.5335 69.7183-67.1687 71.8594-68.3216C73.8358-69.4745 76.471-68.8157 77.6239-66.6746L79.4356-63.3806L81.412-66.6746C82.5649-68.651 85.2001-69.4745 87.1765-68.3216C89.1529-67.1687 89.9764-64.5335 88.8235-62.5571L70.5418-30.9347L83.7178-30.9347C87.9576-30.8896 90.4281-25.829 88.4941-22.3703ZM109.369-22.3252L103.275-22.3252L107.392-15.0784C108.545-13.102 107.886-10.4668 105.745-9.31393C103.769-8.16103 101.134-8.81983 99.9807-10.9609C93.0633-23.1487 87.7929-32.2072 84.1695-38.3011C80.5461-44.395 83.1813-50.6536 85.6518-52.7947C88.4517-48.0184 92.5692-40.7716 98.169-31.0543L109.204-31.0543C111.51-31.0543 113.486-29.0779 113.486-26.7721C113.651-24.182 111.717-22.3252 109.369-22.3252Z"/>
  </g>
  <g id="Heavy-L" transform="matrix(1 0 0 1 2558.04 1556)">
   <path class="multicolor-0:systemBlueColor hierarchical-0:secondary SFSymbolsPreview007AFF" d="M140.413-60.709C136.887-68.8517 132.105-75.9148 125.853-82.1058C119.675-88.2844 112.599-93.1274 104.457-96.5918C96.314-100.056 87.7382-101.856 78.5159-101.856C69.2936-101.856 60.7178-100.117 52.5751-96.5918C44.4324-93.0665 37.4303-88.2844 31.2393-82.1058C25.0607-75.9272 20.2177-68.8517 16.7533-60.709C13.2889-52.5664 11.4895-43.9905 11.4895-34.7683C11.4895-25.546 13.2279-16.9578 16.7533-8.82749C20.2786-0.684808 25.0607 6.37828 31.2393 12.5693C37.4179 18.7479 44.4934 23.5909 52.6361 27.0553C60.7788 30.5197 69.3546 32.3191 78.5768 32.3191C87.7991 32.3191 96.4483 30.5807 104.518 27.0553C112.587 23.5299 119.662 18.7479 125.914 12.5693C132.093 6.39064 136.936-0.684808 140.413-8.82749C143.938-16.9702 145.677-25.546 145.677-34.7683C145.677-43.9905 143.89-52.6273 140.413-60.709Z"/>
   <path class="multicolor-0:systemBlueColor hierarchical-1:primary SFSymbolsPreviewFFFFFF" d="M58.0321-10.305C56.8792-8.32856 54.244-7.50506 52.2676-8.65796C50.2912-9.81086 49.4677-12.4461 50.6206-14.4225L53.7499-19.6929C57.2086-20.6811 60.0085-20.0223 62.1496-17.2224L58.0321-10.305ZM87.5744-21.834L48.8699-21.834C46.5641-21.834 44.5877-23.8104 44.5877-26.1162C44.5877-28.422 46.5641-30.3984 48.8699-30.3984L59.7401-30.3984L73.5749-54.4446L69.2927-62.0208C68.1398-63.9972 68.7986-66.6324 70.9397-67.7853C72.9161-68.9382 75.5513-68.2794 76.7042-66.1383L78.5159-62.8443L80.4923-66.1383C81.6452-68.1147 84.2804-68.9382 86.2568-67.7853C88.2332-66.6324 89.0567-63.9972 87.9038-62.0208L69.6221-30.3984L82.7981-30.3984C87.0193-30.325 89.4898-25.2927 87.5744-21.834ZM108.43-21.7606L102.336-21.7606L106.454-14.5138C107.607-12.5374 106.948-9.90224 104.807-8.74934C102.831-7.59644 100.195-8.25524 99.0424-10.3963C92.125-22.5841 86.8546-31.6426 83.2312-37.7365C79.6078-43.8304 82.243-50.089 84.7135-52.2301C87.5134-47.4538 91.6309-40.207 97.2307-30.4897L108.266-30.4897C110.571-30.4897 112.548-28.5133 112.548-26.2075C112.713-23.6457 110.797-21.7606 108.43-21.7606Z"/>
  </g>
  <g id="Bold-L" transform="matrix(1 0 0 1 2262.49 1556)">
   <path class="multicolor-0:systemBlueColor hierarchical-0:secondary SFSymbolsPreview007AFF" d="M138.161-60.2442C134.701-68.2419 129.999-75.1915 123.843-81.271C117.793-87.3213 110.814-92.0992 102.817-95.4836C94.819-98.8681 86.403-100.651 77.3574-100.651C68.3118-100.651 59.8958-98.9439 51.8982-95.4836C43.9006-92.0234 37.0267-87.3213 30.9472-81.271C24.8969-75.2206 20.119-68.2419 16.7345-60.2442C13.3501-52.2466 11.5675-43.8307 11.5675-34.785C11.5675-25.7394 13.2743-17.2943 16.7345-9.32582C20.1948-1.3282 24.8969 5.62141 30.9472 11.7009C36.9976 17.7513 43.9763 22.5291 51.9739 25.9136C59.9716 29.2981 68.3875 31.0806 77.4331 31.0806C86.4788 31.0806 94.9996 29.3738 102.892 25.9136C110.785 22.4533 117.764 17.7513 123.919 11.7009C129.969 5.65054 134.747-1.3282 138.161-9.32582C141.621-17.3234 143.328-25.7394 143.328-34.785C143.328-43.8307 141.575-52.3224 138.161-60.2442Z"/>
   <path class="multicolor-0:systemBlueColor hierarchical-1:primary SFSymbolsPreviewFFFFFF" d="M56.8588-9.70496C55.7059-7.72856 53.0707-6.90506 51.0943-8.05796C49.1179-9.21086 48.2944-11.8461 49.4473-13.8225L52.5766-19.0929C56.0353-20.0811 58.8352-19.4223 60.9763-16.6224L56.8588-9.70496ZM86.4159-21.234L47.7114-21.234C45.4056-21.234 43.4292-23.2104 43.4292-25.5162C43.4292-27.822 45.4056-29.7984 47.7114-29.7984L58.5816-29.7984L72.4164-53.8446L68.1342-61.4208C66.9813-63.3972 67.6401-66.0324 69.7812-67.1853C71.7576-68.3382 74.3928-67.6794 75.5457-65.5383L77.3574-62.2443L79.3338-65.5383C80.4867-67.5147 83.1219-68.3382 85.0983-67.1853C87.0747-66.0324 87.8982-63.3972 86.7453-61.4208L68.4636-29.7984L81.6396-29.7984C85.846-29.6935 88.3165-24.6927 86.4159-21.234ZM107.257-21.1291L101.163-21.1291L105.281-13.8823C106.434-11.9059 105.775-9.27067 103.634-8.11777C101.657-6.96487 99.022-7.62367 97.8691-9.76477C90.9517-21.9526 85.6813-31.0111 82.0579-37.105C78.4345-43.1989 81.0697-49.4575 83.5402-51.5986C86.3401-46.8223 90.4576-39.5755 96.0574-29.8582L107.092-29.8582C109.398-29.8582 111.375-27.8818 111.375-25.576C111.539-23.0457 109.639-21.1291 107.257-21.1291Z"/>
  </g>
  <g id="Semibold-L" transform="matrix(1 0 0 1 1966.59 1556)">
   <path class="multicolor-0:systemBlueColor hierarchical-0:secondary SFSymbolsPreview007AFF" d="M136.608-59.9238C133.193-67.8214 128.546-74.6928 122.458-80.6954C116.496-86.6574 109.584-91.3903 101.686-94.7197C93.7883-98.049 85.4826-99.82 76.5587-99.82C67.6349-99.82 59.3291-98.135 51.4315-94.7197C43.5339-91.3043 36.7485-86.6574 30.7458-80.6954C24.7839-74.7335 20.051-67.8214 16.7216-59.9238C13.3922-52.0262 11.6212-43.7205 11.6212-34.7966C11.6212-25.8727 13.3063-17.5263 16.7216-9.66937C20.137-1.77176 24.7839 5.09962 30.7458 11.1022C36.7078 17.0642 43.6198 21.7971 51.5175 25.1265C59.4151 28.4558 67.7208 30.2268 76.6447 30.2268C85.5685 30.2268 94.001 28.5418 101.772 25.1265C109.543 21.7111 116.455 17.0642 122.544 11.1022C128.505 5.14032 133.238-1.77176 136.608-9.66937C140.024-17.567 141.709-25.8727 141.709-34.7966C141.709-43.7205 139.979-52.1122 136.608-59.9238Z"/>
   <path class="multicolor-0:systemBlueColor hierarchical-1:primary SFSymbolsPreviewFFFFFF" d="M56.05-9.29132C54.8971-7.31492 52.2619-6.49142 50.2855-7.64432C48.3091-8.79722 47.4856-11.4324 48.6385-13.4088L51.7678-18.6792C55.2265-19.6674 58.0264-19.0086 60.1675-16.2087L56.05-9.29132ZM85.6172-20.8203L46.9127-20.8203C44.6069-20.8203 42.6305-22.7967 42.6305-25.1025C42.6305-27.4083 44.6069-29.3847 46.9127-29.3847L57.7829-29.3847L71.6177-53.4309L67.3355-61.0071C66.1826-62.9835 66.8414-65.6187 68.9825-66.7716C70.9589-67.9245 73.5941-67.2657 74.747-65.1246L76.5587-61.8306L78.5351-65.1246C79.688-67.101 82.3232-67.9245 84.2996-66.7716C86.276-65.6187 87.0995-62.9835 85.9466-61.0071L67.6649-29.3847L80.8409-29.3847C85.0372-29.2581 87.5077-24.279 85.6172-20.8203ZM106.448-20.6937L100.354-20.6937L104.472-13.4469C105.625-11.4705 104.966-8.83526 102.825-7.68236C100.848-6.52946 98.2132-7.18826 97.0603-9.32936C90.1429-21.5172 84.8725-30.5757 81.2491-36.6696C77.6257-42.7635 80.2609-49.0221 82.7314-51.1632C85.5313-46.3869 89.6488-39.1401 95.2486-29.4228L106.283-29.4228C108.589-29.4228 110.566-27.4464 110.566-25.1406C110.73-22.632 108.84-20.6937 106.448-20.6937Z"/>
  </g>
  <g id="Medium-L" transform="matrix(1 0 0 1 1670.48 1556)">
   <path class="multicolor-0:systemBlueColor hierarchical-0:secondary SFSymbolsPreview007AFF" d="M135.431-59.6809C132.05-67.5027 127.445-74.3147 121.407-80.259C115.512-86.1539 108.65-90.8528 100.829-94.1404C93.0068-97.428 84.7847-99.1902 75.9531-99.1902C67.1216-99.1902 58.8994-97.5217 51.0776-94.1404C43.2558-90.7591 36.5375-86.1539 30.5932-80.259C24.6983-74.3642 19.9994-67.5027 16.7118-59.6809C13.4242-51.8591 11.662-43.6369 11.662-34.8054C11.662-25.9738 13.3305-17.7022 16.7118-9.92987C20.0931-2.10808 24.6983 4.70398 30.5932 10.6483C36.488 16.5432 43.3495 21.2421 51.1713 24.5297C58.9931 27.8173 67.2153 29.5795 76.0468 29.5795C84.8784 29.5795 93.2437 27.911 100.922 24.5297C108.601 21.1484 115.462 16.5432 121.501 10.6483C127.395 4.75345 132.094-2.10808 135.431-9.92987C138.813-17.7517 140.481-25.9738 140.481-34.8054C140.481-43.6369 138.768-51.9528 135.431-59.6809Z"/>
   <path class="multicolor-0:systemBlueColor hierarchical-1:primary SFSymbolsPreviewFFFFFF" d="M55.4366-8.97769C54.2837-7.00129 51.6485-6.17779 49.6721-7.33069C47.6957-8.48359 46.8722-11.1188 48.0251-13.0952L51.1544-18.3656C54.6131-19.3538 57.413-18.695 59.5541-15.8951L55.4366-8.97769ZM85.0116-20.5067L46.3071-20.5067C44.0013-20.5067 42.0249-22.4831 42.0249-24.7889C42.0249-27.0947 44.0013-29.0711 46.3071-29.0711L57.1773-29.0711L71.0121-53.1173L66.7299-60.6935C65.577-62.6699 66.2358-65.3051 68.3769-66.458C70.3533-67.6109 72.9885-66.9521 74.1414-64.811L75.9531-61.517L77.9295-64.811C79.0824-66.7874 81.7176-67.6109 83.694-66.458C85.6704-65.3051 86.4939-62.6699 85.341-60.6935L67.0593-29.0711L80.2353-29.0711C84.4238-28.9279 86.8943-23.9654 85.0116-20.5067ZM105.835-20.3635L99.7409-20.3635L103.858-13.1167C105.011-11.1403 104.353-8.50512 102.211-7.35222C100.235-6.19932 97.5998-6.85812 96.4469-8.99922C89.5295-21.187 84.2591-30.2455 80.6357-36.3394C77.0123-42.4333 79.6475-48.6919 82.118-50.833C84.9179-46.0567 89.0354-38.8099 94.6352-29.0926L105.67-29.0926C107.976-29.0926 109.952-27.1162 109.952-24.8104C110.117-22.3184 108.234-20.3635 105.835-20.3635Z"/>
  </g>
  <g id="Regular-L" transform="matrix(1 0 0 1 1374.57 1556)">
   <path class="multicolor-0:systemBlueColor hierarchical-0:secondary SFSymbolsPreview007AFF" d="M133.896-59.364C130.559-67.0869 126.008-73.8215 120.036-79.6898C114.229-85.4972 107.433-90.1517 99.7104-93.3848C91.9875-96.6179 83.8743-98.3687 75.1632-98.3687C66.4522-98.3687 58.339-96.7217 50.6161-93.3848C42.8932-90.0479 36.2623-85.4972 30.394-79.6898C24.5866-73.8824 19.9321-67.0869 16.699-59.364C13.4659-51.6411 11.7151-43.5279 11.7151-34.8168C11.7151-26.1057 13.3621-17.9316 16.699-10.2696C20.0359-2.54676 24.5866 4.18793 30.394 10.0562C36.2014 15.8636 42.997 20.5181 50.7199 23.7512C58.4428 26.9843 66.556 28.7351 75.267 28.7351C83.9781 28.7351 92.256 27.0881 99.8142 23.7512C107.372 20.4143 114.168 15.8636 120.14 10.0562C125.947 4.24884 130.602-2.54676 133.896-10.2696C137.233-17.9925 138.88-26.1057 138.88-34.8168C138.88-43.5279 137.19-51.7449 133.896-59.364Z"/>
   <path class="multicolor-0:systemBlueColor hierarchical-1:primary SFSymbolsPreviewFFFFFF" d="M54.6367-8.5686C53.4838-6.5922 50.8486-5.7687 48.8722-6.9216C46.8958-8.0745 46.0723-10.7097 47.2252-12.6861L50.3545-17.9565C53.8132-18.9447 56.6131-18.2859 58.7542-15.486L54.6367-8.5686ZM84.2217-20.0976L45.5172-20.0976C43.2114-20.0976 41.235-22.074 41.235-24.3798C41.235-26.6856 43.2114-28.662 45.5172-28.662L56.3874-28.662L70.2222-52.7082L65.94-60.2844C64.7871-62.2608 65.4459-64.896 67.587-66.0489C69.5634-67.2018 72.1986-66.543 73.3515-64.4019L75.1632-61.1079L77.1396-64.4019C78.2925-66.3783 80.9277-67.2018 82.9041-66.0489C84.8805-64.896 85.704-62.2608 84.5511-60.2844L66.2694-28.662L79.4454-28.662C83.6239-28.4973 86.0944-23.5563 84.2217-20.0976ZM105.035-19.9329L98.941-19.9329L103.058-12.6861C104.211-10.7097 103.553-8.0745 101.411-6.9216C99.4351-5.7687 96.7999-6.4275 95.647-8.5686C88.7296-20.7564 83.4592-29.8149 79.8358-35.9088C76.2124-42.0027 78.8476-48.2613 81.3181-50.4024C84.118-45.6261 88.2355-38.3793 93.8353-28.662L104.87-28.662C107.176-28.662 109.152-26.6856 109.152-24.3798C109.317-21.9093 107.444-19.9329 105.035-19.9329Z"/>
  </g>
  <g id="Light-L" transform="matrix(1 0 0 1 1078.76 1556)">
   <path class="multicolor-0:systemBlueColor hierarchical-0:secondary SFSymbolsPreview007AFF" d="M132.131-59.0698C128.878-66.6666 124.369-73.2752 118.481-79.1014C112.758-84.8248 106.046-89.3952 98.4495-92.5863C90.8527-95.7773 82.8236-97.4861 74.2386-97.4861C65.6536-97.4861 57.6245-95.8391 50.0277-92.5863C42.4309-89.3334 35.884-84.8248 30.0578-79.1014C24.3344-73.3781 19.764-66.6666 16.5729-59.0698C13.3819-51.473 11.6731-43.4438 11.6731-34.8588C11.6731-26.2738 13.3201-18.1418 16.5729-10.6479C19.8258-3.0511 24.3344 3.5575 30.0578 9.38376C35.7811 15.1071 42.4926 19.6775 50.0894 22.8686C57.6862 26.0597 65.7154 27.7684 74.3004 27.7684C82.8854 27.7684 91.0792 26.1214 98.5113 22.8686C105.943 19.6158 112.655 15.1071 118.543 9.38376C124.266 3.66043 128.837-3.0511 132.131-10.6479C135.384-18.2447 137.031-26.2738 137.031-34.8588C137.031-43.4438 135.425-51.5347 132.131-59.0698Z"/>
   <path class="multicolor-0:systemBlueColor hierarchical-1:primary SFSymbolsPreviewFFFFFF" d="M53.754-8.5686C52.6011-6.5922 49.9659-5.7687 47.9895-6.9216C46.0131-8.0745 45.1896-10.7097 46.3425-12.6861L49.4718-17.9565C52.9305-18.9447 55.7304-18.2859 57.8715-15.486L53.754-8.5686ZM83.2971-20.0976L44.5926-20.0976C42.2868-20.0976 40.3104-22.074 40.3104-24.3798C40.3104-26.6856 42.2868-28.662 44.5926-28.662L55.4628-28.662L69.2976-52.7082L65.0154-60.2844C63.8625-62.2608 64.5213-64.896 66.6624-66.0489C68.6388-67.2018 71.274-66.543 72.4269-64.4019L74.2386-61.1079L76.215-64.4019C77.3679-66.3783 80.0031-67.2018 81.9795-66.0489C83.9559-64.896 84.7794-62.2608 83.6265-60.2844L65.3448-28.662L78.5208-28.662C82.7412-28.4973 85.2117-23.5563 83.2971-20.0976ZM104.152-19.9329L98.0583-19.9329L102.176-12.6861C103.329-10.7097 102.67-8.0745 100.529-6.9216C98.5524-5.7687 95.9172-6.4275 94.7643-8.5686C87.8469-20.7564 82.5765-29.8149 78.9531-35.9088C75.3297-42.0027 77.9649-48.2613 80.4354-50.4024C83.2353-45.6261 87.3528-38.3793 92.9526-28.662L103.988-28.662C106.293-28.662 108.27-26.6856 108.27-24.3798C108.434-21.9093 106.52-19.9329 104.152-19.9329Z"/>
  </g>
  <g id="Thin-L" transform="matrix(1 0 0 1 783.245 1556)">
   <path class="multicolor-0:systemBlueColor hierarchical-0:secondary SFSymbolsPreview007AFF" d="M129.796-58.6807C126.654-66.1107 122.201-72.5525 116.424-78.3232C110.812-83.9354 104.212-88.3946 96.7819-91.5301C89.3519-94.6656 81.4339-96.3188 73.0157-96.3188C64.5975-96.3188 56.6795-94.6718 49.2495-91.5301C41.8194-88.3885 35.3838-83.9354 29.6131-78.3232C24.0009-72.7111 19.5417-66.1107 16.4062-58.6807C13.2707-51.2506 11.6175-43.3327 11.6175-34.9144C11.6175-26.4962 13.2645-18.4197 16.4062-11.1482C19.5478-3.71814 24.0009 2.72369 29.6131 8.49437C35.2252 14.1065 41.8256 18.5658 49.2556 21.7013C56.6857 24.8368 64.6036 26.4899 73.0219 26.4899C81.4401 26.4899 89.5228 24.8429 96.7881 21.7013C104.053 18.5596 110.654 14.1065 116.431 8.49437C122.043 2.88222 126.502-3.71814 129.796-11.1482C132.938-18.5782 134.585-26.4962 134.585-34.9144C134.585-43.3327 133.09-51.2568 129.796-58.6807Z"/>
   <path class="multicolor-0:systemBlueColor hierarchical-1:primary SFSymbolsPreviewFFFFFF" d="M52.5867-8.5686C51.4338-6.5922 48.7986-5.7687 46.8222-6.9216C44.8458-8.0745 44.0223-10.7097 45.1752-12.6861L48.3045-17.9565C51.7632-18.9447 54.5631-18.2859 56.7042-15.486L52.5867-8.5686ZM82.0742-20.0976L43.3697-20.0976C41.0639-20.0976 39.0875-22.074 39.0875-24.3798C39.0875-26.6856 41.0639-28.662 43.3697-28.662L54.2399-28.662L68.0747-52.7082L63.7925-60.2844C62.6396-62.2608 63.2984-64.896 65.4395-66.0489C67.4159-67.2018 70.0511-66.543 71.204-64.4019L73.0157-61.1079L74.9921-64.4019C76.145-66.3783 78.7802-67.2018 80.7566-66.0489C82.733-64.896 83.5565-62.2608 82.4036-60.2844L64.1219-28.662L77.2979-28.662C81.5739-28.4973 84.0444-23.5563 82.0742-20.0976ZM102.985-19.9329L96.891-19.9329L101.009-12.6861C102.161-10.7097 101.503-8.0745 99.3615-6.9216C97.3851-5.7687 94.7499-6.4275 93.597-8.5686C86.6796-20.7564 81.4092-29.8149 77.7858-35.9088C74.1624-42.0027 76.7976-48.2613 79.2681-50.4024C82.068-45.6261 86.1855-38.3793 91.7853-28.662L102.82-28.662C105.126-28.662 107.102-26.6856 107.102-24.3798C107.267-21.9093 105.297-19.9329 102.985-19.9329Z"/>
  </g>
  <g id="Ultralight-L" transform="matrix(1 0 0 1 487.146 1556)">
   <path class="multicolor-0:systemBlueColor hierarchical-0:secondary SFSymbolsPreview007AFF" d="M128.6-58.4814C125.516-65.826 121.091-72.1824 115.371-77.9246C109.816-83.4798 103.272-87.8822 95.9278-90.9892C88.5832-94.0962 80.7222-95.7209 72.3893-95.7209C64.0565-95.7209 56.1955-94.0739 48.8509-90.9892C41.5062-87.9044 35.1275-83.4798 29.3853-77.9246C23.8301-72.3694 19.4278-65.826 16.3208-58.4814C13.2138-51.1367 11.5891-43.2757 11.5891-34.9429C11.5891-26.6101 13.2361-18.5621 16.3208-11.4044C19.4055-4.0598 23.8301 2.29663 29.3853 8.03883C34.9405 13.5941 41.484 17.9964 48.8286 21.1034C56.1732 24.2104 64.0342 25.8351 72.367 25.8351C80.6999 25.8351 88.7256 24.1881 95.9055 21.1034C103.085 18.0187 109.629 13.5941 115.349 8.03883C120.904 2.48362 125.306-4.0598 128.6-11.4044C131.685-18.749 133.332-26.6101 133.332-34.9429C133.332-43.2757 131.894-51.1144 128.6-58.4814Z"/>
   <path class="multicolor-0:systemBlueColor hierarchical-1:primary SFSymbolsPreviewFFFFFF" d="M51.9888-8.5686C50.8359-6.5922 48.2007-5.7687 46.2243-6.9216C44.2479-8.0745 43.4244-10.7097 44.5773-12.6861L47.7066-17.9565C51.1653-18.9447 53.9652-18.2859 56.1063-15.486L51.9888-8.5686ZM81.4478-20.0976L42.7433-20.0976C40.4375-20.0976 38.4611-22.074 38.4611-24.3798C38.4611-26.6856 40.4375-28.662 42.7433-28.662L53.6135-28.662L67.4483-52.7082L63.1661-60.2844C62.0132-62.2608 62.672-64.896 64.8131-66.0489C66.7895-67.2018 69.4247-66.543 70.5776-64.4019L72.3893-61.1079L74.3657-64.4019C75.5186-66.3783 78.1538-67.2018 80.1302-66.0489C82.1066-64.896 82.9301-62.2608 81.7772-60.2844L63.4955-28.662L76.6715-28.662C80.976-28.4973 83.4465-23.5563 81.4478-20.0976ZM102.387-19.9329L96.2931-19.9329L100.411-12.6861C101.564-10.7097 100.905-8.0745 98.7636-6.9216C96.7872-5.7687 94.152-6.4275 92.9991-8.5686C86.0817-20.7564 80.8113-29.8149 77.1879-35.9088C73.5645-42.0027 76.1997-48.2613 78.6702-50.4024C81.4701-45.6261 85.5876-38.3793 91.1874-28.662L102.222-28.662C104.528-28.662 106.505-26.6856 106.505-24.3798C106.669-21.9093 104.671-19.9329 102.387-19.9329Z"/>
  </g>
  <g id="Black-M" transform="matrix(1 0 0 1 2871.07 1126)">
   <path class="multicolor-0:systemBlueColor hierarchical-0:secondary SFSymbolsPreview007AFF" d="M111.473-55.553C108.675-62.0305 104.867-67.6254 99.9111-72.5705C94.9655-77.5161 89.3712-81.3347 82.8937-84.1212C76.4162-86.9077 69.5673-88.3119 62.2072-88.3119C54.8472-88.3119 47.9983-86.919 41.5208-84.1212C35.0433-81.3234 29.4597-77.5161 24.5147-72.5705C19.569-67.6248 15.7504-62.0305 12.9639-55.553C10.1774-49.0756 8.77322-42.2266 8.77322-34.8666C8.77322-27.5066 10.1662-20.6582 12.9639-14.1801C15.7617-7.70265 19.569-2.10772 24.5147 2.83731C29.4603 7.78295 35.0546 11.6015 41.5321 14.388C48.0096 17.1745 54.8585 18.5787 62.2185 18.5787C69.5785 18.5787 76.4382 17.1858 82.905 14.388C89.3718 11.5902 94.9661 7.78295 99.9224 2.83731C104.868-2.10834 108.687-7.70265 111.473-14.1801C114.27-20.6576 115.663-27.5066 115.663-34.8666C115.663-42.2266 114.258-49.0869 111.473-55.553Z"/>
   <path class="multicolor-0:systemBlueColor hierarchical-1:primary SFSymbolsPreviewFFFFFF" d="M46.3736-16.8005C45.4804-15.2693 43.4388-14.6313 41.9076-15.5245C40.3764-16.4177 39.7384-18.4593 40.6316-19.9905L43.056-24.0737C45.7356-24.8393 47.9048-24.3289 49.5636-22.1597L46.3736-16.8005ZM69.2252-25.7325L39.2392-25.7325C37.4528-25.7325 35.9216-27.2637 35.9216-29.0501C35.9216-30.8365 37.4528-32.3677 39.2392-32.3677L47.6608-32.3677L58.3792-50.9973L55.0616-56.8669C54.1684-58.3981 54.6788-60.4397 56.3376-61.3329C57.8688-62.2261 59.9104-61.7157 60.8036-60.0569L62.2072-57.5049L63.7384-60.0569C64.6316-61.5881 66.6732-62.2261 68.2044-61.3329C69.7356-60.4397 70.3736-58.3981 69.4804-56.8669L55.3168-32.3677L65.5248-32.3677C68.8312-32.3571 70.7452-28.4121 69.2252-25.7325ZM85.4192-25.7219L80.698-25.7219L83.888-20.1075C84.7812-18.5763 84.2708-16.5347 82.612-15.6415C81.0808-14.7483 79.0392-15.2587 78.146-16.9175C72.7868-26.3599 68.7036-33.3779 65.8964-38.0991C63.0892-42.8203 65.1308-47.6691 67.0448-49.3279C69.214-45.6275 72.404-40.0131 76.7424-32.4847L85.2916-32.4847C87.078-32.4847 88.6092-30.9535 88.6092-29.1671C88.7368-27.1361 87.2168-25.7219 85.4192-25.7219Z"/>
  </g>
  <g id="Heavy-M" transform="matrix(1 0 0 1 2575.18 1126)">
   <path class="multicolor-0:systemBlueColor hierarchical-0:secondary SFSymbolsPreview007AFF" d="M109.884-55.2101C107.125-61.5878 103.378-67.1107 98.4886-71.9673C93.637-76.8189 88.1091-80.5986 81.7313-83.3243C75.3535-86.05 68.6262-87.4485 61.3935-87.4485C54.1607-87.4485 47.4334-86.0832 41.0556-83.3243C34.6778-80.5654 29.1882-76.8189 24.3316-71.9673C19.48-67.1157 15.7003-61.5878 12.9746-55.2101C10.249-48.8323 8.85038-42.1049 8.85038-34.8722C8.85038-27.6395 10.2157-20.9071 12.9746-14.5344C15.7336-8.15657 19.48-2.63372 24.3316 2.22289C29.1832 7.07448 34.7111 10.8542 41.0889 13.5799C47.4667 16.3055 54.194 17.7041 61.4267 17.7041C68.6594 17.7041 75.425 16.3388 81.7646 13.5799C88.1041 10.821 93.632 7.07448 98.5218 2.22289C103.373-2.62871 107.153-8.15657 109.884-14.5344C112.643-20.9121 114.008-27.6395 114.008-34.8722C114.008-42.1049 112.614-48.8655 109.884-55.2101Z"/>
   <path class="multicolor-0:systemBlueColor hierarchical-1:primary SFSymbolsPreviewFFFFFF" d="M45.5378-16.2762C44.6446-14.745 42.603-14.107 41.0718-15.0002C39.5406-15.8934 38.9026-17.935 39.7958-19.4662L42.2202-23.5494C44.8998-24.315 47.069-23.8046 48.7278-21.6354L45.5378-16.2762ZM68.4115-25.2082L38.4255-25.2082C36.6391-25.2082 35.1079-26.7394 35.1079-28.5258C35.1079-30.3122 36.6391-31.8434 38.4255-31.8434L46.8471-31.8434L57.5655-50.473L54.2479-56.3426C53.3547-57.8738 53.8651-59.9154 55.5239-60.8086C57.0551-61.7018 59.0967-61.1914 59.9899-59.5326L61.3935-56.9806L62.9247-59.5326C63.8179-61.0638 65.8595-61.7018 67.3907-60.8086C68.9219-59.9154 69.5599-57.8738 68.6667-56.3426L54.5031-31.8434L64.7111-31.8434C67.9954-31.8051 69.9094-27.8878 68.4115-25.2082ZM84.5834-25.1699L79.8622-25.1699L83.0522-19.5555C83.9454-18.0243 83.435-15.9827 81.7762-15.0895C80.245-14.1963 78.2034-14.7067 77.3102-16.3655C71.951-25.8079 67.8678-32.8259 65.0606-37.5471C62.2534-42.2683 64.295-47.1171 66.209-48.7759C68.3782-45.0755 71.5682-39.4611 75.9066-31.9327L84.4558-31.9327C86.2422-31.9327 87.7734-30.4015 87.7734-28.6151C87.901-26.6118 86.4031-25.1699 84.5834-25.1699Z"/>
  </g>
  <g id="Bold-M" transform="matrix(1 0 0 1 2279.4 1126)">
   <path class="multicolor-0:systemBlueColor hierarchical-0:secondary SFSymbolsPreview007AFF" d="M108.107-54.8264C105.391-61.0927 101.713-66.5349 96.8972-71.2926C92.1508-76.039 86.6973-79.7752 80.431-82.4329C74.1647-85.0905 67.5735-86.4828 60.4831-86.4828C53.3928-86.4828 46.8015-85.1483 40.5353-82.4329C34.269-79.7174 28.8846-76.039 24.1269-71.2926C19.3805-66.5462 15.6442-61.0927 12.9866-54.8264C10.329-48.5601 8.93669-41.9689 8.93669-34.8785C8.93669-27.7882 10.2712-21.1856 12.9866-14.9306C15.7021-8.66434 19.3805-3.22212 24.1269 1.53557C28.8733 6.28196 34.3268 10.0182 40.5931 12.6758C46.8594 15.3335 53.4506 16.7258 60.541 16.7258C67.6313 16.7258 74.2917 15.3913 80.4889 12.6758C86.686 9.96039 92.1395 6.28196 96.955 1.53557C101.701-3.21082 105.438-8.66434 108.107-14.9306C110.822-21.1969 112.157-27.7882 112.157-34.8785C112.157-41.9689 110.776-48.6179 108.107-54.8264Z"/>
   <path class="multicolor-0:systemBlueColor hierarchical-1:primary SFSymbolsPreviewFFFFFF" d="M44.6029-15.6897C43.7097-14.1585 41.6681-13.5205 40.1369-14.4137C38.6057-15.3069 37.9677-17.3485 38.8609-18.8797L41.2853-22.9629C43.9649-23.7285 46.1341-23.2181 47.7929-21.0489L44.6029-15.6897ZM67.5011-24.6217L37.5151-24.6217C35.7287-24.6217 34.1975-26.1529 34.1975-27.9393C34.1975-29.7257 35.7287-31.2569 37.5151-31.2569L45.9367-31.2569L56.6551-49.8865L53.3375-55.7561C52.4443-57.2873 52.9547-59.3289 54.6135-60.2221C56.1447-61.1153 58.1863-60.6049 59.0795-58.9461L60.4831-56.3941L62.0143-58.9461C62.9075-60.4773 64.9491-61.1153 66.4803-60.2221C68.0115-59.3289 68.6495-57.2873 67.7563-55.7561L53.5927-31.2569L63.8007-31.2569C67.0605-31.1877 68.9745-27.3013 67.5011-24.6217ZM83.6485-24.5525L78.9273-24.5525L82.1173-18.9381C83.0105-17.4069 82.5001-15.3653 80.8413-14.4721C79.3101-13.5789 77.2685-14.0893 76.3753-15.7481C71.0161-25.1905 66.9329-32.2085 64.1257-36.9297C61.3185-41.6509 63.3601-46.4997 65.2741-48.1585C67.4433-44.4581 70.6333-38.8437 74.9717-31.3153L83.5209-31.3153C85.3073-31.3153 86.8385-29.7841 86.8385-27.9977C86.9661-26.0253 85.4927-24.5525 83.6485-24.5525Z"/>
  </g>
  <g id="Semibold-M" transform="matrix(1 0 0 1 1983.32 1126)">
   <path class="multicolor-0:systemBlueColor hierarchical-0:secondary SFSymbolsPreview007AFF" d="M106.881-54.5619C104.196-60.7513 100.564-66.1379 95.8001-70.8274C91.1263-75.5013 85.724-79.2076 79.5346-81.8183C73.3452-84.429 66.8478-85.817 59.8556-85.817C52.8634-85.817 46.3659-84.5038 40.1765-81.8183C33.9871-79.1328 28.6752-75.5013 23.9857-70.8274C19.3119-66.1536 15.6056-60.7513 12.9949-54.5619C10.3841-48.3725 8.9962-41.875 8.9962-34.8828C8.9962-27.8907 10.3094-21.3776 12.9949-15.2038C15.6804-9.01439 19.3119-3.62777 23.9857 1.06174C28.6596 5.7356 34.0619 9.44189 40.2513 12.0526C46.4407 14.6633 52.9381 16.0513 59.9303 16.0513C66.9225 16.0513 73.5104 14.7381 79.6094 12.0526C85.7084 9.36712 91.1106 5.7356 95.8749 1.06174C100.549-3.61212 104.255-9.01439 106.881-15.2038C109.567-21.3932 110.88-27.8907 110.88-34.8828C110.88-41.875 109.508-48.4473 106.881-54.5619Z"/>
   <path class="multicolor-0:systemBlueColor hierarchical-1:primary SFSymbolsPreviewFFFFFF" d="M43.9584-15.2853C43.0652-13.7541 41.0236-13.1161 39.4924-14.0093C37.9612-14.9025 37.3232-16.9441 38.2164-18.4753L40.6408-22.5585C43.3204-23.3241 45.4896-22.8137 47.1484-20.6445L43.9584-15.2853ZM66.8736-24.2173L36.8876-24.2173C35.1012-24.2173 33.57-25.7485 33.57-27.5349C33.57-29.3213 35.1012-30.8525 36.8876-30.8525L45.3092-30.8525L56.0276-49.4821L52.71-55.3517C51.8168-56.8829 52.3272-58.9245 53.986-59.8177C55.5172-60.7109 57.5588-60.2005 58.452-58.5417L59.8556-55.9897L61.3868-58.5417C62.28-60.0729 64.3216-60.7109 65.8528-59.8177C67.384-58.9245 68.022-56.8829 67.1288-55.3517L52.9652-30.8525L63.1732-30.8525C66.416-30.7621 68.33-26.8969 66.8736-24.2173ZM83.004-24.1269L78.2828-24.1269L81.4728-18.5125C82.366-16.9813 81.8556-14.9397 80.1968-14.0465C78.6656-13.1533 76.624-13.6637 75.7308-15.3225C70.3716-24.7649 66.2884-31.7829 63.4812-36.5041C60.674-41.2253 62.7156-46.0741 64.6296-47.7329C66.7988-44.0325 69.9888-38.4181 74.3272-30.8897L82.8764-30.8897C84.6628-30.8897 86.194-29.3585 86.194-27.5721C86.3216-25.6209 84.8652-24.1269 83.004-24.1269Z"/>
  </g>
  <g id="Medium-M" transform="matrix(1 0 0 1 1687.09 1126)">
   <path class="multicolor-0:systemBlueColor hierarchical-0:secondary SFSymbolsPreview007AFF" d="M105.952-54.3613C103.29-60.4925 99.6937-65.8369 94.9683-70.4747C90.3494-75.0936 84.986-78.7772 78.8549-81.3523C72.7238-83.9275 66.2975-85.3121 59.3797-85.3121C52.4619-85.3121 46.0356-84.0151 39.9045-81.3523C33.7734-78.6896 28.5165-75.0936 23.8787-70.4747C19.2599-65.8559 15.5763-60.4925 13.0011-54.3613C10.426-48.2302 9.04132-41.8039 9.04132-34.8861C9.04132-27.9684 10.3384-21.5231 13.0011-15.4109C15.6639-9.27982 19.2599-3.93534 23.8787 0.702462C28.4976 5.32132 33.861 9.00489 39.9921 11.58C46.1232 14.1552 52.5495 15.5399 59.4673 15.5399C66.3851 15.5399 72.918 14.2428 78.9425 11.58C84.9671 8.91728 90.3305 5.32132 95.0559 0.702462C99.6748-3.9164 103.358-9.27982 105.952-15.4109C108.615-21.5421 109.912-27.9684 109.912-34.8861C109.912-41.8039 108.547-48.3178 105.952-54.3613Z"/>
   <path class="multicolor-0:systemBlueColor hierarchical-1:primary SFSymbolsPreviewFFFFFF" d="M43.4697-14.9787C42.5765-13.4475 40.5349-12.8095 39.0037-13.7027C37.4725-14.5959 36.8345-16.6375 37.7277-18.1687L40.1521-22.2519C42.8317-23.0175 45.0009-22.5071 46.6597-20.3379L43.4697-14.9787ZM66.3977-23.9107L36.4117-23.9107C34.6253-23.9107 33.0941-25.4419 33.0941-27.2283C33.0941-29.0147 34.6253-30.5459 36.4117-30.5459L44.8333-30.5459L55.5517-49.1755L52.2341-55.0451C51.3409-56.5763 51.8513-58.6179 53.5101-59.5111C55.0413-60.4043 57.0829-59.8939 57.9761-58.2351L59.3797-55.6831L60.9109-58.2351C61.8041-59.7663 63.8457-60.4043 65.3769-59.5111C66.9081-58.6179 67.5461-56.5763 66.6529-55.0451L52.4893-30.5459L62.6973-30.5459C65.9273-30.4394 67.8413-26.5903 66.3977-23.9107ZM82.5153-23.8042L77.7941-23.8042L80.9841-18.1898C81.8773-16.6586 81.3669-14.617 79.7081-13.7238C78.1769-12.8306 76.1353-13.341 75.2421-14.9998C69.8829-24.4422 65.7997-31.4602 62.9925-36.1814C60.1853-40.9026 62.2269-45.7514 64.1409-47.4102C66.3101-43.7098 69.5001-38.0954 73.8385-30.567L82.3877-30.567C84.1741-30.567 85.7053-29.0358 85.7053-27.2494C85.8329-25.3143 84.3893-23.8042 82.5153-23.8042Z"/>
  </g>
  <g id="Regular-M" transform="matrix(1 0 0 1 1391.01 1126)">
   <path class="multicolor-0:systemBlueColor hierarchical-0:secondary SFSymbolsPreview007AFF" d="M104.741-54.0998C102.108-60.1548 98.558-65.4443 93.8833-70.0147C89.3362-74.5618 84.0234-78.2158 77.9683-80.7445C71.9133-83.2733 65.5797-84.6537 58.759-84.6537C51.9383-84.6537 45.6048-83.3777 39.5497-80.7445C33.4946-78.1114 28.3095-74.5618 23.7391-70.0147C19.192-65.4676 15.5381-60.1548 13.0093-54.0998C10.4805-48.0447 9.10016-41.7111 9.10016-34.8904C9.10016-28.0697 10.3762-21.713 13.0093-15.6811C15.6424-9.62602 19.192-4.33653 23.7391 0.233838C28.2862 4.78097 33.599 8.4349 39.6541 10.9637C45.7092 13.4924 52.0427 14.8728 58.8634 14.8728C65.6841 14.8728 72.1452 13.5968 78.0727 10.9637C84.0002 8.33053 89.3129 4.78097 93.9877 0.233838C98.5348-4.31329 102.189-9.62602 104.741-15.6811C107.374-21.7362 108.65-28.0697 108.65-34.8904C108.65-41.7111 107.293-48.149 104.741-54.0998Z"/>
   <path class="multicolor-0:systemBlueColor hierarchical-1:primary SFSymbolsPreviewFFFFFF" d="M42.8323-14.5788C41.9391-13.0476 39.8975-12.4096 38.3663-13.3028C36.8351-14.196 36.1971-16.2376 37.0903-17.7688L39.5147-21.852C42.1943-22.6176 44.3635-22.1072 46.0223-19.938L42.8323-14.5788ZM65.777-23.5108L35.791-23.5108C34.0046-23.5108 32.4734-25.042 32.4734-26.8284C32.4734-28.6148 34.0046-30.146 35.791-30.146L44.2126-30.146L54.931-48.7756L51.6134-54.6452C50.7202-56.1764 51.2306-58.218 52.8894-59.1112C54.4206-60.0044 56.4622-59.494 57.3554-57.8352L58.759-55.2832L60.2902-57.8352C61.1834-59.3664 63.225-60.0044 64.7562-59.1112C66.2874-58.218 66.9254-56.1764 66.0322-54.6452L51.8686-30.146L62.0766-30.146C65.2899-30.0184 67.2039-26.1904 65.777-23.5108ZM81.8779-23.3832L77.1567-23.3832L80.3467-17.7688C81.2399-16.2376 80.7295-14.196 79.0707-13.3028C77.5395-12.4096 75.4979-12.92 74.6047-14.5788C69.2455-24.0212 65.1623-31.0392 62.3551-35.7604C59.5479-40.4816 61.5895-45.3304 63.5035-46.9892C65.6727-43.2888 68.8627-37.6744 73.2011-30.146L81.7503-30.146C83.5367-30.146 85.0679-28.6148 85.0679-26.8284C85.1955-24.9144 83.7686-23.3832 81.8779-23.3832Z"/>
  </g>
  <g id="Light-M" transform="matrix(1 0 0 1 1095.11 1126)">
   <path class="multicolor-0:systemBlueColor hierarchical-0:secondary SFSymbolsPreview007AFF" d="M103.158-53.836C100.6-59.778 97.0885-64.9545 92.4891-69.4872C88.0173-73.9589 82.78-77.5375 76.8379-80.0286C70.8959-82.5197 64.6377-83.8624 57.93-83.8624C51.2224-83.8624 44.9642-82.5864 39.0222-80.0286C33.0801-77.4708 27.9704-73.9589 23.4377-69.4872C18.9659-65.0154 15.3873-59.778 12.8963-53.836C10.4052-47.8939 9.06248-41.6358 9.06248-34.9281C9.06248-28.2205 10.3385-21.9014 12.8963-16.0202C15.454-10.0782 18.9659-4.90174 23.4377-0.369061C27.9094 4.10271 33.1468 7.68127 39.0889 10.1724C45.0309 12.6634 51.2891 14.0061 57.9967 14.0061C64.7044 14.0061 71.0901 12.7301 76.9046 10.1724C82.719 7.61459 87.9564 4.10271 92.5558-0.369061C97.0275-4.84083 100.606-10.0782 103.158-16.0202C105.716-21.9623 106.992-28.2205 106.992-34.9281C106.992-41.6358 105.71-47.9606 103.158-53.836Z"/>
   <path class="multicolor-0:systemBlueColor hierarchical-1:primary SFSymbolsPreviewFFFFFF" d="M42.041-14.5788C41.1478-13.0476 39.1062-12.4096 37.575-13.3028C36.0438-14.196 35.4058-16.2376 36.299-17.7688L38.7234-21.852C41.403-22.6176 43.5722-22.1072 45.231-19.938L42.041-14.5788ZM64.948-23.5108L34.962-23.5108C33.1756-23.5108 31.6444-25.042 31.6444-26.8284C31.6444-28.6148 33.1756-30.146 34.962-30.146L43.3836-30.146L54.102-48.7756L50.7844-54.6452C49.8912-56.1764 50.4016-58.218 52.0604-59.1112C53.5916-60.0044 55.6332-59.494 56.5264-57.8352L57.93-55.2832L59.4612-57.8352C60.3544-59.3664 62.396-60.0044 63.9272-59.1112C65.4584-58.218 66.0964-56.1764 65.2032-54.6452L51.0396-30.146L61.2476-30.146C64.4986-30.0184 66.4126-26.1904 64.948-23.5108ZM81.0866-23.3832L76.3654-23.3832L79.5554-17.7688C80.4486-16.2376 79.9382-14.196 78.2794-13.3028C76.7482-12.4096 74.7066-12.92 73.8134-14.5788C68.4542-24.0212 64.371-31.0392 61.5638-35.7604C58.7566-40.4816 60.7982-45.3304 62.7122-46.9892C64.8814-43.2888 68.0714-37.6744 72.4098-30.146L80.959-30.146C82.7454-30.146 84.2766-28.6148 84.2766-26.8284C84.4042-24.9144 82.9396-23.3832 81.0866-23.3832Z"/>
  </g>
  <g id="Thin-M" transform="matrix(1 0 0 1 799.469 1126)">
   <path class="multicolor-0:systemBlueColor hierarchical-0:secondary SFSymbolsPreview007AFF" d="M101.065-53.4871C98.6069-59.2797 95.1448-64.3066 90.6452-68.7895C86.2731-73.1616 81.1354-76.6405 75.3428-79.0817C69.5503-81.5229 63.3918-82.8158 56.8336-82.8158C50.2755-82.8158 44.117-81.5398 38.3245-79.0817C32.5319-76.6236 27.5218-73.1616 23.039-68.7895C18.6669-64.4174 15.188-59.2797 12.7467-53.4871C10.3055-47.6946 9.01265-41.5361 9.01265-34.978C9.01265-28.4198 10.2886-22.1506 12.7467-16.4688C15.2048-10.6762 18.6669-5.64929 23.039-1.16644C27.4111 3.20565 32.5488 6.68455 38.3413 9.12579C44.1339 11.567 50.2923 12.8599 56.8505 12.8599C63.4086 12.8599 69.6947 11.5839 75.3597 9.12579C81.0246 6.6677 86.1623 3.20565 90.662-1.16644C95.0341-5.53854 98.513-10.6762 101.065-16.4688C103.523-22.2613 104.799-28.4198 104.799-34.978C104.799-41.5361 103.617-47.7114 101.065-53.4871Z"/>
   <path class="multicolor-0:systemBlueColor hierarchical-1:primary SFSymbolsPreviewFFFFFF" d="M40.9944-14.5788C40.1012-13.0476 38.0596-12.4096 36.5284-13.3028C34.9972-14.196 34.3592-16.2376 35.2524-17.7688L37.6768-21.852C40.3564-22.6176 42.5256-22.1072 44.1844-19.938L40.9944-14.5788ZM63.8516-23.5108L33.8656-23.5108C32.0792-23.5108 30.548-25.042 30.548-26.8284C30.548-28.6148 32.0792-30.146 33.8656-30.146L42.2872-30.146L53.0056-48.7756L49.688-54.6452C48.7948-56.1764 49.3052-58.218 50.964-59.1112C52.4952-60.0044 54.5368-59.494 55.43-57.8352L56.8336-55.2832L58.3648-57.8352C59.258-59.3664 61.2996-60.0044 62.8308-59.1112C64.362-58.218 65-56.1764 64.1068-54.6452L49.9432-30.146L60.1512-30.146C63.452-30.0184 65.366-26.1904 63.8516-23.5108ZM80.04-23.3832L75.3188-23.3832L78.5088-17.7688C79.402-16.2376 78.8916-14.196 77.2328-13.3028C75.7016-12.4096 73.66-12.92 72.7668-14.5788C67.4076-24.0212 63.3244-31.0392 60.5172-35.7604C57.71-40.4816 59.7516-45.3304 61.6656-46.9892C63.8348-43.2888 67.0248-37.6744 71.3632-30.146L79.9124-30.146C81.6988-30.146 83.23-28.6148 83.23-26.8284C83.3576-24.9144 81.8432-23.3832 80.04-23.3832Z"/>
  </g>
  <g id="Ultralight-M" transform="matrix(1 0 0 1 503.307 1126)">
   <path class="multicolor-0:systemBlueColor hierarchical-0:secondary SFSymbolsPreview007AFF" d="M99.9929-53.3084C97.5859-59.0244 94.1493-63.9748 89.7007-68.4321C85.3796-72.7531 80.293-76.181 74.577-78.5967C68.8611-81.0124 62.7536-82.2797 56.2721-82.2797C49.7905-82.2797 43.6831-81.0037 37.9671-78.5967C32.2511-76.1897 27.2921-72.7531 22.8348-68.4321C18.5137-64.1111 15.0859-59.0244 12.6702-53.3084C10.2544-47.5925 8.98712-41.485 8.98712-35.0035C8.98712-28.5219 10.2631-22.2782 12.6702-16.6985C15.0772-10.9825 18.5137-6.03218 22.8348-1.57486C27.1558 2.74618 32.2425 6.17403 37.9584 8.58975C43.6744 11.0055 49.7818 12.2728 56.2634 12.2728C62.745 12.2728 68.98 10.9968 74.5684 8.58975C80.1567 6.18271 85.2434 2.74618 89.692-1.57486C94.0131-5.8959 97.4409-10.9825 99.9929-16.6985C102.4-22.4145 103.676-28.5219 103.676-35.0035C103.676-41.485 102.545-47.5838 99.9929-53.3084Z"/>
   <path class="multicolor-0:systemBlueColor hierarchical-1:primary SFSymbolsPreviewFFFFFF" d="M40.4583-14.5788C39.5651-13.0476 37.5235-12.4096 35.9923-13.3028C34.4611-14.196 33.8231-16.2376 34.7163-17.7688L37.1407-21.852C39.8203-22.6176 41.9895-22.1072 43.6483-19.938L40.4583-14.5788ZM63.2901-23.5108L33.3041-23.5108C31.5177-23.5108 29.9865-25.042 29.9865-26.8284C29.9865-28.6148 31.5177-30.146 33.3041-30.146L41.7257-30.146L52.4441-48.7756L49.1265-54.6452C48.2333-56.1764 48.7437-58.218 50.4025-59.1112C51.9337-60.0044 53.9753-59.494 54.8685-57.8352L56.2721-55.2832L57.8033-57.8352C58.6965-59.3664 60.7381-60.0044 62.2693-59.1112C63.8005-58.218 64.4385-56.1764 63.5453-54.6452L49.3817-30.146L59.5897-30.146C62.9159-30.0184 64.8299-26.1904 63.2901-23.5108ZM79.5039-23.3832L74.7827-23.3832L77.9727-17.7688C78.8659-16.2376 78.3555-14.196 76.6967-13.3028C75.1655-12.4096 73.1239-12.92 72.2307-14.5788C66.8715-24.0212 62.7883-31.0392 59.9811-35.7604C57.1739-40.4816 59.2155-45.3304 61.1295-46.9892C63.2987-43.2888 66.4887-37.6744 70.8271-30.146L79.3763-30.146C81.1627-30.146 82.6939-28.6148 82.6939-26.8284C82.8215-24.9144 81.2817-23.3832 79.5039-23.3832Z"/>
  </g>
  <g id="Black-S" transform="matrix(1 0 0 1 2884.35 696)">
   <path class="multicolor-0:systemBlueColor hierarchical-0:secondary SFSymbolsPreview007AFF" d="M87.75-51.25C85.55-56.35 82.55-60.75 78.65-64.65C74.75-68.55 70.35-71.55 65.25-73.75C60.15-75.95 54.75-77.05 48.95-77.05C43.15-77.05 37.75-75.95 32.65-73.75C27.55-71.55 23.15-68.55 19.25-64.65C15.35-60.75 12.35-56.35 10.15-51.25C7.95-46.15 6.85-40.75 6.85-34.95C6.85-29.15 7.95-23.75 10.15-18.65C12.35-13.55 15.35-9.15 19.25-5.25C23.15-1.35 27.55 1.65 32.65 3.85C37.75 6.05 43.15 7.15 48.95 7.15C54.75 7.15 60.15 6.05 65.25 3.85C70.35 1.65 74.75-1.35 78.65-5.25C82.55-9.15 85.55-13.55 87.75-18.65C89.95-23.75 91.05-29.15 91.05-34.95C91.05-40.75 89.95-46.15 87.75-51.25Z"/>
   <path class="multicolor-0:systemBlueColor hierarchical-1:primary SFSymbolsPreviewFFFFFF" d="M36.55-20.95C35.85-19.75 34.25-19.25 33.05-19.95C31.85-20.65 31.35-22.25 32.05-23.45L33.95-26.65C36.05-27.25 37.75-26.85 39.05-25.15L36.55-20.95ZM54.45-27.95L30.95-27.95C29.55-27.95 28.35-29.15 28.35-30.55C28.35-31.95 29.55-33.15 30.95-33.15L37.55-33.15L45.95-47.75L43.35-52.35C42.65-53.55 43.05-55.15 44.35-55.85C45.55-56.55 47.15-56.15 47.85-54.85L48.95-52.85L50.15-54.85C50.85-56.05 52.45-56.55 53.65-55.85C54.85-55.15 55.35-53.55 54.65-52.35L43.55-33.15L51.55-33.15C54.15-33.15 55.65-30.05 54.45-27.95ZM67.15-27.95L63.45-27.95L65.95-23.55C66.65-22.35 66.25-20.75 64.95-20.05C63.75-19.35 62.15-19.75 61.45-21.05C57.25-28.45 54.05-33.95 51.85-37.65C49.65-41.35 51.25-45.15 52.75-46.45C54.45-43.55 56.95-39.15 60.35-33.25L67.05-33.25C68.45-33.25 69.65-32.05 69.65-30.65C69.75-29.05 68.55-27.95 67.15-27.95Z"/>
  </g>
  <g id="Heavy-S" transform="matrix(1 0 0 1 2588.24 696)">
   <path class="multicolor-0:systemBlueColor hierarchical-0:secondary SFSymbolsPreview007AFF" d="M86.5935-50.9904C84.4171-56.0196 81.4643-60.3724 77.6115-64.2016C73.7823-68.0308 69.4295-71.0072 64.4003-73.1599C59.3711-75.3127 54.0655-76.4127 48.3599-76.4127C42.6544-76.4127 37.3488-75.3363 32.3196-73.1599C27.2904-70.9835 22.9612-68.0308 19.132-64.2016C15.3028-60.3724 12.3264-56.0196 10.1736-50.9904C8.02081-45.9612 6.92081-40.6556 6.92081-34.95C6.92081-29.2444 7.9972-23.9388 10.1736-18.9096C12.35-13.8804 15.3028-9.52763 19.132-5.69844C22.9612-1.86925 27.314 1.10715 32.3432 3.25995C37.3724 5.41274 42.678 6.51274 48.3835 6.51274C54.0891 6.51274 59.4183 5.43635 64.4239 3.25995C69.4295 1.08355 73.7823-1.86925 77.6351-5.69844C81.4643-9.52763 84.4407-13.8804 86.5935-18.9096C88.7699-23.9388 89.8463-29.2444 89.8463-34.95C89.8463-40.6556 88.7463-45.9848 86.5935-50.9904Z"/>
   <path class="multicolor-0:systemBlueColor hierarchical-1:primary SFSymbolsPreviewFFFFFF" d="M35.9363-20.5016C35.2363-19.3016 33.6363-18.8016 32.4363-19.5016C31.2363-20.2016 30.7363-21.8016 31.4363-23.0016L33.3363-26.2016C35.4363-26.8016 37.1363-26.4016 38.4363-24.7016L35.9363-20.5016ZM53.8599-27.5016L30.3599-27.5016C28.9599-27.5016 27.7599-28.7016 27.7599-30.1016C27.7599-31.5016 28.9599-32.7016 30.3599-32.7016L36.9599-32.7016L45.3599-47.3016L42.7599-51.9016C42.0599-53.1016 42.4599-54.7016 43.7599-55.4016C44.9599-56.1016 46.5599-55.7016 47.2599-54.4016L48.3599-52.4016L49.5599-54.4016C50.2599-55.6016 51.8599-56.1016 53.0599-55.4016C54.2599-54.7016 54.7599-53.1016 54.0599-51.9016L42.9599-32.7016L50.9599-32.7016C53.5363-32.678 55.0363-29.6016 53.8599-27.5016ZM66.5363-27.478L62.8363-27.478L65.3363-23.078C66.0363-21.878 65.6363-20.278 64.3363-19.578C63.1363-18.878 61.5363-19.278 60.8363-20.578C56.6363-27.978 53.4363-33.478 51.2363-37.178C49.0363-40.878 50.6363-44.678 52.1363-45.978C53.8363-43.078 56.3363-38.678 59.7363-32.778L66.4363-32.778C67.8363-32.778 69.0363-31.578 69.0363-30.178C69.1363-28.6016 67.9599-27.478 66.5363-27.478Z"/>
  </g>
  <g id="Bold-S" transform="matrix(1 0 0 1 2292.2 696)">
   <path class="multicolor-0:systemBlueColor hierarchical-0:secondary SFSymbolsPreview007AFF" d="M85.3-50.7C83.15-55.65 80.25-59.95 76.45-63.7C72.7-67.45 68.4-70.4 63.45-72.5C58.5-74.6 53.3-75.7 47.7-75.7C42.1-75.7 36.9-74.65 31.95-72.5C27-70.35 22.75-67.45 19-63.7C15.25-59.95 12.3-55.65 10.2-50.7C8.1-45.75 7-40.55 7-34.95C7-29.35 8.05-24.15 10.2-19.2C12.35-14.25 15.25-9.95 19-6.2C22.75-2.45 27.05 0.5 32 2.6C36.95 4.7 42.15 5.8 47.75 5.8C53.35 5.8 58.6 4.75 63.5 2.6C68.4 0.45 72.7-2.45 76.5-6.2C80.25-9.95 83.2-14.25 85.3-19.2C87.45-24.15 88.5-29.35 88.5-34.95C88.5-40.55 87.4-45.8 85.3-50.7Z"/>
   <path class="multicolor-0:systemBlueColor hierarchical-1:primary SFSymbolsPreviewFFFFFF" d="M35.25-20C34.55-18.8 32.95-18.3 31.75-19C30.55-19.7 30.05-21.3 30.75-22.5L32.65-25.7C34.75-26.3 36.45-25.9 37.75-24.2L35.25-20ZM53.2-27L29.7-27C28.3-27 27.1-28.2 27.1-29.6C27.1-31 28.3-32.2 29.7-32.2L36.3-32.2L44.7-46.8L42.1-51.4C41.4-52.6 41.8-54.2 43.1-54.9C44.3-55.6 45.9-55.2 46.6-53.9L47.7-51.9L48.9-53.9C49.6-55.1 51.2-55.6 52.4-54.9C53.6-54.2 54.1-52.6 53.4-51.4L42.3-32.2L50.3-32.2C52.85-32.15 54.35-29.1 53.2-27ZM65.85-26.95L62.15-26.95L64.65-22.55C65.35-21.35 64.95-19.75 63.65-19.05C62.45-18.35 60.85-18.75 60.15-20.05C55.95-27.45 52.75-32.95 50.55-36.65C48.35-40.35 49.95-44.15 51.45-45.45C53.15-42.55 55.65-38.15 59.05-32.25L65.75-32.25C67.15-32.25 68.35-31.05 68.35-29.65C68.45-28.1 67.3-26.95 65.85-26.95Z"/>
  </g>
  <g id="Semibold-S" transform="matrix(1 0 0 1 1995.96 696)">
   <path class="multicolor-0:systemBlueColor hierarchical-0:secondary SFSymbolsPreview007AFF" d="M84.4082-50.4998C82.2764-55.3952 79.4128-59.6588 75.6492-63.3542C71.9538-67.0496 67.6902-69.9814 62.7948-72.045C57.8994-74.1086 52.7722-75.2086 47.245-75.2086C41.7178-75.2086 36.5906-74.1768 31.6952-72.045C26.7998-69.9132 22.6044-67.0496 18.909-63.3542C15.2136-59.6588 12.2818-55.3952 10.2182-50.4998C8.1546-45.6044 7.0546-40.4772 7.0546-34.95C7.0546-29.4228 8.0864-24.2956 10.2182-19.4002C12.35-14.5048 15.2136-10.2412 18.909-6.5458C22.6044-2.8504 26.868 0.0814 31.7634 2.145C36.6588 4.2086 41.786 5.3086 47.3132 5.3086C52.8404 5.3086 58.0358 4.2768 62.863 2.145C67.6902 0.0132 71.9538-2.8504 75.7174-6.5458C79.4128-10.2412 82.3446-14.5048 84.4082-19.4002C86.54-24.2956 87.5718-29.4228 87.5718-34.95C87.5718-40.4772 86.4718-45.6726 84.4082-50.4998Z"/>
   <path class="multicolor-0:systemBlueColor hierarchical-1:primary SFSymbolsPreviewFFFFFF" d="M34.7768-19.6542C34.0768-18.4542 32.4768-17.9542 31.2768-18.6542C30.0768-19.3542 29.5768-20.9542 30.2768-22.1542L32.1768-25.3542C34.2768-25.9542 35.9768-25.5542 37.2768-23.8542L34.7768-19.6542ZM52.745-26.6542L29.245-26.6542C27.845-26.6542 26.645-27.8542 26.645-29.2542C26.645-30.6542 27.845-31.8542 29.245-31.8542L35.845-31.8542L44.245-46.4542L41.645-51.0542C40.945-52.2542 41.345-53.8542 42.645-54.5542C43.845-55.2542 45.445-54.8542 46.145-53.5542L47.245-51.5542L48.445-53.5542C49.145-54.7542 50.745-55.2542 51.945-54.5542C53.145-53.8542 53.645-52.2542 52.945-51.0542L41.845-31.8542L49.845-31.8542C52.3768-31.786 53.8768-28.7542 52.745-26.6542ZM65.3768-26.586L61.6768-26.586L64.1768-22.186C64.8768-20.986 64.4768-19.386 63.1768-18.686C61.9768-17.986 60.3768-18.386 59.6768-19.686C55.4768-27.086 52.2768-32.586 50.0768-36.286C47.8768-39.986 49.4768-43.786 50.9768-45.086C52.6768-42.186 55.1768-37.786 58.5768-31.886L65.2768-31.886C66.6768-31.886 67.8768-30.686 67.8768-29.286C67.9768-27.7542 66.845-26.586 65.3768-26.586Z"/>
  </g>
  <g id="Medium-S" transform="matrix(1 0 0 1 1699.6 696)">
   <path class="multicolor-0:systemBlueColor hierarchical-0:secondary SFSymbolsPreview007AFF" d="M83.732-50.348C81.614-55.202 78.778-59.438 75.042-63.092C71.388-66.746 67.152-69.664 62.298-71.7C57.444-73.736 52.372-74.836 46.9-74.836C41.428-74.836 36.356-73.818 31.502-71.7C26.648-69.582 22.494-66.746 18.84-63.092C15.186-59.438 12.268-55.202 10.232-50.348C8.196-45.494 7.096-40.422 7.096-34.95C7.096-29.478 8.114-24.406 10.232-19.552C12.35-14.698 15.186-10.462 18.84-6.808C22.494-3.154 26.73-0.236 31.584 1.8C36.438 3.836 41.51 4.936 46.982 4.936C52.454 4.936 57.608 3.918 62.38 1.8C67.152-0.318 71.388-3.154 75.124-6.808C78.778-10.462 81.696-14.698 83.732-19.552C85.85-24.406 86.868-29.478 86.868-34.95C86.868-40.422 85.768-45.576 83.732-50.348Z"/>
   <path class="multicolor-0:systemBlueColor hierarchical-1:primary SFSymbolsPreviewFFFFFF" d="M34.418-19.392C33.718-18.192 32.118-17.692 30.918-18.392C29.718-19.092 29.218-20.692 29.918-21.892L31.818-25.092C33.918-25.692 35.618-25.292 36.918-23.592L34.418-19.392ZM52.4-26.392L28.9-26.392C27.5-26.392 26.3-27.592 26.3-28.992C26.3-30.392 27.5-31.592 28.9-31.592L35.5-31.592L43.9-46.192L41.3-50.792C40.6-51.992 41-53.592 42.3-54.292C43.5-54.992 45.1-54.592 45.8-53.292L46.9-51.292L48.1-53.292C48.8-54.492 50.4-54.992 51.6-54.292C52.8-53.592 53.3-51.992 52.6-50.792L41.5-31.592L49.5-31.592C52.018-31.51 53.518-28.492 52.4-26.392ZM65.018-26.31L61.318-26.31L63.818-21.91C64.518-20.71 64.118-19.11 62.818-18.41C61.618-17.71 60.018-18.11 59.318-19.41C55.118-26.81 51.918-32.31 49.718-36.01C47.518-39.71 49.118-43.51 50.618-44.81C52.318-41.91 54.818-37.51 58.218-31.61L64.918-31.61C66.318-31.61 67.518-30.41 67.518-29.01C67.618-27.492 66.5-26.31 65.018-26.31Z"/>
  </g>
  <g id="Regular-S" transform="matrix(1 0 0 1 1403.34 696)">
   <path class="multicolor-0:systemBlueColor hierarchical-0:secondary SFSymbolsPreview007AFF" d="M82.85-50.15C80.75-54.95 77.95-59.15 74.25-62.75C70.65-66.35 66.45-69.25 61.65-71.25C56.85-73.25 51.85-74.35 46.45-74.35C41.05-74.35 36.05-73.35 31.25-71.25C26.45-69.15 22.35-66.35 18.75-62.75C15.15-59.15 12.25-54.95 10.25-50.15C8.25-45.35 7.15-40.35 7.15-34.95C7.15-29.55 8.15-24.55 10.25-19.75C12.35-14.95 15.15-10.75 18.75-7.15C22.35-3.55 26.55-0.65 31.35 1.35C36.15 3.35 41.15 4.45 46.55 4.45C51.95 4.45 57.05 3.45 61.75 1.35C66.45-0.75 70.65-3.55 74.35-7.15C77.95-10.75 80.85-14.95 82.85-19.75C84.95-24.55 85.95-29.55 85.95-34.95C85.95-40.35 84.85-45.45 82.85-50.15Z"/>
   <path class="multicolor-0:systemBlueColor hierarchical-1:primary SFSymbolsPreviewFFFFFF" d="M33.95-19.05C33.25-17.85 31.65-17.35 30.45-18.05C29.25-18.75 28.75-20.35 29.45-21.55L31.35-24.75C33.45-25.35 35.15-24.95 36.45-23.25L33.95-19.05ZM51.95-26.05L28.45-26.05C27.05-26.05 25.85-27.25 25.85-28.65C25.85-30.05 27.05-31.25 28.45-31.25L35.05-31.25L43.45-45.85L40.85-50.45C40.15-51.65 40.55-53.25 41.85-53.95C43.05-54.65 44.65-54.25 45.35-52.95L46.45-50.95L47.65-52.95C48.35-54.15 49.95-54.65 51.15-53.95C52.35-53.25 52.85-51.65 52.15-50.45L41.05-31.25L49.05-31.25C51.55-31.15 53.05-28.15 51.95-26.05ZM64.55-25.95L60.85-25.95L63.35-21.55C64.05-20.35 63.65-18.75 62.35-18.05C61.15-17.35 59.55-17.75 58.85-19.05C54.65-26.45 51.45-31.95 49.25-35.65C47.05-39.35 48.65-43.15 50.15-44.45C51.85-41.55 54.35-37.15 57.75-31.25L64.45-31.25C65.85-31.25 67.05-30.05 67.05-28.65C67.15-27.15 66.05-25.95 64.55-25.95Z"/>
  </g>
  <g id="Light-S" transform="matrix(1 0 0 1 1107.35 696)">
   <path class="multicolor-0:systemBlueColor hierarchical-0:secondary SFSymbolsPreview007AFF" d="M81.45-49.9167C79.4167-54.6167 76.65-58.7167 73.0167-62.2833C69.4833-65.8167 65.35-68.65 60.65-70.6167C55.95-72.5833 51.0167-73.65 45.7167-73.65C40.4167-73.65 35.4833-72.65 30.7833-70.6167C26.0833-68.5833 22.05-65.8167 18.4833-62.2833C14.95-58.75 12.1167-54.6167 10.15-49.9167C8.18333-45.2167 7.11667-40.2833 7.11667-34.9833C7.11667-29.6833 8.11667-24.7167 10.15-20.05C12.1833-15.35 14.95-11.25 18.4833-7.68333C22.0167-4.15 26.15-1.31667 30.85 0.65C35.55 2.61667 40.4833 3.68333 45.7833 3.68333C51.0833 3.68333 56.1167 2.68333 60.7167 0.65C65.3167-1.38333 69.45-4.15 73.0833-7.68333C76.6167-11.2167 79.45-15.35 81.45-20.05C83.4833-24.75 84.4833-29.6833 84.4833-34.9833C84.4833-40.2833 83.45-45.2833 81.45-49.9167Z"/>
   <path class="multicolor-0:systemBlueColor hierarchical-1:primary SFSymbolsPreviewFFFFFF" d="M33.25-19.05C32.55-17.85 30.95-17.35 29.75-18.05C28.55-18.75 28.05-20.35 28.75-21.55L30.65-24.75C32.75-25.35 34.45-24.95 35.75-23.25L33.25-19.05ZM51.2167-26.05L27.7167-26.05C26.3167-26.05 25.1167-27.25 25.1167-28.65C25.1167-30.05 26.3167-31.25 27.7167-31.25L34.3167-31.25L42.7167-45.85L40.1167-50.45C39.4167-51.65 39.8167-53.25 41.1167-53.95C42.3167-54.65 43.9167-54.25 44.6167-52.95L45.7167-50.95L46.9167-52.95C47.6167-54.15 49.2167-54.65 50.4167-53.95C51.6167-53.25 52.1167-51.65 51.4167-50.45L40.3167-31.25L48.3167-31.25C50.85-31.15 52.35-28.15 51.2167-26.05ZM63.85-25.95L60.15-25.95L62.65-21.55C63.35-20.35 62.95-18.75 61.65-18.05C60.45-17.35 58.85-17.75 58.15-19.05C53.95-26.45 50.75-31.95 48.55-35.65C46.35-39.35 47.95-43.15 49.45-44.45C51.15-41.55 53.65-37.15 57.05-31.25L63.75-31.25C65.15-31.25 66.35-30.05 66.35-28.65C66.45-27.15 65.3167-25.95 63.85-25.95Z"/>
  </g>
  <g id="Thin-S" transform="matrix(1 0 0 1 811.587 696)">
   <path class="multicolor-0:systemBlueColor hierarchical-0:secondary SFSymbolsPreview007AFF" d="M79.5984-49.6081C77.6532-54.1758 74.9306-58.1435 71.3855-61.6661C67.9403-65.1113 63.8952-67.8565 59.3274-69.779C54.7597-71.7016 49.9145-72.7242 44.7468-72.7242C39.579-72.7242 34.7339-71.7242 30.1661-69.779C25.5984-67.8339 21.6532-65.1113 18.1306-61.6661C14.6855-58.221 11.9403-54.1758 10.0177-49.6081C8.09516-45.0403 7.07258-40.1952 7.07258-35.0274C7.07258-29.8597 8.07258-24.9371 10.0177-20.4468C11.9629-15.879 14.6855-11.9113 18.1306-8.38871C21.5758-4.94355 25.621-2.19839 30.1887-0.275806C34.7565 1.64677 39.6016 2.66935 44.7694 2.66935C49.9371 2.66935 54.8823 1.66935 59.35-0.275806C63.8177-2.22097 67.8629-4.94355 71.4081-8.38871C74.8532-11.8339 77.5984-15.879 79.5984-20.4468C81.5435-25.0145 82.5435-29.8597 82.5435-35.0274C82.5435-40.1952 81.5984-45.0629 79.5984-49.6081Z"/>
   <path class="multicolor-0:systemBlueColor hierarchical-1:primary SFSymbolsPreviewFFFFFF" d="M32.3242-19.05C31.6242-17.85 30.0242-17.35 28.8242-18.05C27.6242-18.75 27.1242-20.35 27.8242-21.55L29.7242-24.75C31.8242-25.35 33.5242-24.95 34.8242-23.25L32.3242-19.05ZM50.2468-26.05L26.7468-26.05C25.3468-26.05 24.1468-27.25 24.1468-28.65C24.1468-30.05 25.3468-31.25 26.7468-31.25L33.3468-31.25L41.7468-45.85L39.1468-50.45C38.4468-51.65 38.8468-53.25 40.1468-53.95C41.3468-54.65 42.9468-54.25 43.6468-52.95L44.7468-50.95L45.9468-52.95C46.6468-54.15 48.2468-54.65 49.4468-53.95C50.6468-53.25 51.1468-51.65 50.4468-50.45L39.3468-31.25L47.3468-31.25C49.9242-31.15 51.4242-28.15 50.2468-26.05ZM62.9242-25.95L59.2242-25.95L61.7242-21.55C62.4242-20.35 62.0242-18.75 60.7242-18.05C59.5242-17.35 57.9242-17.75 57.2242-19.05C53.0242-26.45 49.8242-31.95 47.6242-35.65C45.4242-39.35 47.0242-43.15 48.5242-44.45C50.2242-41.55 52.7242-37.15 56.1242-31.25L62.8242-31.25C64.2242-31.25 65.4242-30.05 65.4242-28.65C65.5242-27.15 64.3468-25.95 62.9242-25.95Z"/>
  </g>
  <g id="Ultralight-S" transform="matrix(1 0 0 1 515.361 696)">
   <path class="multicolor-0:systemBlueColor hierarchical-0:secondary SFSymbolsPreview007AFF" d="M78.65-49.45C76.75-53.95 74.05-57.85 70.55-61.35C67.15-64.75 63.15-67.45 58.65-69.35C54.15-71.25 49.35-72.25 44.25-72.25C39.15-72.25 34.35-71.25 29.85-69.35C25.35-67.45 21.45-64.75 17.95-61.35C14.55-57.95 11.85-53.95 9.95-49.45C8.05-44.95 7.05-40.15 7.05-35.05C7.05-29.95 8.05-25.05 9.95-20.65C11.85-16.15 14.55-12.25 17.95-8.75C21.35-5.35 25.35-2.65 29.85-0.75C34.35 1.15 39.15 2.15 44.25 2.15C49.35 2.15 54.25 1.15 58.65-0.75C63.05-2.65 67.05-5.35 70.55-8.75C73.95-12.15 76.65-16.15 78.65-20.65C80.55-25.15 81.55-29.95 81.55-35.05C81.55-40.15 80.65-44.95 78.65-49.45Z"/>
   <path class="multicolor-0:systemBlueColor hierarchical-1:primary SFSymbolsPreviewFFFFFF" d="M31.85-19.05C31.15-17.85 29.55-17.35 28.35-18.05C27.15-18.75 26.65-20.35 27.35-21.55L29.25-24.75C31.35-25.35 33.05-24.95 34.35-23.25L31.85-19.05ZM49.75-26.05L26.25-26.05C24.85-26.05 23.65-27.25 23.65-28.65C23.65-30.05 24.85-31.25 26.25-31.25L32.85-31.25L41.25-45.85L38.65-50.45C37.95-51.65 38.35-53.25 39.65-53.95C40.85-54.65 42.45-54.25 43.15-52.95L44.25-50.95L45.45-52.95C46.15-54.15 47.75-54.65 48.95-53.95C50.15-53.25 50.65-51.65 49.95-50.45L38.85-31.25L46.85-31.25C49.45-31.15 50.95-28.15 49.75-26.05ZM62.45-25.95L58.75-25.95L61.25-21.55C61.95-20.35 61.55-18.75 60.25-18.05C59.05-17.35 57.45-17.75 56.75-19.05C52.55-26.45 49.35-31.95 47.15-35.65C44.95-39.35 46.55-43.15 48.05-44.45C49.75-41.55 52.25-37.15 55.65-31.25L62.35-31.25C63.75-31.25 64.95-30.05 64.95-28.65C65.05-27.15 63.85-25.95 62.45-25.95Z"/>
  </g>
 </g>
</svg>
