<?xml version="1.0" encoding="UTF-8"?>
<!--Generator: Apple Native CoreSVG 149-->
<!DOCTYPE svg
PUBLIC "-//W3C//DTD SVG 1.1//EN"
       "http://www.w3.org/Graphics/SVG/1.1/DTD/svg11.dtd">
<svg version="1.1" xmlns="http://www.w3.org/2000/svg" xmlns:xlink="http://www.w3.org/1999/xlink" width="3300" height="2200">
 <!--glyph: "", point size: 100.0, font version: "17.0d9e1", template writer version: "59"-->
 <style>.hierarchical-0:secondary {fill:#4D4D4D}
.hierarchical-1:primary {fill:#212121}

.SFSymbolsPreview212121 {fill:#212121;opacity:1.0}
.SFSymbolsPreview4D4D4D {fill:#4D4D4D;opacity:1.0}
</style>
 <g id="Notes">
  <rect height="2200" id="artboard" style="fill:white;opacity:1" width="3300" x="0" y="0"/>
  <line style="fill:none;stroke:black;opacity:1;stroke-width:0.5;" x1="263" x2="3036" y1="292" y2="292"/>
  <text style="stroke:none;fill:black;font-family:sans-serif;font-size:13;font-weight:bold;" transform="matrix(1 0 0 1 263 322)">Weight/Scale Variations</text>
  <text style="stroke:none;fill:black;font-family:sans-serif;font-size:13;text-anchor:middle;" transform="matrix(1 0 0 1 559.711 322)">Ultralight</text>
  <text style="stroke:none;fill:black;font-family:sans-serif;font-size:13;text-anchor:middle;" transform="matrix(1 0 0 1 856.422 322)">Thin</text>
  <text style="stroke:none;fill:black;font-family:sans-serif;font-size:13;text-anchor:middle;" transform="matrix(1 0 0 1 1153.13 322)">Light</text>
  <text style="stroke:none;fill:black;font-family:sans-serif;font-size:13;text-anchor:middle;" transform="matrix(1 0 0 1 1449.84 322)">Regular</text>
  <text style="stroke:none;fill:black;font-family:sans-serif;font-size:13;text-anchor:middle;" transform="matrix(1 0 0 1 1746.56 322)">Medium</text>
  <text style="stroke:none;fill:black;font-family:sans-serif;font-size:13;text-anchor:middle;" transform="matrix(1 0 0 1 2043.27 322)">Semibold</text>
  <text style="stroke:none;fill:black;font-family:sans-serif;font-size:13;text-anchor:middle;" transform="matrix(1 0 0 1 2339.98 322)">Bold</text>
  <text style="stroke:none;fill:black;font-family:sans-serif;font-size:13;text-anchor:middle;" transform="matrix(1 0 0 1 2636.69 322)">Heavy</text>
  <text style="stroke:none;fill:black;font-family:sans-serif;font-size:13;text-anchor:middle;" transform="matrix(1 0 0 1 2933.4 322)">Black</text>
  <line style="fill:none;stroke:black;opacity:1;stroke-width:0.5;" x1="263" x2="3036" y1="1903" y2="1903"/>
  <g transform="matrix(1 0 0 1 263 1933)">
   <path d="M9.24805 0.830078Q10.8691 0.830078 12.2949 0.214844Q13.7207-0.400391 14.8096-1.49414Q15.8984-2.58789 16.5186-4.01367Q17.1387-5.43945 17.1387-7.05078Q17.1387-8.66211 16.5186-10.0879Q15.8984-11.5137 14.8047-12.6074Q13.7109-13.7012 12.2852-14.3164Q10.8594-14.9316 9.23828-14.9316Q7.62695-14.9316 6.20117-14.3164Q4.77539-13.7012 3.69141-12.6074Q2.60742-11.5137 1.9873-10.0879Q1.36719-8.66211 1.36719-7.05078Q1.36719-5.43945 1.9873-4.01367Q2.60742-2.58789 3.69629-1.49414Q4.78516-0.400391 6.21094 0.214844Q7.63672 0.830078 9.24805 0.830078ZM9.24805-0.654297Q7.91992-0.654297 6.7627-1.14746Q5.60547-1.64062 4.73145-2.51953Q3.85742-3.39844 3.36426-4.56055Q2.87109-5.72266 2.87109-7.05078Q2.87109-8.37891 3.35938-9.54102Q3.84766-10.7031 4.72168-11.582Q5.5957-12.4609 6.75293-12.9541Q7.91016-13.4473 9.23828-13.4473Q10.5762-13.4473 11.7334-12.9541Q12.8906-12.4609 13.7695-11.582Q14.6484-10.7031 15.1465-9.54102Q15.6445-8.37891 15.6445-7.05078Q15.6445-5.72266 15.1514-4.56055Q14.6582-3.39844 13.7842-2.51953Q12.9102-1.64062 11.748-1.14746Q10.5859-0.654297 9.24805-0.654297ZM5.83984-7.04102Q5.83984-6.71875 6.04492-6.51855Q6.25-6.31836 6.5918-6.31836L8.50586-6.31836L8.50586-4.39453Q8.50586-4.0625 8.70605-3.85742Q8.90625-3.65234 9.22852-3.65234Q9.56055-3.65234 9.76562-3.85742Q9.9707-4.0625 9.9707-4.39453L9.9707-6.31836L11.8945-6.31836Q12.2266-6.31836 12.4316-6.51855Q12.6367-6.71875 12.6367-7.04102Q12.6367-7.37305 12.4316-7.57812Q12.2266-7.7832 11.8945-7.7832L9.9707-7.7832L9.9707-9.69727Q9.9707-10.0391 9.76562-10.2441Q9.56055-10.4492 9.22852-10.4492Q8.90625-10.4492 8.70605-10.2441Q8.50586-10.0391 8.50586-9.69727L8.50586-7.7832L6.5918-7.7832Q6.25-7.7832 6.04492-7.57812Q5.83984-7.37305 5.83984-7.04102Z"/>
  </g>
  <g transform="matrix(1 0 0 1 281.867 1933)">
   <path d="M11.709 2.91016Q13.75 2.91016 15.5518 2.12891Q17.3535 1.34766 18.7305-0.0292969Q20.1074-1.40625 20.8887-3.20801Q21.6699-5.00977 21.6699-7.05078Q21.6699-9.0918 20.8887-10.8936Q20.1074-12.6953 18.7305-14.0723Q17.3535-15.4492 15.5469-16.2305Q13.7402-17.0117 11.6992-17.0117Q9.6582-17.0117 7.85645-16.2305Q6.05469-15.4492 4.68262-14.0723Q3.31055-12.6953 2.5293-10.8936Q1.74805-9.0918 1.74805-7.05078Q1.74805-5.00977 2.5293-3.20801Q3.31055-1.40625 4.6875-0.0292969Q6.06445 1.34766 7.86621 2.12891Q9.66797 2.91016 11.709 2.91016ZM11.709 1.25Q9.98047 1.25 8.47656 0.605469Q6.97266-0.0390625 5.83496-1.17676Q4.69727-2.31445 4.05762-3.81836Q3.41797-5.32227 3.41797-7.05078Q3.41797-8.7793 4.05762-10.2832Q4.69727-11.7871 5.83008-12.9297Q6.96289-14.0723 8.4668-14.7119Q9.9707-15.3516 11.6992-15.3516Q13.4277-15.3516 14.9316-14.7119Q16.4355-14.0723 17.5781-12.9297Q18.7207-11.7871 19.3652-10.2832Q20.0098-8.7793 20.0098-7.05078Q20.0098-5.32227 19.3701-3.81836Q18.7305-2.31445 17.5928-1.17676Q16.4551-0.0390625 14.9463 0.605469Q13.4375 1.25 11.709 1.25ZM7.39258-7.04102Q7.39258-6.68945 7.62695-6.46484Q7.86133-6.24023 8.23242-6.24023L10.8789-6.24023L10.8789-3.57422Q10.8789-3.21289 11.1035-2.9834Q11.3281-2.75391 11.6797-2.75391Q12.0508-2.75391 12.2852-2.9834Q12.5195-3.21289 12.5195-3.57422L12.5195-6.24023L15.1758-6.24023Q15.5371-6.24023 15.7715-6.46484Q16.0059-6.68945 16.0059-7.04102Q16.0059-7.41211 15.7715-7.6416Q15.5371-7.87109 15.1758-7.87109L12.5195-7.87109L12.5195-10.5176Q12.5195-10.8984 12.2852-11.1279Q12.0508-11.3574 11.6797-11.3574Q11.3281-11.3574 11.1035-11.1279Q10.8789-10.8984 10.8789-10.5176L10.8789-7.87109L8.23242-7.87109Q7.85156-7.87109 7.62207-7.6416Q7.39258-7.41211 7.39258-7.04102Z"/>
  </g>
  <g transform="matrix(1 0 0 1 305.646 1933)">
   <path d="M14.9707 5.66406Q17.0605 5.66406 18.96 5.01465Q20.8594 4.36523 22.4512 3.19336Q24.043 2.02148 25.2197 0.429688Q26.3965-1.16211 27.0459-3.06641Q27.6953-4.9707 27.6953-7.05078Q27.6953-9.14062 27.0459-11.04Q26.3965-12.9395 25.2197-14.5312Q24.043-16.123 22.4512-17.2998Q20.8594-18.4766 18.9551-19.126Q17.0508-19.7754 14.9609-19.7754Q12.8711-19.7754 10.9717-19.126Q9.07227-18.4766 7.48535-17.2998Q5.89844-16.123 4.72168-14.5312Q3.54492-12.9395 2.90039-11.04Q2.25586-9.14062 2.25586-7.05078Q2.25586-4.9707 2.90527-3.06641Q3.55469-1.16211 4.72656 0.429688Q5.89844 2.02148 7.49023 3.19336Q9.08203 4.36523 10.9814 5.01465Q12.8809 5.66406 14.9707 5.66406ZM14.9707 3.84766Q13.1641 3.84766 11.5283 3.2959Q9.89258 2.74414 8.53516 1.74805Q7.17773 0.751953 6.17676-0.610352Q5.17578-1.97266 4.62891-3.6084Q4.08203-5.24414 4.08203-7.05078Q4.08203-8.86719 4.62891-10.5029Q5.17578-12.1387 6.17188-13.501Q7.16797-14.8633 8.52539-15.8594Q9.88281-16.8555 11.5186-17.4023Q13.1543-17.9492 14.9609-17.9492Q16.7773-17.9492 18.4131-17.4023Q20.0488-16.8555 21.4111-15.8594Q22.7734-14.8633 23.7695-13.501Q24.7656-12.1387 25.3174-10.5029Q25.8691-8.86719 25.8691-7.05078Q25.8789-5.24414 25.332-3.6084Q24.7852-1.97266 23.7842-0.610352Q22.7832 0.751953 21.4209 1.74805Q20.0586 2.74414 18.4229 3.2959Q16.7871 3.84766 14.9707 3.84766ZM9.45312-7.04102Q9.45312-6.66016 9.71191-6.41113Q9.9707-6.16211 10.3711-6.16211L14.0625-6.16211L14.0625-2.46094Q14.0625-2.06055 14.3115-1.80664Q14.5605-1.55273 14.9414-1.55273Q15.3516-1.55273 15.6055-1.80664Q15.8594-2.06055 15.8594-2.46094L15.8594-6.16211L19.5605-6.16211Q19.9609-6.16211 20.2148-6.41113Q20.4688-6.66016 20.4688-7.04102Q20.4688-7.45117 20.2148-7.70508Q19.9609-7.95898 19.5605-7.95898L15.8594-7.95898L15.8594-11.6504Q15.8594-12.0605 15.6055-12.3145Q15.3516-12.5684 14.9414-12.5684Q14.5605-12.5684 14.3115-12.3096Q14.0625-12.0508 14.0625-11.6504L14.0625-7.95898L10.3711-7.95898Q9.96094-7.95898 9.70703-7.70508Q9.45312-7.45117 9.45312-7.04102Z"/>
  </g>
  <text style="stroke:none;fill:black;font-family:sans-serif;font-size:13;font-weight:bold;" transform="matrix(1 0 0 1 263 1953)">Design Variations</text>
  <text style="stroke:none;fill:black;font-family:sans-serif;font-size:13;" transform="matrix(1 0 0 1 263 1971)">Symbols are supported in up to nine weights and three scales.</text>
  <text style="stroke:none;fill:black;font-family:sans-serif;font-size:13;" transform="matrix(1 0 0 1 263 1989)">For optimal layout with text and other symbols, vertically align</text>
  <text style="stroke:none;fill:black;font-family:sans-serif;font-size:13;" transform="matrix(1 0 0 1 263 2007)">symbols with the adjacent text.</text>
  <line style="fill:none;stroke:#00AEEF;stroke-width:0.5;opacity:1.0;" x1="776" x2="776" y1="1919" y2="1933"/>
  <g transform="matrix(1 0 0 1 776 1933)">
   <path d="M3.31055 0.15625Q3.70117 0.15625 3.91602-0.00976562Q4.13086-0.175781 4.26758-0.585938L5.52734-4.0332L11.2891-4.0332L12.5488-0.585938Q12.6855-0.175781 12.9004-0.00976562Q13.1152 0.15625 13.4961 0.15625Q13.8867 0.15625 14.1162-0.0585938Q14.3457-0.273438 14.3457-0.644531Q14.3457-0.869141 14.2383-1.17188L9.6582-13.3691Q9.48242-13.8184 9.17969-14.043Q8.87695-14.2676 8.4082-14.2676Q7.5-14.2676 7.17773-13.3789L2.59766-1.16211Q2.49023-0.859375 2.49023-0.634766Q2.49023-0.263672 2.70996-0.0537109Q2.92969 0.15625 3.31055 0.15625ZM6.00586-5.51758L8.37891-12.0898L8.42773-12.0898L10.8008-5.51758Z"/>
  </g>
  <line style="fill:none;stroke:#00AEEF;stroke-width:0.5;opacity:1.0;" x1="793.197" x2="793.197" y1="1919" y2="1933"/>
  <text style="stroke:none;fill:black;font-family:sans-serif;font-size:13;font-weight:bold;" transform="matrix(1 0 0 1 776 1953)">Margins</text>
  <text style="stroke:none;fill:black;font-family:sans-serif;font-size:13;" transform="matrix(1 0 0 1 776 1971)">Leading and trailing margins on the left and right side of each symbol</text>
  <text style="stroke:none;fill:black;font-family:sans-serif;font-size:13;" transform="matrix(1 0 0 1 776 1989)">can be adjusted by modifying the x-location of the margin guidelines.</text>
  <text style="stroke:none;fill:black;font-family:sans-serif;font-size:13;" transform="matrix(1 0 0 1 776 2007)">Modifications are automatically applied proportionally to all</text>
  <text style="stroke:none;fill:black;font-family:sans-serif;font-size:13;" transform="matrix(1 0 0 1 776 2025)">scales and weights.</text>
  <g transform="matrix(1 0 0 1 1289 1933)">
   <path d="M2.8418 1.86523L4.54102 3.57422Q5.18555 4.22852 5.90332 4.17969Q6.62109 4.13086 7.31445 3.35938L18.0078-8.42773L17.041-9.4043L6.42578 2.27539Q6.16211 2.57812 5.89355 2.61719Q5.625 2.65625 5.27344 2.30469L4.10156 1.14258Q3.75 0.791016 3.79395 0.522461Q3.83789 0.253906 4.14062-0.0195312L15.6152-10.8203L14.6387-11.7871L3.04688-0.898438Q2.30469-0.214844 2.25098 0.498047Q2.19727 1.21094 2.8418 1.86523ZM9.25781-16.3281Q8.94531-16.0254 8.90625-15.6348Q8.86719-15.2441 9.04297-14.9512Q9.21875-14.6777 9.55566-14.541Q9.89258-14.4043 10.3809-14.5215Q11.4746-14.7754 12.5977-14.7314Q13.7207-14.6875 14.7949-13.9844L14.209-12.5293Q13.9551-11.9043 14.0674-11.4404Q14.1797-10.9766 14.5801-10.5664L16.875-8.25195Q17.2363-7.88086 17.5781-7.82227Q17.9199-7.76367 18.3398-7.8418L19.4043-8.03711L20.0684-7.36328L20.0293-6.80664Q20-6.43555 20.1221-6.12305Q20.2441-5.81055 20.6055-5.44922L21.3672-4.70703Q21.7285-4.3457 22.1533-4.33105Q22.5781-4.31641 22.9297-4.66797L25.8398-7.58789Q26.1914-7.93945 26.1816-8.35449Q26.1719-8.76953 25.8105-9.13086L25.0391-9.89258Q24.6875-10.2539 24.3799-10.3857Q24.0723-10.5176 23.7109-10.4883L23.1348-10.4395L22.4902-11.0742L22.7344-12.1973Q22.832-12.6172 22.6953-12.9834Q22.5586-13.3496 22.1191-13.7891L19.9219-15.9766Q18.6719-17.2168 17.2607-17.8369Q15.8496-18.457 14.4189-18.4814Q12.9883-18.5059 11.665-17.959Q10.3418-17.4121 9.25781-16.3281ZM10.752-15.957Q11.6602-16.6211 12.7002-16.9043Q13.7402-17.1875 14.8047-17.085Q15.8691-16.9824 16.8701-16.5137Q17.8711-16.0449 18.7012-15.2051L21.1328-12.793Q21.3086-12.6172 21.3525-12.4512Q21.3965-12.2852 21.3379-12.0312L21.0156-10.5469L22.5195-9.0625L23.5059-9.12109Q23.6914-9.13086 23.7891-9.09668Q23.8867-9.0625 24.0332-8.91602L24.6094-8.33984L22.168-5.89844L21.5918-6.47461Q21.4453-6.62109 21.4062-6.71875Q21.3672-6.81641 21.377-7.01172L21.4453-7.98828L19.9512-9.47266L18.4277-9.21875Q18.1836-9.16992 18.042-9.2041Q17.9004-9.23828 17.7148-9.41406L15.7129-11.416Q15.5176-11.5918 15.4932-11.7529Q15.4688-11.9141 15.5859-12.1875L16.4648-14.2773Q15.293-15.3711 13.8281-15.791Q12.3633-16.2109 10.8398-15.7617Q10.7227-15.7324 10.6885-15.8057Q10.6543-15.8789 10.752-15.957Z"/>
  </g>
  <text style="stroke:none;fill:black;font-family:sans-serif;font-size:13;font-weight:bold;" transform="matrix(1 0 0 1 1289 1953)">Exporting</text>
  <text style="stroke:none;fill:black;font-family:sans-serif;font-size:13;" transform="matrix(1 0 0 1 1289 1971)">Symbols should be outlined when exporting to ensure the</text>
  <text style="stroke:none;fill:black;font-family:sans-serif;font-size:13;" transform="matrix(1 0 0 1 1289 1989)">design is preserved when submitting to Xcode.</text>
  <text id="template-version" style="stroke:none;fill:black;font-family:sans-serif;font-size:13;text-anchor:end;" transform="matrix(1 0 0 1 3036 1933)">Template v.3.0</text>
  <text style="stroke:none;fill:black;font-family:sans-serif;font-size:13;text-anchor:end;" transform="matrix(1 0 0 1 3036 1951)">Requires Xcode 13 or greater</text>
  <text id="descriptive-name" style="stroke:none;fill:black;font-family:sans-serif;font-size:13;text-anchor:end;" transform="matrix(1 0 0 1 3036 1969)">Generated from logo.markdown.rectangle.fill</text>
  <text style="stroke:none;fill:black;font-family:sans-serif;font-size:13;text-anchor:end;" transform="matrix(1 0 0 1 3036 1987)">Typeset at 100 points</text>
  <text style="stroke:none;fill:black;font-family:sans-serif;font-size:13;" transform="matrix(1 0 0 1 263 726)">Small</text>
  <text style="stroke:none;fill:black;font-family:sans-serif;font-size:13;" transform="matrix(1 0 0 1 263 1156)">Medium</text>
  <text style="stroke:none;fill:black;font-family:sans-serif;font-size:13;" transform="matrix(1 0 0 1 263 1586)">Large</text>
 </g>
 <g id="Guides">
  <g id="H-reference" style="fill:#27AAE1;stroke:none;" transform="matrix(1 0 0 1 339 696)">
   <path d="M0.976562 0L3.66211 0L29.3457-67.1387L30.0293-67.1387L30.0293-70.459L28.125-70.459ZM11.6699-24.4629L46.9727-24.4629L46.2402-26.709L12.4512-26.709ZM55.127 0L57.7637 0L30.6152-70.459L29.4434-70.459L29.4434-67.1387Z"/>
  </g>
  <line id="Baseline-S" style="fill:none;stroke:#27AAE1;opacity:1;stroke-width:0.5;" x1="263" x2="3036" y1="696" y2="696"/>
  <line id="Capline-S" style="fill:none;stroke:#27AAE1;opacity:1;stroke-width:0.5;" x1="263" x2="3036" y1="625.541" y2="625.541"/>
  <g id="H-reference" style="fill:#27AAE1;stroke:none;" transform="matrix(1 0 0 1 339 1126)">
   <path d="M0.976562 0L3.66211 0L29.3457-67.1387L30.0293-67.1387L30.0293-70.459L28.125-70.459ZM11.6699-24.4629L46.9727-24.4629L46.2402-26.709L12.4512-26.709ZM55.127 0L57.7637 0L30.6152-70.459L29.4434-70.459L29.4434-67.1387Z"/>
  </g>
  <line id="Baseline-M" style="fill:none;stroke:#27AAE1;opacity:1;stroke-width:0.5;" x1="263" x2="3036" y1="1126" y2="1126"/>
  <line id="Capline-M" style="fill:none;stroke:#27AAE1;opacity:1;stroke-width:0.5;" x1="263" x2="3036" y1="1055.54" y2="1055.54"/>
  <g id="H-reference" style="fill:#27AAE1;stroke:none;" transform="matrix(1 0 0 1 339 1556)">
   <path d="M0.976562 0L3.66211 0L29.3457-67.1387L30.0293-67.1387L30.0293-70.459L28.125-70.459ZM11.6699-24.4629L46.9727-24.4629L46.2402-26.709L12.4512-26.709ZM55.127 0L57.7637 0L30.6152-70.459L29.4434-70.459L29.4434-67.1387Z"/>
  </g>
  <line id="Baseline-L" style="fill:none;stroke:#27AAE1;opacity:1;stroke-width:0.5;" x1="263" x2="3036" y1="1556" y2="1556"/>
  <line id="Capline-L" style="fill:none;stroke:#27AAE1;opacity:1;stroke-width:0.5;" x1="263" x2="3036" y1="1485.54" y2="1485.54"/>
  <line id="left-margin-Regular-M" style="fill:none;stroke:#00AEEF;stroke-width:0.5;opacity:1.0;" x1="1379.53" x2="1379.53" y1="1030.73" y2="1150.14"/>
  <line id="right-margin-Regular-M" style="fill:none;stroke:#00AEEF;stroke-width:0.5;opacity:1.0;" x1="1520.16" x2="1520.16" y1="1030.73" y2="1150.14"/>
 </g>
 <g id="Symbols">
  <g id="Black-L" transform="matrix(1 0 0 1 2841.21 1556)">
   <path class="hierarchical-0:secondary SFSymbolsPreview4D4D4D" d="M161.819-90.1604C157.653-94.3262 151.845-96.3295 144.234-96.3295L40.2586-96.3295C32.6896-96.3295 26.882-94.3289 22.7162-90.163C18.5503-85.9972 16.5497-80.232 16.5497-72.6631L16.5497 3.146C16.5497 10.7149 18.5503 16.5199 22.7162 20.6433C26.882 24.8092 32.6896 26.8098 40.2586 26.8098L144.234 26.8098C151.845 26.8098 157.653 24.8065 161.819 20.6407C165.985 16.4748 167.985 10.7097 167.985 3.14337L167.985-72.6657C167.943-80.2294 165.942-86.0343 161.819-90.1604Z"/>
   <path class="hierarchical-1:primary SFSymbolsPreview212121" d="M93.1548-14.0063C89.5314-14.0063 85.908-14.0063 82.2846-14.0063C81.6258-14.0063 81.6258-14.0063 81.6258-14.6651C81.6258-22.0766 81.6258-29.3234 81.6258-36.7349C81.6258-36.8996 81.6258-37.229 81.6258-37.3937C81.2964-37.229 81.2964-37.0643 81.1317-37.0643C77.3436-32.4527 73.7202-27.6764 69.9321-23.0648C69.438-22.406 69.438-22.406 68.9439-23.0648C65.1558-27.6764 61.5324-32.288 57.7443-37.0643C57.5796-37.229 57.5796-37.3937 57.4149-37.5584C57.2502-37.229 57.2502-37.0643 57.2502-36.8996C57.2502-29.6528 57.2502-22.406 57.2502-15.3239C57.2502-15.1592 57.2502-14.8298 57.2502-14.6651C57.2502-14.3357 57.0855-14.171 56.7561-14.171C52.968-14.171 49.1799-14.171 45.3918-14.171C45.0624-14.171 44.8977-14.3357 44.8977-14.6651C44.8977-14.8298 44.8977-14.9945 44.8977-15.1592C44.8977-28.3352 44.8977-41.5112 44.8977-54.8519C44.8977-55.8401 44.8977-55.8401 45.8859-55.8401C49.5093-55.8401 52.968-55.8401 56.5914-55.8401C57.0855-55.8401 57.4149-55.6754 57.7443-55.346C61.5324-50.5697 65.3205-45.9581 68.9439-41.1818C69.438-40.6877 69.438-40.6877 69.7674-41.1818C73.5555-45.7934 77.1789-50.5697 80.967-55.1813C81.2964-55.6754 81.6258-55.8401 82.2846-55.8401C85.908-55.8401 89.5314-55.8401 92.9901-55.8401C93.8136-55.8401 93.8136-55.8401 93.8136-55.0166C93.8136-41.6759 93.8136-28.3352 93.8136-14.9945C93.856-14.0063 93.856-14.0063 93.1548-14.0063ZM138.986-33.603C133.222-27.1797 127.457-20.9211 121.693-14.4978C121.199-14.0037 121.199-14.0037 120.705-14.4978C114.94-20.9211 109.176-27.1797 103.247-33.603C103.082-33.7677 102.917-33.9324 102.917-34.0971C103.082-34.2618 103.247-34.2618 103.411-34.2618C107.035-34.2618 110.493-34.2618 114.117-34.2618C114.94-34.2618 114.94-34.2618 114.94-35.0853C114.94-41.5086 114.94-47.9319 114.94-54.3552C114.94-54.5199 114.94-54.6846 114.94-55.014C114.94-55.5081 115.105-55.6728 115.434-55.6728C115.599-55.6728 115.764-55.6728 116.093-55.6728C119.552-55.6728 123.011-55.6728 126.469-55.6728C127.128-55.6728 127.128-55.6728 127.128-55.014C127.128-51.72 127.128-48.426 127.128-45.132C127.128-41.838 127.128-38.544 127.128-35.4147C127.128-34.5912 127.128-34.5912 127.952-34.5912C131.41-34.5912 134.869-34.5912 138.328-34.5912C138.492-34.5912 138.822-34.7559 138.986-34.4265C139.478-33.9324 139.149-33.7677 138.986-33.603Z"/>
  </g>
  <g id="Heavy-L" transform="matrix(1 0 0 1 2544.87 1556)">
   <path class="hierarchical-0:secondary SFSymbolsPreview4D4D4D" d="M161.381-89.5725C157.423-93.5301 151.844-95.4389 144.489-95.4389L39.225-95.4389C31.9314-95.4389 26.3516-93.5425 22.394-89.5849C18.4364-85.6273 16.54-80.1084 16.54-72.8149L16.54 3.27837C16.54 10.5719 18.4364 16.1394 22.394 20.036C26.3516 23.9936 31.9314 25.89 39.225 25.89L144.489 25.89C151.844 25.89 157.423 23.9812 161.381 20.0237C165.339 16.0661 167.235 10.5472 167.235 3.26601L167.235-72.8273C167.174-80.0961 165.278-85.6636 161.381-89.5725Z"/>
   <path class="hierarchical-1:primary SFSymbolsPreview212121" d="M92.7752-14.0161C89.1518-14.0161 85.5284-14.0161 81.905-14.0161C81.2462-14.0161 81.2462-14.0161 81.2462-14.6749C81.2462-22.0864 81.2462-29.3332 81.2462-36.7447C81.2462-36.9094 81.2462-37.2388 81.2462-37.4035C80.9168-37.2388 80.9168-37.0741 80.7521-37.0741C76.964-32.4625 73.3406-27.6862 69.5525-23.0746C69.0584-22.4158 69.0584-22.4158 68.5643-23.0746C64.7762-27.6862 61.1528-32.2978 57.3647-37.0741C57.2-37.2388 57.2-37.4035 57.0353-37.5682C56.8706-37.2388 56.8706-37.0741 56.8706-36.9094C56.8706-29.6626 56.8706-22.4158 56.8706-15.3337C56.8706-15.169 56.8706-14.8396 56.8706-14.6749C56.8706-14.3455 56.7059-14.1808 56.3765-14.1808C52.5884-14.1808 48.8003-14.1808 45.0122-14.1808C44.6828-14.1808 44.5181-14.3455 44.5181-14.6749C44.5181-14.8396 44.5181-15.0043 44.5181-15.169C44.5181-28.345 44.5181-41.521 44.5181-54.8617C44.5181-55.8499 44.5181-55.8499 45.5063-55.8499C49.1297-55.8499 52.5884-55.8499 56.2118-55.8499C56.7059-55.8499 57.0353-55.6852 57.3647-55.3558C61.1528-50.5795 64.9409-45.9679 68.5643-41.1916C69.0584-40.6975 69.0584-40.6975 69.3878-41.1916C73.1759-45.8032 76.7993-50.5795 80.5874-55.1911C80.9168-55.6852 81.2462-55.8499 81.905-55.8499C85.5284-55.8499 89.1518-55.8499 92.6105-55.8499C93.434-55.8499 93.434-55.8499 93.434-55.0264C93.434-41.6857 93.434-28.345 93.434-15.0043C93.495-14.0161 93.495-14.0161 92.7752-14.0161ZM138.635-33.603C132.871-27.1797 127.106-20.9211 121.342-14.4978C120.848-14.0037 120.848-14.0037 120.353-14.4978C114.589-20.9211 108.824-27.1797 102.895-33.603C102.731-33.7677 102.566-33.9324 102.566-34.0971C102.731-34.2618 102.895-34.2618 103.06-34.2618C106.683-34.2618 110.142-34.2618 113.765-34.2618C114.589-34.2618 114.589-34.2618 114.589-35.0853C114.589-41.5086 114.589-47.9319 114.589-54.3552C114.589-54.5199 114.589-54.6846 114.589-55.014C114.589-55.5081 114.754-55.6728 115.083-55.6728C115.248-55.6728 115.412-55.6728 115.742-55.6728C119.201-55.6728 122.659-55.6728 126.118-55.6728C126.777-55.6728 126.777-55.6728 126.777-55.014C126.777-51.72 126.777-48.426 126.777-45.132C126.777-41.838 126.777-38.544 126.777-35.4147C126.777-34.5912 126.777-34.5912 127.6-34.5912C131.059-34.5912 134.518-34.5912 137.976-34.5912C138.141-34.5912 138.47-34.7559 138.635-34.4265C139.117-33.9324 138.787-33.7677 138.635-33.603Z"/>
  </g>
  <g id="Bold-L" transform="matrix(1 0 0 1 2248.64 1556)">
   <path class="hierarchical-0:secondary SFSymbolsPreview4D4D4D" d="M160.797-88.8324C157.096-92.5335 151.806-94.3307 144.792-94.3307L37.9214-94.3307C30.9831-94.3307 25.6934-92.5626 21.9924-88.8616C18.2914-85.1606 16.5232-79.9466 16.5232-73.0083L16.5232 3.43824C16.5232 10.3765 18.2914 15.6371 21.9924 19.2624C25.6934 22.9634 30.9831 24.7315 37.9214 24.7315L144.792 24.7315C151.806 24.7315 157.096 22.9342 160.797 19.2332C164.498 15.5322 166.266 10.3182 166.266 3.4091L166.266-73.0374C166.19-79.9174 164.422-85.1781 160.797-88.8324Z"/>
   <path class="hierarchical-1:primary SFSymbolsPreview212121" d="M92.2917-14.0328C88.6683-14.0328 85.0449-14.0328 81.4215-14.0328C80.7627-14.0328 80.7627-14.0328 80.7627-14.6916C80.7627-22.1031 80.7627-29.3499 80.7627-36.7614C80.7627-36.9261 80.7627-37.2555 80.7627-37.4202C80.4333-37.2555 80.4333-37.0908 80.2686-37.0908C76.4805-32.4792 72.8571-27.7029 69.069-23.0913C68.5749-22.4325 68.5749-22.4325 68.0808-23.0913C64.2927-27.7029 60.6693-32.3145 56.8812-37.0908C56.7165-37.2555 56.7165-37.4202 56.5518-37.5849C56.3871-37.2555 56.3871-37.0908 56.3871-36.9261C56.3871-29.6793 56.3871-22.4325 56.3871-15.3504C56.3871-15.1857 56.3871-14.8563 56.3871-14.6916C56.3871-14.3622 56.2224-14.1975 55.893-14.1975C52.1049-14.1975 48.3168-14.1975 44.5287-14.1975C44.1993-14.1975 44.0346-14.3622 44.0346-14.6916C44.0346-14.8563 44.0346-15.021 44.0346-15.1857C44.0346-28.3617 44.0346-41.5377 44.0346-54.8784C44.0346-55.8666 44.0346-55.8666 45.0228-55.8666C48.6462-55.8666 52.1049-55.8666 55.7283-55.8666C56.2224-55.8666 56.5518-55.7019 56.8812-55.3725C60.6693-50.5962 64.4574-45.9846 68.0808-41.2083C68.5749-40.7142 68.5749-40.7142 68.9043-41.2083C72.6924-45.8199 76.3158-50.5962 80.1039-55.2078C80.4333-55.7019 80.7627-55.8666 81.4215-55.8666C85.0449-55.8666 88.6683-55.8666 92.127-55.8666C92.9505-55.8666 92.9505-55.8666 92.9505-55.0431C92.9505-41.7024 92.9505-28.3617 92.9505-15.021C93.0262-14.0328 93.0262-14.0328 92.2917-14.0328ZM138.183-33.603C132.419-27.1797 126.654-20.9211 120.89-14.4978C120.396-14.0037 120.396-14.0037 119.901-14.4978C114.137-20.9211 108.372-27.1797 102.443-33.603C102.279-33.7677 102.114-33.9324 102.114-34.0971C102.279-34.2618 102.443-34.2618 102.608-34.2618C106.231-34.2618 109.69-34.2618 113.313-34.2618C114.137-34.2618 114.137-34.2618 114.137-35.0853C114.137-41.5086 114.137-47.9319 114.137-54.3552C114.137-54.5199 114.137-54.6846 114.137-55.014C114.137-55.5081 114.302-55.6728 114.631-55.6728C114.796-55.6728 114.96-55.6728 115.29-55.6728C118.749-55.6728 122.207-55.6728 125.666-55.6728C126.325-55.6728 126.325-55.6728 126.325-55.014C126.325-51.72 126.325-48.426 126.325-45.132C126.325-41.838 126.325-38.544 126.325-35.4147C126.325-34.5912 126.325-34.5912 127.148-34.5912C130.607-34.5912 134.066-34.5912 137.524-34.5912C137.689-34.5912 138.018-34.7559 138.183-34.4265C138.648-33.9324 138.319-33.7677 138.183-33.603Z"/>
  </g>
  <g id="Semibold-L" transform="matrix(1 0 0 1 1952.25 1556)">
   <path class="hierarchical-0:secondary SFSymbolsPreview4D4D4D" d="M160.394-88.3222C156.87-91.8464 151.78-93.5668 145.001-93.5668L37.0227-93.5668C30.3294-93.5668 25.2396-91.8871 21.7155-88.3629C18.1914-84.8388 16.5117-79.835 16.5117-73.1416L16.5117 3.54845C16.5117 10.2418 18.1914 15.2909 21.7155 18.729C25.2396 22.2532 30.3294 23.9329 37.0227 23.9329L145.001 23.9329C151.78 23.9329 156.87 22.2125 160.394 18.6883C163.918 15.1642 165.598 10.1604 165.598 3.50775L165.598-73.1823C165.512-79.7943 163.832-84.8434 160.394-88.3222Z"/>
   <path class="hierarchical-1:primary SFSymbolsPreview212121" d="M91.9583-14.0444C88.3349-14.0444 84.7115-14.0444 81.0881-14.0444C80.4293-14.0444 80.4293-14.0444 80.4293-14.7032C80.4293-22.1147 80.4293-29.3615 80.4293-36.773C80.4293-36.9377 80.4293-37.2671 80.4293-37.4318C80.0999-37.2671 80.0999-37.1024 79.9352-37.1024C76.1471-32.4908 72.5237-27.7145 68.7356-23.1029C68.2415-22.4441 68.2415-22.4441 67.7474-23.1029C63.9593-27.7145 60.3359-32.3261 56.5478-37.1024C56.3831-37.2671 56.3831-37.4318 56.2184-37.5965C56.0537-37.2671 56.0537-37.1024 56.0537-36.9377C56.0537-29.6909 56.0537-22.4441 56.0537-15.362C56.0537-15.1973 56.0537-14.8679 56.0537-14.7032C56.0537-14.3738 55.889-14.2091 55.5596-14.2091C51.7715-14.2091 47.9834-14.2091 44.1953-14.2091C43.8659-14.2091 43.7012-14.3738 43.7012-14.7032C43.7012-14.8679 43.7012-15.0326 43.7012-15.1973C43.7012-28.3733 43.7012-41.5493 43.7012-54.89C43.7012-55.8782 43.7012-55.8782 44.6894-55.8782C48.3128-55.8782 51.7715-55.8782 55.3949-55.8782C55.889-55.8782 56.2184-55.7135 56.5478-55.3841C60.3359-50.6078 64.124-45.9962 67.7474-41.2199C68.2415-40.7258 68.2415-40.7258 68.5709-41.2199C72.359-45.8315 75.9824-50.6078 79.7705-55.2194C80.0999-55.7135 80.4293-55.8782 81.0881-55.8782C84.7115-55.8782 88.3349-55.8782 91.7936-55.8782C92.6171-55.8782 92.6171-55.8782 92.6171-55.0547C92.6171-41.714 92.6171-28.3733 92.6171-15.0326C92.7031-14.0444 92.7031-14.0444 91.9583-14.0444ZM137.872-33.603C132.107-27.1797 126.343-20.9211 120.578-14.4978C120.084-14.0037 120.084-14.0037 119.59-14.4978C113.825-20.9211 108.061-27.1797 102.132-33.603C101.967-33.7677 101.802-33.9324 101.802-34.0971C101.967-34.2618 102.132-34.2618 102.296-34.2618C105.92-34.2618 109.379-34.2618 113.002-34.2618C113.825-34.2618 113.825-34.2618 113.825-35.0853C113.825-41.5086 113.825-47.9319 113.825-54.3552C113.825-54.5199 113.825-54.6846 113.825-55.014C113.825-55.5081 113.99-55.6728 114.32-55.6728C114.484-55.6728 114.649-55.6728 114.978-55.6728C118.437-55.6728 121.896-55.6728 125.354-55.6728C126.013-55.6728 126.013-55.6728 126.013-55.014C126.013-51.72 126.013-48.426 126.013-45.132C126.013-41.838 126.013-38.544 126.013-35.4147C126.013-34.5912 126.013-34.5912 126.837-34.5912C130.295-34.5912 133.754-34.5912 137.213-34.5912C137.378-34.5912 137.707-34.7559 137.872-34.4265C138.325-33.9324 137.996-33.7677 137.872-33.603Z"/>
  </g>
  <g id="Medium-L" transform="matrix(1 0 0 1 1655.79 1556)">
   <path class="hierarchical-0:secondary SFSymbolsPreview4D4D4D" d="M160.089-87.9354C156.699-91.3254 151.761-92.9875 145.159-92.9875L36.3413-92.9875C29.8337-92.9875 24.8956-91.3748 21.5056-87.9848C18.1155-84.5948 16.5029-79.7504 16.5029-73.2427L16.5029 3.63201C16.5029 10.1397 18.1155 15.0283 21.5056 18.3246C24.8956 21.7146 29.8337 23.3273 36.3413 23.3273L145.159 23.3273C151.761 23.3273 156.699 21.6652 160.089 18.2751C163.479 14.8851 165.091 10.0408 165.091 3.58254L165.091-73.2922C164.998-79.701 163.385-84.5896 160.089-87.9354Z"/>
   <path class="hierarchical-1:primary SFSymbolsPreview212121" d="M91.7056-14.0532C88.0822-14.0532 84.4588-14.0532 80.8354-14.0532C80.1766-14.0532 80.1766-14.0532 80.1766-14.712C80.1766-22.1235 80.1766-29.3703 80.1766-36.7818C80.1766-36.9465 80.1766-37.2759 80.1766-37.4406C79.8472-37.2759 79.8472-37.1112 79.6825-37.1112C75.8944-32.4996 72.271-27.7233 68.4829-23.1117C67.9888-22.4529 67.9888-22.4529 67.4947-23.1117C63.7066-27.7233 60.0832-32.3349 56.2951-37.1112C56.1304-37.2759 56.1304-37.4406 55.9657-37.6053C55.801-37.2759 55.801-37.1112 55.801-36.9465C55.801-29.6997 55.801-22.4529 55.801-15.3708C55.801-15.2061 55.801-14.8767 55.801-14.712C55.801-14.3826 55.6363-14.2179 55.3069-14.2179C51.5188-14.2179 47.7307-14.2179 43.9426-14.2179C43.6132-14.2179 43.4485-14.3826 43.4485-14.712C43.4485-14.8767 43.4485-15.0414 43.4485-15.2061C43.4485-28.3821 43.4485-41.5581 43.4485-54.8988C43.4485-55.887 43.4485-55.887 44.4367-55.887C48.0601-55.887 51.5188-55.887 55.1422-55.887C55.6363-55.887 55.9657-55.7223 56.2951-55.3929C60.0832-50.6166 63.8713-46.005 67.4947-41.2287C67.9888-40.7346 67.9888-40.7346 68.3182-41.2287C72.1063-45.8403 75.7297-50.6166 79.5178-55.2282C79.8472-55.7223 80.1766-55.887 80.8354-55.887C84.4588-55.887 88.0822-55.887 91.5409-55.887C92.3644-55.887 92.3644-55.887 92.3644-55.0635C92.3644-41.7228 92.3644-28.3821 92.3644-15.0414C92.4581-14.0532 92.4581-14.0532 91.7056-14.0532ZM137.635-33.603C131.871-27.1797 126.106-20.9211 120.342-14.4978C119.848-14.0037 119.848-14.0037 119.354-14.4978C113.589-20.9211 107.825-27.1797 101.895-33.603C101.731-33.7677 101.566-33.9324 101.566-34.0971C101.731-34.2618 101.895-34.2618 102.06-34.2618C105.684-34.2618 109.142-34.2618 112.766-34.2618C113.589-34.2618 113.589-34.2618 113.589-35.0853C113.589-41.5086 113.589-47.9319 113.589-54.3552C113.589-54.5199 113.589-54.6846 113.589-55.014C113.589-55.5081 113.754-55.6728 114.083-55.6728C114.248-55.6728 114.413-55.6728 114.742-55.6728C118.201-55.6728 121.659-55.6728 125.118-55.6728C125.777-55.6728 125.777-55.6728 125.777-55.014C125.777-51.72 125.777-48.426 125.777-45.132C125.777-41.838 125.777-38.544 125.777-35.4147C125.777-34.5912 125.777-34.5912 126.6-34.5912C130.059-34.5912 133.518-34.5912 136.977-34.5912C137.141-34.5912 137.471-34.7559 137.635-34.4265C138.08-33.9324 137.751-33.7677 137.635-33.603Z"/>
  </g>
  <g id="Regular-L" transform="matrix(1 0 0 1 1359.4 1556)">
   <path class="hierarchical-0:secondary SFSymbolsPreview4D4D4D" d="M159.69-87.4307C156.475-90.6458 151.735-92.2319 145.366-92.2319L35.4525-92.2319C29.1871-92.2319 24.4468-90.7067 21.2317-87.4916C18.0166-84.2766 16.4914-79.6401 16.4914-73.3746L16.4914 3.74101C16.4914 10.0065 18.0166 14.6858 21.2317 17.7971C24.4468 21.0122 29.1871 22.5374 35.4525 22.5374L145.366 22.5374C151.735 22.5374 156.475 20.9513 159.69 17.7362C162.905 14.5211 164.431 9.88466 164.431 3.6801L164.431-73.4355C164.327-79.5792 162.802-84.2585 159.69-87.4307Z"/>
   <path class="hierarchical-1:primary SFSymbolsPreview212121" d="M91.3759-14.0646C87.7525-14.0646 84.1291-14.0646 80.5057-14.0646C79.8469-14.0646 79.8469-14.0646 79.8469-14.7234C79.8469-22.1349 79.8469-29.3817 79.8469-36.7932C79.8469-36.9579 79.8469-37.2873 79.8469-37.452C79.5175-37.2873 79.5175-37.1226 79.3528-37.1226C75.5647-32.511 71.9413-27.7347 68.1532-23.1231C67.6591-22.4643 67.6591-22.4643 67.165-23.1231C63.3769-27.7347 59.7535-32.3463 55.9654-37.1226C55.8007-37.2873 55.8007-37.452 55.636-37.6167C55.4713-37.2873 55.4713-37.1226 55.4713-36.9579C55.4713-29.7111 55.4713-22.4643 55.4713-15.3822C55.4713-15.2175 55.4713-14.8881 55.4713-14.7234C55.4713-14.394 55.3066-14.2293 54.9772-14.2293C51.1891-14.2293 47.401-14.2293 43.6129-14.2293C43.2835-14.2293 43.1188-14.394 43.1188-14.7234C43.1188-14.8881 43.1188-15.0528 43.1188-15.2175C43.1188-28.3935 43.1188-41.5695 43.1188-54.9102C43.1188-55.8984 43.1188-55.8984 44.107-55.8984C47.7304-55.8984 51.1891-55.8984 54.8125-55.8984C55.3066-55.8984 55.636-55.7337 55.9654-55.4043C59.7535-50.628 63.5416-46.0164 67.165-41.2401C67.6591-40.746 67.6591-40.746 67.9885-41.2401C71.7766-45.8517 75.4-50.628 79.1881-55.2396C79.5175-55.7337 79.8469-55.8984 80.5057-55.8984C84.1291-55.8984 87.7525-55.8984 91.2112-55.8984C92.0347-55.8984 92.0347-55.8984 92.0347-55.0749C92.0347-41.7342 92.0347-28.3935 92.0347-15.0528C92.1385-14.0646 92.1385-14.0646 91.3759-14.0646ZM137.327-33.603C131.563-27.1797 125.798-20.9211 120.034-14.4978C119.54-14.0037 119.54-14.0037 119.046-14.4978C113.281-20.9211 107.517-27.1797 101.587-33.603C101.423-33.7677 101.258-33.9324 101.258-34.0971C101.423-34.2618 101.587-34.2618 101.752-34.2618C105.375-34.2618 108.834-34.2618 112.458-34.2618C113.281-34.2618 113.281-34.2618 113.281-35.0853C113.281-41.5086 113.281-47.9319 113.281-54.3552C113.281-54.5199 113.281-54.6846 113.281-55.014C113.281-55.5081 113.446-55.6728 113.775-55.6728C113.94-55.6728 114.105-55.6728 114.434-55.6728C117.893-55.6728 121.351-55.6728 124.81-55.6728C125.469-55.6728 125.469-55.6728 125.469-55.014C125.469-51.72 125.469-48.426 125.469-45.132C125.469-41.838 125.469-38.544 125.469-35.4147C125.469-34.5912 125.469-34.5912 126.292-34.5912C129.751-34.5912 133.21-34.5912 136.668-34.5912C136.833-34.5912 137.163-34.7559 137.327-34.4265C137.76-33.9324 137.431-33.7677 137.327-33.603Z"/>
  </g>
  <g id="Light-L" transform="matrix(1 0 0 1 1063.14 1556)">
   <path class="hierarchical-0:secondary SFSymbolsPreview4D4D4D" d="M159.018-86.8423C155.971-89.8893 151.483-91.4334 145.492-91.4334L34.4018-91.4334C28.4726-91.4334 23.9845-89.9922 20.9375-86.9453C17.8905-83.8983 16.4494-79.472 16.4494-73.5427L16.4494 3.82507C16.4494 9.7543 17.8905 14.1395 20.9375 17.1247C23.9845 20.1716 28.4726 21.6128 34.4018 21.6128L145.492 21.6128C151.483 21.6128 155.971 20.0687 159.018 17.0217C162.065 13.9748 163.506 9.54843 163.506 3.72213L163.506-73.6457C163.444-79.369 162.003-83.7542 159.018-86.8423Z"/>
   <path class="hierarchical-1:primary SFSymbolsPreview212121" d="M90.9556-14.1066C87.3322-14.1066 83.7088-14.1066 80.0854-14.1066C79.4266-14.1066 79.4266-14.1066 79.4266-14.7654C79.4266-22.1769 79.4266-29.4237 79.4266-36.8352C79.4266-36.9999 79.4266-37.3293 79.4266-37.494C79.0972-37.3293 79.0972-37.1646 78.9325-37.1646C75.1444-32.553 71.521-27.7767 67.7329-23.1651C67.2388-22.5063 67.2388-22.5063 66.7447-23.1651C62.9566-27.7767 59.3332-32.3883 55.5451-37.1646C55.3804-37.3293 55.3804-37.494 55.2157-37.6587C55.051-37.3293 55.051-37.1646 55.051-36.9999C55.051-29.7531 55.051-22.5063 55.051-15.4242C55.051-15.2595 55.051-14.9301 55.051-14.7654C55.051-14.436 54.8863-14.2713 54.5569-14.2713C50.7688-14.2713 46.9807-14.2713 43.1926-14.2713C42.8632-14.2713 42.6985-14.436 42.6985-14.7654C42.6985-14.9301 42.6985-15.0948 42.6985-15.2595C42.6985-28.4355 42.6985-41.6115 42.6985-54.9522C42.6985-55.9404 42.6985-55.9404 43.6867-55.9404C47.3101-55.9404 50.7688-55.9404 54.3922-55.9404C54.8863-55.9404 55.2157-55.7757 55.5451-55.4463C59.3332-50.67 63.1213-46.0584 66.7447-41.2821C67.2388-40.788 67.2388-40.788 67.5682-41.2821C71.3563-45.8937 74.9797-50.67 78.7678-55.2816C79.0972-55.7757 79.4266-55.9404 80.0854-55.9404C83.7088-55.9404 87.3322-55.9404 90.7909-55.9404C91.6144-55.9404 91.6144-55.9404 91.6144-55.1169C91.6144-41.7762 91.6144-28.4355 91.6144-15.0948C91.6762-14.1066 91.6762-14.1066 90.9556-14.1066ZM136.907-33.603C131.142-27.1797 125.378-20.9211 119.613-14.4978C119.119-14.0037 119.119-14.0037 118.625-14.4978C112.861-20.9211 107.096-27.1797 101.167-33.603C101.002-33.7677 100.838-33.9324 100.838-34.0971C101.002-34.2618 101.167-34.2618 101.332-34.2618C104.955-34.2618 108.414-34.2618 112.037-34.2618C112.861-34.2618 112.861-34.2618 112.861-35.0853C112.861-41.5086 112.861-47.9319 112.861-54.3552C112.861-54.5199 112.861-54.6846 112.861-55.014C112.861-55.5081 113.025-55.6728 113.355-55.6728C113.52-55.6728 113.684-55.6728 114.014-55.6728C117.472-55.6728 120.931-55.6728 124.39-55.6728C125.049-55.6728 125.049-55.6728 125.049-55.014C125.049-51.72 125.049-48.426 125.049-45.132C125.049-41.838 125.049-38.544 125.049-35.4147C125.049-34.5912 125.049-34.5912 125.872-34.5912C129.331-34.5912 132.789-34.5912 136.248-34.5912C136.413-34.5912 136.742-34.7559 136.907-34.4265C137.298-33.9324 136.969-33.7677 136.907-33.603Z"/>
  </g>
  <g id="Thin-L" transform="matrix(1 0 0 1 767.008 1556)">
   <path class="hierarchical-0:secondary SFSymbolsPreview4D4D4D" d="M158.129-86.0641C155.304-88.8887 151.149-90.3772 145.659-90.3772L33.0121-90.3772C27.5276-90.3772 23.373-89.0473 20.5484-86.2226C17.7238-83.398 16.3938-79.2496 16.3938-73.7651L16.3938 3.93624C16.3938 9.42078 17.7238 13.4168 20.5484 16.2353C23.373 19.0599 27.5276 20.3899 33.0121 20.3899L145.659 20.3899C151.149 20.3899 155.304 18.9014 158.129 16.0768C160.953 13.2521 162.283 9.10374 162.283 3.77772L162.283-73.9236C162.277-79.0911 160.947-83.0872 158.129-86.0641Z"/>
   <path class="hierarchical-1:primary SFSymbolsPreview212121" d="M90.3997-14.1622C86.7763-14.1622 83.1529-14.1622 79.5295-14.1622C78.8707-14.1622 78.8707-14.1622 78.8707-14.821C78.8707-22.2325 78.8707-29.4793 78.8707-36.8908C78.8707-37.0555 78.8707-37.3849 78.8707-37.5496C78.5413-37.3849 78.5413-37.2202 78.3766-37.2202C74.5885-32.6086 70.9651-27.8323 67.177-23.2207C66.6829-22.5619 66.6829-22.5619 66.1888-23.2207C62.4007-27.8323 58.7773-32.4439 54.9892-37.2202C54.8245-37.3849 54.8245-37.5496 54.6598-37.7143C54.4951-37.3849 54.4951-37.2202 54.4951-37.0555C54.4951-29.8087 54.4951-22.5619 54.4951-15.4798C54.4951-15.3151 54.4951-14.9857 54.4951-14.821C54.4951-14.4916 54.3304-14.3269 54.001-14.3269C50.2129-14.3269 46.4248-14.3269 42.6367-14.3269C42.3073-14.3269 42.1426-14.4916 42.1426-14.821C42.1426-14.9857 42.1426-15.1504 42.1426-15.3151C42.1426-28.4911 42.1426-41.6671 42.1426-55.0078C42.1426-55.996 42.1426-55.996 43.1308-55.996C46.7542-55.996 50.2129-55.996 53.8363-55.996C54.3304-55.996 54.6598-55.8313 54.9892-55.5019C58.7773-50.7256 62.5654-46.114 66.1888-41.3377C66.6829-40.8436 66.6829-40.8436 67.0123-41.3377C70.8004-45.9493 74.4238-50.7256 78.2119-55.3372C78.5413-55.8313 78.8707-55.996 79.5295-55.996C83.1529-55.996 86.7763-55.996 90.235-55.996C91.0585-55.996 91.0585-55.996 91.0585-55.1725C91.0585-41.8318 91.0585-28.4911 91.0585-15.1504C91.0647-14.1622 91.0647-14.1622 90.3997-14.1622ZM136.351-33.603C130.587-27.1797 124.822-20.9211 119.058-14.4978C118.563-14.0037 118.563-14.0037 118.069-14.4978C112.305-20.9211 106.54-27.1797 100.611-33.603C100.446-33.7677 100.282-33.9324 100.282-34.0971C100.446-34.2618 100.611-34.2618 100.776-34.2618C104.399-34.2618 107.858-34.2618 111.481-34.2618C112.305-34.2618 112.305-34.2618 112.305-35.0853C112.305-41.5086 112.305-47.9319 112.305-54.3552C112.305-54.5199 112.305-54.6846 112.305-55.014C112.305-55.5081 112.47-55.6728 112.799-55.6728C112.964-55.6728 113.128-55.6728 113.458-55.6728C116.916-55.6728 120.375-55.6728 123.834-55.6728C124.493-55.6728 124.493-55.6728 124.493-55.014C124.493-51.72 124.493-48.426 124.493-45.132C124.493-41.838 124.493-38.544 124.493-35.4147C124.493-34.5912 124.493-34.5912 125.316-34.5912C128.775-34.5912 132.234-34.5912 135.692-34.5912C135.857-34.5912 136.186-34.7559 136.351-34.4265C136.687-33.9324 136.357-33.7677 136.351-33.603Z"/>
  </g>
  <g id="Ultralight-L" transform="matrix(1 0 0 1 470.595 1556)">
   <path class="hierarchical-0:secondary SFSymbolsPreview4D4D4D" d="M157.673-85.6655C154.962-88.3763 150.979-89.8363 145.744-89.8363L32.3004-89.8363C27.0436-89.8363 23.0598-88.5632 20.3491-85.8525C17.6384-83.1418 16.3654-79.1357 16.3654-73.879L16.3654 3.99318C16.3654 9.24995 17.6384 13.0467 20.3491 15.7797C23.0598 18.4905 27.0436 19.7635 32.3004 19.7635L145.744 19.7635C150.979 19.7635 154.962 18.3035 157.673 15.5927C160.384 12.882 161.657 8.87597 161.657 3.80619L161.657-74.066C161.679-78.9487 160.406-82.7455 157.673-85.6655Z"/>
   <path class="hierarchical-1:primary SFSymbolsPreview212121" d="M90.115-14.1907C86.4916-14.1907 82.8682-14.1907 79.2448-14.1907C78.586-14.1907 78.586-14.1907 78.586-14.8495C78.586-22.261 78.586-29.5078 78.586-36.9193C78.586-37.084 78.586-37.4134 78.586-37.5781C78.2566-37.4134 78.2566-37.2487 78.0919-37.2487C74.3038-32.6371 70.6804-27.8608 66.8923-23.2492C66.3982-22.5904 66.3982-22.5904 65.9041-23.2492C62.116-27.8608 58.4926-32.4724 54.7045-37.2487C54.5398-37.4134 54.5398-37.5781 54.3751-37.7428C54.2104-37.4134 54.2104-37.2487 54.2104-37.084C54.2104-29.8372 54.2104-22.5904 54.2104-15.5083C54.2104-15.3436 54.2104-15.0142 54.2104-14.8495C54.2104-14.5201 54.0457-14.3554 53.7163-14.3554C49.9282-14.3554 46.1401-14.3554 42.352-14.3554C42.0226-14.3554 41.8579-14.5201 41.8579-14.8495C41.8579-15.0142 41.8579-15.1789 41.8579-15.3436C41.8579-28.5196 41.8579-41.6956 41.8579-55.0363C41.8579-56.0245 41.8579-56.0245 42.8461-56.0245C46.4695-56.0245 49.9282-56.0245 53.5516-56.0245C54.0457-56.0245 54.3751-55.8598 54.7045-55.5304C58.4926-50.7541 62.2807-46.1425 65.9041-41.3662C66.3982-40.8721 66.3982-40.8721 66.7276-41.3662C70.5157-45.9778 74.1391-50.7541 77.9272-55.3657C78.2566-55.8598 78.586-56.0245 79.2448-56.0245C82.8682-56.0245 86.4916-56.0245 89.9503-56.0245C90.7738-56.0245 90.7738-56.0245 90.7738-55.201C90.7738-41.8603 90.7738-28.5196 90.7738-15.1789C90.7515-14.1907 90.7515-14.1907 90.115-14.1907ZM136.066-33.603C130.302-27.1797 124.537-20.9211 118.773-14.4978C118.279-14.0037 118.279-14.0037 117.785-14.4978C112.02-20.9211 106.256-27.1797 100.326-33.603C100.162-33.7677 99.997-33.9324 99.997-34.0971C100.162-34.2618 100.326-34.2618 100.491-34.2618C104.115-34.2618 107.573-34.2618 111.197-34.2618C112.02-34.2618 112.02-34.2618 112.02-35.0853C112.02-41.5086 112.02-47.9319 112.02-54.3552C112.02-54.5199 112.02-54.6846 112.02-55.014C112.02-55.5081 112.185-55.6728 112.514-55.6728C112.679-55.6728 112.844-55.6728 113.173-55.6728C116.632-55.6728 120.09-55.6728 123.549-55.6728C124.208-55.6728 124.208-55.6728 124.208-55.014C124.208-51.72 124.208-48.426 124.208-45.132C124.208-41.838 124.208-38.544 124.208-35.4147C124.208-34.5912 124.208-34.5912 125.031-34.5912C128.49-34.5912 131.949-34.5912 135.408-34.5912C135.572-34.5912 135.902-34.7559 136.066-34.4265C136.373-33.9324 136.044-33.7677 136.066-33.603Z"/>
  </g>
  <g id="Black-M" transform="matrix(1 0 0 1 2861.72 1126)">
   <path class="hierarchical-0:secondary SFSymbolsPreview4D4D4D" d="M125.653-78.2169C122.269-81.6006 117.608-83.228 111.542-83.228L31.9359-83.228C25.8808-83.228 21.2199-81.5999 17.8362-78.2162C14.4525-74.8325 12.8244-70.1829 12.8244-64.1278L12.8244-5.60538C12.8244 0.44974 14.4525 5.1113 17.8362 8.48371C21.2199 11.8674 25.8808 13.4954 31.9359 13.4954L111.542 13.4954C117.608 13.4954 122.269 11.868 125.653 8.48433C129.037 5.10064 130.665 0.450987 130.665-5.60476L130.665-64.1271C130.654-70.1835 129.026-74.8451 125.653-78.2169Z"/>
   <path class="hierarchical-1:primary SFSymbolsPreview212121" d="M72.4402-18.789C69.633-18.789 66.8258-18.789 64.0186-18.789C63.5082-18.789 63.5082-18.789 63.5082-19.2994C63.5082-25.0414 63.5082-30.6558 63.5082-36.3978C63.5082-36.5254 63.5082-36.7806 63.5082-36.9082C63.253-36.7806 63.253-36.653 63.1254-36.653C60.1906-33.0802 57.3834-29.3798 54.4486-25.807C54.0658-25.2966 54.0658-25.2966 53.683-25.807C50.7482-29.3798 47.941-32.9526 45.0062-36.653C44.8786-36.7806 44.8786-36.9082 44.751-37.0358C44.6234-36.7806 44.6234-36.653 44.6234-36.5254C44.6234-30.911 44.6234-25.2966 44.6234-19.8098C44.6234-19.6822 44.6234-19.427 44.6234-19.2994C44.6234-19.0442 44.4958-18.9166 44.2406-18.9166C41.3058-18.9166 38.371-18.9166 35.4362-18.9166C35.181-18.9166 35.0534-19.0442 35.0534-19.2994C35.0534-19.427 35.0534-19.5546 35.0534-19.6822C35.0534-29.8902 35.0534-40.0982 35.0534-50.4338C35.0534-51.1994 35.0534-51.1994 35.819-51.1994C38.6262-51.1994 41.3058-51.1994 44.113-51.1994C44.4958-51.1994 44.751-51.0718 45.0062-50.8166C47.941-47.1162 50.8758-43.5434 53.683-39.843C54.0658-39.4602 54.0658-39.4602 54.321-39.843C57.2558-43.4158 60.063-47.1162 62.9978-50.689C63.253-51.0718 63.5082-51.1994 64.0186-51.1994C66.8258-51.1994 69.633-51.1994 72.3126-51.1994C72.9506-51.1994 72.9506-51.1994 72.9506-50.5614C72.9506-40.2258 72.9506-29.8902 72.9506-19.5546C72.9619-18.789 72.9619-18.789 72.4402-18.789ZM107.924-33.974C103.458-28.9976 98.9916-24.1488 94.5256-19.1724C94.1428-18.7896 94.1428-18.7896 93.76-19.1724C89.294-24.1488 84.828-28.9976 80.2344-33.974C80.1068-34.1016 79.9792-34.2292 79.9792-34.3568C80.1068-34.4844 80.2344-34.4844 80.362-34.4844C83.1692-34.4844 85.8488-34.4844 88.656-34.4844C89.294-34.4844 89.294-34.4844 89.294-35.1224C89.294-40.0988 89.294-45.0752 89.294-50.0516C89.294-50.1792 89.294-50.3068 89.294-50.562C89.294-50.9448 89.4216-51.0724 89.6768-51.0724C89.8044-51.0724 89.932-51.0724 90.1872-51.0724C92.8668-51.0724 95.5464-51.0724 98.226-51.0724C98.7364-51.0724 98.7364-51.0724 98.7364-50.562C98.7364-48.01 98.7364-45.458 98.7364-42.906C98.7364-40.354 98.7364-37.802 98.7364-35.3776C98.7364-34.7396 98.7364-34.7396 99.3744-34.7396C102.054-34.7396 104.734-34.7396 107.413-34.7396C107.541-34.7396 107.796-34.8672 107.924-34.612C108.307-34.2292 108.052-34.1016 107.924-33.974Z"/>
  </g>
  <g id="Heavy-M" transform="matrix(1 0 0 1 2565.33 1126)">
   <path class="hierarchical-0:secondary SFSymbolsPreview4D4D4D" d="M125.287-77.6965C122.091-80.8921 117.63-82.4311 111.78-82.4311L31.0225-82.4311C25.2056-82.4311 20.744-80.8971 17.5484-77.7015C14.3528-74.5059 12.8188-70.0776 12.8188-64.2607L12.8188-5.48373C12.8188 0.333168 14.3528 4.78974 17.5484 7.95208C20.744 11.1477 25.2056 12.6817 31.0225 12.6817L111.78 12.6817C117.63 12.6817 122.091 11.1427 125.287 7.94707C128.483 4.75148 130.017 0.323153 130.017-5.48874L130.017-64.2657C129.983-70.0726 128.449-74.5291 125.287-77.6965Z"/>
   <path class="hierarchical-1:primary SFSymbolsPreview212121" d="M72.1079-18.7946C69.3007-18.7946 66.4935-18.7946 63.6863-18.7946C63.1759-18.7946 63.1759-18.7946 63.1759-19.305C63.1759-25.047 63.1759-30.6614 63.1759-36.4034C63.1759-36.531 63.1759-36.7862 63.1759-36.9138C62.9207-36.7862 62.9207-36.6586 62.7931-36.6586C59.8583-33.0858 57.0511-29.3854 54.1163-25.8126C53.7335-25.3022 53.7335-25.3022 53.3507-25.8126C50.4159-29.3854 47.6087-32.9582 44.6739-36.6586C44.5463-36.7862 44.5463-36.9138 44.4187-37.0414C44.2911-36.7862 44.2911-36.6586 44.2911-36.531C44.2911-30.9166 44.2911-25.3022 44.2911-19.8154C44.2911-19.6878 44.2911-19.4326 44.2911-19.305C44.2911-19.0498 44.1635-18.9222 43.9083-18.9222C40.9735-18.9222 38.0387-18.9222 35.1039-18.9222C34.8487-18.9222 34.7211-19.0498 34.7211-19.305C34.7211-19.4326 34.7211-19.5602 34.7211-19.6878C34.7211-29.8958 34.7211-40.1038 34.7211-50.4394C34.7211-51.205 34.7211-51.205 35.4867-51.205C38.2939-51.205 40.9735-51.205 43.7807-51.205C44.1635-51.205 44.4187-51.0774 44.6739-50.8222C47.6087-47.1218 50.5435-43.549 53.3507-39.8486C53.7335-39.4658 53.7335-39.4658 53.9887-39.8486C56.9235-43.4214 59.7307-47.1218 62.6655-50.6946C62.9207-51.0774 63.1759-51.205 63.6863-51.205C66.4935-51.205 69.3007-51.205 71.9803-51.205C72.6183-51.205 72.6183-51.205 72.6183-50.567C72.6183-40.2314 72.6183-29.8958 72.6183-19.5602C72.6516-18.7946 72.6516-18.7946 72.1079-18.7946ZM107.619-33.974C103.153-28.9976 98.687-24.1488 94.221-19.1724C93.8382-18.7896 93.8382-18.7896 93.4554-19.1724C88.9894-24.1488 84.5234-28.9976 79.9298-33.974C79.8022-34.1016 79.6746-34.2292 79.6746-34.3568C79.8022-34.4844 79.9298-34.4844 80.0574-34.4844C82.8646-34.4844 85.5442-34.4844 88.3514-34.4844C88.9894-34.4844 88.9894-34.4844 88.9894-35.1224C88.9894-40.0988 88.9894-45.0752 88.9894-50.0516C88.9894-50.1792 88.9894-50.3068 88.9894-50.562C88.9894-50.9448 89.117-51.0724 89.3722-51.0724C89.4998-51.0724 89.6274-51.0724 89.8826-51.0724C92.5622-51.0724 95.2418-51.0724 97.9214-51.0724C98.4318-51.0724 98.4318-51.0724 98.4318-50.562C98.4318-48.01 98.4318-45.458 98.4318-42.906C98.4318-40.354 98.4318-37.802 98.4318-35.3776C98.4318-34.7396 98.4318-34.7396 99.0698-34.7396C101.749-34.7396 104.429-34.7396 107.109-34.7396C107.236-34.7396 107.491-34.8672 107.619-34.612C107.997-34.2292 107.742-34.1016 107.619-33.974Z"/>
  </g>
  <g id="Bold-M" transform="matrix(1 0 0 1 2268.98 1126)">
   <path class="hierarchical-0:secondary SFSymbolsPreview4D4D4D" d="M124.878-77.1144C121.892-80.0996 117.654-81.5397 112.046-81.5397L30.0006-81.5397C24.4502-81.5397 20.2116-80.1109 17.2265-77.1257C14.2413-74.1405 12.8125-69.9598 12.8125-64.4094L12.8125-5.34765C12.8125 0.202765 14.2413 4.43002 17.2265 7.35737C20.2116 10.3425 24.4502 11.7713 30.0006 11.7713L112.046 11.7713C117.654 11.7713 121.892 10.3312 124.878 7.34607C127.863 4.36089 129.292 0.180153 129.292-5.35896L129.292-64.4207C129.234-69.9485 127.805-74.1757 124.878-77.1144Z"/>
   <path class="hierarchical-1:primary SFSymbolsPreview212121" d="M71.7362-18.8009C68.929-18.8009 66.1218-18.8009 63.3146-18.8009C62.8042-18.8009 62.8042-18.8009 62.8042-19.3113C62.8042-25.0533 62.8042-30.6677 62.8042-36.4097C62.8042-36.5373 62.8042-36.7925 62.8042-36.9201C62.549-36.7925 62.549-36.6649 62.4214-36.6649C59.4866-33.0921 56.6794-29.3917 53.7446-25.8189C53.3618-25.3085 53.3618-25.3085 52.979-25.8189C50.0442-29.3917 47.237-32.9645 44.3022-36.6649C44.1746-36.7925 44.1746-36.9201 44.047-37.0477C43.9194-36.7925 43.9194-36.6649 43.9194-36.5373C43.9194-30.9229 43.9194-25.3085 43.9194-19.8217C43.9194-19.6941 43.9194-19.4389 43.9194-19.3113C43.9194-19.0561 43.7918-18.9285 43.5366-18.9285C40.6018-18.9285 37.667-18.9285 34.7322-18.9285C34.477-18.9285 34.3494-19.0561 34.3494-19.3113C34.3494-19.4389 34.3494-19.5665 34.3494-19.6941C34.3494-29.9021 34.3494-40.1101 34.3494-50.4457C34.3494-51.2113 34.3494-51.2113 35.115-51.2113C37.9222-51.2113 40.6018-51.2113 43.409-51.2113C43.7918-51.2113 44.047-51.0837 44.3022-50.8285C47.237-47.1281 50.1718-43.5553 52.979-39.8549C53.3618-39.4721 53.3618-39.4721 53.617-39.8549C56.5518-43.4277 59.359-47.1281 62.2938-50.7009C62.549-51.0837 62.8042-51.2113 63.3146-51.2113C66.1218-51.2113 68.929-51.2113 71.6086-51.2113C72.2466-51.2113 72.2466-51.2113 72.2466-50.5733C72.2466-40.2377 72.2466-29.9021 72.2466-19.5665C72.3044-18.8009 72.3044-18.8009 71.7362-18.8009ZM107.278-33.974C102.812-28.9976 98.3461-24.1488 93.8801-19.1724C93.4973-18.7896 93.4973-18.7896 93.1145-19.1724C88.6485-24.1488 84.1825-28.9976 79.5889-33.974C79.4613-34.1016 79.3337-34.2292 79.3337-34.3568C79.4613-34.4844 79.5889-34.4844 79.7165-34.4844C82.5237-34.4844 85.2033-34.4844 88.0105-34.4844C88.6485-34.4844 88.6485-34.4844 88.6485-35.1224C88.6485-40.0988 88.6485-45.0752 88.6485-50.0516C88.6485-50.1792 88.6485-50.3068 88.6485-50.562C88.6485-50.9448 88.7761-51.0724 89.0313-51.0724C89.1589-51.0724 89.2865-51.0724 89.5417-51.0724C92.2213-51.0724 94.9009-51.0724 97.5805-51.0724C98.0909-51.0724 98.0909-51.0724 98.0909-50.562C98.0909-48.01 98.0909-45.458 98.0909-42.906C98.0909-40.354 98.0909-37.802 98.0909-35.3776C98.0909-34.7396 98.0909-34.7396 98.7289-34.7396C101.409-34.7396 104.088-34.7396 106.768-34.7396C106.895-34.7396 107.151-34.8672 107.278-34.612C107.65-34.2292 107.394-34.1016 107.278-33.974Z"/>
  </g>
  <g id="Semibold-M" transform="matrix(1 0 0 1 1972.51 1126)">
   <path class="hierarchical-0:secondary SFSymbolsPreview4D4D4D" d="M124.595-76.7131C121.755-79.5532 117.67-80.9251 112.229-80.9251L29.2962-80.9251C23.9295-80.9251 19.8446-79.5688 17.0045-76.7287C14.1644-73.8886 12.8082-69.8786 12.8082-64.5119L12.8082-5.25384C12.8082 0.112865 14.1644 4.18204 17.0045 6.94739C19.8446 9.7875 23.9295 11.1438 29.2962 11.1438L112.229 11.1438C117.67 11.1438 121.755 9.77185 124.595 6.93174C127.435 4.09162 128.792 0.0815692 128.792-5.26949L128.792-64.5275C128.717-69.8629 127.361-73.9321 124.595-76.7131Z"/>
   <path class="hierarchical-1:primary SFSymbolsPreview212121" d="M71.48-18.8052C68.6728-18.8052 65.8656-18.8052 63.0584-18.8052C62.548-18.8052 62.548-18.8052 62.548-19.3156C62.548-25.0576 62.548-30.672 62.548-36.414C62.548-36.5416 62.548-36.7968 62.548-36.9244C62.2928-36.7968 62.2928-36.6692 62.1652-36.6692C59.2304-33.0964 56.4232-29.396 53.4884-25.8232C53.1056-25.3128 53.1056-25.3128 52.7228-25.8232C49.788-29.396 46.9808-32.9688 44.046-36.6692C43.9184-36.7968 43.9184-36.9244 43.7908-37.052C43.6632-36.7968 43.6632-36.6692 43.6632-36.5416C43.6632-30.9272 43.6632-25.3128 43.6632-19.826C43.6632-19.6984 43.6632-19.4432 43.6632-19.3156C43.6632-19.0604 43.5356-18.9328 43.2804-18.9328C40.3456-18.9328 37.4108-18.9328 34.476-18.9328C34.2208-18.9328 34.0932-19.0604 34.0932-19.3156C34.0932-19.4432 34.0932-19.5708 34.0932-19.6984C34.0932-29.9064 34.0932-40.1144 34.0932-50.45C34.0932-51.2156 34.0932-51.2156 34.8588-51.2156C37.666-51.2156 40.3456-51.2156 43.1528-51.2156C43.5356-51.2156 43.7908-51.088 44.046-50.8328C46.9808-47.1324 49.9156-43.5596 52.7228-39.8592C53.1056-39.4764 53.1056-39.4764 53.3608-39.8592C56.2956-43.432 59.1028-47.1324 62.0376-50.7052C62.2928-51.088 62.548-51.2156 63.0584-51.2156C65.8656-51.2156 68.6728-51.2156 71.3524-51.2156C71.9904-51.2156 71.9904-51.2156 71.9904-50.5776C71.9904-40.242 71.9904-29.9064 71.9904-19.5708C72.0651-18.8052 72.0651-18.8052 71.48-18.8052ZM107.043-33.974C102.577-28.9976 98.1112-24.1488 93.6452-19.1724C93.2624-18.7896 93.2624-18.7896 92.8796-19.1724C88.4136-24.1488 83.9476-28.9976 79.354-33.974C79.2264-34.1016 79.0988-34.2292 79.0988-34.3568C79.2264-34.4844 79.354-34.4844 79.4816-34.4844C82.2888-34.4844 84.9684-34.4844 87.7756-34.4844C88.4136-34.4844 88.4136-34.4844 88.4136-35.1224C88.4136-40.0988 88.4136-45.0752 88.4136-50.0516C88.4136-50.1792 88.4136-50.3068 88.4136-50.562C88.4136-50.9448 88.5412-51.0724 88.7964-51.0724C88.924-51.0724 89.0516-51.0724 89.3068-51.0724C91.9864-51.0724 94.666-51.0724 97.3456-51.0724C97.856-51.0724 97.856-51.0724 97.856-50.562C97.856-48.01 97.856-45.458 97.856-42.906C97.856-40.354 97.856-37.802 97.856-35.3776C97.856-34.7396 97.856-34.7396 98.494-34.7396C101.174-34.7396 103.853-34.7396 106.533-34.7396C106.66-34.7396 106.916-34.8672 107.043-34.612C107.41-34.2292 107.155-34.1016 107.043-33.974Z"/>
  </g>
  <g id="Medium-M" transform="matrix(1 0 0 1 1675.99 1126)">
   <path class="hierarchical-0:secondary SFSymbolsPreview4D4D4D" d="M124.381-76.4088C121.651-79.1389 117.683-80.4591 112.368-80.4591L28.762-80.4591C23.5346-80.4591 19.5664-79.1579 16.8362-76.4277C14.1061-73.6976 12.8049-69.817 12.8049-64.5896L12.8049-5.18271C12.8049 0.0447002 14.1061 3.994 16.8362 6.63652C19.5664 9.36664 23.5346 10.6679 28.762 10.6679L112.368 10.6679C117.683 10.6679 121.651 9.3477 124.381 6.61758C127.111 3.88745 128.413 0.00681899 128.413-5.20165L128.413-64.6085C128.325-69.798 127.024-73.7473 124.381-76.4088Z"/>
   <path class="hierarchical-1:primary SFSymbolsPreview212121" d="M71.2857-18.8085C68.4785-18.8085 65.6713-18.8085 62.8641-18.8085C62.3537-18.8085 62.3537-18.8085 62.3537-19.3189C62.3537-25.0609 62.3537-30.6753 62.3537-36.4173C62.3537-36.5449 62.3537-36.8001 62.3537-36.9277C62.0985-36.8001 62.0985-36.6725 61.9709-36.6725C59.0361-33.0997 56.2289-29.3993 53.2941-25.8265C52.9113-25.3161 52.9113-25.3161 52.5285-25.8265C49.5937-29.3993 46.7865-32.9721 43.8517-36.6725C43.7241-36.8001 43.7241-36.9277 43.5965-37.0553C43.4689-36.8001 43.4689-36.6725 43.4689-36.5449C43.4689-30.9305 43.4689-25.3161 43.4689-19.8293C43.4689-19.7017 43.4689-19.4465 43.4689-19.3189C43.4689-19.0637 43.3413-18.9361 43.0861-18.9361C40.1513-18.9361 37.2165-18.9361 34.2817-18.9361C34.0265-18.9361 33.8989-19.0637 33.8989-19.3189C33.8989-19.4465 33.8989-19.5741 33.8989-19.7017C33.8989-29.9097 33.8989-40.1177 33.8989-50.4533C33.8989-51.2189 33.8989-51.2189 34.6645-51.2189C37.4717-51.2189 40.1513-51.2189 42.9585-51.2189C43.3413-51.2189 43.5965-51.0913 43.8517-50.8361C46.7865-47.1357 49.7213-43.5629 52.5285-39.8625C52.9113-39.4797 52.9113-39.4797 53.1665-39.8625C56.1013-43.4353 58.9085-47.1357 61.8433-50.7085C62.0985-51.0913 62.3537-51.2189 62.8641-51.2189C65.6713-51.2189 68.4785-51.2189 71.1581-51.2189C71.7961-51.2189 71.7961-51.2189 71.7961-50.5809C71.7961-40.2453 71.7961-29.9097 71.7961-19.5741C71.8837-18.8085 71.8837-18.8085 71.2857-18.8085ZM106.865-33.974C102.399-28.9976 97.933-24.1488 93.467-19.1724C93.0842-18.7896 93.0842-18.7896 92.7014-19.1724C88.2354-24.1488 83.7694-28.9976 79.1758-33.974C79.0482-34.1016 78.9206-34.2292 78.9206-34.3568C79.0482-34.4844 79.1758-34.4844 79.3034-34.4844C82.1106-34.4844 84.7902-34.4844 87.5974-34.4844C88.2354-34.4844 88.2354-34.4844 88.2354-35.1224C88.2354-40.0988 88.2354-45.0752 88.2354-50.0516C88.2354-50.1792 88.2354-50.3068 88.2354-50.562C88.2354-50.9448 88.363-51.0724 88.6182-51.0724C88.7458-51.0724 88.8734-51.0724 89.1286-51.0724C91.8082-51.0724 94.4878-51.0724 97.1674-51.0724C97.6778-51.0724 97.6778-51.0724 97.6778-50.562C97.6778-48.01 97.6778-45.458 97.6778-42.906C97.6778-40.354 97.6778-37.802 97.6778-35.3776C97.6778-34.7396 97.6778-34.7396 98.3158-34.7396C100.995-34.7396 103.675-34.7396 106.355-34.7396C106.482-34.7396 106.737-34.8672 106.865-34.612C107.229-34.2292 106.974-34.1016 106.865-33.974Z"/>
  </g>
  <g id="Regular-M" transform="matrix(1 0 0 1 1379.53 1126)">
   <path class="hierarchical-0:secondary SFSymbolsPreview4D4D4D" d="M124.102-76.0119C121.515-78.5986 117.699-79.8513 112.549-79.8513L28.0653-79.8513C23.0196-79.8513 19.2034-78.6218 16.6168-76.0351C14.0301-73.4485 12.8006-69.7367 12.8006-64.6909L12.8006-5.08993C12.8006-0.0442109 14.0301 3.74874 16.6168 6.23104C19.2034 8.8177 23.0196 10.0472 28.0653 10.0472L112.549 10.0472C117.699 10.0472 121.515 8.79446 124.102 6.2078C126.689 3.62114 127.918-0.0906812 127.918-5.11316L127.918-64.7142C127.814-69.7134 126.584-73.5064 124.102-76.0119Z"/>
   <path class="hierarchical-1:primary SFSymbolsPreview212121" d="M71.0322-18.8128C68.225-18.8128 65.4178-18.8128 62.6106-18.8128C62.1002-18.8128 62.1002-18.8128 62.1002-19.3232C62.1002-25.0652 62.1002-30.6796 62.1002-36.4216C62.1002-36.5492 62.1002-36.8044 62.1002-36.932C61.845-36.8044 61.845-36.6768 61.7174-36.6768C58.7826-33.104 55.9754-29.4036 53.0406-25.8308C52.6578-25.3204 52.6578-25.3204 52.275-25.8308C49.3402-29.4036 46.533-32.9764 43.5982-36.6768C43.4706-36.8044 43.4706-36.932 43.343-37.0596C43.2154-36.8044 43.2154-36.6768 43.2154-36.5492C43.2154-30.9348 43.2154-25.3204 43.2154-19.8336C43.2154-19.706 43.2154-19.4508 43.2154-19.3232C43.2154-19.068 43.0878-18.9404 42.8326-18.9404C39.8978-18.9404 36.963-18.9404 34.0282-18.9404C33.773-18.9404 33.6454-19.068 33.6454-19.3232C33.6454-19.4508 33.6454-19.5784 33.6454-19.706C33.6454-29.914 33.6454-40.122 33.6454-50.4576C33.6454-51.2232 33.6454-51.2232 34.411-51.2232C37.2182-51.2232 39.8978-51.2232 42.705-51.2232C43.0878-51.2232 43.343-51.0956 43.5982-50.8404C46.533-47.14 49.4678-43.5672 52.275-39.8668C52.6578-39.484 52.6578-39.484 52.913-39.8668C55.8478-43.4396 58.655-47.14 61.5898-50.7128C61.845-51.0956 62.1002-51.2232 62.6106-51.2232C65.4178-51.2232 68.225-51.2232 70.9046-51.2232C71.5426-51.2232 71.5426-51.2232 71.5426-50.5852C71.5426-40.2496 71.5426-29.914 71.5426-19.5784C71.647-18.8128 71.647-18.8128 71.0322-18.8128ZM106.633-33.974C102.167-28.9976 97.7006-24.1488 93.2346-19.1724C92.8518-18.7896 92.8518-18.7896 92.469-19.1724C88.003-24.1488 83.537-28.9976 78.9434-33.974C78.8158-34.1016 78.6882-34.2292 78.6882-34.3568C78.8158-34.4844 78.9434-34.4844 79.071-34.4844C81.8782-34.4844 84.5578-34.4844 87.365-34.4844C88.003-34.4844 88.003-34.4844 88.003-35.1224C88.003-40.0988 88.003-45.0752 88.003-50.0516C88.003-50.1792 88.003-50.3068 88.003-50.562C88.003-50.9448 88.1306-51.0724 88.3858-51.0724C88.5134-51.0724 88.641-51.0724 88.8962-51.0724C91.5758-51.0724 94.2554-51.0724 96.935-51.0724C97.4454-51.0724 97.4454-51.0724 97.4454-50.562C97.4454-48.01 97.4454-45.458 97.4454-42.906C97.4454-40.354 97.4454-37.802 97.4454-35.3776C97.4454-34.7396 97.4454-34.7396 98.0834-34.7396C100.763-34.7396 103.443-34.7396 106.122-34.7396C106.25-34.7396 106.505-34.8672 106.633-34.612C106.992-34.2292 106.737-34.1016 106.633-33.974Z"/>
  </g>
  <g id="Light-M" transform="matrix(1 0 0 1 1083.21 1126)">
   <path class="hierarchical-0:secondary SFSymbolsPreview4D4D4D" d="M123.499-75.4844C121.063-77.9203 117.473-79.1354 112.662-79.1354L27.1233-79.1354C22.379-79.1354 18.7889-77.9812 16.353-75.5453C13.9171-73.1094 12.7629-69.5859 12.7629-64.8417L12.7629-5.01457C12.7629-0.270298 13.9171 3.25889 16.353 5.62814C18.7889 8.06407 22.379 9.21824 27.1233 9.21824L112.662 9.21824C117.473 9.21824 121.063 8.00316 123.499 5.56722C125.935 3.13129 127.089-0.392131 127.089-5.07548L127.089-64.9026C127.023-69.525 125.868-73.0542 123.499-75.4844Z"/>
   <path class="hierarchical-1:primary SFSymbolsPreview212121" d="M70.6554-18.8505C67.8482-18.8505 65.041-18.8505 62.2338-18.8505C61.7234-18.8505 61.7234-18.8505 61.7234-19.3609C61.7234-25.1029 61.7234-30.7173 61.7234-36.4593C61.7234-36.5869 61.7234-36.8421 61.7234-36.9697C61.4682-36.8421 61.4682-36.7145 61.3406-36.7145C58.4058-33.1417 55.5986-29.4413 52.6638-25.8685C52.281-25.3581 52.281-25.3581 51.8982-25.8685C48.9634-29.4413 46.1562-33.0141 43.2214-36.7145C43.0938-36.8421 43.0938-36.9697 42.9662-37.0973C42.8386-36.8421 42.8386-36.7145 42.8386-36.5869C42.8386-30.9725 42.8386-25.3581 42.8386-19.8713C42.8386-19.7437 42.8386-19.4885 42.8386-19.3609C42.8386-19.1057 42.711-18.9781 42.4558-18.9781C39.521-18.9781 36.5862-18.9781 33.6514-18.9781C33.3962-18.9781 33.2686-19.1057 33.2686-19.3609C33.2686-19.4885 33.2686-19.6161 33.2686-19.7437C33.2686-29.9517 33.2686-40.1597 33.2686-50.4953C33.2686-51.2609 33.2686-51.2609 34.0342-51.2609C36.8414-51.2609 39.521-51.2609 42.3282-51.2609C42.711-51.2609 42.9662-51.1333 43.2214-50.8781C46.1562-47.1777 49.091-43.6049 51.8982-39.9045C52.281-39.5217 52.281-39.5217 52.5362-39.9045C55.471-43.4773 58.2782-47.1777 61.213-50.7505C61.4682-51.1333 61.7234-51.2609 62.2338-51.2609C65.041-51.2609 67.8482-51.2609 70.5278-51.2609C71.1658-51.2609 71.1658-51.2609 71.1658-50.6229C71.1658-40.2873 71.1658-29.9517 71.1658-19.6161C71.2325-18.8505 71.2325-18.8505 70.6554-18.8505ZM106.256-33.974C101.79-28.9976 97.3238-24.1488 92.8578-19.1724C92.475-18.7896 92.475-18.7896 92.0922-19.1724C87.6262-24.1488 83.1602-28.9976 78.5666-33.974C78.439-34.1016 78.3114-34.2292 78.3114-34.3568C78.439-34.4844 78.5666-34.4844 78.6942-34.4844C81.5014-34.4844 84.181-34.4844 86.9882-34.4844C87.6262-34.4844 87.6262-34.4844 87.6262-35.1224C87.6262-40.0988 87.6262-45.0752 87.6262-50.0516C87.6262-50.1792 87.6262-50.3068 87.6262-50.562C87.6262-50.9448 87.7538-51.0724 88.009-51.0724C88.1366-51.0724 88.2642-51.0724 88.5194-51.0724C91.199-51.0724 93.8786-51.0724 96.5582-51.0724C97.0686-51.0724 97.0686-51.0724 97.0686-50.562C97.0686-48.01 97.0686-45.458 97.0686-42.906C97.0686-40.354 97.0686-37.802 97.0686-35.3776C97.0686-34.7396 97.0686-34.7396 97.7066-34.7396C100.386-34.7396 103.066-34.7396 105.745-34.7396C105.873-34.7396 106.128-34.8672 106.256-34.612C106.578-34.2292 106.323-34.1016 106.256-33.974Z"/>
  </g>
  <g id="Thin-M" transform="matrix(1 0 0 1 787.022 1126)">
   <path class="hierarchical-0:secondary SFSymbolsPreview4D4D4D" d="M122.702-74.7867C120.465-77.0233 117.174-78.1885 112.812-78.1885L25.8774-78.1885C21.5318-78.1885 18.2407-77.134 16.0041-74.8974C13.7675-72.6608 12.713-69.3866 12.713-65.041L12.713-4.91489C12.713-0.569316 13.7675 2.61102 16.0041 4.83076C18.2407 7.06735 21.5318 8.12184 25.8774 8.12184L112.812 8.12184C117.174 8.12184 120.465 6.95659 122.702 4.72C124.938 2.48342 125.993-0.790822 125.993-5.02565L125.993-65.1518C125.976-69.2758 124.921-72.4562 122.702-74.7867Z"/>
   <path class="hierarchical-1:primary SFSymbolsPreview212121" d="M70.1571-18.9004C67.3499-18.9004 64.5427-18.9004 61.7355-18.9004C61.2251-18.9004 61.2251-18.9004 61.2251-19.4108C61.2251-25.1528 61.2251-30.7672 61.2251-36.5092C61.2251-36.6368 61.2251-36.892 61.2251-37.0196C60.9699-36.892 60.9699-36.7644 60.8423-36.7644C57.9075-33.1916 55.1003-29.4912 52.1655-25.9184C51.7827-25.408 51.7827-25.408 51.3999-25.9184C48.4651-29.4912 45.6579-33.064 42.7231-36.7644C42.5955-36.892 42.5955-37.0196 42.4679-37.1472C42.3403-36.892 42.3403-36.7644 42.3403-36.6368C42.3403-31.0224 42.3403-25.408 42.3403-19.9212C42.3403-19.7936 42.3403-19.5384 42.3403-19.4108C42.3403-19.1556 42.2127-19.028 41.9575-19.028C39.0227-19.028 36.0879-19.028 33.1531-19.028C32.8979-19.028 32.7703-19.1556 32.7703-19.4108C32.7703-19.5384 32.7703-19.666 32.7703-19.7936C32.7703-30.0016 32.7703-40.2096 32.7703-50.5452C32.7703-51.3108 32.7703-51.3108 33.5359-51.3108C36.3431-51.3108 39.0227-51.3108 41.8299-51.3108C42.2127-51.3108 42.4679-51.1832 42.7231-50.928C45.6579-47.2276 48.5927-43.6548 51.3999-39.9544C51.7827-39.5716 51.7827-39.5716 52.0379-39.9544C54.9727-43.5272 57.7799-47.2276 60.7147-50.8004C60.9699-51.1832 61.2251-51.3108 61.7355-51.3108C64.5427-51.3108 67.3499-51.3108 70.0295-51.3108C70.6675-51.3108 70.6675-51.3108 70.6675-50.6728C70.6675-40.3372 70.6675-30.0016 70.6675-19.666C70.6843-18.9004 70.6843-18.9004 70.1571-18.9004ZM105.757-33.974C101.291-28.9976 96.8255-24.1488 92.3595-19.1724C91.9767-18.7896 91.9767-18.7896 91.5939-19.1724C87.1279-24.1488 82.6619-28.9976 78.0683-33.974C77.9407-34.1016 77.8131-34.2292 77.8131-34.3568C77.9407-34.4844 78.0683-34.4844 78.1959-34.4844C81.0031-34.4844 83.6827-34.4844 86.4899-34.4844C87.1279-34.4844 87.1279-34.4844 87.1279-35.1224C87.1279-40.0988 87.1279-45.0752 87.1279-50.0516C87.1279-50.1792 87.1279-50.3068 87.1279-50.562C87.1279-50.9448 87.2555-51.0724 87.5107-51.0724C87.6383-51.0724 87.7659-51.0724 88.0211-51.0724C90.7007-51.0724 93.3803-51.0724 96.0599-51.0724C96.5703-51.0724 96.5703-51.0724 96.5703-50.562C96.5703-48.01 96.5703-45.458 96.5703-42.906C96.5703-40.354 96.5703-37.802 96.5703-35.3776C96.5703-34.7396 96.5703-34.7396 97.2083-34.7396C99.8879-34.7396 102.567-34.7396 105.247-34.7396C105.375-34.7396 105.63-34.8672 105.757-34.612C106.03-34.2292 105.774-34.1016 105.757-33.974Z"/>
  </g>
  <g id="Ultralight-M" transform="matrix(1 0 0 1 490.579 1126)">
   <path class="hierarchical-0:secondary SFSymbolsPreview4D4D4D" d="M122.293-74.4293C120.159-76.5638 117.021-77.7035 112.888-77.7035L25.2392-77.7035C21.0979-77.7035 17.9599-76.7001 15.8254-74.5656C13.691-72.4311 12.6875-69.2845 12.6875-65.1431L12.6875-4.86384C12.6875-0.722472 13.691 2.27918 15.8254 4.42234C17.9599 6.55683 21.0979 7.56027 25.2392 7.56027L112.888 7.56027C117.021 7.56027 120.159 6.42055 122.293 4.28606C124.428 2.15158 125.431-0.995029 125.431-5.00012L125.431-65.2794C125.44-69.1482 124.437-72.1499 122.293-74.4293Z"/>
   <path class="hierarchical-1:primary SFSymbolsPreview212121" d="M69.9018-18.9259C67.0946-18.9259 64.2874-18.9259 61.4802-18.9259C60.9698-18.9259 60.9698-18.9259 60.9698-19.4363C60.9698-25.1783 60.9698-30.7927 60.9698-36.5347C60.9698-36.6623 60.9698-36.9175 60.9698-37.0451C60.7146-36.9175 60.7146-36.7899 60.587-36.7899C57.6522-33.2171 54.845-29.5167 51.9102-25.9439C51.5274-25.4335 51.5274-25.4335 51.1446-25.9439C48.2098-29.5167 45.4026-33.0895 42.4678-36.7899C42.3402-36.9175 42.3402-37.0451 42.2126-37.1727C42.085-36.9175 42.085-36.7899 42.085-36.6623C42.085-31.0479 42.085-25.4335 42.085-19.9467C42.085-19.8191 42.085-19.5639 42.085-19.4363C42.085-19.1811 41.9574-19.0535 41.7022-19.0535C38.7674-19.0535 35.8326-19.0535 32.8978-19.0535C32.6426-19.0535 32.515-19.1811 32.515-19.4363C32.515-19.5639 32.515-19.6915 32.515-19.8191C32.515-30.0271 32.515-40.2351 32.515-50.5707C32.515-51.3363 32.515-51.3363 33.2806-51.3363C36.0878-51.3363 38.7674-51.3363 41.5746-51.3363C41.9574-51.3363 42.2126-51.2087 42.4678-50.9535C45.4026-47.2531 48.3374-43.6803 51.1446-39.9799C51.5274-39.5971 51.5274-39.5971 51.7826-39.9799C54.7174-43.5527 57.5246-47.2531 60.4594-50.8259C60.7146-51.2087 60.9698-51.3363 61.4802-51.3363C64.2874-51.3363 67.0946-51.3363 69.7742-51.3363C70.4122-51.3363 70.4122-51.3363 70.4122-50.6983C70.4122-40.3627 70.4122-30.0271 70.4122-19.6915C70.4035-18.9259 70.4035-18.9259 69.9018-18.9259ZM105.502-33.974C101.036-28.9976 96.5702-24.1488 92.1042-19.1724C91.7214-18.7896 91.7214-18.7896 91.3386-19.1724C86.8726-24.1488 82.4066-28.9976 77.813-33.974C77.6854-34.1016 77.5578-34.2292 77.5578-34.3568C77.6854-34.4844 77.813-34.4844 77.9406-34.4844C80.7478-34.4844 83.4274-34.4844 86.2346-34.4844C86.8726-34.4844 86.8726-34.4844 86.8726-35.1224C86.8726-40.0988 86.8726-45.0752 86.8726-50.0516C86.8726-50.1792 86.8726-50.3068 86.8726-50.562C86.8726-50.9448 87.0002-51.0724 87.2554-51.0724C87.383-51.0724 87.5106-51.0724 87.7658-51.0724C90.4454-51.0724 93.125-51.0724 95.8046-51.0724C96.315-51.0724 96.315-51.0724 96.315-50.562C96.315-48.01 96.315-45.458 96.315-42.906C96.315-40.354 96.315-37.802 96.315-35.3776C96.315-34.7396 96.315-34.7396 96.953-34.7396C99.6326-34.7396 102.312-34.7396 104.992-34.7396C105.119-34.7396 105.375-34.8672 105.502-34.612C105.749-34.2292 105.494-34.1016 105.502-33.974Z"/>
  </g>
  <g id="Black-S" transform="matrix(1 0 0 1 2877.15 696)">
   <path class="hierarchical-0:secondary SFSymbolsPreview4D4D4D" d="M98.55-69.05C95.85-71.75 92.15-73.05 87.35-73.05L25.25-73.05C20.45-73.05 16.75-71.75 14.05-69.05C11.35-66.35 10.05-62.65 10.05-57.85L10.05-12.05C10.05-7.25 11.35-3.55 14.05-0.85C16.75 1.85 20.45 3.15 25.25 3.15L87.35 3.15C92.15 3.15 95.85 1.85 98.55-0.85C101.25-3.55 102.55-7.25 102.55-12.05L102.55-57.85C102.55-62.65 101.25-66.35 98.55-69.05Z"/>
   <path class="hierarchical-1:primary SFSymbolsPreview212121" d="M56.85-22.35C54.65-22.35 52.45-22.35 50.25-22.35C49.85-22.35 49.85-22.35 49.85-22.75C49.85-27.25 49.85-31.65 49.85-36.15C49.85-36.25 49.85-36.45 49.85-36.55C49.65-36.45 49.65-36.35 49.55-36.35C47.25-33.55 45.05-30.65 42.75-27.85C42.45-27.45 42.45-27.45 42.15-27.85C39.85-30.65 37.65-33.45 35.35-36.35C35.25-36.45 35.25-36.55 35.15-36.65C35.05-36.45 35.05-36.35 35.05-36.25C35.05-31.85 35.05-27.45 35.05-23.15C35.05-23.05 35.05-22.85 35.05-22.75C35.05-22.55 34.95-22.45 34.75-22.45C32.45-22.45 30.15-22.45 27.85-22.45C27.65-22.45 27.55-22.55 27.55-22.75C27.55-22.85 27.55-22.95 27.55-23.05C27.55-31.05 27.55-39.05 27.55-47.15C27.55-47.75 27.55-47.75 28.15-47.75C30.35-47.75 32.45-47.75 34.65-47.75C34.95-47.75 35.15-47.65 35.35-47.45C37.65-44.55 39.95-41.75 42.15-38.85C42.45-38.55 42.45-38.55 42.65-38.85C44.95-41.65 47.15-44.55 49.45-47.35C49.65-47.65 49.85-47.75 50.25-47.75C52.45-47.75 54.65-47.75 56.75-47.75C57.25-47.75 57.25-47.75 57.25-47.25C57.25-39.15 57.25-31.05 57.25-22.95C57.25-22.35 57.25-22.35 56.85-22.35ZM84.65-34.25C81.15-30.35 77.65-26.55 74.15-22.65C73.85-22.35 73.85-22.35 73.55-22.65C70.05-26.55 66.55-30.35 62.95-34.25C62.85-34.35 62.75-34.45 62.75-34.55C62.85-34.65 62.95-34.65 63.05-34.65C65.25-34.65 67.35-34.65 69.55-34.65C70.05-34.65 70.05-34.65 70.05-35.15C70.05-39.05 70.05-42.95 70.05-46.85C70.05-46.95 70.05-47.05 70.05-47.25C70.05-47.55 70.15-47.65 70.35-47.65C70.45-47.65 70.55-47.65 70.75-47.65C72.85-47.65 74.95-47.65 77.05-47.65C77.45-47.65 77.45-47.65 77.45-47.25C77.45-45.25 77.45-43.25 77.45-41.25C77.45-39.25 77.45-37.25 77.45-35.35C77.45-34.85 77.45-34.85 77.95-34.85C80.05-34.85 82.15-34.85 84.25-34.85C84.35-34.85 84.55-34.95 84.65-34.75C84.95-34.45 84.75-34.35 84.65-34.25Z"/>
  </g>
  <g id="Heavy-S" transform="matrix(1 0 0 1 2580.66 696)">
   <path class="hierarchical-0:secondary SFSymbolsPreview4D4D4D" d="M98.314-68.6724C95.7556-71.2308 92.1972-72.4599 87.5388-72.4599L24.5891-72.4599C19.9544-72.4599 16.396-71.2308 13.8376-68.6724C11.2792-66.114 10.05-62.5792 10.05-57.9444L10.05-11.9556C10.05-7.32081 11.2792-3.76242 13.8376-1.22763C16.396 1.33075 19.9544 2.55995 24.5891 2.55995L87.5388 2.55995C92.1972 2.55995 95.7556 1.33075 98.314-1.22763C100.872-3.78602 102.102-7.32081 102.102-11.9556L102.102-57.9444C102.078-62.5792 100.849-66.1376 98.314-68.6724Z"/>
   <path class="hierarchical-1:primary SFSymbolsPreview212121" d="M56.614-22.35C54.414-22.35 52.214-22.35 50.014-22.35C49.614-22.35 49.614-22.35 49.614-22.75C49.614-27.25 49.614-31.65 49.614-36.15C49.614-36.25 49.614-36.45 49.614-36.55C49.414-36.45 49.414-36.35 49.314-36.35C47.014-33.55 44.814-30.65 42.514-27.85C42.214-27.45 42.214-27.45 41.914-27.85C39.614-30.65 37.414-33.45 35.114-36.35C35.014-36.45 35.014-36.55 34.914-36.65C34.814-36.45 34.814-36.35 34.814-36.25C34.814-31.85 34.814-27.45 34.814-23.15C34.814-23.05 34.814-22.85 34.814-22.75C34.814-22.55 34.714-22.45 34.514-22.45C32.214-22.45 29.914-22.45 27.614-22.45C27.414-22.45 27.314-22.55 27.314-22.75C27.314-22.85 27.314-22.95 27.314-23.05C27.314-31.05 27.314-39.05 27.314-47.15C27.314-47.75 27.314-47.75 27.914-47.75C30.114-47.75 32.214-47.75 34.414-47.75C34.714-47.75 34.914-47.65 35.114-47.45C37.414-44.55 39.714-41.75 41.914-38.85C42.214-38.55 42.214-38.55 42.414-38.85C44.714-41.65 46.914-44.55 49.214-47.35C49.414-47.65 49.614-47.75 50.014-47.75C52.214-47.75 54.414-47.75 56.514-47.75C57.014-47.75 57.014-47.75 57.014-47.25C57.014-39.15 57.014-31.05 57.014-22.95C57.0376-22.35 57.0376-22.35 56.614-22.35ZM84.4376-34.25C80.9376-30.35 77.4376-26.55 73.9376-22.65C73.6376-22.35 73.6376-22.35 73.3376-22.65C69.8376-26.55 66.3376-30.35 62.7376-34.25C62.6376-34.35 62.5376-34.45 62.5376-34.55C62.6376-34.65 62.7376-34.65 62.8376-34.65C65.0376-34.65 67.1376-34.65 69.3376-34.65C69.8376-34.65 69.8376-34.65 69.8376-35.15C69.8376-39.05 69.8376-42.95 69.8376-46.85C69.8376-46.95 69.8376-47.05 69.8376-47.25C69.8376-47.55 69.9376-47.65 70.1376-47.65C70.2376-47.65 70.3376-47.65 70.5376-47.65C72.6376-47.65 74.7376-47.65 76.8376-47.65C77.2376-47.65 77.2376-47.65 77.2376-47.25C77.2376-45.25 77.2376-43.25 77.2376-41.25C77.2376-39.25 77.2376-37.25 77.2376-35.35C77.2376-34.85 77.2376-34.85 77.7376-34.85C79.8376-34.85 81.9376-34.85 84.0376-34.85C84.1376-34.85 84.3376-34.95 84.4376-34.75C84.7376-34.45 84.5376-34.35 84.4376-34.25Z"/>
  </g>
  <g id="Bold-S" transform="matrix(1 0 0 1 2284.2 696)">
   <path class="hierarchical-0:secondary SFSymbolsPreview4D4D4D" d="M98.05-68.25C95.65-70.65 92.25-71.8 87.75-71.8L23.85-71.8C19.4-71.8 16-70.65 13.6-68.25C11.2-65.85 10.05-62.5 10.05-58.05L10.05-11.85C10.05-7.4 11.2-4 13.6-1.65C16 0.75 19.4 1.9 23.85 1.9L87.75 1.9C92.25 1.9 95.65 0.75 98.05-1.65C100.45-4.05 101.6-7.4 101.6-11.85L101.6-58.05C101.55-62.5 100.4-65.9 98.05-68.25Z"/>
   <path class="hierarchical-1:primary SFSymbolsPreview212121" d="M56.35-22.35C54.15-22.35 51.95-22.35 49.75-22.35C49.35-22.35 49.35-22.35 49.35-22.75C49.35-27.25 49.35-31.65 49.35-36.15C49.35-36.25 49.35-36.45 49.35-36.55C49.15-36.45 49.15-36.35 49.05-36.35C46.75-33.55 44.55-30.65 42.25-27.85C41.95-27.45 41.95-27.45 41.65-27.85C39.35-30.65 37.15-33.45 34.85-36.35C34.75-36.45 34.75-36.55 34.65-36.65C34.55-36.45 34.55-36.35 34.55-36.25C34.55-31.85 34.55-27.45 34.55-23.15C34.55-23.05 34.55-22.85 34.55-22.75C34.55-22.55 34.45-22.45 34.25-22.45C31.95-22.45 29.65-22.45 27.35-22.45C27.15-22.45 27.05-22.55 27.05-22.75C27.05-22.85 27.05-22.95 27.05-23.05C27.05-31.05 27.05-39.05 27.05-47.15C27.05-47.75 27.05-47.75 27.65-47.75C29.85-47.75 31.95-47.75 34.15-47.75C34.45-47.75 34.65-47.65 34.85-47.45C37.15-44.55 39.45-41.75 41.65-38.85C41.95-38.55 41.95-38.55 42.15-38.85C44.45-41.65 46.65-44.55 48.95-47.35C49.15-47.65 49.35-47.75 49.75-47.75C51.95-47.75 54.15-47.75 56.25-47.75C56.75-47.75 56.75-47.75 56.75-47.25C56.75-39.15 56.75-31.05 56.75-22.95C56.8-22.35 56.8-22.35 56.35-22.35ZM84.2-34.25C80.7-30.35 77.2-26.55 73.7-22.65C73.4-22.35 73.4-22.35 73.1-22.65C69.6-26.55 66.1-30.35 62.5-34.25C62.4-34.35 62.3-34.45 62.3-34.55C62.4-34.65 62.5-34.65 62.6-34.65C64.8-34.65 66.9-34.65 69.1-34.65C69.6-34.65 69.6-34.65 69.6-35.15C69.6-39.05 69.6-42.95 69.6-46.85C69.6-46.95 69.6-47.05 69.6-47.25C69.6-47.55 69.7-47.65 69.9-47.65C70-47.65 70.1-47.65 70.3-47.65C72.4-47.65 74.5-47.65 76.6-47.65C77-47.65 77-47.65 77-47.25C77-45.25 77-43.25 77-41.25C77-39.25 77-37.25 77-35.35C77-34.85 77-34.85 77.5-34.85C79.6-34.85 81.7-34.85 83.8-34.85C83.9-34.85 84.1-34.95 84.2-34.75C84.5-34.45 84.3-34.35 84.2-34.25Z"/>
  </g>
  <g id="Semibold-S" transform="matrix(1 0 0 1 1987.66 696)">
   <path class="hierarchical-0:secondary SFSymbolsPreview4D4D4D" d="M97.868-67.9588C95.5772-70.2496 92.2864-71.345 87.8956-71.345L23.3404-71.345C19.0178-71.345 15.727-70.2496 13.4362-67.9588C11.1454-65.668 10.05-62.4454 10.05-58.1228L10.05-11.7772C10.05-7.4546 11.1454-4.1638 13.4362-1.9412C15.727 0.3496 19.0178 1.445 23.3404 1.445L87.8956 1.445C92.2864 1.445 95.5772 0.3496 97.868-1.9412C100.159-4.232 101.254-7.4546 101.254-11.7772L101.254-58.1228C101.186-62.4454 100.091-65.7362 97.868-67.9588Z"/>
   <path class="hierarchical-1:primary SFSymbolsPreview212121" d="M56.168-22.35C53.968-22.35 51.768-22.35 49.568-22.35C49.168-22.35 49.168-22.35 49.168-22.75C49.168-27.25 49.168-31.65 49.168-36.15C49.168-36.25 49.168-36.45 49.168-36.55C48.968-36.45 48.968-36.35 48.868-36.35C46.568-33.55 44.368-30.65 42.068-27.85C41.768-27.45 41.768-27.45 41.468-27.85C39.168-30.65 36.968-33.45 34.668-36.35C34.568-36.45 34.568-36.55 34.468-36.65C34.368-36.45 34.368-36.35 34.368-36.25C34.368-31.85 34.368-27.45 34.368-23.15C34.368-23.05 34.368-22.85 34.368-22.75C34.368-22.55 34.268-22.45 34.068-22.45C31.768-22.45 29.468-22.45 27.168-22.45C26.968-22.45 26.868-22.55 26.868-22.75C26.868-22.85 26.868-22.95 26.868-23.05C26.868-31.05 26.868-39.05 26.868-47.15C26.868-47.75 26.868-47.75 27.468-47.75C29.668-47.75 31.768-47.75 33.968-47.75C34.268-47.75 34.468-47.65 34.668-47.45C36.968-44.55 39.268-41.75 41.468-38.85C41.768-38.55 41.768-38.55 41.968-38.85C44.268-41.65 46.468-44.55 48.768-47.35C48.968-47.65 49.168-47.75 49.568-47.75C51.768-47.75 53.968-47.75 56.068-47.75C56.568-47.75 56.568-47.75 56.568-47.25C56.568-39.15 56.568-31.05 56.568-22.95C56.6362-22.35 56.6362-22.35 56.168-22.35ZM84.0362-34.25C80.5362-30.35 77.0362-26.55 73.5362-22.65C73.2362-22.35 73.2362-22.35 72.9362-22.65C69.4362-26.55 65.9362-30.35 62.3362-34.25C62.2362-34.35 62.1362-34.45 62.1362-34.55C62.2362-34.65 62.3362-34.65 62.4362-34.65C64.6362-34.65 66.7362-34.65 68.9362-34.65C69.4362-34.65 69.4362-34.65 69.4362-35.15C69.4362-39.05 69.4362-42.95 69.4362-46.85C69.4362-46.95 69.4362-47.05 69.4362-47.25C69.4362-47.55 69.5362-47.65 69.7362-47.65C69.8362-47.65 69.9362-47.65 70.1362-47.65C72.2362-47.65 74.3362-47.65 76.4362-47.65C76.8362-47.65 76.8362-47.65 76.8362-47.25C76.8362-45.25 76.8362-43.25 76.8362-41.25C76.8362-39.25 76.8362-37.25 76.8362-35.35C76.8362-34.85 76.8362-34.85 77.3362-34.85C79.4362-34.85 81.5362-34.85 83.6362-34.85C83.7362-34.85 83.9362-34.95 84.0362-34.75C84.3362-34.45 84.1362-34.35 84.0362-34.25Z"/>
  </g>
  <g id="Medium-S" transform="matrix(1 0 0 1 1691.08 696)">
   <path class="hierarchical-0:secondary SFSymbolsPreview4D4D4D" d="M97.73-67.738C95.522-69.946 92.314-71 88.006-71L22.954-71C18.728-71 15.52-69.946 13.312-67.738C11.104-65.53 10.05-62.404 10.05-58.178L10.05-11.722C10.05-7.496 11.104-4.288 13.312-2.162C15.52 0.046 18.728 1.1 22.954 1.1L88.006 1.1C92.314 1.1 95.522 0.046 97.73-2.162C99.938-4.37 100.992-7.496 100.992-11.722L100.992-58.178C100.91-62.404 99.856-65.612 97.73-67.738Z"/>
   <path class="hierarchical-1:primary SFSymbolsPreview212121" d="M56.03-22.35C53.83-22.35 51.63-22.35 49.43-22.35C49.03-22.35 49.03-22.35 49.03-22.75C49.03-27.25 49.03-31.65 49.03-36.15C49.03-36.25 49.03-36.45 49.03-36.55C48.83-36.45 48.83-36.35 48.73-36.35C46.43-33.55 44.23-30.65 41.93-27.85C41.63-27.45 41.63-27.45 41.33-27.85C39.03-30.65 36.83-33.45 34.53-36.35C34.43-36.45 34.43-36.55 34.33-36.65C34.23-36.45 34.23-36.35 34.23-36.25C34.23-31.85 34.23-27.45 34.23-23.15C34.23-23.05 34.23-22.85 34.23-22.75C34.23-22.55 34.13-22.45 33.93-22.45C31.63-22.45 29.33-22.45 27.03-22.45C26.83-22.45 26.73-22.55 26.73-22.75C26.73-22.85 26.73-22.95 26.73-23.05C26.73-31.05 26.73-39.05 26.73-47.15C26.73-47.75 26.73-47.75 27.33-47.75C29.53-47.75 31.63-47.75 33.83-47.75C34.13-47.75 34.33-47.65 34.53-47.45C36.83-44.55 39.13-41.75 41.33-38.85C41.63-38.55 41.63-38.55 41.83-38.85C44.13-41.65 46.33-44.55 48.63-47.35C48.83-47.65 49.03-47.75 49.43-47.75C51.63-47.75 53.83-47.75 55.93-47.75C56.43-47.75 56.43-47.75 56.43-47.25C56.43-39.15 56.43-31.05 56.43-22.95C56.512-22.35 56.512-22.35 56.03-22.35ZM83.912-34.25C80.412-30.35 76.912-26.55 73.412-22.65C73.112-22.35 73.112-22.35 72.812-22.65C69.312-26.55 65.812-30.35 62.212-34.25C62.112-34.35 62.012-34.45 62.012-34.55C62.112-34.65 62.212-34.65 62.312-34.65C64.512-34.65 66.612-34.65 68.812-34.65C69.312-34.65 69.312-34.65 69.312-35.15C69.312-39.05 69.312-42.95 69.312-46.85C69.312-46.95 69.312-47.05 69.312-47.25C69.312-47.55 69.412-47.65 69.612-47.65C69.712-47.65 69.812-47.65 70.012-47.65C72.112-47.65 74.212-47.65 76.312-47.65C76.712-47.65 76.712-47.65 76.712-47.25C76.712-45.25 76.712-43.25 76.712-41.25C76.712-39.25 76.712-37.25 76.712-35.35C76.712-34.85 76.712-34.85 77.212-34.85C79.312-34.85 81.412-34.85 83.512-34.85C83.612-34.85 83.812-34.95 83.912-34.75C84.212-34.45 84.012-34.35 83.912-34.25Z"/>
  </g>
  <g id="Regular-S" transform="matrix(1 0 0 1 1394.54 696)">
   <path class="hierarchical-0:secondary SFSymbolsPreview4D4D4D" d="M97.55-67.45C95.45-69.55 92.35-70.55 88.15-70.55L22.45-70.55C18.35-70.55 15.25-69.55 13.15-67.45C11.05-65.35 10.05-62.35 10.05-58.25L10.05-11.65C10.05-7.55 11.05-4.45 13.15-2.45C15.25-0.35 18.35 0.65 22.45 0.65L88.15 0.65C92.35 0.65 95.45-0.35 97.55-2.45C99.65-4.55 100.65-7.55 100.65-11.65L100.65-58.25C100.55-62.35 99.55-65.45 97.55-67.45Z"/>
   <path class="hierarchical-1:primary SFSymbolsPreview212121" d="M55.85-22.35C53.65-22.35 51.45-22.35 49.25-22.35C48.85-22.35 48.85-22.35 48.85-22.75C48.85-27.25 48.85-31.65 48.85-36.15C48.85-36.25 48.85-36.45 48.85-36.55C48.65-36.45 48.65-36.35 48.55-36.35C46.25-33.55 44.05-30.65 41.75-27.85C41.45-27.45 41.45-27.45 41.15-27.85C38.85-30.65 36.65-33.45 34.35-36.35C34.25-36.45 34.25-36.55 34.15-36.65C34.05-36.45 34.05-36.35 34.05-36.25C34.05-31.85 34.05-27.45 34.05-23.15C34.05-23.05 34.05-22.85 34.05-22.75C34.05-22.55 33.95-22.45 33.75-22.45C31.45-22.45 29.15-22.45 26.85-22.45C26.65-22.45 26.55-22.55 26.55-22.75C26.55-22.85 26.55-22.95 26.55-23.05C26.55-31.05 26.55-39.05 26.55-47.15C26.55-47.75 26.55-47.75 27.15-47.75C29.35-47.75 31.45-47.75 33.65-47.75C33.95-47.75 34.15-47.65 34.35-47.45C36.65-44.55 38.95-41.75 41.15-38.85C41.45-38.55 41.45-38.55 41.65-38.85C43.95-41.65 46.15-44.55 48.45-47.35C48.65-47.65 48.85-47.75 49.25-47.75C51.45-47.75 53.65-47.75 55.75-47.75C56.25-47.75 56.25-47.75 56.25-47.25C56.25-39.15 56.25-31.05 56.25-22.95C56.35-22.35 56.35-22.35 55.85-22.35ZM83.75-34.25C80.25-30.35 76.75-26.55 73.25-22.65C72.95-22.35 72.95-22.35 72.65-22.65C69.15-26.55 65.65-30.35 62.05-34.25C61.95-34.35 61.85-34.45 61.85-34.55C61.95-34.65 62.05-34.65 62.15-34.65C64.35-34.65 66.45-34.65 68.65-34.65C69.15-34.65 69.15-34.65 69.15-35.15C69.15-39.05 69.15-42.95 69.15-46.85C69.15-46.95 69.15-47.05 69.15-47.25C69.15-47.55 69.25-47.65 69.45-47.65C69.55-47.65 69.65-47.65 69.85-47.65C71.95-47.65 74.05-47.65 76.15-47.65C76.55-47.65 76.55-47.65 76.55-47.25C76.55-45.25 76.55-43.25 76.55-41.25C76.55-39.25 76.55-37.25 76.55-35.35C76.55-34.85 76.55-34.85 77.05-34.85C79.15-34.85 81.25-34.85 83.35-34.85C83.45-34.85 83.65-34.95 83.75-34.75C84.05-34.45 83.85-34.35 83.75-34.25Z"/>
  </g>
  <g id="Light-S" transform="matrix(1 0 0 1 1098.18 696)">
   <path class="hierarchical-0:secondary SFSymbolsPreview4D4D4D" d="M97.0167-66.9833C95.05-68.95 92.15-69.9167 88.25-69.9167L21.6167-69.9167C17.7833-69.9167 14.8833-68.9833 12.9167-67.0167C10.95-65.05 10.0167-62.2167 10.0167-58.3833L10.0167-11.5833C10.0167-7.75 10.95-4.88333 12.9167-2.98333C14.8833-1.01667 17.7833-0.0833333 21.6167-0.0833333L88.25-0.0833333C92.15-0.0833333 95.05-1.05 97.0167-3.01667C98.9833-4.98333 99.9167-7.81667 99.9167-11.6167L99.9167-58.4167C99.85-62.1833 98.9167-65.05 97.0167-66.9833Z"/>
   <path class="hierarchical-1:primary SFSymbolsPreview212121" d="M55.5167-22.3833C53.3167-22.3833 51.1167-22.3833 48.9167-22.3833C48.5167-22.3833 48.5167-22.3833 48.5167-22.7833C48.5167-27.2833 48.5167-31.6833 48.5167-36.1833C48.5167-36.2833 48.5167-36.4833 48.5167-36.5833C48.3167-36.4833 48.3167-36.3833 48.2167-36.3833C45.9167-33.5833 43.7167-30.6833 41.4167-27.8833C41.1167-27.4833 41.1167-27.4833 40.8167-27.8833C38.5167-30.6833 36.3167-33.4833 34.0167-36.3833C33.9167-36.4833 33.9167-36.5833 33.8167-36.6833C33.7167-36.4833 33.7167-36.3833 33.7167-36.2833C33.7167-31.8833 33.7167-27.4833 33.7167-23.1833C33.7167-23.0833 33.7167-22.8833 33.7167-22.7833C33.7167-22.5833 33.6167-22.4833 33.4167-22.4833C31.1167-22.4833 28.8167-22.4833 26.5167-22.4833C26.3167-22.4833 26.2167-22.5833 26.2167-22.7833C26.2167-22.8833 26.2167-22.9833 26.2167-23.0833C26.2167-31.0833 26.2167-39.0833 26.2167-47.1833C26.2167-47.7833 26.2167-47.7833 26.8167-47.7833C29.0167-47.7833 31.1167-47.7833 33.3167-47.7833C33.6167-47.7833 33.8167-47.6833 34.0167-47.4833C36.3167-44.5833 38.6167-41.7833 40.8167-38.8833C41.1167-38.5833 41.1167-38.5833 41.3167-38.8833C43.6167-41.6833 45.8167-44.5833 48.1167-47.3833C48.3167-47.6833 48.5167-47.7833 48.9167-47.7833C51.1167-47.7833 53.3167-47.7833 55.4167-47.7833C55.9167-47.7833 55.9167-47.7833 55.9167-47.2833C55.9167-39.1833 55.9167-31.0833 55.9167-22.9833C55.9833-22.3833 55.9833-22.3833 55.5167-22.3833ZM83.4167-34.25C79.9167-30.35 76.4167-26.55 72.9167-22.65C72.6167-22.35 72.6167-22.35 72.3167-22.65C68.8167-26.55 65.3167-30.35 61.7167-34.25C61.6167-34.35 61.5167-34.45 61.5167-34.55C61.6167-34.65 61.7167-34.65 61.8167-34.65C64.0167-34.65 66.1167-34.65 68.3167-34.65C68.8167-34.65 68.8167-34.65 68.8167-35.15C68.8167-39.05 68.8167-42.95 68.8167-46.85C68.8167-46.95 68.8167-47.05 68.8167-47.25C68.8167-47.55 68.9167-47.65 69.1167-47.65C69.2167-47.65 69.3167-47.65 69.5167-47.65C71.6167-47.65 73.7167-47.65 75.8167-47.65C76.2167-47.65 76.2167-47.65 76.2167-47.25C76.2167-45.25 76.2167-43.25 76.2167-41.25C76.2167-39.25 76.2167-37.25 76.2167-35.35C76.2167-34.85 76.2167-34.85 76.7167-34.85C78.8167-34.85 80.9167-34.85 83.0167-34.85C83.1167-34.85 83.3167-34.95 83.4167-34.75C83.6833-34.45 83.4833-34.35 83.4167-34.25Z"/>
  </g>
  <g id="Thin-S" transform="matrix(1 0 0 1 801.935 696)">
   <path class="hierarchical-0:secondary SFSymbolsPreview4D4D4D" d="M96.3113-66.3661C94.521-68.1565 91.8855-69.079 88.3823-69.079L20.5145-69.079C17.0339-69.079 14.3984-68.2339 12.6081-66.4435C10.8177-64.6532 9.97258-62.0403 9.97258-58.5597L9.97258-11.4952C9.97258-8.01452 10.8177-5.45645 12.6081-3.68871C14.3984-1.89839 17.0339-1.05323 20.5145-1.05323L88.3823-1.05323C91.8855-1.05323 94.521-1.97581 96.3113-3.76613C98.1016-5.55645 98.9468-8.16935 98.9468-11.5726L98.9468-58.6371C98.9242-61.9629 98.079-64.521 96.3113-66.3661Z"/>
   <path class="hierarchical-1:primary SFSymbolsPreview212121" d="M55.0758-22.4274C52.8758-22.4274 50.6758-22.4274 48.4758-22.4274C48.0758-22.4274 48.0758-22.4274 48.0758-22.8274C48.0758-27.3274 48.0758-31.7274 48.0758-36.2274C48.0758-36.3274 48.0758-36.5274 48.0758-36.6274C47.8758-36.5274 47.8758-36.4274 47.7758-36.4274C45.4758-33.6274 43.2758-30.7274 40.9758-27.9274C40.6758-27.5274 40.6758-27.5274 40.3758-27.9274C38.0758-30.7274 35.8758-33.5274 33.5758-36.4274C33.4758-36.5274 33.4758-36.6274 33.3758-36.7274C33.2758-36.5274 33.2758-36.4274 33.2758-36.3274C33.2758-31.9274 33.2758-27.5274 33.2758-23.2274C33.2758-23.1274 33.2758-22.9274 33.2758-22.8274C33.2758-22.6274 33.1758-22.5274 32.9758-22.5274C30.6758-22.5274 28.3758-22.5274 26.0758-22.5274C25.8758-22.5274 25.7758-22.6274 25.7758-22.8274C25.7758-22.9274 25.7758-23.0274 25.7758-23.1274C25.7758-31.1274 25.7758-39.1274 25.7758-47.2274C25.7758-47.8274 25.7758-47.8274 26.3758-47.8274C28.5758-47.8274 30.6758-47.8274 32.8758-47.8274C33.1758-47.8274 33.3758-47.7274 33.5758-47.5274C35.8758-44.6274 38.1758-41.8274 40.3758-38.9274C40.6758-38.6274 40.6758-38.6274 40.8758-38.9274C43.1758-41.7274 45.3758-44.6274 47.6758-47.4274C47.8758-47.7274 48.0758-47.8274 48.4758-47.8274C50.6758-47.8274 52.8758-47.8274 54.9758-47.8274C55.4758-47.8274 55.4758-47.8274 55.4758-47.3274C55.4758-39.2274 55.4758-31.1274 55.4758-23.0274C55.4984-22.4274 55.4984-22.4274 55.0758-22.4274ZM82.9758-34.25C79.4758-30.35 75.9758-26.55 72.4758-22.65C72.1758-22.35 72.1758-22.35 71.8758-22.65C68.3758-26.55 64.8758-30.35 61.2758-34.25C61.1758-34.35 61.0758-34.45 61.0758-34.55C61.1758-34.65 61.2758-34.65 61.3758-34.65C63.5758-34.65 65.6758-34.65 67.8758-34.65C68.3758-34.65 68.3758-34.65 68.3758-35.15C68.3758-39.05 68.3758-42.95 68.3758-46.85C68.3758-46.95 68.3758-47.05 68.3758-47.25C68.3758-47.55 68.4758-47.65 68.6758-47.65C68.7758-47.65 68.8758-47.65 69.0758-47.65C71.1758-47.65 73.2758-47.65 75.3758-47.65C75.7758-47.65 75.7758-47.65 75.7758-47.25C75.7758-45.25 75.7758-43.25 75.7758-41.25C75.7758-39.25 75.7758-37.25 75.7758-35.35C75.7758-34.85 75.7758-34.85 76.2758-34.85C78.3758-34.85 80.4758-34.85 82.5758-34.85C82.6758-34.85 82.8758-34.95 82.9758-34.75C83.1984-34.45 82.9984-34.35 82.9758-34.25Z"/>
  </g>
  <g id="Ultralight-S" transform="matrix(1 0 0 1 505.461 696)">
   <path class="hierarchical-0:secondary SFSymbolsPreview4D4D4D" d="M95.95-66.05C94.25-67.75 91.75-68.65 88.45-68.65L19.95-68.65C16.65-68.65 14.15-67.85 12.45-66.15C10.75-64.45 9.95-61.95 9.95-58.65L9.95-11.45C9.95-8.15 10.75-5.75 12.45-4.05C14.15-2.35 16.65-1.55 19.95-1.55L88.45-1.55C91.75-1.55 94.25-2.45 95.95-4.15C97.65-5.85 98.45-8.35 98.45-11.55L98.45-58.75C98.45-61.85 97.65-64.25 95.95-66.05Z"/>
   <path class="hierarchical-1:primary SFSymbolsPreview212121" d="M54.85-22.45C52.65-22.45 50.45-22.45 48.25-22.45C47.85-22.45 47.85-22.45 47.85-22.85C47.85-27.35 47.85-31.75 47.85-36.25C47.85-36.35 47.85-36.55 47.85-36.65C47.65-36.55 47.65-36.45 47.55-36.45C45.25-33.65 43.05-30.75 40.75-27.95C40.45-27.55 40.45-27.55 40.15-27.95C37.85-30.75 35.65-33.55 33.35-36.45C33.25-36.55 33.25-36.65 33.15-36.75C33.05-36.55 33.05-36.45 33.05-36.35C33.05-31.95 33.05-27.55 33.05-23.25C33.05-23.15 33.05-22.95 33.05-22.85C33.05-22.65 32.95-22.55 32.75-22.55C30.45-22.55 28.15-22.55 25.85-22.55C25.65-22.55 25.55-22.65 25.55-22.85C25.55-22.95 25.55-23.05 25.55-23.15C25.55-31.15 25.55-39.15 25.55-47.25C25.55-47.85 25.55-47.85 26.15-47.85C28.35-47.85 30.45-47.85 32.65-47.85C32.95-47.85 33.15-47.75 33.35-47.55C35.65-44.65 37.95-41.85 40.15-38.95C40.45-38.65 40.45-38.65 40.65-38.95C42.95-41.75 45.15-44.65 47.45-47.45C47.65-47.75 47.85-47.85 48.25-47.85C50.45-47.85 52.65-47.85 54.75-47.85C55.25-47.85 55.25-47.85 55.25-47.35C55.25-39.25 55.25-31.15 55.25-23.05C55.25-22.45 55.25-22.45 54.85-22.45ZM82.75-34.25C79.25-30.35 75.75-26.55 72.25-22.65C71.95-22.35 71.95-22.35 71.65-22.65C68.15-26.55 64.65-30.35 61.05-34.25C60.95-34.35 60.85-34.45 60.85-34.55C60.95-34.65 61.05-34.65 61.15-34.65C63.35-34.65 65.45-34.65 67.65-34.65C68.15-34.65 68.15-34.65 68.15-35.15C68.15-39.05 68.15-42.95 68.15-46.85C68.15-46.95 68.15-47.05 68.15-47.25C68.15-47.55 68.25-47.65 68.45-47.65C68.55-47.65 68.65-47.65 68.85-47.65C70.95-47.65 73.05-47.65 75.15-47.65C75.55-47.65 75.55-47.65 75.55-47.25C75.55-45.25 75.55-43.25 75.55-41.25C75.55-39.25 75.55-37.25 75.55-35.35C75.55-34.85 75.55-34.85 76.05-34.85C78.15-34.85 80.25-34.85 82.35-34.85C82.45-34.85 82.65-34.95 82.75-34.75C82.95-34.45 82.75-34.35 82.75-34.25Z"/>
  </g>
 </g>
</svg>
