<?xml version="1.0" encoding="UTF-8"?>
<!--Generator: Apple Native CoreSVG 149-->
<!DOCTYPE svg
PUBLIC "-//W3C//DTD SVG 1.1//EN"
       "http://www.w3.org/Graphics/SVG/1.1/DTD/svg11.dtd">
<svg version="1.1" xmlns="http://www.w3.org/2000/svg" xmlns:xlink="http://www.w3.org/1999/xlink" width="3300" height="2200">
 <!--glyph: "", point size: 100.0, font version: "17.0d9e1", template writer version: "59"-->
 <style>.multicolor-0:systemCyanColor {fill:#55BEF0;opacity:1.0}
.multicolor-1:systemBlueColor {fill:#007AFF;opacity:1.0}

.hierarchical-0:secondary {fill:#4D4D4D}
.hierarchical-1:primary {fill:#212121}

.SFSymbolsPreview007AFF {fill:#007AFF;opacity:1.0}
.SFSymbolsPreview55BEF0 {fill:#55BEF0;opacity:1.0}
</style>
 <g id="Notes">
  <rect height="2200" id="artboard" style="fill:white;opacity:1" width="3300" x="0" y="0"/>
  <line style="fill:none;stroke:black;opacity:1;stroke-width:0.5;" x1="263" x2="3036" y1="292" y2="292"/>
  <text style="stroke:none;fill:black;font-family:sans-serif;font-size:13;font-weight:bold;" transform="matrix(1 0 0 1 263 322)">Weight/Scale Variations</text>
  <text style="stroke:none;fill:black;font-family:sans-serif;font-size:13;text-anchor:middle;" transform="matrix(1 0 0 1 559.711 322)">Ultralight</text>
  <text style="stroke:none;fill:black;font-family:sans-serif;font-size:13;text-anchor:middle;" transform="matrix(1 0 0 1 856.422 322)">Thin</text>
  <text style="stroke:none;fill:black;font-family:sans-serif;font-size:13;text-anchor:middle;" transform="matrix(1 0 0 1 1153.13 322)">Light</text>
  <text style="stroke:none;fill:black;font-family:sans-serif;font-size:13;text-anchor:middle;" transform="matrix(1 0 0 1 1449.84 322)">Regular</text>
  <text style="stroke:none;fill:black;font-family:sans-serif;font-size:13;text-anchor:middle;" transform="matrix(1 0 0 1 1746.56 322)">Medium</text>
  <text style="stroke:none;fill:black;font-family:sans-serif;font-size:13;text-anchor:middle;" transform="matrix(1 0 0 1 2043.27 322)">Semibold</text>
  <text style="stroke:none;fill:black;font-family:sans-serif;font-size:13;text-anchor:middle;" transform="matrix(1 0 0 1 2339.98 322)">Bold</text>
  <text style="stroke:none;fill:black;font-family:sans-serif;font-size:13;text-anchor:middle;" transform="matrix(1 0 0 1 2636.69 322)">Heavy</text>
  <text style="stroke:none;fill:black;font-family:sans-serif;font-size:13;text-anchor:middle;" transform="matrix(1 0 0 1 2933.4 322)">Black</text>
  <line style="fill:none;stroke:black;opacity:1;stroke-width:0.5;" x1="263" x2="3036" y1="1903" y2="1903"/>
  <g transform="matrix(1 0 0 1 263 1933)">
   <path d="M9.24805 0.830078Q10.8691 0.830078 12.2949 0.214844Q13.7207-0.400391 14.8096-1.49414Q15.8984-2.58789 16.5186-4.01367Q17.1387-5.43945 17.1387-7.05078Q17.1387-8.66211 16.5186-10.0879Q15.8984-11.5137 14.8047-12.6074Q13.7109-13.7012 12.2852-14.3164Q10.8594-14.9316 9.23828-14.9316Q7.62695-14.9316 6.20117-14.3164Q4.77539-13.7012 3.69141-12.6074Q2.60742-11.5137 1.9873-10.0879Q1.36719-8.66211 1.36719-7.05078Q1.36719-5.43945 1.9873-4.01367Q2.60742-2.58789 3.69629-1.49414Q4.78516-0.400391 6.21094 0.214844Q7.63672 0.830078 9.24805 0.830078ZM9.24805-0.654297Q7.91992-0.654297 6.7627-1.14746Q5.60547-1.64062 4.73145-2.51953Q3.85742-3.39844 3.36426-4.56055Q2.87109-5.72266 2.87109-7.05078Q2.87109-8.37891 3.35938-9.54102Q3.84766-10.7031 4.72168-11.582Q5.5957-12.4609 6.75293-12.9541Q7.91016-13.4473 9.23828-13.4473Q10.5762-13.4473 11.7334-12.9541Q12.8906-12.4609 13.7695-11.582Q14.6484-10.7031 15.1465-9.54102Q15.6445-8.37891 15.6445-7.05078Q15.6445-5.72266 15.1514-4.56055Q14.6582-3.39844 13.7842-2.51953Q12.9102-1.64062 11.748-1.14746Q10.5859-0.654297 9.24805-0.654297ZM5.83984-7.04102Q5.83984-6.71875 6.04492-6.51855Q6.25-6.31836 6.5918-6.31836L8.50586-6.31836L8.50586-4.39453Q8.50586-4.0625 8.70605-3.85742Q8.90625-3.65234 9.22852-3.65234Q9.56055-3.65234 9.76562-3.85742Q9.9707-4.0625 9.9707-4.39453L9.9707-6.31836L11.8945-6.31836Q12.2266-6.31836 12.4316-6.51855Q12.6367-6.71875 12.6367-7.04102Q12.6367-7.37305 12.4316-7.57812Q12.2266-7.7832 11.8945-7.7832L9.9707-7.7832L9.9707-9.69727Q9.9707-10.0391 9.76562-10.2441Q9.56055-10.4492 9.22852-10.4492Q8.90625-10.4492 8.70605-10.2441Q8.50586-10.0391 8.50586-9.69727L8.50586-7.7832L6.5918-7.7832Q6.25-7.7832 6.04492-7.57812Q5.83984-7.37305 5.83984-7.04102Z"/>
  </g>
  <g transform="matrix(1 0 0 1 281.867 1933)">
   <path d="M11.709 2.91016Q13.75 2.91016 15.5518 2.12891Q17.3535 1.34766 18.7305-0.0292969Q20.1074-1.40625 20.8887-3.20801Q21.6699-5.00977 21.6699-7.05078Q21.6699-9.0918 20.8887-10.8936Q20.1074-12.6953 18.7305-14.0723Q17.3535-15.4492 15.5469-16.2305Q13.7402-17.0117 11.6992-17.0117Q9.6582-17.0117 7.85645-16.2305Q6.05469-15.4492 4.68262-14.0723Q3.31055-12.6953 2.5293-10.8936Q1.74805-9.0918 1.74805-7.05078Q1.74805-5.00977 2.5293-3.20801Q3.31055-1.40625 4.6875-0.0292969Q6.06445 1.34766 7.86621 2.12891Q9.66797 2.91016 11.709 2.91016ZM11.709 1.25Q9.98047 1.25 8.47656 0.605469Q6.97266-0.0390625 5.83496-1.17676Q4.69727-2.31445 4.05762-3.81836Q3.41797-5.32227 3.41797-7.05078Q3.41797-8.7793 4.05762-10.2832Q4.69727-11.7871 5.83008-12.9297Q6.96289-14.0723 8.4668-14.7119Q9.9707-15.3516 11.6992-15.3516Q13.4277-15.3516 14.9316-14.7119Q16.4355-14.0723 17.5781-12.9297Q18.7207-11.7871 19.3652-10.2832Q20.0098-8.7793 20.0098-7.05078Q20.0098-5.32227 19.3701-3.81836Q18.7305-2.31445 17.5928-1.17676Q16.4551-0.0390625 14.9463 0.605469Q13.4375 1.25 11.709 1.25ZM7.39258-7.04102Q7.39258-6.68945 7.62695-6.46484Q7.86133-6.24023 8.23242-6.24023L10.8789-6.24023L10.8789-3.57422Q10.8789-3.21289 11.1035-2.9834Q11.3281-2.75391 11.6797-2.75391Q12.0508-2.75391 12.2852-2.9834Q12.5195-3.21289 12.5195-3.57422L12.5195-6.24023L15.1758-6.24023Q15.5371-6.24023 15.7715-6.46484Q16.0059-6.68945 16.0059-7.04102Q16.0059-7.41211 15.7715-7.6416Q15.5371-7.87109 15.1758-7.87109L12.5195-7.87109L12.5195-10.5176Q12.5195-10.8984 12.2852-11.1279Q12.0508-11.3574 11.6797-11.3574Q11.3281-11.3574 11.1035-11.1279Q10.8789-10.8984 10.8789-10.5176L10.8789-7.87109L8.23242-7.87109Q7.85156-7.87109 7.62207-7.6416Q7.39258-7.41211 7.39258-7.04102Z"/>
  </g>
  <g transform="matrix(1 0 0 1 305.646 1933)">
   <path d="M14.9707 5.66406Q17.0605 5.66406 18.96 5.01465Q20.8594 4.36523 22.4512 3.19336Q24.043 2.02148 25.2197 0.429688Q26.3965-1.16211 27.0459-3.06641Q27.6953-4.9707 27.6953-7.05078Q27.6953-9.14062 27.0459-11.04Q26.3965-12.9395 25.2197-14.5312Q24.043-16.123 22.4512-17.2998Q20.8594-18.4766 18.9551-19.126Q17.0508-19.7754 14.9609-19.7754Q12.8711-19.7754 10.9717-19.126Q9.07227-18.4766 7.48535-17.2998Q5.89844-16.123 4.72168-14.5312Q3.54492-12.9395 2.90039-11.04Q2.25586-9.14062 2.25586-7.05078Q2.25586-4.9707 2.90527-3.06641Q3.55469-1.16211 4.72656 0.429688Q5.89844 2.02148 7.49023 3.19336Q9.08203 4.36523 10.9814 5.01465Q12.8809 5.66406 14.9707 5.66406ZM14.9707 3.84766Q13.1641 3.84766 11.5283 3.2959Q9.89258 2.74414 8.53516 1.74805Q7.17773 0.751953 6.17676-0.610352Q5.17578-1.97266 4.62891-3.6084Q4.08203-5.24414 4.08203-7.05078Q4.08203-8.86719 4.62891-10.5029Q5.17578-12.1387 6.17188-13.501Q7.16797-14.8633 8.52539-15.8594Q9.88281-16.8555 11.5186-17.4023Q13.1543-17.9492 14.9609-17.9492Q16.7773-17.9492 18.4131-17.4023Q20.0488-16.8555 21.4111-15.8594Q22.7734-14.8633 23.7695-13.501Q24.7656-12.1387 25.3174-10.5029Q25.8691-8.86719 25.8691-7.05078Q25.8789-5.24414 25.332-3.6084Q24.7852-1.97266 23.7842-0.610352Q22.7832 0.751953 21.4209 1.74805Q20.0586 2.74414 18.4229 3.2959Q16.7871 3.84766 14.9707 3.84766ZM9.45312-7.04102Q9.45312-6.66016 9.71191-6.41113Q9.9707-6.16211 10.3711-6.16211L14.0625-6.16211L14.0625-2.46094Q14.0625-2.06055 14.3115-1.80664Q14.5605-1.55273 14.9414-1.55273Q15.3516-1.55273 15.6055-1.80664Q15.8594-2.06055 15.8594-2.46094L15.8594-6.16211L19.5605-6.16211Q19.9609-6.16211 20.2148-6.41113Q20.4688-6.66016 20.4688-7.04102Q20.4688-7.45117 20.2148-7.70508Q19.9609-7.95898 19.5605-7.95898L15.8594-7.95898L15.8594-11.6504Q15.8594-12.0605 15.6055-12.3145Q15.3516-12.5684 14.9414-12.5684Q14.5605-12.5684 14.3115-12.3096Q14.0625-12.0508 14.0625-11.6504L14.0625-7.95898L10.3711-7.95898Q9.96094-7.95898 9.70703-7.70508Q9.45312-7.45117 9.45312-7.04102Z"/>
  </g>
  <text style="stroke:none;fill:black;font-family:sans-serif;font-size:13;font-weight:bold;" transform="matrix(1 0 0 1 263 1953)">Design Variations</text>
  <text style="stroke:none;fill:black;font-family:sans-serif;font-size:13;" transform="matrix(1 0 0 1 263 1971)">Symbols are supported in up to nine weights and three scales.</text>
  <text style="stroke:none;fill:black;font-family:sans-serif;font-size:13;" transform="matrix(1 0 0 1 263 1989)">For optimal layout with text and other symbols, vertically align</text>
  <text style="stroke:none;fill:black;font-family:sans-serif;font-size:13;" transform="matrix(1 0 0 1 263 2007)">symbols with the adjacent text.</text>
  <line style="fill:none;stroke:#00AEEF;stroke-width:0.5;opacity:1.0;" x1="776" x2="776" y1="1919" y2="1933"/>
  <g transform="matrix(1 0 0 1 776 1933)">
   <path d="M3.31055 0.15625Q3.70117 0.15625 3.91602-0.00976562Q4.13086-0.175781 4.26758-0.585938L5.52734-4.0332L11.2891-4.0332L12.5488-0.585938Q12.6855-0.175781 12.9004-0.00976562Q13.1152 0.15625 13.4961 0.15625Q13.8867 0.15625 14.1162-0.0585938Q14.3457-0.273438 14.3457-0.644531Q14.3457-0.869141 14.2383-1.17188L9.6582-13.3691Q9.48242-13.8184 9.17969-14.043Q8.87695-14.2676 8.4082-14.2676Q7.5-14.2676 7.17773-13.3789L2.59766-1.16211Q2.49023-0.859375 2.49023-0.634766Q2.49023-0.263672 2.70996-0.0537109Q2.92969 0.15625 3.31055 0.15625ZM6.00586-5.51758L8.37891-12.0898L8.42773-12.0898L10.8008-5.51758Z"/>
  </g>
  <line style="fill:none;stroke:#00AEEF;stroke-width:0.5;opacity:1.0;" x1="793.197" x2="793.197" y1="1919" y2="1933"/>
  <text style="stroke:none;fill:black;font-family:sans-serif;font-size:13;font-weight:bold;" transform="matrix(1 0 0 1 776 1953)">Margins</text>
  <text style="stroke:none;fill:black;font-family:sans-serif;font-size:13;" transform="matrix(1 0 0 1 776 1971)">Leading and trailing margins on the left and right side of each symbol</text>
  <text style="stroke:none;fill:black;font-family:sans-serif;font-size:13;" transform="matrix(1 0 0 1 776 1989)">can be adjusted by modifying the x-location of the margin guidelines.</text>
  <text style="stroke:none;fill:black;font-family:sans-serif;font-size:13;" transform="matrix(1 0 0 1 776 2007)">Modifications are automatically applied proportionally to all</text>
  <text style="stroke:none;fill:black;font-family:sans-serif;font-size:13;" transform="matrix(1 0 0 1 776 2025)">scales and weights.</text>
  <g transform="matrix(1 0 0 1 1289 1933)">
   <path d="M2.8418 1.86523L4.54102 3.57422Q5.18555 4.22852 5.90332 4.17969Q6.62109 4.13086 7.31445 3.35938L18.0078-8.42773L17.041-9.4043L6.42578 2.27539Q6.16211 2.57812 5.89355 2.61719Q5.625 2.65625 5.27344 2.30469L4.10156 1.14258Q3.75 0.791016 3.79395 0.522461Q3.83789 0.253906 4.14062-0.0195312L15.6152-10.8203L14.6387-11.7871L3.04688-0.898438Q2.30469-0.214844 2.25098 0.498047Q2.19727 1.21094 2.8418 1.86523ZM9.25781-16.3281Q8.94531-16.0254 8.90625-15.6348Q8.86719-15.2441 9.04297-14.9512Q9.21875-14.6777 9.55566-14.541Q9.89258-14.4043 10.3809-14.5215Q11.4746-14.7754 12.5977-14.7314Q13.7207-14.6875 14.7949-13.9844L14.209-12.5293Q13.9551-11.9043 14.0674-11.4404Q14.1797-10.9766 14.5801-10.5664L16.875-8.25195Q17.2363-7.88086 17.5781-7.82227Q17.9199-7.76367 18.3398-7.8418L19.4043-8.03711L20.0684-7.36328L20.0293-6.80664Q20-6.43555 20.1221-6.12305Q20.2441-5.81055 20.6055-5.44922L21.3672-4.70703Q21.7285-4.3457 22.1533-4.33105Q22.5781-4.31641 22.9297-4.66797L25.8398-7.58789Q26.1914-7.93945 26.1816-8.35449Q26.1719-8.76953 25.8105-9.13086L25.0391-9.89258Q24.6875-10.2539 24.3799-10.3857Q24.0723-10.5176 23.7109-10.4883L23.1348-10.4395L22.4902-11.0742L22.7344-12.1973Q22.832-12.6172 22.6953-12.9834Q22.5586-13.3496 22.1191-13.7891L19.9219-15.9766Q18.6719-17.2168 17.2607-17.8369Q15.8496-18.457 14.4189-18.4814Q12.9883-18.5059 11.665-17.959Q10.3418-17.4121 9.25781-16.3281ZM10.752-15.957Q11.6602-16.6211 12.7002-16.9043Q13.7402-17.1875 14.8047-17.085Q15.8691-16.9824 16.8701-16.5137Q17.8711-16.0449 18.7012-15.2051L21.1328-12.793Q21.3086-12.6172 21.3525-12.4512Q21.3965-12.2852 21.3379-12.0312L21.0156-10.5469L22.5195-9.0625L23.5059-9.12109Q23.6914-9.13086 23.7891-9.09668Q23.8867-9.0625 24.0332-8.91602L24.6094-8.33984L22.168-5.89844L21.5918-6.47461Q21.4453-6.62109 21.4062-6.71875Q21.3672-6.81641 21.377-7.01172L21.4453-7.98828L19.9512-9.47266L18.4277-9.21875Q18.1836-9.16992 18.042-9.2041Q17.9004-9.23828 17.7148-9.41406L15.7129-11.416Q15.5176-11.5918 15.4932-11.7529Q15.4688-11.9141 15.5859-12.1875L16.4648-14.2773Q15.293-15.3711 13.8281-15.791Q12.3633-16.2109 10.8398-15.7617Q10.7227-15.7324 10.6885-15.8057Q10.6543-15.8789 10.752-15.957Z"/>
  </g>
  <text style="stroke:none;fill:black;font-family:sans-serif;font-size:13;font-weight:bold;" transform="matrix(1 0 0 1 1289 1953)">Exporting</text>
  <text style="stroke:none;fill:black;font-family:sans-serif;font-size:13;" transform="matrix(1 0 0 1 1289 1971)">Symbols should be outlined when exporting to ensure the</text>
  <text style="stroke:none;fill:black;font-family:sans-serif;font-size:13;" transform="matrix(1 0 0 1 1289 1989)">design is preserved when submitting to Xcode.</text>
  <text id="template-version" style="stroke:none;fill:black;font-family:sans-serif;font-size:13;text-anchor:end;" transform="matrix(1 0 0 1 3036 1933)">Template v.3.0</text>
  <text style="stroke:none;fill:black;font-family:sans-serif;font-size:13;text-anchor:end;" transform="matrix(1 0 0 1 3036 1951)">Requires Xcode 13 or greater</text>
  <text id="descriptive-name" style="stroke:none;fill:black;font-family:sans-serif;font-size:13;text-anchor:end;" transform="matrix(1 0 0 1 3036 1969)">Generated from logo.paypal</text>
  <text style="stroke:none;fill:black;font-family:sans-serif;font-size:13;text-anchor:end;" transform="matrix(1 0 0 1 3036 1987)">Typeset at 100 points</text>
  <text style="stroke:none;fill:black;font-family:sans-serif;font-size:13;" transform="matrix(1 0 0 1 263 726)">Small</text>
  <text style="stroke:none;fill:black;font-family:sans-serif;font-size:13;" transform="matrix(1 0 0 1 263 1156)">Medium</text>
  <text style="stroke:none;fill:black;font-family:sans-serif;font-size:13;" transform="matrix(1 0 0 1 263 1586)">Large</text>
 </g>
 <g id="Guides">
  <g id="H-reference" style="fill:#27AAE1;stroke:none;" transform="matrix(1 0 0 1 339 696)">
   <path d="M0.976562 0L3.66211 0L29.3457-67.1387L30.0293-67.1387L30.0293-70.459L28.125-70.459ZM11.6699-24.4629L46.9727-24.4629L46.2402-26.709L12.4512-26.709ZM55.127 0L57.7637 0L30.6152-70.459L29.4434-70.459L29.4434-67.1387Z"/>
  </g>
  <line id="Baseline-S" style="fill:none;stroke:#27AAE1;opacity:1;stroke-width:0.5;" x1="263" x2="3036" y1="696" y2="696"/>
  <line id="Capline-S" style="fill:none;stroke:#27AAE1;opacity:1;stroke-width:0.5;" x1="263" x2="3036" y1="625.541" y2="625.541"/>
  <g id="H-reference" style="fill:#27AAE1;stroke:none;" transform="matrix(1 0 0 1 339 1126)">
   <path d="M0.976562 0L3.66211 0L29.3457-67.1387L30.0293-67.1387L30.0293-70.459L28.125-70.459ZM11.6699-24.4629L46.9727-24.4629L46.2402-26.709L12.4512-26.709ZM55.127 0L57.7637 0L30.6152-70.459L29.4434-70.459L29.4434-67.1387Z"/>
  </g>
  <line id="Baseline-M" style="fill:none;stroke:#27AAE1;opacity:1;stroke-width:0.5;" x1="263" x2="3036" y1="1126" y2="1126"/>
  <line id="Capline-M" style="fill:none;stroke:#27AAE1;opacity:1;stroke-width:0.5;" x1="263" x2="3036" y1="1055.54" y2="1055.54"/>
  <g id="H-reference" style="fill:#27AAE1;stroke:none;" transform="matrix(1 0 0 1 339 1556)">
   <path d="M0.976562 0L3.66211 0L29.3457-67.1387L30.0293-67.1387L30.0293-70.459L28.125-70.459ZM11.6699-24.4629L46.9727-24.4629L46.2402-26.709L12.4512-26.709ZM55.127 0L57.7637 0L30.6152-70.459L29.4434-70.459L29.4434-67.1387Z"/>
  </g>
  <line id="Baseline-L" style="fill:none;stroke:#27AAE1;opacity:1;stroke-width:0.5;" x1="263" x2="3036" y1="1556" y2="1556"/>
  <line id="Capline-L" style="fill:none;stroke:#27AAE1;opacity:1;stroke-width:0.5;" x1="263" x2="3036" y1="1485.54" y2="1485.54"/>
  <line id="left-margin-Regular-M" style="fill:none;stroke:#00AEEF;stroke-width:0.5;opacity:1.0;" x1="1396.39" x2="1396.39" y1="1030.73" y2="1150.14"/>
  <line id="right-margin-Regular-M" style="fill:none;stroke:#00AEEF;stroke-width:0.5;opacity:1.0;" x1="1503.29" x2="1503.29" y1="1030.73" y2="1150.14"/>
 </g>
 <g id="Symbols">
  <g id="Black-L" transform="matrix(1 0 0 1 2860.85 1556)">
   <path class="multicolor-0:systemCyanColor hierarchical-0:secondary SFSymbolsPreview55BEF0" d="M115.534-61.7412L115.534-61.7412L115.534-61.7412C115.37-61.0824 115.37-60.304 115.205-59.6027C110.314-34.5912 93.679-26.0053 72.3627-26.0053L61.5187-26.0053C58.9312-26.0053 56.6732-24.0766 56.3438-21.4891L56.3438-21.4891L56.3438-21.4891L50.7198 13.7103L49.1179 23.7308C48.7911 25.3752 50.1061 26.9745 51.87 26.9745L71.0929 26.9745C73.3509 26.9745 75.2823 25.3301 75.6117 23.072L75.7764 22.0891L79.4717-0.991113L79.6364-2.26363C79.9658-4.52171 81.8944-6.16608 84.1552-6.16608L87.072-6.16608C105.679-6.16608 120.22-13.7638 124.529-35.5741C126.296-44.7738 125.353-52.3715 120.669-57.7138C119.275-59.3158 117.466-60.6334 115.534-61.7412Z"/>
   <path class="multicolor-1:systemBlueColor hierarchical-1:primary SFSymbolsPreview007AFF" d="M111.018-66.2573C110.853-65.5985 110.853-64.8201 110.689-64.1189C105.841-39.1074 89.2079-30.5214 67.8917-30.5214L57.0476-30.5214C54.4602-30.5214 52.2021-28.5927 51.8727-26.0053L52.0347-27.1555L46.2461 9.19412L23.4475 9.19412C21.5162 9.19412 20.0366 7.43013 20.366 5.49882L35.7288-91.9276C36.0582-94.5151 38.3163-96.4438 40.9038-96.4438L77.8671-96.4438C90.5974-96.4438 100.498-93.6916 106.003-87.5285C111.018-81.7398 112.455-75.457 111.018-66.2573Z"/>
  </g>
  <g id="Heavy-L" transform="matrix(1 0 0 1 2565.04 1556)">
   <path class="multicolor-0:systemCyanColor hierarchical-0:secondary SFSymbolsPreview55BEF0" d="M113.987-61.3431L113.987-61.3431L113.987-61.3431C113.823-60.6843 113.823-59.9341 113.658-59.2144C108.815-34.5912 92.4258-26.1191 71.4317-26.1191L60.7395-26.1191C58.19-26.1191 55.9699-24.2284 55.6405-21.6789L55.6405-21.6789L55.6405-21.6789L50.1206 12.9901L48.5469 22.8588C48.2299 24.4934 49.5351 26.0547 51.2612 26.0547L70.1998 26.0547C72.4199 26.0547 74.323 24.4201 74.6524 22.2L74.8171 21.2365L78.4462-1.48359L78.6109-2.72787C78.9403-4.948 80.8311-6.58264 83.0635-6.58264L85.9425-6.58264C104.283-6.58264 118.617-14.0665 122.832-35.5547C124.57-44.6122 123.655-52.0961 119.038-57.3722C117.69-58.9459 115.89-60.2635 113.987-61.3431Z"/>
   <path class="multicolor-1:systemBlueColor hierarchical-1:primary SFSymbolsPreview007AFF" d="M109.547-65.7834C109.382-65.1246 109.382-64.3744 109.218-63.6546C104.436-39.0315 88.0588-30.5594 67.0648-30.5594L56.3726-30.5594C53.8231-30.5594 51.6029-28.6686 51.2735-26.1191L51.4259-27.2597L45.7413 8.54982L23.265 8.54982C21.3619 8.54982 19.8919 6.82379 20.2213 4.92071L35.3662-91.0653C35.6956-93.6149 37.9157-95.5056 40.4652-95.5056L76.8602-95.5056C89.3822-95.5056 99.1595-92.7914 104.588-86.7041C109.547-81.0196 110.956-74.8409 109.547-65.7834Z"/>
  </g>
  <g id="Bold-L" transform="matrix(1 0 0 1 2269.46 1556)">
   <path class="multicolor-0:systemCyanColor hierarchical-0:secondary SFSymbolsPreview55BEF0" d="M112.053-60.8448L112.053-60.8448L112.053-60.8448C111.888-60.186 111.888-59.4674 111.724-58.7328C106.946-34.5912 90.8615-26.2642 70.2691-26.2642L59.7703-26.2642C57.2691-26.2642 55.0974-24.4218 54.768-21.9206L54.768-21.9206L54.768-21.9206L49.3764 12.0901L47.8343 21.7654C47.534 23.3833 48.8225 24.8962 50.5002 24.8962L69.0855 24.8962C71.2573 24.8962 73.1288 23.2784 73.4582 21.1066L73.6229 20.1767L77.1721-2.09343L77.3368-3.30614C77.6662-5.47792 79.5086-7.09578 81.7095-7.09578L84.5401-7.09578C102.542-7.09578 116.619-14.4346 120.723-35.5211C122.429-44.4021 121.546-51.7409 117.009-56.9371C115.707-58.4792 113.924-59.7968 112.053-60.8448Z"/>
   <path class="multicolor-1:systemBlueColor hierarchical-1:primary SFSymbolsPreview007AFF" d="M107.709-65.1883C107.545-64.5295 107.545-63.8109 107.38-63.0764C102.678-38.9347 86.6229-30.6077 66.0305-30.6077L55.5317-30.6077C53.0305-30.6077 50.8587-28.7654 50.5293-26.2642L50.6649-27.3879L45.1086 7.74656L23.0339 7.74656C21.1624 7.74656 19.7092 6.06889 20.0386 4.19738L34.9101-89.9887C35.2395-92.4899 37.4113-94.3323 39.9124-94.3323L75.6009-94.3323C87.8663-94.3323 97.4817-91.6664 102.813-85.6759C107.709-80.1196 109.087-74.0693 107.709-65.1883Z"/>
  </g>
  <g id="Semibold-L" transform="matrix(1 0 0 1 1973.53 1556)">
   <path class="multicolor-0:systemCyanColor hierarchical-0:secondary SFSymbolsPreview55BEF0" d="M110.719-60.5012L110.719-60.5012L110.719-60.5012C110.555-59.8424 110.555-59.1456 110.39-58.4008C105.657-34.5912 89.7832-26.3642 69.4676-26.3642L59.1021-26.3642C56.6343-26.3642 54.4959-24.5551 54.1665-22.0873L54.1665-22.0873L54.1665-22.0873L48.8634 11.4697L47.343 21.0116C47.0543 22.6179 48.3312 24.0976 49.9756 24.0976L68.3174 24.0976C70.4558 24.0976 72.3055 22.4913 72.6349 20.3528L72.7996 19.446L76.2937-2.51386L76.4584-3.7048C76.7878-5.84324 78.5969-7.44954 80.776-7.44954L83.5732-7.44954C101.342-7.44954 115.242-14.6884 119.269-35.498C120.954-44.2572 120.092-51.496 115.61-56.6371C114.34-58.1574 112.569-59.475 110.719-60.5012Z"/>
   <path class="multicolor-1:systemBlueColor hierarchical-1:primary SFSymbolsPreview007AFF" d="M106.443-64.7781C106.278-64.1193 106.278-63.4225 106.113-62.6777C101.466-38.8681 85.6329-30.6411 65.3174-30.6411L54.9519-30.6411C52.4841-30.6411 50.3457-28.832 50.0163-26.3642L50.1403-27.4764L44.6724 7.1928L22.8746 7.1928C21.0249 7.1928 19.5833 5.54846 19.9127 3.69872L34.5957-89.2465C34.9251-91.7144 37.0635-93.5234 39.5314-93.5234L74.7327-93.5234C86.8212-93.5234 96.3251-90.8909 101.59-84.967C106.443-79.4992 107.798-73.5373 106.443-64.7781Z"/>
  </g>
  <g id="Medium-L" transform="matrix(1 0 0 1 1677.41 1556)">
   <path class="multicolor-0:systemCyanColor hierarchical-0:secondary SFSymbolsPreview55BEF0" d="M109.708-60.2407L109.708-60.2407L109.708-60.2407C109.544-59.5819 109.544-58.9016 109.379-58.1491C104.68-34.5912 88.9655-26.44 68.8599-26.44L58.5955-26.44C56.153-26.44 54.0398-24.6562 53.7104-22.2137L53.7104-22.2137L53.7104-22.2137L48.4743 10.9992L46.9705 20.4401C46.6906 22.0376 47.9587 23.492 49.5778 23.492L67.7349 23.492C69.8481 23.492 71.6813 21.8945 72.0107 19.7813L72.1754 18.892L75.6277-2.83264L75.7924-4.00707C76.1218-6.12024 77.9056-7.71777 80.0682-7.71777L82.8402-7.71777C100.432-7.71777 114.198-14.8808 118.166-35.4805C119.835-44.1473 118.99-51.3103 114.549-56.4096C113.304-57.9134 111.542-59.231 109.708-60.2407Z"/>
   <path class="multicolor-1:systemBlueColor hierarchical-1:primary SFSymbolsPreview007AFF" d="M105.482-64.4671C105.317-63.8083 105.317-63.1279 105.153-62.3754C100.547-38.8175 84.8823-30.6663 64.7767-30.6663L54.5124-30.6663C52.0698-30.6663 49.9566-28.8826 49.6272-26.44L49.7425-27.5434L44.3417 6.77291L22.7538 6.77291C20.9206 6.77291 19.4877 5.15385 19.8171 3.32062L34.3573-88.6838C34.6867-91.1263 36.7998-92.9101 39.2424-92.9101L74.0744-92.9101C86.0288-92.9101 95.4481-90.3028 100.663-84.4295C105.482-79.0287 106.821-73.1339 105.482-64.4671Z"/>
  </g>
  <g id="Regular-L" transform="matrix(1 0 0 1 1381.47 1556)">
   <path class="multicolor-0:systemCyanColor hierarchical-0:secondary SFSymbolsPreview55BEF0" d="M108.39-59.901L108.39-59.901L108.39-59.901C108.225-59.2422 108.225-58.5834 108.06-57.8208C103.406-34.5912 87.8989-26.5389 68.0672-26.5389L57.9347-26.5389C55.5251-26.5389 53.4449-24.7881 53.1155-22.3785L53.1155-22.3785L53.1155-22.3785L47.9669 10.3856L46.4846 19.6946C46.2161 21.2807 47.4728 22.7021 49.0589 22.7021L66.9752 22.7021C69.0554 22.7021 70.8671 21.116 71.1965 19.0358L71.3612 18.1694L74.759-3.24845L74.9237-4.40135C75.2531-6.48154 77.0039-8.06764 79.145-8.06764L81.884-8.06764C99.2452-8.06764 112.836-15.1317 116.728-35.4576C118.375-44.004 117.552-51.0681 113.166-56.1129C111.952-57.5952 110.201-58.9128 108.39-59.901Z"/>
   <path class="multicolor-1:systemBlueColor hierarchical-1:primary SFSymbolsPreview007AFF" d="M104.229-64.0613C104.064-63.4025 104.064-62.7437 103.9-61.9812C99.349-38.7516 83.9033-30.6993 64.0715-30.6993L53.939-30.6993C51.5294-30.6993 49.4492-28.9485 49.1198-26.5389L49.2236-27.6309L43.9103 6.22524L22.5963 6.22524C20.7846 6.22524 19.3632 4.63914 19.6926 2.82744L34.0463-87.9497C34.3757-90.3593 36.4559-92.1101 38.8655-92.1101L73.2158-92.1101C84.9952-92.1101 94.3042-89.5358 99.4528-83.7284C104.229-78.4151 105.547-72.6077 104.229-64.0613Z"/>
  </g>
  <g id="Light-L" transform="matrix(1 0 0 1 1085.6 1556)">
   <path class="multicolor-0:systemCyanColor hierarchical-0:secondary SFSymbolsPreview55BEF0" d="M106.937-59.5227L106.937-59.5227L106.937-59.5227C106.773-58.8639 106.773-58.2051 106.608-57.4845C102.037-34.5912 86.7409-26.665 67.2034-26.665L57.239-26.665C54.8714-26.665 52.8333-24.9562 52.5039-22.5887L52.5039-22.5887L52.5039-22.5887L47.4393 9.71316L45.957 18.854C45.7306 20.3981 46.9452 21.7775 48.4893 21.7775L66.1534 21.7775C68.1916 21.7775 70.0033 20.2334 70.3327 18.1952L70.4974 17.4129L73.8531-3.66874L74.0178-4.82164C74.3472-6.8598 76.056-8.40387 78.1971-8.40387L80.8941-8.40387C97.9611-8.40387 111.384-15.3419 115.234-35.3735C116.881-43.7938 116.058-50.7318 111.714-55.7346C110.458-57.2169 108.749-58.5345 106.937-59.5227Z"/>
   <path class="multicolor-1:systemBlueColor hierarchical-1:primary SFSymbolsPreview007AFF" d="M102.861-63.599C102.696-62.9402 102.696-62.2814 102.532-61.5609C98.0229-38.6675 82.8293-30.7413 63.2917-30.7413L53.3274-30.7413C50.9598-30.7413 48.9216-29.0326 48.5922-26.665L48.654-27.715L43.4248 5.63683L22.4049 5.63683C20.5932 5.63683 19.2138 4.09276 19.5432 2.28106L33.6869-87.1512C34.0163-89.5187 36.0544-91.2275 38.422-91.2275L72.2679-91.2275C83.8793-91.2275 93.0201-88.6952 98.0847-82.9719C102.861-77.7427 104.179-72.0193 102.861-63.599Z"/>
  </g>
  <g id="Thin-L" transform="matrix(1 0 0 1 789.998 1556)">
   <path class="multicolor-0:systemCyanColor hierarchical-0:secondary SFSymbolsPreview55BEF0" d="M105.017-59.0224L105.017-59.0224L105.017-59.0224C104.852-58.3636 104.852-57.7048 104.687-57.0398C100.228-34.5912 85.2094-26.8318 66.0609-26.8318L56.3189-26.8318C54.0069-26.8318 52.0244-25.1786 51.695-22.8666L51.695-22.8666L51.695-22.8666L46.7416 8.82377L45.2593 17.7423C45.0884 19.2308 46.2475 20.5546 47.736 20.5546L65.0665 20.5546C67.0491 20.5546 68.8608 19.0661 69.1902 17.0835L69.3549 16.4123L72.6551-4.2246L72.8198-5.3775C73.1492-7.36008 74.8024-8.84856 76.9435-8.84856L79.5849-8.84856C96.2628-8.84856 109.464-15.6198 113.258-35.2624C114.905-43.5159 114.081-50.2871 109.793-55.2343C108.482-56.7166 106.828-58.0342 105.017-59.0224Z"/>
   <path class="multicolor-1:systemBlueColor hierarchical-1:primary SFSymbolsPreview007AFF" d="M101.051-62.9876C100.887-62.3288 100.887-61.67 100.722-61.005C96.269-38.5564 81.4089-30.7969 62.2605-30.7969L52.5185-30.7969C50.2065-30.7969 48.2239-29.1437 47.8945-26.8318L47.9007-27.8261L42.7826 4.85862L22.1519 4.85862C20.3402 4.85862 19.0164 3.37014 19.3458 1.55844L33.2115-86.095C33.5409-88.407 35.5235-90.0602 37.8354-90.0602L71.0143-90.0602C82.4033-90.0602 91.3218-87.5835 96.2752-81.9713C101.051-76.8533 102.369-71.2411 101.051-62.9876Z"/>
  </g>
  <g id="Ultralight-L" transform="matrix(1 0 0 1 493.856 1556)">
   <path class="multicolor-0:systemCyanColor hierarchical-0:secondary SFSymbolsPreview55BEF0" d="M104.033-58.7662L104.033-58.7662L104.033-58.7662C103.868-58.1074 103.868-57.4486 103.703-56.8121C99.3012-34.5912 84.4249-26.9172 65.4758-26.9172L55.8476-26.9172C53.5641-26.9172 51.61-25.2925 51.2806-23.009L51.2806-23.009L51.2806-23.009L46.3842 8.36823L44.9019 17.1729C44.7595 18.6329 45.8901 19.9282 47.3501 19.9282L64.5099 19.9282C66.464 19.9282 68.2757 18.4682 68.6051 16.5141L68.7698 15.8999L72.0415-4.50932L72.2062-5.66222C72.5356-7.61632 74.1603-9.07633 76.3014-9.07633L78.9143-9.07633C95.393-9.07633 108.48-15.7622 112.246-35.2054C113.893-43.3735 113.069-50.0594 108.809-54.9781C107.469-56.4604 105.845-57.778 104.033-58.7662Z"/>
   <path class="multicolor-1:systemBlueColor hierarchical-1:primary SFSymbolsPreview007AFF" d="M100.125-62.6744C99.96-62.0156 99.96-61.3568 99.7953-60.7203C95.3707-38.4994 80.6814-30.8254 61.7323-30.8254L52.1041-30.8254C49.8206-30.8254 47.8665-29.2007 47.5371-26.9172L47.5148-27.8831L42.4537 4.46002L22.0222 4.46002C20.2105 4.46002 18.9152 3.00001 19.2446 1.18831L32.968-85.5541C33.2974-87.8376 35.2515-89.4623 37.535-89.4623L70.3722-89.4623C81.6473-89.4623 90.452-87.0141 95.3484-81.4589C100.125-76.3977 101.442-70.8425 100.125-62.6744Z"/>
  </g>
  <g id="Black-M" transform="matrix(1 0 0 1 2876.53 1126)">
   <path class="multicolor-0:systemCyanColor hierarchical-0:secondary SFSymbolsPreview55BEF0" d="M90.6422-56.0647L90.6422-56.0647L90.6422-56.0647C90.5146-55.5543 90.5146-54.9269 90.387-54.4053C86.5684-34.7396 73.4971-28.0069 56.7456-28.0069L48.2365-28.0069C46.205-28.0069 44.4286-26.4858 44.1734-24.4542L44.1734-24.4542L44.1734-24.4542L39.7382 3.20944L38.4728 11.0805C38.217 12.3571 39.2384 13.623 40.632 13.623L55.7348 13.623C57.5112 13.623 59.0317 12.3464 59.2869 10.5701L59.4145 9.80322L62.3286-8.3419L62.4562-9.35203C62.7114-11.1284 64.2325-12.405 66.0083-12.405L68.295-12.405C82.8987-12.405 94.3212-18.3721 97.735-35.5064C99.128-42.7389 98.373-48.7059 94.6934-52.896C93.5669-54.1613 92.1627-55.1821 90.6422-56.0647Z"/>
   <path class="multicolor-1:systemBlueColor hierarchical-1:primary SFSymbolsPreview007AFF" d="M87.0894-59.6174C86.9618-59.107 86.9618-58.4797 86.8342-57.958C83.027-38.2923 69.9551-31.5596 53.2035-31.5596L44.6945-31.5596C42.6629-31.5596 40.8866-30.0385 40.6314-28.0069L40.7596-28.9008L36.1968-0.343273L18.2968-0.343273C16.7763-0.343273 15.6272-1.73683 15.8824-3.25736L27.9435-79.7934C28.1987-81.825 29.9751-83.3462 32.0067-83.3462L61.0639-83.3462C71.0828-83.3462 78.8369-81.187 83.1552-76.3583C87.0894-71.7954 88.2272-66.8498 87.0894-59.6174Z"/>
  </g>
  <g id="Heavy-M" transform="matrix(1 0 0 1 2580.62 1126)">
   <path class="multicolor-0:systemCyanColor hierarchical-0:secondary SFSymbolsPreview55BEF0" d="M89.2637-55.7104L89.2637-55.7104L89.2637-55.7104C89.1361-55.2 89.1361-54.6003 89.0085-54.0566C85.2288-34.7396 72.3789-28.1066 55.9151-28.1066L47.539-28.1066C45.5407-28.1066 43.7975-26.6187 43.5423-24.6204L43.5423-24.6204L43.5423-24.6204L39.2011 2.56743L37.9634 10.3055C37.7132 11.5765 38.729 12.8093 40.0893 12.8093L54.9376 12.8093C56.6807 12.8093 58.1737 11.5383 58.4289 9.79514L58.5565 9.03956L61.4097-8.78455L61.5373-9.76709C61.7925-11.5102 63.2805-12.7812 65.0286-12.7812L67.2821-12.7812C81.6532-12.7812 92.8876-18.6486 96.213-35.4952C97.5784-42.6003 96.851-48.4677 93.2322-52.597C92.1553-53.8347 90.7567-54.8555 89.2637-55.7104Z"/>
   <path class="multicolor-1:systemBlueColor hierarchical-1:primary SFSymbolsPreview007AFF" d="M85.7775-59.1967C85.6499-58.6863 85.6499-58.0866 85.5223-57.5429C81.7758-38.2259 68.9309-31.5929 52.4671-31.5929L44.091-31.5929C42.0927-31.5929 40.3495-30.1049 40.0943-28.1066L40.2169-28.9948L35.7481-0.918834L18.136-0.918834C16.643-0.918834 15.4996-2.27916 15.7548-3.7721L27.6222-79.0242C27.8774-81.0225 29.6205-82.5104 31.6189-82.5104L60.167-82.5104C69.9978-82.5104 77.6466-80.3845 81.8984-75.6222C85.7775-71.1534 86.8876-66.3018 85.7775-59.1967Z"/>
  </g>
  <g id="Bold-M" transform="matrix(1 0 0 1 2284.82 1126)">
   <path class="multicolor-0:systemCyanColor hierarchical-0:secondary SFSymbolsPreview55BEF0" d="M87.7218-55.3142L87.7218-55.3142L87.7218-55.3142C87.5942-54.8038 87.5942-54.2349 87.4666-53.6667C83.7303-34.7396 71.128-28.2181 54.9861-28.2181L46.7587-28.2181C44.7975-28.2181 43.0916-26.7674 42.8364-24.8062L42.8364-24.8062L42.8364-24.8062L38.6004 1.84924L37.3935 9.43868C37.1496 10.7034 38.1591 11.8989 39.4823 11.8989L54.0458 11.8989C55.7517 11.8989 57.2138 10.6342 57.469 8.92828L57.5966 8.18529L60.3818-9.27973L60.5094-10.2314C60.7646-11.9374 62.2154-13.202 63.9327-13.202L66.149-13.202C80.26-13.202 91.2839-18.9579 94.5104-35.4826C95.8449-42.4453 95.1484-48.2012 91.5976-52.2624C90.5762-53.4693 89.1839-54.4901 87.7218-55.3142Z"/>
   <path class="multicolor-1:systemBlueColor hierarchical-1:primary SFSymbolsPreview007AFF" d="M84.3099-58.7261C84.1823-58.2157 84.1823-57.6468 84.0547-57.0786C80.3762-38.1515 67.7852-31.63 51.6434-31.63L43.4159-31.63C41.4548-31.63 39.7488-30.1793 39.4936-28.2181L39.6099-29.1L35.2463-1.56268L17.956-1.56268C16.494-1.56268 15.3569-2.88584 15.6121-4.34791L27.2628-78.1636C27.518-80.1247 29.2239-81.5755 31.1851-81.5755L59.1637-81.5755C68.784-81.5755 76.315-79.4867 80.4925-74.7988C84.3099-70.4352 85.3891-65.6889 84.3099-58.7261Z"/>
  </g>
  <g id="Semibold-M" transform="matrix(1 0 0 1 1988.73 1126)">
   <path class="multicolor-0:systemCyanColor hierarchical-0:secondary SFSymbolsPreview55BEF0" d="M86.6588-55.041L86.6588-55.041L86.6588-55.041C86.5312-54.5306 86.5312-53.983 86.4036-53.3978C82.6973-34.7396 70.2656-28.295 54.3457-28.295L46.2208-28.295C44.2852-28.295 42.6049-26.8699 42.3497-24.9343L42.3497-24.9343L42.3497-24.9343L38.1862 1.35413L37.0007 8.84107C36.7611 10.1014 37.7663 11.2714 39.0638 11.2714L53.431 11.2714C55.1113 11.2714 56.5521 10.011 56.8073 8.33067L56.9349 7.59637L59.6732-9.62109L59.8008-10.5515C60.056-12.2318 61.4812-13.4922 63.1771-13.4922L65.3679-13.4922C79.2994-13.4922 90.1784-19.1712 93.3367-35.4739C94.6498-42.3385 93.9747-48.0175 90.4707-52.0318C89.4875-53.2174 88.0996-54.2382 86.6588-55.041Z"/>
   <path class="multicolor-1:systemBlueColor hierarchical-1:primary SFSymbolsPreview007AFF" d="M83.2981-58.4017C83.1705-57.8913 83.1705-57.3437 83.0429-56.7585C79.4114-38.1003 66.9954-31.6557 51.0755-31.6557L42.9505-31.6557C41.015-31.6557 39.3346-30.2305 39.0794-28.295L39.1914-29.1725L34.9003-2.00655L17.832-2.00655C16.3912-2.00655 15.2585-3.30408 15.5137-4.74487L27.0149-77.5703C27.2701-79.5059 28.9505-80.931 30.886-80.931L58.472-80.931C67.9473-80.931 75.3971-78.8679 79.5233-74.2312C83.2981-69.9401 84.3561-65.2663 83.2981-58.4017Z"/>
  </g>
  <g id="Medium-M" transform="matrix(1 0 0 1 1692.49 1126)">
   <path class="multicolor-0:systemCyanColor hierarchical-0:secondary SFSymbolsPreview55BEF0" d="M85.8528-54.8339L85.8528-54.8339L85.8528-54.8339C85.7252-54.3235 85.7252-53.792 85.5976-53.194C81.914-34.7396 69.6118-28.3533 53.8601-28.3533L45.8129-28.3533C43.8968-28.3533 42.2359-26.9476 41.9807-25.0315L41.9807-25.0315L41.9807-25.0315L37.8722 0.97871L36.7028 8.38794C36.4665 9.645 37.4684 10.7955 38.7465 10.7955L52.9648 10.7955C54.6257 10.7955 56.0504 9.53845 56.3056 7.87754L56.4332 7.14982L59.1359-9.87993L59.2635-10.7942C59.5187-12.4551 60.9244-13.7121 62.6043-13.7121L64.7756-13.7121C78.5711-13.7121 89.3401-19.3329 92.4467-35.4673C93.7437-42.2575 93.0847-47.8782 89.6163-51.857C88.6621-53.0264 87.2774-54.0472 85.8528-54.8339Z"/>
   <path class="multicolor-1:systemBlueColor hierarchical-1:primary SFSymbolsPreview007AFF" d="M82.531-58.1557C82.4034-57.6453 82.4034-57.1138 82.2758-56.5158C78.6798-38.0614 66.3965-31.6751 50.6449-31.6751L42.5976-31.6751C40.6815-31.6751 39.0206-30.2694 38.7654-28.3533L38.8741-29.2275L34.638-2.3431L17.738-2.3431C16.3133-2.3431 15.1839-3.62121 15.4391-5.04586L26.827-77.1205C27.0822-79.0366 28.7432-80.4423 30.6593-80.4423L57.9475-80.4423C67.3129-80.4423 74.701-78.3986 78.7885-73.8008C82.531-69.5647 83.5728-64.9458 82.531-58.1557Z"/>
  </g>
  <g id="Regular-M" transform="matrix(1 0 0 1 1396.39 1126)">
   <path class="multicolor-0:systemCyanColor hierarchical-0:secondary SFSymbolsPreview55BEF0" d="M84.8014-54.5637L84.8014-54.5637L84.8014-54.5637C84.6738-54.0533 84.6738-53.5429 84.5462-52.9281C80.8923-34.7396 68.7589-28.4293 53.2267-28.4293L45.2809-28.4293C43.3901-28.4293 41.7545-27.0489 41.4993-25.1582L41.4993-25.1582L41.4993-25.1582L37.4626 0.489038L36.3142 7.7969C36.0823 9.04966 37.0798 10.1748 38.3326 10.1748L52.3568 10.1748C53.9923 10.1748 55.3959 8.92206 55.6511 7.2865L55.7787 6.56737L58.4351-10.2176L58.5627-11.1108C58.8179-12.7463 60.1983-13.9991 61.8571-13.9991L64.003-13.9991C77.6212-13.9991 88.2466-19.5438 91.2858-35.4587C92.5618-42.1518 91.9238-47.6965 88.5018-51.6289C87.5854-52.7773 86.205-53.7981 84.8014-54.5637Z"/>
   <path class="multicolor-1:systemBlueColor hierarchical-1:primary SFSymbolsPreview007AFF" d="M81.5303-57.8348C81.4027-57.3244 81.4027-56.814 81.2751-56.1992C77.7255-38.0107 65.6154-31.7004 50.0832-31.7004L42.1373-31.7004C40.2466-31.7004 38.611-30.3201 38.3558-28.4293L38.4602-29.2993L34.2959-2.78209L17.6153-2.78209C16.2117-2.78209 15.0865-4.03486 15.3417-5.43846L26.582-76.5337C26.8372-78.4245 28.4727-79.8049 30.3635-79.8049L57.2635-79.8049C66.4853-79.8049 73.7932-77.7865 77.8299-73.2394C81.5303-69.075 82.5511-64.5279 81.5303-57.8348Z"/>
  </g>
  <g id="Light-M" transform="matrix(1 0 0 1 1100.44 1126)">
   <path class="multicolor-0:systemCyanColor hierarchical-0:secondary SFSymbolsPreview55BEF0" d="M83.4995-54.2246L83.4995-54.2246L83.4995-54.2246C83.3719-53.7142 83.3719-53.2038 83.2443-52.6267C79.6657-34.7396 67.7207-28.5423 52.4523-28.5423L44.6572-28.5423C42.8041-28.5423 41.2062-27.1997 40.951-25.3466L40.951-25.3466L40.951-25.3466L36.9896-0.113861L35.8412 7.04327C35.6469 8.25836 36.6068 9.34584 37.8219 9.34584L51.62 9.34584C53.2179 9.34584 54.6215 8.13076 54.8767 6.53287L55.0043 5.88911L57.623-10.5944L57.7506-11.4876C58.0058-13.0854 59.3485-14.3005 61.0073-14.3005L63.1155-14.3005C76.4699-14.3005 86.9447-19.7322 89.9461-35.3834C91.2221-41.9634 90.5841-47.3951 87.1999-51.2898C86.2457-52.4382 84.9031-53.459 83.4995-54.2246Z"/>
   <path class="multicolor-1:systemBlueColor hierarchical-1:primary SFSymbolsPreview007AFF" d="M80.3037-57.4203C80.1761-56.9099 80.1761-56.3995 80.0485-55.8224C76.5366-37.9354 64.6525-31.7381 49.3841-31.7381L41.589-31.7381C39.7359-31.7381 38.138-30.3954 37.8828-28.5423L37.9495-29.3746L33.8605-3.30963L17.4438-3.30963C16.0402-3.30963 14.9527-4.52471 15.2079-5.92831L26.2597-75.8178C26.5149-77.6709 28.1128-79.0136 29.9659-79.0136L56.4137-79.0136C65.4848-79.0136 72.6419-77.0329 76.6033-72.5611C80.3037-68.4721 81.3245-64.0004 80.3037-57.4203Z"/>
  </g>
  <g id="Thin-M" transform="matrix(1 0 0 1 804.72 1126)">
   <path class="multicolor-0:systemCyanColor hierarchical-0:secondary SFSymbolsPreview55BEF0" d="M81.7775-53.776L81.7775-53.776L81.7775-53.776C81.6499-53.2656 81.6499-52.7552 81.5223-52.228C78.0434-34.7396 66.3476-28.6919 51.428-28.6919L43.8322-28.6919C42.029-28.6919 40.4809-27.399 40.2257-25.5958L40.2257-25.5958L40.2257-25.5958L36.3641-0.911243L35.2157 6.04655C35.0712 7.21179 35.9813 8.24944 37.1465 8.24944L50.6456 8.24944C52.1936 8.24944 53.5972 7.08419 53.8524 5.53615L53.98 4.99205L56.5489-11.0927L56.6765-11.9859C56.9317-13.534 58.2245-14.6992 59.8833-14.6992L61.9418-14.6992C74.9473-14.6992 85.2227-19.9814 88.1743-35.2837C89.4503-41.7142 88.8123-46.9964 85.4779-50.8412C84.4739-51.9896 83.1811-53.0104 81.7775-53.776Z"/>
   <path class="multicolor-1:systemBlueColor hierarchical-1:primary SFSymbolsPreview007AFF" d="M78.6814-56.8721C78.5538-56.3617 78.5538-55.8513 78.4262-55.3241C74.9642-37.8357 63.3791-31.788 48.4595-31.788L40.8637-31.788C39.0605-31.788 37.5125-30.4951 37.2573-28.6919L37.2741-29.4743L33.2848-4.00734L17.2169-4.00734C15.8133-4.00734 14.7756-5.17258 15.0308-6.57618L25.8335-74.8709C26.0887-76.6741 27.6367-77.967 29.44-77.967L55.2897-77.967C64.1615-77.967 71.1193-76.0361 74.981-71.6641C78.6814-67.6748 79.7022-63.3027 78.6814-56.8721Z"/>
  </g>
  <g id="Ultralight-M" transform="matrix(1 0 0 1 508.519 1126)">
   <path class="multicolor-0:systemCyanColor hierarchical-0:secondary SFSymbolsPreview55BEF0" d="M80.8955-53.5463L80.8955-53.5463L80.8955-53.5463C80.7679-53.0359 80.7679-52.5255 80.6403-52.0238C77.2125-34.7396 65.6443-28.7684 50.9034-28.7684L43.4097-28.7684C41.632-28.7684 40.1095-27.5011 39.8543-25.7234L39.8543-25.7234L39.8543-25.7234L36.0436-1.31966L34.8952 5.53603C34.7763 6.67575 35.6608 7.68787 36.8006 7.68787L50.1465 7.68787C51.669 7.68787 53.0726 6.54815 53.3278 5.02563L53.4554 4.53258L55.9987-11.348L56.1263-12.2412C56.3815-13.7637 57.6489-14.9034 59.3077-14.9034L61.3406-14.9034C74.1674-14.9034 84.3407-20.109 87.2668-35.2326C88.5428-41.5866 87.9048-46.7922 84.5959-50.6115C83.5664-51.7599 82.2991-52.7807 80.8955-53.5463Z"/>
   <path class="multicolor-1:systemBlueColor hierarchical-1:primary SFSymbolsPreview007AFF" d="M77.8505-56.5913C77.7229-56.0809 77.7229-55.5705 77.5953-55.0688C74.1587-37.7846 62.7268-31.8135 47.986-31.8135L40.4923-31.8135C38.7146-31.8135 37.192-30.5462 36.9368-28.7684L36.9282-29.5254L32.9899-4.3647L17.1007-4.3647C15.6971-4.3647 14.6849-5.50442 14.9401-6.90802L25.6152-74.3859C25.8704-76.1636 27.3929-77.4309 29.1706-77.4309L54.7141-77.4309C63.4837-77.4309 70.3394-75.5256 74.1501-71.2046C77.8505-67.2663 78.8713-62.9453 77.8505-56.5913Z"/>
  </g>
  <g id="Black-S" transform="matrix(1 0 0 1 2888.63 696)">
   <path class="multicolor-0:systemCyanColor hierarchical-0:secondary SFSymbolsPreview55BEF0" d="M71.3779-51.65L71.3779-51.65L71.3779-51.65C71.2779-51.25 71.2779-50.75 71.1779-50.35C68.1779-34.85 57.8779-29.55 44.6779-29.55L37.9779-29.55C36.3779-29.55 34.9779-28.35 34.7779-26.75L34.7779-26.75L34.7779-26.75L31.2779-4.95L30.2779 1.25C30.0779 2.25 30.8779 3.25 31.9779 3.25L43.8779 3.25C45.2779 3.25 46.4779 2.25 46.6779 0.85L46.7779 0.25L49.0779-14.05L49.1779-14.85C49.3779-16.25 50.5779-17.25 51.9779-17.25L53.7779-17.25C65.2779-17.25 74.2779-21.95 76.9779-35.45C78.0779-41.15 77.4779-45.85 74.5779-49.15C73.6779-50.15 72.5779-50.95 71.3779-51.65Z"/>
   <path class="multicolor-1:systemBlueColor hierarchical-1:primary SFSymbolsPreview007AFF" d="M68.5779-54.45C68.4779-54.05 68.4779-53.55 68.3779-53.15C65.3779-37.65 55.0779-32.35 41.8779-32.35L35.1779-32.35C33.5779-32.35 32.1779-31.15 31.9779-29.55L32.0779-30.25L28.4779-7.75L14.3779-7.75C13.1779-7.75 12.2779-8.85 12.4779-10.05L21.9779-70.35C22.1779-71.95 23.5779-73.15 25.1779-73.15L48.0779-73.15C55.9779-73.15 62.0779-71.45 65.4779-67.65C68.5779-64.05 69.4779-60.15 68.5779-54.45Z"/>
  </g>
  <g id="Heavy-S" transform="matrix(1 0 0 1 2592.51 696)">
   <path class="multicolor-0:systemCyanColor hierarchical-0:secondary SFSymbolsPreview55BEF0" d="M70.3654-51.3904L70.3654-51.3904L70.3654-51.3904C70.2654-50.9904 70.2654-50.514 70.1654-50.0904C67.189-34.85 57.0542-29.6208 44.0666-29.6208L37.461-29.6208C35.8846-29.6208 34.5082-28.4444 34.3082-26.868L34.3082-26.868L34.3082-26.868L30.879-5.42204L29.9027 0.683549C29.7027 1.68355 30.5027 2.65995 31.579 2.65995L43.2902 2.65995C44.6666 2.65995 45.843 1.65995 46.043 0.283549L46.143-0.316451L48.3958-14.3804L48.4958-15.1568C48.6958-16.5332 49.8722-17.5332 51.2486-17.5332L53.025-17.5332C64.3598-17.5332 73.2182-22.1624 75.8474-35.45C76.9238-41.0556 76.3474-45.6848 73.4946-48.9376C72.6418-49.914 71.5418-50.714 70.3654-51.3904Z"/>
   <path class="multicolor-1:systemBlueColor hierarchical-1:primary SFSymbolsPreview007AFF" d="M67.6126-54.1432C67.5126-53.7432 67.5126-53.2668 67.4126-52.8432C64.4598-37.6028 54.325-32.3736 41.3374-32.3736L34.7318-32.3736C33.1554-32.3736 31.779-31.1972 31.579-29.6208L31.679-30.3208L28.1499-8.17484L14.2623-8.17484C13.0859-8.17484 12.1859-9.25124 12.3859-10.4276L21.7443-69.7835C21.9443-71.3599 23.3207-72.5363 24.8971-72.5363L47.4194-72.5363C55.1778-72.5363 61.207-70.8599 64.5598-67.1072C67.6126-63.578 68.489-59.7488 67.6126-54.1432Z"/>
  </g>
  <g id="Bold-S" transform="matrix(1 0 0 1 2296.47 696)">
   <path class="multicolor-0:systemCyanColor hierarchical-0:secondary SFSymbolsPreview55BEF0" d="M69.2329-51.1L69.2329-51.1L69.2329-51.1C69.1329-50.7 69.1329-50.25 69.0329-49.8C66.0829-34.85 56.1329-29.7 43.3829-29.7L36.8829-29.7C35.3329-29.7 33.9829-28.55 33.7829-27L33.7829-27L33.7829-27L30.4329-5.95L29.4829 0.05C29.2829 1.05 30.0829 2 31.1329 2L42.6329 2C43.9829 2 45.1329 1 45.3329-0.35L45.4329-0.95L47.6329-14.75L47.7329-15.5C47.9329-16.85 49.0829-17.85 50.4329-17.85L52.1829-17.85C63.3329-17.85 72.0329-22.4 74.5829-35.45C75.6329-40.95 75.0829-45.5 72.2829-48.7C71.4829-49.65 70.3829-50.45 69.2329-51.1Z"/>
   <path class="multicolor-1:systemBlueColor hierarchical-1:primary SFSymbolsPreview007AFF" d="M66.5329-53.8C66.4329-53.4 66.4329-52.95 66.3329-52.5C63.4329-37.55 53.4829-32.4 40.7329-32.4L34.2329-32.4C32.6829-32.4 31.3329-31.25 31.1329-29.7L31.2329-30.4L27.7829-8.65L14.1329-8.65C12.9829-8.65 12.0829-9.7 12.2829-10.85L21.4829-69.15C21.6829-70.7 23.0329-71.85 24.5829-71.85L46.6829-71.85C54.2829-71.85 60.2329-70.2 63.5329-66.5C66.5329-63.05 67.3829-59.3 66.5329-53.8Z"/>
  </g>
  <g id="Semibold-S" transform="matrix(1 0 0 1 2000.21 696)">
   <path class="multicolor-0:systemCyanColor hierarchical-0:secondary SFSymbolsPreview55BEF0" d="M68.4522-50.8998L68.4522-50.8998L68.4522-50.8998C68.3522-50.4998 68.3522-50.068 68.2522-49.5998C65.3204-34.85 55.4978-29.7546 42.9116-29.7546L36.4844-29.7546C34.9526-29.7546 33.6208-28.6228 33.4208-27.091L33.4208-27.091L33.4208-27.091L30.1254-6.314L29.1936-0.3868C28.9936 0.6132 29.7936 1.545 30.8254 1.545L42.1798 1.545C43.5116 1.545 44.6434 0.545 44.8434-0.7868L44.9434-1.3868L47.107-15.0048L47.207-15.7366C47.407-17.0684 48.5388-18.0684 49.8706-18.0684L51.6024-18.0684C62.625-18.0684 71.2158-22.5638 73.7112-35.45C74.743-40.8772 74.2112-45.3726 71.4476-48.5362C70.684-49.468 69.584-50.268 68.4522-50.8998Z"/>
   <path class="multicolor-1:systemBlueColor hierarchical-1:primary SFSymbolsPreview007AFF" d="M65.7886-53.5634C65.6886-53.1634 65.6886-52.7316 65.5886-52.2634C62.725-37.5136 52.9024-32.4182 40.3162-32.4182L33.889-32.4182C32.3572-32.4182 31.0254-31.2864 30.8254-29.7546L30.9254-30.4546L27.53-8.9776L14.0438-8.9776C12.912-8.9776 12.012-10.0094 12.212-11.1412L21.3028-68.7132C21.5028-70.245 22.8346-71.3768 24.3664-71.3768L46.1752-71.3768C53.666-71.3768 59.5614-69.745 62.825-66.0814C65.7886-62.686 66.6204-58.9906 65.7886-53.5634Z"/>
  </g>
  <g id="Medium-S" transform="matrix(1 0 0 1 1703.85 696)">
   <path class="multicolor-0:systemCyanColor hierarchical-0:secondary SFSymbolsPreview55BEF0" d="M67.8602-50.748L67.8602-50.748L67.8602-50.748C67.7602-50.348 67.7602-49.93 67.6602-49.448C64.7422-34.85 55.0162-29.796 42.5542-29.796L36.1822-29.796C34.6642-29.796 33.3462-28.678 33.1462-27.16L33.1462-27.16L33.1462-27.16L29.8922-6.59L28.9742-0.718C28.7742 0.282 29.5742 1.2 30.5922 1.2L41.8362 1.2C43.1542 1.2 44.2722 0.2 44.4722-1.118L44.5722-1.718L46.7082-15.198L46.8082-15.916C47.0082-17.234 48.1262-18.234 49.4442-18.234L51.1622-18.234C62.0882-18.234 70.5962-22.688 73.0502-35.45C74.0682-40.822 73.5502-45.276 70.8142-48.412C70.0782-49.33 68.9782-50.13 67.8602-50.748Z"/>
   <path class="multicolor-1:systemBlueColor hierarchical-1:primary SFSymbolsPreview007AFF" d="M65.2242-53.384C65.1242-52.984 65.1242-52.566 65.0242-52.084C62.1882-37.486 52.4622-32.432 40.0002-32.432L33.6282-32.432C32.1102-32.432 30.7922-31.314 30.5922-29.796L30.6922-30.496L27.3382-9.226L13.9762-9.226C12.8582-9.226 11.9582-10.244 12.1582-11.362L21.1662-68.382C21.3662-69.9 22.6842-71.018 24.2022-71.018L45.7902-71.018C53.1982-71.018 59.0522-69.4 62.2882-65.764C65.2242-62.41 66.0422-58.756 65.2242-53.384Z"/>
  </g>
  <g id="Regular-S" transform="matrix(1 0 0 1 1407.59 696)">
   <path class="multicolor-0:systemCyanColor hierarchical-0:secondary SFSymbolsPreview55BEF0" d="M67.088-50.55L67.088-50.55L67.088-50.55C66.988-50.15 66.988-49.75 66.888-49.25C63.988-34.85 54.388-29.85 42.088-29.85L35.788-29.85C34.288-29.85 32.988-28.75 32.788-27.25L32.788-27.25L32.788-27.25L29.588-6.95L28.688-1.15C28.488-0.15 29.288 0.75 30.288 0.75L41.388 0.75C42.688 0.75 43.788-0.25 43.988-1.55L44.088-2.15L46.188-15.45L46.288-16.15C46.488-17.45 47.588-18.45 48.888-18.45L50.588-18.45C61.388-18.45 69.788-22.85 72.188-35.45C73.188-40.75 72.688-45.15 69.988-48.25C69.288-49.15 68.188-49.95 67.088-50.55Z"/>
   <path class="multicolor-1:systemBlueColor hierarchical-1:primary SFSymbolsPreview007AFF" d="M64.488-53.15C64.388-52.75 64.388-52.35 64.288-51.85C61.488-37.45 51.888-32.45 39.588-32.45L33.288-32.45C31.788-32.45 30.488-31.35 30.288-29.85L30.388-30.55L27.088-9.55L13.888-9.55C12.788-9.55 11.888-10.55 12.088-11.65L20.988-67.95C21.188-69.45 22.488-70.55 23.988-70.55L45.288-70.55C52.588-70.55 58.388-68.95 61.588-65.35C64.488-62.05 65.288-58.45 64.488-53.15Z"/>
  </g>
  <g id="Light-S" transform="matrix(1 0 0 1 1111.55 696)">
   <path class="multicolor-0:systemCyanColor hierarchical-0:secondary SFSymbolsPreview55BEF0" d="M65.9362-50.25L65.9362-50.25L65.9362-50.25C65.8362-49.85 65.8362-49.45 65.7362-48.9833C62.9029-34.85 53.4696-29.95 41.4029-29.95L35.2362-29.95C33.7696-29.95 32.5029-28.8833 32.3029-27.4167L32.3029-27.4167L32.3029-27.4167L29.1696-7.48333L28.2696-1.81667C28.1029-0.85 28.8696 0.0166667 29.8362 0.0166667L40.7362 0.0166667C42.0029 0.0166667 43.1029-0.95 43.3029-2.21667L43.4029-2.75L45.4696-15.7833L45.5696-16.4833C45.7696-17.75 46.8362-18.7167 48.1362-18.7167L49.8029-18.7167C60.3696-18.7167 68.6362-23.0167 71.0029-35.3833C72.0029-40.5833 71.5029-44.8833 68.8362-47.95C68.1029-48.85 67.0362-49.65 65.9362-50.25Z"/>
   <path class="multicolor-1:systemBlueColor hierarchical-1:primary SFSymbolsPreview007AFF" d="M63.4029-52.7833C63.3029-52.3833 63.3029-51.9833 63.2029-51.5167C60.4362-37.3833 51.0362-32.4833 38.9696-32.4833L32.8029-32.4833C31.3362-32.4833 30.0696-31.4167 29.8696-29.95L29.9362-30.6167L26.7029-10.0167L13.7362-10.0167C12.6362-10.0167 11.7696-10.9833 11.9696-12.0833L20.7029-67.3167C20.9029-68.7833 22.1696-69.85 23.6362-69.85L44.5362-69.85C51.7029-69.85 57.3696-68.2833 60.5029-64.75C63.4029-61.5167 64.2029-57.9833 63.4029-52.7833Z"/>
  </g>
  <g id="Thin-S" transform="matrix(1 0 0 1 815.716 696)">
   <path class="multicolor-0:systemCyanColor hierarchical-0:secondary SFSymbolsPreview55BEF0" d="M64.413-49.8532L64.413-49.8532L64.413-49.8532C64.313-49.4532 64.313-49.0532 64.213-48.6306C61.4678-34.85 52.2549-30.0823 40.4968-30.0823L34.5065-30.0823C33.0839-30.0823 31.8613-29.0597 31.6613-27.6371L31.6613-27.6371L31.6613-27.6371L28.6162-8.18871L27.7162-2.69839C27.5936-1.77581 28.3162-0.953226 29.2388-0.953226L39.8742-0.953226C41.0968-0.953226 42.1968-1.87581 42.3968-3.09839L42.4968-3.54355L44.5194-16.2242L44.6194-16.9242C44.8194-18.1468 45.842-19.0694 47.142-19.0694L48.7646-19.0694C59.0226-19.0694 67.113-23.2371 69.4355-35.2952C70.4355-40.3629 69.9355-44.5306 67.313-47.5532C66.5355-48.4532 65.513-49.2532 64.413-49.8532Z"/>
   <path class="multicolor-1:systemBlueColor hierarchical-1:primary SFSymbolsPreview007AFF" d="M61.9678-52.2984C61.8678-51.8984 61.8678-51.4984 61.7678-51.0758C59.0452-37.2952 49.9097-32.5274 38.1517-32.5274L32.1613-32.5274C30.7388-32.5274 29.5162-31.5048 29.3162-30.0823L29.3388-30.7048L26.1936-10.6339L13.5355-10.6339C12.4355-10.6339 11.613-11.5565 11.813-12.6565L20.3259-66.479C20.5259-67.9016 21.7484-68.9242 23.171-68.9242L43.542-68.9242C50.5323-68.9242 56.0226-67.4016 59.0678-63.9565C61.9678-60.8113 62.7678-57.3661 61.9678-52.2984Z"/>
  </g>
  <g id="Ultralight-S" transform="matrix(1 0 0 1 519.456 696)">
   <path class="multicolor-0:systemCyanColor hierarchical-0:secondary SFSymbolsPreview55BEF0" d="M63.6327-49.65L63.6327-49.65L63.6327-49.65C63.5327-49.25 63.5327-48.85 63.4327-48.45C60.7327-34.85 51.6327-30.15 40.0327-30.15L34.1327-30.15C32.7327-30.15 31.5327-29.15 31.3327-27.75L31.3327-27.75L31.3327-27.75L28.3327-8.55L27.4327-3.15C27.3327-2.25 28.0327-1.45 28.9327-1.45L39.4327-1.45C40.6327-1.45 41.7327-2.35 41.9327-3.55L42.0327-3.95L44.0327-16.45L44.1327-17.15C44.3327-18.35 45.3327-19.25 46.6327-19.25L48.2327-19.25C58.3327-19.25 66.3327-23.35 68.6327-35.25C69.6327-40.25 69.1327-44.35 66.5327-47.35C65.7327-48.25 64.7327-49.05 63.6327-49.65Z"/>
   <path class="multicolor-1:systemBlueColor hierarchical-1:primary SFSymbolsPreview007AFF" d="M61.2327-52.05C61.1327-51.65 61.1327-51.25 61.0327-50.85C58.3327-37.25 49.3327-32.55 37.7327-32.55L31.8327-32.55C30.4327-32.55 29.2327-31.55 29.0327-30.15L29.0327-30.75L25.9327-10.95L13.4327-10.95C12.3327-10.95 11.5327-11.85 11.7327-12.95L20.1327-66.05C20.3327-67.45 21.5327-68.45 22.9327-68.45L43.0327-68.45C49.9327-68.45 55.3327-66.95 58.3327-63.55C61.2327-60.45 62.0327-57.05 61.2327-52.05Z"/>
  </g>
 </g>
</svg>
