<?xml version="1.0" encoding="UTF-8"?>
<!--Generator: Apple Native CoreSVG 149-->
<!DOCTYPE svg
PUBLIC "-//W3C//DTD SVG 1.1//EN"
       "http://www.w3.org/Graphics/SVG/1.1/DTD/svg11.dtd">
<svg version="1.1" xmlns="http://www.w3.org/2000/svg" xmlns:xlink="http://www.w3.org/1999/xlink" width="3300" height="2200">
 <!--glyph: "", point size: 100.0, font version: "17.0d9e1", template writer version: "59"-->
 <style>.multicolor-0:systemCyanColor {fill:#55BEF0;opacity:1.0}
.multicolor-1:systemBlueColor {fill:#007AFF;opacity:1.0}
.multicolor-2:tintColor {fill:#007AFF;opacity:1.0}

.hierarchical-0:tertiary {fill:#8E8E8E}
.hierarchical-1:secondary {fill:#4D4D4D}
.hierarchical-2:primary {fill:#212121}

.SFSymbolsPreview007AFF {fill:#007AFF;opacity:1.0}
.SFSymbolsPreview55BEF0 {fill:#55BEF0;opacity:1.0}
</style>
 <g id="Notes">
  <rect height="2200" id="artboard" style="fill:white;opacity:1" width="3300" x="0" y="0"/>
  <line style="fill:none;stroke:black;opacity:1;stroke-width:0.5;" x1="263" x2="3036" y1="292" y2="292"/>
  <text style="stroke:none;fill:black;font-family:sans-serif;font-size:13;font-weight:bold;" transform="matrix(1 0 0 1 263 322)">Weight/Scale Variations</text>
  <text style="stroke:none;fill:black;font-family:sans-serif;font-size:13;text-anchor:middle;" transform="matrix(1 0 0 1 559.711 322)">Ultralight</text>
  <text style="stroke:none;fill:black;font-family:sans-serif;font-size:13;text-anchor:middle;" transform="matrix(1 0 0 1 856.422 322)">Thin</text>
  <text style="stroke:none;fill:black;font-family:sans-serif;font-size:13;text-anchor:middle;" transform="matrix(1 0 0 1 1153.13 322)">Light</text>
  <text style="stroke:none;fill:black;font-family:sans-serif;font-size:13;text-anchor:middle;" transform="matrix(1 0 0 1 1449.84 322)">Regular</text>
  <text style="stroke:none;fill:black;font-family:sans-serif;font-size:13;text-anchor:middle;" transform="matrix(1 0 0 1 1746.56 322)">Medium</text>
  <text style="stroke:none;fill:black;font-family:sans-serif;font-size:13;text-anchor:middle;" transform="matrix(1 0 0 1 2043.27 322)">Semibold</text>
  <text style="stroke:none;fill:black;font-family:sans-serif;font-size:13;text-anchor:middle;" transform="matrix(1 0 0 1 2339.98 322)">Bold</text>
  <text style="stroke:none;fill:black;font-family:sans-serif;font-size:13;text-anchor:middle;" transform="matrix(1 0 0 1 2636.69 322)">Heavy</text>
  <text style="stroke:none;fill:black;font-family:sans-serif;font-size:13;text-anchor:middle;" transform="matrix(1 0 0 1 2933.4 322)">Black</text>
  <line style="fill:none;stroke:black;opacity:1;stroke-width:0.5;" x1="263" x2="3036" y1="1903" y2="1903"/>
  <g transform="matrix(1 0 0 1 263 1933)">
   <path d="M9.24805 0.830078Q10.8691 0.830078 12.2949 0.214844Q13.7207-0.400391 14.8096-1.49414Q15.8984-2.58789 16.5186-4.01367Q17.1387-5.43945 17.1387-7.05078Q17.1387-8.66211 16.5186-10.0879Q15.8984-11.5137 14.8047-12.6074Q13.7109-13.7012 12.2852-14.3164Q10.8594-14.9316 9.23828-14.9316Q7.62695-14.9316 6.20117-14.3164Q4.77539-13.7012 3.69141-12.6074Q2.60742-11.5137 1.9873-10.0879Q1.36719-8.66211 1.36719-7.05078Q1.36719-5.43945 1.9873-4.01367Q2.60742-2.58789 3.69629-1.49414Q4.78516-0.400391 6.21094 0.214844Q7.63672 0.830078 9.24805 0.830078ZM9.24805-0.654297Q7.91992-0.654297 6.7627-1.14746Q5.60547-1.64062 4.73145-2.51953Q3.85742-3.39844 3.36426-4.56055Q2.87109-5.72266 2.87109-7.05078Q2.87109-8.37891 3.35938-9.54102Q3.84766-10.7031 4.72168-11.582Q5.5957-12.4609 6.75293-12.9541Q7.91016-13.4473 9.23828-13.4473Q10.5762-13.4473 11.7334-12.9541Q12.8906-12.4609 13.7695-11.582Q14.6484-10.7031 15.1465-9.54102Q15.6445-8.37891 15.6445-7.05078Q15.6445-5.72266 15.1514-4.56055Q14.6582-3.39844 13.7842-2.51953Q12.9102-1.64062 11.748-1.14746Q10.5859-0.654297 9.24805-0.654297ZM5.83984-7.04102Q5.83984-6.71875 6.04492-6.51855Q6.25-6.31836 6.5918-6.31836L8.50586-6.31836L8.50586-4.39453Q8.50586-4.0625 8.70605-3.85742Q8.90625-3.65234 9.22852-3.65234Q9.56055-3.65234 9.76562-3.85742Q9.9707-4.0625 9.9707-4.39453L9.9707-6.31836L11.8945-6.31836Q12.2266-6.31836 12.4316-6.51855Q12.6367-6.71875 12.6367-7.04102Q12.6367-7.37305 12.4316-7.57812Q12.2266-7.7832 11.8945-7.7832L9.9707-7.7832L9.9707-9.69727Q9.9707-10.0391 9.76562-10.2441Q9.56055-10.4492 9.22852-10.4492Q8.90625-10.4492 8.70605-10.2441Q8.50586-10.0391 8.50586-9.69727L8.50586-7.7832L6.5918-7.7832Q6.25-7.7832 6.04492-7.57812Q5.83984-7.37305 5.83984-7.04102Z"/>
  </g>
  <g transform="matrix(1 0 0 1 281.867 1933)">
   <path d="M11.709 2.91016Q13.75 2.91016 15.5518 2.12891Q17.3535 1.34766 18.7305-0.0292969Q20.1074-1.40625 20.8887-3.20801Q21.6699-5.00977 21.6699-7.05078Q21.6699-9.0918 20.8887-10.8936Q20.1074-12.6953 18.7305-14.0723Q17.3535-15.4492 15.5469-16.2305Q13.7402-17.0117 11.6992-17.0117Q9.6582-17.0117 7.85645-16.2305Q6.05469-15.4492 4.68262-14.0723Q3.31055-12.6953 2.5293-10.8936Q1.74805-9.0918 1.74805-7.05078Q1.74805-5.00977 2.5293-3.20801Q3.31055-1.40625 4.6875-0.0292969Q6.06445 1.34766 7.86621 2.12891Q9.66797 2.91016 11.709 2.91016ZM11.709 1.25Q9.98047 1.25 8.47656 0.605469Q6.97266-0.0390625 5.83496-1.17676Q4.69727-2.31445 4.05762-3.81836Q3.41797-5.32227 3.41797-7.05078Q3.41797-8.7793 4.05762-10.2832Q4.69727-11.7871 5.83008-12.9297Q6.96289-14.0723 8.4668-14.7119Q9.9707-15.3516 11.6992-15.3516Q13.4277-15.3516 14.9316-14.7119Q16.4355-14.0723 17.5781-12.9297Q18.7207-11.7871 19.3652-10.2832Q20.0098-8.7793 20.0098-7.05078Q20.0098-5.32227 19.3701-3.81836Q18.7305-2.31445 17.5928-1.17676Q16.4551-0.0390625 14.9463 0.605469Q13.4375 1.25 11.709 1.25ZM7.39258-7.04102Q7.39258-6.68945 7.62695-6.46484Q7.86133-6.24023 8.23242-6.24023L10.8789-6.24023L10.8789-3.57422Q10.8789-3.21289 11.1035-2.9834Q11.3281-2.75391 11.6797-2.75391Q12.0508-2.75391 12.2852-2.9834Q12.5195-3.21289 12.5195-3.57422L12.5195-6.24023L15.1758-6.24023Q15.5371-6.24023 15.7715-6.46484Q16.0059-6.68945 16.0059-7.04102Q16.0059-7.41211 15.7715-7.6416Q15.5371-7.87109 15.1758-7.87109L12.5195-7.87109L12.5195-10.5176Q12.5195-10.8984 12.2852-11.1279Q12.0508-11.3574 11.6797-11.3574Q11.3281-11.3574 11.1035-11.1279Q10.8789-10.8984 10.8789-10.5176L10.8789-7.87109L8.23242-7.87109Q7.85156-7.87109 7.62207-7.6416Q7.39258-7.41211 7.39258-7.04102Z"/>
  </g>
  <g transform="matrix(1 0 0 1 305.646 1933)">
   <path d="M14.9707 5.66406Q17.0605 5.66406 18.96 5.01465Q20.8594 4.36523 22.4512 3.19336Q24.043 2.02148 25.2197 0.429688Q26.3965-1.16211 27.0459-3.06641Q27.6953-4.9707 27.6953-7.05078Q27.6953-9.14062 27.0459-11.04Q26.3965-12.9395 25.2197-14.5312Q24.043-16.123 22.4512-17.2998Q20.8594-18.4766 18.9551-19.126Q17.0508-19.7754 14.9609-19.7754Q12.8711-19.7754 10.9717-19.126Q9.07227-18.4766 7.48535-17.2998Q5.89844-16.123 4.72168-14.5312Q3.54492-12.9395 2.90039-11.04Q2.25586-9.14062 2.25586-7.05078Q2.25586-4.9707 2.90527-3.06641Q3.55469-1.16211 4.72656 0.429688Q5.89844 2.02148 7.49023 3.19336Q9.08203 4.36523 10.9814 5.01465Q12.8809 5.66406 14.9707 5.66406ZM14.9707 3.84766Q13.1641 3.84766 11.5283 3.2959Q9.89258 2.74414 8.53516 1.74805Q7.17773 0.751953 6.17676-0.610352Q5.17578-1.97266 4.62891-3.6084Q4.08203-5.24414 4.08203-7.05078Q4.08203-8.86719 4.62891-10.5029Q5.17578-12.1387 6.17188-13.501Q7.16797-14.8633 8.52539-15.8594Q9.88281-16.8555 11.5186-17.4023Q13.1543-17.9492 14.9609-17.9492Q16.7773-17.9492 18.4131-17.4023Q20.0488-16.8555 21.4111-15.8594Q22.7734-14.8633 23.7695-13.501Q24.7656-12.1387 25.3174-10.5029Q25.8691-8.86719 25.8691-7.05078Q25.8789-5.24414 25.332-3.6084Q24.7852-1.97266 23.7842-0.610352Q22.7832 0.751953 21.4209 1.74805Q20.0586 2.74414 18.4229 3.2959Q16.7871 3.84766 14.9707 3.84766ZM9.45312-7.04102Q9.45312-6.66016 9.71191-6.41113Q9.9707-6.16211 10.3711-6.16211L14.0625-6.16211L14.0625-2.46094Q14.0625-2.06055 14.3115-1.80664Q14.5605-1.55273 14.9414-1.55273Q15.3516-1.55273 15.6055-1.80664Q15.8594-2.06055 15.8594-2.46094L15.8594-6.16211L19.5605-6.16211Q19.9609-6.16211 20.2148-6.41113Q20.4688-6.66016 20.4688-7.04102Q20.4688-7.45117 20.2148-7.70508Q19.9609-7.95898 19.5605-7.95898L15.8594-7.95898L15.8594-11.6504Q15.8594-12.0605 15.6055-12.3145Q15.3516-12.5684 14.9414-12.5684Q14.5605-12.5684 14.3115-12.3096Q14.0625-12.0508 14.0625-11.6504L14.0625-7.95898L10.3711-7.95898Q9.96094-7.95898 9.70703-7.70508Q9.45312-7.45117 9.45312-7.04102Z"/>
  </g>
  <text style="stroke:none;fill:black;font-family:sans-serif;font-size:13;font-weight:bold;" transform="matrix(1 0 0 1 263 1953)">Design Variations</text>
  <text style="stroke:none;fill:black;font-family:sans-serif;font-size:13;" transform="matrix(1 0 0 1 263 1971)">Symbols are supported in up to nine weights and three scales.</text>
  <text style="stroke:none;fill:black;font-family:sans-serif;font-size:13;" transform="matrix(1 0 0 1 263 1989)">For optimal layout with text and other symbols, vertically align</text>
  <text style="stroke:none;fill:black;font-family:sans-serif;font-size:13;" transform="matrix(1 0 0 1 263 2007)">symbols with the adjacent text.</text>
  <line style="fill:none;stroke:#00AEEF;stroke-width:0.5;opacity:1.0;" x1="776" x2="776" y1="1919" y2="1933"/>
  <g transform="matrix(1 0 0 1 776 1933)">
   <path d="M3.31055 0.15625Q3.70117 0.15625 3.91602-0.00976562Q4.13086-0.175781 4.26758-0.585938L5.52734-4.0332L11.2891-4.0332L12.5488-0.585938Q12.6855-0.175781 12.9004-0.00976562Q13.1152 0.15625 13.4961 0.15625Q13.8867 0.15625 14.1162-0.0585938Q14.3457-0.273438 14.3457-0.644531Q14.3457-0.869141 14.2383-1.17188L9.6582-13.3691Q9.48242-13.8184 9.17969-14.043Q8.87695-14.2676 8.4082-14.2676Q7.5-14.2676 7.17773-13.3789L2.59766-1.16211Q2.49023-0.859375 2.49023-0.634766Q2.49023-0.263672 2.70996-0.0537109Q2.92969 0.15625 3.31055 0.15625ZM6.00586-5.51758L8.37891-12.0898L8.42773-12.0898L10.8008-5.51758Z"/>
  </g>
  <line style="fill:none;stroke:#00AEEF;stroke-width:0.5;opacity:1.0;" x1="793.197" x2="793.197" y1="1919" y2="1933"/>
  <text style="stroke:none;fill:black;font-family:sans-serif;font-size:13;font-weight:bold;" transform="matrix(1 0 0 1 776 1953)">Margins</text>
  <text style="stroke:none;fill:black;font-family:sans-serif;font-size:13;" transform="matrix(1 0 0 1 776 1971)">Leading and trailing margins on the left and right side of each symbol</text>
  <text style="stroke:none;fill:black;font-family:sans-serif;font-size:13;" transform="matrix(1 0 0 1 776 1989)">can be adjusted by modifying the x-location of the margin guidelines.</text>
  <text style="stroke:none;fill:black;font-family:sans-serif;font-size:13;" transform="matrix(1 0 0 1 776 2007)">Modifications are automatically applied proportionally to all</text>
  <text style="stroke:none;fill:black;font-family:sans-serif;font-size:13;" transform="matrix(1 0 0 1 776 2025)">scales and weights.</text>
  <g transform="matrix(1 0 0 1 1289 1933)">
   <path d="M2.8418 1.86523L4.54102 3.57422Q5.18555 4.22852 5.90332 4.17969Q6.62109 4.13086 7.31445 3.35938L18.0078-8.42773L17.041-9.4043L6.42578 2.27539Q6.16211 2.57812 5.89355 2.61719Q5.625 2.65625 5.27344 2.30469L4.10156 1.14258Q3.75 0.791016 3.79395 0.522461Q3.83789 0.253906 4.14062-0.0195312L15.6152-10.8203L14.6387-11.7871L3.04688-0.898438Q2.30469-0.214844 2.25098 0.498047Q2.19727 1.21094 2.8418 1.86523ZM9.25781-16.3281Q8.94531-16.0254 8.90625-15.6348Q8.86719-15.2441 9.04297-14.9512Q9.21875-14.6777 9.55566-14.541Q9.89258-14.4043 10.3809-14.5215Q11.4746-14.7754 12.5977-14.7314Q13.7207-14.6875 14.7949-13.9844L14.209-12.5293Q13.9551-11.9043 14.0674-11.4404Q14.1797-10.9766 14.5801-10.5664L16.875-8.25195Q17.2363-7.88086 17.5781-7.82227Q17.9199-7.76367 18.3398-7.8418L19.4043-8.03711L20.0684-7.36328L20.0293-6.80664Q20-6.43555 20.1221-6.12305Q20.2441-5.81055 20.6055-5.44922L21.3672-4.70703Q21.7285-4.3457 22.1533-4.33105Q22.5781-4.31641 22.9297-4.66797L25.8398-7.58789Q26.1914-7.93945 26.1816-8.35449Q26.1719-8.76953 25.8105-9.13086L25.0391-9.89258Q24.6875-10.2539 24.3799-10.3857Q24.0723-10.5176 23.7109-10.4883L23.1348-10.4395L22.4902-11.0742L22.7344-12.1973Q22.832-12.6172 22.6953-12.9834Q22.5586-13.3496 22.1191-13.7891L19.9219-15.9766Q18.6719-17.2168 17.2607-17.8369Q15.8496-18.457 14.4189-18.4814Q12.9883-18.5059 11.665-17.959Q10.3418-17.4121 9.25781-16.3281ZM10.752-15.957Q11.6602-16.6211 12.7002-16.9043Q13.7402-17.1875 14.8047-17.085Q15.8691-16.9824 16.8701-16.5137Q17.8711-16.0449 18.7012-15.2051L21.1328-12.793Q21.3086-12.6172 21.3525-12.4512Q21.3965-12.2852 21.3379-12.0312L21.0156-10.5469L22.5195-9.0625L23.5059-9.12109Q23.6914-9.13086 23.7891-9.09668Q23.8867-9.0625 24.0332-8.91602L24.6094-8.33984L22.168-5.89844L21.5918-6.47461Q21.4453-6.62109 21.4062-6.71875Q21.3672-6.81641 21.377-7.01172L21.4453-7.98828L19.9512-9.47266L18.4277-9.21875Q18.1836-9.16992 18.042-9.2041Q17.9004-9.23828 17.7148-9.41406L15.7129-11.416Q15.5176-11.5918 15.4932-11.7529Q15.4688-11.9141 15.5859-12.1875L16.4648-14.2773Q15.293-15.3711 13.8281-15.791Q12.3633-16.2109 10.8398-15.7617Q10.7227-15.7324 10.6885-15.8057Q10.6543-15.8789 10.752-15.957Z"/>
  </g>
  <text style="stroke:none;fill:black;font-family:sans-serif;font-size:13;font-weight:bold;" transform="matrix(1 0 0 1 1289 1953)">Exporting</text>
  <text style="stroke:none;fill:black;font-family:sans-serif;font-size:13;" transform="matrix(1 0 0 1 1289 1971)">Symbols should be outlined when exporting to ensure the</text>
  <text style="stroke:none;fill:black;font-family:sans-serif;font-size:13;" transform="matrix(1 0 0 1 1289 1989)">design is preserved when submitting to Xcode.</text>
  <text id="template-version" style="stroke:none;fill:black;font-family:sans-serif;font-size:13;text-anchor:end;" transform="matrix(1 0 0 1 3036 1933)">Template v.3.0</text>
  <text style="stroke:none;fill:black;font-family:sans-serif;font-size:13;text-anchor:end;" transform="matrix(1 0 0 1 3036 1951)">Requires Xcode 13 or greater</text>
  <text id="descriptive-name" style="stroke:none;fill:black;font-family:sans-serif;font-size:13;text-anchor:end;" transform="matrix(1 0 0 1 3036 1969)">Generated from logo.paypal.circle</text>
  <text style="stroke:none;fill:black;font-family:sans-serif;font-size:13;text-anchor:end;" transform="matrix(1 0 0 1 3036 1987)">Typeset at 100 points</text>
  <text style="stroke:none;fill:black;font-family:sans-serif;font-size:13;" transform="matrix(1 0 0 1 263 726)">Small</text>
  <text style="stroke:none;fill:black;font-family:sans-serif;font-size:13;" transform="matrix(1 0 0 1 263 1156)">Medium</text>
  <text style="stroke:none;fill:black;font-family:sans-serif;font-size:13;" transform="matrix(1 0 0 1 263 1586)">Large</text>
 </g>
 <g id="Guides">
  <g id="H-reference" style="fill:#27AAE1;stroke:none;" transform="matrix(1 0 0 1 339 696)">
   <path d="M0.976562 0L3.66211 0L29.3457-67.1387L30.0293-67.1387L30.0293-70.459L28.125-70.459ZM11.6699-24.4629L46.9727-24.4629L46.2402-26.709L12.4512-26.709ZM55.127 0L57.7637 0L30.6152-70.459L29.4434-70.459L29.4434-67.1387Z"/>
  </g>
  <line id="Baseline-S" style="fill:none;stroke:#27AAE1;opacity:1;stroke-width:0.5;" x1="263" x2="3036" y1="696" y2="696"/>
  <line id="Capline-S" style="fill:none;stroke:#27AAE1;opacity:1;stroke-width:0.5;" x1="263" x2="3036" y1="625.541" y2="625.541"/>
  <g id="H-reference" style="fill:#27AAE1;stroke:none;" transform="matrix(1 0 0 1 339 1126)">
   <path d="M0.976562 0L3.66211 0L29.3457-67.1387L30.0293-67.1387L30.0293-70.459L28.125-70.459ZM11.6699-24.4629L46.9727-24.4629L46.2402-26.709L12.4512-26.709ZM55.127 0L57.7637 0L30.6152-70.459L29.4434-70.459L29.4434-67.1387Z"/>
  </g>
  <line id="Baseline-M" style="fill:none;stroke:#27AAE1;opacity:1;stroke-width:0.5;" x1="263" x2="3036" y1="1126" y2="1126"/>
  <line id="Capline-M" style="fill:none;stroke:#27AAE1;opacity:1;stroke-width:0.5;" x1="263" x2="3036" y1="1055.54" y2="1055.54"/>
  <g id="H-reference" style="fill:#27AAE1;stroke:none;" transform="matrix(1 0 0 1 339 1556)">
   <path d="M0.976562 0L3.66211 0L29.3457-67.1387L30.0293-67.1387L30.0293-70.459L28.125-70.459ZM11.6699-24.4629L46.9727-24.4629L46.2402-26.709L12.4512-26.709ZM55.127 0L57.7637 0L30.6152-70.459L29.4434-70.459L29.4434-67.1387Z"/>
  </g>
  <line id="Baseline-L" style="fill:none;stroke:#27AAE1;opacity:1;stroke-width:0.5;" x1="263" x2="3036" y1="1556" y2="1556"/>
  <line id="Capline-L" style="fill:none;stroke:#27AAE1;opacity:1;stroke-width:0.5;" x1="263" x2="3036" y1="1485.54" y2="1485.54"/>
  <line id="left-margin-Regular-M" style="fill:none;stroke:#00AEEF;stroke-width:0.5;opacity:1.0;" x1="1391.01" x2="1391.01" y1="1030.73" y2="1150.14"/>
  <line id="right-margin-Regular-M" style="fill:none;stroke:#00AEEF;stroke-width:0.5;opacity:1.0;" x1="1508.68" x2="1508.68" y1="1030.73" y2="1150.14"/>
 </g>
 <g id="Symbols">
  <g id="Black-L" transform="matrix(1 0 0 1 2853.82 1556)">
   <path class="multicolor-0:systemCyanColor hierarchical-1:secondary SFSymbolsPreview55BEF0" d="M103.603-48.6358L103.603-48.6358L103.603-48.6358C103.603-48.3064 103.439-47.8123 103.439-47.4829C100.803-33.8128 91.7449-29.2012 80.2159-29.2012L74.2442-29.2012C72.7619-29.2012 71.609-28.213 71.4443-26.7307L71.4443-26.7307L71.4443-26.7307L68.3601-7.62548L67.5366-2.19038C67.3719-1.20218 68.0307-0.378683 69.0189-0.378683L79.5545-0.378683C80.8721-0.378683 81.8603-1.20218 82.025-2.51978L82.1897-3.01388L84.1661-15.5311L84.2459-16.1899C84.4106-17.3428 85.5635-18.331 86.7164-18.331L88.079-18.331C98.2904-18.331 106.196-22.4485 108.502-34.3069C109.49-39.2479 108.996-43.3654 106.361-46.33C105.699-47.3182 104.754-48.0966 103.603-48.6358Z"/>
   <path class="multicolor-1:systemBlueColor hierarchical-2:primary SFSymbolsPreview007AFF" d="M99.4858-52.7082C99.4858-52.3788 99.3211-51.8847 99.3211-51.5553C96.6859-37.8852 87.6274-33.2736 76.0984-33.2736L70.1692-33.2736C68.6869-33.2736 67.534-32.2854 67.3693-30.8031L67.534-31.4619L64.4047-11.6979L51.9326-11.6979C50.9444-11.6979 50.1209-12.6861 50.2856-13.6743L58.6853-66.7077C58.85-68.0253 60.1676-69.1782 61.4852-69.1782L81.5786-69.1782C88.496-69.1782 93.9311-67.6959 96.8957-64.2372C99.4858-61.153 100.309-57.6943 99.4858-52.7082Z"/>
   <path class="multicolor-2:tintColor hierarchical-0:tertiary SFSymbolsPreview007AFF" d="M79.512 33.188C88.8764 33.188 97.6297 31.4214 105.841 27.8483C114.055 24.2753 121.246 19.4271 127.532 13.1018C133.815 6.81905 138.705-0.332313 142.238-8.58886C145.769-16.8454 147.578-25.5536 147.578-34.918C147.578-44.2823 145.812-52.9932 142.238-61.2471C138.665-69.5036 133.817-76.6523 127.489-82.9378C121.207-89.2205 114.055-94.1112 105.799-97.6418C97.5421-101.215 88.8339-102.981 79.4696-102.981C70.1052-102.981 61.397-101.215 53.1405-97.6418C44.8839-94.0687 37.7776-89.2205 31.4922-82.9378C25.2094-76.655 20.3188-69.5036 16.7882-61.2471C13.3348-52.8709 11.5681-44.1627 11.5681-34.7983C11.5681-25.434 13.3348-16.7232 16.9078-8.46924C20.4808-0.212696 25.329 6.93603 31.6118 13.2214C37.8946 19.5042 45.046 24.3949 53.3025 27.9255C61.4394 31.3365 70.1901 33.188 79.512 33.188ZM79.512 12.9582C72.9724 12.9582 66.7648 11.7575 60.9715 9.31385C55.1383 6.91262 50.1685 3.4781 45.7007-0.989705C41.395-5.29544 37.9605-10.4247 35.4396-16.2604C33.0384-22.0936 31.6757-28.2587 31.6757-34.8434C31.6757-41.4282 32.8763-47.5907 35.3972-53.4264C37.7984-59.2595 41.2329-64.2718 45.6583-68.6972C49.964-73.0029 55.0933-76.4374 60.929-79.0007C66.7621-81.402 72.9299-82.7646 79.4696-82.7646C86.0516-82.7646 92.2194-81.564 98.0526-79.0007C103.886-76.557 108.898-73.165 113.323-68.6972C117.629-64.3914 121.064-59.2622 123.627-53.4264C126.071-47.5933 127.391-41.4255 127.391-34.8434C127.391-28.2613 126.19-22.0962 123.627-16.2604C121.226-10.4273 117.791-5.41506 113.366-0.989705C109.06 3.35848 103.931 6.793 98.0976 9.3563C92.4239 11.7575 86.2163 12.9582 79.512 12.9582Z"/>
  </g>
  <g id="Heavy-L" transform="matrix(1 0 0 1 2558.04 1556)">
   <path class="multicolor-0:systemCyanColor hierarchical-1:secondary SFSymbolsPreview55BEF0" d="M102.693-48.664L102.693-48.664L102.693-48.664C102.693-48.3346 102.528-47.8405 102.528-47.5111C99.8927-33.841 90.8342-29.2294 79.3052-29.2294L73.3151-29.2294C71.8328-29.2294 70.6799-28.2412 70.5152-26.7589L70.5152-26.7589L70.5152-26.7589L67.4592-7.65371L66.6357-2.21861C66.471-1.23041 67.1298-0.406913 68.118-0.406913L78.6341-0.406913C79.9517-0.406913 80.9399-1.23041 81.1046-2.54801L81.2693-3.04211L83.2457-15.5593L83.2885-16.2181C83.4532-17.371 84.6061-18.3592 85.759-18.3592L87.1499-18.3592C97.3613-18.3592 105.267-22.4767 107.573-34.3351C108.561-39.2761 108.067-43.3936 105.432-46.3582C104.76-47.3464 103.833-48.0966 102.693-48.664Z"/>
   <path class="multicolor-1:systemBlueColor hierarchical-2:primary SFSymbolsPreview007AFF" d="M98.5751-52.7082C98.5751-52.3788 98.4104-51.8847 98.4104-51.5553C95.7752-37.8852 86.7167-33.2736 75.1877-33.2736L69.2585-33.2736C67.7762-33.2736 66.6233-32.2854 66.4586-30.8031L66.6233-31.4619L63.494-11.6979L51.0501-11.6979C50.0619-11.6979 49.2384-12.6861 49.4031-13.6743L57.8028-66.7077C57.9675-68.0253 59.2851-69.1782 60.6027-69.1782L80.6961-69.1782C87.6135-69.1782 93.0486-67.6959 96.0132-64.2372C98.5751-61.1812 99.3986-57.7225 98.5751-52.7082Z"/>
   <path class="multicolor-2:tintColor hierarchical-0:tertiary SFSymbolsPreview007AFF" d="M78.5731 32.24C87.7954 32.24 96.4445 30.5016 104.514 26.9763C112.596 23.4509 119.72 18.6689 125.911 12.4293C132.089 6.25067 136.932-0.824787 140.409-8.96747C143.873-17.1101 145.673-25.686 145.673-34.9082C145.673-44.1305 143.934-52.7187 140.409-60.849C136.884-68.9917 132.102-76.0548 125.85-82.2458C119.671-88.4244 112.596-93.2674 104.453-96.7318C96.3103-100.257 87.7344-101.996 78.5122-101.996C69.2899-101.996 60.7141-100.257 52.5714-96.7318C44.4287-93.2064 37.4266-88.4244 31.2356-82.2458C25.0569-76.0671 20.214-68.9917 16.7495-60.849C13.3156-52.6149 11.5772-44.0391 11.5772-34.8169C11.5772-25.5946 13.3156-17.0064 16.8409-8.87608C20.3663-0.7334 25.1483 6.32969 31.327 12.5207C37.5056 18.6993 44.581 23.5423 52.7237 27.0067C60.775 30.3797 69.4118 32.24 78.5731 32.24ZM78.5731 14.4073C71.8252 14.4073 65.419 13.1688 59.4642 10.6307C53.4607 8.15353 48.3294 4.61487 43.7292 0.0146947C39.2814-4.43314 35.7427-9.70447 33.1742-15.7203C30.697-21.7237 29.3061-28.0689 29.3061-34.8902C29.3061-41.7114 30.5447-48.0442 33.1132-54.0601C35.5904-60.0635 39.129-65.2558 43.6683-69.795C48.1161-74.2429 53.3874-77.7815 59.4032-80.411C65.4067-82.8882 71.7642-84.2791 78.5122-84.2791C85.321-84.2791 91.6786-83.0405 97.682-80.411C103.685-77.8729 108.878-74.3952 113.417-69.795C117.865-65.3472 121.404-60.0759 124.033-54.0601C126.571-48.0566 127.901-41.699 127.901-34.8902C127.901-28.0813 126.662-21.7361 124.033-15.7203C121.556-9.71683 118.017-4.52453 113.478 0.0146947C109.03 4.52348 103.759 8.06214 97.7554 10.6916C91.8919 13.1688 85.4857 14.4073 78.5731 14.4073Z"/>
  </g>
  <g id="Bold-L" transform="matrix(1 0 0 1 2262.49 1556)">
   <path class="multicolor-0:systemCyanColor hierarchical-1:secondary SFSymbolsPreview55BEF0" d="M101.548-48.6956L101.548-48.6956L101.548-48.6956C101.548-48.3662 101.383-47.8721 101.383-47.5427C98.7481-33.8726 89.6896-29.261 78.1606-29.261L72.1557-29.261C70.6734-29.261 69.5205-28.2728 69.3558-26.7905L69.3558-26.7905L69.3558-26.7905L66.3313-7.68529L65.5078-2.25019C65.3431-1.26199 66.0019-0.438492 66.9901-0.438492L77.4727-0.438492C78.7903-0.438492 79.7785-1.26199 79.9432-2.57959L80.1079-3.07369L82.0843-15.5909L82.0975-16.2497C82.2622-17.4026 83.4151-18.3908 84.568-18.3908L85.9905-18.3908C96.2019-18.3908 104.107-22.5083 106.413-34.3667C107.401-39.3077 106.907-43.4252 104.272-46.3898C103.584-47.378 102.672-48.0966 101.548-48.6956Z"/>
   <path class="multicolor-1:systemBlueColor hierarchical-2:primary SFSymbolsPreview007AFF" d="M97.4305-52.7082C97.4305-52.3788 97.2658-51.8847 97.2658-51.5553C94.6306-37.8852 85.5721-33.2736 74.0431-33.2736L68.1139-33.2736C66.6316-33.2736 65.4787-32.2854 65.314-30.8031L65.4787-31.4619L62.3494-11.6979L49.9371-11.6979C48.9489-11.6979 48.1254-12.6861 48.2901-13.6743L56.6898-66.7077C56.8545-68.0253 58.1721-69.1782 59.4897-69.1782L79.5831-69.1782C86.5005-69.1782 91.9356-67.6959 94.9002-64.2372C97.4305-61.2128 98.254-57.7541 97.4305-52.7082Z"/>
   <path class="multicolor-2:tintColor hierarchical-0:tertiary SFSymbolsPreview007AFF" d="M77.3969 31.0499C86.4426 31.0499 94.9634 29.3431 102.856 25.8829C110.778 22.4227 117.803 17.7206 123.883 11.5945C129.933 5.54411 134.711-1.43463 138.125-9.43225C141.509-17.4299 143.292-25.8458 143.292-34.8915C143.292-43.9371 141.585-52.3822 138.125-60.3507C134.664-68.3483 129.962-75.2979 123.807-81.3774C117.757-87.4278 110.778-92.2056 102.78-95.5901C94.7828-99.0503 86.3668-100.757 77.3212-100.757C68.2755-100.757 59.8596-99.0503 51.862-95.5901C43.8643-92.1298 36.9905-87.4278 30.911-81.3774C24.8606-75.327 20.0828-68.3483 16.6983-60.3507C13.2979-52.2932 11.5911-43.8773 11.5911-34.8317C11.5911-25.786 13.2979-17.3409 16.7581-9.37245C20.2184-1.37483 24.9204 5.57479 30.9708 11.6543C37.0212 17.7046 43.9999 22.4825 51.9975 25.867C59.9353 29.1916 68.4271 31.0499 77.3969 31.0499ZM77.3969 16.2053C70.3924 16.2053 63.7465 14.9184 57.5814 12.2688C51.3698 9.69492 46.0282 6.02797 41.2682 1.26794C36.6437-3.35653 32.9768-8.80451 30.3431-15.0453C27.7693-21.257 26.3468-27.8272 26.3468-34.9365C26.3468-42.0459 27.6337-48.587 30.2674-54.8278C32.8412-61.0395 36.5082-66.4568 41.1924-71.141C45.8169-75.7655 51.2649-79.4325 57.5057-82.1419C63.7173-84.7157 70.3167-86.1382 77.3212-86.1382C84.4014-86.1382 91.0007-84.8513 97.2124-82.1419C103.424-79.4923 108.841-75.9011 113.526-71.141C118.15-66.5166 121.817-61.0686 124.526-54.8278C127.176-48.6161 128.523-42.0168 128.523-34.9365C128.523-27.8563 127.236-21.2861 124.526-15.0453C121.953-8.83364 118.286-3.41634 113.601 1.26794C108.977 5.96817 103.529 9.63511 97.3173 12.3445C91.2121 14.9184 84.5661 16.2053 77.3969 16.2053Z"/>
  </g>
  <g id="Semibold-L" transform="matrix(1 0 0 1 1966.59 1556)">
   <path class="multicolor-0:systemCyanColor hierarchical-1:secondary SFSymbolsPreview55BEF0" d="M100.759-48.7174L100.759-48.7174L100.759-48.7174C100.759-48.388 100.594-47.8939 100.594-47.5645C97.959-33.8944 88.9005-29.2828 77.3715-29.2828L71.3564-29.2828C69.8741-29.2828 68.7212-28.2946 68.5565-26.8123L68.5565-26.8123L68.5565-26.8123L65.5538-7.70706L64.7303-2.27196C64.5656-1.28376 65.2244-0.460262 66.2126-0.460262L76.672-0.460262C77.9896-0.460262 78.9778-1.28376 79.1425-2.60136L79.3072-3.09546L81.2836-15.6127L81.2764-16.2715C81.4411-17.4244 82.594-18.4126 83.7469-18.4126L85.1912-18.4126C95.4026-18.4126 103.308-22.5301 105.614-34.3885C106.602-39.3295 106.108-43.447 103.473-46.4116C102.773-47.3998 101.871-48.0966 100.759-48.7174Z"/>
   <path class="multicolor-1:systemBlueColor hierarchical-2:primary SFSymbolsPreview007AFF" d="M96.6414-52.7082C96.6414-52.3788 96.4767-51.8847 96.4767-51.5553C93.8415-37.8852 84.783-33.2736 73.254-33.2736L67.3248-33.2736C65.8425-33.2736 64.6896-32.2854 64.5249-30.8031L64.6896-31.4619L61.5603-11.6979L49.1698-11.6979C48.1816-11.6979 47.3581-12.6861 47.5228-13.6743L55.9225-66.7077C56.0872-68.0253 57.4048-69.1782 58.7224-69.1782L78.8158-69.1782C85.7332-69.1782 91.1683-67.6959 94.1329-64.2372C96.6414-61.2346 97.4649-57.7759 96.6414-52.7082Z"/>
   <path class="multicolor-2:tintColor hierarchical-0:tertiary SFSymbolsPreview007AFF" d="M76.5861 30.2295C85.5099 30.2295 93.9423 28.5445 101.713 25.1291C109.525 21.7138 116.482 17.0668 122.485 11.0189C128.447 5.05702 133.18-1.85506 136.55-9.75267C139.879-17.6503 141.65-25.956 141.65-34.8799C141.65-43.8038 139.965-52.1502 136.55-60.0071C133.134-67.9047 128.488-74.7761 122.399-80.7787C116.437-86.7407 109.525-91.4736 101.627-94.803C93.7297-98.2183 85.424-99.9033 76.5001-99.9033C67.5762-99.9033 59.2705-98.2183 51.3729-94.803C43.4753-91.3876 36.6898-86.7407 30.6872-80.7787C24.7253-74.8168 19.9924-67.9047 16.663-60.0071C13.2857-52.0715 11.6007-43.7657 11.6007-34.8419C11.6007-25.918 13.2857-17.5716 16.701-9.71464C20.1164-1.81702 24.7633 5.05436 30.7253 11.057C36.6872 17.0189 43.5993 21.7518 51.4969 25.0812C59.3565 28.3725 67.7482 30.2295 76.5861 30.2295ZM76.5861 17.4448C69.4047 17.4448 62.5934 16.1246 56.2835 13.3981C49.9283 10.7575 44.4418 7.00216 39.5716 2.13191C34.8253-2.61433 31.07-8.18408 28.3914-14.58C25.7509-20.9352 24.3066-27.6605 24.3066-34.9685C24.3066-42.2766 25.6269-48.9612 28.3054-55.3571C30.946-61.7123 34.7013-67.2847 39.4856-72.069C44.2319-76.8152 49.8016-80.5706 56.1975-83.3351C62.5527-85.9756 69.3187-87.4199 76.5001-87.4199C83.7674-87.4199 90.5334-86.0996 96.8886-83.3351C103.244-80.6086 108.816-76.9392 113.601-72.069C118.347-67.3227 122.102-61.753 124.867-55.3571C127.593-49.0019 128.951-42.2359 128.951-34.9685C128.951-27.7012 127.631-20.9759 124.867-14.58C122.226-8.22477 118.471-2.65237 113.687 2.13191C108.94 6.96412 103.371 10.7195 97.0153 13.484C90.7434 16.1246 83.9321 17.4448 76.5861 17.4448Z"/>
  </g>
  <g id="Medium-L" transform="matrix(1 0 0 1 1670.48 1556)">
   <path class="multicolor-0:systemCyanColor hierarchical-1:secondary SFSymbolsPreview55BEF0" d="M100.161-48.7339L100.161-48.7339L100.161-48.7339C100.161-48.4045 99.9959-47.9104 99.9959-47.581C97.3607-33.9109 88.3022-29.2993 76.7732-29.2993L70.7503-29.2993C69.268-29.2993 68.1151-28.3111 67.9504-26.8288L67.9504-26.8288L67.9504-26.8288L64.9643-7.72357L64.1408-2.28847C63.9761-1.30027 64.6349-0.476769 65.6231-0.476769L76.0649-0.476769C77.3825-0.476769 78.3707-1.30027 78.5354-2.61787L78.7001-3.11197L80.6765-15.6292L80.6538-16.288C80.8185-17.4409 81.9714-18.4291 83.1243-18.4291L84.5851-18.4291C94.7965-18.4291 102.702-22.5466 105.008-34.405C105.996-39.346 105.502-43.4635 102.867-46.4281C102.159-47.4163 101.264-48.0966 100.161-48.7339Z"/>
   <path class="multicolor-1:systemBlueColor hierarchical-2:primary SFSymbolsPreview007AFF" d="M96.0431-52.7082C96.0431-52.3788 95.8784-51.8847 95.8784-51.5553C93.2432-37.8852 84.1847-33.2736 72.6557-33.2736L66.7265-33.2736C65.2442-33.2736 64.0913-32.2854 63.9266-30.8031L64.0913-31.4619L60.962-11.6979L48.588-11.6979C47.5998-11.6979 46.7763-12.6861 46.941-13.6743L55.3407-66.7077C55.5054-68.0253 56.823-69.1782 58.1406-69.1782L78.234-69.1782C85.1514-69.1782 90.5865-67.6959 93.5511-64.2372C96.0431-61.2511 96.8666-57.7924 96.0431-52.7082Z"/>
   <path class="multicolor-2:tintColor hierarchical-0:tertiary SFSymbolsPreview007AFF" d="M75.9712 29.6074C84.8028 29.6074 93.1681 27.9389 100.847 24.5576C108.575 21.1763 115.481 16.5711 121.425 10.5825C127.32 4.68769 132.019-2.17384 135.356-9.99563C138.643-17.8174 140.406-26.0396 140.406-34.8711C140.406-43.7027 138.737-51.9743 135.356-59.7466C131.974-67.5684 127.369-74.3805 121.331-80.3248C115.436-86.2197 108.575-90.9186 100.753-94.2062C92.9312-97.5875 84.7091-99.256 75.8775-99.256C67.046-99.256 58.8238-97.5875 51.002-94.2062C43.1802-90.8249 36.4619-86.2197 30.5176-80.3248C24.6227-74.43 19.9238-67.5684 16.6362-59.7466C13.2764-51.9033 11.6079-43.6811 11.6079-34.8496C11.6079-26.0181 13.2764-17.7464 16.6577-9.9741C20.039-2.15231 24.6442 4.65975 30.5391 10.6041C36.4339 16.4989 43.2955 21.1978 51.1173 24.4854C58.9175 27.7515 67.2334 29.6074 75.9712 29.6074ZM75.9712 18.3847C68.6558 18.3847 61.7191 17.0391 55.2993 14.2543C48.8353 11.5633 43.239 7.74083 38.2851 2.78702C33.4466-2.05156 29.6241-7.71364 26.9115-14.2272C24.2205-20.6912 22.7597-27.5341 22.7597-34.9928C22.7597-42.4514 24.1052-49.2449 26.8178-55.7584C29.5089-62.2224 33.3313-67.9124 38.1914-72.7726C43.03-77.6111 48.6921-81.4336 55.2056-84.2399C61.6697-86.931 68.562-88.3917 75.8775-88.3917C83.2867-88.3917 90.1791-87.0462 96.6432-84.2399C103.107-81.4551 108.797-77.7264 113.657-72.7726C118.496-67.934 122.318-62.2719 125.125-55.7584C127.909-49.2943 129.276-42.402 129.276-34.9928C129.276-27.5836 127.931-20.7407 125.125-14.2272C122.434-7.76311 118.611-2.07309 113.751 2.78702C108.912 7.7193 103.25 11.5417 96.7863 14.348C90.388 17.0391 83.4514 18.3847 75.9712 18.3847Z"/>
  </g>
  <g id="Regular-L" transform="matrix(1 0 0 1 1374.57 1556)">
   <path class="multicolor-0:systemCyanColor hierarchical-1:secondary SFSymbolsPreview55BEF0" d="M99.3802-48.7554L99.3802-48.7554L99.3802-48.7554C99.3802-48.426 99.2155-47.9319 99.2155-47.6025C96.5803-33.9324 87.5218-29.3208 75.9928-29.3208L69.9598-29.3208C68.4775-29.3208 67.3246-28.3326 67.1599-26.8503L67.1599-26.8503L67.1599-26.8503L64.1953-7.7451L63.3718-2.31C63.2071-1.3218 63.8659-0.4983 64.8541-0.4983L75.2731-0.4983C76.5907-0.4983 77.5789-1.3218 77.7436-2.6394L77.9083-3.1335L79.8847-15.6507L79.8418-16.3095C80.0065-17.4624 81.1594-18.4506 82.3123-18.4506L83.7946-18.4506C94.006-18.4506 101.912-22.5681 104.217-34.4265C105.206-39.3675 104.711-43.485 102.076-46.4496C101.357-47.4378 100.472-48.0966 99.3802-48.7554Z"/>
   <path class="multicolor-1:systemBlueColor hierarchical-2:primary SFSymbolsPreview007AFF" d="M95.2627-52.7082C95.2627-52.3788 95.098-51.8847 95.098-51.5553C92.4628-37.8852 83.4043-33.2736 71.8753-33.2736L65.9461-33.2736C64.4638-33.2736 63.3109-32.2854 63.1462-30.8031L63.3109-31.4619L60.1816-11.6979L47.8291-11.6979C46.8409-11.6979 46.0174-12.6861 46.1821-13.6743L54.5818-66.7077C54.7465-68.0253 56.0641-69.1782 57.3817-69.1782L77.4751-69.1782C84.3925-69.1782 89.8276-67.6959 92.7922-64.2372C95.2627-61.2726 96.0862-57.8139 95.2627-52.7082Z"/>
   <path class="multicolor-2:tintColor hierarchical-0:tertiary SFSymbolsPreview007AFF" d="M75.1693 28.796C83.8804 28.796 92.1583 27.149 99.7165 23.8121C107.336 20.4752 114.174 15.9245 120.042 10.0133C125.85 4.20594 130.504-2.58965 133.798-10.3125C137.031-18.0354 138.782-26.1486 138.782-34.8597C138.782-43.5708 137.135-51.7449 133.798-59.4069C130.461-67.1297 125.911-73.8644 119.939-79.7327C114.131-85.5401 107.336-90.1946 99.6127-93.4277C91.8898-96.7646 83.7766-98.4116 75.0655-98.4116C66.3544-98.4116 58.2412-96.7646 50.5183-93.4277C42.7954-90.0908 36.1646-85.5401 30.2963-79.7327C24.4889-73.9253 19.8344-67.1297 16.6013-59.4069C13.2644-51.684 11.6174-43.5708 11.6174-34.8597C11.6174-26.1486 13.2644-17.9745 16.6013-10.3125C19.9382-2.58965 24.4889 4.14504 30.2963 10.0133C36.1036 15.8207 42.8992 20.4752 50.6221 23.7083C58.345 26.9414 66.562 28.796 75.1693 28.796ZM75.1693 19.6105C67.6789 19.6105 60.5788 18.232 54.0156 15.3712C47.4096 12.6142 41.67 8.70431 36.6072 3.6415C31.6482-1.31751 27.7383-7.10003 24.9813-13.7669C22.2242-20.373 20.7419-27.3693 20.7419-35.0244C20.7419-42.6795 22.1204-49.6149 24.8775-56.2818C27.6345-62.8879 31.5444-68.7313 36.5034-73.6903C41.4624-78.6493 47.2449-82.5592 53.9118-85.42C60.5179-88.177 67.5751-89.6593 75.0655-89.6593C82.6597-89.6593 89.7169-88.2808 96.3229-85.42C102.929-82.5592 108.772-78.7531 113.731-73.6903C118.69-68.7313 122.6-62.9488 125.461-56.2818C128.322-49.6758 129.7-42.6186 129.7-35.0244C129.7-27.4302 128.322-20.4339 125.461-13.7669C122.704-7.16093 118.794-1.31751 113.835 3.6415C108.876 8.70431 103.094 12.6142 96.4876 15.475C89.9245 18.232 82.8244 19.6105 75.1693 19.6105Z"/>
  </g>
  <g id="Light-L" transform="matrix(1 0 0 1 1078.76 1556)">
   <path class="multicolor-0:systemCyanColor hierarchical-1:secondary SFSymbolsPreview55BEF0" d="M98.4824-48.7554L98.4824-48.7554L98.4824-48.7554C98.4824-48.426 98.3177-47.9319 98.3177-47.6025C95.6825-33.9324 86.624-29.3208 75.095-29.3208L69.1041-29.3208C67.6218-29.3208 66.4689-28.3326 66.3042-26.8503L66.3042-26.8503L66.3042-26.8503L63.3396-7.7451L62.5161-2.31C62.3514-1.3218 63.0102-0.4983 63.9984-0.4983L74.3333-0.4983C75.6509-0.4983 76.6391-1.3218 76.8038-2.6394L76.9685-3.1335L78.9449-15.6507L78.9861-16.3095C79.1508-17.4624 80.3037-18.4506 81.4566-18.4506L82.9389-18.4506C93.1503-18.4506 101.056-22.5681 103.362-34.4265C104.35-39.3675 103.856-43.485 101.221-46.4496C100.459-47.4378 99.5324-48.0966 98.4824-48.7554Z"/>
   <path class="multicolor-1:systemBlueColor hierarchical-2:primary SFSymbolsPreview007AFF" d="M94.3649-52.7082C94.3649-52.3788 94.2002-51.8847 94.2002-51.5553C91.565-37.8852 82.5065-33.2736 70.9775-33.2736L65.0483-33.2736C63.566-33.2736 62.4131-32.2854 62.2484-30.8031L62.4131-31.4619L59.2838-11.6979L46.9313-11.6979C45.9431-11.6979 45.1196-12.6861 45.2843-13.6743L53.684-66.7077C53.8487-68.0253 55.1663-69.1782 56.4839-69.1782L76.5773-69.1782C83.4947-69.1782 88.9298-67.6959 91.8944-64.2372C94.3649-61.2726 95.1884-57.8139 94.3649-52.7082Z"/>
   <path class="multicolor-2:tintColor hierarchical-0:tertiary SFSymbolsPreview007AFF" d="M74.2715 27.8714C82.8565 27.8714 91.0504 26.2244 98.4825 22.9715C106.018 19.7187 112.688 15.21 118.514 9.42493C124.237 3.7016 128.808-3.00994 132.102-10.6067C135.293-18.2035 137.002-26.2327 137.002-34.8177C137.002-43.4027 135.355-51.5347 132.102-59.0286C128.849-66.6254 124.34-73.234 118.452-79.0603C112.729-84.7836 106.018-89.354 98.4207-92.5451C90.8239-95.7979 82.7948-97.4449 74.2098-97.4449C65.6248-97.4449 57.5956-95.7979 49.9989-92.5451C42.4021-89.2923 35.8552-84.7836 30.029-79.0603C24.3056-73.3369 19.7352-66.6254 16.5441-59.0286C13.2913-51.4318 11.6443-43.4027 11.6443-34.8177C11.6443-26.2327 13.2913-18.1006 16.5441-10.6067C19.797-3.00994 24.3056 3.59866 30.029 9.42493C35.7523 15.1483 42.4638 19.7187 50.0606 22.9098C57.6574 26.1008 65.7483 27.8714 74.2715 27.8714ZM74.2715 20.8714C66.613 20.8714 59.3868 19.4509 52.6135 16.548C45.8814 13.707 39.9317 9.71301 34.7848 4.56614C29.6997-0.518961 25.7057-6.42756 22.8647-13.2626C20.0236-19.9947 18.5413-27.1591 18.5413-34.9824C18.5413-42.8056 19.9618-49.8671 22.8029-56.7021C25.644-63.4342 29.6379-69.4458 34.723-74.5309C39.8081-79.616 45.7167-83.6099 52.5518-86.5128C59.2839-89.3538 66.5512-90.8361 74.2098-90.8361C81.9301-90.8361 89.1975-89.4156 95.9296-86.5128C102.662-83.6099 108.673-79.6777 113.758-74.5309C118.843-69.4458 122.837-63.5372 125.74-56.7021C128.643-49.97 130.064-42.7027 130.064-34.9824C130.064-27.2621 128.643-20.0976 125.74-13.2626C122.899-6.5305 118.905-0.518961 113.82 4.56614C108.735 9.71301 102.826 13.707 96.0943 16.6098C89.321 19.4509 82.0948 20.8714 74.2715 20.8714Z"/>
  </g>
  <g id="Thin-L" transform="matrix(1 0 0 1 783.245 1556)">
   <path class="multicolor-0:systemCyanColor hierarchical-1:secondary SFSymbolsPreview55BEF0" d="M97.2951-48.7554L97.2951-48.7554L97.2951-48.7554C97.2951-48.426 97.1304-47.9319 97.1304-47.6025C94.4952-33.9324 85.4367-29.3208 73.9077-29.3208L67.9723-29.3208C66.49-29.3208 65.3371-28.3326 65.1724-26.8503L65.1724-26.8503L65.1724-26.8503L62.2078-7.7451L61.3843-2.31C61.2196-1.3218 61.8784-0.4983 62.8666-0.4983L73.0904-0.4983C74.408-0.4983 75.3962-1.3218 75.5609-2.6394L75.7256-3.1335L77.702-15.6507L77.8543-16.3095C78.019-17.4624 79.1719-18.4506 80.3248-18.4506L81.8071-18.4506C92.0185-18.4506 99.9241-22.5681 102.23-34.4265C103.218-39.3675 102.724-43.485 100.089-46.4496C99.2715-47.4378 98.2895-48.0966 97.2951-48.7554Z"/>
   <path class="multicolor-1:systemBlueColor hierarchical-2:primary SFSymbolsPreview007AFF" d="M93.1776-52.7082C93.1776-52.3788 93.0129-51.8847 93.0129-51.5553C90.3777-37.8852 81.3192-33.2736 69.7902-33.2736L63.861-33.2736C62.3787-33.2736 61.2258-32.2854 61.0611-30.8031L61.2258-31.4619L58.0965-11.6979L45.744-11.6979C44.7558-11.6979 43.9323-12.6861 44.097-13.6743L52.4967-66.7077C52.6614-68.0253 53.979-69.1782 55.2966-69.1782L75.39-69.1782C82.3074-69.1782 87.7425-67.6959 90.7071-64.2372C93.1776-61.2726 94.0011-57.8139 93.1776-52.7082Z"/>
   <path class="multicolor-2:tintColor hierarchical-0:tertiary SFSymbolsPreview007AFF" d="M73.0842 26.6485C81.5025 26.6485 89.5851 25.0015 96.8505 21.8598C104.274 18.7181 110.722 14.2651 116.493 8.64672C122.105 3.03456 126.564-3.5658 129.858-10.9958C132.994-18.4259 134.647-26.3438 134.647-34.7621C134.647-43.1803 133-51.2568 129.858-58.5283C126.717-65.9584 122.264-72.4002 116.487-78.1709C110.875-83.783 104.274-88.2423 96.8443-91.3778C89.4142-94.5194 81.4963-96.1664 73.078-96.1664C64.6598-96.1664 56.7418-94.5194 49.3118-91.3778C41.8818-88.2361 35.4461-83.783 29.6754-78.1709C24.0633-72.5587 19.604-65.9584 16.4685-58.5283C13.3269-51.0983 11.6799-43.1803 11.6799-34.7621C11.6799-26.3438 13.3269-18.2674 16.4685-10.9958C19.6102-3.5658 24.0633 2.87604 29.6754 8.64672C35.2876 14.2589 41.8879 18.7181 49.318 21.8536C56.748 24.9891 64.6722 26.6485 73.0842 26.6485ZM73.0842 22.539C65.2033 22.539 57.8104 21.0629 50.7592 18.1045C43.8603 15.1522 37.6326 11.0471 32.3746 5.78905C27.1227 0.537186 23.0176-5.53817 20.0653-12.5956C17.1131-19.4944 15.6308-26.8812 15.6308-34.9268C15.6308-42.9724 17.1069-50.2006 20.0591-57.258C23.0114-64.1569 27.1165-70.3907 32.3684-75.6426C37.6202-80.8945 43.6956-84.9996 50.753-87.958C57.6519-90.9103 65.1972-92.3926 73.078-92.3926C80.9651-92.3926 88.5104-90.9164 95.4093-87.958C102.308-84.9996 108.542-80.9006 113.794-75.6426C119.046-70.3907 123.151-64.3154 126.109-57.258C129.068-50.3591 130.544-42.8138 130.544-34.9268C130.544-27.0397 129.068-19.6529 126.109-12.5956C123.157-5.69669 119.052 0.537186 113.8 5.78905C108.548 11.0471 102.473 15.1522 95.574 18.1106C88.5228 21.0629 81.1298 22.539 73.0842 22.539Z"/>
  </g>
  <g id="Ultralight-L" transform="matrix(1 0 0 1 487.146 1556)">
   <path class="multicolor-0:systemCyanColor hierarchical-1:secondary SFSymbolsPreview55BEF0" d="M96.687-48.7554L96.687-48.7554L96.687-48.7554C96.687-48.426 96.5223-47.9319 96.5223-47.6025C93.8871-33.9324 84.8286-29.3208 73.2996-29.3208L67.3927-29.3208C65.9104-29.3208 64.7575-28.3326 64.5928-26.8503L64.5928-26.8503L64.5928-26.8503L61.6282-7.7451L60.8047-2.31C60.64-1.3218 61.2988-0.4983 62.287-0.4983L72.4538-0.4983C73.7714-0.4983 74.7596-1.3218 74.9243-2.6394L75.089-3.1335L77.0654-15.6507L77.2747-16.3095C77.4394-17.4624 78.5923-18.4506 79.7452-18.4506L81.2275-18.4506C91.4389-18.4506 99.3445-22.5681 101.65-34.4265C102.638-39.3675 102.144-43.485 99.5092-46.4496C98.6634-47.4378 97.6529-48.0966 96.687-48.7554Z"/>
   <path class="multicolor-1:systemBlueColor hierarchical-2:primary SFSymbolsPreview007AFF" d="M92.5695-52.7082C92.5695-52.3788 92.4048-51.8847 92.4048-51.5553C89.7696-37.8852 80.7111-33.2736 69.1821-33.2736L63.2529-33.2736C61.7706-33.2736 60.6177-32.2854 60.453-30.8031L60.6177-31.4619L57.4884-11.6979L45.1359-11.6979C44.1477-11.6979 43.3242-12.6861 43.4889-13.6743L51.8886-66.7077C52.0533-68.0253 53.3709-69.1782 54.6885-69.1782L74.7819-69.1782C81.6993-69.1782 87.1344-67.6959 90.099-64.2372C92.5695-61.2726 93.393-57.8139 92.5695-52.7082Z"/>
   <path class="multicolor-2:tintColor hierarchical-0:tertiary SFSymbolsPreview007AFF" d="M72.4761 26.0221C80.8089 26.0221 88.8346 24.3751 96.0145 21.2904C103.381 18.2057 109.716 13.781 115.458 8.24812C121.013 2.6929 125.415-3.85052 128.709-11.1951C131.816-18.5398 133.441-26.4008 133.441-34.7336C133.441-43.0664 131.794-51.1144 128.709-58.2721C125.625-65.6167 121.2-71.9731 115.48-77.7153C109.925-83.2706 103.381-87.6729 96.0368-90.7799C88.6922-93.8646 80.8312-95.5116 72.4984-95.5116C64.1655-95.5116 56.3045-93.8646 48.9599-90.7799C41.6153-87.6952 35.2366-83.2706 29.4943-77.7153C23.9391-72.1601 19.5368-65.6167 16.4298-58.2721C13.3451-50.9275 11.6981-43.0664 11.6981-34.7336C11.6981-26.4008 13.3451-18.3528 16.4298-11.1951C19.5145-3.85052 23.9391 2.50591 29.4943 8.24812C35.0496 13.8033 41.593 18.2057 48.9376 21.3127C56.2822 24.4197 64.121 26.0221 72.4761 26.0221ZM72.4761 23.3931C64.4813 23.3931 57.0029 21.8886 49.8094 18.9017C42.8251 15.8925 36.455 11.7304 31.1401 6.41541C25.8028 1.07814 21.6407-5.08263 18.6315-12.2539C15.6223-19.2382 14.14-26.7388 14.14-34.8983C14.14-43.0578 15.6446-50.3714 18.6538-57.5427C21.663-64.527 25.8251-70.8748 31.1623-76.212C36.4996-81.5493 42.6604-85.7114 49.8317-88.6983C56.8159-91.7075 64.5036-93.1898 72.4984-93.1898C80.4708-93.1898 88.1585-91.6852 95.1428-88.6983C102.127-85.7114 108.475-81.527 113.812-76.212C119.149-70.8748 123.311-64.714 126.298-57.5427C129.285-50.5584 130.79-42.8708 130.79-34.8983C130.79-26.9258 129.285-19.4252 126.298-12.2539C123.289-5.26963 119.127 1.07814 113.79 6.41541C108.453 11.7304 102.292 15.8925 95.3075 18.8794C88.1139 21.8886 80.6355 23.3931 72.4761 23.3931Z"/>
  </g>
  <g id="Black-M" transform="matrix(1 0 0 1 2871.07 1126)">
   <path class="multicolor-0:systemCyanColor hierarchical-1:secondary SFSymbolsPreview55BEF0" d="M80.9268-45.5963L80.9268-45.5963L80.9268-45.5963C80.9268-45.3411 80.7992-44.9583 80.7992-44.7031C78.7576-34.1123 71.7396-30.5395 62.8076-30.5395L58.2027-30.5395C57.0543-30.5395 56.1611-29.7739 56.0335-28.6255L56.0335-28.6255L56.0335-28.6255L53.6198-13.8239L52.9818-9.61307C52.8542-8.84747 53.3646-8.20947 54.1302-8.20947L62.2979-8.20947C63.3187-8.20947 64.0843-8.84747 64.2119-9.86827L64.3395-10.2511L65.8707-19.9487L65.9757-20.4591C66.1033-21.3523 66.9965-22.1179 67.8897-22.1179L68.9211-22.1179C76.8323-22.1179 82.9571-25.3079 84.7435-34.4951C85.5091-38.3231 85.1263-41.5131 83.0847-43.8099C82.575-44.5755 81.8207-45.2028 80.9268-45.5963Z"/>
   <path class="multicolor-1:systemBlueColor hierarchical-2:primary SFSymbolsPreview007AFF" d="M77.7368-48.7756C77.7368-48.5204 77.6092-48.1376 77.6092-47.8824C75.5676-37.2916 68.5496-33.7188 59.6176-33.7188L55.024-33.7188C53.8756-33.7188 52.9824-32.9532 52.8548-31.8048L52.9824-32.3152L50.558-17.0032L40.8711-17.0032C40.1055-17.0032 39.4675-17.7688 39.5951-18.5344L46.1027-59.6216C46.2303-60.6424 47.2511-61.5356 48.2719-61.5356L63.8391-61.5356C69.1983-61.5356 73.4091-60.3872 75.7059-57.7076C77.7368-55.2939 78.3748-52.6143 77.7368-48.7756Z"/>
   <path class="multicolor-2:tintColor hierarchical-0:tertiary SFSymbolsPreview007AFF" d="M62.2866 18.4612C69.6466 18.4612 76.5062 17.0682 82.973 14.2705C89.4392 11.4727 95.0454 7.6654 99.9905 2.70846C104.936-2.23719 108.755-7.8315 111.541-14.309C114.327-20.7864 115.731-27.6354 115.731-34.9954C115.731-42.3554 114.338-49.2038 111.541-55.6819C108.743-62.1593 104.935-67.7543 99.9792-72.6993C95.0335-77.645 89.4392-81.4635 82.9617-84.25C76.4843-87.0478 69.6353-88.4407 62.2753-88.4407C54.9153-88.4407 48.0663-87.0478 41.5888-84.25C35.1114-81.4522 29.5277-77.645 24.5827-72.6993C19.637-67.7537 15.8185-62.1593 13.032-55.6819C10.3511-49.0875 8.95819-42.2385 8.95819-34.8785C8.95819-27.5185 10.3511-20.6701 13.1489-14.192C15.9467-7.71457 19.754-2.11963 24.6996 2.82539C29.6453 7.77104 35.2396 11.5896 41.717 14.3761C48.0776 17.0457 54.9379 18.4612 62.2866 18.4612ZM62.2866 1.02423C57.3763 1.02423 52.7205 0.12099 48.3426-1.69679C43.9527-3.50327 40.2128-6.08603 36.8537-9.44505C33.623-12.6758 31.0402-16.5446 29.1168-20.9339C27.3103-25.3237 26.2788-29.9682 26.2788-34.8892C26.2788-39.8101 27.1821-44.4552 29.1055-48.8444C30.912-53.2343 33.4947-56.9855 36.8425-60.3333C40.0733-63.5641 43.9421-66.1468 48.3313-68.0815C52.7212-69.888 57.365-70.9195 62.2753-70.9195C67.1969-70.9195 71.8407-70.0162 76.2306-68.0815C80.6204-66.2637 84.3717-63.6923 87.7194-60.3333C90.9502-57.1025 93.5329-53.2337 95.4676-48.8444C97.2854-44.4546 98.3056-39.8108 98.3056-34.8892C98.3056-29.9676 97.4024-25.3231 95.4676-20.9339C93.6612-16.544 91.0784-12.7928 87.7307-9.44505C84.4999-6.20296 80.6311-3.62021 76.2412-1.6855C71.9802 0.12099 67.3245 1.02423 62.2866 1.02423Z"/>
  </g>
  <g id="Heavy-M" transform="matrix(1 0 0 1 2575.18 1126)">
   <path class="multicolor-0:systemCyanColor hierarchical-1:secondary SFSymbolsPreview55BEF0" d="M80.1194-45.6239L80.1194-45.6239L80.1194-45.6239C80.1194-45.3687 79.9918-44.9859 79.9918-44.7307C77.9502-34.1399 70.9322-30.5671 62.0002-30.5671L57.3734-30.5671C56.225-30.5671 55.3318-29.8015 55.2042-28.6531L55.2042-28.6531L55.2042-28.6531L52.818-13.8515L52.18-9.64066C52.0524-8.87506 52.5628-8.23706 53.3284-8.23706L61.4848-8.23706C62.5056-8.23706 63.2712-8.87506 63.3988-9.89586L63.5264-10.2787L65.0576-19.9763L65.1187-20.4867C65.2463-21.3799 66.1395-22.1455 67.0327-22.1455L68.0918-22.1455C76.003-22.1455 82.1278-25.3355 83.9142-34.5227C84.6798-38.3507 84.297-41.5407 82.2554-43.8375C81.74-44.6031 81.0076-45.2028 80.1194-45.6239Z"/>
   <path class="multicolor-1:systemBlueColor hierarchical-2:primary SFSymbolsPreview007AFF" d="M76.9294-48.7756C76.9294-48.5204 76.8018-48.1376 76.8018-47.8824C74.7602-37.2916 67.7422-33.7188 58.8102-33.7188L54.2166-33.7188C53.0682-33.7188 52.175-32.9532 52.0474-31.8048L52.175-32.3152L49.7506-17.0032L40.0913-17.0032C39.3257-17.0032 38.6877-17.7688 38.8153-18.5344L45.3229-59.6216C45.4505-60.6424 46.4713-61.5356 47.4921-61.5356L63.0593-61.5356C68.4185-61.5356 72.6293-60.3872 74.9261-57.7076C76.9294-55.3215 77.5674-52.6419 76.9294-48.7756Z"/>
   <path class="multicolor-2:tintColor hierarchical-0:tertiary SFSymbolsPreview007AFF" d="M61.4516 17.6198C68.6843 17.6198 75.4499 16.2545 81.7894 13.4955C88.1339 10.7366 93.69 6.99015 98.5467 2.1053C103.398-2.74629 107.178-8.27415 109.909-14.6519C112.634-21.0297 114.033-27.7571 114.033-34.9898C114.033-42.2225 112.668-48.9549 109.909-55.3276C107.15-61.7054 103.403-67.2283 98.5134-72.0849C93.6618-76.9365 88.1339-80.7162 81.7561-83.4419C75.3784-86.2008 68.651-87.5661 61.4183-87.5661C54.1856-87.5661 47.4582-86.2008 41.0804-83.4419C34.7027-80.683 29.2131-76.9365 24.3565-72.0849C19.5049-67.2333 15.7251-61.7054 12.9995-55.3276C10.3299-48.8605 8.96455-42.1332 8.96455-34.9005C8.96455-27.6677 10.3299-20.9354 13.0888-14.5626C15.8477-8.18482 19.5942-2.66196 24.4458 2.19464C29.2974 7.04624 34.8253 10.826 41.203 13.5516C47.4915 16.188 54.2521 17.6198 61.4516 17.6198ZM61.4516 2.3246C56.3531 2.3246 51.5149 1.38813 46.9985-0.518068C42.4537-2.39101 38.5752-5.06781 35.0946-8.54848C31.7365-11.9066 29.0597-15.9026 27.0974-20.4524C25.2245-24.9971 24.1654-29.802 24.1654-34.9387C24.1654-40.0754 25.1019-44.8753 27.0642-49.4251C28.9371-53.9698 31.6139-57.8815 35.0613-61.329C38.4194-64.687 42.4155-67.3638 46.9652-69.3594C51.5099-71.2323 56.3199-72.2914 61.4183-72.2914C66.55-72.2914 71.3599-71.3549 75.9046-69.3594C80.4494-67.4532 84.3611-64.8096 87.8085-61.329C91.1666-57.9709 93.8434-53.9748 95.8389-49.4251C97.7451-44.8803 98.771-40.0704 98.771-34.9387C98.771-29.8071 97.8345-25.0021 95.8389-20.4524C93.966-15.9076 91.2892-11.9959 87.8418-8.54848C84.4837-5.15715 80.4876-2.48035 75.9429-0.484812C71.5158 1.38813 66.6776 2.3246 61.4516 2.3246Z"/>
  </g>
  <g id="Bold-M" transform="matrix(1 0 0 1 2279.4 1126)">
   <path class="multicolor-0:systemCyanColor hierarchical-1:secondary SFSymbolsPreview55BEF0" d="M79.2162-45.6547L79.2162-45.6547L79.2162-45.6547C79.2162-45.3995 79.0886-45.0167 79.0886-44.7615C77.047-34.1707 70.029-30.5979 61.097-30.5979L56.4456-30.5979C55.2972-30.5979 54.404-29.8323 54.2764-28.6839L54.2764-28.6839L54.2764-28.6839L51.9211-13.8823L51.2831-9.67153C51.1555-8.90593 51.6659-8.26793 52.4315-8.26793L60.5753-8.26793C61.5961-8.26793 62.3617-8.90593 62.4893-9.92673L62.6169-10.3095L64.1481-20.0071L64.16-20.5175C64.2876-21.4107 65.1808-22.1763 66.074-22.1763L67.164-22.1763C75.0752-22.1763 81.2-25.3663 82.9864-34.5535C83.752-38.3815 83.3692-41.5715 81.3276-43.8683C80.8059-44.6339 80.0981-45.2028 79.2162-45.6547Z"/>
   <path class="multicolor-1:systemBlueColor hierarchical-2:primary SFSymbolsPreview007AFF" d="M76.0262-48.7756C76.0262-48.5204 75.8986-48.1376 75.8986-47.8824C73.857-37.2916 66.839-33.7188 57.907-33.7188L53.3134-33.7188C52.165-33.7188 51.2718-32.9532 51.1442-31.8048L51.2718-32.3152L48.8474-17.0032L39.2189-17.0032C38.4533-17.0032 37.8153-17.7688 37.9429-18.5344L44.4505-59.6216C44.5781-60.6424 45.5989-61.5356 46.6197-61.5356L62.1869-61.5356C67.5461-61.5356 71.7569-60.3872 74.0537-57.7076C76.0262-55.3523 76.6642-52.6727 76.0262-48.7756Z"/>
   <path class="multicolor-2:tintColor hierarchical-0:tertiary SFSymbolsPreview007AFF" d="M60.5175 16.6786C67.6078 16.6786 74.2682 15.3441 80.4654 12.6287C86.6738 9.91323 92.1739 6.2348 96.9316 1.43058C101.678-3.3158 105.414-8.76933 108.083-15.0356C110.741-21.3019 112.133-27.8931 112.133-34.9835C112.133-42.0738 110.799-48.6764 108.083-54.9314C105.368-61.1977 101.689-66.6399 96.8737-71.3976C92.1273-76.144 86.6738-79.8802 80.4075-82.5378C74.1412-85.2533 67.55-86.5878 60.4596-86.5878C53.3693-86.5878 46.778-85.2533 40.5118-82.5378C34.2455-79.8224 28.8611-76.144 24.1034-71.3976C19.357-66.6512 15.6208-61.1977 12.9631-54.9314C10.3061-48.6066 8.97167-42.0154 8.97167-34.925C8.97167-27.8347 10.3061-21.2321 13.0216-14.9771C15.737-8.71086 19.4155-3.26864 24.1619 1.48905C28.9082 6.23544 34.3618 9.97169 40.6281 12.6293C46.8359 15.2285 53.485 16.6786 60.5175 16.6786ZM60.5175 3.77924C55.2086 3.77924 50.1663 2.8056 45.4949 0.800499C40.7769-1.14678 36.7434-3.92879 33.1267-7.54554C29.6262-11.046 26.8442-15.1844 24.8385-19.9137C22.8912-24.6317 21.8013-29.6162 21.8013-34.9942C21.8013-40.3721 22.7749-45.3453 24.7806-50.0746C26.7279-54.7926 29.5099-58.8839 33.0688-62.4428C36.5693-65.9432 40.7078-68.7252 45.437-70.7888C50.155-72.7361 55.1508-73.826 60.4596-73.826C65.8263-73.826 70.8221-72.8524 75.5401-70.7888C80.2581-68.7837 84.3494-66.0595 87.9083-62.4428C91.4087-58.9423 94.1907-54.8039 96.2543-50.0746C98.2594-45.3566 99.2915-40.3608 99.2915-34.9942C99.2915-29.6275 98.3179-24.643 96.2543-19.9137C94.307-15.1957 91.525-11.1045 87.9661-7.54554C84.4656-3.98726 80.3272-1.20525 75.6092 0.858326C70.9962 2.8056 65.9539 3.77924 60.5175 3.77924Z"/>
  </g>
  <g id="Semibold-M" transform="matrix(1 0 0 1 1983.32 1126)">
   <path class="multicolor-0:systemCyanColor hierarchical-1:secondary SFSymbolsPreview55BEF0" d="M78.5935-45.676L78.5935-45.676L78.5935-45.676C78.5935-45.4208 78.4659-45.038 78.4659-44.7828C76.4243-34.192 69.4063-30.6192 60.4743-30.6192L55.806-30.6192C54.6576-30.6192 53.7644-29.8536 53.6368-28.7052L53.6368-28.7052L53.6368-28.7052L51.3028-13.9036L50.6648-9.69282C50.5372-8.92722 51.0476-8.28922 51.8132-8.28922L59.9483-8.28922C60.9691-8.28922 61.7347-8.92722 61.8623-9.94802L61.9899-10.3308L63.5211-20.0284L63.4992-20.5388C63.6268-21.432 64.52-22.1976 65.4132-22.1976L66.5244-22.1976C74.4356-22.1976 80.5604-25.3876 82.3468-34.5748C83.1124-38.4028 82.7296-41.5928 80.688-43.8896C80.1619-44.6552 79.4711-45.2028 78.5935-45.676Z"/>
   <path class="multicolor-1:systemBlueColor hierarchical-2:primary SFSymbolsPreview007AFF" d="M75.4035-48.7756C75.4035-48.5204 75.2759-48.1376 75.2759-47.8824C73.2343-37.2916 66.2163-33.7188 57.2843-33.7188L52.6907-33.7188C51.5423-33.7188 50.6491-32.9532 50.5215-31.8048L50.6491-32.3152L48.2247-17.0032L38.6176-17.0032C37.852-17.0032 37.214-17.7688 37.3416-18.5344L43.8492-59.6216C43.9768-60.6424 44.9976-61.5356 46.0184-61.5356L61.5856-61.5356C66.9448-61.5356 71.1556-60.3872 73.4524-57.7076C75.4035-55.3736 76.0415-52.694 75.4035-48.7756Z"/>
   <path class="multicolor-2:tintColor hierarchical-0:tertiary SFSymbolsPreview007AFF" d="M59.8735 16.0297C66.8657 16.0297 73.4536 14.7166 79.5526 12.0311C85.6672 9.34558 91.1286 5.71406 95.8181 0.965437C100.492-3.70842 104.198-9.11069 106.825-15.3001C109.435-21.4895 110.823-27.987 110.823-34.9792C110.823-41.9713 109.51-48.4844 106.825-54.6582C104.139-60.8476 100.508-66.2342 95.7433-70.9237C91.0695-75.5976 85.6672-79.3039 79.4778-81.9146C73.2884-84.6001 66.7909-85.9133 59.7988-85.9133C52.8066-85.9133 46.3091-84.6001 40.1197-81.9146C33.9303-79.2291 28.6184-75.5976 23.9289-70.9237C19.2551-66.2499 15.5488-60.8476 12.9381-54.6582C10.2898-48.4316 8.97658-41.9342 8.97658-34.942C8.97658-27.9498 10.2898-21.4367 12.9752-15.2629C15.6607-9.07351 19.2923-3.68688 23.9661 1.00262C28.64 5.67648 34.0422 9.38277 40.2317 11.9935C46.3839 14.567 52.9561 16.0297 59.8735 16.0297ZM59.8735 4.78207C54.4196 4.78207 49.2366 3.7828 44.4583 1.70951C39.6209-0.289016 35.4806-3.14356 31.77-6.85412C28.1714-10.4527 25.3169-14.6893 23.2812-19.5424C21.2826-24.3798 20.1714-29.4881 20.1714-35.0324C20.1714-40.5767 21.1707-45.6693 23.2064-50.5224C25.2049-55.3598 28.0595-59.5749 31.6953-63.2106C35.2939-66.8093 39.5305-69.6638 44.3835-71.7743C49.221-73.7728 54.3449-74.884 59.7988-74.884C65.3274-74.884 70.4513-73.8848 75.2887-71.7743C80.1262-69.701 84.3412-66.9212 87.977-63.2106C91.5756-59.612 94.4302-55.3754 96.5406-50.5224C98.6139-45.6849 99.6504-40.561 99.6504-35.0324C99.6504-29.5037 98.6511-24.3955 96.5406-19.5424C94.5421-14.705 91.6876-10.4899 88.0518-6.85412C84.4532-3.18074 80.2166-0.326201 75.3792 1.78428C70.638 3.7828 65.455 4.78207 59.8735 4.78207Z"/>
  </g>
  <g id="Medium-M" transform="matrix(1 0 0 1 1687.09 1126)">
   <path class="multicolor-0:systemCyanColor hierarchical-1:secondary SFSymbolsPreview55BEF0" d="M78.1214-45.6922L78.1214-45.6922L78.1214-45.6922C78.1214-45.437 77.9938-45.0542 77.9938-44.799C75.9522-34.2082 68.9342-30.6354 60.0022-30.6354L55.321-30.6354C54.1726-30.6354 53.2794-29.8698 53.1518-28.7214L53.1518-28.7214L53.1518-28.7214L50.8339-13.9198L50.1959-9.70895C50.0683-8.94335 50.5787-8.30535 51.3443-8.30535L59.4729-8.30535C60.4937-8.30535 61.2593-8.94335 61.3869-9.96415L61.5145-10.347L63.0457-20.0446L62.998-20.555C63.1256-21.4482 64.0188-22.2138 64.912-22.2138L66.0394-22.2138C73.9506-22.2138 80.0754-25.4038 81.8618-34.591C82.6274-38.419 82.2446-41.609 80.203-43.9058C79.6737-44.6714 78.9957-45.2028 78.1214-45.6922Z"/>
   <path class="multicolor-1:systemBlueColor hierarchical-2:primary SFSymbolsPreview007AFF" d="M74.9314-48.7756C74.9314-48.5204 74.8038-48.1376 74.8038-47.8824C72.7622-37.2916 65.7442-33.7188 56.8122-33.7188L52.2186-33.7188C51.0702-33.7188 50.177-32.9532 50.0494-31.8048L50.177-32.3152L47.7526-17.0032L38.1616-17.0032C37.396-17.0032 36.758-17.7688 36.8856-18.5344L43.3932-59.6216C43.5208-60.6424 44.5416-61.5356 45.5624-61.5356L61.1296-61.5356C66.4888-61.5356 70.6996-60.3872 72.9964-57.7076C74.9314-55.3898 75.5694-52.7102 74.9314-48.7756Z"/>
   <path class="multicolor-2:tintColor hierarchical-0:tertiary SFSymbolsPreview007AFF" d="M59.3853 15.5378C66.303 15.5378 72.8359 14.2407 78.8605 11.5779C84.904 8.91517 90.3361 5.31922 94.9739 0.612743C99.5927-4.00612 103.276-9.36953 105.87-15.5007C108.446-21.6318 109.83-28.0581 109.83-34.9759C109.83-41.8936 108.533-48.3389 105.87-54.4511C103.208-60.5822 99.6117-65.9267 94.8862-70.5645C90.2674-75.1833 84.904-78.8669 78.7728-81.442C72.6417-84.1048 66.2154-85.4019 59.2976-85.4019C52.3799-85.4019 45.9536-84.1048 39.8224-81.442C33.6913-78.7793 28.4345-75.1833 23.7966-70.5645C19.1778-65.9456 15.4942-60.5822 12.9191-54.4511C10.2773-48.2989 8.9803-41.8726 8.9803-34.9548C8.9803-28.037 10.2773-21.5918 12.9401-15.4796C15.6029-9.34849 19.1988-4.00401 23.8177 0.633791C28.4366 5.25265 33.8 8.93622 39.9311 11.5114C46.0412 14.0655 52.5551 15.5378 59.3853 15.5378ZM59.3853 5.54245C53.8214 5.54245 48.5316 4.52376 43.6723 2.39876C38.7444 0.361376 34.523-2.54816 30.7413-6.32985C27.0683-10.0029 24.1588-14.3139 22.1003-19.2608C20.063-24.1888 18.9356-29.3909 18.9356-35.0614C18.9356-40.7318 19.9543-45.915 22.0127-50.8619C24.0501-55.7899 26.9597-60.0988 30.6537-63.7929C34.3268-67.4659 38.6378-70.3754 43.5847-72.5215C48.5127-74.5589 53.7338-75.6862 59.2976-75.6862C64.9491-75.6862 70.1702-74.6675 75.0982-72.5215C80.0262-70.3965 84.3351-67.5746 88.0292-63.7929C91.7022-60.1198 94.6117-55.8088 96.7578-50.8619C98.8828-45.9339 99.9225-40.7128 99.9225-35.0614C99.9225-29.4099 98.9038-24.2078 96.7578-19.2608C94.7204-14.3329 91.8108-10.0239 88.1168-6.32985C84.4437-2.56921 80.1327 0.340328 75.2047 2.48637C70.3665 4.52376 65.0767 5.54245 59.3853 5.54245Z"/>
  </g>
  <g id="Regular-M" transform="matrix(1 0 0 1 1391.01 1126)">
   <path class="multicolor-0:systemCyanColor hierarchical-1:secondary SFSymbolsPreview55BEF0" d="M77.5056-45.7132L77.5056-45.7132L77.5056-45.7132C77.5056-45.458 77.378-45.0752 77.378-44.82C75.3364-34.2292 68.3184-30.6564 59.3864-30.6564L54.6884-30.6564C53.54-30.6564 52.6468-29.8908 52.5192-28.7424L52.5192-28.7424L52.5192-28.7424L50.2224-13.9408L49.5844-9.73C49.4568-8.9644 49.9672-8.3264 50.7328-8.3264L58.8527-8.3264C59.8735-8.3264 60.6391-8.9644 60.7667-9.9852L60.8943-10.368L62.4255-20.0656L62.3444-20.576C62.472-21.4692 63.3652-22.2348 64.2584-22.2348L65.4068-22.2348C73.318-22.2348 79.4428-25.4248 81.2292-34.612C81.9948-38.44 81.612-41.63 79.5704-43.9268C79.0368-44.6924 78.3755-45.2028 77.5056-45.7132Z"/>
   <path class="multicolor-1:systemBlueColor hierarchical-2:primary SFSymbolsPreview007AFF" d="M74.3156-48.7756C74.3156-48.5204 74.188-48.1376 74.188-47.8824C72.1464-37.2916 65.1284-33.7188 56.1964-33.7188L51.6028-33.7188C50.4544-33.7188 49.5612-32.9532 49.4336-31.8048L49.5612-32.3152L47.1368-17.0032L37.5668-17.0032C36.8012-17.0032 36.1632-17.7688 36.2908-18.5344L42.7984-59.6216C42.926-60.6424 43.9468-61.5356 44.9676-61.5356L60.5348-61.5356C65.894-61.5356 70.1048-60.3872 72.4016-57.7076C74.3156-55.4108 74.9536-52.7312 74.3156-48.7756Z"/>
   <path class="multicolor-2:tintColor hierarchical-0:tertiary SFSymbolsPreview007AFF" d="M58.7484 14.896C65.5691 14.896 72.0302 13.62 77.9577 10.9869C83.9084 8.35377 89.3023 4.8042 93.8726 0.152708C98.4198-4.39442 102.074-9.70715 104.626-15.7622C107.154-21.8173 108.535-28.1509 108.535-34.9716C108.535-41.7923 107.259-48.149 104.626-54.1809C101.993-60.236 98.443-65.5255 93.7683-70.0958C89.2212-74.643 83.9084-78.2969 77.8533-80.8257C71.7982-83.4588 65.4647-84.7348 58.644-84.7348C51.8233-84.7348 45.4898-83.4588 39.4347-80.8257C33.3796-78.1925 28.1945-74.643 23.6241-70.0958C19.077-65.5487 15.423-60.236 12.8943-54.1809C10.2612-48.1258 8.98515-41.7923 8.98515-34.9716C8.98515-28.1509 10.2612-21.7941 12.8943-15.7622C15.5274-9.70715 19.077-4.41766 23.6241 0.152708C28.1712 4.69984 33.484 8.35377 39.5391 10.8825C45.5942 13.4113 52.032 14.896 58.7484 14.896ZM58.7484 6.53425C53.041 6.53425 47.6121 5.49022 42.6472 3.29778C37.601 1.20971 33.2741-1.77156 29.3996-5.64603C25.6295-9.41613 22.6482-13.8242 20.5602-18.8936C18.4721-23.9397 17.3237-29.2642 17.3237-35.0992C17.3237-40.9341 18.3677-46.2354 20.4558-51.3048C22.5439-56.3509 25.5251-60.7822 29.2952-64.5523C33.0653-68.3224 37.4734-71.3037 42.5428-73.4961C47.5889-75.5842 52.9367-76.7326 58.644-76.7326C64.4557-76.7326 69.8035-75.6885 74.8496-73.4961C79.8957-71.3037 84.327-68.4268 88.0972-64.5523C91.8673-60.7822 94.8485-56.3741 97.041-51.3048C99.2334-46.2586 100.277-40.9109 100.277-35.0992C100.277-29.2875 99.2334-23.9629 97.041-18.8936C94.9529-13.8475 91.9716-9.41613 88.2015-5.64603C84.4314-1.77156 80.0233 1.20971 74.9772 3.40215C70.0122 5.49022 64.5833 6.53425 58.7484 6.53425Z"/>
  </g>
  <g id="Light-M" transform="matrix(1 0 0 1 1095.11 1126)">
   <path class="multicolor-0:systemCyanColor hierarchical-1:secondary SFSymbolsPreview55BEF0" d="M76.7007-45.7132L76.7007-45.7132L76.7007-45.7132C76.7007-45.458 76.5731-45.0752 76.5731-44.82C74.5315-34.2292 67.5135-30.6564 58.5815-30.6564L53.9212-30.6564C52.7728-30.6564 51.8796-29.8908 51.752-28.7424L51.752-28.7424L51.752-28.7424L49.4552-13.9408L48.8172-9.73C48.6896-8.9644 49.2-8.3264 49.9656-8.3264L58.0102-8.3264C59.031-8.3264 59.7966-8.9644 59.9242-9.9852L60.0518-10.368L61.583-20.0656L61.5772-20.576C61.7048-21.4692 62.598-22.2348 63.4912-22.2348L64.6396-22.2348C72.5508-22.2348 78.6756-25.4248 80.462-34.612C81.2276-38.44 80.8448-41.63 78.8032-43.9268C78.2319-44.6924 77.533-45.2028 76.7007-45.7132Z"/>
   <path class="multicolor-1:systemBlueColor hierarchical-2:primary SFSymbolsPreview007AFF" d="M73.5107-48.7756C73.5107-48.5204 73.3831-48.1376 73.3831-47.8824C71.3415-37.2916 64.3235-33.7188 55.3915-33.7188L50.7979-33.7188C49.6495-33.7188 48.7563-32.9532 48.6287-31.8048L48.7563-32.3152L46.3319-17.0032L36.7619-17.0032C35.9963-17.0032 35.3583-17.7688 35.4859-18.5344L41.9935-59.6216C42.1211-60.6424 43.1419-61.5356 44.1627-61.5356L59.7299-61.5356C65.0891-61.5356 69.2999-60.3872 71.5967-57.7076C73.5107-55.4108 74.1487-52.7312 73.5107-48.7756Z"/>
   <path class="multicolor-2:tintColor hierarchical-0:tertiary SFSymbolsPreview007AFF" d="M57.9435 14.067C64.6512 14.067 71.0369 12.791 76.8514 10.2333C82.7267 7.67551 87.9699 4.16362 92.5026-0.374828C96.9743-4.8466 100.553-10.084 103.105-16.026C105.596-21.9681 106.939-28.2262 106.939-34.9339C106.939-41.6415 105.663-47.9606 103.105-53.8418C100.547-59.7838 97.0352-64.9603 92.4359-69.4929C87.9641-73.9647 82.7267-77.5433 76.7847-80.0344C70.8426-82.5921 64.5845-83.8681 57.8768-83.8681C51.1692-83.8681 44.911-82.5921 38.969-80.0344C33.0269-77.4766 27.9171-73.9647 23.3845-69.4929C18.9127-65.0212 15.3341-59.7838 12.843-53.8418C10.2853-47.8997 9.00927-41.6415 9.00927-34.9339C9.00927-28.2262 10.2853-21.9071 12.843-16.026C15.4008-10.084 18.9127-4.90751 23.3845-0.374828C27.8562 4.09694 33.0936 7.67551 39.0356 10.1666C44.9777 12.6577 51.3025 14.067 57.9435 14.067ZM57.9435 7.66469C52.0854 7.66469 46.5435 6.58297 41.3901 4.35286C36.231 2.18942 31.7156-0.867208 27.7657-4.81704C23.8826-8.70019 20.826-13.2213 18.6625-18.4414C16.4991-23.6006 15.3507-29.0758 15.3507-35.0615C15.3507-41.0471 16.4324-46.4615 18.5959-51.6816C20.7593-56.8407 23.8159-61.4228 27.6991-65.3059C31.5822-69.1891 36.1034-72.2457 41.3234-74.4758C46.4826-76.6393 52.0188-77.7877 57.8768-77.7877C63.8016-77.7877 69.3378-76.7059 74.4969-74.4758C79.6561-72.2457 84.2381-69.2558 88.1213-65.3059C92.0044-61.4228 95.061-56.9016 97.2912-51.6816C99.5213-46.5224 100.603-40.9862 100.603-35.0615C100.603-29.1367 99.5213-23.6615 97.2912-18.4414C95.1277-13.2823 92.0711-8.70019 88.188-4.81704C84.3048-0.867208 79.7837 2.18942 74.6245 4.41954C69.4711 6.58297 63.9292 7.66469 57.9435 7.66469Z"/>
  </g>
  <g id="Thin-M" transform="matrix(1 0 0 1 799.469 1126)">
   <path class="multicolor-0:systemCyanColor hierarchical-1:secondary SFSymbolsPreview55BEF0" d="M75.6362-45.7132L75.6362-45.7132L75.6362-45.7132C75.6362-45.458 75.5086-45.0752 75.5086-44.82C73.467-34.2292 66.449-30.6564 57.517-30.6564L52.9066-30.6564C51.7582-30.6564 50.865-29.8908 50.7374-28.7424L50.7374-28.7424L50.7374-28.7424L48.4406-13.9408L47.8026-9.73C47.675-8.9644 48.1854-8.3264 48.951-8.3264L56.8958-8.3264C57.9166-8.3264 58.6822-8.9644 58.8098-9.9852L58.9374-10.368L60.4686-20.0656L60.5626-20.576C60.6902-21.4692 61.5834-22.2348 62.4766-22.2348L63.625-22.2348C71.5362-22.2348 77.661-25.4248 79.4474-34.612C80.213-38.44 79.8302-41.63 77.7886-43.9268C77.1674-44.6924 76.4186-45.2028 75.6362-45.7132Z"/>
   <path class="multicolor-1:systemBlueColor hierarchical-2:primary SFSymbolsPreview007AFF" d="M72.4462-48.7756C72.4462-48.5204 72.3186-48.1376 72.3186-47.8824C70.277-37.2916 63.259-33.7188 54.327-33.7188L49.7334-33.7188C48.585-33.7188 47.6918-32.9532 47.5642-31.8048L47.6918-32.3152L45.2674-17.0032L35.6974-17.0032C34.9318-17.0032 34.2938-17.7688 34.4214-18.5344L40.929-59.6216C41.0566-60.6424 42.0774-61.5356 43.0982-61.5356L58.6654-61.5356C64.0246-61.5356 68.2354-60.3872 70.5322-57.7076C72.4462-55.4108 73.0842-52.7312 72.4462-48.7756Z"/>
   <path class="multicolor-2:tintColor hierarchical-0:tertiary SFSymbolsPreview007AFF" d="M56.879 12.9706C63.4371 12.9706 69.7232 11.6946 75.3882 9.23655C81.1639 6.77845 86.2077 3.3164 90.6905-1.07254C95.0626-5.44463 98.5415-10.5823 101.094-16.3749C103.535-22.1674 104.828-28.3259 104.828-34.884C104.828-41.4422 103.552-47.7114 101.094-53.3932C98.6354-59.1858 95.1734-64.2127 90.6737-68.6956C86.3016-73.0677 81.1639-76.5465 75.3713-78.9878C69.5788-81.4459 63.4203-82.7219 56.8622-82.7219C50.304-82.7219 44.1455-81.4459 38.353-78.9878C32.5604-76.5297 27.5503-73.0677 23.0675-68.6956C18.6954-64.3235 15.2165-59.1858 12.7753-53.3932C10.3172-47.6007 9.04116-41.4422 9.04116-34.884C9.04116-28.3259 10.3172-22.0567 12.7753-16.3749C15.2334-10.5823 18.6954-5.55538 23.0675-1.07254C27.4396 3.29956 32.5773 6.77845 38.3698 9.2197C44.1624 11.6609 50.3377 12.9706 56.879 12.9706ZM56.879 9.15978C50.8216 9.15978 45.1301 8.02823 39.7276 5.74828C34.4189 3.48517 29.6543 0.328865 25.6048-3.72064C21.5722-7.7533 18.4159-12.424 16.1528-17.8434C13.8897-23.152 12.7413-28.8266 12.7413-35.0116C12.7413-41.1967 13.8728-46.7605 16.1359-52.1799C18.399-57.4886 21.5553-62.27 25.588-66.3027C29.6207-70.3353 34.2913-73.4916 39.7107-75.7716C45.0194-78.0347 50.8047-79.1831 56.8622-79.1831C62.9364-79.1831 68.7218-78.0515 74.0304-75.7716C79.3391-73.4916 84.1205-70.3522 88.1532-66.3027C92.1858-62.27 95.3421-57.5993 97.6221-52.1799C99.902-46.8713 101.034-41.0859 101.034-35.0116C101.034-28.9374 99.902-23.2628 97.6221-17.8434C95.359-12.5347 92.2027-7.7533 88.17-3.72064C84.1374 0.328865 79.4667 3.48517 74.158 5.76512C68.7555 8.02823 63.064 9.15978 56.879 9.15978Z"/>
  </g>
  <g id="Ultralight-M" transform="matrix(1 0 0 1 503.307 1126)">
   <path class="multicolor-0:systemCyanColor hierarchical-1:secondary SFSymbolsPreview55BEF0" d="M75.091-45.7132L75.091-45.7132L75.091-45.7132C75.091-45.458 74.9634-45.0752 74.9634-44.82C72.9218-34.2292 65.9038-30.6564 56.9718-30.6564L52.3868-30.6564C51.2384-30.6564 50.3452-29.8908 50.2176-28.7424L50.2176-28.7424L50.2176-28.7424L47.9208-13.9408L47.2828-9.73C47.1552-8.9644 47.6656-8.3264 48.4312-8.3264L56.3251-8.3264C57.3459-8.3264 58.1115-8.9644 58.2391-9.9852L58.3667-10.368L59.8979-20.0656L60.0428-20.576C60.1704-21.4692 61.0636-22.2348 61.9568-22.2348L63.1052-22.2348C71.0164-22.2348 77.1412-25.4248 78.9276-34.612C79.6932-38.44 79.3104-41.63 77.2688-43.9268C76.6222-44.6924 75.8479-45.2028 75.091-45.7132Z"/>
   <path class="multicolor-1:systemBlueColor hierarchical-2:primary SFSymbolsPreview007AFF" d="M71.901-48.7756C71.901-48.5204 71.7734-48.1376 71.7734-47.8824C69.7318-37.2916 62.7138-33.7188 53.7818-33.7188L49.1882-33.7188C48.0398-33.7188 47.1466-32.9532 47.019-31.8048L47.1466-32.3152L44.7222-17.0032L35.1522-17.0032C34.3866-17.0032 33.7486-17.7688 33.8762-18.5344L40.3838-59.6216C40.5114-60.6424 41.5322-61.5356 42.553-61.5356L58.1202-61.5356C63.4794-61.5356 67.6902-60.3872 69.987-57.7076C71.901-55.4108 72.539-52.7312 71.901-48.7756Z"/>
   <path class="multicolor-2:tintColor hierarchical-0:tertiary SFSymbolsPreview007AFF" d="M56.3338 12.4091C62.8153 12.4091 69.0504 11.1331 74.6387 8.72603C80.3634 6.31898 85.3051 2.88246 89.7624-1.4299C94.0834-5.75094 97.5113-10.8376 100.063-16.5536C102.479-22.2695 103.746-28.377 103.746-34.8585C103.746-41.3401 102.47-47.5838 100.063-53.1635C97.6562-58.8795 94.2197-63.8298 89.7711-68.2871C85.45-72.6082 80.3634-76.036 74.6474-78.4517C68.9315-80.8588 62.824-82.1348 56.3424-82.1348C49.8609-82.1348 43.7534-80.8588 38.0375-78.4517C32.3215-76.0447 27.3625-72.6082 22.9051-68.2871C18.5841-63.9661 15.1563-58.8795 12.7405-53.1635C10.3335-47.4475 9.0575-41.3401 9.0575-34.8585C9.0575-28.377 10.3335-22.1332 12.7405-16.5536C15.1476-10.8376 18.5841-5.88722 22.9051-1.4299C27.2262 2.89114 32.3128 6.31898 38.0288 8.73471C43.7448 11.1504 49.8435 12.4091 56.3338 12.4091ZM56.3338 9.92556C50.1743 9.92556 44.4062 8.76848 38.876 6.463C33.4908 4.14884 28.5986 0.941487 24.498-3.15907C20.3888-7.26831 17.1814-12.0155 14.8673-17.5371C12.5531-22.9223 11.4047-28.699 11.4047-34.9861C11.4047-41.2732 12.5618-46.9137 14.876-52.4352C17.1901-57.8204 20.3975-62.7039 24.5067-66.8132C28.616-70.9224 33.3632-74.1298 38.8847-76.4352C44.2699-78.7494 50.1829-79.8978 56.3424-79.8978C62.4933-79.8978 68.4063-78.7407 73.7915-76.4352C79.1767-74.1298 84.0603-70.9137 88.1695-66.8132C92.2787-62.7039 95.4861-57.9567 97.7916-52.4352C100.097-47.05 101.254-41.137 101.254-34.9861C101.254-28.8353 100.097-23.0586 97.7916-17.5371C95.4774-12.1518 92.2701-7.26831 88.1608-3.15907C84.0516 0.941487 79.3043 4.14884 73.9191 6.45432C68.3889 8.76848 62.6209 9.92556 56.3338 9.92556Z"/>
  </g>
  <g id="Black-S" transform="matrix(1 0 0 1 2884.35 696)">
   <path class="multicolor-0:systemCyanColor hierarchical-1:secondary SFSymbolsPreview55BEF0" d="M63.62-43.35L63.62-43.35L63.62-43.35C63.62-43.15 63.52-42.85 63.52-42.65C61.92-34.35 56.42-31.55 49.42-31.55L45.82-31.55C44.92-31.55 44.22-30.95 44.12-30.05L44.12-30.05L44.12-30.05L42.22-18.45L41.72-15.15C41.62-14.55 42.02-14.05 42.62-14.05L49.02-14.05C49.82-14.05 50.42-14.55 50.52-15.35L50.62-15.65L51.82-23.25L51.92-23.65C52.02-24.35 52.72-24.95 53.42-24.95L54.22-24.95C60.42-24.95 65.22-27.45 66.62-34.65C67.22-37.65 66.92-40.15 65.32-41.95C64.92-42.55 64.32-43.05 63.62-43.35Z"/>
   <path class="multicolor-1:systemBlueColor hierarchical-2:primary SFSymbolsPreview007AFF" d="M61.12-45.85C61.12-45.65 61.02-45.35 61.02-45.15C59.42-36.85 53.92-34.05 46.92-34.05L43.32-34.05C42.42-34.05 41.72-33.45 41.62-32.55L41.72-32.95L39.82-20.95L32.22-20.95C31.62-20.95 31.12-21.55 31.22-22.15L36.32-54.35C36.42-55.15 37.22-55.85 38.02-55.85L50.22-55.85C54.42-55.85 57.72-54.95 59.52-52.85C61.12-50.95 61.62-48.85 61.12-45.85Z"/>
   <path class="multicolor-2:tintColor hierarchical-0:tertiary SFSymbolsPreview007AFF" d="M49.02 7.05C54.82 7.05 60.22 5.95 65.32 3.75C70.42 1.55 74.82-1.45 78.72-5.35C82.62-9.25 85.62-13.65 87.82-18.75C90.02-23.85 91.12-29.25 91.12-35.05C91.12-40.85 90.02-46.25 87.82-51.35C85.62-56.45 82.62-60.85 78.72-64.75C74.82-68.65 70.42-71.65 65.32-73.85C60.22-76.05 54.82-77.15 49.02-77.15C43.22-77.15 37.82-76.05 32.72-73.85C27.62-71.65 23.22-68.65 19.32-64.75C15.42-60.85 12.42-56.45 10.22-51.35C8.12-46.15 7.02-40.75 7.02-34.95C7.02-29.15 8.12-23.75 10.32-18.65C12.52-13.55 15.52-9.15 19.42-5.25C23.32-1.35 27.72 1.65 32.82 3.85C37.82 5.95 43.22 7.05 49.02 7.05ZM49.02-7.15C45.22-7.15 41.62-7.85 38.22-9.25C34.82-10.65 31.92-12.65 29.32-15.25C26.82-17.75 24.82-20.75 23.32-24.15C21.92-27.55 21.12-31.15 21.12-34.95C21.12-38.75 21.82-42.35 23.32-45.75C24.72-49.15 26.72-52.05 29.32-54.65C31.82-57.15 34.82-59.15 38.22-60.65C41.62-62.05 45.22-62.85 49.02-62.85C52.82-62.85 56.42-62.15 59.82-60.65C63.22-59.25 66.12-57.25 68.72-54.65C71.22-52.15 73.22-49.15 74.72-45.75C76.12-42.35 76.92-38.75 76.92-34.95C76.92-31.15 76.22-27.55 74.72-24.15C73.32-20.75 71.32-17.85 68.72-15.25C66.22-12.75 63.22-10.75 59.82-9.25C56.52-7.85 52.92-7.15 49.02-7.15Z"/>
  </g>
  <g id="Heavy-S" transform="matrix(1 0 0 1 2588.24 696)">
   <path class="multicolor-0:systemCyanColor hierarchical-1:secondary SFSymbolsPreview55BEF0" d="M63.0323-43.3736L63.0323-43.3736L63.0323-43.3736C63.0323-43.1736 62.9323-42.8736 62.9323-42.6736C61.3323-34.3736 55.8323-31.5736 48.8323-31.5736L45.2087-31.5736C44.3087-31.5736 43.6087-30.9736 43.5087-30.0736L43.5087-30.0736L43.5087-30.0736L41.6323-18.4736L41.1323-15.1736C41.0323-14.5736 41.4323-14.0736 42.0323-14.0736L48.4323-14.0736C49.2323-14.0736 49.8323-14.5736 49.9323-15.3736L50.0323-15.6736L51.2323-23.2736L51.2851-23.6736C51.3851-24.3736 52.0851-24.9736 52.7851-24.9736L53.6087-24.9736C59.8087-24.9736 64.6087-27.4736 66.0087-34.6736C66.6087-37.6736 66.3087-40.1736 64.7087-41.9736C64.3087-42.5736 63.7323-43.05 63.0323-43.3736Z"/>
   <path class="multicolor-1:systemBlueColor hierarchical-2:primary SFSymbolsPreview007AFF" d="M60.5323-45.85C60.5323-45.65 60.4323-45.35 60.4323-45.15C58.8323-36.85 53.3323-34.05 46.3323-34.05L42.7323-34.05C41.8323-34.05 41.1323-33.45 41.0323-32.55L41.1323-32.95L39.2323-20.95L31.6559-20.95C31.0559-20.95 30.5559-21.55 30.6559-22.15L35.7559-54.35C35.8559-55.15 36.6559-55.85 37.4559-55.85L49.6559-55.85C53.8559-55.85 57.1559-54.95 58.9559-52.85C60.5323-50.9736 61.0323-48.8736 60.5323-45.85Z"/>
   <path class="multicolor-2:tintColor hierarchical-0:tertiary SFSymbolsPreview007AFF" d="M48.4087 6.43635C54.1143 6.43635 59.4435 5.35995 64.4491 3.18355C69.4547 1.00715 73.8311-1.94564 77.6603-5.79844C81.4895-9.62763 84.4659-13.9804 86.6187-19.0096C88.7714-24.0388 89.8714-29.3444 89.8714-35.05C89.8714-40.7556 88.7951-46.0612 86.6187-51.0904C84.4423-56.1196 81.4895-60.4724 77.6367-64.3016C73.8075-68.1308 69.4547-71.1072 64.4255-73.2599C59.3963-75.4363 54.0907-76.5127 48.3851-76.5127C42.6795-76.5127 37.3739-75.4363 32.3447-73.2599C27.3155-71.0835 22.9863-68.1308 19.1571-64.3016C15.328-60.4724 12.3516-56.1196 10.1988-51.0904C8.09876-45.9848 7.02236-40.6792 7.02236-34.9736C7.02236-29.268 8.09876-23.9624 10.2752-18.9332C12.4516-13.904 15.4043-9.55124 19.2335-5.72204C23.0627-1.89285 27.4155 1.08355 32.4447 3.23635C37.3975 5.31274 42.7267 6.43635 48.4087 6.43635ZM48.4087-6.18231C44.4671-6.18231 40.7255-6.90592 37.2311-8.37672C33.7131-9.82393 30.7187-11.8947 28.0242-14.5891C25.4298-17.1835 23.359-20.278 21.8354-23.796C20.3882-27.314 19.5646-31.032 19.5646-34.9972C19.5646-38.9624 20.2882-42.6804 21.8118-46.1984C23.259-49.7165 25.3298-52.7345 28.0006-55.4053C30.5951-57.9997 33.6895-60.0705 37.2075-61.6177C40.7255-63.0649 44.4435-63.8885 48.3851-63.8885C52.3503-63.8885 56.0683-63.1649 59.5863-61.6177C63.1043-60.1469 66.1224-58.0997 68.7932-55.4053C71.3876-52.8109 73.4584-49.7165 75.0056-46.1984C76.4764-42.6804 77.2764-38.9624 77.2764-34.9972C77.2764-31.032 76.5528-27.314 75.0056-23.796C73.5584-20.278 71.4876-17.2599 68.8168-14.5891C66.2224-11.9711 63.128-9.90032 59.6099-8.35312C56.1919-6.90592 52.4503-6.18231 48.4087-6.18231Z"/>
  </g>
  <g id="Bold-S" transform="matrix(1 0 0 1 2292.2 696)">
   <path class="multicolor-0:systemCyanColor hierarchical-1:secondary SFSymbolsPreview55BEF0" d="M62.375-43.4L62.375-43.4L62.375-43.4C62.375-43.2 62.275-42.9 62.275-42.7C60.675-34.4 55.175-31.6 48.175-31.6L44.525-31.6C43.625-31.6 42.925-31 42.825-30.1L42.825-30.1L42.825-30.1L40.975-18.5L40.475-15.2C40.375-14.6 40.775-14.1 41.375-14.1L47.775-14.1C48.575-14.1 49.175-14.6 49.275-15.4L49.375-15.7L50.575-23.3L50.575-23.7C50.675-24.4 51.375-25 52.075-25L52.925-25C59.125-25 63.925-27.5 65.325-34.7C65.925-37.7 65.625-40.2 64.025-42C63.625-42.6 63.075-43.05 62.375-43.4Z"/>
   <path class="multicolor-1:systemBlueColor hierarchical-2:primary SFSymbolsPreview007AFF" d="M59.875-45.85C59.875-45.65 59.775-45.35 59.775-45.15C58.175-36.85 52.675-34.05 45.675-34.05L42.075-34.05C41.175-34.05 40.475-33.45 40.375-32.55L40.475-32.95L38.575-20.95L31.025-20.95C30.425-20.95 29.925-21.55 30.025-22.15L35.125-54.35C35.225-55.15 36.025-55.85 36.825-55.85L49.025-55.85C53.225-55.85 56.525-54.95 58.325-52.85C59.875-51 60.375-48.9 59.875-45.85Z"/>
   <path class="multicolor-2:tintColor hierarchical-0:tertiary SFSymbolsPreview007AFF" d="M47.725 5.75C53.325 5.75 58.575 4.7 63.475 2.55C68.375 0.4 72.725-2.5 76.475-6.3C80.225-10.05 83.175-14.35 85.275-19.3C87.375-24.25 88.475-29.45 88.475-35.05C88.475-40.65 87.425-45.85 85.275-50.8C83.125-55.75 80.225-60.05 76.425-63.8C72.675-67.55 68.375-70.5 63.425-72.6C58.475-74.75 53.275-75.8 47.675-75.8C42.075-75.8 36.875-74.75 31.925-72.6C26.975-70.45 22.725-67.55 18.975-63.8C15.225-60.05 12.275-55.75 10.175-50.8C8.075-45.8 7.025-40.6 7.025-35C7.025-29.4 8.075-24.2 10.225-19.25C12.375-14.3 15.275-10 19.025-6.25C22.775-2.5 27.075 0.45 32.025 2.55C36.925 4.6 42.175 5.75 47.725 5.75ZM47.725-5.1C43.625-5.1 39.725-5.85 36.125-7.4C32.475-8.9 29.375-11.05 26.575-13.85C23.875-16.55 21.725-19.75 20.175-23.4C18.675-27.05 17.825-30.9 17.825-35.05C17.825-39.2 18.575-43.05 20.125-46.7C21.625-50.35 23.775-53.5 26.525-56.25C29.225-58.95 32.425-61.1 36.075-62.7C39.725-64.2 43.575-65.05 47.675-65.05C51.825-65.05 55.675-64.3 59.325-62.7C62.975-61.15 66.125-59.05 68.875-56.25C71.575-53.55 73.725-50.35 75.325-46.7C76.875-43.05 77.675-39.2 77.675-35.05C77.675-30.9 76.925-27.05 75.325-23.4C73.825-19.75 71.675-16.6 68.925-13.85C66.225-11.1 63.025-8.95 59.375-7.35C55.825-5.85 51.925-5.1 47.725-5.1Z"/>
  </g>
  <g id="Semibold-S" transform="matrix(1 0 0 1 1995.96 696)">
   <path class="multicolor-0:systemCyanColor hierarchical-1:secondary SFSymbolsPreview55BEF0" d="M61.9218-43.4182L61.9218-43.4182L61.9218-43.4182C61.9218-43.2182 61.8218-42.9182 61.8218-42.7182C60.2218-34.4182 54.7218-31.6182 47.7218-31.6182L44.0536-31.6182C43.1536-31.6182 42.4536-31.0182 42.3536-30.1182L42.3536-30.1182L42.3536-30.1182L40.5218-18.5182L40.0218-15.2182C39.9218-14.6182 40.3218-14.1182 40.9218-14.1182L47.3218-14.1182C48.1218-14.1182 48.7218-14.6182 48.8218-15.4182L48.9218-15.7182L50.1218-23.3182L50.0854-23.7182C50.1854-24.4182 50.8854-25.0182 51.5854-25.0182L52.4536-25.0182C58.6536-25.0182 63.4536-27.5182 64.8536-34.7182C65.4536-37.7182 65.1536-40.2182 63.5536-42.0182C63.1536-42.6182 62.6218-43.05 61.9218-43.4182Z"/>
   <path class="multicolor-1:systemBlueColor hierarchical-2:primary SFSymbolsPreview007AFF" d="M59.4218-45.85C59.4218-45.65 59.3218-45.35 59.3218-45.15C57.7218-36.85 52.2218-34.05 45.2218-34.05L41.6218-34.05C40.7218-34.05 40.0218-33.45 39.9218-32.55L40.0218-32.95L38.1218-20.95L30.59-20.95C29.99-20.95 29.49-21.55 29.59-22.15L34.69-54.35C34.79-55.15 35.59-55.85 36.39-55.85L48.59-55.85C52.79-55.85 56.09-54.95 57.89-52.85C59.4218-51.0182 59.9218-48.9182 59.4218-45.85Z"/>
   <path class="multicolor-2:tintColor hierarchical-0:tertiary SFSymbolsPreview007AFF" d="M47.2536 5.2768C52.7808 5.2768 57.9762 4.245 62.8034 2.1132C67.6306-0.0186 71.9624-2.8822 75.6578-6.6458C79.3532-10.3412 82.285-14.6048 84.3486-19.5002C86.4122-24.3956 87.5122-29.5228 87.5122-35.05C87.5122-40.5772 86.4804-45.7044 84.3486-50.5998C82.2168-55.4952 79.3532-59.7588 75.5896-63.4542C71.8942-67.1496 67.6306-70.0814 62.7352-72.145C57.8398-74.2768 52.7126-75.3086 47.1854-75.3086C41.6582-75.3086 36.531-74.2768 31.6356-72.145C26.7402-70.0132 22.5448-67.1496 18.8494-63.4542C15.154-59.7588 12.2222-55.4952 10.1586-50.5998C8.05862-45.6726 7.02682-40.5454 7.02682-35.0182C7.02682-29.491 8.05862-24.3638 10.1904-19.4684C12.3222-14.573 15.1858-10.3094 18.8812-6.614C22.5766-2.9186 26.8402 0.0132 31.7356 2.0768C36.5992 4.1086 41.7946 5.2768 47.2536 5.2768ZM47.2536-4.3538C43.0444-4.3538 39.0352-5.122 35.3624-6.7266C31.6214-8.263 28.4486-10.4676 25.5758-13.3404C22.803-16.1132 20.5984-19.386 19.0302-23.127C17.4938-26.868 16.6256-30.809 16.6256-35.0864C16.6256-39.3638 17.3938-43.3048 18.962-47.0458C20.4984-50.7868 22.703-54.0278 25.5076-56.8324C28.2804-59.6052 31.5532-61.8098 35.2942-63.4462C39.0352-64.9826 42.9762-65.8508 47.1854-65.8508C51.4628-65.8508 55.4038-65.0826 59.1448-63.4462C62.8858-61.8416 66.1268-59.7052 68.9314-56.8324C71.7042-54.0596 73.9088-50.7868 75.5452-47.0458C77.1498-43.3048 77.9498-39.3638 77.9498-35.0864C77.9498-30.809 77.1816-26.868 75.5452-23.127C74.0088-19.386 71.8042-16.145 68.9996-13.3404C66.2268-10.4994 62.954-8.2948 59.213-6.6584C55.572-5.122 51.5628-4.3538 47.2536-4.3538Z"/>
  </g>
  <g id="Medium-S" transform="matrix(1 0 0 1 1699.6 696)">
   <path class="multicolor-0:systemCyanColor hierarchical-1:secondary SFSymbolsPreview55BEF0" d="M61.5782-43.432L61.5782-43.432L61.5782-43.432C61.5782-43.232 61.4782-42.932 61.4782-42.732C59.8782-34.432 54.3782-31.632 47.3782-31.632L43.6962-31.632C42.7962-31.632 42.0962-31.032 41.9962-30.132L41.9962-30.132L41.9962-30.132L40.1782-18.532L39.6782-15.232C39.5782-14.632 39.9782-14.132 40.5782-14.132L46.9782-14.132C47.7782-14.132 48.3782-14.632 48.4782-15.432L48.5782-15.732L49.7782-23.332L49.7142-23.732C49.8142-24.432 50.5142-25.032 51.2142-25.032L52.0962-25.032C58.2962-25.032 63.0962-27.532 64.4962-34.732C65.0962-37.732 64.7962-40.232 63.1962-42.032C62.7962-42.632 62.2782-43.05 61.5782-43.432Z"/>
   <path class="multicolor-1:systemBlueColor hierarchical-2:primary SFSymbolsPreview007AFF" d="M59.0782-45.85C59.0782-45.65 58.9782-45.35 58.9782-45.15C57.3782-36.85 51.8782-34.05 44.8782-34.05L41.2782-34.05C40.3782-34.05 39.6782-33.45 39.5782-32.55L39.6782-32.95L37.7782-20.95L30.2602-20.95C29.6602-20.95 29.1602-21.55 29.2602-22.15L34.3602-54.35C34.4602-55.15 35.2602-55.85 36.0602-55.85L48.2602-55.85C52.4602-55.85 55.7602-54.95 57.5602-52.85C59.0782-51.032 59.5782-48.932 59.0782-45.85Z"/>
   <path class="multicolor-2:tintColor hierarchical-0:tertiary SFSymbolsPreview007AFF" d="M46.8962 4.918C52.3682 4.918 57.5222 3.9 62.2942 1.782C67.0662-0.336 71.3842-3.172 75.0382-6.908C78.6922-10.562 81.6102-14.798 83.6462-19.652C85.6822-24.506 86.7822-29.578 86.7822-35.05C86.7822-40.522 85.7642-45.594 83.6462-50.448C81.5282-55.302 78.6922-59.538 74.9562-63.192C71.3022-66.846 67.0662-69.764 62.2122-71.8C57.3582-73.918 52.2862-74.936 46.8142-74.936C41.3422-74.936 36.2702-73.918 31.4162-71.8C26.5622-69.682 22.4082-66.846 18.7542-63.192C15.1002-59.538 12.1822-55.302 10.1462-50.448C8.0462-45.576 7.0282-40.504 7.0282-35.032C7.0282-29.56 8.0462-24.488 10.1642-19.634C12.2822-14.78 15.1182-10.544 18.7722-6.89C22.4262-3.236 26.6622-0.318 31.5162 1.718C36.3522 3.736 41.5062 4.918 46.8962 4.918ZM46.8962-3.788C42.6042-3.788 38.5122-4.57 34.7842-6.216C30.9742-7.78 27.7462-10.026 24.8182-12.954C21.9902-15.782 19.7442-19.11 18.1622-22.92C16.5982-26.73 15.7162-30.74 15.7162-35.114C15.7162-39.488 16.4982-43.498 18.0802-47.308C19.6442-51.118 21.8902-54.428 24.7362-57.274C27.5642-60.102 30.8922-62.348 34.7022-64.012C38.5122-65.576 42.5222-66.458 46.8142-66.458C51.1882-66.458 55.1982-65.676 59.0082-64.012C62.8182-62.366 66.1282-60.202 68.9742-57.274C71.8022-54.446 74.0482-51.118 75.7122-47.308C77.3582-43.498 78.1582-39.488 78.1582-35.114C78.1582-30.74 77.3762-26.73 75.7122-22.92C74.1482-19.11 71.9022-15.8 69.0562-12.954C66.2282-10.044 62.9002-7.798 59.0902-6.134C55.3802-4.57 51.2882-3.788 46.8962-3.788Z"/>
  </g>
  <g id="Regular-S" transform="matrix(1 0 0 1 1403.34 696)">
   <path class="multicolor-0:systemCyanColor hierarchical-1:secondary SFSymbolsPreview55BEF0" d="M61.13-43.45L61.13-43.45L61.13-43.45C61.13-43.25 61.03-42.95 61.03-42.75C59.43-34.45 53.93-31.65 46.93-31.65L43.23-31.65C42.33-31.65 41.63-31.05 41.53-30.15L41.53-30.15L41.53-30.15L39.73-18.55L39.23-15.25C39.13-14.65 39.53-14.15 40.13-14.15L46.53-14.15C47.33-14.15 47.93-14.65 48.03-15.45L48.13-15.75L49.33-23.35L49.23-23.75C49.33-24.45 50.03-25.05 50.73-25.05L51.63-25.05C57.83-25.05 62.63-27.55 64.03-34.75C64.63-37.75 64.33-40.25 62.73-42.05C62.33-42.65 61.83-43.05 61.13-43.45Z"/>
   <path class="multicolor-1:systemBlueColor hierarchical-2:primary SFSymbolsPreview007AFF" d="M58.63-45.85C58.63-45.65 58.53-45.35 58.53-45.15C56.93-36.85 51.43-34.05 44.43-34.05L40.83-34.05C39.93-34.05 39.23-33.45 39.13-32.55L39.23-32.95L37.33-20.95L29.83-20.95C29.23-20.95 28.73-21.55 28.83-22.15L33.93-54.35C34.03-55.15 34.83-55.85 35.63-55.85L47.83-55.85C52.03-55.85 55.33-54.95 57.13-52.85C58.63-51.05 59.13-48.95 58.63-45.85Z"/>
   <path class="multicolor-2:tintColor hierarchical-0:tertiary SFSymbolsPreview007AFF" d="M46.43 4.45C51.83 4.45 56.93 3.45 61.63 1.35C66.33-0.75 70.63-3.55 74.23-7.25C77.83-10.85 80.73-15.05 82.73-19.85C84.73-24.65 85.83-29.65 85.83-35.05C85.83-40.45 84.83-45.45 82.73-50.25C80.63-55.05 77.83-59.25 74.13-62.85C70.53-66.45 66.33-69.35 61.53-71.35C56.73-73.45 51.73-74.45 46.33-74.45C40.93-74.45 35.93-73.45 31.13-71.35C26.33-69.25 22.23-66.45 18.63-62.85C15.03-59.25 12.13-55.05 10.13-50.25C8.03-45.45 7.03-40.45 7.03-35.05C7.03-29.65 8.03-24.65 10.13-19.85C12.23-15.05 15.03-10.85 18.63-7.25C22.23-3.65 26.43-0.75 31.23 1.25C36.03 3.25 41.13 4.45 46.43 4.45ZM46.43-3.05C42.03-3.05 37.83-3.85 34.03-5.55C30.13-7.15 26.83-9.45 23.83-12.45C20.93-15.35 18.63-18.75 17.03-22.65C15.43-26.55 14.53-30.65 14.53-35.15C14.53-39.65 15.33-43.75 16.93-47.65C18.53-51.55 20.83-54.95 23.73-57.85C26.63-60.75 30.03-63.05 33.93-64.75C37.83-66.35 41.93-67.25 46.33-67.25C50.83-67.25 54.93-66.45 58.83-64.75C62.73-63.05 66.13-60.85 69.03-57.85C71.93-54.95 74.23-51.55 75.93-47.65C77.63-43.75 78.43-39.65 78.43-35.15C78.43-30.65 77.63-26.55 75.93-22.65C74.33-18.75 72.03-15.35 69.13-12.45C66.23-9.45 62.83-7.15 58.93-5.45C55.13-3.85 50.93-3.05 46.43-3.05Z"/>
  </g>
  <g id="Light-S" transform="matrix(1 0 0 1 1107.35 696)">
   <path class="multicolor-0:systemCyanColor hierarchical-1:secondary SFSymbolsPreview55BEF0" d="M60.418-43.45L60.418-43.45L60.418-43.45C60.418-43.25 60.318-42.95 60.318-42.75C58.718-34.45 53.218-31.65 46.218-31.65L42.5513-31.65C41.6513-31.65 40.9513-31.05 40.8513-30.15L40.8513-30.15L40.8513-30.15L39.0513-18.55L38.5513-15.25C38.4513-14.65 38.8513-14.15 39.4513-14.15L45.7847-14.15C46.5847-14.15 47.1847-14.65 47.2847-15.45L47.3847-15.75L48.5847-23.35L48.5513-23.75C48.6513-24.45 49.3513-25.05 50.0513-25.05L50.9513-25.05C57.1513-25.05 61.9513-27.55 63.3513-34.75C63.9513-37.75 63.6513-40.25 62.0513-42.05C61.618-42.65 61.0847-43.05 60.418-43.45Z"/>
   <path class="multicolor-1:systemBlueColor hierarchical-2:primary SFSymbolsPreview007AFF" d="M57.918-45.85C57.918-45.65 57.818-45.35 57.818-45.15C56.218-36.85 50.718-34.05 43.718-34.05L40.118-34.05C39.218-34.05 38.518-33.45 38.418-32.55L38.518-32.95L36.618-20.95L29.118-20.95C28.518-20.95 28.018-21.55 28.118-22.15L33.218-54.35C33.318-55.15 34.118-55.85 34.918-55.85L47.118-55.85C51.318-55.85 54.618-54.95 56.418-52.85C57.918-51.05 58.418-48.95 57.918-45.85Z"/>
   <path class="multicolor-2:tintColor hierarchical-0:tertiary SFSymbolsPreview007AFF" d="M45.718 3.71667C51.018 3.71667 56.0513 2.71667 60.6513 0.683333C65.2847-1.35 69.4513-4.11667 73.018-7.71667C76.5513-11.25 79.3847-15.3833 81.3847-20.0833C83.3513-24.7833 84.418-29.7167 84.418-35.0167C84.418-40.3167 83.418-45.2833 81.3847-49.95C79.3513-54.65 76.5847-58.75 72.9513-62.3167C69.418-65.85 65.2847-68.6833 60.5847-70.65C55.8847-72.6833 50.9513-73.6833 45.6513-73.6833C40.3513-73.6833 35.418-72.6833 30.718-70.65C26.018-68.6167 21.9847-65.85 18.418-62.3167C14.8847-58.7833 12.0513-54.65 10.0847-49.95C8.05133-45.25 7.05133-40.3167 7.05133-35.0167C7.05133-29.7167 8.05133-24.75 10.0847-20.0833C12.118-15.3833 14.8847-11.2833 18.418-7.71667C21.9513-4.18333 26.0847-1.35 30.7847 0.616667C35.4847 2.58333 40.4847 3.71667 45.718 3.71667ZM45.718-2.05C41.1847-2.05 36.8847-2.88333 32.918-4.61667C28.918-6.28333 25.4513-8.65 22.3847-11.7167C19.3847-14.7167 17.018-18.2167 15.3513-22.25C13.6847-26.25 12.7847-30.4833 12.7847-35.1167C12.7847-39.75 13.618-43.95 15.2847-47.9833C16.9513-51.9833 19.318-55.5167 22.318-58.5167C25.318-61.5167 28.818-63.8833 32.8513-65.6167C36.8513-67.2833 41.118-68.1833 45.6513-68.1833C50.2513-68.1833 54.518-67.35 58.518-65.6167C62.518-63.8833 66.0513-61.5833 69.0513-58.5167C72.0513-55.5167 74.418-52.0167 76.1513-47.9833C77.8847-43.9833 78.718-39.7167 78.718-35.1167C78.718-30.5167 77.8847-26.2833 76.1513-22.25C74.4847-18.25 72.118-14.7167 69.118-11.7167C66.118-8.65 62.618-6.28333 58.618-4.55C54.6513-2.88333 50.3513-2.05 45.718-2.05Z"/>
  </g>
  <g id="Thin-S" transform="matrix(1 0 0 1 811.587 696)">
   <path class="multicolor-0:systemCyanColor hierarchical-1:secondary SFSymbolsPreview55BEF0" d="M59.4763-43.45L59.4763-43.45L59.4763-43.45C59.4763-43.25 59.3763-42.95 59.3763-42.75C57.7763-34.45 52.2763-31.65 45.2763-31.65L41.6537-31.65C40.7537-31.65 40.0537-31.05 39.9537-30.15L39.9537-30.15L39.9537-30.15L38.1537-18.55L37.6537-15.25C37.5537-14.65 37.9537-14.15 38.5537-14.15L44.7989-14.15C45.5989-14.15 46.1989-14.65 46.2989-15.45L46.3989-15.75L47.5989-23.35L47.6537-23.75C47.7537-24.45 48.4537-25.05 49.1537-25.05L50.0537-25.05C56.2537-25.05 61.0537-27.55 62.4537-34.75C63.0537-37.75 62.7537-40.25 61.1537-42.05C60.6763-42.65 60.0989-43.05 59.4763-43.45Z"/>
   <path class="multicolor-1:systemBlueColor hierarchical-2:primary SFSymbolsPreview007AFF" d="M56.9763-45.85C56.9763-45.65 56.8763-45.35 56.8763-45.15C55.2763-36.85 49.7763-34.05 42.7763-34.05L39.1763-34.05C38.2763-34.05 37.5763-33.45 37.4763-32.55L37.5763-32.95L35.6763-20.95L28.1763-20.95C27.5763-20.95 27.0763-21.55 27.1763-22.15L32.2763-54.35C32.3763-55.15 33.1763-55.85 33.9763-55.85L46.1763-55.85C50.3763-55.85 53.6763-54.95 55.4763-52.85C56.9763-51.05 57.4763-48.95 56.9763-45.85Z"/>
   <path class="multicolor-2:tintColor hierarchical-0:tertiary SFSymbolsPreview007AFF" d="M44.7763 2.74677C49.9441 2.74677 54.8892 1.74677 59.357-0.198387C63.9021-2.14355 67.8925-4.86613 71.415-8.33387C74.8602-11.779 77.6054-15.8242 79.6054-20.3919C81.5279-24.9597 82.5505-29.8048 82.5505-34.9726C82.5505-40.1403 81.5505-45.0629 79.6054-49.5532C77.6602-54.121 74.9376-58.0887 71.3925-61.6113C67.9473-65.0565 63.9021-67.8016 59.3344-69.7242C54.7666-71.6694 49.9215-72.6694 44.7537-72.6694C39.586-72.6694 34.7408-71.6694 30.1731-69.7242C25.6054-67.779 21.6602-65.0565 18.1376-61.6113C14.6925-58.1661 11.9473-54.121 10.0247-49.5532C8.07955-44.9855 7.07955-40.1403 7.07955-34.9726C7.07955-29.8048 8.07955-24.8823 10.0247-20.3919C11.9699-15.8242 14.6925-11.8565 18.1376-8.33387C21.5828-4.88871 25.6279-2.14355 30.1957-0.220968C34.7634 1.70161 39.6312 2.74677 44.7763 2.74677ZM44.7763-0.727419C40.0666-0.727419 35.6344-1.60484 31.4473-3.38226C27.315-5.1371 23.6279-7.59194 20.4731-10.7468C17.3408-13.879 14.886-17.5113 13.1312-21.721C11.3763-25.8532 10.4763-30.2629 10.4763-35.0726C10.4763-39.8823 11.3537-44.2145 13.1086-48.4242C14.8634-52.5565 17.3183-56.2661 20.4505-59.3984C23.5828-62.5306 27.215-64.9855 31.4247-66.7629C35.557-68.5177 40.0441-69.4177 44.7537-69.4177C49.486-69.4177 53.9731-68.5403 58.1054-66.7629C62.2376-64.9855 65.9473-62.5532 69.0795-59.3984C72.2118-56.2661 74.6666-52.6339 76.4441-48.4242C78.2215-44.2919 79.0989-39.8048 79.0989-35.0726C79.0989-30.3403 78.2215-25.9306 76.4441-21.721C74.6892-17.5887 72.2344-13.879 69.1021-10.7468C65.9699-7.59194 62.3376-5.1371 58.2054-3.35968C54.0183-1.60484 49.586-0.727419 44.7763-0.727419Z"/>
  </g>
  <g id="Ultralight-S" transform="matrix(1 0 0 1 515.361 696)">
   <path class="multicolor-0:systemCyanColor hierarchical-1:secondary SFSymbolsPreview55BEF0" d="M58.994-43.45L58.994-43.45L58.994-43.45C58.994-43.25 58.894-42.95 58.894-42.75C57.294-34.45 51.794-31.65 44.794-31.65L41.194-31.65C40.294-31.65 39.594-31.05 39.494-30.15L39.494-30.15L39.494-30.15L37.694-18.55L37.194-15.25C37.094-14.65 37.494-14.15 38.094-14.15L44.294-14.15C45.094-14.15 45.694-14.65 45.794-15.45L45.894-15.75L47.094-23.35L47.194-23.75C47.294-24.45 47.994-25.05 48.694-25.05L49.594-25.05C55.794-25.05 60.594-27.55 61.994-34.75C62.594-37.75 62.294-40.25 60.694-42.05C60.194-42.65 59.594-43.05 58.994-43.45Z"/>
   <path class="multicolor-1:systemBlueColor hierarchical-2:primary SFSymbolsPreview007AFF" d="M56.494-45.85C56.494-45.65 56.394-45.35 56.394-45.15C54.794-36.85 49.294-34.05 42.294-34.05L38.694-34.05C37.794-34.05 37.094-33.45 36.994-32.55L37.094-32.95L35.194-20.95L27.694-20.95C27.094-20.95 26.594-21.55 26.694-22.15L31.794-54.35C31.894-55.15 32.694-55.85 33.494-55.85L45.694-55.85C49.894-55.85 53.194-54.95 54.994-52.85C56.494-51.05 56.994-48.95 56.494-45.85Z"/>
   <path class="multicolor-2:tintColor hierarchical-0:tertiary SFSymbolsPreview007AFF" d="M44.294 2.25C49.394 2.25 54.294 1.25 58.694-0.65C63.194-2.55 67.094-5.25 70.594-8.65C73.994-12.05 76.694-16.05 78.694-20.55C80.594-25.05 81.594-29.85 81.594-34.95C81.594-40.05 80.594-44.95 78.694-49.35C76.794-53.85 74.094-57.75 70.594-61.25C67.194-64.65 63.194-67.35 58.694-69.25C54.194-71.15 49.394-72.15 44.294-72.15C39.194-72.15 34.394-71.15 29.894-69.25C25.394-67.35 21.494-64.65 17.994-61.25C14.594-57.85 11.894-53.85 9.994-49.35C8.094-44.85 7.094-40.05 7.094-34.95C7.094-29.85 8.094-24.95 9.994-20.55C11.894-16.05 14.594-12.15 17.994-8.65C21.394-5.25 25.394-2.55 29.894-0.65C34.394 1.25 39.194 2.25 44.294 2.25ZM44.294-0.05C39.494-0.05 34.994-0.95 30.694-2.75C26.494-4.55 22.694-7.05 19.494-10.25C16.294-13.45 13.794-17.15 11.994-21.45C10.194-25.65 9.294-30.15 9.294-35.05C9.294-39.95 10.194-44.35 11.994-48.65C13.794-52.85 16.294-56.65 19.494-59.85C22.694-63.05 26.394-65.55 30.694-67.35C34.894-69.15 39.494-70.05 44.294-70.05C49.094-70.05 53.694-69.15 57.894-67.35C62.094-65.55 65.894-63.05 69.094-59.85C72.294-56.65 74.794-52.95 76.594-48.65C78.394-44.45 79.294-39.85 79.294-35.05C79.294-30.25 78.394-25.75 76.594-21.45C74.794-17.25 72.294-13.45 69.094-10.25C65.894-7.05 62.194-4.55 57.994-2.75C53.694-0.95 49.194-0.05 44.294-0.05Z"/>
  </g>
 </g>
</svg>
