<?xml version="1.0" encoding="UTF-8"?>
<!--Generator: Apple Native CoreSVG 149-->
<!DOCTYPE svg
PUBLIC "-//W3C//DTD SVG 1.1//EN"
       "http://www.w3.org/Graphics/SVG/1.1/DTD/svg11.dtd">
<svg version="1.1" xmlns="http://www.w3.org/2000/svg" xmlns:xlink="http://www.w3.org/1999/xlink" width="3300" height="2200">
 <!--glyph: "", point size: 100.0, font version: "17.0d9e1", template writer version: "59"-->
 <style>.multicolor-0:tintColor {fill:#007AFF;opacity:1.0}
.multicolor-1:systemCyanColor {fill:#55BEF0;opacity:1.0}
.multicolor-2:systemBlueColor {fill:#007AFF;opacity:1.0}

.hierarchical-0:tertiary {fill:#8E8E8E}
.hierarchical-1:secondary {fill:#4D4D4D}
.hierarchical-2:primary {fill:#212121}

.SFSymbolsPreview007AFF {fill:#007AFF;opacity:1.0}
.SFSymbolsPreview55BEF0 {fill:#55BEF0;opacity:1.0}
</style>
 <g id="Notes">
  <rect height="2200" id="artboard" style="fill:white;opacity:1" width="3300" x="0" y="0"/>
  <line style="fill:none;stroke:black;opacity:1;stroke-width:0.5;" x1="263" x2="3036" y1="292" y2="292"/>
  <text style="stroke:none;fill:black;font-family:sans-serif;font-size:13;font-weight:bold;" transform="matrix(1 0 0 1 263 322)">Weight/Scale Variations</text>
  <text style="stroke:none;fill:black;font-family:sans-serif;font-size:13;text-anchor:middle;" transform="matrix(1 0 0 1 559.711 322)">Ultralight</text>
  <text style="stroke:none;fill:black;font-family:sans-serif;font-size:13;text-anchor:middle;" transform="matrix(1 0 0 1 856.422 322)">Thin</text>
  <text style="stroke:none;fill:black;font-family:sans-serif;font-size:13;text-anchor:middle;" transform="matrix(1 0 0 1 1153.13 322)">Light</text>
  <text style="stroke:none;fill:black;font-family:sans-serif;font-size:13;text-anchor:middle;" transform="matrix(1 0 0 1 1449.84 322)">Regular</text>
  <text style="stroke:none;fill:black;font-family:sans-serif;font-size:13;text-anchor:middle;" transform="matrix(1 0 0 1 1746.56 322)">Medium</text>
  <text style="stroke:none;fill:black;font-family:sans-serif;font-size:13;text-anchor:middle;" transform="matrix(1 0 0 1 2043.27 322)">Semibold</text>
  <text style="stroke:none;fill:black;font-family:sans-serif;font-size:13;text-anchor:middle;" transform="matrix(1 0 0 1 2339.98 322)">Bold</text>
  <text style="stroke:none;fill:black;font-family:sans-serif;font-size:13;text-anchor:middle;" transform="matrix(1 0 0 1 2636.69 322)">Heavy</text>
  <text style="stroke:none;fill:black;font-family:sans-serif;font-size:13;text-anchor:middle;" transform="matrix(1 0 0 1 2933.4 322)">Black</text>
  <line style="fill:none;stroke:black;opacity:1;stroke-width:0.5;" x1="263" x2="3036" y1="1903" y2="1903"/>
  <g transform="matrix(1 0 0 1 263 1933)">
   <path d="M9.24805 0.830078Q10.8691 0.830078 12.2949 0.214844Q13.7207-0.400391 14.8096-1.49414Q15.8984-2.58789 16.5186-4.01367Q17.1387-5.43945 17.1387-7.05078Q17.1387-8.66211 16.5186-10.0879Q15.8984-11.5137 14.8047-12.6074Q13.7109-13.7012 12.2852-14.3164Q10.8594-14.9316 9.23828-14.9316Q7.62695-14.9316 6.20117-14.3164Q4.77539-13.7012 3.69141-12.6074Q2.60742-11.5137 1.9873-10.0879Q1.36719-8.66211 1.36719-7.05078Q1.36719-5.43945 1.9873-4.01367Q2.60742-2.58789 3.69629-1.49414Q4.78516-0.400391 6.21094 0.214844Q7.63672 0.830078 9.24805 0.830078ZM9.24805-0.654297Q7.91992-0.654297 6.7627-1.14746Q5.60547-1.64062 4.73145-2.51953Q3.85742-3.39844 3.36426-4.56055Q2.87109-5.72266 2.87109-7.05078Q2.87109-8.37891 3.35938-9.54102Q3.84766-10.7031 4.72168-11.582Q5.5957-12.4609 6.75293-12.9541Q7.91016-13.4473 9.23828-13.4473Q10.5762-13.4473 11.7334-12.9541Q12.8906-12.4609 13.7695-11.582Q14.6484-10.7031 15.1465-9.54102Q15.6445-8.37891 15.6445-7.05078Q15.6445-5.72266 15.1514-4.56055Q14.6582-3.39844 13.7842-2.51953Q12.9102-1.64062 11.748-1.14746Q10.5859-0.654297 9.24805-0.654297ZM5.83984-7.04102Q5.83984-6.71875 6.04492-6.51855Q6.25-6.31836 6.5918-6.31836L8.50586-6.31836L8.50586-4.39453Q8.50586-4.0625 8.70605-3.85742Q8.90625-3.65234 9.22852-3.65234Q9.56055-3.65234 9.76562-3.85742Q9.9707-4.0625 9.9707-4.39453L9.9707-6.31836L11.8945-6.31836Q12.2266-6.31836 12.4316-6.51855Q12.6367-6.71875 12.6367-7.04102Q12.6367-7.37305 12.4316-7.57812Q12.2266-7.7832 11.8945-7.7832L9.9707-7.7832L9.9707-9.69727Q9.9707-10.0391 9.76562-10.2441Q9.56055-10.4492 9.22852-10.4492Q8.90625-10.4492 8.70605-10.2441Q8.50586-10.0391 8.50586-9.69727L8.50586-7.7832L6.5918-7.7832Q6.25-7.7832 6.04492-7.57812Q5.83984-7.37305 5.83984-7.04102Z"/>
  </g>
  <g transform="matrix(1 0 0 1 281.867 1933)">
   <path d="M11.709 2.91016Q13.75 2.91016 15.5518 2.12891Q17.3535 1.34766 18.7305-0.0292969Q20.1074-1.40625 20.8887-3.20801Q21.6699-5.00977 21.6699-7.05078Q21.6699-9.0918 20.8887-10.8936Q20.1074-12.6953 18.7305-14.0723Q17.3535-15.4492 15.5469-16.2305Q13.7402-17.0117 11.6992-17.0117Q9.6582-17.0117 7.85645-16.2305Q6.05469-15.4492 4.68262-14.0723Q3.31055-12.6953 2.5293-10.8936Q1.74805-9.0918 1.74805-7.05078Q1.74805-5.00977 2.5293-3.20801Q3.31055-1.40625 4.6875-0.0292969Q6.06445 1.34766 7.86621 2.12891Q9.66797 2.91016 11.709 2.91016ZM11.709 1.25Q9.98047 1.25 8.47656 0.605469Q6.97266-0.0390625 5.83496-1.17676Q4.69727-2.31445 4.05762-3.81836Q3.41797-5.32227 3.41797-7.05078Q3.41797-8.7793 4.05762-10.2832Q4.69727-11.7871 5.83008-12.9297Q6.96289-14.0723 8.4668-14.7119Q9.9707-15.3516 11.6992-15.3516Q13.4277-15.3516 14.9316-14.7119Q16.4355-14.0723 17.5781-12.9297Q18.7207-11.7871 19.3652-10.2832Q20.0098-8.7793 20.0098-7.05078Q20.0098-5.32227 19.3701-3.81836Q18.7305-2.31445 17.5928-1.17676Q16.4551-0.0390625 14.9463 0.605469Q13.4375 1.25 11.709 1.25ZM7.39258-7.04102Q7.39258-6.68945 7.62695-6.46484Q7.86133-6.24023 8.23242-6.24023L10.8789-6.24023L10.8789-3.57422Q10.8789-3.21289 11.1035-2.9834Q11.3281-2.75391 11.6797-2.75391Q12.0508-2.75391 12.2852-2.9834Q12.5195-3.21289 12.5195-3.57422L12.5195-6.24023L15.1758-6.24023Q15.5371-6.24023 15.7715-6.46484Q16.0059-6.68945 16.0059-7.04102Q16.0059-7.41211 15.7715-7.6416Q15.5371-7.87109 15.1758-7.87109L12.5195-7.87109L12.5195-10.5176Q12.5195-10.8984 12.2852-11.1279Q12.0508-11.3574 11.6797-11.3574Q11.3281-11.3574 11.1035-11.1279Q10.8789-10.8984 10.8789-10.5176L10.8789-7.87109L8.23242-7.87109Q7.85156-7.87109 7.62207-7.6416Q7.39258-7.41211 7.39258-7.04102Z"/>
  </g>
  <g transform="matrix(1 0 0 1 305.646 1933)">
   <path d="M14.9707 5.66406Q17.0605 5.66406 18.96 5.01465Q20.8594 4.36523 22.4512 3.19336Q24.043 2.02148 25.2197 0.429688Q26.3965-1.16211 27.0459-3.06641Q27.6953-4.9707 27.6953-7.05078Q27.6953-9.14062 27.0459-11.04Q26.3965-12.9395 25.2197-14.5312Q24.043-16.123 22.4512-17.2998Q20.8594-18.4766 18.9551-19.126Q17.0508-19.7754 14.9609-19.7754Q12.8711-19.7754 10.9717-19.126Q9.07227-18.4766 7.48535-17.2998Q5.89844-16.123 4.72168-14.5312Q3.54492-12.9395 2.90039-11.04Q2.25586-9.14062 2.25586-7.05078Q2.25586-4.9707 2.90527-3.06641Q3.55469-1.16211 4.72656 0.429688Q5.89844 2.02148 7.49023 3.19336Q9.08203 4.36523 10.9814 5.01465Q12.8809 5.66406 14.9707 5.66406ZM14.9707 3.84766Q13.1641 3.84766 11.5283 3.2959Q9.89258 2.74414 8.53516 1.74805Q7.17773 0.751953 6.17676-0.610352Q5.17578-1.97266 4.62891-3.6084Q4.08203-5.24414 4.08203-7.05078Q4.08203-8.86719 4.62891-10.5029Q5.17578-12.1387 6.17188-13.501Q7.16797-14.8633 8.52539-15.8594Q9.88281-16.8555 11.5186-17.4023Q13.1543-17.9492 14.9609-17.9492Q16.7773-17.9492 18.4131-17.4023Q20.0488-16.8555 21.4111-15.8594Q22.7734-14.8633 23.7695-13.501Q24.7656-12.1387 25.3174-10.5029Q25.8691-8.86719 25.8691-7.05078Q25.8789-5.24414 25.332-3.6084Q24.7852-1.97266 23.7842-0.610352Q22.7832 0.751953 21.4209 1.74805Q20.0586 2.74414 18.4229 3.2959Q16.7871 3.84766 14.9707 3.84766ZM9.45312-7.04102Q9.45312-6.66016 9.71191-6.41113Q9.9707-6.16211 10.3711-6.16211L14.0625-6.16211L14.0625-2.46094Q14.0625-2.06055 14.3115-1.80664Q14.5605-1.55273 14.9414-1.55273Q15.3516-1.55273 15.6055-1.80664Q15.8594-2.06055 15.8594-2.46094L15.8594-6.16211L19.5605-6.16211Q19.9609-6.16211 20.2148-6.41113Q20.4688-6.66016 20.4688-7.04102Q20.4688-7.45117 20.2148-7.70508Q19.9609-7.95898 19.5605-7.95898L15.8594-7.95898L15.8594-11.6504Q15.8594-12.0605 15.6055-12.3145Q15.3516-12.5684 14.9414-12.5684Q14.5605-12.5684 14.3115-12.3096Q14.0625-12.0508 14.0625-11.6504L14.0625-7.95898L10.3711-7.95898Q9.96094-7.95898 9.70703-7.70508Q9.45312-7.45117 9.45312-7.04102Z"/>
  </g>
  <text style="stroke:none;fill:black;font-family:sans-serif;font-size:13;font-weight:bold;" transform="matrix(1 0 0 1 263 1953)">Design Variations</text>
  <text style="stroke:none;fill:black;font-family:sans-serif;font-size:13;" transform="matrix(1 0 0 1 263 1971)">Symbols are supported in up to nine weights and three scales.</text>
  <text style="stroke:none;fill:black;font-family:sans-serif;font-size:13;" transform="matrix(1 0 0 1 263 1989)">For optimal layout with text and other symbols, vertically align</text>
  <text style="stroke:none;fill:black;font-family:sans-serif;font-size:13;" transform="matrix(1 0 0 1 263 2007)">symbols with the adjacent text.</text>
  <line style="fill:none;stroke:#00AEEF;stroke-width:0.5;opacity:1.0;" x1="776" x2="776" y1="1919" y2="1933"/>
  <g transform="matrix(1 0 0 1 776 1933)">
   <path d="M3.31055 0.15625Q3.70117 0.15625 3.91602-0.00976562Q4.13086-0.175781 4.26758-0.585938L5.52734-4.0332L11.2891-4.0332L12.5488-0.585938Q12.6855-0.175781 12.9004-0.00976562Q13.1152 0.15625 13.4961 0.15625Q13.8867 0.15625 14.1162-0.0585938Q14.3457-0.273438 14.3457-0.644531Q14.3457-0.869141 14.2383-1.17188L9.6582-13.3691Q9.48242-13.8184 9.17969-14.043Q8.87695-14.2676 8.4082-14.2676Q7.5-14.2676 7.17773-13.3789L2.59766-1.16211Q2.49023-0.859375 2.49023-0.634766Q2.49023-0.263672 2.70996-0.0537109Q2.92969 0.15625 3.31055 0.15625ZM6.00586-5.51758L8.37891-12.0898L8.42773-12.0898L10.8008-5.51758Z"/>
  </g>
  <line style="fill:none;stroke:#00AEEF;stroke-width:0.5;opacity:1.0;" x1="793.197" x2="793.197" y1="1919" y2="1933"/>
  <text style="stroke:none;fill:black;font-family:sans-serif;font-size:13;font-weight:bold;" transform="matrix(1 0 0 1 776 1953)">Margins</text>
  <text style="stroke:none;fill:black;font-family:sans-serif;font-size:13;" transform="matrix(1 0 0 1 776 1971)">Leading and trailing margins on the left and right side of each symbol</text>
  <text style="stroke:none;fill:black;font-family:sans-serif;font-size:13;" transform="matrix(1 0 0 1 776 1989)">can be adjusted by modifying the x-location of the margin guidelines.</text>
  <text style="stroke:none;fill:black;font-family:sans-serif;font-size:13;" transform="matrix(1 0 0 1 776 2007)">Modifications are automatically applied proportionally to all</text>
  <text style="stroke:none;fill:black;font-family:sans-serif;font-size:13;" transform="matrix(1 0 0 1 776 2025)">scales and weights.</text>
  <g transform="matrix(1 0 0 1 1289 1933)">
   <path d="M2.8418 1.86523L4.54102 3.57422Q5.18555 4.22852 5.90332 4.17969Q6.62109 4.13086 7.31445 3.35938L18.0078-8.42773L17.041-9.4043L6.42578 2.27539Q6.16211 2.57812 5.89355 2.61719Q5.625 2.65625 5.27344 2.30469L4.10156 1.14258Q3.75 0.791016 3.79395 0.522461Q3.83789 0.253906 4.14062-0.0195312L15.6152-10.8203L14.6387-11.7871L3.04688-0.898438Q2.30469-0.214844 2.25098 0.498047Q2.19727 1.21094 2.8418 1.86523ZM9.25781-16.3281Q8.94531-16.0254 8.90625-15.6348Q8.86719-15.2441 9.04297-14.9512Q9.21875-14.6777 9.55566-14.541Q9.89258-14.4043 10.3809-14.5215Q11.4746-14.7754 12.5977-14.7314Q13.7207-14.6875 14.7949-13.9844L14.209-12.5293Q13.9551-11.9043 14.0674-11.4404Q14.1797-10.9766 14.5801-10.5664L16.875-8.25195Q17.2363-7.88086 17.5781-7.82227Q17.9199-7.76367 18.3398-7.8418L19.4043-8.03711L20.0684-7.36328L20.0293-6.80664Q20-6.43555 20.1221-6.12305Q20.2441-5.81055 20.6055-5.44922L21.3672-4.70703Q21.7285-4.3457 22.1533-4.33105Q22.5781-4.31641 22.9297-4.66797L25.8398-7.58789Q26.1914-7.93945 26.1816-8.35449Q26.1719-8.76953 25.8105-9.13086L25.0391-9.89258Q24.6875-10.2539 24.3799-10.3857Q24.0723-10.5176 23.7109-10.4883L23.1348-10.4395L22.4902-11.0742L22.7344-12.1973Q22.832-12.6172 22.6953-12.9834Q22.5586-13.3496 22.1191-13.7891L19.9219-15.9766Q18.6719-17.2168 17.2607-17.8369Q15.8496-18.457 14.4189-18.4814Q12.9883-18.5059 11.665-17.959Q10.3418-17.4121 9.25781-16.3281ZM10.752-15.957Q11.6602-16.6211 12.7002-16.9043Q13.7402-17.1875 14.8047-17.085Q15.8691-16.9824 16.8701-16.5137Q17.8711-16.0449 18.7012-15.2051L21.1328-12.793Q21.3086-12.6172 21.3525-12.4512Q21.3965-12.2852 21.3379-12.0312L21.0156-10.5469L22.5195-9.0625L23.5059-9.12109Q23.6914-9.13086 23.7891-9.09668Q23.8867-9.0625 24.0332-8.91602L24.6094-8.33984L22.168-5.89844L21.5918-6.47461Q21.4453-6.62109 21.4062-6.71875Q21.3672-6.81641 21.377-7.01172L21.4453-7.98828L19.9512-9.47266L18.4277-9.21875Q18.1836-9.16992 18.042-9.2041Q17.9004-9.23828 17.7148-9.41406L15.7129-11.416Q15.5176-11.5918 15.4932-11.7529Q15.4688-11.9141 15.5859-12.1875L16.4648-14.2773Q15.293-15.3711 13.8281-15.791Q12.3633-16.2109 10.8398-15.7617Q10.7227-15.7324 10.6885-15.8057Q10.6543-15.8789 10.752-15.957Z"/>
  </g>
  <text style="stroke:none;fill:black;font-family:sans-serif;font-size:13;font-weight:bold;" transform="matrix(1 0 0 1 1289 1953)">Exporting</text>
  <text style="stroke:none;fill:black;font-family:sans-serif;font-size:13;" transform="matrix(1 0 0 1 1289 1971)">Symbols should be outlined when exporting to ensure the</text>
  <text style="stroke:none;fill:black;font-family:sans-serif;font-size:13;" transform="matrix(1 0 0 1 1289 1989)">design is preserved when submitting to Xcode.</text>
  <text id="template-version" style="stroke:none;fill:black;font-family:sans-serif;font-size:13;text-anchor:end;" transform="matrix(1 0 0 1 3036 1933)">Template v.3.0</text>
  <text style="stroke:none;fill:black;font-family:sans-serif;font-size:13;text-anchor:end;" transform="matrix(1 0 0 1 3036 1951)">Requires Xcode 13 or greater</text>
  <text id="descriptive-name" style="stroke:none;fill:black;font-family:sans-serif;font-size:13;text-anchor:end;" transform="matrix(1 0 0 1 3036 1969)">Generated from logo.paypal.circle.fill</text>
  <text style="stroke:none;fill:black;font-family:sans-serif;font-size:13;text-anchor:end;" transform="matrix(1 0 0 1 3036 1987)">Typeset at 100 points</text>
  <text style="stroke:none;fill:black;font-family:sans-serif;font-size:13;" transform="matrix(1 0 0 1 263 726)">Small</text>
  <text style="stroke:none;fill:black;font-family:sans-serif;font-size:13;" transform="matrix(1 0 0 1 263 1156)">Medium</text>
  <text style="stroke:none;fill:black;font-family:sans-serif;font-size:13;" transform="matrix(1 0 0 1 263 1586)">Large</text>
 </g>
 <g id="Guides">
  <g id="H-reference" style="fill:#27AAE1;stroke:none;" transform="matrix(1 0 0 1 339 696)">
   <path d="M0.976562 0L3.66211 0L29.3457-67.1387L30.0293-67.1387L30.0293-70.459L28.125-70.459ZM11.6699-24.4629L46.9727-24.4629L46.2402-26.709L12.4512-26.709ZM55.127 0L57.7637 0L30.6152-70.459L29.4434-70.459L29.4434-67.1387Z"/>
  </g>
  <line id="Baseline-S" style="fill:none;stroke:#27AAE1;opacity:1;stroke-width:0.5;" x1="263" x2="3036" y1="696" y2="696"/>
  <line id="Capline-S" style="fill:none;stroke:#27AAE1;opacity:1;stroke-width:0.5;" x1="263" x2="3036" y1="625.541" y2="625.541"/>
  <g id="H-reference" style="fill:#27AAE1;stroke:none;" transform="matrix(1 0 0 1 339 1126)">
   <path d="M0.976562 0L3.66211 0L29.3457-67.1387L30.0293-67.1387L30.0293-70.459L28.125-70.459ZM11.6699-24.4629L46.9727-24.4629L46.2402-26.709L12.4512-26.709ZM55.127 0L57.7637 0L30.6152-70.459L29.4434-70.459L29.4434-67.1387Z"/>
  </g>
  <line id="Baseline-M" style="fill:none;stroke:#27AAE1;opacity:1;stroke-width:0.5;" x1="263" x2="3036" y1="1126" y2="1126"/>
  <line id="Capline-M" style="fill:none;stroke:#27AAE1;opacity:1;stroke-width:0.5;" x1="263" x2="3036" y1="1055.54" y2="1055.54"/>
  <g id="H-reference" style="fill:#27AAE1;stroke:none;" transform="matrix(1 0 0 1 339 1556)">
   <path d="M0.976562 0L3.66211 0L29.3457-67.1387L30.0293-67.1387L30.0293-70.459L28.125-70.459ZM11.6699-24.4629L46.9727-24.4629L46.2402-26.709L12.4512-26.709ZM55.127 0L57.7637 0L30.6152-70.459L29.4434-70.459L29.4434-67.1387Z"/>
  </g>
  <line id="Baseline-L" style="fill:none;stroke:#27AAE1;opacity:1;stroke-width:0.5;" x1="263" x2="3036" y1="1556" y2="1556"/>
  <line id="Capline-L" style="fill:none;stroke:#27AAE1;opacity:1;stroke-width:0.5;" x1="263" x2="3036" y1="1485.54" y2="1485.54"/>
  <line id="left-margin-Regular-M" style="fill:none;stroke:#00AEEF;stroke-width:0.5;opacity:1.0;" x1="1391.01" x2="1391.01" y1="1030.73" y2="1150.14"/>
  <line id="right-margin-Regular-M" style="fill:none;stroke:#00AEEF;stroke-width:0.5;opacity:1.0;" x1="1508.68" x2="1508.68" y1="1030.73" y2="1150.14"/>
 </g>
 <g id="Symbols">
  <g id="Black-L" transform="matrix(1 0 0 1 2853.82 1556)">
   <path class="multicolor-0:tintColor hierarchical-0:tertiary SFSymbolsPreview007AFF" d="M142.205-61.0876C138.631-69.3442 133.783-76.4929 127.455-82.7783C121.173-89.0611 114.021-93.9518 105.765-97.4824C97.5082-101.013 88.8-102.822 79.4356-102.822C70.0712-102.822 61.363-101.055 53.1065-97.4824C44.85-93.9093 37.7437-89.0611 31.4583-82.7783C25.1755-76.4956 20.2848-69.3442 16.7542-61.0876C13.2236-52.8311 11.4146-44.1229 11.4146-34.7585C11.4146-25.3942 13.1812-16.6833 16.7542-8.42943C20.3273-0.172882 25.1755 6.97585 31.4583 13.2613C37.741 19.544 44.8924 24.4347 53.1489 27.9653C61.4055 31.4959 70.1137 33.305 79.4781 33.305C88.8424 33.305 97.5957 31.5383 105.807 27.9653C114.019 24.3922 121.17 19.544 127.498 13.2613C133.781 6.97848 138.671-0.172882 142.205-8.42943C145.778-16.686 147.544-25.3942 147.544-34.7585C147.544-44.1229 145.738-52.8735 142.205-61.0876Z"/>
   <path class="multicolor-1:systemCyanColor hierarchical-1:secondary SFSymbolsPreview55BEF0" d="M108.545-34.4265C106.239-22.5681 98.3337-18.4506 88.1223-18.4506L86.64-18.4506C85.3224-18.4506 84.3342-17.6271 84.1695-16.3095L84.0048-15.6507L82.0284-3.1335L81.8637-2.6394C81.699-1.4865 80.5461-0.4983 79.3932-0.4983L68.8524-0.4983C67.8642-0.4983 67.2054-1.3218 67.3701-2.31L68.1936-7.7451L71.1582-26.8503C71.3229-28.1679 72.6405-29.3208 73.9581-29.3208L79.8873-29.3208C91.4163-29.3208 100.475-34.0971 103.11-47.6025C103.11-47.9319 103.275-48.426 103.275-48.7554C104.428-48.0966 105.416-47.4378 106.075-46.6143C109.039-43.5301 109.533-39.3675 108.545-34.4265Z"/>
   <path class="multicolor-2:systemBlueColor hierarchical-2:primary SFSymbolsPreview007AFF" d="M64.2832-11.6979L51.9307-11.6979C50.9425-11.6979 50.119-12.6861 50.2837-13.6743L58.6834-66.7077C58.8481-68.0253 60.1657-69.1782 61.4833-69.1782L81.5767-69.1782C88.4941-69.1782 93.9292-67.6959 96.8938-64.2372C99.6937-61.1079 100.353-57.6492 99.6937-52.7082L99.6937-52.7082C99.6937-52.3788 99.529-51.8847 99.529-51.5553C96.8938-37.8852 87.8353-33.2736 76.3063-33.2736L70.3745-33.2736C68.8922-33.2736 67.7393-32.2854 67.5746-30.8031L67.7393-31.4619L64.2832-11.6979Z"/>
  </g>
  <g id="Heavy-L" transform="matrix(1 0 0 1 2558.04 1556)">
   <path class="multicolor-0:tintColor hierarchical-0:tertiary SFSymbolsPreview007AFF" d="M140.413-60.709C136.887-68.8517 132.105-75.9148 125.853-82.1058C119.675-88.2844 112.599-93.1274 104.457-96.5918C96.314-100.056 87.7382-101.856 78.5159-101.856C69.2936-101.856 60.7178-100.117 52.5751-96.5918C44.4324-93.0665 37.4303-88.2844 31.2393-82.1058C25.0607-75.9272 20.2177-68.8517 16.7533-60.709C13.2889-52.5664 11.4895-43.9905 11.4895-34.7683C11.4895-25.546 13.2279-16.9578 16.7533-8.82749C20.2786-0.684808 25.0607 6.37828 31.2393 12.5693C37.4179 18.7479 44.4934 23.5909 52.6361 27.0553C60.7788 30.5197 69.3546 32.3191 78.5768 32.3191C87.7991 32.3191 96.4483 30.5807 104.518 27.0553C112.587 23.5299 119.662 18.7479 125.914 12.5693C132.093 6.39064 136.936-0.684808 140.413-8.82749C143.938-16.9702 145.677-25.546 145.677-34.7683C145.677-43.9905 143.89-52.6273 140.413-60.709Z"/>
   <path class="multicolor-1:systemCyanColor hierarchical-1:secondary SFSymbolsPreview55BEF0" d="M107.607-34.4265C105.301-22.5681 97.3954-18.4506 87.184-18.4506L85.7017-18.4506C84.3841-18.4506 83.3959-17.6271 83.2312-16.3095L83.0665-15.6507L81.0901-3.1335L80.9254-2.6394C80.7607-1.4865 79.6078-0.4983 78.4549-0.4983L67.9141-0.4983C66.9259-0.4983 66.2671-1.3218 66.4318-2.31L67.2553-7.7451L70.2199-26.8503C70.3846-28.1679 71.7022-29.3208 73.0198-29.3208L78.949-29.3208C90.478-29.3208 99.5365-34.0971 102.172-47.6025C102.172-47.9319 102.336-48.426 102.336-48.7554C103.489-48.0966 104.478-47.4378 105.136-46.6143C108.101-43.5583 108.595-39.3675 107.607-34.4265Z"/>
   <path class="multicolor-2:systemBlueColor hierarchical-2:primary SFSymbolsPreview007AFF" d="M63.3635-11.6979L51.011-11.6979C50.0228-11.6979 49.1993-12.6861 49.364-13.6743L57.7637-66.7077C57.9284-68.0253 59.246-69.1782 60.5636-69.1782L80.657-69.1782C87.5744-69.1782 93.0095-67.6959 95.9741-64.2372C98.774-61.1079 99.4328-57.6492 98.774-52.7082L98.774-52.7082C98.774-52.3788 98.6093-51.8847 98.6093-51.5553C95.9741-37.8852 86.9156-33.2736 75.3866-33.2736L69.445-33.2736C67.9627-33.2736 66.8098-32.2854 66.6451-30.8031L66.8098-31.4619L63.3635-11.6979Z"/>
  </g>
  <g id="Bold-L" transform="matrix(1 0 0 1 2262.49 1556)">
   <path class="multicolor-0:tintColor hierarchical-0:tertiary SFSymbolsPreview007AFF" d="M138.161-60.2442C134.701-68.2419 129.999-75.1915 123.843-81.271C117.793-87.3213 110.814-92.0992 102.817-95.4836C94.819-98.8681 86.403-100.651 77.3574-100.651C68.3118-100.651 59.8958-98.9439 51.8982-95.4836C43.9006-92.0234 37.0267-87.3213 30.9472-81.271C24.8969-75.2206 20.119-68.2419 16.7345-60.2442C13.3501-52.2466 11.5675-43.8307 11.5675-34.785C11.5675-25.7394 13.2743-17.2943 16.7345-9.32582C20.1948-1.3282 24.8969 5.62141 30.9472 11.7009C36.9976 17.7513 43.9763 22.5291 51.9739 25.9136C59.9716 29.2981 68.3875 31.0806 77.4331 31.0806C86.4788 31.0806 94.9996 29.3738 102.892 25.9136C110.785 22.4533 117.764 17.7513 123.919 11.7009C129.969 5.65054 134.747-1.3282 138.161-9.32582C141.621-17.3234 143.328-25.7394 143.328-34.785C143.328-43.8307 141.575-52.3224 138.161-60.2442Z"/>
   <path class="multicolor-1:systemCyanColor hierarchical-1:secondary SFSymbolsPreview55BEF0" d="M106.434-34.4265C104.128-22.5681 96.2221-18.4506 86.0107-18.4506L84.5284-18.4506C83.2108-18.4506 82.2226-17.6271 82.0579-16.3095L81.8932-15.6507L79.9168-3.1335L79.7521-2.6394C79.5874-1.4865 78.4345-0.4983 77.2816-0.4983L66.7408-0.4983C65.7526-0.4983 65.0938-1.3218 65.2585-2.31L66.082-7.7451L69.0466-26.8503C69.2113-28.1679 70.5289-29.3208 71.8465-29.3208L77.7757-29.3208C89.3047-29.3208 98.3632-34.0971 100.998-47.6025C100.998-47.9319 101.163-48.426 101.163-48.7554C102.316-48.0966 103.304-47.4378 103.963-46.6143C106.928-43.5899 107.422-39.3675 106.434-34.4265Z"/>
   <path class="multicolor-2:systemBlueColor hierarchical-2:primary SFSymbolsPreview007AFF" d="M62.205-11.6979L49.8525-11.6979C48.8643-11.6979 48.0408-12.6861 48.2055-13.6743L56.6052-66.7077C56.7699-68.0253 58.0875-69.1782 59.4051-69.1782L79.4985-69.1782C86.4159-69.1782 91.851-67.6959 94.8156-64.2372C97.6155-61.1079 98.2743-57.6492 97.6155-52.7082L97.6155-52.7082C97.6155-52.3788 97.4508-51.8847 97.4508-51.5553C94.8156-37.8852 85.7571-33.2736 74.2281-33.2736L68.2698-33.2736C66.7875-33.2736 65.6346-32.2854 65.4699-30.8031L65.6346-31.4619L62.205-11.6979Z"/>
  </g>
  <g id="Semibold-L" transform="matrix(1 0 0 1 1966.59 1556)">
   <path class="multicolor-0:tintColor hierarchical-0:tertiary SFSymbolsPreview007AFF" d="M136.608-59.9238C133.193-67.8214 128.546-74.6928 122.458-80.6954C116.496-86.6574 109.584-91.3903 101.686-94.7197C93.7883-98.049 85.4826-99.82 76.5587-99.82C67.6349-99.82 59.3291-98.135 51.4315-94.7197C43.5339-91.3043 36.7485-86.6574 30.7458-80.6954C24.7839-74.7335 20.051-67.8214 16.7216-59.9238C13.3922-52.0262 11.6212-43.7205 11.6212-34.7966C11.6212-25.8727 13.3063-17.5263 16.7216-9.66937C20.137-1.77176 24.7839 5.09962 30.7458 11.1022C36.7078 17.0642 43.6198 21.7971 51.5175 25.1265C59.4151 28.4558 67.7208 30.2268 76.6447 30.2268C85.5685 30.2268 94.001 28.5418 101.772 25.1265C109.543 21.7111 116.455 17.0642 122.544 11.1022C128.505 5.14032 133.238-1.77176 136.608-9.66937C140.024-17.567 141.709-25.8727 141.709-34.7966C141.709-43.7205 139.979-52.1122 136.608-59.9238Z"/>
   <path class="multicolor-1:systemCyanColor hierarchical-1:secondary SFSymbolsPreview55BEF0" d="M105.625-34.4265C103.319-22.5681 95.4133-18.4506 85.2019-18.4506L83.7196-18.4506C82.402-18.4506 81.4138-17.6271 81.2491-16.3095L81.0844-15.6507L79.108-3.1335L78.9433-2.6394C78.7786-1.4865 77.6257-0.4983 76.4728-0.4983L65.932-0.4983C64.9438-0.4983 64.285-1.3218 64.4497-2.31L65.2732-7.7451L68.2378-26.8503C68.4025-28.1679 69.7201-29.3208 71.0377-29.3208L76.9669-29.3208C88.4959-29.3208 97.5544-34.0971 100.19-47.6025C100.19-47.9319 100.354-48.426 100.354-48.7554C101.507-48.0966 102.495-47.4378 103.154-46.6143C106.119-43.6117 106.613-39.3675 105.625-34.4265Z"/>
   <path class="multicolor-2:systemBlueColor hierarchical-2:primary SFSymbolsPreview007AFF" d="M61.4063-11.6979L49.0538-11.6979C48.0656-11.6979 47.2421-12.6861 47.4068-13.6743L55.8065-66.7077C55.9712-68.0253 57.2888-69.1782 58.6064-69.1782L78.6998-69.1782C85.6172-69.1782 91.0523-67.6959 94.0169-64.2372C96.8168-61.1079 97.4756-57.6492 96.8168-52.7082L96.8168-52.7082C96.8168-52.3788 96.6521-51.8847 96.6521-51.5553C94.0169-37.8852 84.9584-33.2736 73.4294-33.2736L67.4595-33.2736C65.9772-33.2736 64.8243-32.2854 64.6596-30.8031L64.8243-31.4619L61.4063-11.6979Z"/>
  </g>
  <g id="Medium-L" transform="matrix(1 0 0 1 1670.48 1556)">
   <path class="multicolor-0:tintColor hierarchical-0:tertiary SFSymbolsPreview007AFF" d="M135.431-59.6809C132.05-67.5027 127.445-74.3147 121.407-80.259C115.512-86.1539 108.65-90.8528 100.829-94.1404C93.0068-97.428 84.7847-99.1902 75.9531-99.1902C67.1216-99.1902 58.8994-97.5217 51.0776-94.1404C43.2558-90.7591 36.5375-86.1539 30.5932-80.259C24.6983-74.3642 19.9994-67.5027 16.7118-59.6809C13.4242-51.8591 11.662-43.6369 11.662-34.8054C11.662-25.9738 13.3305-17.7022 16.7118-9.92987C20.0931-2.10808 24.6983 4.70398 30.5932 10.6483C36.488 16.5432 43.3495 21.2421 51.1713 24.5297C58.9931 27.8173 67.2153 29.5795 76.0468 29.5795C84.8784 29.5795 93.2437 27.911 100.922 24.5297C108.601 21.1484 115.462 16.5432 121.501 10.6483C127.395 4.75345 132.094-2.10808 135.431-9.92987C138.813-17.7517 140.481-25.9738 140.481-34.8054C140.481-43.6369 138.768-51.9528 135.431-59.6809Z"/>
   <path class="multicolor-1:systemCyanColor hierarchical-1:secondary SFSymbolsPreview55BEF0" d="M105.011-34.4265C102.706-22.5681 94.7999-18.4506 84.5885-18.4506L83.1062-18.4506C81.7886-18.4506 80.8004-17.6271 80.6357-16.3095L80.471-15.6507L78.4946-3.1335L78.3299-2.6394C78.1652-1.4865 77.0123-0.4983 75.8594-0.4983L65.3186-0.4983C64.3304-0.4983 63.6716-1.3218 63.8363-2.31L64.6598-7.7451L67.6244-26.8503C67.7891-28.1679 69.1067-29.3208 70.4243-29.3208L76.3535-29.3208C87.8825-29.3208 96.941-34.0971 99.5762-47.6025C99.5762-47.9319 99.7409-48.426 99.7409-48.7554C100.894-48.0966 101.882-47.4378 102.541-46.6143C105.505-43.6282 106-39.3675 105.011-34.4265Z"/>
   <path class="multicolor-2:systemBlueColor hierarchical-2:primary SFSymbolsPreview007AFF" d="M60.8007-11.6979L48.4482-11.6979C47.46-11.6979 46.6365-12.6861 46.8012-13.6743L55.2009-66.7077C55.3656-68.0253 56.6832-69.1782 58.0008-69.1782L78.0942-69.1782C85.0116-69.1782 90.4467-67.6959 93.4113-64.2372C96.2112-61.1079 96.87-57.6492 96.2112-52.7082L96.2112-52.7082C96.2112-52.3788 96.0465-51.8847 96.0465-51.5553C93.4113-37.8852 84.3528-33.2736 72.8238-33.2736L66.8452-33.2736C65.3629-33.2736 64.21-32.2854 64.0453-30.8031L64.21-31.4619L60.8007-11.6979Z"/>
  </g>
  <g id="Regular-L" transform="matrix(1 0 0 1 1374.57 1556)">
   <path class="multicolor-0:tintColor hierarchical-0:tertiary SFSymbolsPreview007AFF" d="M133.896-59.364C130.559-67.0869 126.008-73.8215 120.036-79.6898C114.229-85.4972 107.433-90.1517 99.7104-93.3848C91.9875-96.6179 83.8743-98.3687 75.1632-98.3687C66.4522-98.3687 58.339-96.7217 50.6161-93.3848C42.8932-90.0479 36.2623-85.4972 30.394-79.6898C24.5866-73.8824 19.9321-67.0869 16.699-59.364C13.4659-51.6411 11.7151-43.5279 11.7151-34.8168C11.7151-26.1057 13.3621-17.9316 16.699-10.2696C20.0359-2.54676 24.5866 4.18793 30.394 10.0562C36.2014 15.8636 42.997 20.5181 50.7199 23.7512C58.4428 26.9843 66.556 28.7351 75.267 28.7351C83.9781 28.7351 92.256 27.0881 99.8142 23.7512C107.372 20.4143 114.168 15.8636 120.14 10.0562C125.947 4.24884 130.602-2.54676 133.896-10.2696C137.233-17.9925 138.88-26.1057 138.88-34.8168C138.88-43.5279 137.19-51.7449 133.896-59.364Z"/>
   <path class="multicolor-1:systemCyanColor hierarchical-1:secondary SFSymbolsPreview55BEF0" d="M104.211-34.4265C101.906-22.5681 94-18.4506 83.7886-18.4506L82.3063-18.4506C80.9887-18.4506 80.0005-17.6271 79.8358-16.3095L79.6711-15.6507L77.6947-3.1335L77.53-2.6394C77.3653-1.4865 76.2124-0.4983 75.0595-0.4983L64.5187-0.4983C63.5305-0.4983 62.8717-1.3218 63.0364-2.31L63.8599-7.7451L66.8245-26.8503C66.9892-28.1679 68.3068-29.3208 69.6244-29.3208L75.5536-29.3208C87.0826-29.3208 96.1411-34.0971 98.7763-47.6025C98.7763-47.9319 98.941-48.426 98.941-48.7554C100.094-48.0966 101.082-47.4378 101.741-46.6143C104.705-43.6497 105.2-39.3675 104.211-34.4265Z"/>
   <path class="multicolor-2:systemBlueColor hierarchical-2:primary SFSymbolsPreview007AFF" d="M60.0108-11.6979L47.6583-11.6979C46.6701-11.6979 45.8466-12.6861 46.0113-13.6743L54.411-66.7077C54.5757-68.0253 55.8933-69.1782 57.2109-69.1782L77.3043-69.1782C84.2217-69.1782 89.6568-67.6959 92.6214-64.2372C95.4213-61.1079 96.0801-57.6492 95.4213-52.7082L95.4213-52.7082C95.4213-52.3788 95.2566-51.8847 95.2566-51.5553C92.6214-37.8852 83.5629-33.2736 72.0339-33.2736L66.0438-33.2736C64.5615-33.2736 63.4086-32.2854 63.2439-30.8031L63.4086-31.4619L60.0108-11.6979Z"/>
  </g>
  <g id="Light-L" transform="matrix(1 0 0 1 1078.76 1556)">
   <path class="multicolor-0:tintColor hierarchical-0:tertiary SFSymbolsPreview007AFF" d="M132.131-59.0698C128.878-66.6666 124.369-73.2752 118.481-79.1014C112.758-84.8248 106.046-89.3952 98.4495-92.5863C90.8527-95.7773 82.8236-97.4861 74.2386-97.4861C65.6536-97.4861 57.6245-95.8391 50.0277-92.5863C42.4309-89.3334 35.884-84.8248 30.0578-79.1014C24.3344-73.3781 19.764-66.6666 16.5729-59.0698C13.3819-51.473 11.6731-43.4438 11.6731-34.8588C11.6731-26.2738 13.3201-18.1418 16.5729-10.6479C19.8258-3.0511 24.3344 3.5575 30.0578 9.38376C35.7811 15.1071 42.4926 19.6775 50.0894 22.8686C57.6862 26.0597 65.7154 27.7684 74.3004 27.7684C82.8854 27.7684 91.0792 26.1214 98.5113 22.8686C105.943 19.6158 112.655 15.1071 118.543 9.38376C124.266 3.66043 128.837-3.0511 132.131-10.6479C135.384-18.2447 137.031-26.2738 137.031-34.8588C137.031-43.4438 135.425-51.5347 132.131-59.0698Z"/>
   <path class="multicolor-1:systemCyanColor hierarchical-1:secondary SFSymbolsPreview55BEF0" d="M103.329-34.4265C101.023-22.5681 93.1173-18.4506 82.9059-18.4506L81.4236-18.4506C80.106-18.4506 79.1178-17.6271 78.9531-16.3095L78.7884-15.6507L76.812-3.1335L76.6473-2.6394C76.4826-1.4865 75.3297-0.4983 74.1768-0.4983L63.636-0.4983C62.6478-0.4983 61.989-1.3218 62.1537-2.31L62.9772-7.7451L65.9418-26.8503C66.1065-28.1679 67.4241-29.3208 68.7417-29.3208L74.6709-29.3208C86.1999-29.3208 95.2584-34.0971 97.8936-47.6025C97.8936-47.9319 98.0583-48.426 98.0583-48.7554C99.2112-48.0966 100.199-47.4378 100.858-46.6143C103.823-43.6497 104.317-39.3675 103.329-34.4265Z"/>
   <path class="multicolor-2:systemBlueColor hierarchical-2:primary SFSymbolsPreview007AFF" d="M59.0862-11.6979L46.7337-11.6979C45.7455-11.6979 44.922-12.6861 45.0867-13.6743L53.4864-66.7077C53.6511-68.0253 54.9687-69.1782 56.2863-69.1782L76.3797-69.1782C83.2971-69.1782 88.7322-67.6959 91.6968-64.2372C94.4967-61.1079 95.1555-57.6492 94.4967-52.7082L94.4967-52.7082C94.4967-52.3788 94.332-51.8847 94.332-51.5553C91.6968-37.8852 82.6383-33.2736 71.1093-33.2736L65.0772-33.2736C63.5949-33.2736 62.442-32.2854 62.2773-30.8031L62.442-31.4619L59.0862-11.6979Z"/>
  </g>
  <g id="Thin-L" transform="matrix(1 0 0 1 783.245 1556)">
   <path class="multicolor-0:tintColor hierarchical-0:tertiary SFSymbolsPreview007AFF" d="M129.796-58.6807C126.654-66.1107 122.201-72.5525 116.424-78.3232C110.812-83.9354 104.212-88.3946 96.7819-91.5301C89.3519-94.6656 81.4339-96.3188 73.0157-96.3188C64.5975-96.3188 56.6795-94.6718 49.2495-91.5301C41.8194-88.3885 35.3838-83.9354 29.6131-78.3232C24.0009-72.7111 19.5417-66.1107 16.4062-58.6807C13.2707-51.2506 11.6175-43.3327 11.6175-34.9144C11.6175-26.4962 13.2645-18.4197 16.4062-11.1482C19.5478-3.71814 24.0009 2.72369 29.6131 8.49437C35.2252 14.1065 41.8256 18.5658 49.2556 21.7013C56.6857 24.8368 64.6036 26.4899 73.0219 26.4899C81.4401 26.4899 89.5228 24.8429 96.7881 21.7013C104.053 18.5596 110.654 14.1065 116.431 8.49437C122.043 2.88222 126.502-3.71814 129.796-11.1482C132.938-18.5782 134.585-26.4962 134.585-34.9144C134.585-43.3327 133.09-51.2568 129.796-58.6807Z"/>
   <path class="multicolor-1:systemCyanColor hierarchical-1:secondary SFSymbolsPreview55BEF0" d="M102.161-34.4265C99.8556-22.5681 91.95-18.4506 81.7386-18.4506L80.2563-18.4506C78.9387-18.4506 77.9505-17.6271 77.7858-16.3095L77.6211-15.6507L75.6447-3.1335L75.48-2.6394C75.3153-1.4865 74.1624-0.4983 73.0095-0.4983L62.4687-0.4983C61.4805-0.4983 60.8217-1.3218 60.9864-2.31L61.8099-7.7451L64.7745-26.8503C64.9392-28.1679 66.2568-29.3208 67.5744-29.3208L73.5036-29.3208C85.0326-29.3208 94.0911-34.0971 96.7263-47.6025C96.7263-47.9319 96.891-48.426 96.891-48.7554C98.0439-48.0966 99.0321-47.4378 99.6909-46.6143C102.656-43.6497 103.15-39.3675 102.161-34.4265Z"/>
   <path class="multicolor-2:systemBlueColor hierarchical-2:primary SFSymbolsPreview007AFF" d="M57.8633-11.6979L45.5108-11.6979C44.5226-11.6979 43.6991-12.6861 43.8638-13.6743L52.2635-66.7077C52.4282-68.0253 53.7458-69.1782 55.0634-69.1782L75.1568-69.1782C82.0742-69.1782 87.5093-67.6959 90.4739-64.2372C93.2738-61.1079 93.9326-57.6492 93.2738-52.7082L93.2738-52.7082C93.2738-52.3788 93.1091-51.8847 93.1091-51.5553C90.4739-37.8852 81.4154-33.2736 69.8864-33.2736L63.7987-33.2736C62.3164-33.2736 61.1635-32.2854 60.9988-30.8031L61.1635-31.4619L57.8633-11.6979Z"/>
  </g>
  <g id="Ultralight-L" transform="matrix(1 0 0 1 487.146 1556)">
   <path class="multicolor-0:tintColor hierarchical-0:tertiary SFSymbolsPreview007AFF" d="M128.6-58.4814C125.516-65.826 121.091-72.1824 115.371-77.9246C109.816-83.4798 103.272-87.8822 95.9278-90.9892C88.5832-94.0962 80.7222-95.7209 72.3893-95.7209C64.0565-95.7209 56.1955-94.0739 48.8509-90.9892C41.5062-87.9044 35.1275-83.4798 29.3853-77.9246C23.8301-72.3694 19.4278-65.826 16.3208-58.4814C13.2138-51.1367 11.5891-43.2757 11.5891-34.9429C11.5891-26.6101 13.2361-18.5621 16.3208-11.4044C19.4055-4.0598 23.8301 2.29663 29.3853 8.03883C34.9405 13.5941 41.484 17.9964 48.8286 21.1034C56.1732 24.2104 64.0342 25.8351 72.367 25.8351C80.6999 25.8351 88.7256 24.1881 95.9055 21.1034C103.085 18.0187 109.629 13.5941 115.349 8.03883C120.904 2.48362 125.306-4.0598 128.6-11.4044C131.685-18.749 133.332-26.6101 133.332-34.9429C133.332-43.2757 131.894-51.1144 128.6-58.4814Z"/>
   <path class="multicolor-1:systemCyanColor hierarchical-1:secondary SFSymbolsPreview55BEF0" d="M101.564-34.4265C99.2577-22.5681 91.3521-18.4506 81.1407-18.4506L79.6584-18.4506C78.3408-18.4506 77.3526-17.6271 77.1879-16.3095L77.0232-15.6507L75.0468-3.1335L74.8821-2.6394C74.7174-1.4865 73.5645-0.4983 72.4116-0.4983L61.8708-0.4983C60.8826-0.4983 60.2238-1.3218 60.3885-2.31L61.212-7.7451L64.1766-26.8503C64.3413-28.1679 65.6589-29.3208 66.9765-29.3208L72.9057-29.3208C84.4347-29.3208 93.4932-34.0971 96.1284-47.6025C96.1284-47.9319 96.2931-48.426 96.2931-48.7554C97.446-48.0966 98.4342-47.4378 99.093-46.6143C102.058-43.6497 102.552-39.3675 101.564-34.4265Z"/>
   <path class="multicolor-2:systemBlueColor hierarchical-2:primary SFSymbolsPreview007AFF" d="M57.2369-11.6979L44.8844-11.6979C43.8962-11.6979 43.0727-12.6861 43.2374-13.6743L51.6371-66.7077C51.8018-68.0253 53.1194-69.1782 54.437-69.1782L74.5304-69.1782C81.4478-69.1782 86.8829-67.6959 89.8475-64.2372C92.6474-61.1079 93.3062-57.6492 92.6474-52.7082L92.6474-52.7082C92.6474-52.3788 92.4827-51.8847 92.4827-51.5553C89.8475-37.8852 80.789-33.2736 69.26-33.2736L63.1438-33.2736C61.6615-33.2736 60.5086-32.2854 60.3439-30.8031L60.5086-31.4619L57.2369-11.6979Z"/>
  </g>
  <g id="Black-M" transform="matrix(1 0 0 1 2871.07 1126)">
   <path class="multicolor-0:tintColor hierarchical-0:tertiary SFSymbolsPreview007AFF" d="M111.473-55.553C108.675-62.0305 104.867-67.6254 99.9111-72.5705C94.9655-77.5161 89.3712-81.3347 82.8937-84.1212C76.4162-86.9077 69.5673-88.3119 62.2072-88.3119C54.8472-88.3119 47.9983-86.919 41.5208-84.1212C35.0433-81.3234 29.4597-77.5161 24.5147-72.5705C19.569-67.6248 15.7504-62.0305 12.9639-55.553C10.1774-49.0756 8.77322-42.2266 8.77322-34.8666C8.77322-27.5066 10.1662-20.6582 12.9639-14.1801C15.7617-7.70265 19.569-2.10772 24.5147 2.83731C29.4603 7.78295 35.0546 11.6015 41.5321 14.388C48.0096 17.1745 54.8585 18.5787 62.2185 18.5787C69.5785 18.5787 76.4382 17.1858 82.905 14.388C89.3718 11.5902 94.9661 7.78295 99.9224 2.83731C104.868-2.10834 108.687-7.70265 111.473-14.1801C114.27-20.6576 115.663-27.5066 115.663-34.8666C115.663-42.2266 114.258-49.0869 111.473-55.553Z"/>
   <path class="multicolor-1:systemCyanColor hierarchical-1:secondary SFSymbolsPreview55BEF0" d="M84.7812-34.612C82.9948-25.4248 76.87-22.2348 68.9588-22.2348L67.8104-22.2348C66.7896-22.2348 66.024-21.5968 65.8964-20.576L65.7688-20.0656L64.2376-10.368L64.11-9.9852C63.9824-9.092 63.0892-8.3264 62.196-8.3264L54.0296-8.3264C53.264-8.3264 52.7536-8.9644 52.8812-9.73L53.5192-13.9408L55.816-28.7424C55.9436-29.7632 56.9644-30.6564 57.9852-30.6564L62.5788-30.6564C71.5108-30.6564 78.5288-34.3568 80.5704-44.82C80.5704-45.0752 80.698-45.458 80.698-45.7132C81.5912-45.2028 82.3568-44.6924 82.8672-44.0544C85.164-41.6407 85.5468-38.44 84.7812-34.612Z"/>
   <path class="multicolor-2:systemBlueColor hierarchical-2:primary SFSymbolsPreview007AFF" d="M50.468-17.0032L40.898-17.0032C40.1324-17.0032 39.4944-17.7688 39.622-18.5344L46.1296-59.6216C46.2572-60.6424 47.278-61.5356 48.2988-61.5356L63.866-61.5356C69.2252-61.5356 73.436-60.3872 75.7328-57.7076C77.902-55.2832 78.4124-52.6036 77.902-48.7756L77.902-48.7756C77.902-48.5204 77.7744-48.1376 77.7744-47.8824C75.7328-37.2916 68.7148-33.7188 59.7828-33.7188L55.1899-33.7188C54.0415-33.7188 53.1483-32.9532 53.0207-31.8048L53.1483-32.3152L50.468-17.0032Z"/>
  </g>
  <g id="Heavy-M" transform="matrix(1 0 0 1 2575.18 1126)">
   <path class="multicolor-0:tintColor hierarchical-0:tertiary SFSymbolsPreview007AFF" d="M109.884-55.2101C107.125-61.5878 103.378-67.1107 98.4886-71.9673C93.637-76.8189 88.1091-80.5986 81.7313-83.3243C75.3535-86.05 68.6262-87.4485 61.3935-87.4485C54.1607-87.4485 47.4334-86.0832 41.0556-83.3243C34.6778-80.5654 29.1882-76.8189 24.3316-71.9673C19.48-67.1157 15.7003-61.5878 12.9746-55.2101C10.249-48.8323 8.85038-42.1049 8.85038-34.8722C8.85038-27.6395 10.2157-20.9071 12.9746-14.5344C15.7336-8.15657 19.48-2.63372 24.3316 2.22289C29.1832 7.07448 34.7111 10.8542 41.0889 13.5799C47.4667 16.3055 54.194 17.7041 61.4267 17.7041C68.6594 17.7041 75.425 16.3388 81.7646 13.5799C88.1041 10.821 93.632 7.07448 98.5218 2.22289C103.373-2.62871 107.153-8.15657 109.884-14.5344C112.643-20.9121 114.008-27.6395 114.008-34.8722C114.008-42.1049 112.614-48.8655 109.884-55.2101Z"/>
   <path class="multicolor-1:systemCyanColor hierarchical-1:secondary SFSymbolsPreview55BEF0" d="M83.9454-34.612C82.159-25.4248 76.0342-22.2348 68.123-22.2348L66.9746-22.2348C65.9538-22.2348 65.1882-21.5968 65.0606-20.576L64.933-20.0656L63.4018-10.368L63.2742-9.9852C63.1466-9.092 62.2534-8.3264 61.3602-8.3264L53.1938-8.3264C52.4282-8.3264 51.9178-8.9644 52.0454-9.73L52.6834-13.9408L54.9802-28.7424C55.1078-29.7632 56.1286-30.6564 57.1494-30.6564L61.743-30.6564C70.675-30.6564 77.693-34.3568 79.7346-44.82C79.7346-45.0752 79.8622-45.458 79.8622-45.7132C80.7554-45.2028 81.521-44.6924 82.0314-44.0544C84.3282-41.6683 84.711-38.44 83.9454-34.612Z"/>
   <path class="multicolor-2:systemBlueColor hierarchical-2:primary SFSymbolsPreview007AFF" d="M49.6543-17.0032L40.0843-17.0032C39.3187-17.0032 38.6807-17.7688 38.8083-18.5344L45.3159-59.6216C45.4435-60.6424 46.4643-61.5356 47.4851-61.5356L63.0523-61.5356C68.4115-61.5356 72.6223-60.3872 74.9191-57.7076C77.0883-55.2832 77.5987-52.6036 77.0883-48.7756L77.0883-48.7756C77.0883-48.5204 76.9607-48.1376 76.9607-47.8824C74.9191-37.2916 67.9011-33.7188 58.9691-33.7188L54.3705-33.7188C53.2221-33.7188 52.3289-32.9532 52.2013-31.8048L52.3289-32.3152L49.6543-17.0032Z"/>
  </g>
  <g id="Bold-M" transform="matrix(1 0 0 1 2279.4 1126)">
   <path class="multicolor-0:tintColor hierarchical-0:tertiary SFSymbolsPreview007AFF" d="M108.107-54.8264C105.391-61.0927 101.713-66.5349 96.8972-71.2926C92.1508-76.039 86.6973-79.7752 80.431-82.4329C74.1647-85.0905 67.5735-86.4828 60.4831-86.4828C53.3928-86.4828 46.8015-85.1483 40.5353-82.4329C34.269-79.7174 28.8846-76.039 24.1269-71.2926C19.3805-66.5462 15.6442-61.0927 12.9866-54.8264C10.329-48.5601 8.93669-41.9689 8.93669-34.8785C8.93669-27.7882 10.2712-21.1856 12.9866-14.9306C15.7021-8.66434 19.3805-3.22212 24.1269 1.53557C28.8733 6.28196 34.3268 10.0182 40.5931 12.6758C46.8594 15.3335 53.4506 16.7258 60.541 16.7258C67.6313 16.7258 74.2917 15.3913 80.4889 12.6758C86.686 9.96039 92.1395 6.28196 96.955 1.53557C101.701-3.21082 105.438-8.66434 108.107-14.9306C110.822-21.1969 112.157-27.7882 112.157-34.8785C112.157-41.9689 110.776-48.6179 108.107-54.8264Z"/>
   <path class="multicolor-1:systemCyanColor hierarchical-1:secondary SFSymbolsPreview55BEF0" d="M83.0105-34.612C81.2241-25.4248 75.0993-22.2348 67.1881-22.2348L66.0397-22.2348C65.0189-22.2348 64.2533-21.5968 64.1257-20.576L63.9981-20.0656L62.4669-10.368L62.3393-9.9852C62.2117-9.092 61.3185-8.3264 60.4253-8.3264L52.2589-8.3264C51.4933-8.3264 50.9829-8.9644 51.1105-9.73L51.7485-13.9408L54.0453-28.7424C54.1729-29.7632 55.1937-30.6564 56.2145-30.6564L60.8081-30.6564C69.7401-30.6564 76.7581-34.3568 78.7997-44.82C78.7997-45.0752 78.9273-45.458 78.9273-45.7132C79.8205-45.2028 80.5861-44.6924 81.0965-44.0544C83.3933-41.6991 83.7761-38.44 83.0105-34.612Z"/>
   <path class="multicolor-2:systemBlueColor hierarchical-2:primary SFSymbolsPreview007AFF" d="M48.7439-17.0032L39.1739-17.0032C38.4083-17.0032 37.7703-17.7688 37.8979-18.5344L44.4055-59.6216C44.5331-60.6424 45.5539-61.5356 46.5747-61.5356L62.1419-61.5356C67.5011-61.5356 71.7119-60.3872 74.0087-57.7076C76.1779-55.2832 76.6883-52.6036 76.1779-48.7756L76.1779-48.7756C76.1779-48.5204 76.0503-48.1376 76.0503-47.8824C74.0087-37.2916 66.9907-33.7188 58.0587-33.7188L53.4538-33.7188C52.3054-33.7188 51.4122-32.9532 51.2846-31.8048L51.4122-32.3152L48.7439-17.0032Z"/>
  </g>
  <g id="Semibold-M" transform="matrix(1 0 0 1 1983.32 1126)">
   <path class="multicolor-0:tintColor hierarchical-0:tertiary SFSymbolsPreview007AFF" d="M106.881-54.5619C104.196-60.7513 100.564-66.1379 95.8001-70.8274C91.1263-75.5013 85.724-79.2076 79.5346-81.8183C73.3452-84.429 66.8478-85.817 59.8556-85.817C52.8634-85.817 46.3659-84.5038 40.1765-81.8183C33.9871-79.1328 28.6752-75.5013 23.9857-70.8274C19.3119-66.1536 15.6056-60.7513 12.9949-54.5619C10.3841-48.3725 8.9962-41.875 8.9962-34.8828C8.9962-27.8907 10.3094-21.3776 12.9949-15.2038C15.6804-9.01439 19.3119-3.62777 23.9857 1.06174C28.6596 5.7356 34.0619 9.44189 40.2513 12.0526C46.4407 14.6633 52.9381 16.0513 59.9303 16.0513C66.9225 16.0513 73.5104 14.7381 79.6094 12.0526C85.7084 9.36712 91.1106 5.7356 95.8749 1.06174C100.549-3.61212 104.255-9.01439 106.881-15.2038C109.567-21.3932 110.88-27.8907 110.88-34.8828C110.88-41.875 109.508-48.4473 106.881-54.5619Z"/>
   <path class="multicolor-1:systemCyanColor hierarchical-1:secondary SFSymbolsPreview55BEF0" d="M82.366-34.612C80.5796-25.4248 74.4548-22.2348 66.5436-22.2348L65.3952-22.2348C64.3744-22.2348 63.6088-21.5968 63.4812-20.576L63.3536-20.0656L61.8224-10.368L61.6948-9.9852C61.5672-9.092 60.674-8.3264 59.7808-8.3264L51.6144-8.3264C50.8488-8.3264 50.3384-8.9644 50.466-9.73L51.104-13.9408L53.4008-28.7424C53.5284-29.7632 54.5492-30.6564 55.57-30.6564L60.1636-30.6564C69.0956-30.6564 76.1136-34.3568 78.1552-44.82C78.1552-45.0752 78.2828-45.458 78.2828-45.7132C79.176-45.2028 79.9416-44.6924 80.452-44.0544C82.7488-41.7204 83.1316-38.44 82.366-34.612Z"/>
   <path class="multicolor-2:systemBlueColor hierarchical-2:primary SFSymbolsPreview007AFF" d="M48.1164-17.0032L38.5464-17.0032C37.7808-17.0032 37.1428-17.7688 37.2704-18.5344L43.778-59.6216C43.9056-60.6424 44.9264-61.5356 45.9472-61.5356L61.5144-61.5356C66.8736-61.5356 71.0844-60.3872 73.3812-57.7076C75.5504-55.2832 76.0608-52.6036 75.5504-48.7756L75.5504-48.7756C75.5504-48.5204 75.4228-48.1376 75.4228-47.8824C73.3812-37.2916 66.3632-33.7188 57.4312-33.7188L52.8219-33.7188C51.6735-33.7188 50.7803-32.9532 50.6527-31.8048L50.7803-32.3152L48.1164-17.0032Z"/>
  </g>
  <g id="Medium-M" transform="matrix(1 0 0 1 1687.09 1126)">
   <path class="multicolor-0:tintColor hierarchical-0:tertiary SFSymbolsPreview007AFF" d="M105.952-54.3613C103.29-60.4925 99.6937-65.8369 94.9683-70.4747C90.3494-75.0936 84.986-78.7772 78.8549-81.3523C72.7238-83.9275 66.2975-85.3121 59.3797-85.3121C52.4619-85.3121 46.0356-84.0151 39.9045-81.3523C33.7734-78.6896 28.5165-75.0936 23.8787-70.4747C19.2599-65.8559 15.5763-60.4925 13.0011-54.3613C10.426-48.2302 9.04132-41.8039 9.04132-34.8861C9.04132-27.9684 10.3384-21.5231 13.0011-15.4109C15.6639-9.27982 19.2599-3.93534 23.8787 0.702462C28.4976 5.32132 33.861 9.00489 39.9921 11.58C46.1232 14.1552 52.5495 15.5399 59.4673 15.5399C66.3851 15.5399 72.918 14.2428 78.9425 11.58C84.9671 8.91728 90.3305 5.32132 95.0559 0.702462C99.6748-3.9164 103.358-9.27982 105.952-15.4109C108.615-21.5421 109.912-27.9684 109.912-34.8861C109.912-41.8039 108.547-48.3178 105.952-54.3613Z"/>
   <path class="multicolor-1:systemCyanColor hierarchical-1:secondary SFSymbolsPreview55BEF0" d="M81.8773-34.612C80.0909-25.4248 73.9661-22.2348 66.0549-22.2348L64.9065-22.2348C63.8857-22.2348 63.1201-21.5968 62.9925-20.576L62.8649-20.0656L61.3337-10.368L61.2061-9.9852C61.0785-9.092 60.1853-8.3264 59.2921-8.3264L51.1257-8.3264C50.3601-8.3264 49.8497-8.9644 49.9773-9.73L50.6153-13.9408L52.9121-28.7424C53.0397-29.7632 54.0605-30.6564 55.0813-30.6564L59.6749-30.6564C68.6069-30.6564 75.6249-34.3568 77.6665-44.82C77.6665-45.0752 77.7941-45.458 77.7941-45.7132C78.6873-45.2028 79.4529-44.6924 79.9633-44.0544C82.2601-41.7366 82.6429-38.44 81.8773-34.612Z"/>
   <path class="multicolor-2:systemBlueColor hierarchical-2:primary SFSymbolsPreview007AFF" d="M47.6405-17.0032L38.0705-17.0032C37.3049-17.0032 36.6669-17.7688 36.7945-18.5344L43.3021-59.6216C43.4297-60.6424 44.4505-61.5356 45.4713-61.5356L61.0385-61.5356C66.3977-61.5356 70.6085-60.3872 72.9053-57.7076C75.0745-55.2832 75.5849-52.6036 75.0745-48.7756L75.0745-48.7756C75.0745-48.5204 74.9469-48.1376 74.9469-47.8824C72.9053-37.2916 65.8873-33.7188 56.9553-33.7188L52.3428-33.7188C51.1944-33.7188 50.3012-32.9532 50.1736-31.8048L50.3012-32.3152L47.6405-17.0032Z"/>
  </g>
  <g id="Regular-M" transform="matrix(1 0 0 1 1391.01 1126)">
   <path class="multicolor-0:tintColor hierarchical-0:tertiary SFSymbolsPreview007AFF" d="M104.741-54.0998C102.108-60.1548 98.558-65.4443 93.8833-70.0147C89.3362-74.5618 84.0234-78.2158 77.9683-80.7445C71.9133-83.2733 65.5797-84.6537 58.759-84.6537C51.9383-84.6537 45.6048-83.3777 39.5497-80.7445C33.4946-78.1114 28.3095-74.5618 23.7391-70.0147C19.192-65.4676 15.5381-60.1548 13.0093-54.0998C10.4805-48.0447 9.10016-41.7111 9.10016-34.8904C9.10016-28.0697 10.3762-21.713 13.0093-15.6811C15.6424-9.62602 19.192-4.33653 23.7391 0.233838C28.2862 4.78097 33.599 8.4349 39.6541 10.9637C45.7092 13.4924 52.0427 14.8728 58.8634 14.8728C65.6841 14.8728 72.1452 13.5968 78.0727 10.9637C84.0002 8.33053 89.3129 4.78097 93.9877 0.233838C98.5348-4.31329 102.189-9.62602 104.741-15.6811C107.374-21.7362 108.65-28.0697 108.65-34.8904C108.65-41.7111 107.293-48.149 104.741-54.0998Z"/>
   <path class="multicolor-1:systemCyanColor hierarchical-1:secondary SFSymbolsPreview55BEF0" d="M81.2399-34.612C79.4535-25.4248 73.3287-22.2348 65.4175-22.2348L64.2691-22.2348C63.2483-22.2348 62.4827-21.5968 62.3551-20.576L62.2275-20.0656L60.6963-10.368L60.5687-9.9852C60.4411-9.092 59.5479-8.3264 58.6547-8.3264L50.4883-8.3264C49.7227-8.3264 49.2123-8.9644 49.3399-9.73L49.9779-13.9408L52.2747-28.7424C52.4023-29.7632 53.4231-30.6564 54.4439-30.6564L59.0375-30.6564C67.9695-30.6564 74.9875-34.3568 77.0291-44.82C77.0291-45.0752 77.1567-45.458 77.1567-45.7132C78.0499-45.2028 78.8155-44.6924 79.3259-44.0544C81.6227-41.7576 82.0055-38.44 81.2399-34.612Z"/>
   <path class="multicolor-2:systemBlueColor hierarchical-2:primary SFSymbolsPreview007AFF" d="M47.0198-17.0032L37.4498-17.0032C36.6842-17.0032 36.0462-17.7688 36.1738-18.5344L42.6814-59.6216C42.809-60.6424 43.8298-61.5356 44.8506-61.5356L60.4178-61.5356C65.777-61.5356 69.9878-60.3872 72.2846-57.7076C74.4538-55.2832 74.9642-52.6036 74.4538-48.7756L74.4538-48.7756C74.4538-48.5204 74.3262-48.1376 74.3262-47.8824C72.2846-37.2916 65.2666-33.7188 56.3346-33.7188L51.7178-33.7188C50.5694-33.7188 49.6762-32.9532 49.5486-31.8048L49.6762-32.3152L47.0198-17.0032Z"/>
  </g>
  <g id="Light-M" transform="matrix(1 0 0 1 1095.11 1126)">
   <path class="multicolor-0:tintColor hierarchical-0:tertiary SFSymbolsPreview007AFF" d="M103.158-53.836C100.6-59.778 97.0885-64.9545 92.4891-69.4872C88.0173-73.9589 82.78-77.5375 76.8379-80.0286C70.8959-82.5197 64.6377-83.8624 57.93-83.8624C51.2224-83.8624 44.9642-82.5864 39.0222-80.0286C33.0801-77.4708 27.9704-73.9589 23.4377-69.4872C18.9659-65.0154 15.3873-59.778 12.8963-53.836C10.4052-47.8939 9.06248-41.6358 9.06248-34.9281C9.06248-28.2205 10.3385-21.9014 12.8963-16.0202C15.454-10.0782 18.9659-4.90174 23.4377-0.369061C27.9094 4.10271 33.1468 7.68127 39.0889 10.1724C45.0309 12.6634 51.2891 14.0061 57.9967 14.0061C64.7044 14.0061 71.0901 12.7301 76.9046 10.1724C82.719 7.61459 87.9564 4.10271 92.5558-0.369061C97.0275-4.84083 100.606-10.0782 103.158-16.0202C105.716-21.9623 106.992-28.2205 106.992-34.9281C106.992-41.6358 105.71-47.9606 103.158-53.836Z"/>
   <path class="multicolor-1:systemCyanColor hierarchical-1:secondary SFSymbolsPreview55BEF0" d="M80.4486-34.612C78.6622-25.4248 72.5374-22.2348 64.6262-22.2348L63.4778-22.2348C62.457-22.2348 61.6914-21.5968 61.5638-20.576L61.4362-20.0656L59.905-10.368L59.7774-9.9852C59.6498-9.092 58.7566-8.3264 57.8634-8.3264L49.697-8.3264C48.9314-8.3264 48.421-8.9644 48.5486-9.73L49.1866-13.9408L51.4834-28.7424C51.611-29.7632 52.6318-30.6564 53.6526-30.6564L58.2462-30.6564C67.1782-30.6564 74.1962-34.3568 76.2378-44.82C76.2378-45.0752 76.3654-45.458 76.3654-45.7132C77.2586-45.2028 78.0242-44.6924 78.5346-44.0544C80.8314-41.7576 81.2142-38.44 80.4486-34.612Z"/>
   <path class="multicolor-2:systemBlueColor hierarchical-2:primary SFSymbolsPreview007AFF" d="M46.1908-17.0032L36.6208-17.0032C35.8552-17.0032 35.2172-17.7688 35.3448-18.5344L41.8524-59.6216C41.98-60.6424 43.0008-61.5356 44.0216-61.5356L59.5888-61.5356C64.948-61.5356 69.1588-60.3872 71.4556-57.7076C73.6248-55.2832 74.1352-52.6036 73.6248-48.7756L73.6248-48.7756C73.6248-48.5204 73.4972-48.1376 73.4972-47.8824C71.4556-37.2916 64.4376-33.7188 55.5056-33.7188L50.8511-33.7188C49.7027-33.7188 48.8095-32.9532 48.6819-31.8048L48.8095-32.3152L46.1908-17.0032Z"/>
  </g>
  <g id="Thin-M" transform="matrix(1 0 0 1 799.469 1126)">
   <path class="multicolor-0:tintColor hierarchical-0:tertiary SFSymbolsPreview007AFF" d="M101.065-53.4871C98.6069-59.2797 95.1448-64.3066 90.6452-68.7895C86.2731-73.1616 81.1354-76.6405 75.3428-79.0817C69.5503-81.5229 63.3918-82.8158 56.8336-82.8158C50.2755-82.8158 44.117-81.5398 38.3245-79.0817C32.5319-76.6236 27.5218-73.1616 23.039-68.7895C18.6669-64.4174 15.188-59.2797 12.7467-53.4871C10.3055-47.6946 9.01265-41.5361 9.01265-34.978C9.01265-28.4198 10.2886-22.1506 12.7467-16.4688C15.2048-10.6762 18.6669-5.64929 23.039-1.16644C27.4111 3.20565 32.5488 6.68455 38.3413 9.12579C44.1339 11.567 50.2923 12.8599 56.8505 12.8599C63.4086 12.8599 69.6947 11.5839 75.3597 9.12579C81.0246 6.6677 86.1623 3.20565 90.662-1.16644C95.0341-5.53854 98.513-10.6762 101.065-16.4688C103.523-22.2613 104.799-28.4198 104.799-34.978C104.799-41.5361 103.617-47.7114 101.065-53.4871Z"/>
   <path class="multicolor-1:systemCyanColor hierarchical-1:secondary SFSymbolsPreview55BEF0" d="M79.402-34.612C77.6156-25.4248 71.4908-22.2348 63.5796-22.2348L62.4312-22.2348C61.4104-22.2348 60.6448-21.5968 60.5172-20.576L60.3896-20.0656L58.8584-10.368L58.7308-9.9852C58.6032-9.092 57.71-8.3264 56.8168-8.3264L48.6504-8.3264C47.8848-8.3264 47.3744-8.9644 47.502-9.73L48.14-13.9408L50.4368-28.7424C50.5644-29.7632 51.5852-30.6564 52.606-30.6564L57.1996-30.6564C66.1316-30.6564 73.1496-34.3568 75.1912-44.82C75.1912-45.0752 75.3188-45.458 75.3188-45.7132C76.212-45.2028 76.9776-44.6924 77.488-44.0544C79.7848-41.7576 80.1676-38.44 79.402-34.612Z"/>
   <path class="multicolor-2:systemBlueColor hierarchical-2:primary SFSymbolsPreview007AFF" d="M45.0944-17.0032L35.5244-17.0032C34.7588-17.0032 34.1208-17.7688 34.2484-18.5344L40.756-59.6216C40.8836-60.6424 41.9044-61.5356 42.9252-61.5356L58.4924-61.5356C63.8516-61.5356 68.0624-60.3872 70.3592-57.7076C72.5284-55.2832 73.0388-52.6036 72.5284-48.7756L72.5284-48.7756C72.5284-48.5204 72.4008-48.1376 72.4008-47.8824C70.3592-37.2916 63.3412-33.7188 54.4092-33.7188L49.7049-33.7188C48.5565-33.7188 47.6633-32.9532 47.5357-31.8048L47.6633-32.3152L45.0944-17.0032Z"/>
  </g>
  <g id="Ultralight-M" transform="matrix(1 0 0 1 503.307 1126)">
   <path class="multicolor-0:tintColor hierarchical-0:tertiary SFSymbolsPreview007AFF" d="M99.9929-53.3084C97.5859-59.0244 94.1493-63.9748 89.7007-68.4321C85.3796-72.7531 80.293-76.181 74.577-78.5967C68.8611-81.0124 62.7536-82.2797 56.2721-82.2797C49.7905-82.2797 43.6831-81.0037 37.9671-78.5967C32.2511-76.1897 27.2921-72.7531 22.8348-68.4321C18.5137-64.1111 15.0859-59.0244 12.6702-53.3084C10.2544-47.5925 8.98712-41.485 8.98712-35.0035C8.98712-28.5219 10.2631-22.2782 12.6702-16.6985C15.0772-10.9825 18.5137-6.03218 22.8348-1.57486C27.1558 2.74618 32.2425 6.17403 37.9584 8.58975C43.6744 11.0055 49.7818 12.2728 56.2634 12.2728C62.745 12.2728 68.98 10.9968 74.5684 8.58975C80.1567 6.18271 85.2434 2.74618 89.692-1.57486C94.0131-5.8959 97.4409-10.9825 99.9929-16.6985C102.4-22.4145 103.676-28.5219 103.676-35.0035C103.676-41.485 102.545-47.5838 99.9929-53.3084Z"/>
   <path class="multicolor-1:systemCyanColor hierarchical-1:secondary SFSymbolsPreview55BEF0" d="M78.8659-34.612C77.0795-25.4248 70.9547-22.2348 63.0435-22.2348L61.8951-22.2348C60.8743-22.2348 60.1087-21.5968 59.9811-20.576L59.8535-20.0656L58.3223-10.368L58.1947-9.9852C58.0671-9.092 57.1739-8.3264 56.2807-8.3264L48.1143-8.3264C47.3487-8.3264 46.8383-8.9644 46.9659-9.73L47.6039-13.9408L49.9007-28.7424C50.0283-29.7632 51.0491-30.6564 52.0699-30.6564L56.6635-30.6564C65.5955-30.6564 72.6135-34.3568 74.6551-44.82C74.6551-45.0752 74.7827-45.458 74.7827-45.7132C75.6759-45.2028 76.4415-44.6924 76.9519-44.0544C79.2487-41.7576 79.6315-38.44 78.8659-34.612Z"/>
   <path class="multicolor-2:systemBlueColor hierarchical-2:primary SFSymbolsPreview007AFF" d="M44.5329-17.0032L34.9629-17.0032C34.1973-17.0032 33.5593-17.7688 33.6869-18.5344L40.1945-59.6216C40.3221-60.6424 41.3429-61.5356 42.3637-61.5356L57.9309-61.5356C63.2901-61.5356 67.5009-60.3872 69.7977-57.7076C71.9669-55.2832 72.4773-52.6036 71.9669-48.7756L71.9669-48.7756C71.9669-48.5204 71.8393-48.1376 71.8393-47.8824C69.7977-37.2916 62.7797-33.7188 53.8477-33.7188L49.1178-33.7188C47.9694-33.7188 47.0762-32.9532 46.9486-31.8048L47.0762-32.3152L44.5329-17.0032Z"/>
  </g>
  <g id="Black-S" transform="matrix(1 0 0 1 2884.35 696)">
   <path class="multicolor-0:tintColor hierarchical-0:tertiary SFSymbolsPreview007AFF" d="M87.75-51.25C85.55-56.35 82.55-60.75 78.65-64.65C74.75-68.55 70.35-71.55 65.25-73.75C60.15-75.95 54.75-77.05 48.95-77.05C43.15-77.05 37.75-75.95 32.65-73.75C27.55-71.55 23.15-68.55 19.25-64.65C15.35-60.75 12.35-56.35 10.15-51.25C7.95-46.15 6.85-40.75 6.85-34.95C6.85-29.15 7.95-23.75 10.15-18.65C12.35-13.55 15.35-9.15 19.25-5.25C23.15-1.35 27.55 1.65 32.65 3.85C37.75 6.05 43.15 7.15 48.95 7.15C54.75 7.15 60.15 6.05 65.25 3.85C70.35 1.65 74.75-1.35 78.65-5.25C82.55-9.15 85.55-13.55 87.75-18.65C89.95-23.75 91.05-29.15 91.05-34.95C91.05-40.75 89.95-46.15 87.75-51.25Z"/>
   <path class="multicolor-1:systemCyanColor hierarchical-1:secondary SFSymbolsPreview55BEF0" d="M66.65-34.75C65.25-27.55 60.45-25.05 54.25-25.05L53.35-25.05C52.55-25.05 51.95-24.55 51.85-23.75L51.75-23.35L50.55-15.75L50.45-15.45C50.35-14.75 49.65-14.15 48.95-14.15L42.55-14.15C41.95-14.15 41.55-14.65 41.65-15.25L42.15-18.55L43.95-30.15C44.05-30.95 44.85-31.65 45.65-31.65L49.25-31.65C56.25-31.65 61.75-34.55 63.35-42.75C63.35-42.95 63.45-43.25 63.45-43.45C64.15-43.05 64.75-42.65 65.15-42.15C66.95-40.25 67.25-37.75 66.65-34.75Z"/>
   <path class="multicolor-2:systemBlueColor hierarchical-2:primary SFSymbolsPreview007AFF" d="M39.75-20.95L32.25-20.95C31.65-20.95 31.15-21.55 31.25-22.15L36.35-54.35C36.45-55.15 37.25-55.85 38.05-55.85L50.25-55.85C54.45-55.85 57.75-54.95 59.55-52.85C61.25-50.95 61.65-48.85 61.25-45.85L61.25-45.85C61.25-45.65 61.15-45.35 61.15-45.15C59.55-36.85 54.05-34.05 47.05-34.05L43.45-34.05C42.55-34.05 41.85-33.45 41.75-32.55L41.85-32.95L39.75-20.95Z"/>
  </g>
  <g id="Heavy-S" transform="matrix(1 0 0 1 2588.24 696)">
   <path class="multicolor-0:tintColor hierarchical-0:tertiary SFSymbolsPreview007AFF" d="M86.5935-50.9904C84.4171-56.0196 81.4643-60.3724 77.6115-64.2016C73.7823-68.0308 69.4295-71.0072 64.4003-73.1599C59.3711-75.3127 54.0655-76.4127 48.3599-76.4127C42.6544-76.4127 37.3488-75.3363 32.3196-73.1599C27.2904-70.9835 22.9612-68.0308 19.132-64.2016C15.3028-60.3724 12.3264-56.0196 10.1736-50.9904C8.02081-45.9612 6.92081-40.6556 6.92081-34.95C6.92081-29.2444 7.9972-23.9388 10.1736-18.9096C12.35-13.8804 15.3028-9.52763 19.132-5.69844C22.9612-1.86925 27.314 1.10715 32.3432 3.25995C37.3724 5.41274 42.678 6.51274 48.3835 6.51274C54.0891 6.51274 59.4183 5.43635 64.4239 3.25995C69.4295 1.08355 73.7823-1.86925 77.6351-5.69844C81.4643-9.52763 84.4407-13.8804 86.5935-18.9096C88.7699-23.9388 89.8463-29.2444 89.8463-34.95C89.8463-40.6556 88.7463-45.9848 86.5935-50.9904Z"/>
   <path class="multicolor-1:systemCyanColor hierarchical-1:secondary SFSymbolsPreview55BEF0" d="M66.0363-34.75C64.6363-27.55 59.8363-25.05 53.6363-25.05L52.7363-25.05C51.9363-25.05 51.3363-24.55 51.2363-23.75L51.1363-23.35L49.9363-15.75L49.8363-15.45C49.7363-14.75 49.0363-14.15 48.3363-14.15L41.9363-14.15C41.3363-14.15 40.9363-14.65 41.0363-15.25L41.5363-18.55L43.3363-30.15C43.4363-30.95 44.2363-31.65 45.0363-31.65L48.6363-31.65C55.6363-31.65 61.1363-34.55 62.7363-42.75C62.7363-42.95 62.8363-43.25 62.8363-43.45C63.5363-43.05 64.1363-42.65 64.5363-42.15C66.3363-40.2736 66.6363-37.75 66.0363-34.75Z"/>
   <path class="multicolor-2:systemBlueColor hierarchical-2:primary SFSymbolsPreview007AFF" d="M39.1599-20.95L31.6599-20.95C31.0599-20.95 30.5599-21.55 30.6599-22.15L35.7599-54.35C35.8599-55.15 36.6599-55.85 37.4599-55.85L49.6599-55.85C53.8599-55.85 57.1599-54.95 58.9599-52.85C60.6599-50.95 61.0599-48.85 60.6599-45.85L60.6599-45.85C60.6599-45.65 60.5599-45.35 60.5599-45.15C58.9599-36.85 53.4599-34.05 46.4599-34.05L42.8599-34.05C41.9599-34.05 41.2599-33.45 41.1599-32.55L41.2599-32.95L39.1599-20.95Z"/>
  </g>
  <g id="Bold-S" transform="matrix(1 0 0 1 2292.2 696)">
   <path class="multicolor-0:tintColor hierarchical-0:tertiary SFSymbolsPreview007AFF" d="M85.3-50.7C83.15-55.65 80.25-59.95 76.45-63.7C72.7-67.45 68.4-70.4 63.45-72.5C58.5-74.6 53.3-75.7 47.7-75.7C42.1-75.7 36.9-74.65 31.95-72.5C27-70.35 22.75-67.45 19-63.7C15.25-59.95 12.3-55.65 10.2-50.7C8.1-45.75 7-40.55 7-34.95C7-29.35 8.05-24.15 10.2-19.2C12.35-14.25 15.25-9.95 19-6.2C22.75-2.45 27.05 0.5 32 2.6C36.95 4.7 42.15 5.8 47.75 5.8C53.35 5.8 58.6 4.75 63.5 2.6C68.4 0.45 72.7-2.45 76.5-6.2C80.25-9.95 83.2-14.25 85.3-19.2C87.45-24.15 88.5-29.35 88.5-34.95C88.5-40.55 87.4-45.8 85.3-50.7Z"/>
   <path class="multicolor-1:systemCyanColor hierarchical-1:secondary SFSymbolsPreview55BEF0" d="M65.35-34.75C63.95-27.55 59.15-25.05 52.95-25.05L52.05-25.05C51.25-25.05 50.65-24.55 50.55-23.75L50.45-23.35L49.25-15.75L49.15-15.45C49.05-14.75 48.35-14.15 47.65-14.15L41.25-14.15C40.65-14.15 40.25-14.65 40.35-15.25L40.85-18.55L42.65-30.15C42.75-30.95 43.55-31.65 44.35-31.65L47.95-31.65C54.95-31.65 60.45-34.55 62.05-42.75C62.05-42.95 62.15-43.25 62.15-43.45C62.85-43.05 63.45-42.65 63.85-42.15C65.65-40.3 65.95-37.75 65.35-34.75Z"/>
   <path class="multicolor-2:systemBlueColor hierarchical-2:primary SFSymbolsPreview007AFF" d="M38.5-20.95L31-20.95C30.4-20.95 29.9-21.55 30-22.15L35.1-54.35C35.2-55.15 36-55.85 36.8-55.85L49-55.85C53.2-55.85 56.5-54.95 58.3-52.85C60-50.95 60.4-48.85 60-45.85L60-45.85C60-45.65 59.9-45.35 59.9-45.15C58.3-36.85 52.8-34.05 45.8-34.05L42.2-34.05C41.3-34.05 40.6-33.45 40.5-32.55L40.6-32.95L38.5-20.95Z"/>
  </g>
  <g id="Semibold-S" transform="matrix(1 0 0 1 1995.96 696)">
   <path class="multicolor-0:tintColor hierarchical-0:tertiary SFSymbolsPreview007AFF" d="M84.4082-50.4998C82.2764-55.3952 79.4128-59.6588 75.6492-63.3542C71.9538-67.0496 67.6902-69.9814 62.7948-72.045C57.8994-74.1086 52.7722-75.2086 47.245-75.2086C41.7178-75.2086 36.5906-74.1768 31.6952-72.045C26.7998-69.9132 22.6044-67.0496 18.909-63.3542C15.2136-59.6588 12.2818-55.3952 10.2182-50.4998C8.1546-45.6044 7.0546-40.4772 7.0546-34.95C7.0546-29.4228 8.0864-24.2956 10.2182-19.4002C12.35-14.5048 15.2136-10.2412 18.909-6.5458C22.6044-2.8504 26.868 0.0814 31.7634 2.145C36.6588 4.2086 41.786 5.3086 47.3132 5.3086C52.8404 5.3086 58.0358 4.2768 62.863 2.145C67.6902 0.0132 71.9538-2.8504 75.7174-6.5458C79.4128-10.2412 82.3446-14.5048 84.4082-19.4002C86.54-24.2956 87.5718-29.4228 87.5718-34.95C87.5718-40.4772 86.4718-45.6726 84.4082-50.4998Z"/>
   <path class="multicolor-1:systemCyanColor hierarchical-1:secondary SFSymbolsPreview55BEF0" d="M64.8768-34.75C63.4768-27.55 58.6768-25.05 52.4768-25.05L51.5768-25.05C50.7768-25.05 50.1768-24.55 50.0768-23.75L49.9768-23.35L48.7768-15.75L48.6768-15.45C48.5768-14.75 47.8768-14.15 47.1768-14.15L40.7768-14.15C40.1768-14.15 39.7768-14.65 39.8768-15.25L40.3768-18.55L42.1768-30.15C42.2768-30.95 43.0768-31.65 43.8768-31.65L47.4768-31.65C54.4768-31.65 59.9768-34.55 61.5768-42.75C61.5768-42.95 61.6768-43.25 61.6768-43.45C62.3768-43.05 62.9768-42.65 63.3768-42.15C65.1768-40.3182 65.4768-37.75 64.8768-34.75Z"/>
   <path class="multicolor-2:systemBlueColor hierarchical-2:primary SFSymbolsPreview007AFF" d="M38.045-20.95L30.545-20.95C29.945-20.95 29.445-21.55 29.545-22.15L34.645-54.35C34.745-55.15 35.545-55.85 36.345-55.85L48.545-55.85C52.745-55.85 56.045-54.95 57.845-52.85C59.545-50.95 59.945-48.85 59.545-45.85L59.545-45.85C59.545-45.65 59.445-45.35 59.445-45.15C57.845-36.85 52.345-34.05 45.345-34.05L41.745-34.05C40.845-34.05 40.145-33.45 40.045-32.55L40.145-32.95L38.045-20.95Z"/>
  </g>
  <g id="Medium-S" transform="matrix(1 0 0 1 1699.6 696)">
   <path class="multicolor-0:tintColor hierarchical-0:tertiary SFSymbolsPreview007AFF" d="M83.732-50.348C81.614-55.202 78.778-59.438 75.042-63.092C71.388-66.746 67.152-69.664 62.298-71.7C57.444-73.736 52.372-74.836 46.9-74.836C41.428-74.836 36.356-73.818 31.502-71.7C26.648-69.582 22.494-66.746 18.84-63.092C15.186-59.438 12.268-55.202 10.232-50.348C8.196-45.494 7.096-40.422 7.096-34.95C7.096-29.478 8.114-24.406 10.232-19.552C12.35-14.698 15.186-10.462 18.84-6.808C22.494-3.154 26.73-0.236 31.584 1.8C36.438 3.836 41.51 4.936 46.982 4.936C52.454 4.936 57.608 3.918 62.38 1.8C67.152-0.318 71.388-3.154 75.124-6.808C78.778-10.462 81.696-14.698 83.732-19.552C85.85-24.406 86.868-29.478 86.868-34.95C86.868-40.422 85.768-45.576 83.732-50.348Z"/>
   <path class="multicolor-1:systemCyanColor hierarchical-1:secondary SFSymbolsPreview55BEF0" d="M64.518-34.75C63.118-27.55 58.318-25.05 52.118-25.05L51.218-25.05C50.418-25.05 49.818-24.55 49.718-23.75L49.618-23.35L48.418-15.75L48.318-15.45C48.218-14.75 47.518-14.15 46.818-14.15L40.418-14.15C39.818-14.15 39.418-14.65 39.518-15.25L40.018-18.55L41.818-30.15C41.918-30.95 42.718-31.65 43.518-31.65L47.118-31.65C54.118-31.65 59.618-34.55 61.218-42.75C61.218-42.95 61.318-43.25 61.318-43.45C62.018-43.05 62.618-42.65 63.018-42.15C64.818-40.332 65.118-37.75 64.518-34.75Z"/>
   <path class="multicolor-2:systemBlueColor hierarchical-2:primary SFSymbolsPreview007AFF" d="M37.7-20.95L30.2-20.95C29.6-20.95 29.1-21.55 29.2-22.15L34.3-54.35C34.4-55.15 35.2-55.85 36-55.85L48.2-55.85C52.4-55.85 55.7-54.95 57.5-52.85C59.2-50.95 59.6-48.85 59.2-45.85L59.2-45.85C59.2-45.65 59.1-45.35 59.1-45.15C57.5-36.85 52-34.05 45-34.05L41.4-34.05C40.5-34.05 39.8-33.45 39.7-32.55L39.8-32.95L37.7-20.95Z"/>
  </g>
  <g id="Regular-S" transform="matrix(1 0 0 1 1403.34 696)">
   <path class="multicolor-0:tintColor hierarchical-0:tertiary SFSymbolsPreview007AFF" d="M82.85-50.15C80.75-54.95 77.95-59.15 74.25-62.75C70.65-66.35 66.45-69.25 61.65-71.25C56.85-73.25 51.85-74.35 46.45-74.35C41.05-74.35 36.05-73.35 31.25-71.25C26.45-69.15 22.35-66.35 18.75-62.75C15.15-59.15 12.25-54.95 10.25-50.15C8.25-45.35 7.15-40.35 7.15-34.95C7.15-29.55 8.15-24.55 10.25-19.75C12.35-14.95 15.15-10.75 18.75-7.15C22.35-3.55 26.55-0.65 31.35 1.35C36.15 3.35 41.15 4.45 46.55 4.45C51.95 4.45 57.05 3.45 61.75 1.35C66.45-0.75 70.65-3.55 74.35-7.15C77.95-10.75 80.85-14.95 82.85-19.75C84.95-24.55 85.95-29.55 85.95-34.95C85.95-40.35 84.85-45.45 82.85-50.15Z"/>
   <path class="multicolor-1:systemCyanColor hierarchical-1:secondary SFSymbolsPreview55BEF0" d="M64.05-34.75C62.65-27.55 57.85-25.05 51.65-25.05L50.75-25.05C49.95-25.05 49.35-24.55 49.25-23.75L49.15-23.35L47.95-15.75L47.85-15.45C47.75-14.75 47.05-14.15 46.35-14.15L39.95-14.15C39.35-14.15 38.95-14.65 39.05-15.25L39.55-18.55L41.35-30.15C41.45-30.95 42.25-31.65 43.05-31.65L46.65-31.65C53.65-31.65 59.15-34.55 60.75-42.75C60.75-42.95 60.85-43.25 60.85-43.45C61.55-43.05 62.15-42.65 62.55-42.15C64.35-40.35 64.65-37.75 64.05-34.75Z"/>
   <path class="multicolor-2:systemBlueColor hierarchical-2:primary SFSymbolsPreview007AFF" d="M37.25-20.95L29.75-20.95C29.15-20.95 28.65-21.55 28.75-22.15L33.85-54.35C33.95-55.15 34.75-55.85 35.55-55.85L47.75-55.85C51.95-55.85 55.25-54.95 57.05-52.85C58.75-50.95 59.15-48.85 58.75-45.85L58.75-45.85C58.75-45.65 58.65-45.35 58.65-45.15C57.05-36.85 51.55-34.05 44.55-34.05L40.95-34.05C40.05-34.05 39.35-33.45 39.25-32.55L39.35-32.95L37.25-20.95Z"/>
  </g>
  <g id="Light-S" transform="matrix(1 0 0 1 1107.35 696)">
   <path class="multicolor-0:tintColor hierarchical-0:tertiary SFSymbolsPreview007AFF" d="M81.45-49.9167C79.4167-54.6167 76.65-58.7167 73.0167-62.2833C69.4833-65.8167 65.35-68.65 60.65-70.6167C55.95-72.5833 51.0167-73.65 45.7167-73.65C40.4167-73.65 35.4833-72.65 30.7833-70.6167C26.0833-68.5833 22.05-65.8167 18.4833-62.2833C14.95-58.75 12.1167-54.6167 10.15-49.9167C8.18333-45.2167 7.11667-40.2833 7.11667-34.9833C7.11667-29.6833 8.11667-24.7167 10.15-20.05C12.1833-15.35 14.95-11.25 18.4833-7.68333C22.0167-4.15 26.15-1.31667 30.85 0.65C35.55 2.61667 40.4833 3.68333 45.7833 3.68333C51.0833 3.68333 56.1167 2.68333 60.7167 0.65C65.3167-1.38333 69.45-4.15 73.0833-7.68333C76.6167-11.2167 79.45-15.35 81.45-20.05C83.4833-24.75 84.4833-29.6833 84.4833-34.9833C84.4833-40.2833 83.45-45.2833 81.45-49.9167Z"/>
   <path class="multicolor-1:systemCyanColor hierarchical-1:secondary SFSymbolsPreview55BEF0" d="M63.35-34.75C61.95-27.55 57.15-25.05 50.95-25.05L50.05-25.05C49.25-25.05 48.65-24.55 48.55-23.75L48.45-23.35L47.25-15.75L47.15-15.45C47.05-14.75 46.35-14.15 45.65-14.15L39.25-14.15C38.65-14.15 38.25-14.65 38.35-15.25L38.85-18.55L40.65-30.15C40.75-30.95 41.55-31.65 42.35-31.65L45.95-31.65C52.95-31.65 58.45-34.55 60.05-42.75C60.05-42.95 60.15-43.25 60.15-43.45C60.85-43.05 61.45-42.65 61.85-42.15C63.65-40.35 63.95-37.75 63.35-34.75Z"/>
   <path class="multicolor-2:systemBlueColor hierarchical-2:primary SFSymbolsPreview007AFF" d="M36.5167-20.95L29.0167-20.95C28.4167-20.95 27.9167-21.55 28.0167-22.15L33.1167-54.35C33.2167-55.15 34.0167-55.85 34.8167-55.85L47.0167-55.85C51.2167-55.85 54.5167-54.95 56.3167-52.85C58.0167-50.95 58.4167-48.85 58.0167-45.85L58.0167-45.85C58.0167-45.65 57.9167-45.35 57.9167-45.15C56.3167-36.85 50.8167-34.05 43.8167-34.05L40.1833-34.05C39.2833-34.05 38.5833-33.45 38.4833-32.55L38.5833-32.95L36.5167-20.95Z"/>
  </g>
  <g id="Thin-S" transform="matrix(1 0 0 1 811.587 696)">
   <path class="multicolor-0:tintColor hierarchical-0:tertiary SFSymbolsPreview007AFF" d="M79.5984-49.6081C77.6532-54.1758 74.9306-58.1435 71.3855-61.6661C67.9403-65.1113 63.8952-67.8565 59.3274-69.779C54.7597-71.7016 49.9145-72.7242 44.7468-72.7242C39.579-72.7242 34.7339-71.7242 30.1661-69.779C25.5984-67.8339 21.6532-65.1113 18.1306-61.6661C14.6855-58.221 11.9403-54.1758 10.0177-49.6081C8.09516-45.0403 7.07258-40.1952 7.07258-35.0274C7.07258-29.8597 8.07258-24.9371 10.0177-20.4468C11.9629-15.879 14.6855-11.9113 18.1306-8.38871C21.5758-4.94355 25.621-2.19839 30.1887-0.275806C34.7565 1.64677 39.6016 2.66935 44.7694 2.66935C49.9371 2.66935 54.8823 1.66935 59.35-0.275806C63.8177-2.22097 67.8629-4.94355 71.4081-8.38871C74.8532-11.8339 77.5984-15.879 79.5984-20.4468C81.5435-25.0145 82.5435-29.8597 82.5435-35.0274C82.5435-40.1952 81.5984-45.0629 79.5984-49.6081Z"/>
   <path class="multicolor-1:systemCyanColor hierarchical-1:secondary SFSymbolsPreview55BEF0" d="M62.4242-34.75C61.0242-27.55 56.2242-25.05 50.0242-25.05L49.1242-25.05C48.3242-25.05 47.7242-24.55 47.6242-23.75L47.5242-23.35L46.3242-15.75L46.2242-15.45C46.1242-14.75 45.4242-14.15 44.7242-14.15L38.3242-14.15C37.7242-14.15 37.3242-14.65 37.4242-15.25L37.9242-18.55L39.7242-30.15C39.8242-30.95 40.6242-31.65 41.4242-31.65L45.0242-31.65C52.0242-31.65 57.5242-34.55 59.1242-42.75C59.1242-42.95 59.2242-43.25 59.2242-43.45C59.9242-43.05 60.5242-42.65 60.9242-42.15C62.7242-40.35 63.0242-37.75 62.4242-34.75Z"/>
   <path class="multicolor-2:systemBlueColor hierarchical-2:primary SFSymbolsPreview007AFF" d="M35.5468-20.95L28.0468-20.95C27.4468-20.95 26.9468-21.55 27.0468-22.15L32.1468-54.35C32.2468-55.15 33.0468-55.85 33.8468-55.85L46.0468-55.85C50.2468-55.85 53.5468-54.95 55.3468-52.85C57.0468-50.95 57.4468-48.85 57.0468-45.85L57.0468-45.85C57.0468-45.65 56.9468-45.35 56.9468-45.15C55.3468-36.85 49.8468-34.05 42.8468-34.05L39.1694-34.05C38.2694-34.05 37.5694-33.45 37.4694-32.55L37.5694-32.95L35.5468-20.95Z"/>
  </g>
  <g id="Ultralight-S" transform="matrix(1 0 0 1 515.361 696)">
   <path class="multicolor-0:tintColor hierarchical-0:tertiary SFSymbolsPreview007AFF" d="M78.65-49.45C76.75-53.95 74.05-57.85 70.55-61.35C67.15-64.75 63.15-67.45 58.65-69.35C54.15-71.25 49.35-72.25 44.25-72.25C39.15-72.25 34.35-71.25 29.85-69.35C25.35-67.45 21.45-64.75 17.95-61.35C14.55-57.95 11.85-53.95 9.95-49.45C8.05-44.95 7.05-40.15 7.05-35.05C7.05-29.95 8.05-25.05 9.95-20.65C11.85-16.15 14.55-12.25 17.95-8.75C21.35-5.35 25.35-2.65 29.85-0.75C34.35 1.15 39.15 2.15 44.25 2.15C49.35 2.15 54.25 1.15 58.65-0.75C63.05-2.65 67.05-5.35 70.55-8.75C73.95-12.15 76.65-16.15 78.65-20.65C80.55-25.15 81.55-29.95 81.55-35.05C81.55-40.15 80.65-44.95 78.65-49.45Z"/>
   <path class="multicolor-1:systemCyanColor hierarchical-1:secondary SFSymbolsPreview55BEF0" d="M61.95-34.75C60.55-27.55 55.75-25.05 49.55-25.05L48.65-25.05C47.85-25.05 47.25-24.55 47.15-23.75L47.05-23.35L45.85-15.75L45.75-15.45C45.65-14.75 44.95-14.15 44.25-14.15L37.85-14.15C37.25-14.15 36.85-14.65 36.95-15.25L37.45-18.55L39.25-30.15C39.35-30.95 40.15-31.65 40.95-31.65L44.55-31.65C51.55-31.65 57.05-34.55 58.65-42.75C58.65-42.95 58.75-43.25 58.75-43.45C59.45-43.05 60.05-42.65 60.45-42.15C62.25-40.35 62.55-37.75 61.95-34.75Z"/>
   <path class="multicolor-2:systemBlueColor hierarchical-2:primary SFSymbolsPreview007AFF" d="M35.05-20.95L27.55-20.95C26.95-20.95 26.45-21.55 26.55-22.15L31.65-54.35C31.75-55.15 32.55-55.85 33.35-55.85L45.55-55.85C49.75-55.85 53.05-54.95 54.85-52.85C56.55-50.95 56.95-48.85 56.55-45.85L56.55-45.85C56.55-45.65 56.45-45.35 56.45-45.15C54.85-36.85 49.35-34.05 42.35-34.05L38.65-34.05C37.75-34.05 37.05-33.45 36.95-32.55L37.05-32.95L35.05-20.95Z"/>
  </g>
 </g>
</svg>
