<?xml version="1.0" encoding="UTF-8"?>
<!--Generator: Apple Native CoreSVG 149-->
<!DOCTYPE svg
PUBLIC "-//W3C//DTD SVG 1.1//EN"
       "http://www.w3.org/Graphics/SVG/1.1/DTD/svg11.dtd">
<svg version="1.1" xmlns="http://www.w3.org/2000/svg" xmlns:xlink="http://www.w3.org/1999/xlink" width="3300" height="2200">
 <!--glyph: "", point size: 100.0, font version: "17.0d9e1", template writer version: "59"-->
 <style>.multicolor-0:tintColor {fill:#007AFF;opacity:1.0}
.multicolor-1:systemBlueColor {fill:#007AFF;opacity:1.0}

.hierarchical-0:secondary {fill:#4D4D4D}
.hierarchical-1:primary {fill:#212121}

.SFSymbolsPreview007AFF {fill:#007AFF;opacity:1.0}
</style>
 <g id="Notes">
  <rect height="2200" id="artboard" style="fill:white;opacity:1" width="3300" x="0" y="0"/>
  <line style="fill:none;stroke:black;opacity:1;stroke-width:0.5;" x1="263" x2="3036" y1="292" y2="292"/>
  <text style="stroke:none;fill:black;font-family:sans-serif;font-size:13;font-weight:bold;" transform="matrix(1 0 0 1 263 322)">Weight/Scale Variations</text>
  <text style="stroke:none;fill:black;font-family:sans-serif;font-size:13;text-anchor:middle;" transform="matrix(1 0 0 1 559.711 322)">Ultralight</text>
  <text style="stroke:none;fill:black;font-family:sans-serif;font-size:13;text-anchor:middle;" transform="matrix(1 0 0 1 856.422 322)">Thin</text>
  <text style="stroke:none;fill:black;font-family:sans-serif;font-size:13;text-anchor:middle;" transform="matrix(1 0 0 1 1153.13 322)">Light</text>
  <text style="stroke:none;fill:black;font-family:sans-serif;font-size:13;text-anchor:middle;" transform="matrix(1 0 0 1 1449.84 322)">Regular</text>
  <text style="stroke:none;fill:black;font-family:sans-serif;font-size:13;text-anchor:middle;" transform="matrix(1 0 0 1 1746.56 322)">Medium</text>
  <text style="stroke:none;fill:black;font-family:sans-serif;font-size:13;text-anchor:middle;" transform="matrix(1 0 0 1 2043.27 322)">Semibold</text>
  <text style="stroke:none;fill:black;font-family:sans-serif;font-size:13;text-anchor:middle;" transform="matrix(1 0 0 1 2339.98 322)">Bold</text>
  <text style="stroke:none;fill:black;font-family:sans-serif;font-size:13;text-anchor:middle;" transform="matrix(1 0 0 1 2636.69 322)">Heavy</text>
  <text style="stroke:none;fill:black;font-family:sans-serif;font-size:13;text-anchor:middle;" transform="matrix(1 0 0 1 2933.4 322)">Black</text>
  <line style="fill:none;stroke:black;opacity:1;stroke-width:0.5;" x1="263" x2="3036" y1="1903" y2="1903"/>
  <g transform="matrix(1 0 0 1 263 1933)">
   <path d="M9.24805 0.830078Q10.8691 0.830078 12.2949 0.214844Q13.7207-0.400391 14.8096-1.49414Q15.8984-2.58789 16.5186-4.01367Q17.1387-5.43945 17.1387-7.05078Q17.1387-8.66211 16.5186-10.0879Q15.8984-11.5137 14.8047-12.6074Q13.7109-13.7012 12.2852-14.3164Q10.8594-14.9316 9.23828-14.9316Q7.62695-14.9316 6.20117-14.3164Q4.77539-13.7012 3.69141-12.6074Q2.60742-11.5137 1.9873-10.0879Q1.36719-8.66211 1.36719-7.05078Q1.36719-5.43945 1.9873-4.01367Q2.60742-2.58789 3.69629-1.49414Q4.78516-0.400391 6.21094 0.214844Q7.63672 0.830078 9.24805 0.830078ZM9.24805-0.654297Q7.91992-0.654297 6.7627-1.14746Q5.60547-1.64062 4.73145-2.51953Q3.85742-3.39844 3.36426-4.56055Q2.87109-5.72266 2.87109-7.05078Q2.87109-8.37891 3.35938-9.54102Q3.84766-10.7031 4.72168-11.582Q5.5957-12.4609 6.75293-12.9541Q7.91016-13.4473 9.23828-13.4473Q10.5762-13.4473 11.7334-12.9541Q12.8906-12.4609 13.7695-11.582Q14.6484-10.7031 15.1465-9.54102Q15.6445-8.37891 15.6445-7.05078Q15.6445-5.72266 15.1514-4.56055Q14.6582-3.39844 13.7842-2.51953Q12.9102-1.64062 11.748-1.14746Q10.5859-0.654297 9.24805-0.654297ZM5.83984-7.04102Q5.83984-6.71875 6.04492-6.51855Q6.25-6.31836 6.5918-6.31836L8.50586-6.31836L8.50586-4.39453Q8.50586-4.0625 8.70605-3.85742Q8.90625-3.65234 9.22852-3.65234Q9.56055-3.65234 9.76562-3.85742Q9.9707-4.0625 9.9707-4.39453L9.9707-6.31836L11.8945-6.31836Q12.2266-6.31836 12.4316-6.51855Q12.6367-6.71875 12.6367-7.04102Q12.6367-7.37305 12.4316-7.57812Q12.2266-7.7832 11.8945-7.7832L9.9707-7.7832L9.9707-9.69727Q9.9707-10.0391 9.76562-10.2441Q9.56055-10.4492 9.22852-10.4492Q8.90625-10.4492 8.70605-10.2441Q8.50586-10.0391 8.50586-9.69727L8.50586-7.7832L6.5918-7.7832Q6.25-7.7832 6.04492-7.57812Q5.83984-7.37305 5.83984-7.04102Z"/>
  </g>
  <g transform="matrix(1 0 0 1 281.867 1933)">
   <path d="M11.709 2.91016Q13.75 2.91016 15.5518 2.12891Q17.3535 1.34766 18.7305-0.0292969Q20.1074-1.40625 20.8887-3.20801Q21.6699-5.00977 21.6699-7.05078Q21.6699-9.0918 20.8887-10.8936Q20.1074-12.6953 18.7305-14.0723Q17.3535-15.4492 15.5469-16.2305Q13.7402-17.0117 11.6992-17.0117Q9.6582-17.0117 7.85645-16.2305Q6.05469-15.4492 4.68262-14.0723Q3.31055-12.6953 2.5293-10.8936Q1.74805-9.0918 1.74805-7.05078Q1.74805-5.00977 2.5293-3.20801Q3.31055-1.40625 4.6875-0.0292969Q6.06445 1.34766 7.86621 2.12891Q9.66797 2.91016 11.709 2.91016ZM11.709 1.25Q9.98047 1.25 8.47656 0.605469Q6.97266-0.0390625 5.83496-1.17676Q4.69727-2.31445 4.05762-3.81836Q3.41797-5.32227 3.41797-7.05078Q3.41797-8.7793 4.05762-10.2832Q4.69727-11.7871 5.83008-12.9297Q6.96289-14.0723 8.4668-14.7119Q9.9707-15.3516 11.6992-15.3516Q13.4277-15.3516 14.9316-14.7119Q16.4355-14.0723 17.5781-12.9297Q18.7207-11.7871 19.3652-10.2832Q20.0098-8.7793 20.0098-7.05078Q20.0098-5.32227 19.3701-3.81836Q18.7305-2.31445 17.5928-1.17676Q16.4551-0.0390625 14.9463 0.605469Q13.4375 1.25 11.709 1.25ZM7.39258-7.04102Q7.39258-6.68945 7.62695-6.46484Q7.86133-6.24023 8.23242-6.24023L10.8789-6.24023L10.8789-3.57422Q10.8789-3.21289 11.1035-2.9834Q11.3281-2.75391 11.6797-2.75391Q12.0508-2.75391 12.2852-2.9834Q12.5195-3.21289 12.5195-3.57422L12.5195-6.24023L15.1758-6.24023Q15.5371-6.24023 15.7715-6.46484Q16.0059-6.68945 16.0059-7.04102Q16.0059-7.41211 15.7715-7.6416Q15.5371-7.87109 15.1758-7.87109L12.5195-7.87109L12.5195-10.5176Q12.5195-10.8984 12.2852-11.1279Q12.0508-11.3574 11.6797-11.3574Q11.3281-11.3574 11.1035-11.1279Q10.8789-10.8984 10.8789-10.5176L10.8789-7.87109L8.23242-7.87109Q7.85156-7.87109 7.62207-7.6416Q7.39258-7.41211 7.39258-7.04102Z"/>
  </g>
  <g transform="matrix(1 0 0 1 305.646 1933)">
   <path d="M14.9707 5.66406Q17.0605 5.66406 18.96 5.01465Q20.8594 4.36523 22.4512 3.19336Q24.043 2.02148 25.2197 0.429688Q26.3965-1.16211 27.0459-3.06641Q27.6953-4.9707 27.6953-7.05078Q27.6953-9.14062 27.0459-11.04Q26.3965-12.9395 25.2197-14.5312Q24.043-16.123 22.4512-17.2998Q20.8594-18.4766 18.9551-19.126Q17.0508-19.7754 14.9609-19.7754Q12.8711-19.7754 10.9717-19.126Q9.07227-18.4766 7.48535-17.2998Q5.89844-16.123 4.72168-14.5312Q3.54492-12.9395 2.90039-11.04Q2.25586-9.14062 2.25586-7.05078Q2.25586-4.9707 2.90527-3.06641Q3.55469-1.16211 4.72656 0.429688Q5.89844 2.02148 7.49023 3.19336Q9.08203 4.36523 10.9814 5.01465Q12.8809 5.66406 14.9707 5.66406ZM14.9707 3.84766Q13.1641 3.84766 11.5283 3.2959Q9.89258 2.74414 8.53516 1.74805Q7.17773 0.751953 6.17676-0.610352Q5.17578-1.97266 4.62891-3.6084Q4.08203-5.24414 4.08203-7.05078Q4.08203-8.86719 4.62891-10.5029Q5.17578-12.1387 6.17188-13.501Q7.16797-14.8633 8.52539-15.8594Q9.88281-16.8555 11.5186-17.4023Q13.1543-17.9492 14.9609-17.9492Q16.7773-17.9492 18.4131-17.4023Q20.0488-16.8555 21.4111-15.8594Q22.7734-14.8633 23.7695-13.501Q24.7656-12.1387 25.3174-10.5029Q25.8691-8.86719 25.8691-7.05078Q25.8789-5.24414 25.332-3.6084Q24.7852-1.97266 23.7842-0.610352Q22.7832 0.751953 21.4209 1.74805Q20.0586 2.74414 18.4229 3.2959Q16.7871 3.84766 14.9707 3.84766ZM9.45312-7.04102Q9.45312-6.66016 9.71191-6.41113Q9.9707-6.16211 10.3711-6.16211L14.0625-6.16211L14.0625-2.46094Q14.0625-2.06055 14.3115-1.80664Q14.5605-1.55273 14.9414-1.55273Q15.3516-1.55273 15.6055-1.80664Q15.8594-2.06055 15.8594-2.46094L15.8594-6.16211L19.5605-6.16211Q19.9609-6.16211 20.2148-6.41113Q20.4688-6.66016 20.4688-7.04102Q20.4688-7.45117 20.2148-7.70508Q19.9609-7.95898 19.5605-7.95898L15.8594-7.95898L15.8594-11.6504Q15.8594-12.0605 15.6055-12.3145Q15.3516-12.5684 14.9414-12.5684Q14.5605-12.5684 14.3115-12.3096Q14.0625-12.0508 14.0625-11.6504L14.0625-7.95898L10.3711-7.95898Q9.96094-7.95898 9.70703-7.70508Q9.45312-7.45117 9.45312-7.04102Z"/>
  </g>
  <text style="stroke:none;fill:black;font-family:sans-serif;font-size:13;font-weight:bold;" transform="matrix(1 0 0 1 263 1953)">Design Variations</text>
  <text style="stroke:none;fill:black;font-family:sans-serif;font-size:13;" transform="matrix(1 0 0 1 263 1971)">Symbols are supported in up to nine weights and three scales.</text>
  <text style="stroke:none;fill:black;font-family:sans-serif;font-size:13;" transform="matrix(1 0 0 1 263 1989)">For optimal layout with text and other symbols, vertically align</text>
  <text style="stroke:none;fill:black;font-family:sans-serif;font-size:13;" transform="matrix(1 0 0 1 263 2007)">symbols with the adjacent text.</text>
  <line style="fill:none;stroke:#00AEEF;stroke-width:0.5;opacity:1.0;" x1="776" x2="776" y1="1919" y2="1933"/>
  <g transform="matrix(1 0 0 1 776 1933)">
   <path d="M3.31055 0.15625Q3.70117 0.15625 3.91602-0.00976562Q4.13086-0.175781 4.26758-0.585938L5.52734-4.0332L11.2891-4.0332L12.5488-0.585938Q12.6855-0.175781 12.9004-0.00976562Q13.1152 0.15625 13.4961 0.15625Q13.8867 0.15625 14.1162-0.0585938Q14.3457-0.273438 14.3457-0.644531Q14.3457-0.869141 14.2383-1.17188L9.6582-13.3691Q9.48242-13.8184 9.17969-14.043Q8.87695-14.2676 8.4082-14.2676Q7.5-14.2676 7.17773-13.3789L2.59766-1.16211Q2.49023-0.859375 2.49023-0.634766Q2.49023-0.263672 2.70996-0.0537109Q2.92969 0.15625 3.31055 0.15625ZM6.00586-5.51758L8.37891-12.0898L8.42773-12.0898L10.8008-5.51758Z"/>
  </g>
  <line style="fill:none;stroke:#00AEEF;stroke-width:0.5;opacity:1.0;" x1="793.197" x2="793.197" y1="1919" y2="1933"/>
  <text style="stroke:none;fill:black;font-family:sans-serif;font-size:13;font-weight:bold;" transform="matrix(1 0 0 1 776 1953)">Margins</text>
  <text style="stroke:none;fill:black;font-family:sans-serif;font-size:13;" transform="matrix(1 0 0 1 776 1971)">Leading and trailing margins on the left and right side of each symbol</text>
  <text style="stroke:none;fill:black;font-family:sans-serif;font-size:13;" transform="matrix(1 0 0 1 776 1989)">can be adjusted by modifying the x-location of the margin guidelines.</text>
  <text style="stroke:none;fill:black;font-family:sans-serif;font-size:13;" transform="matrix(1 0 0 1 776 2007)">Modifications are automatically applied proportionally to all</text>
  <text style="stroke:none;fill:black;font-family:sans-serif;font-size:13;" transform="matrix(1 0 0 1 776 2025)">scales and weights.</text>
  <g transform="matrix(1 0 0 1 1289 1933)">
   <path d="M2.8418 1.86523L4.54102 3.57422Q5.18555 4.22852 5.90332 4.17969Q6.62109 4.13086 7.31445 3.35938L18.0078-8.42773L17.041-9.4043L6.42578 2.27539Q6.16211 2.57812 5.89355 2.61719Q5.625 2.65625 5.27344 2.30469L4.10156 1.14258Q3.75 0.791016 3.79395 0.522461Q3.83789 0.253906 4.14062-0.0195312L15.6152-10.8203L14.6387-11.7871L3.04688-0.898438Q2.30469-0.214844 2.25098 0.498047Q2.19727 1.21094 2.8418 1.86523ZM9.25781-16.3281Q8.94531-16.0254 8.90625-15.6348Q8.86719-15.2441 9.04297-14.9512Q9.21875-14.6777 9.55566-14.541Q9.89258-14.4043 10.3809-14.5215Q11.4746-14.7754 12.5977-14.7314Q13.7207-14.6875 14.7949-13.9844L14.209-12.5293Q13.9551-11.9043 14.0674-11.4404Q14.1797-10.9766 14.5801-10.5664L16.875-8.25195Q17.2363-7.88086 17.5781-7.82227Q17.9199-7.76367 18.3398-7.8418L19.4043-8.03711L20.0684-7.36328L20.0293-6.80664Q20-6.43555 20.1221-6.12305Q20.2441-5.81055 20.6055-5.44922L21.3672-4.70703Q21.7285-4.3457 22.1533-4.33105Q22.5781-4.31641 22.9297-4.66797L25.8398-7.58789Q26.1914-7.93945 26.1816-8.35449Q26.1719-8.76953 25.8105-9.13086L25.0391-9.89258Q24.6875-10.2539 24.3799-10.3857Q24.0723-10.5176 23.7109-10.4883L23.1348-10.4395L22.4902-11.0742L22.7344-12.1973Q22.832-12.6172 22.6953-12.9834Q22.5586-13.3496 22.1191-13.7891L19.9219-15.9766Q18.6719-17.2168 17.2607-17.8369Q15.8496-18.457 14.4189-18.4814Q12.9883-18.5059 11.665-17.959Q10.3418-17.4121 9.25781-16.3281ZM10.752-15.957Q11.6602-16.6211 12.7002-16.9043Q13.7402-17.1875 14.8047-17.085Q15.8691-16.9824 16.8701-16.5137Q17.8711-16.0449 18.7012-15.2051L21.1328-12.793Q21.3086-12.6172 21.3525-12.4512Q21.3965-12.2852 21.3379-12.0312L21.0156-10.5469L22.5195-9.0625L23.5059-9.12109Q23.6914-9.13086 23.7891-9.09668Q23.8867-9.0625 24.0332-8.91602L24.6094-8.33984L22.168-5.89844L21.5918-6.47461Q21.4453-6.62109 21.4062-6.71875Q21.3672-6.81641 21.377-7.01172L21.4453-7.98828L19.9512-9.47266L18.4277-9.21875Q18.1836-9.16992 18.042-9.2041Q17.9004-9.23828 17.7148-9.41406L15.7129-11.416Q15.5176-11.5918 15.4932-11.7529Q15.4688-11.9141 15.5859-12.1875L16.4648-14.2773Q15.293-15.3711 13.8281-15.791Q12.3633-16.2109 10.8398-15.7617Q10.7227-15.7324 10.6885-15.8057Q10.6543-15.8789 10.752-15.957Z"/>
  </g>
  <text style="stroke:none;fill:black;font-family:sans-serif;font-size:13;font-weight:bold;" transform="matrix(1 0 0 1 1289 1953)">Exporting</text>
  <text style="stroke:none;fill:black;font-family:sans-serif;font-size:13;" transform="matrix(1 0 0 1 1289 1971)">Symbols should be outlined when exporting to ensure the</text>
  <text style="stroke:none;fill:black;font-family:sans-serif;font-size:13;" transform="matrix(1 0 0 1 1289 1989)">design is preserved when submitting to Xcode.</text>
  <text id="template-version" style="stroke:none;fill:black;font-family:sans-serif;font-size:13;text-anchor:end;" transform="matrix(1 0 0 1 3036 1933)">Template v.3.0</text>
  <text style="stroke:none;fill:black;font-family:sans-serif;font-size:13;text-anchor:end;" transform="matrix(1 0 0 1 3036 1951)">Requires Xcode 13 or greater</text>
  <text id="descriptive-name" style="stroke:none;fill:black;font-family:sans-serif;font-size:13;text-anchor:end;" transform="matrix(1 0 0 1 3036 1969)">Generated from logo.appstore.circle</text>
  <text style="stroke:none;fill:black;font-family:sans-serif;font-size:13;text-anchor:end;" transform="matrix(1 0 0 1 3036 1987)">Typeset at 100 points</text>
  <text style="stroke:none;fill:black;font-family:sans-serif;font-size:13;" transform="matrix(1 0 0 1 263 726)">Small</text>
  <text style="stroke:none;fill:black;font-family:sans-serif;font-size:13;" transform="matrix(1 0 0 1 263 1156)">Medium</text>
  <text style="stroke:none;fill:black;font-family:sans-serif;font-size:13;" transform="matrix(1 0 0 1 263 1586)">Large</text>
 </g>
 <g id="Guides">
  <g id="H-reference" style="fill:#27AAE1;stroke:none;" transform="matrix(1 0 0 1 339 696)">
   <path d="M0.976562 0L3.66211 0L29.3457-67.1387L30.0293-67.1387L30.0293-70.459L28.125-70.459ZM11.6699-24.4629L46.9727-24.4629L46.2402-26.709L12.4512-26.709ZM55.127 0L57.7637 0L30.6152-70.459L29.4434-70.459L29.4434-67.1387Z"/>
  </g>
  <line id="Baseline-S" style="fill:none;stroke:#27AAE1;opacity:1;stroke-width:0.5;" x1="263" x2="3036" y1="696" y2="696"/>
  <line id="Capline-S" style="fill:none;stroke:#27AAE1;opacity:1;stroke-width:0.5;" x1="263" x2="3036" y1="625.541" y2="625.541"/>
  <g id="H-reference" style="fill:#27AAE1;stroke:none;" transform="matrix(1 0 0 1 339 1126)">
   <path d="M0.976562 0L3.66211 0L29.3457-67.1387L30.0293-67.1387L30.0293-70.459L28.125-70.459ZM11.6699-24.4629L46.9727-24.4629L46.2402-26.709L12.4512-26.709ZM55.127 0L57.7637 0L30.6152-70.459L29.4434-70.459L29.4434-67.1387Z"/>
  </g>
  <line id="Baseline-M" style="fill:none;stroke:#27AAE1;opacity:1;stroke-width:0.5;" x1="263" x2="3036" y1="1126" y2="1126"/>
  <line id="Capline-M" style="fill:none;stroke:#27AAE1;opacity:1;stroke-width:0.5;" x1="263" x2="3036" y1="1055.54" y2="1055.54"/>
  <g id="H-reference" style="fill:#27AAE1;stroke:none;" transform="matrix(1 0 0 1 339 1556)">
   <path d="M0.976562 0L3.66211 0L29.3457-67.1387L30.0293-67.1387L30.0293-70.459L28.125-70.459ZM11.6699-24.4629L46.9727-24.4629L46.2402-26.709L12.4512-26.709ZM55.127 0L57.7637 0L30.6152-70.459L29.4434-70.459L29.4434-67.1387Z"/>
  </g>
  <line id="Baseline-L" style="fill:none;stroke:#27AAE1;opacity:1;stroke-width:0.5;" x1="263" x2="3036" y1="1556" y2="1556"/>
  <line id="Capline-L" style="fill:none;stroke:#27AAE1;opacity:1;stroke-width:0.5;" x1="263" x2="3036" y1="1485.54" y2="1485.54"/>
  <line id="left-margin-Regular-M" style="fill:none;stroke:#00AEEF;stroke-width:0.5;opacity:1.0;" x1="1391.01" x2="1391.01" y1="1030.73" y2="1150.14"/>
  <line id="right-margin-Regular-M" style="fill:none;stroke:#00AEEF;stroke-width:0.5;opacity:1.0;" x1="1508.68" x2="1508.68" y1="1030.73" y2="1150.14"/>
 </g>
 <g id="Symbols">
  <g id="Black-L" transform="matrix(1 0 0 1 2853.82 1556)">
   <path class="multicolor-0:tintColor hierarchical-0:secondary SFSymbolsPreview007AFF" d="M79.512 33.188C88.8764 33.188 97.6297 31.4214 105.841 27.8483C114.055 24.2753 121.246 19.4271 127.532 13.1018C133.815 6.81905 138.705-0.332313 142.238-8.58886C145.769-16.8454 147.578-25.5536 147.578-34.918C147.578-44.2823 145.812-52.9932 142.238-61.2471C138.665-69.5036 133.817-76.6523 127.489-82.9378C121.207-89.2205 114.055-94.1112 105.799-97.6418C97.5421-101.215 88.8339-102.981 79.4696-102.981C70.1052-102.981 61.397-101.215 53.1405-97.6418C44.8839-94.0687 37.7776-89.2205 31.4922-82.9378C25.2094-76.655 20.3188-69.5036 16.7882-61.2471C13.3348-52.8709 11.5681-44.1627 11.5681-34.7983C11.5681-25.434 13.3348-16.7232 16.9078-8.46924C20.4808-0.212696 25.329 6.93603 31.6118 13.2214C37.8946 19.5042 45.046 24.3949 53.3025 27.9255C61.4394 31.3365 70.1901 33.188 79.512 33.188ZM79.512 12.9582C72.9724 12.9582 66.7648 11.7575 60.9715 9.31385C55.1383 6.91262 50.1685 3.4781 45.7007-0.989705C41.395-5.29544 37.9605-10.4247 35.4396-16.2604C33.0384-22.0936 31.6757-28.2587 31.6757-34.8434C31.6757-41.4282 32.8763-47.5907 35.3972-53.4264C37.7984-59.2595 41.2329-64.2718 45.6583-68.6972C49.964-73.0029 55.0933-76.4374 60.929-79.0007C66.7621-81.402 72.9299-82.7646 79.4696-82.7646C86.0516-82.7646 92.2194-81.564 98.0526-79.0007C103.886-76.557 108.898-73.165 113.323-68.6972C117.629-64.3914 121.064-59.2622 123.627-53.4264C126.071-47.5933 127.391-41.4255 127.391-34.8434C127.391-28.2613 126.19-22.0962 123.627-16.2604C121.226-10.4273 117.791-5.41506 113.366-0.989705C109.06 3.35848 103.931 6.793 98.0976 9.3563C92.4239 11.7575 86.2163 12.9582 79.512 12.9582Z"/>
   <path class="multicolor-1:systemBlueColor hierarchical-1:primary SFSymbolsPreview007AFF" d="M79.512-62.4314L81.4884-65.7254C82.6413-67.7018 85.2765-68.5253 87.2529-67.3724C89.2293-66.2195 90.0528-63.5843 88.8999-61.6079L70.4535-29.8208L83.6295-29.8208C87.9117-29.8208 90.3822-24.7151 88.4058-21.2564L49.7438-21.2564C47.438-21.2564 45.4616-23.2328 45.4616-25.5386C45.4616-27.8444 47.438-29.8208 49.7438-29.8208L60.614-29.8208L74.571-53.8696L70.2888-61.4458C69.1359-63.4222 69.7947-66.0574 71.9358-67.2103C73.9122-68.3632 76.5474-67.7044 77.7003-65.5633L79.512-62.4314L79.512-62.4314ZM63.042-16.8546L58.9245-9.7725C57.7716-7.7961 55.1364-6.9726 53.16-8.1255C51.1836-9.2784 50.3601-11.9136 51.513-13.89L54.6423-19.1604C57.9788-20.4329 60.7787-19.6094 63.042-16.8546L63.042-16.8546ZM98.2878-29.8208L109.323-29.8208C111.629-29.8208 113.605-27.8444 113.605-25.5386C113.605-23.2328 111.629-21.2564 109.323-21.2564L103.229-21.2564L107.346-14.0096C108.499-12.0332 107.84-9.39801 105.699-8.24511C103.723-7.09221 101.088-7.75101 99.9348-9.89211C93.0174-22.0799 87.747-31.1384 84.1236-37.2323C80.5002-43.3262 83.1354-49.5848 85.6059-51.7259C88.5705-46.6653 92.688-39.4185 98.2878-29.8208L98.2878-29.8208Z"/>
  </g>
  <g id="Heavy-L" transform="matrix(1 0 0 1 2558.04 1556)">
   <path class="multicolor-0:tintColor hierarchical-0:secondary SFSymbolsPreview007AFF" d="M78.5731 32.24C87.7954 32.24 96.4445 30.5016 104.514 26.9763C112.596 23.4509 119.72 18.6689 125.911 12.4293C132.089 6.25067 136.932-0.824787 140.409-8.96747C143.873-17.1101 145.673-25.686 145.673-34.9082C145.673-44.1305 143.934-52.7187 140.409-60.849C136.884-68.9917 132.102-76.0548 125.85-82.2458C119.671-88.4244 112.596-93.2674 104.453-96.7318C96.3103-100.257 87.7344-101.996 78.5122-101.996C69.2899-101.996 60.7141-100.257 52.5714-96.7318C44.4287-93.2064 37.4266-88.4244 31.2356-82.2458C25.0569-76.0671 20.214-68.9917 16.7495-60.849C13.3156-52.6149 11.5772-44.0391 11.5772-34.8169C11.5772-25.5946 13.3156-17.0064 16.8409-8.87608C20.3663-0.7334 25.1483 6.32969 31.327 12.5207C37.5056 18.6993 44.581 23.5423 52.7237 27.0067C60.775 30.3797 69.4118 32.24 78.5731 32.24ZM78.5731 14.4073C71.8252 14.4073 65.419 13.1688 59.4642 10.6307C53.4607 8.15353 48.3294 4.61487 43.7292 0.0146947C39.2814-4.43314 35.7427-9.70447 33.1742-15.7203C30.697-21.7237 29.3061-28.0689 29.3061-34.8902C29.3061-41.7114 30.5447-48.0442 33.1132-54.0601C35.5904-60.0635 39.129-65.2558 43.6683-69.795C48.1161-74.2429 53.3874-77.7815 59.4032-80.411C65.4067-82.8882 71.7642-84.2791 78.5122-84.2791C85.321-84.2791 91.6786-83.0405 97.682-80.411C103.685-77.8729 108.878-74.3952 113.417-69.795C117.865-65.3472 121.404-60.0759 124.033-54.0601C126.571-48.0566 127.901-41.699 127.901-34.8902C127.901-28.0813 126.662-21.7361 124.033-15.7203C121.556-9.71683 118.017-4.52453 113.478 0.0146947C109.03 4.52348 103.759 8.06214 97.7554 10.6916C91.8919 13.1688 85.4857 14.4073 78.5731 14.4073Z"/>
   <path class="multicolor-1:systemBlueColor hierarchical-1:primary SFSymbolsPreview007AFF" d="M78.5731-62.2046L80.5495-65.4986C81.7024-67.475 84.3376-68.2985 86.314-67.1456C88.2904-65.9927 89.1139-63.3575 87.961-61.3811L69.5146-29.594L82.6906-29.594C86.9728-29.594 89.4433-24.4883 87.4669-21.0296L48.8234-21.0296C46.5176-21.0296 44.5412-23.006 44.5412-25.3118C44.5412-27.6176 46.5176-29.594 48.8234-29.594L59.6936-29.594L73.6321-53.6526L69.3499-61.2288C68.197-63.2052 68.8558-65.8404 70.9969-66.9933C72.9733-68.1462 75.6085-67.4874 76.7614-65.3463L78.5731-62.2046L78.5731-62.2046ZM62.1031-16.656L57.9856-9.57394C56.8327-7.59754 54.1975-6.77404 52.2211-7.92694C50.2447-9.07984 49.4212-11.715 50.5741-13.6914L53.7034-18.9618C57.0584-20.2061 59.8583-19.3826 62.1031-16.656L62.1031-16.656ZM97.3489-29.594L108.384-29.594C110.69-29.594 112.666-27.6176 112.666-25.3118C112.666-23.006 110.69-21.0296 108.384-21.0296L102.29-21.0296L106.407-13.7828C107.56-11.8064 106.902-9.17123 104.76-8.01833C102.784-6.86543 100.149-7.52423 98.9959-9.66533C92.0785-21.8531 86.8081-30.9116 83.1847-37.0055C79.5613-43.0994 82.1965-49.358 84.667-51.4991C87.6316-46.4667 91.7491-39.2199 97.3489-29.594L97.3489-29.594Z"/>
  </g>
  <g id="Bold-L" transform="matrix(1 0 0 1 2262.49 1556)">
   <path class="multicolor-0:tintColor hierarchical-0:secondary SFSymbolsPreview007AFF" d="M77.3969 31.0499C86.4426 31.0499 94.9634 29.3431 102.856 25.8829C110.778 22.4227 117.803 17.7206 123.883 11.5945C129.933 5.54411 134.711-1.43463 138.125-9.43225C141.509-17.4299 143.292-25.8458 143.292-34.8915C143.292-43.9371 141.585-52.3822 138.125-60.3507C134.664-68.3483 129.962-75.2979 123.807-81.3774C117.757-87.4278 110.778-92.2056 102.78-95.5901C94.7828-99.0503 86.3668-100.757 77.3212-100.757C68.2755-100.757 59.8596-99.0503 51.862-95.5901C43.8643-92.1298 36.9905-87.4278 30.911-81.3774C24.8606-75.327 20.0828-68.3483 16.6983-60.3507C13.2979-52.2932 11.5911-43.8773 11.5911-34.8317C11.5911-25.786 13.2979-17.3409 16.7581-9.37245C20.2184-1.37483 24.9204 5.57479 30.9708 11.6543C37.0212 17.7046 43.9999 22.4825 51.9975 25.867C59.9353 29.1916 68.4271 31.0499 77.3969 31.0499ZM77.3969 16.2053C70.3924 16.2053 63.7465 14.9184 57.5814 12.2688C51.3698 9.69492 46.0282 6.02797 41.2682 1.26794C36.6437-3.35653 32.9768-8.80451 30.3431-15.0453C27.7693-21.257 26.3468-27.8272 26.3468-34.9365C26.3468-42.0459 27.6337-48.587 30.2674-54.8278C32.8412-61.0395 36.5082-66.4568 41.1924-71.141C45.8169-75.7655 51.2649-79.4325 57.5057-82.1419C63.7173-84.7157 70.3167-86.1382 77.3212-86.1382C84.4014-86.1382 91.0007-84.8513 97.2124-82.1419C103.424-79.4923 108.841-75.9011 113.526-71.141C118.15-66.5166 121.817-61.0686 124.526-54.8278C127.176-48.6161 128.523-42.0168 128.523-34.9365C128.523-27.8563 127.236-21.2861 124.526-15.0453C121.953-8.83364 118.286-3.41634 113.601 1.26794C108.977 5.96817 103.529 9.63511 97.3173 12.3445C91.2121 14.9184 84.5661 16.2053 77.3969 16.2053Z"/>
   <path class="multicolor-1:systemBlueColor hierarchical-1:primary SFSymbolsPreview007AFF" d="M77.3969-61.9333L79.3733-65.2273C80.5262-67.2037 83.1614-68.0272 85.1378-66.8743C87.1142-65.7214 87.9377-63.0862 86.7848-61.1098L68.3384-29.3227L81.5144-29.3227C85.7966-29.3227 88.2671-24.217 86.2907-20.7583L47.662-20.7583C45.3562-20.7583 43.3798-22.7347 43.3798-25.0405C43.3798-27.3463 45.3562-29.3227 47.662-29.3227L58.5322-29.3227L72.4559-53.398L68.1737-60.9742C67.0208-62.9506 67.6796-65.5858 69.8207-66.7387C71.7971-67.8916 74.4323-67.2328 75.5852-65.0917L77.3969-61.9333L77.3969-61.9333ZM60.9269-16.4162L56.8094-9.33414C55.6565-7.35774 53.0213-6.53424 51.0449-7.68714C49.0685-8.84004 48.245-11.4752 49.3979-13.4516L52.5272-18.722C55.897-19.9348 58.6969-19.1113 60.9269-16.4162L60.9269-16.4162ZM96.1727-29.3227L107.208-29.3227C109.513-29.3227 111.49-27.3463 111.49-25.0405C111.49-22.7347 109.513-20.7583 107.208-20.7583L101.114-20.7583L105.231-13.5115C106.384-11.5351 105.725-8.89985 103.584-7.74695C101.608-6.59405 98.9726-7.25285 97.8197-9.39395C90.9023-21.5818 85.6319-30.6403 82.0085-36.7342C78.3851-42.8281 81.0203-49.0867 83.4908-51.2278C86.4554-46.2269 90.5729-38.9801 96.1727-29.3227L96.1727-29.3227Z"/>
  </g>
  <g id="Semibold-L" transform="matrix(1 0 0 1 1966.59 1556)">
   <path class="multicolor-0:tintColor hierarchical-0:secondary SFSymbolsPreview007AFF" d="M76.5861 30.2295C85.5099 30.2295 93.9423 28.5445 101.713 25.1291C109.525 21.7138 116.482 17.0668 122.485 11.0189C128.447 5.05702 133.18-1.85506 136.55-9.75267C139.879-17.6503 141.65-25.956 141.65-34.8799C141.65-43.8038 139.965-52.1502 136.55-60.0071C133.134-67.9047 128.488-74.7761 122.399-80.7787C116.437-86.7407 109.525-91.4736 101.627-94.803C93.7297-98.2183 85.424-99.9033 76.5001-99.9033C67.5762-99.9033 59.2705-98.2183 51.3729-94.803C43.4753-91.3876 36.6898-86.7407 30.6872-80.7787C24.7253-74.8168 19.9924-67.9047 16.663-60.0071C13.2857-52.0715 11.6007-43.7657 11.6007-34.8419C11.6007-25.918 13.2857-17.5716 16.701-9.71464C20.1164-1.81702 24.7633 5.05436 30.7253 11.057C36.6872 17.0189 43.5993 21.7518 51.4969 25.0812C59.3565 28.3725 67.7482 30.2295 76.5861 30.2295ZM76.5861 17.4448C69.4047 17.4448 62.5934 16.1246 56.2835 13.3981C49.9283 10.7575 44.4418 7.00216 39.5716 2.13191C34.8253-2.61433 31.07-8.18408 28.3914-14.58C25.7509-20.9352 24.3066-27.6605 24.3066-34.9685C24.3066-42.2766 25.6269-48.9612 28.3054-55.3571C30.946-61.7123 34.7013-67.2847 39.4856-72.069C44.2319-76.8152 49.8016-80.5706 56.1975-83.3351C62.5527-85.9756 69.3187-87.4199 76.5001-87.4199C83.7674-87.4199 90.5334-86.0996 96.8886-83.3351C103.244-80.6086 108.816-76.9392 113.601-72.069C118.347-67.3227 122.102-61.753 124.867-55.3571C127.593-49.0019 128.951-42.2359 128.951-34.9685C128.951-27.7012 127.631-20.9759 124.867-14.58C122.226-8.22477 118.471-2.65237 113.687 2.13191C108.94 6.96412 103.371 10.7195 97.0153 13.484C90.7434 16.1246 83.9321 17.4448 76.5861 17.4448Z"/>
   <path class="multicolor-1:systemBlueColor hierarchical-1:primary SFSymbolsPreview007AFF" d="M76.5861-61.7462L78.5625-65.0402C79.7154-67.0166 82.3506-67.8401 84.327-66.6872C86.3034-65.5343 87.1269-62.8991 85.974-60.9227L67.5276-29.1356L80.7036-29.1356C84.9858-29.1356 87.4563-24.0299 85.4799-20.5712L46.8613-20.5712C44.5555-20.5712 42.5791-22.5476 42.5791-24.8534C42.5791-27.1592 44.5555-29.1356 46.8613-29.1356L57.7315-29.1356L71.6451-53.2225L67.3629-60.7987C66.21-62.7751 66.8688-65.4103 69.0099-66.5632C70.9863-67.7161 73.6215-67.0573 74.7744-64.9162L76.5861-61.7462L76.5861-61.7462ZM60.1161-16.2509L55.9986-9.16883C54.8457-7.19243 52.2105-6.36893 50.2341-7.52183C48.2577-8.67473 47.4342-11.3099 48.5871-13.2863L51.7164-18.5567C55.0963-19.7477 57.8962-18.9242 60.1161-16.2509L60.1161-16.2509ZM95.3619-29.1356L106.397-29.1356C108.703-29.1356 110.679-27.1592 110.679-24.8534C110.679-22.5476 108.703-20.5712 106.397-20.5712L100.303-20.5712L104.42-13.3244C105.573-11.348 104.914-8.71277 102.773-7.55987C100.797-6.40697 98.1618-7.06577 97.0089-9.20687C90.0915-21.3947 84.8211-30.4532 81.1977-36.5471C77.5743-42.641 80.2095-48.8996 82.68-51.0407C85.6446-46.0616 89.7621-38.8148 95.3619-29.1356L95.3619-29.1356Z"/>
  </g>
  <g id="Medium-L" transform="matrix(1 0 0 1 1670.48 1556)">
   <path class="multicolor-0:tintColor hierarchical-0:secondary SFSymbolsPreview007AFF" d="M75.9712 29.6074C84.8028 29.6074 93.1681 27.9389 100.847 24.5576C108.575 21.1763 115.481 16.5711 121.425 10.5825C127.32 4.68769 132.019-2.17384 135.356-9.99563C138.643-17.8174 140.406-26.0396 140.406-34.8711C140.406-43.7027 138.737-51.9743 135.356-59.7466C131.974-67.5684 127.369-74.3805 121.331-80.3248C115.436-86.2197 108.575-90.9186 100.753-94.2062C92.9312-97.5875 84.7091-99.256 75.8775-99.256C67.046-99.256 58.8238-97.5875 51.002-94.2062C43.1802-90.8249 36.4619-86.2197 30.5176-80.3248C24.6227-74.43 19.9238-67.5684 16.6362-59.7466C13.2764-51.9033 11.6079-43.6811 11.6079-34.8496C11.6079-26.0181 13.2764-17.7464 16.6577-9.9741C20.039-2.15231 24.6442 4.65975 30.5391 10.6041C36.4339 16.4989 43.2955 21.1978 51.1173 24.4854C58.9175 27.7515 67.2334 29.6074 75.9712 29.6074ZM75.9712 18.3847C68.6558 18.3847 61.7191 17.0391 55.2993 14.2543C48.8353 11.5633 43.239 7.74083 38.2851 2.78702C33.4466-2.05156 29.6241-7.71364 26.9115-14.2272C24.2205-20.6912 22.7597-27.5341 22.7597-34.9928C22.7597-42.4514 24.1052-49.2449 26.8178-55.7584C29.5089-62.2224 33.3313-67.9124 38.1914-72.7726C43.03-77.6111 48.6921-81.4336 55.2056-84.2399C61.6697-86.931 68.562-88.3917 75.8775-88.3917C83.2867-88.3917 90.1791-87.0462 96.6432-84.2399C103.107-81.4551 108.797-77.7264 113.657-72.7726C118.496-67.934 122.318-62.2719 125.125-55.7584C127.909-49.2943 129.276-42.402 129.276-34.9928C129.276-27.5836 127.931-20.7407 125.125-14.2272C122.434-7.76311 118.611-2.07309 113.751 2.78702C108.912 7.7193 103.25 11.5417 96.7863 14.348C90.388 17.0391 83.4514 18.3847 75.9712 18.3847Z"/>
   <path class="multicolor-1:systemBlueColor hierarchical-1:primary SFSymbolsPreview007AFF" d="M75.9712-61.6043L77.9476-64.8983C79.1005-66.8747 81.7357-67.6982 83.7121-66.5453C85.6885-65.3924 86.512-62.7572 85.3591-60.7808L66.9127-28.9937L80.0887-28.9937C84.3709-28.9937 86.8414-23.888 84.865-20.4293L46.2542-20.4293C43.9484-20.4293 41.972-22.4057 41.972-24.7115C41.972-27.0173 43.9484-28.9937 46.2542-28.9937L57.1244-28.9937L71.0302-53.0894L66.748-60.6656C65.5951-62.642 66.2539-65.2772 68.395-66.4301C70.3714-67.583 73.0066-66.9242 74.1595-64.7831L75.9712-61.6043L75.9712-61.6043ZM59.5012-16.1256L55.3837-9.04348C54.2308-7.06708 51.5956-6.24358 49.6192-7.39648C47.6428-8.54938 46.8193-11.1846 47.9722-13.161L51.1015-18.4314C54.4892-19.6058 57.2891-18.7823 59.5012-16.1256L59.5012-16.1256ZM94.747-28.9937L105.782-28.9937C108.088-28.9937 110.064-27.0173 110.064-24.7115C110.064-22.4057 108.088-20.4293 105.782-20.4293L99.688-20.4293L103.806-13.1825C104.958-11.2061 104.3-8.57091 102.159-7.41801C100.182-6.26511 97.5469-6.92391 96.394-9.06501C89.4766-21.2528 84.2062-30.3113 80.5828-36.4052C76.9594-42.4991 79.5946-48.7577 82.0651-50.8988C85.0297-45.9363 89.1472-38.6895 94.747-28.9937L94.747-28.9937Z"/>
  </g>
  <g id="Regular-L" transform="matrix(1 0 0 1 1374.57 1556)">
   <path class="multicolor-0:tintColor hierarchical-0:secondary SFSymbolsPreview007AFF" d="M75.1693 28.796C83.8804 28.796 92.1583 27.149 99.7165 23.8121C107.336 20.4752 114.174 15.9245 120.042 10.0133C125.85 4.20594 130.504-2.58965 133.798-10.3125C137.031-18.0354 138.782-26.1486 138.782-34.8597C138.782-43.5708 137.135-51.7449 133.798-59.4069C130.461-67.1297 125.911-73.8644 119.939-79.7327C114.131-85.5401 107.336-90.1946 99.6127-93.4277C91.8898-96.7646 83.7766-98.4116 75.0655-98.4116C66.3544-98.4116 58.2412-96.7646 50.5183-93.4277C42.7954-90.0908 36.1646-85.5401 30.2963-79.7327C24.4889-73.9253 19.8344-67.1297 16.6013-59.4069C13.2644-51.684 11.6174-43.5708 11.6174-34.8597C11.6174-26.1486 13.2644-17.9745 16.6013-10.3125C19.9382-2.58965 24.4889 4.14504 30.2963 10.0133C36.1036 15.8207 42.8992 20.4752 50.6221 23.7083C58.345 26.9414 66.562 28.796 75.1693 28.796ZM75.1693 19.6105C67.6789 19.6105 60.5788 18.232 54.0156 15.3712C47.4096 12.6142 41.67 8.70431 36.6072 3.6415C31.6482-1.31751 27.7383-7.10003 24.9813-13.7669C22.2242-20.373 20.7419-27.3693 20.7419-35.0244C20.7419-42.6795 22.1204-49.6149 24.8775-56.2818C27.6345-62.8879 31.5444-68.7313 36.5034-73.6903C41.4624-78.6493 47.2449-82.5592 53.9118-85.42C60.5179-88.177 67.5751-89.6593 75.0655-89.6593C82.6597-89.6593 89.7169-88.2808 96.3229-85.42C102.929-82.5592 108.772-78.7531 113.731-73.6903C118.69-68.7313 122.6-62.9488 125.461-56.2818C128.322-49.6758 129.7-42.6186 129.7-35.0244C129.7-27.4302 128.322-20.4339 125.461-13.7669C122.704-7.16093 118.794-1.31751 113.835 3.6415C108.876 8.70431 103.094 12.6142 96.4876 15.475C89.9245 18.232 82.8244 19.6105 75.1693 19.6105Z"/>
   <path class="multicolor-1:systemBlueColor hierarchical-1:primary SFSymbolsPreview007AFF" d="M75.1693-61.4193L77.1457-64.7133C78.2986-66.6897 80.9338-67.5132 82.9102-66.3603C84.8866-65.2074 85.7101-62.5722 84.5572-60.5958L66.1108-28.8087L79.2868-28.8087C83.569-28.8087 86.0395-23.703 84.0631-20.2443L45.4624-20.2443C43.1566-20.2443 41.1802-22.2207 41.1802-24.5265C41.1802-26.8323 43.1566-28.8087 45.4624-28.8087L56.3326-28.8087L70.2283-52.9158L65.9461-60.492C64.7932-62.4684 65.452-65.1036 67.5931-66.2565C69.5695-67.4094 72.2047-66.7506 73.3576-64.6095L75.1693-61.4193L75.1693-61.4193ZM58.6993-15.9621L54.5818-8.87999C53.4289-6.90359 50.7937-6.08009 48.8173-7.23299C46.8409-8.38589 46.0174-11.0211 47.1703-12.9975L50.2996-18.2679C53.6974-19.4208 56.4973-18.5973 58.6993-15.9621L58.6993-15.9621ZM93.9451-28.8087L104.98-28.8087C107.286-28.8087 109.262-26.8323 109.262-24.5265C109.262-22.2207 107.286-20.2443 104.98-20.2443L98.8861-20.2443L103.004-12.9975C104.156-11.0211 103.498-8.38589 101.357-7.23299C99.3802-6.08009 96.745-6.73889 95.5921-8.87999C88.6747-21.0678 83.4043-30.1263 79.7809-36.2202C76.1575-42.3141 78.7927-48.5727 81.2632-50.7138C84.2278-45.7728 88.3453-38.526 93.9451-28.8087L93.9451-28.8087Z"/>
  </g>
  <g id="Light-L" transform="matrix(1 0 0 1 1078.76 1556)">
   <path class="multicolor-0:tintColor hierarchical-0:secondary SFSymbolsPreview007AFF" d="M74.2715 27.8714C82.8565 27.8714 91.0504 26.2244 98.4825 22.9715C106.018 19.7187 112.688 15.21 118.514 9.42493C124.237 3.7016 128.808-3.00994 132.102-10.6067C135.293-18.2035 137.002-26.2327 137.002-34.8177C137.002-43.4027 135.355-51.5347 132.102-59.0286C128.849-66.6254 124.34-73.234 118.452-79.0603C112.729-84.7836 106.018-89.354 98.4207-92.5451C90.8239-95.7979 82.7948-97.4449 74.2098-97.4449C65.6248-97.4449 57.5956-95.7979 49.9989-92.5451C42.4021-89.2923 35.8552-84.7836 30.029-79.0603C24.3056-73.3369 19.7352-66.6254 16.5441-59.0286C13.2913-51.4318 11.6443-43.4027 11.6443-34.8177C11.6443-26.2327 13.2913-18.1006 16.5441-10.6067C19.797-3.00994 24.3056 3.59866 30.029 9.42493C35.7523 15.1483 42.4638 19.7187 50.0606 22.9098C57.6574 26.1008 65.7483 27.8714 74.2715 27.8714ZM74.2715 20.8714C66.613 20.8714 59.3868 19.4509 52.6135 16.548C45.8814 13.707 39.9317 9.71301 34.7848 4.56614C29.6997-0.518961 25.7057-6.42756 22.8647-13.2626C20.0236-19.9947 18.5413-27.1591 18.5413-34.9824C18.5413-42.8056 19.9618-49.8671 22.8029-56.7021C25.644-63.4342 29.6379-69.4458 34.723-74.5309C39.8081-79.616 45.7167-83.6099 52.5518-86.5128C59.2839-89.3538 66.5512-90.8361 74.2098-90.8361C81.9301-90.8361 89.1975-89.4156 95.9296-86.5128C102.662-83.6099 108.673-79.6777 113.758-74.5309C118.843-69.4458 122.837-63.5372 125.74-56.7021C128.643-49.97 130.064-42.7027 130.064-34.9824C130.064-27.2621 128.643-20.0976 125.74-13.2626C122.899-6.5305 118.905-0.518961 113.82 4.56614C108.735 9.71301 102.826 13.707 96.0943 16.6098C89.321 19.4509 82.0948 20.8714 74.2715 20.8714Z"/>
   <path class="multicolor-1:systemBlueColor hierarchical-1:primary SFSymbolsPreview007AFF" d="M74.2715-61.2932L76.2479-64.5872C77.4008-66.5636 80.036-67.3871 82.0124-66.2342C83.9888-65.0813 84.8123-62.4461 83.6594-60.4697L65.213-28.6826L78.389-28.6826C82.6712-28.6826 85.1417-23.5769 83.1653-20.1182L44.5226-20.1182C42.2168-20.1182 40.2404-22.0946 40.2404-24.4004C40.2404-26.7062 42.2168-28.6826 44.5226-28.6826L55.3928-28.6826L69.3305-52.8317L65.0483-60.4079C63.8954-62.3843 64.5542-65.0195 66.6953-66.1724C68.6717-67.3253 71.3069-66.6665 72.4598-64.5254L74.2715-61.2932L74.2715-61.2932ZM57.8015-15.836L53.684-8.7539C52.5311-6.7775 49.8959-5.954 47.9195-7.1069C45.9431-8.2598 45.1196-10.895 46.2725-12.8714L49.4018-18.1418C52.7576-19.2947 55.5575-18.4712 57.8015-15.836L57.8015-15.836ZM93.0473-28.6826L104.082-28.6826C106.388-28.6826 108.364-26.7062 108.364-24.4004C108.364-22.0946 106.388-20.1182 104.082-20.1182L97.9883-20.1182L102.106-12.8714C103.259-10.895 102.6-8.2598 100.459-7.1069C98.4824-5.954 95.8472-6.6128 94.6943-8.7539C87.7769-20.9417 82.5065-30.0002 78.8831-36.0941C75.2597-42.188 77.8949-48.4466 80.3654-50.5877C83.33-45.6467 87.4475-38.3999 93.0473-28.6826L93.0473-28.6826Z"/>
  </g>
  <g id="Thin-L" transform="matrix(1 0 0 1 783.245 1556)">
   <path class="multicolor-0:tintColor hierarchical-0:secondary SFSymbolsPreview007AFF" d="M73.0842 26.6485C81.5025 26.6485 89.5851 25.0015 96.8505 21.8598C104.274 18.7181 110.722 14.2651 116.493 8.64672C122.105 3.03456 126.564-3.5658 129.858-10.9958C132.994-18.4259 134.647-26.3438 134.647-34.7621C134.647-43.1803 133-51.2568 129.858-58.5283C126.717-65.9584 122.264-72.4002 116.487-78.1709C110.875-83.783 104.274-88.2423 96.8443-91.3778C89.4142-94.5194 81.4963-96.1664 73.078-96.1664C64.6598-96.1664 56.7418-94.5194 49.3118-91.3778C41.8818-88.2361 35.4461-83.783 29.6754-78.1709C24.0633-72.5587 19.604-65.9584 16.4685-58.5283C13.3269-51.0983 11.6799-43.1803 11.6799-34.7621C11.6799-26.3438 13.3269-18.2674 16.4685-10.9958C19.6102-3.5658 24.0633 2.87604 29.6754 8.64672C35.2876 14.2589 41.8879 18.7181 49.318 21.8536C56.748 24.9891 64.6722 26.6485 73.0842 26.6485ZM73.0842 22.539C65.2033 22.539 57.8104 21.0629 50.7592 18.1045C43.8603 15.1522 37.6326 11.0471 32.3746 5.78905C27.1227 0.537186 23.0176-5.53817 20.0653-12.5956C17.1131-19.4944 15.6308-26.8812 15.6308-34.9268C15.6308-42.9724 17.1069-50.2006 20.0591-57.258C23.0114-64.1569 27.1165-70.3907 32.3684-75.6426C37.6202-80.8945 43.6956-84.9996 50.753-87.958C57.6519-90.9103 65.1972-92.3926 73.078-92.3926C80.9651-92.3926 88.5104-90.9164 95.4093-87.958C102.308-84.9996 108.542-80.9006 113.794-75.6426C119.046-70.3907 123.151-64.3154 126.109-57.258C129.068-50.3591 130.544-42.8138 130.544-34.9268C130.544-27.0397 129.068-19.6529 126.109-12.5956C123.157-5.69669 119.052 0.537186 113.8 5.78905C108.548 11.0471 102.473 15.1522 95.574 18.1106C88.5228 21.0629 81.1298 22.539 73.0842 22.539Z"/>
   <path class="multicolor-1:systemBlueColor hierarchical-1:primary SFSymbolsPreview007AFF" d="M73.0842-61.1264L75.0606-64.4204C76.2135-66.3968 78.8487-67.2203 80.8251-66.0674C82.8015-64.9145 83.625-62.2793 82.4721-60.3029L64.0257-28.5158L77.2017-28.5158C81.4839-28.5158 83.9544-23.4101 81.978-19.9514L43.2797-19.9514C40.9739-19.9514 38.9975-21.9278 38.9975-24.2336C38.9975-26.5394 40.9739-28.5158 43.2797-28.5158L54.1499-28.5158L68.1432-52.7206L63.861-60.2968C62.7081-62.2732 63.3669-64.9084 65.508-66.0613C67.4844-67.2142 70.1196-66.5554 71.2725-64.4143L73.0842-61.1264L73.0842-61.1264ZM56.6142-15.6692L52.4967-8.58714C51.3438-6.61074 48.7086-5.78724 46.7322-6.94014C44.7558-8.09304 43.9323-10.7282 45.0852-12.7046L48.2145-17.975C51.5147-19.1279 54.3146-18.3044 56.6142-15.6692L56.6142-15.6692ZM91.86-28.5158L102.895-28.5158C105.201-28.5158 107.177-26.5394 107.177-24.2336C107.177-21.9278 105.201-19.9514 102.895-19.9514L96.801-19.9514L100.919-12.7046C102.071-10.7282 101.413-8.09304 99.2715-6.94014C97.2951-5.78724 94.6599-6.44604 93.507-8.58714C86.5896-20.7749 81.3192-29.8334 77.6958-35.9273C74.0724-42.0212 76.7076-48.2798 79.1781-50.4209C82.1427-45.4799 86.2602-38.2331 91.86-28.5158L91.86-28.5158Z"/>
  </g>
  <g id="Ultralight-L" transform="matrix(1 0 0 1 487.146 1556)">
   <path class="multicolor-0:tintColor hierarchical-0:secondary SFSymbolsPreview007AFF" d="M72.4761 26.0221C80.8089 26.0221 88.8346 24.3751 96.0145 21.2904C103.381 18.2057 109.716 13.781 115.458 8.24812C121.013 2.6929 125.415-3.85052 128.709-11.1951C131.816-18.5398 133.441-26.4008 133.441-34.7336C133.441-43.0664 131.794-51.1144 128.709-58.2721C125.625-65.6167 121.2-71.9731 115.48-77.7153C109.925-83.2706 103.381-87.6729 96.0368-90.7799C88.6922-93.8646 80.8312-95.5116 72.4984-95.5116C64.1655-95.5116 56.3045-93.8646 48.9599-90.7799C41.6153-87.6952 35.2366-83.2706 29.4943-77.7153C23.9391-72.1601 19.5368-65.6167 16.4298-58.2721C13.3451-50.9275 11.6981-43.0664 11.6981-34.7336C11.6981-26.4008 13.3451-18.3528 16.4298-11.1951C19.5145-3.85052 23.9391 2.50591 29.4943 8.24812C35.0496 13.8033 41.593 18.2057 48.9376 21.3127C56.2822 24.4197 64.121 26.0221 72.4761 26.0221ZM72.4761 23.3931C64.4813 23.3931 57.0029 21.8886 49.8094 18.9017C42.8251 15.8925 36.455 11.7304 31.1401 6.41541C25.8028 1.07814 21.6407-5.08263 18.6315-12.2539C15.6223-19.2382 14.14-26.7388 14.14-34.8983C14.14-43.0578 15.6446-50.3714 18.6538-57.5427C21.663-64.527 25.8251-70.8748 31.1623-76.212C36.4996-81.5493 42.6604-85.7114 49.8317-88.6983C56.8159-91.7075 64.5036-93.1898 72.4984-93.1898C80.4708-93.1898 88.1585-91.6852 95.1428-88.6983C102.127-85.7114 108.475-81.527 113.812-76.212C119.149-70.8748 123.311-64.714 126.298-57.5427C129.285-50.5584 130.79-42.8708 130.79-34.8983C130.79-26.9258 129.285-19.4252 126.298-12.2539C123.289-5.26963 119.127 1.07814 113.79 6.41541C108.453 11.7304 102.292 15.8925 95.3075 18.8794C88.1139 21.8886 80.6355 23.3931 72.4761 23.3931Z"/>
   <path class="multicolor-1:systemBlueColor hierarchical-1:primary SFSymbolsPreview007AFF" d="M72.4761-61.041L74.4525-64.335C75.6054-66.3114 78.2406-67.1349 80.217-65.982C82.1934-64.8291 83.0169-62.1939 81.864-60.2175L63.4176-28.4304L76.5936-28.4304C80.8758-28.4304 83.3463-23.3247 81.3699-19.866L42.6431-19.866C40.3373-19.866 38.3609-21.8424 38.3609-24.1482C38.3609-26.454 40.3373-28.4304 42.6431-28.4304L53.5133-28.4304L67.5351-52.6636L63.2529-60.2398C62.1-62.2162 62.7588-64.8514 64.8999-66.0043C66.8763-67.1572 69.5115-66.4984 70.6644-64.3573L72.4761-61.041L72.4761-61.041ZM56.0061-15.5838L51.8886-8.50173C50.7357-6.52533 48.1005-5.70183 46.1241-6.85473C44.1477-8.00763 43.3242-10.6428 44.4771-12.6192L47.6064-17.8896C50.8781-19.0425 53.678-18.219 56.0061-15.5838L56.0061-15.5838ZM91.2519-28.4304L102.287-28.4304C104.593-28.4304 106.569-26.454 106.569-24.1482C106.569-21.8424 104.593-19.866 102.287-19.866L96.1929-19.866L100.31-12.6192C101.463-10.6428 100.804-8.00763 98.6634-6.85473C96.687-5.70183 94.0518-6.36063 92.8989-8.50173C85.9815-20.6895 80.7111-29.748 77.0877-35.8419C73.4643-41.9358 76.0995-48.1944 78.57-50.3355C81.5346-45.3945 85.6521-38.1477 91.2519-28.4304L91.2519-28.4304Z"/>
  </g>
  <g id="Black-M" transform="matrix(1 0 0 1 2871.07 1126)">
   <path class="multicolor-0:tintColor hierarchical-0:secondary SFSymbolsPreview007AFF" d="M62.2866 18.4612C69.6466 18.4612 76.5062 17.0682 82.973 14.2705C89.4392 11.4727 95.0454 7.6654 99.9905 2.70846C104.936-2.23719 108.755-7.8315 111.541-14.309C114.327-20.7864 115.731-27.6354 115.731-34.9954C115.731-42.3554 114.338-49.2038 111.541-55.6819C108.743-62.1593 104.935-67.7543 99.9792-72.6993C95.0335-77.645 89.4392-81.4635 82.9617-84.25C76.4843-87.0478 69.6353-88.4407 62.2753-88.4407C54.9153-88.4407 48.0663-87.0478 41.5888-84.25C35.1114-81.4522 29.5277-77.645 24.5827-72.6993C19.637-67.7537 15.8185-62.1593 13.032-55.6819C10.3511-49.0875 8.95819-42.2385 8.95819-34.8785C8.95819-27.5185 10.3511-20.6701 13.1489-14.192C15.9467-7.71457 19.754-2.11963 24.6996 2.82539C29.6453 7.77104 35.2396 11.5896 41.717 14.3761C48.0776 17.0457 54.9379 18.4612 62.2866 18.4612ZM62.2866 1.02423C57.3763 1.02423 52.7205 0.12099 48.3426-1.69679C43.9527-3.50327 40.2128-6.08603 36.8537-9.44505C33.623-12.6758 31.0402-16.5446 29.1168-20.9339C27.3103-25.3237 26.2788-29.9682 26.2788-34.8892C26.2788-39.8101 27.1821-44.4552 29.1055-48.8444C30.912-53.2343 33.4947-56.9855 36.8425-60.3333C40.0733-63.5641 43.9421-66.1468 48.3313-68.0815C52.7212-69.888 57.365-70.9195 62.2753-70.9195C67.1969-70.9195 71.8407-70.0162 76.2306-68.0815C80.6204-66.2637 84.3717-63.6923 87.7194-60.3333C90.9502-57.1025 93.5329-53.2337 95.4676-48.8444C97.2854-44.4546 98.3056-39.8108 98.3056-34.8892C98.3056-29.9676 97.4024-25.3231 95.4676-20.9339C93.6612-16.544 91.0784-12.7928 87.7307-9.44505C84.4999-6.20296 80.6311-3.62021 76.2412-1.6855C71.9802 0.12099 67.3245 1.02423 62.2866 1.02423Z"/>
   <path class="multicolor-1:systemBlueColor hierarchical-1:primary SFSymbolsPreview007AFF" d="M62.2866-56.4864L63.8178-59.0384C64.711-60.5696 66.7526-61.2076 68.2838-60.3144C69.815-59.4212 70.453-57.3796 69.5598-55.8484L55.2686-31.2216L65.4766-31.2216C68.7942-31.2216 70.7082-27.266 69.177-24.5864L39.2023-24.5864C37.4159-24.5864 35.8847-26.1176 35.8847-27.904C35.8847-29.6904 37.4159-31.2216 39.2023-31.2216L47.6239-31.2216L58.4586-49.8506L55.141-55.7202C54.2478-57.2514 54.7582-59.293 56.417-60.1862C57.9482-61.0794 59.9898-60.569 60.883-58.9102L62.2866-56.4864L62.2866-56.4864ZM49.5266-21.1519L46.3366-15.6651C45.4434-14.1339 43.4018-13.4959 41.8706-14.3891C40.3394-15.2823 39.7014-17.3239 40.5946-18.8551L43.019-22.9383C45.5823-23.9484 47.7515-23.3104 49.5266-21.1519L49.5266-21.1519ZM76.833-31.2216L85.3822-31.2216C87.1686-31.2216 88.6998-29.6904 88.6998-27.904C88.6998-26.1176 87.1686-24.5864 85.3822-24.5864L80.661-24.5864L83.851-18.972C84.7442-17.4408 84.2338-15.3992 82.575-14.506C81.0438-13.6128 79.0022-14.1232 78.109-15.782C72.7498-25.2244 68.6666-32.2424 65.8594-36.9636C63.0522-41.6848 65.0938-46.5336 67.0078-48.1924C69.3046-44.2475 72.4946-38.6331 76.833-31.2216L76.833-31.2216Z"/>
  </g>
  <g id="Heavy-M" transform="matrix(1 0 0 1 2575.18 1126)">
   <path class="multicolor-0:tintColor hierarchical-0:secondary SFSymbolsPreview007AFF" d="M61.4516 17.6198C68.6843 17.6198 75.4499 16.2545 81.7894 13.4955C88.1339 10.7366 93.69 6.99015 98.5467 2.1053C103.398-2.74629 107.178-8.27415 109.909-14.6519C112.634-21.0297 114.033-27.7571 114.033-34.9898C114.033-42.2225 112.668-48.9549 109.909-55.3276C107.15-61.7054 103.403-67.2283 98.5134-72.0849C93.6618-76.9365 88.1339-80.7162 81.7561-83.4419C75.3784-86.2008 68.651-87.5661 61.4183-87.5661C54.1856-87.5661 47.4582-86.2008 41.0804-83.4419C34.7027-80.683 29.2131-76.9365 24.3565-72.0849C19.5049-67.2333 15.7251-61.7054 12.9995-55.3276C10.3299-48.8605 8.96455-42.1332 8.96455-34.9005C8.96455-27.6677 10.3299-20.9354 13.0888-14.5626C15.8477-8.18482 19.5942-2.66196 24.4458 2.19464C29.2974 7.04624 34.8253 10.826 41.203 13.5516C47.4915 16.188 54.2521 17.6198 61.4516 17.6198ZM61.4516 2.3246C56.3531 2.3246 51.5149 1.38813 46.9985-0.518068C42.4537-2.39101 38.5752-5.06781 35.0946-8.54848C31.7365-11.9066 29.0597-15.9026 27.0974-20.4524C25.2245-24.9971 24.1654-29.802 24.1654-34.9387C24.1654-40.0754 25.1019-44.8753 27.0642-49.4251C28.9371-53.9698 31.6139-57.8815 35.0613-61.329C38.4194-64.687 42.4155-67.3638 46.9652-69.3594C51.5099-71.2323 56.3199-72.2914 61.4183-72.2914C66.55-72.2914 71.3599-71.3549 75.9046-69.3594C80.4494-67.4532 84.3611-64.8096 87.8085-61.329C91.1666-57.9709 93.8434-53.9748 95.8389-49.4251C97.7451-44.8803 98.771-40.0704 98.771-34.9387C98.771-29.8071 97.8345-25.0021 95.8389-20.4524C93.966-15.9076 91.2892-11.9959 87.8418-8.54848C84.4837-5.15715 80.4876-2.48035 75.9429-0.484812C71.5158 1.38813 66.6776 2.3246 61.4516 2.3246Z"/>
   <path class="multicolor-1:systemBlueColor hierarchical-1:primary SFSymbolsPreview007AFF" d="M61.4516-56.2763L62.9828-58.8283C63.876-60.3595 65.9176-60.9975 67.4488-60.1043C68.98-59.2111 69.618-57.1695 68.7248-55.6383L54.4336-31.0115L64.6416-31.0115C67.9592-31.0115 69.8732-27.0559 68.342-24.3763L38.3892-24.3763C36.6028-24.3763 35.0716-25.9075 35.0716-27.6939C35.0716-29.4803 36.6028-31.0115 38.3892-31.0115L46.8108-31.0115L57.6236-49.6461L54.306-55.5157C53.4128-57.0469 53.9232-59.0885 55.582-59.9817C57.1132-60.8749 59.1548-60.3645 60.048-58.7057L61.4516-56.2763L61.4516-56.2763ZM48.6916-20.9694L45.5016-15.4826C44.6084-13.9514 42.5668-13.3134 41.0356-14.2066C39.5044-15.0998 38.8664-17.1414 39.7596-18.6726L42.184-22.7558C44.7692-23.7383 46.9384-23.1003 48.6916-20.9694L48.6916-20.9694ZM75.998-31.0115L84.5472-31.0115C86.3336-31.0115 87.8648-29.4803 87.8648-27.6939C87.8648-25.9075 86.3336-24.3763 84.5472-24.3763L79.826-24.3763L83.016-18.7619C83.9092-17.2307 83.3988-15.1891 81.74-14.2959C80.2088-13.4027 78.1672-13.9131 77.274-15.5719C71.9148-25.0143 67.8316-32.0323 65.0244-36.7535C62.2172-41.4747 64.2588-46.3235 66.1728-47.9823C68.4696-44.065 71.6596-38.4506 75.998-31.0115L75.998-31.0115Z"/>
  </g>
  <g id="Bold-M" transform="matrix(1 0 0 1 2279.4 1126)">
   <path class="multicolor-0:tintColor hierarchical-0:secondary SFSymbolsPreview007AFF" d="M60.5175 16.6786C67.6078 16.6786 74.2682 15.3441 80.4654 12.6287C86.6738 9.91323 92.1739 6.2348 96.9316 1.43058C101.678-3.3158 105.414-8.76933 108.083-15.0356C110.741-21.3019 112.133-27.8931 112.133-34.9835C112.133-42.0738 110.799-48.6764 108.083-54.9314C105.368-61.1977 101.689-66.6399 96.8737-71.3976C92.1273-76.144 86.6738-79.8802 80.4075-82.5378C74.1412-85.2533 67.55-86.5878 60.4596-86.5878C53.3693-86.5878 46.778-85.2533 40.5118-82.5378C34.2455-79.8224 28.8611-76.144 24.1034-71.3976C19.357-66.6512 15.6208-61.1977 12.9631-54.9314C10.3061-48.6066 8.97167-42.0154 8.97167-34.925C8.97167-27.8347 10.3061-21.2321 13.0216-14.9771C15.737-8.71086 19.4155-3.26864 24.1619 1.48905C28.9082 6.23544 34.3618 9.97169 40.6281 12.6293C46.8359 15.2285 53.485 16.6786 60.5175 16.6786ZM60.5175 3.77924C55.2086 3.77924 50.1663 2.8056 45.4949 0.800499C40.7769-1.14678 36.7434-3.92879 33.1267-7.54554C29.6262-11.046 26.8442-15.1844 24.8385-19.9137C22.8912-24.6317 21.8013-29.6162 21.8013-34.9942C21.8013-40.3721 22.7749-45.3453 24.7806-50.0746C26.7279-54.7926 29.5099-58.8839 33.0688-62.4428C36.5693-65.9432 40.7078-68.7252 45.437-70.7888C50.155-72.7361 55.1508-73.826 60.4596-73.826C65.8263-73.826 70.8221-72.8524 75.5401-70.7888C80.2581-68.7837 84.3494-66.0595 87.9083-62.4428C91.4087-58.9423 94.1907-54.8039 96.2543-50.0746C98.2594-45.3566 99.2915-40.3608 99.2915-34.9942C99.2915-29.6275 98.3179-24.643 96.2543-19.9137C94.307-15.1957 91.525-11.1045 87.9661-7.54554C84.4656-3.98726 80.3272-1.20525 75.6092 0.858326C70.9962 2.8056 65.9539 3.77924 60.5175 3.77924Z"/>
   <path class="multicolor-1:systemBlueColor hierarchical-1:primary SFSymbolsPreview007AFF" d="M60.5175-56.0413L62.0487-58.5933C62.9419-60.1245 64.9835-60.7625 66.5147-59.8693C68.0459-58.9761 68.6839-56.9345 67.7907-55.4033L53.4995-30.7765L63.7075-30.7765C67.0251-30.7765 68.9391-26.8209 67.4079-24.1413L37.4797-24.1413C35.6933-24.1413 34.1621-25.6725 34.1621-27.4589C34.1621-29.2453 35.6933-30.7765 37.4797-30.7765L45.9013-30.7765L56.6895-49.4175L53.3719-55.2871C52.4787-56.8183 52.9891-58.8599 54.6479-59.7531C56.1791-60.6463 58.2207-60.1359 59.1139-58.4771L60.5175-56.0413L60.5175-56.0413ZM47.7575-20.7653L44.5675-15.2785C43.6743-13.7473 41.6327-13.1093 40.1015-14.0025C38.5703-14.8957 37.9323-16.9373 38.8255-18.4685L41.2499-22.5517C43.8597-23.5033 46.0289-22.8653 47.7575-20.7653L47.7575-20.7653ZM75.0639-30.7765L83.6131-30.7765C85.3995-30.7765 86.9307-29.2453 86.9307-27.4589C86.9307-25.6725 85.3995-24.1413 83.6131-24.1413L78.8919-24.1413L82.0819-18.5269C82.9751-16.9957 82.4647-14.9541 80.8059-14.0609C79.2747-13.1677 77.2331-13.6781 76.3399-15.3369C70.9807-24.7793 66.8975-31.7973 64.0903-36.5185C61.2831-41.2397 63.3247-46.0885 65.2387-47.7473C67.5355-43.8609 70.7255-38.2465 75.0639-30.7765L75.0639-30.7765Z"/>
  </g>
  <g id="Semibold-M" transform="matrix(1 0 0 1 1983.32 1126)">
   <path class="multicolor-0:tintColor hierarchical-0:secondary SFSymbolsPreview007AFF" d="M59.8735 16.0297C66.8657 16.0297 73.4536 14.7166 79.5526 12.0311C85.6672 9.34558 91.1286 5.71406 95.8181 0.965437C100.492-3.70842 104.198-9.11069 106.825-15.3001C109.435-21.4895 110.823-27.987 110.823-34.9792C110.823-41.9713 109.51-48.4844 106.825-54.6582C104.139-60.8476 100.508-66.2342 95.7433-70.9237C91.0695-75.5976 85.6672-79.3039 79.4778-81.9146C73.2884-84.6001 66.7909-85.9133 59.7988-85.9133C52.8066-85.9133 46.3091-84.6001 40.1197-81.9146C33.9303-79.2291 28.6184-75.5976 23.9289-70.9237C19.2551-66.2499 15.5488-60.8476 12.9381-54.6582C10.2898-48.4316 8.97658-41.9342 8.97658-34.942C8.97658-27.9498 10.2898-21.4367 12.9752-15.2629C15.6607-9.07351 19.2923-3.68688 23.9661 1.00262C28.64 5.67648 34.0422 9.38277 40.2317 11.9935C46.3839 14.567 52.9561 16.0297 59.8735 16.0297ZM59.8735 4.78207C54.4196 4.78207 49.2366 3.7828 44.4583 1.70951C39.6209-0.289016 35.4806-3.14356 31.77-6.85412C28.1714-10.4527 25.3169-14.6893 23.2812-19.5424C21.2826-24.3798 20.1714-29.4881 20.1714-35.0324C20.1714-40.5767 21.1707-45.6693 23.2064-50.5224C25.2049-55.3598 28.0595-59.5749 31.6953-63.2106C35.2939-66.8093 39.5305-69.6638 44.3835-71.7743C49.221-73.7728 54.3449-74.884 59.7988-74.884C65.3274-74.884 70.4513-73.8848 75.2887-71.7743C80.1262-69.701 84.3412-66.9212 87.977-63.2106C91.5756-59.612 94.4302-55.3754 96.5406-50.5224C98.6139-45.6849 99.6504-40.561 99.6504-35.0324C99.6504-29.5037 98.6511-24.3955 96.5406-19.5424C94.5421-14.705 91.6876-10.4899 88.0518-6.85412C84.4532-3.18074 80.2166-0.326201 75.3792 1.78428C70.638 3.7828 65.455 4.78207 59.8735 4.78207Z"/>
   <path class="multicolor-1:systemBlueColor hierarchical-1:primary SFSymbolsPreview007AFF" d="M59.8735-55.8793L61.4047-58.4313C62.2979-59.9625 64.3395-60.6005 65.8707-59.7073C67.4019-58.8141 68.0399-56.7725 67.1467-55.2413L52.8555-30.6145L63.0635-30.6145C66.3811-30.6145 68.2951-26.6589 66.7639-23.9793L36.8527-23.9793C35.0663-23.9793 33.5351-25.5105 33.5351-27.2969C33.5351-29.0833 35.0663-30.6145 36.8527-30.6145L45.2743-30.6145L56.0455-49.2598L52.7279-55.1294C51.8347-56.6606 52.3451-58.7022 54.0039-59.5954C55.5351-60.4886 57.5767-59.9782 58.4699-58.3194L59.8735-55.8793L59.8735-55.8793ZM47.1135-20.6246L43.9235-15.1378C43.0303-13.6066 40.9887-12.9686 39.4575-13.8618C37.9263-14.755 37.2883-16.7966 38.1815-18.3278L40.6059-22.411C43.2327-23.3413 45.4019-22.7033 47.1135-20.6246L47.1135-20.6246ZM74.4199-30.6145L82.9691-30.6145C84.7555-30.6145 86.2867-29.0833 86.2867-27.2969C86.2867-25.5105 84.7555-23.9793 82.9691-23.9793L78.2479-23.9793L81.4379-18.3649C82.3311-16.8337 81.8207-14.7921 80.1619-13.8989C78.6307-13.0057 76.5891-13.5161 75.6959-15.1749C70.3367-24.6173 66.2535-31.6353 63.4463-36.3565C60.6391-41.0777 62.6807-45.9265 64.5947-47.5853C66.8915-43.7202 70.0815-38.1058 74.4199-30.6145L74.4199-30.6145Z"/>
  </g>
  <g id="Medium-M" transform="matrix(1 0 0 1 1687.09 1126)">
   <path class="multicolor-0:tintColor hierarchical-0:secondary SFSymbolsPreview007AFF" d="M59.3853 15.5378C66.303 15.5378 72.8359 14.2407 78.8605 11.5779C84.904 8.91517 90.3361 5.31922 94.9739 0.612743C99.5927-4.00612 103.276-9.36953 105.87-15.5007C108.446-21.6318 109.83-28.0581 109.83-34.9759C109.83-41.8936 108.533-48.3389 105.87-54.4511C103.208-60.5822 99.6117-65.9267 94.8862-70.5645C90.2674-75.1833 84.904-78.8669 78.7728-81.442C72.6417-84.1048 66.2154-85.4019 59.2976-85.4019C52.3799-85.4019 45.9536-84.1048 39.8224-81.442C33.6913-78.7793 28.4345-75.1833 23.7966-70.5645C19.1778-65.9456 15.4942-60.5822 12.9191-54.4511C10.2773-48.2989 8.9803-41.8726 8.9803-34.9548C8.9803-28.037 10.2773-21.5918 12.9401-15.4796C15.6029-9.34849 19.1988-4.00401 23.8177 0.633791C28.4366 5.25265 33.8 8.93622 39.9311 11.5114C46.0412 14.0655 52.5551 15.5378 59.3853 15.5378ZM59.3853 5.54245C53.8214 5.54245 48.5316 4.52376 43.6723 2.39876C38.7444 0.361376 34.523-2.54816 30.7413-6.32985C27.0683-10.0029 24.1588-14.3139 22.1003-19.2608C20.063-24.1888 18.9356-29.3909 18.9356-35.0614C18.9356-40.7318 19.9543-45.915 22.0127-50.8619C24.0501-55.7899 26.9597-60.0988 30.6537-63.7929C34.3268-67.4659 38.6378-70.3754 43.5847-72.5215C48.5127-74.5589 53.7338-75.6862 59.2976-75.6862C64.9491-75.6862 70.1702-74.6675 75.0982-72.5215C80.0262-70.3965 84.3351-67.5746 88.0292-63.7929C91.7022-60.1198 94.6117-55.8088 96.7578-50.8619C98.8828-45.9339 99.9225-40.7128 99.9225-35.0614C99.9225-29.4099 98.9038-24.2078 96.7578-19.2608C94.7204-14.3329 91.8108-10.0239 88.1168-6.32985C84.4437-2.56921 80.1327 0.340328 75.2047 2.48637C70.3665 4.52376 65.0767 5.54245 59.3853 5.54245Z"/>
   <path class="multicolor-1:systemBlueColor hierarchical-1:primary SFSymbolsPreview007AFF" d="M59.3853-55.7565L60.9165-58.3085C61.8097-59.8397 63.8513-60.4777 65.3825-59.5845C66.9137-58.6913 67.5517-56.6497 66.6585-55.1185L52.3673-30.4917L62.5753-30.4917C65.8929-30.4917 67.8069-26.5361 66.2757-23.8565L36.3773-23.8565C34.5909-23.8565 33.0597-25.3877 33.0597-27.1741C33.0597-28.9605 34.5909-30.4917 36.3773-30.4917L44.7989-30.4917L55.5573-49.1403L52.2397-55.0099C51.3465-56.5411 51.8569-58.5827 53.5157-59.4759C55.0469-60.3691 57.0885-59.8587 57.9817-58.1999L59.3853-55.7565L59.3853-55.7565ZM46.6253-20.5179L43.4353-15.0311C42.5421-13.4999 40.5005-12.8619 38.9693-13.7551C37.4381-14.6483 36.8001-16.6899 37.6933-18.2211L40.1177-22.3043C42.7573-23.2185 44.9265-22.5805 46.6253-20.5179L46.6253-20.5179ZM73.9317-30.4917L82.4809-30.4917C84.2673-30.4917 85.7985-28.9605 85.7985-27.1741C85.7985-25.3877 84.2673-23.8565 82.4809-23.8565L77.7597-23.8565L80.9497-18.2421C81.8429-16.7109 81.3325-14.6693 79.6737-13.7761C78.1425-12.8829 76.1009-13.3933 75.2077-15.0521C69.8485-24.4945 65.7653-31.5125 62.9581-36.2337C60.1509-40.9549 62.1925-45.8037 64.1065-47.4625C66.4033-43.6135 69.5933-37.9991 73.9317-30.4917L73.9317-30.4917Z"/>
  </g>
  <g id="Regular-M" transform="matrix(1 0 0 1 1391.01 1126)">
   <path class="multicolor-0:tintColor hierarchical-0:secondary SFSymbolsPreview007AFF" d="M58.7484 14.896C65.5691 14.896 72.0302 13.62 77.9577 10.9869C83.9084 8.35377 89.3023 4.8042 93.8726 0.152708C98.4198-4.39442 102.074-9.70715 104.626-15.7622C107.154-21.8173 108.535-28.1509 108.535-34.9716C108.535-41.7923 107.259-48.149 104.626-54.1809C101.993-60.236 98.443-65.5255 93.7683-70.0958C89.2212-74.643 83.9084-78.2969 77.8533-80.8257C71.7982-83.4588 65.4647-84.7348 58.644-84.7348C51.8233-84.7348 45.4898-83.4588 39.4347-80.8257C33.3796-78.1925 28.1945-74.643 23.6241-70.0958C19.077-65.5487 15.423-60.236 12.8943-54.1809C10.2612-48.1258 8.98515-41.7923 8.98515-34.9716C8.98515-28.1509 10.2612-21.7941 12.8943-15.7622C15.5274-9.70715 19.077-4.41766 23.6241 0.152708C28.1712 4.69984 33.484 8.35377 39.5391 10.8825C45.5942 13.4113 52.032 14.896 58.7484 14.896ZM58.7484 6.53425C53.041 6.53425 47.6121 5.49022 42.6472 3.29778C37.601 1.20971 33.2741-1.77156 29.3996-5.64603C25.6295-9.41613 22.6482-13.8242 20.5602-18.8936C18.4721-23.9397 17.3237-29.2642 17.3237-35.0992C17.3237-40.9341 18.3677-46.2354 20.4558-51.3048C22.5439-56.3509 25.5251-60.7822 29.2952-64.5523C33.0653-68.3224 37.4734-71.3037 42.5428-73.4961C47.5889-75.5842 52.9367-76.7326 58.644-76.7326C64.4557-76.7326 69.8035-75.6885 74.8496-73.4961C79.8957-71.3037 84.327-68.4268 88.0972-64.5523C91.8673-60.7822 94.8485-56.3741 97.041-51.3048C99.2334-46.2586 100.277-40.9109 100.277-35.0992C100.277-29.2875 99.2334-23.9629 97.041-18.8936C94.9529-13.8475 91.9716-9.41613 88.2015-5.64603C84.4314-1.77156 80.0233 1.20971 74.9772 3.40215C70.0122 5.49022 64.5833 6.53425 58.7484 6.53425Z"/>
   <path class="multicolor-1:systemBlueColor hierarchical-1:primary SFSymbolsPreview007AFF" d="M58.7484-55.5963L60.2796-58.1483C61.1728-59.6795 63.2144-60.3175 64.7456-59.4243C66.2768-58.5311 66.9148-56.4895 66.0216-54.9583L51.7304-30.3315L61.9384-30.3315C65.256-30.3315 67.17-26.3759 65.6388-23.6963L35.7571-23.6963C33.9707-23.6963 32.4395-25.2275 32.4395-27.0139C32.4395-28.8003 33.9707-30.3315 35.7571-30.3315L44.1787-30.3315L54.9204-48.9843L51.6028-54.8539C50.7096-56.3851 51.22-58.4267 52.8788-59.3199C54.41-60.2131 56.4516-59.7027 57.3448-58.0439L58.7484-55.5963L58.7484-55.5963ZM45.9884-20.3787L42.7984-14.8919C41.9052-13.3607 39.8636-12.7227 38.3324-13.6159C36.8012-14.5091 36.1632-16.5507 37.0564-18.0819L39.4808-22.1651C42.1371-23.0583 44.3063-22.4203 45.9884-20.3787L45.9884-20.3787ZM73.2948-30.3315L81.844-30.3315C83.6304-30.3315 85.1616-28.8003 85.1616-27.0139C85.1616-25.2275 83.6304-23.6963 81.844-23.6963L77.1228-23.6963L80.3128-18.0819C81.206-16.5507 80.6956-14.5091 79.0368-13.6159C77.5056-12.7227 75.464-13.2331 74.5708-14.8919C69.2116-24.3343 65.1284-31.3523 62.3212-36.0735C59.514-40.7947 61.5556-45.6435 63.4696-47.3023C65.7664-43.4743 68.9564-37.8599 73.2948-30.3315L73.2948-30.3315Z"/>
  </g>
  <g id="Light-M" transform="matrix(1 0 0 1 1095.11 1126)">
   <path class="multicolor-0:tintColor hierarchical-0:secondary SFSymbolsPreview007AFF" d="M57.9435 14.067C64.6512 14.067 71.0369 12.791 76.8514 10.2333C82.7267 7.67551 87.9699 4.16362 92.5026-0.374828C96.9743-4.8466 100.553-10.084 103.105-16.026C105.596-21.9681 106.939-28.2262 106.939-34.9339C106.939-41.6415 105.663-47.9606 103.105-53.8418C100.547-59.7838 97.0352-64.9603 92.4359-69.4929C87.9641-73.9647 82.7267-77.5433 76.7847-80.0344C70.8426-82.5921 64.5845-83.8681 57.8768-83.8681C51.1692-83.8681 44.911-82.5921 38.969-80.0344C33.0269-77.4766 27.9171-73.9647 23.3845-69.4929C18.9127-65.0212 15.3341-59.7838 12.843-53.8418C10.2853-47.8997 9.00927-41.6415 9.00927-34.9339C9.00927-28.2262 10.2853-21.9071 12.843-16.026C15.4008-10.084 18.9127-4.90751 23.3845-0.374828C27.8562 4.09694 33.0936 7.67551 39.0356 10.1666C44.9777 12.6577 51.3025 14.067 57.9435 14.067ZM57.9435 7.66469C52.0854 7.66469 46.5435 6.58297 41.3901 4.35286C36.231 2.18942 31.7156-0.867208 27.7657-4.81704C23.8826-8.70019 20.826-13.2213 18.6625-18.4414C16.4991-23.6006 15.3507-29.0758 15.3507-35.0615C15.3507-41.0471 16.4324-46.4615 18.5959-51.6816C20.7593-56.8407 23.8159-61.4228 27.6991-65.3059C31.5822-69.1891 36.1034-72.2457 41.3234-74.4758C46.4826-76.6393 52.0188-77.7877 57.8768-77.7877C63.8016-77.7877 69.3378-76.7059 74.4969-74.4758C79.6561-72.2457 84.2381-69.2558 88.1213-65.3059C92.0044-61.4228 95.061-56.9016 97.2912-51.6816C99.5213-46.5224 100.603-40.9862 100.603-35.0615C100.603-29.1367 99.5213-23.6615 97.2912-18.4414C95.1277-13.2823 92.0711-8.70019 88.188-4.81704C84.3048-0.867208 79.7837 2.18942 74.6245 4.41954C69.4711 6.58297 63.9292 7.66469 57.9435 7.66469Z"/>
   <path class="multicolor-1:systemBlueColor hierarchical-1:primary SFSymbolsPreview007AFF" d="M57.9435-55.4833L59.4747-58.0353C60.3679-59.5665 62.4095-60.2045 63.9407-59.3113C65.4719-58.4181 66.1099-56.3765 65.2167-54.8453L50.9255-30.2185L61.1335-30.2185C64.4511-30.2185 66.3651-26.2629 64.8339-23.5833L34.9146-23.5833C33.1282-23.5833 31.597-25.1145 31.597-26.9009C31.597-28.6873 33.1282-30.2185 34.9146-30.2185L43.3362-30.2185L54.1155-48.909L50.7979-54.7786C49.9047-56.3098 50.4151-58.3514 52.0739-59.2446C53.6051-60.1378 55.6467-59.6274 56.5399-57.9686L57.9435-55.4833L57.9435-55.4833ZM45.1835-20.2657L41.9935-14.7789C41.1003-13.2477 39.0587-12.6097 37.5275-13.5029C35.9963-14.3961 35.3583-16.4377 36.2515-17.9689L38.6759-22.0521C41.2946-22.9453 43.4638-22.3073 45.1835-20.2657L45.1835-20.2657ZM72.4899-30.2185L81.0391-30.2185C82.8255-30.2185 84.3567-28.6873 84.3567-26.9009C84.3567-25.1145 82.8255-23.5833 81.0391-23.5833L76.3179-23.5833L79.5079-17.9689C80.4011-16.4377 79.8907-14.3961 78.2319-13.5029C76.7007-12.6097 74.6591-13.1201 73.7659-14.7789C68.4067-24.2213 64.3235-31.2393 61.5163-35.9605C58.7091-40.6817 60.7507-45.5305 62.6647-47.1893C64.9615-43.3613 68.1515-37.7469 72.4899-30.2185L72.4899-30.2185Z"/>
  </g>
  <g id="Thin-M" transform="matrix(1 0 0 1 799.469 1126)">
   <path class="multicolor-0:tintColor hierarchical-0:secondary SFSymbolsPreview007AFF" d="M56.879 12.9706C63.4371 12.9706 69.7232 11.6946 75.3882 9.23655C81.1639 6.77845 86.2077 3.3164 90.6905-1.07254C95.0626-5.44463 98.5415-10.5823 101.094-16.3749C103.535-22.1674 104.828-28.3259 104.828-34.884C104.828-41.4422 103.552-47.7114 101.094-53.3932C98.6354-59.1858 95.1734-64.2127 90.6737-68.6956C86.3016-73.0677 81.1639-76.5465 75.3713-78.9878C69.5788-81.4459 63.4203-82.7219 56.8622-82.7219C50.304-82.7219 44.1455-81.4459 38.353-78.9878C32.5604-76.5297 27.5503-73.0677 23.0675-68.6956C18.6954-64.3235 15.2165-59.1858 12.7753-53.3932C10.3172-47.6007 9.04116-41.4422 9.04116-34.884C9.04116-28.3259 10.3172-22.0567 12.7753-16.3749C15.2334-10.5823 18.6954-5.55538 23.0675-1.07254C27.4396 3.29956 32.5773 6.77845 38.3698 9.2197C44.1624 11.6609 50.3377 12.9706 56.879 12.9706ZM56.879 9.15978C50.8216 9.15978 45.1301 8.02823 39.7276 5.74828C34.4189 3.48517 29.6543 0.328865 25.6048-3.72064C21.5722-7.7533 18.4159-12.424 16.1528-17.8434C13.8897-23.152 12.7413-28.8266 12.7413-35.0116C12.7413-41.1967 13.8728-46.7605 16.1359-52.1799C18.399-57.4886 21.5553-62.27 25.588-66.3027C29.6207-70.3353 34.2913-73.4916 39.7107-75.7716C45.0194-78.0347 50.8047-79.1831 56.8622-79.1831C62.9364-79.1831 68.7218-78.0515 74.0304-75.7716C79.3391-73.4916 84.1205-70.3522 88.1532-66.3027C92.1858-62.27 95.3421-57.5993 97.6221-52.1799C99.902-46.8713 101.034-41.0859 101.034-35.0116C101.034-28.9374 99.902-23.2628 97.6221-17.8434C95.359-12.5347 92.2027-7.7533 88.17-3.72064C84.1374 0.328865 79.4667 3.48517 74.158 5.76512C68.7555 8.02823 63.064 9.15978 56.879 9.15978Z"/>
   <path class="multicolor-1:systemBlueColor hierarchical-1:primary SFSymbolsPreview007AFF" d="M56.879-55.3337L58.4102-57.8857C59.3034-59.4169 61.345-60.0549 62.8762-59.1617C64.4074-58.2685 65.0454-56.2269 64.1522-54.6957L49.861-30.0689L60.069-30.0689C63.3866-30.0689 65.3006-26.1133 63.7694-23.4337L33.8002-23.4337C32.0138-23.4337 30.4826-24.9649 30.4826-26.7513C30.4826-28.5377 32.0138-30.0689 33.8002-30.0689L42.2218-30.0689L53.051-48.8093L49.7334-54.6789C48.8402-56.2101 49.3506-58.2517 51.0094-59.1449C52.5406-60.0381 54.5822-59.5277 55.4754-57.8689L56.879-55.3337L56.879-55.3337ZM44.119-20.1161L40.929-14.6293C40.0358-13.0981 37.9942-12.4601 36.463-13.3533C34.9318-14.2465 34.2938-16.2881 35.187-17.8193L37.6114-21.9025C40.1802-22.7957 42.3494-22.1577 44.119-20.1161L44.119-20.1161ZM71.4254-30.0689L79.9746-30.0689C81.761-30.0689 83.2922-28.5377 83.2922-26.7513C83.2922-24.9649 81.761-23.4337 79.9746-23.4337L75.2534-23.4337L78.4434-17.8193C79.3366-16.2881 78.8262-14.2465 77.1674-13.3533C75.6362-12.4601 73.5946-12.9705 72.7014-14.6293C67.3422-24.0717 63.259-31.0897 60.4518-35.8109C57.6446-40.5321 59.6862-45.3809 61.6002-47.0397C63.897-43.2117 67.087-37.5973 71.4254-30.0689L71.4254-30.0689Z"/>
  </g>
  <g id="Ultralight-M" transform="matrix(1 0 0 1 503.307 1126)">
   <path class="multicolor-0:tintColor hierarchical-0:secondary SFSymbolsPreview007AFF" d="M56.3338 12.4091C62.8153 12.4091 69.0504 11.1331 74.6387 8.72603C80.3634 6.31898 85.3051 2.88246 89.7624-1.4299C94.0834-5.75094 97.5113-10.8376 100.063-16.5536C102.479-22.2695 103.746-28.377 103.746-34.8585C103.746-41.3401 102.47-47.5838 100.063-53.1635C97.6562-58.8795 94.2197-63.8298 89.7711-68.2871C85.45-72.6082 80.3634-76.036 74.6474-78.4517C68.9315-80.8588 62.824-82.1348 56.3424-82.1348C49.8609-82.1348 43.7534-80.8588 38.0375-78.4517C32.3215-76.0447 27.3625-72.6082 22.9051-68.2871C18.5841-63.9661 15.1563-58.8795 12.7405-53.1635C10.3335-47.4475 9.0575-41.3401 9.0575-34.8585C9.0575-28.377 10.3335-22.1332 12.7405-16.5536C15.1476-10.8376 18.5841-5.88722 22.9051-1.4299C27.2262 2.89114 32.3128 6.31898 38.0288 8.73471C43.7448 11.1504 49.8435 12.4091 56.3338 12.4091ZM56.3338 9.92556C50.1743 9.92556 44.4062 8.76848 38.876 6.463C33.4908 4.14884 28.5986 0.941487 24.498-3.15907C20.3888-7.26831 17.1814-12.0155 14.8673-17.5371C12.5531-22.9223 11.4047-28.699 11.4047-34.9861C11.4047-41.2732 12.5618-46.9137 14.876-52.4352C17.1901-57.8204 20.3975-62.7039 24.5067-66.8132C28.616-70.9224 33.3632-74.1298 38.8847-76.4352C44.2699-78.7494 50.1829-79.8978 56.3424-79.8978C62.4933-79.8978 68.4063-78.7407 73.7915-76.4352C79.1767-74.1298 84.0603-70.9137 88.1695-66.8132C92.2787-62.7039 95.4861-57.9567 97.7916-52.4352C100.097-47.05 101.254-41.137 101.254-34.9861C101.254-28.8353 100.097-23.0586 97.7916-17.5371C95.4774-12.1518 92.2701-7.26831 88.1608-3.15907C84.0516 0.941487 79.3043 4.14884 73.9191 6.45432C68.3889 8.76848 62.6209 9.92556 56.3338 9.92556Z"/>
   <path class="multicolor-1:systemBlueColor hierarchical-1:primary SFSymbolsPreview007AFF" d="M56.3338-55.2572L57.865-57.8092C58.7582-59.3404 60.7998-59.9784 62.331-59.0852C63.8622-58.192 64.5002-56.1504 63.607-54.6192L49.3158-29.9924L59.5238-29.9924C62.8414-29.9924 64.7554-26.0368 63.2242-23.3572L33.2295-23.3572C31.4431-23.3572 29.9119-24.8884 29.9119-26.6748C29.9119-28.4612 31.4431-29.9924 33.2295-29.9924L41.6511-29.9924L52.5058-48.7582L49.1882-54.6278C48.295-56.159 48.8054-58.2006 50.4642-59.0938C51.9954-59.987 54.037-59.4766 54.9302-57.8178L56.3338-55.2572L56.3338-55.2572ZM43.5738-20.0396L40.3838-14.5528C39.4906-13.0216 37.449-12.3836 35.9178-13.2768C34.3866-14.17 33.7486-16.2116 34.6418-17.7428L37.0662-21.826C39.6095-22.7192 41.7787-22.0812 43.5738-20.0396L43.5738-20.0396ZM70.8802-29.9924L79.4294-29.9924C81.2158-29.9924 82.747-28.4612 82.747-26.6748C82.747-24.8884 81.2158-23.3572 79.4294-23.3572L74.7082-23.3572L77.8982-17.7428C78.7914-16.2116 78.281-14.17 76.6222-13.2768C75.091-12.3836 73.0494-12.894 72.1562-14.5528C66.797-23.9952 62.7138-31.0132 59.9066-35.7344C57.0994-40.4556 59.141-45.3044 61.055-46.9632C63.3518-43.1352 66.5418-37.5208 70.8802-29.9924L70.8802-29.9924Z"/>
  </g>
  <g id="Black-S" transform="matrix(1 0 0 1 2884.35 696)">
   <path class="multicolor-0:tintColor hierarchical-0:secondary SFSymbolsPreview007AFF" d="M49.02 7.05C54.82 7.05 60.22 5.95 65.32 3.75C70.42 1.55 74.82-1.45 78.72-5.35C82.62-9.25 85.62-13.65 87.82-18.75C90.02-23.85 91.12-29.25 91.12-35.05C91.12-40.85 90.02-46.25 87.82-51.35C85.62-56.45 82.62-60.85 78.72-64.75C74.82-68.65 70.42-71.65 65.32-73.85C60.22-76.05 54.82-77.15 49.02-77.15C43.22-77.15 37.82-76.05 32.72-73.85C27.62-71.65 23.22-68.65 19.32-64.75C15.42-60.85 12.42-56.45 10.22-51.35C8.12-46.15 7.02-40.75 7.02-34.95C7.02-29.15 8.12-23.75 10.32-18.65C12.52-13.55 15.52-9.15 19.42-5.25C23.32-1.35 27.72 1.65 32.82 3.85C37.82 5.95 43.22 7.05 49.02 7.05ZM49.02-7.15C45.22-7.15 41.62-7.85 38.22-9.25C34.82-10.65 31.92-12.65 29.32-15.25C26.82-17.75 24.82-20.75 23.32-24.15C21.92-27.55 21.12-31.15 21.12-34.95C21.12-38.75 21.82-42.35 23.32-45.75C24.72-49.15 26.72-52.05 29.32-54.65C31.82-57.15 34.82-59.15 38.22-60.65C41.62-62.05 45.22-62.85 49.02-62.85C52.82-62.85 56.42-62.15 59.82-60.65C63.22-59.25 66.12-57.25 68.72-54.65C71.22-52.15 73.22-49.15 74.72-45.75C76.12-42.35 76.92-38.75 76.92-34.95C76.92-31.15 76.22-27.55 74.72-24.15C73.32-20.75 71.32-17.85 68.72-15.25C66.22-12.75 63.22-10.75 59.82-9.25C56.52-7.85 52.92-7.15 49.02-7.15Z"/>
   <path class="multicolor-1:systemBlueColor hierarchical-1:primary SFSymbolsPreview007AFF" d="M49.02-51.95L50.22-53.95C50.92-55.15 52.52-55.65 53.72-54.95C54.92-54.25 55.42-52.65 54.72-51.45L43.52-32.15L51.52-32.15C54.12-32.15 55.62-29.05 54.42-26.95L30.92-26.95C29.52-26.95 28.32-28.15 28.32-29.55C28.32-30.95 29.52-32.15 30.92-32.15L37.52-32.15L46.02-46.75L43.42-51.35C42.72-52.55 43.12-54.15 44.42-54.85C45.62-55.55 47.22-55.15 47.92-53.85L49.02-51.95L49.02-51.95ZM39.02-24.25L36.52-19.95C35.82-18.75 34.22-18.25 33.02-18.95C31.82-19.65 31.32-21.25 32.02-22.45L33.92-25.65C35.92-26.45 37.62-25.95 39.02-24.25L39.02-24.25ZM60.42-32.15L67.12-32.15C68.52-32.15 69.72-30.95 69.72-29.55C69.72-28.15 68.52-26.95 67.12-26.95L63.42-26.95L65.92-22.55C66.62-21.35 66.22-19.75 64.92-19.05C63.72-18.35 62.12-18.75 61.42-20.05C57.22-27.45 54.02-32.95 51.82-36.65C49.62-40.35 51.22-44.15 52.72-45.45C54.52-42.35 57.02-37.95 60.42-32.15L60.42-32.15Z"/>
  </g>
  <g id="Heavy-S" transform="matrix(1 0 0 1 2588.24 696)">
   <path class="multicolor-0:tintColor hierarchical-0:secondary SFSymbolsPreview007AFF" d="M48.4087 6.43635C54.1143 6.43635 59.4435 5.35995 64.4491 3.18355C69.4547 1.00715 73.8311-1.94564 77.6603-5.79844C81.4895-9.62763 84.4659-13.9804 86.6187-19.0096C88.7714-24.0388 89.8714-29.3444 89.8714-35.05C89.8714-40.7556 88.7951-46.0612 86.6187-51.0904C84.4423-56.1196 81.4895-60.4724 77.6367-64.3016C73.8075-68.1308 69.4547-71.1072 64.4255-73.2599C59.3963-75.4363 54.0907-76.5127 48.3851-76.5127C42.6795-76.5127 37.3739-75.4363 32.3447-73.2599C27.3155-71.0835 22.9863-68.1308 19.1571-64.3016C15.328-60.4724 12.3516-56.1196 10.1988-51.0904C8.09876-45.9848 7.02236-40.6792 7.02236-34.9736C7.02236-29.268 8.09876-23.9624 10.2752-18.9332C12.4516-13.904 15.4043-9.55124 19.2335-5.72204C23.0627-1.89285 27.4155 1.08355 32.4447 3.23635C37.3975 5.31274 42.7267 6.43635 48.4087 6.43635ZM48.4087-6.18231C44.4671-6.18231 40.7255-6.90592 37.2311-8.37672C33.7131-9.82393 30.7187-11.8947 28.0242-14.5891C25.4298-17.1835 23.359-20.278 21.8354-23.796C20.3882-27.314 19.5646-31.032 19.5646-34.9972C19.5646-38.9624 20.2882-42.6804 21.8118-46.1984C23.259-49.7165 25.3298-52.7345 28.0006-55.4053C30.5951-57.9997 33.6895-60.0705 37.2075-61.6177C40.7255-63.0649 44.4435-63.8885 48.3851-63.8885C52.3503-63.8885 56.0683-63.1649 59.5863-61.6177C63.1043-60.1469 66.1224-58.0997 68.7932-55.4053C71.3876-52.8109 73.4584-49.7165 75.0056-46.1984C76.4764-42.6804 77.2764-38.9624 77.2764-34.9972C77.2764-31.032 76.5528-27.314 75.0056-23.796C73.5584-20.278 71.4876-17.2599 68.8168-14.5891C66.2224-11.9711 63.128-9.90032 59.6099-8.35312C56.1919-6.90592 52.4503-6.18231 48.4087-6.18231Z"/>
   <path class="multicolor-1:systemBlueColor hierarchical-1:primary SFSymbolsPreview007AFF" d="M48.4087-51.7848L49.6087-53.7848C50.3087-54.9848 51.9087-55.4848 53.1087-54.7848C54.3087-54.0848 54.8087-52.4848 54.1087-51.2848L42.9087-31.9848L50.9087-31.9848C53.5087-31.9848 55.0087-28.8848 53.8087-26.7848L30.3323-26.7848C28.9323-26.7848 27.7323-27.9848 27.7323-29.3848C27.7323-30.7848 28.9323-31.9848 30.3323-31.9848L36.9323-31.9848L45.4087-46.5848L42.8087-51.1848C42.1087-52.3848 42.5087-53.9848 43.8087-54.6848C45.0087-55.3848 46.6087-54.9848 47.3087-53.6848L48.4087-51.7848L48.4087-51.7848ZM38.4087-24.1084L35.9087-19.8084C35.2087-18.6084 33.6087-18.1084 32.4087-18.8084C31.2087-19.5084 30.7087-21.1084 31.4087-22.3084L33.3087-25.5084C35.3323-26.2848 37.0323-25.7848 38.4087-24.1084L38.4087-24.1084ZM59.8087-31.9848L66.5087-31.9848C67.9087-31.9848 69.1087-30.7848 69.1087-29.3848C69.1087-27.9848 67.9087-26.7848 66.5087-26.7848L62.8087-26.7848L65.3087-22.3848C66.0087-21.1848 65.6087-19.5848 64.3087-18.8848C63.1087-18.1848 61.5087-18.5848 60.8087-19.8848C56.6087-27.2848 53.4087-32.7848 51.2087-36.4848C49.0087-40.1848 50.6087-43.9848 52.1087-45.2848C53.9087-42.2084 56.4087-37.8084 59.8087-31.9848L59.8087-31.9848Z"/>
  </g>
  <g id="Bold-S" transform="matrix(1 0 0 1 2292.2 696)">
   <path class="multicolor-0:tintColor hierarchical-0:secondary SFSymbolsPreview007AFF" d="M47.725 5.75C53.325 5.75 58.575 4.7 63.475 2.55C68.375 0.4 72.725-2.5 76.475-6.3C80.225-10.05 83.175-14.35 85.275-19.3C87.375-24.25 88.475-29.45 88.475-35.05C88.475-40.65 87.425-45.85 85.275-50.8C83.125-55.75 80.225-60.05 76.425-63.8C72.675-67.55 68.375-70.5 63.425-72.6C58.475-74.75 53.275-75.8 47.675-75.8C42.075-75.8 36.875-74.75 31.925-72.6C26.975-70.45 22.725-67.55 18.975-63.8C15.225-60.05 12.275-55.75 10.175-50.8C8.075-45.8 7.025-40.6 7.025-35C7.025-29.4 8.075-24.2 10.225-19.25C12.375-14.3 15.275-10 19.025-6.25C22.775-2.5 27.075 0.45 32.025 2.55C36.925 4.6 42.175 5.75 47.725 5.75ZM47.725-5.1C43.625-5.1 39.725-5.85 36.125-7.4C32.475-8.9 29.375-11.05 26.575-13.85C23.875-16.55 21.725-19.75 20.175-23.4C18.675-27.05 17.825-30.9 17.825-35.05C17.825-39.2 18.575-43.05 20.125-46.7C21.625-50.35 23.775-53.5 26.525-56.25C29.225-58.95 32.425-61.1 36.075-62.7C39.725-64.2 43.575-65.05 47.675-65.05C51.825-65.05 55.675-64.3 59.325-62.7C62.975-61.15 66.125-59.05 68.875-56.25C71.575-53.55 73.725-50.35 75.325-46.7C76.875-43.05 77.675-39.2 77.675-35.05C77.675-30.9 76.925-27.05 75.325-23.4C73.825-19.75 71.675-16.6 68.925-13.85C66.225-11.1 63.025-8.95 59.375-7.35C55.825-5.85 51.925-5.1 47.725-5.1Z"/>
   <path class="multicolor-1:systemBlueColor hierarchical-1:primary SFSymbolsPreview007AFF" d="M47.725-51.6L48.925-53.6C49.625-54.8 51.225-55.3 52.425-54.6C53.625-53.9 54.125-52.3 53.425-51.1L42.225-31.8L50.225-31.8C52.825-31.8 54.325-28.7 53.125-26.6L29.675-26.6C28.275-26.6 27.075-27.8 27.075-29.2C27.075-30.6 28.275-31.8 29.675-31.8L36.275-31.8L44.725-46.4L42.125-51C41.425-52.2 41.825-53.8 43.125-54.5C44.325-55.2 45.925-54.8 46.625-53.5L47.725-51.6L47.725-51.6ZM37.725-23.95L35.225-19.65C34.525-18.45 32.925-17.95 31.725-18.65C30.525-19.35 30.025-20.95 30.725-22.15L32.625-25.35C34.675-26.1 36.375-25.6 37.725-23.95L37.725-23.95ZM59.125-31.8L65.825-31.8C67.225-31.8 68.425-30.6 68.425-29.2C68.425-27.8 67.225-26.6 65.825-26.6L62.125-26.6L64.625-22.2C65.325-21 64.925-19.4 63.625-18.7C62.425-18 60.825-18.4 60.125-19.7C55.925-27.1 52.725-32.6 50.525-36.3C48.325-40 49.925-43.8 51.425-45.1C53.225-42.05 55.725-37.65 59.125-31.8L59.125-31.8Z"/>
  </g>
  <g id="Semibold-S" transform="matrix(1 0 0 1 1995.96 696)">
   <path class="multicolor-0:tintColor hierarchical-0:secondary SFSymbolsPreview007AFF" d="M47.2536 5.2768C52.7808 5.2768 57.9762 4.245 62.8034 2.1132C67.6306-0.0186 71.9624-2.8822 75.6578-6.6458C79.3532-10.3412 82.285-14.6048 84.3486-19.5002C86.4122-24.3956 87.5122-29.5228 87.5122-35.05C87.5122-40.5772 86.4804-45.7044 84.3486-50.5998C82.2168-55.4952 79.3532-59.7588 75.5896-63.4542C71.8942-67.1496 67.6306-70.0814 62.7352-72.145C57.8398-74.2768 52.7126-75.3086 47.1854-75.3086C41.6582-75.3086 36.531-74.2768 31.6356-72.145C26.7402-70.0132 22.5448-67.1496 18.8494-63.4542C15.154-59.7588 12.2222-55.4952 10.1586-50.5998C8.05862-45.6726 7.02682-40.5454 7.02682-35.0182C7.02682-29.491 8.05862-24.3638 10.1904-19.4684C12.3222-14.573 15.1858-10.3094 18.8812-6.614C22.5766-2.9186 26.8402 0.0132 31.7356 2.0768C36.5992 4.1086 41.7946 5.2768 47.2536 5.2768ZM47.2536-4.3538C43.0444-4.3538 39.0352-5.122 35.3624-6.7266C31.6214-8.263 28.4486-10.4676 25.5758-13.3404C22.803-16.1132 20.5984-19.386 19.0302-23.127C17.4938-26.868 16.6256-30.809 16.6256-35.0864C16.6256-39.3638 17.3938-43.3048 18.962-47.0458C20.4984-50.7868 22.703-54.0278 25.5076-56.8324C28.2804-59.6052 31.5532-61.8098 35.2942-63.4462C39.0352-64.9826 42.9762-65.8508 47.1854-65.8508C51.4628-65.8508 55.4038-65.0826 59.1448-63.4462C62.8858-61.8416 66.1268-59.7052 68.9314-56.8324C71.7042-54.0596 73.9088-50.7868 75.5452-47.0458C77.1498-43.3048 77.9498-39.3638 77.9498-35.0864C77.9498-30.809 77.1816-26.868 75.5452-23.127C74.0088-19.386 71.8042-16.145 68.9996-13.3404C66.2268-10.4994 62.954-8.2948 59.213-6.6584C55.572-5.122 51.5628-4.3538 47.2536-4.3538Z"/>
   <path class="multicolor-1:systemBlueColor hierarchical-1:primary SFSymbolsPreview007AFF" d="M47.2536-51.4726L48.4536-53.4726C49.1536-54.6726 50.7536-55.1726 51.9536-54.4726C53.1536-53.7726 53.6536-52.1726 52.9536-50.9726L41.7536-31.6726L49.7536-31.6726C52.3536-31.6726 53.8536-28.5726 52.6536-26.4726L29.2218-26.4726C27.8218-26.4726 26.6218-27.6726 26.6218-29.0726C26.6218-30.4726 27.8218-31.6726 29.2218-31.6726L35.8218-31.6726L44.2536-46.2726L41.6536-50.8726C40.9536-52.0726 41.3536-53.6726 42.6536-54.3726C43.8536-55.0726 45.4536-54.6726 46.1536-53.3726L47.2536-51.4726L47.2536-51.4726ZM37.2536-23.8408L34.7536-19.5408C34.0536-18.3408 32.4536-17.8408 31.2536-18.5408C30.0536-19.2408 29.5536-20.8408 30.2536-22.0408L32.1536-25.2408C34.2218-25.9726 35.9218-25.4726 37.2536-23.8408L37.2536-23.8408ZM58.6536-31.6726L65.3536-31.6726C66.7536-31.6726 67.9536-30.4726 67.9536-29.0726C67.9536-27.6726 66.7536-26.4726 65.3536-26.4726L61.6536-26.4726L64.1536-22.0726C64.8536-20.8726 64.4536-19.2726 63.1536-18.5726C61.9536-17.8726 60.3536-18.2726 59.6536-19.5726C55.4536-26.9726 52.2536-32.4726 50.0536-36.1726C47.8536-39.8726 49.4536-43.6726 50.9536-44.9726C52.7536-41.9408 55.2536-37.5408 58.6536-31.6726L58.6536-31.6726Z"/>
  </g>
  <g id="Medium-S" transform="matrix(1 0 0 1 1699.6 696)">
   <path class="multicolor-0:tintColor hierarchical-0:secondary SFSymbolsPreview007AFF" d="M46.8962 4.918C52.3682 4.918 57.5222 3.9 62.2942 1.782C67.0662-0.336 71.3842-3.172 75.0382-6.908C78.6922-10.562 81.6102-14.798 83.6462-19.652C85.6822-24.506 86.7822-29.578 86.7822-35.05C86.7822-40.522 85.7642-45.594 83.6462-50.448C81.5282-55.302 78.6922-59.538 74.9562-63.192C71.3022-66.846 67.0662-69.764 62.2122-71.8C57.3582-73.918 52.2862-74.936 46.8142-74.936C41.3422-74.936 36.2702-73.918 31.4162-71.8C26.5622-69.682 22.4082-66.846 18.7542-63.192C15.1002-59.538 12.1822-55.302 10.1462-50.448C8.0462-45.576 7.0282-40.504 7.0282-35.032C7.0282-29.56 8.0462-24.488 10.1642-19.634C12.2822-14.78 15.1182-10.544 18.7722-6.89C22.4262-3.236 26.6622-0.318 31.5162 1.718C36.3522 3.736 41.5062 4.918 46.8962 4.918ZM46.8962-3.788C42.6042-3.788 38.5122-4.57 34.7842-6.216C30.9742-7.78 27.7462-10.026 24.8182-12.954C21.9902-15.782 19.7442-19.11 18.1622-22.92C16.5982-26.73 15.7162-30.74 15.7162-35.114C15.7162-39.488 16.4982-43.498 18.0802-47.308C19.6442-51.118 21.8902-54.428 24.7362-57.274C27.5642-60.102 30.8922-62.348 34.7022-64.012C38.5122-65.576 42.5222-66.458 46.8142-66.458C51.1882-66.458 55.1982-65.676 59.0082-64.012C62.8182-62.366 66.1282-60.202 68.9742-57.274C71.8022-54.446 74.0482-51.118 75.7122-47.308C77.3582-43.498 78.1582-39.488 78.1582-35.114C78.1582-30.74 77.3762-26.73 75.7122-22.92C74.1482-19.11 71.9022-15.8 69.0562-12.954C66.2282-10.044 62.9002-7.798 59.0902-6.134C55.3802-4.57 51.2882-3.788 46.8962-3.788Z"/>
   <path class="multicolor-1:systemBlueColor hierarchical-1:primary SFSymbolsPreview007AFF" d="M46.8962-51.376L48.0962-53.376C48.7962-54.576 50.3962-55.076 51.5962-54.376C52.7962-53.676 53.2962-52.076 52.5962-50.876L41.3962-31.576L49.3962-31.576C51.9962-31.576 53.4962-28.476 52.2962-26.376L28.8782-26.376C27.4782-26.376 26.2782-27.576 26.2782-28.976C26.2782-30.376 27.4782-31.576 28.8782-31.576L35.4782-31.576L43.8962-46.176L41.2962-50.776C40.5962-51.976 40.9962-53.576 42.2962-54.276C43.4962-54.976 45.0962-54.576 45.7962-53.276L46.8962-51.376L46.8962-51.376ZM36.8962-23.758L34.3962-19.458C33.6962-18.258 32.0962-17.758 30.8962-18.458C29.6962-19.158 29.1962-20.758 29.8962-21.958L31.7962-25.158C33.8782-25.876 35.5782-25.376 36.8962-23.758L36.8962-23.758ZM58.2962-31.576L64.9962-31.576C66.3962-31.576 67.5962-30.376 67.5962-28.976C67.5962-27.576 66.3962-26.376 64.9962-26.376L61.2962-26.376L63.7962-21.976C64.4962-20.776 64.0962-19.176 62.7962-18.476C61.5962-17.776 59.9962-18.176 59.2962-19.476C55.0962-26.876 51.8962-32.376 49.6962-36.076C47.4962-39.776 49.0962-43.576 50.5962-44.876C52.3962-41.858 54.8962-37.458 58.2962-31.576L58.2962-31.576Z"/>
  </g>
  <g id="Regular-S" transform="matrix(1 0 0 1 1403.34 696)">
   <path class="multicolor-0:tintColor hierarchical-0:secondary SFSymbolsPreview007AFF" d="M46.43 4.45C51.83 4.45 56.93 3.45 61.63 1.35C66.33-0.75 70.63-3.55 74.23-7.25C77.83-10.85 80.73-15.05 82.73-19.85C84.73-24.65 85.83-29.65 85.83-35.05C85.83-40.45 84.83-45.45 82.73-50.25C80.63-55.05 77.83-59.25 74.13-62.85C70.53-66.45 66.33-69.35 61.53-71.35C56.73-73.45 51.73-74.45 46.33-74.45C40.93-74.45 35.93-73.45 31.13-71.35C26.33-69.25 22.23-66.45 18.63-62.85C15.03-59.25 12.13-55.05 10.13-50.25C8.03-45.45 7.03-40.45 7.03-35.05C7.03-29.65 8.03-24.65 10.13-19.85C12.23-15.05 15.03-10.85 18.63-7.25C22.23-3.65 26.43-0.75 31.23 1.25C36.03 3.25 41.13 4.45 46.43 4.45ZM46.43-3.05C42.03-3.05 37.83-3.85 34.03-5.55C30.13-7.15 26.83-9.45 23.83-12.45C20.93-15.35 18.63-18.75 17.03-22.65C15.43-26.55 14.53-30.65 14.53-35.15C14.53-39.65 15.33-43.75 16.93-47.65C18.53-51.55 20.83-54.95 23.73-57.85C26.63-60.75 30.03-63.05 33.93-64.75C37.83-66.35 41.93-67.25 46.33-67.25C50.83-67.25 54.93-66.45 58.83-64.75C62.73-63.05 66.13-60.85 69.03-57.85C71.93-54.95 74.23-51.55 75.93-47.65C77.63-43.75 78.43-39.65 78.43-35.15C78.43-30.65 77.63-26.55 75.93-22.65C74.33-18.75 72.03-15.35 69.13-12.45C66.23-9.45 62.83-7.15 58.93-5.45C55.13-3.85 50.93-3.05 46.43-3.05Z"/>
   <path class="multicolor-1:systemBlueColor hierarchical-1:primary SFSymbolsPreview007AFF" d="M46.43-51.25L47.63-53.25C48.33-54.45 49.93-54.95 51.13-54.25C52.33-53.55 52.83-51.95 52.13-50.75L40.93-31.45L48.93-31.45C51.53-31.45 53.03-28.35 51.83-26.25L28.43-26.25C27.03-26.25 25.83-27.45 25.83-28.85C25.83-30.25 27.03-31.45 28.43-31.45L35.03-31.45L43.43-46.05L40.83-50.65C40.13-51.85 40.53-53.45 41.83-54.15C43.03-54.85 44.63-54.45 45.33-53.15L46.43-51.25L46.43-51.25ZM36.43-23.65L33.93-19.35C33.23-18.15 31.63-17.65 30.43-18.35C29.23-19.05 28.73-20.65 29.43-21.85L31.33-25.05C33.43-25.75 35.13-25.25 36.43-23.65L36.43-23.65ZM57.83-31.45L64.53-31.45C65.93-31.45 67.13-30.25 67.13-28.85C67.13-27.45 65.93-26.25 64.53-26.25L60.83-26.25L63.33-21.85C64.03-20.65 63.63-19.05 62.33-18.35C61.13-17.65 59.53-18.05 58.83-19.35C54.63-26.75 51.43-32.25 49.23-35.95C47.03-39.65 48.63-43.45 50.13-44.75C51.93-41.75 54.43-37.35 57.83-31.45L57.83-31.45Z"/>
  </g>
  <g id="Light-S" transform="matrix(1 0 0 1 1107.35 696)">
   <path class="multicolor-0:tintColor hierarchical-0:secondary SFSymbolsPreview007AFF" d="M45.718 3.71667C51.018 3.71667 56.0513 2.71667 60.6513 0.683333C65.2847-1.35 69.4513-4.11667 73.018-7.71667C76.5513-11.25 79.3847-15.3833 81.3847-20.0833C83.3513-24.7833 84.418-29.7167 84.418-35.0167C84.418-40.3167 83.418-45.2833 81.3847-49.95C79.3513-54.65 76.5847-58.75 72.9513-62.3167C69.418-65.85 65.2847-68.6833 60.5847-70.65C55.8847-72.6833 50.9513-73.6833 45.6513-73.6833C40.3513-73.6833 35.418-72.6833 30.718-70.65C26.018-68.6167 21.9847-65.85 18.418-62.3167C14.8847-58.7833 12.0513-54.65 10.0847-49.95C8.05133-45.25 7.05133-40.3167 7.05133-35.0167C7.05133-29.7167 8.05133-24.75 10.0847-20.0833C12.118-15.3833 14.8847-11.2833 18.418-7.71667C21.9513-4.18333 26.0847-1.35 30.7847 0.616667C35.4847 2.58333 40.4847 3.71667 45.718 3.71667ZM45.718-2.05C41.1847-2.05 36.8847-2.88333 32.918-4.61667C28.918-6.28333 25.4513-8.65 22.3847-11.7167C19.3847-14.7167 17.018-18.2167 15.3513-22.25C13.6847-26.25 12.7847-30.4833 12.7847-35.1167C12.7847-39.75 13.618-43.95 15.2847-47.9833C16.9513-51.9833 19.318-55.5167 22.318-58.5167C25.318-61.5167 28.818-63.8833 32.8513-65.6167C36.8513-67.2833 41.118-68.1833 45.6513-68.1833C50.2513-68.1833 54.518-67.35 58.518-65.6167C62.518-63.8833 66.0513-61.5833 69.0513-58.5167C72.0513-55.5167 74.418-52.0167 76.1513-47.9833C77.8847-43.9833 78.718-39.7167 78.718-35.1167C78.718-30.5167 77.8847-26.2833 76.1513-22.25C74.4847-18.25 72.118-14.7167 69.118-11.7167C66.118-8.65 62.618-6.28333 58.618-4.55C54.6513-2.88333 50.3513-2.05 45.718-2.05Z"/>
   <path class="multicolor-1:systemBlueColor hierarchical-1:primary SFSymbolsPreview007AFF" d="M45.718-51.15L46.918-53.15C47.618-54.35 49.218-54.85 50.418-54.15C51.618-53.45 52.118-51.85 51.418-50.65L40.218-31.35L48.218-31.35C50.818-31.35 52.318-28.25 51.118-26.15L27.6847-26.15C26.2847-26.15 25.0847-27.35 25.0847-28.75C25.0847-30.15 26.2847-31.35 27.6847-31.35L34.2847-31.35L42.718-45.9833L40.118-50.5833C39.418-51.7833 39.818-53.3833 41.118-54.0833C42.318-54.7833 43.918-54.3833 44.618-53.0833L45.718-51.15L45.718-51.15ZM35.718-23.55L33.218-19.25C32.518-18.05 30.918-17.55 29.718-18.25C28.518-18.95 28.018-20.55 28.718-21.75L30.618-24.95C32.6847-25.65 34.3847-25.15 35.718-23.55L35.718-23.55ZM57.118-31.35L63.818-31.35C65.218-31.35 66.418-30.15 66.418-28.75C66.418-27.35 65.218-26.15 63.818-26.15L60.118-26.15L62.618-21.75C63.318-20.55 62.918-18.95 61.618-18.25C60.418-17.55 58.818-17.95 58.118-19.25C53.918-26.65 50.718-32.15 48.518-35.85C46.318-39.55 47.918-43.35 49.418-44.65C51.218-41.65 53.718-37.25 57.118-31.35L57.118-31.35Z"/>
  </g>
  <g id="Thin-S" transform="matrix(1 0 0 1 811.587 696)">
   <path class="multicolor-0:tintColor hierarchical-0:secondary SFSymbolsPreview007AFF" d="M44.7763 2.74677C49.9441 2.74677 54.8892 1.74677 59.357-0.198387C63.9021-2.14355 67.8925-4.86613 71.415-8.33387C74.8602-11.779 77.6054-15.8242 79.6054-20.3919C81.5279-24.9597 82.5505-29.8048 82.5505-34.9726C82.5505-40.1403 81.5505-45.0629 79.6054-49.5532C77.6602-54.121 74.9376-58.0887 71.3925-61.6113C67.9473-65.0565 63.9021-67.8016 59.3344-69.7242C54.7666-71.6694 49.9215-72.6694 44.7537-72.6694C39.586-72.6694 34.7408-71.6694 30.1731-69.7242C25.6054-67.779 21.6602-65.0565 18.1376-61.6113C14.6925-58.1661 11.9473-54.121 10.0247-49.5532C8.07955-44.9855 7.07955-40.1403 7.07955-34.9726C7.07955-29.8048 8.07955-24.8823 10.0247-20.3919C11.9699-15.8242 14.6925-11.8565 18.1376-8.33387C21.5828-4.88871 25.6279-2.14355 30.1957-0.220968C34.7634 1.70161 39.6312 2.74677 44.7763 2.74677ZM44.7763-0.727419C40.0666-0.727419 35.6344-1.60484 31.4473-3.38226C27.315-5.1371 23.6279-7.59194 20.4731-10.7468C17.3408-13.879 14.886-17.5113 13.1312-21.721C11.3763-25.8532 10.4763-30.2629 10.4763-35.0726C10.4763-39.8823 11.3537-44.2145 13.1086-48.4242C14.8634-52.5565 17.3183-56.2661 20.4505-59.3984C23.5828-62.5306 27.215-64.9855 31.4247-66.7629C35.557-68.5177 40.0441-69.4177 44.7537-69.4177C49.486-69.4177 53.9731-68.5403 58.1054-66.7629C62.2376-64.9855 65.9473-62.5532 69.0795-59.3984C72.2118-56.2661 74.6666-52.6339 76.4441-48.4242C78.2215-44.2919 79.0989-39.8048 79.0989-35.0726C79.0989-30.3403 78.2215-25.9306 76.4441-21.721C74.6892-17.5887 72.2344-13.879 69.1021-10.7468C65.9699-7.59194 62.3376-5.1371 58.2054-3.35968C54.0183-1.60484 49.586-0.727419 44.7763-0.727419Z"/>
   <path class="multicolor-1:systemBlueColor hierarchical-1:primary SFSymbolsPreview007AFF" d="M44.7763-51.0177L45.9763-53.0177C46.6763-54.2177 48.2763-54.7177 49.4763-54.0177C50.6763-53.3177 51.1763-51.7177 50.4763-50.5177L39.2763-31.2177L47.2763-31.2177C49.8763-31.2177 51.3763-28.1177 50.1763-26.0177L26.6989-26.0177C25.2989-26.0177 24.0989-27.2177 24.0989-28.6177C24.0989-30.0177 25.2989-31.2177 26.6989-31.2177L33.2989-31.2177L41.7763-45.8952L39.1763-50.4952C38.4763-51.6952 38.8763-53.2952 40.1763-53.9952C41.3763-54.6952 42.9763-54.2952 43.6763-52.9952L44.7763-51.0177L44.7763-51.0177ZM34.7763-23.4177L32.2763-19.1177C31.5763-17.9177 29.9763-17.4177 28.7763-18.1177C27.5763-18.8177 27.0763-20.4177 27.7763-21.6177L29.6763-24.8177C31.6989-25.5177 33.3989-25.0177 34.7763-23.4177L34.7763-23.4177ZM56.1763-31.2177L62.8763-31.2177C64.2763-31.2177 65.4763-30.0177 65.4763-28.6177C65.4763-27.2177 64.2763-26.0177 62.8763-26.0177L59.1763-26.0177L61.6763-21.6177C62.3763-20.4177 61.9763-18.8177 60.6763-18.1177C59.4763-17.4177 57.8763-17.8177 57.1763-19.1177C52.9763-26.5177 49.7763-32.0177 47.5763-35.7177C45.3763-39.4177 46.9763-43.2177 48.4763-44.5177C50.2763-41.5177 52.7763-37.1177 56.1763-31.2177L56.1763-31.2177Z"/>
  </g>
  <g id="Ultralight-S" transform="matrix(1 0 0 1 515.361 696)">
   <path class="multicolor-0:tintColor hierarchical-0:secondary SFSymbolsPreview007AFF" d="M44.294 2.25C49.394 2.25 54.294 1.25 58.694-0.65C63.194-2.55 67.094-5.25 70.594-8.65C73.994-12.05 76.694-16.05 78.694-20.55C80.594-25.05 81.594-29.85 81.594-34.95C81.594-40.05 80.594-44.95 78.694-49.35C76.794-53.85 74.094-57.75 70.594-61.25C67.194-64.65 63.194-67.35 58.694-69.25C54.194-71.15 49.394-72.15 44.294-72.15C39.194-72.15 34.394-71.15 29.894-69.25C25.394-67.35 21.494-64.65 17.994-61.25C14.594-57.85 11.894-53.85 9.994-49.35C8.094-44.85 7.094-40.05 7.094-34.95C7.094-29.85 8.094-24.95 9.994-20.55C11.894-16.05 14.594-12.15 17.994-8.65C21.394-5.25 25.394-2.55 29.894-0.65C34.394 1.25 39.194 2.25 44.294 2.25ZM44.294-0.05C39.494-0.05 34.994-0.95 30.694-2.75C26.494-4.55 22.694-7.05 19.494-10.25C16.294-13.45 13.794-17.15 11.994-21.45C10.194-25.65 9.294-30.15 9.294-35.05C9.294-39.95 10.194-44.35 11.994-48.65C13.794-52.85 16.294-56.65 19.494-59.85C22.694-63.05 26.394-65.55 30.694-67.35C34.894-69.15 39.494-70.05 44.294-70.05C49.094-70.05 53.694-69.15 57.894-67.35C62.094-65.55 65.894-63.05 69.094-59.85C72.294-56.65 74.794-52.95 76.594-48.65C78.394-44.45 79.294-39.85 79.294-35.05C79.294-30.25 78.394-25.75 76.594-21.45C74.794-17.25 72.294-13.45 69.094-10.25C65.894-7.05 62.194-4.55 57.994-2.75C53.694-0.95 49.194-0.05 44.294-0.05Z"/>
   <path class="multicolor-1:systemBlueColor hierarchical-1:primary SFSymbolsPreview007AFF" d="M44.294-50.95L45.494-52.95C46.194-54.15 47.794-54.65 48.994-53.95C50.194-53.25 50.694-51.65 49.994-50.45L38.794-31.15L46.794-31.15C49.394-31.15 50.894-28.05 49.694-25.95L26.194-25.95C24.794-25.95 23.594-27.15 23.594-28.55C23.594-29.95 24.794-31.15 26.194-31.15L32.794-31.15L41.294-45.85L38.694-50.45C37.994-51.65 38.394-53.25 39.694-53.95C40.894-54.65 42.494-54.25 43.194-52.95L44.294-50.95L44.294-50.95ZM34.294-23.35L31.794-19.05C31.094-17.85 29.494-17.35 28.294-18.05C27.094-18.75 26.594-20.35 27.294-21.55L29.194-24.75C31.194-25.45 32.894-24.95 34.294-23.35L34.294-23.35ZM55.694-31.15L62.394-31.15C63.794-31.15 64.994-29.95 64.994-28.55C64.994-27.15 63.794-25.95 62.394-25.95L58.694-25.95L61.194-21.55C61.894-20.35 61.494-18.75 60.194-18.05C58.994-17.35 57.394-17.75 56.694-19.05C52.494-26.45 49.294-31.95 47.094-35.65C44.894-39.35 46.494-43.15 47.994-44.45C49.794-41.45 52.294-37.05 55.694-31.15L55.694-31.15Z"/>
  </g>
 </g>
</svg>
