<?xml version="1.0" encoding="UTF-8"?>
<!--Generator: Apple Native CoreSVG 149-->
<!DOCTYPE svg
PUBLIC "-//W3C//DTD SVG 1.1//EN"
       "http://www.w3.org/Graphics/SVG/1.1/DTD/svg11.dtd">
<svg version="1.1" xmlns="http://www.w3.org/2000/svg" xmlns:xlink="http://www.w3.org/1999/xlink" width="3300" height="2200">
 <!--glyph: "", point size: 100.0, font version: "17.0d9e1", template writer version: "59"-->
 <style>.multicolor-0:tintColor {fill:#007AFF;opacity:1.0}
.multicolor-1:systemCyanColor {fill:#55BEF0;opacity:1.0}
.multicolor-2:systemBlueColor {fill:#007AFF;opacity:1.0}

.hierarchical-0:tertiary {fill:#8E8E8E}
.hierarchical-1:secondary {fill:#4D4D4D}
.hierarchical-2:primary {fill:#212121}

.SFSymbolsPreview007AFF {fill:#007AFF;opacity:1.0}
.SFSymbolsPreview55BEF0 {fill:#55BEF0;opacity:1.0}
</style>
 <g id="Notes">
  <rect height="2200" id="artboard" style="fill:white;opacity:1" width="3300" x="0" y="0"/>
  <line style="fill:none;stroke:black;opacity:1;stroke-width:0.5;" x1="263" x2="3036" y1="292" y2="292"/>
  <text style="stroke:none;fill:black;font-family:sans-serif;font-size:13;font-weight:bold;" transform="matrix(1 0 0 1 263 322)">Weight/Scale Variations</text>
  <text style="stroke:none;fill:black;font-family:sans-serif;font-size:13;text-anchor:middle;" transform="matrix(1 0 0 1 559.711 322)">Ultralight</text>
  <text style="stroke:none;fill:black;font-family:sans-serif;font-size:13;text-anchor:middle;" transform="matrix(1 0 0 1 856.422 322)">Thin</text>
  <text style="stroke:none;fill:black;font-family:sans-serif;font-size:13;text-anchor:middle;" transform="matrix(1 0 0 1 1153.13 322)">Light</text>
  <text style="stroke:none;fill:black;font-family:sans-serif;font-size:13;text-anchor:middle;" transform="matrix(1 0 0 1 1449.84 322)">Regular</text>
  <text style="stroke:none;fill:black;font-family:sans-serif;font-size:13;text-anchor:middle;" transform="matrix(1 0 0 1 1746.56 322)">Medium</text>
  <text style="stroke:none;fill:black;font-family:sans-serif;font-size:13;text-anchor:middle;" transform="matrix(1 0 0 1 2043.27 322)">Semibold</text>
  <text style="stroke:none;fill:black;font-family:sans-serif;font-size:13;text-anchor:middle;" transform="matrix(1 0 0 1 2339.98 322)">Bold</text>
  <text style="stroke:none;fill:black;font-family:sans-serif;font-size:13;text-anchor:middle;" transform="matrix(1 0 0 1 2636.69 322)">Heavy</text>
  <text style="stroke:none;fill:black;font-family:sans-serif;font-size:13;text-anchor:middle;" transform="matrix(1 0 0 1 2933.4 322)">Black</text>
  <line style="fill:none;stroke:black;opacity:1;stroke-width:0.5;" x1="263" x2="3036" y1="1903" y2="1903"/>
  <g transform="matrix(1 0 0 1 263 1933)">
   <path d="M9.24805 0.830078Q10.8691 0.830078 12.2949 0.214844Q13.7207-0.400391 14.8096-1.49414Q15.8984-2.58789 16.5186-4.01367Q17.1387-5.43945 17.1387-7.05078Q17.1387-8.66211 16.5186-10.0879Q15.8984-11.5137 14.8047-12.6074Q13.7109-13.7012 12.2852-14.3164Q10.8594-14.9316 9.23828-14.9316Q7.62695-14.9316 6.20117-14.3164Q4.77539-13.7012 3.69141-12.6074Q2.60742-11.5137 1.9873-10.0879Q1.36719-8.66211 1.36719-7.05078Q1.36719-5.43945 1.9873-4.01367Q2.60742-2.58789 3.69629-1.49414Q4.78516-0.400391 6.21094 0.214844Q7.63672 0.830078 9.24805 0.830078ZM9.24805-0.654297Q7.91992-0.654297 6.7627-1.14746Q5.60547-1.64062 4.73145-2.51953Q3.85742-3.39844 3.36426-4.56055Q2.87109-5.72266 2.87109-7.05078Q2.87109-8.37891 3.35938-9.54102Q3.84766-10.7031 4.72168-11.582Q5.5957-12.4609 6.75293-12.9541Q7.91016-13.4473 9.23828-13.4473Q10.5762-13.4473 11.7334-12.9541Q12.8906-12.4609 13.7695-11.582Q14.6484-10.7031 15.1465-9.54102Q15.6445-8.37891 15.6445-7.05078Q15.6445-5.72266 15.1514-4.56055Q14.6582-3.39844 13.7842-2.51953Q12.9102-1.64062 11.748-1.14746Q10.5859-0.654297 9.24805-0.654297ZM5.83984-7.04102Q5.83984-6.71875 6.04492-6.51855Q6.25-6.31836 6.5918-6.31836L8.50586-6.31836L8.50586-4.39453Q8.50586-4.0625 8.70605-3.85742Q8.90625-3.65234 9.22852-3.65234Q9.56055-3.65234 9.76562-3.85742Q9.9707-4.0625 9.9707-4.39453L9.9707-6.31836L11.8945-6.31836Q12.2266-6.31836 12.4316-6.51855Q12.6367-6.71875 12.6367-7.04102Q12.6367-7.37305 12.4316-7.57812Q12.2266-7.7832 11.8945-7.7832L9.9707-7.7832L9.9707-9.69727Q9.9707-10.0391 9.76562-10.2441Q9.56055-10.4492 9.22852-10.4492Q8.90625-10.4492 8.70605-10.2441Q8.50586-10.0391 8.50586-9.69727L8.50586-7.7832L6.5918-7.7832Q6.25-7.7832 6.04492-7.57812Q5.83984-7.37305 5.83984-7.04102Z"/>
  </g>
  <g transform="matrix(1 0 0 1 281.867 1933)">
   <path d="M11.709 2.91016Q13.75 2.91016 15.5518 2.12891Q17.3535 1.34766 18.7305-0.0292969Q20.1074-1.40625 20.8887-3.20801Q21.6699-5.00977 21.6699-7.05078Q21.6699-9.0918 20.8887-10.8936Q20.1074-12.6953 18.7305-14.0723Q17.3535-15.4492 15.5469-16.2305Q13.7402-17.0117 11.6992-17.0117Q9.6582-17.0117 7.85645-16.2305Q6.05469-15.4492 4.68262-14.0723Q3.31055-12.6953 2.5293-10.8936Q1.74805-9.0918 1.74805-7.05078Q1.74805-5.00977 2.5293-3.20801Q3.31055-1.40625 4.6875-0.0292969Q6.06445 1.34766 7.86621 2.12891Q9.66797 2.91016 11.709 2.91016ZM11.709 1.25Q9.98047 1.25 8.47656 0.605469Q6.97266-0.0390625 5.83496-1.17676Q4.69727-2.31445 4.05762-3.81836Q3.41797-5.32227 3.41797-7.05078Q3.41797-8.7793 4.05762-10.2832Q4.69727-11.7871 5.83008-12.9297Q6.96289-14.0723 8.4668-14.7119Q9.9707-15.3516 11.6992-15.3516Q13.4277-15.3516 14.9316-14.7119Q16.4355-14.0723 17.5781-12.9297Q18.7207-11.7871 19.3652-10.2832Q20.0098-8.7793 20.0098-7.05078Q20.0098-5.32227 19.3701-3.81836Q18.7305-2.31445 17.5928-1.17676Q16.4551-0.0390625 14.9463 0.605469Q13.4375 1.25 11.709 1.25ZM7.39258-7.04102Q7.39258-6.68945 7.62695-6.46484Q7.86133-6.24023 8.23242-6.24023L10.8789-6.24023L10.8789-3.57422Q10.8789-3.21289 11.1035-2.9834Q11.3281-2.75391 11.6797-2.75391Q12.0508-2.75391 12.2852-2.9834Q12.5195-3.21289 12.5195-3.57422L12.5195-6.24023L15.1758-6.24023Q15.5371-6.24023 15.7715-6.46484Q16.0059-6.68945 16.0059-7.04102Q16.0059-7.41211 15.7715-7.6416Q15.5371-7.87109 15.1758-7.87109L12.5195-7.87109L12.5195-10.5176Q12.5195-10.8984 12.2852-11.1279Q12.0508-11.3574 11.6797-11.3574Q11.3281-11.3574 11.1035-11.1279Q10.8789-10.8984 10.8789-10.5176L10.8789-7.87109L8.23242-7.87109Q7.85156-7.87109 7.62207-7.6416Q7.39258-7.41211 7.39258-7.04102Z"/>
  </g>
  <g transform="matrix(1 0 0 1 305.646 1933)">
   <path d="M14.9707 5.66406Q17.0605 5.66406 18.96 5.01465Q20.8594 4.36523 22.4512 3.19336Q24.043 2.02148 25.2197 0.429688Q26.3965-1.16211 27.0459-3.06641Q27.6953-4.9707 27.6953-7.05078Q27.6953-9.14062 27.0459-11.04Q26.3965-12.9395 25.2197-14.5312Q24.043-16.123 22.4512-17.2998Q20.8594-18.4766 18.9551-19.126Q17.0508-19.7754 14.9609-19.7754Q12.8711-19.7754 10.9717-19.126Q9.07227-18.4766 7.48535-17.2998Q5.89844-16.123 4.72168-14.5312Q3.54492-12.9395 2.90039-11.04Q2.25586-9.14062 2.25586-7.05078Q2.25586-4.9707 2.90527-3.06641Q3.55469-1.16211 4.72656 0.429688Q5.89844 2.02148 7.49023 3.19336Q9.08203 4.36523 10.9814 5.01465Q12.8809 5.66406 14.9707 5.66406ZM14.9707 3.84766Q13.1641 3.84766 11.5283 3.2959Q9.89258 2.74414 8.53516 1.74805Q7.17773 0.751953 6.17676-0.610352Q5.17578-1.97266 4.62891-3.6084Q4.08203-5.24414 4.08203-7.05078Q4.08203-8.86719 4.62891-10.5029Q5.17578-12.1387 6.17188-13.501Q7.16797-14.8633 8.52539-15.8594Q9.88281-16.8555 11.5186-17.4023Q13.1543-17.9492 14.9609-17.9492Q16.7773-17.9492 18.4131-17.4023Q20.0488-16.8555 21.4111-15.8594Q22.7734-14.8633 23.7695-13.501Q24.7656-12.1387 25.3174-10.5029Q25.8691-8.86719 25.8691-7.05078Q25.8789-5.24414 25.332-3.6084Q24.7852-1.97266 23.7842-0.610352Q22.7832 0.751953 21.4209 1.74805Q20.0586 2.74414 18.4229 3.2959Q16.7871 3.84766 14.9707 3.84766ZM9.45312-7.04102Q9.45312-6.66016 9.71191-6.41113Q9.9707-6.16211 10.3711-6.16211L14.0625-6.16211L14.0625-2.46094Q14.0625-2.06055 14.3115-1.80664Q14.5605-1.55273 14.9414-1.55273Q15.3516-1.55273 15.6055-1.80664Q15.8594-2.06055 15.8594-2.46094L15.8594-6.16211L19.5605-6.16211Q19.9609-6.16211 20.2148-6.41113Q20.4688-6.66016 20.4688-7.04102Q20.4688-7.45117 20.2148-7.70508Q19.9609-7.95898 19.5605-7.95898L15.8594-7.95898L15.8594-11.6504Q15.8594-12.0605 15.6055-12.3145Q15.3516-12.5684 14.9414-12.5684Q14.5605-12.5684 14.3115-12.3096Q14.0625-12.0508 14.0625-11.6504L14.0625-7.95898L10.3711-7.95898Q9.96094-7.95898 9.70703-7.70508Q9.45312-7.45117 9.45312-7.04102Z"/>
  </g>
  <text style="stroke:none;fill:black;font-family:sans-serif;font-size:13;font-weight:bold;" transform="matrix(1 0 0 1 263 1953)">Design Variations</text>
  <text style="stroke:none;fill:black;font-family:sans-serif;font-size:13;" transform="matrix(1 0 0 1 263 1971)">Symbols are supported in up to nine weights and three scales.</text>
  <text style="stroke:none;fill:black;font-family:sans-serif;font-size:13;" transform="matrix(1 0 0 1 263 1989)">For optimal layout with text and other symbols, vertically align</text>
  <text style="stroke:none;fill:black;font-family:sans-serif;font-size:13;" transform="matrix(1 0 0 1 263 2007)">symbols with the adjacent text.</text>
  <line style="fill:none;stroke:#00AEEF;stroke-width:0.5;opacity:1.0;" x1="776" x2="776" y1="1919" y2="1933"/>
  <g transform="matrix(1 0 0 1 776 1933)">
   <path d="M3.31055 0.15625Q3.70117 0.15625 3.91602-0.00976562Q4.13086-0.175781 4.26758-0.585938L5.52734-4.0332L11.2891-4.0332L12.5488-0.585938Q12.6855-0.175781 12.9004-0.00976562Q13.1152 0.15625 13.4961 0.15625Q13.8867 0.15625 14.1162-0.0585938Q14.3457-0.273438 14.3457-0.644531Q14.3457-0.869141 14.2383-1.17188L9.6582-13.3691Q9.48242-13.8184 9.17969-14.043Q8.87695-14.2676 8.4082-14.2676Q7.5-14.2676 7.17773-13.3789L2.59766-1.16211Q2.49023-0.859375 2.49023-0.634766Q2.49023-0.263672 2.70996-0.0537109Q2.92969 0.15625 3.31055 0.15625ZM6.00586-5.51758L8.37891-12.0898L8.42773-12.0898L10.8008-5.51758Z"/>
  </g>
  <line style="fill:none;stroke:#00AEEF;stroke-width:0.5;opacity:1.0;" x1="793.197" x2="793.197" y1="1919" y2="1933"/>
  <text style="stroke:none;fill:black;font-family:sans-serif;font-size:13;font-weight:bold;" transform="matrix(1 0 0 1 776 1953)">Margins</text>
  <text style="stroke:none;fill:black;font-family:sans-serif;font-size:13;" transform="matrix(1 0 0 1 776 1971)">Leading and trailing margins on the left and right side of each symbol</text>
  <text style="stroke:none;fill:black;font-family:sans-serif;font-size:13;" transform="matrix(1 0 0 1 776 1989)">can be adjusted by modifying the x-location of the margin guidelines.</text>
  <text style="stroke:none;fill:black;font-family:sans-serif;font-size:13;" transform="matrix(1 0 0 1 776 2007)">Modifications are automatically applied proportionally to all</text>
  <text style="stroke:none;fill:black;font-family:sans-serif;font-size:13;" transform="matrix(1 0 0 1 776 2025)">scales and weights.</text>
  <g transform="matrix(1 0 0 1 1289 1933)">
   <path d="M2.8418 1.86523L4.54102 3.57422Q5.18555 4.22852 5.90332 4.17969Q6.62109 4.13086 7.31445 3.35938L18.0078-8.42773L17.041-9.4043L6.42578 2.27539Q6.16211 2.57812 5.89355 2.61719Q5.625 2.65625 5.27344 2.30469L4.10156 1.14258Q3.75 0.791016 3.79395 0.522461Q3.83789 0.253906 4.14062-0.0195312L15.6152-10.8203L14.6387-11.7871L3.04688-0.898438Q2.30469-0.214844 2.25098 0.498047Q2.19727 1.21094 2.8418 1.86523ZM9.25781-16.3281Q8.94531-16.0254 8.90625-15.6348Q8.86719-15.2441 9.04297-14.9512Q9.21875-14.6777 9.55566-14.541Q9.89258-14.4043 10.3809-14.5215Q11.4746-14.7754 12.5977-14.7314Q13.7207-14.6875 14.7949-13.9844L14.209-12.5293Q13.9551-11.9043 14.0674-11.4404Q14.1797-10.9766 14.5801-10.5664L16.875-8.25195Q17.2363-7.88086 17.5781-7.82227Q17.9199-7.76367 18.3398-7.8418L19.4043-8.03711L20.0684-7.36328L20.0293-6.80664Q20-6.43555 20.1221-6.12305Q20.2441-5.81055 20.6055-5.44922L21.3672-4.70703Q21.7285-4.3457 22.1533-4.33105Q22.5781-4.31641 22.9297-4.66797L25.8398-7.58789Q26.1914-7.93945 26.1816-8.35449Q26.1719-8.76953 25.8105-9.13086L25.0391-9.89258Q24.6875-10.2539 24.3799-10.3857Q24.0723-10.5176 23.7109-10.4883L23.1348-10.4395L22.4902-11.0742L22.7344-12.1973Q22.832-12.6172 22.6953-12.9834Q22.5586-13.3496 22.1191-13.7891L19.9219-15.9766Q18.6719-17.2168 17.2607-17.8369Q15.8496-18.457 14.4189-18.4814Q12.9883-18.5059 11.665-17.959Q10.3418-17.4121 9.25781-16.3281ZM10.752-15.957Q11.6602-16.6211 12.7002-16.9043Q13.7402-17.1875 14.8047-17.085Q15.8691-16.9824 16.8701-16.5137Q17.8711-16.0449 18.7012-15.2051L21.1328-12.793Q21.3086-12.6172 21.3525-12.4512Q21.3965-12.2852 21.3379-12.0312L21.0156-10.5469L22.5195-9.0625L23.5059-9.12109Q23.6914-9.13086 23.7891-9.09668Q23.8867-9.0625 24.0332-8.91602L24.6094-8.33984L22.168-5.89844L21.5918-6.47461Q21.4453-6.62109 21.4062-6.71875Q21.3672-6.81641 21.377-7.01172L21.4453-7.98828L19.9512-9.47266L18.4277-9.21875Q18.1836-9.16992 18.042-9.2041Q17.9004-9.23828 17.7148-9.41406L15.7129-11.416Q15.5176-11.5918 15.4932-11.7529Q15.4688-11.9141 15.5859-12.1875L16.4648-14.2773Q15.293-15.3711 13.8281-15.791Q12.3633-16.2109 10.8398-15.7617Q10.7227-15.7324 10.6885-15.8057Q10.6543-15.8789 10.752-15.957Z"/>
  </g>
  <text style="stroke:none;fill:black;font-family:sans-serif;font-size:13;font-weight:bold;" transform="matrix(1 0 0 1 1289 1953)">Exporting</text>
  <text style="stroke:none;fill:black;font-family:sans-serif;font-size:13;" transform="matrix(1 0 0 1 1289 1971)">Symbols should be outlined when exporting to ensure the</text>
  <text style="stroke:none;fill:black;font-family:sans-serif;font-size:13;" transform="matrix(1 0 0 1 1289 1989)">design is preserved when submitting to Xcode.</text>
  <text id="template-version" style="stroke:none;fill:black;font-family:sans-serif;font-size:13;text-anchor:end;" transform="matrix(1 0 0 1 3036 1933)">Template v.3.0</text>
  <text style="stroke:none;fill:black;font-family:sans-serif;font-size:13;text-anchor:end;" transform="matrix(1 0 0 1 3036 1951)">Requires Xcode 13 or greater</text>
  <text id="descriptive-name" style="stroke:none;fill:black;font-family:sans-serif;font-size:13;text-anchor:end;" transform="matrix(1 0 0 1 3036 1969)">Generated from logo.paypal.square.fill</text>
  <text style="stroke:none;fill:black;font-family:sans-serif;font-size:13;text-anchor:end;" transform="matrix(1 0 0 1 3036 1987)">Typeset at 100 points</text>
  <text style="stroke:none;fill:black;font-family:sans-serif;font-size:13;" transform="matrix(1 0 0 1 263 726)">Small</text>
  <text style="stroke:none;fill:black;font-family:sans-serif;font-size:13;" transform="matrix(1 0 0 1 263 1156)">Medium</text>
  <text style="stroke:none;fill:black;font-family:sans-serif;font-size:13;" transform="matrix(1 0 0 1 263 1586)">Large</text>
 </g>
 <g id="Guides">
  <g id="H-reference" style="fill:#27AAE1;stroke:none;" transform="matrix(1 0 0 1 339 696)">
   <path d="M0.976562 0L3.66211 0L29.3457-67.1387L30.0293-67.1387L30.0293-70.459L28.125-70.459ZM11.6699-24.4629L46.9727-24.4629L46.2402-26.709L12.4512-26.709ZM55.127 0L57.7637 0L30.6152-70.459L29.4434-70.459L29.4434-67.1387Z"/>
  </g>
  <line id="Baseline-S" style="fill:none;stroke:#27AAE1;opacity:1;stroke-width:0.5;" x1="263" x2="3036" y1="696" y2="696"/>
  <line id="Capline-S" style="fill:none;stroke:#27AAE1;opacity:1;stroke-width:0.5;" x1="263" x2="3036" y1="625.541" y2="625.541"/>
  <g id="H-reference" style="fill:#27AAE1;stroke:none;" transform="matrix(1 0 0 1 339 1126)">
   <path d="M0.976562 0L3.66211 0L29.3457-67.1387L30.0293-67.1387L30.0293-70.459L28.125-70.459ZM11.6699-24.4629L46.9727-24.4629L46.2402-26.709L12.4512-26.709ZM55.127 0L57.7637 0L30.6152-70.459L29.4434-70.459L29.4434-67.1387Z"/>
  </g>
  <line id="Baseline-M" style="fill:none;stroke:#27AAE1;opacity:1;stroke-width:0.5;" x1="263" x2="3036" y1="1126" y2="1126"/>
  <line id="Capline-M" style="fill:none;stroke:#27AAE1;opacity:1;stroke-width:0.5;" x1="263" x2="3036" y1="1055.54" y2="1055.54"/>
  <g id="H-reference" style="fill:#27AAE1;stroke:none;" transform="matrix(1 0 0 1 339 1556)">
   <path d="M0.976562 0L3.66211 0L29.3457-67.1387L30.0293-67.1387L30.0293-70.459L28.125-70.459ZM11.6699-24.4629L46.9727-24.4629L46.2402-26.709L12.4512-26.709ZM55.127 0L57.7637 0L30.6152-70.459L29.4434-70.459L29.4434-67.1387Z"/>
  </g>
  <line id="Baseline-L" style="fill:none;stroke:#27AAE1;opacity:1;stroke-width:0.5;" x1="263" x2="3036" y1="1556" y2="1556"/>
  <line id="Capline-L" style="fill:none;stroke:#27AAE1;opacity:1;stroke-width:0.5;" x1="263" x2="3036" y1="1485.54" y2="1485.54"/>
  <line id="left-margin-Regular-M" style="fill:none;stroke:#00AEEF;stroke-width:0.5;opacity:1.0;" x1="1392.12" x2="1392.12" y1="1030.73" y2="1150.14"/>
  <line id="right-margin-Regular-M" style="fill:none;stroke:#00AEEF;stroke-width:0.5;opacity:1.0;" x1="1507.57" x2="1507.57" y1="1030.73" y2="1150.14"/>
 </g>
 <g id="Symbols">
  <g id="Black-L" transform="matrix(1 0 0 1 2855.3 1556)">
   <path class="multicolor-0:tintColor hierarchical-0:tertiary SFSymbolsPreview007AFF" d="M133.483-90.1577C129.317-94.3236 123.509-96.3268 115.898-96.3268L40.2586-96.3268C32.6896-96.3268 26.882-94.3262 22.7162-90.1604C18.5503-85.9945 16.5497-80.2294 16.5497-72.6631L16.5497 3.146C16.5497 10.7149 18.5503 16.5225 22.7162 20.6459C26.882 24.8118 32.6896 26.8124 40.2586 26.8124L115.898 26.8124C123.509 26.8124 129.317 24.8092 133.483 20.6433C137.649 16.4775 139.649 10.7123 139.649 3.146L139.649-72.6631C139.649-80.2267 137.649-86.0343 133.483-90.1577Z"/>
   <path class="multicolor-1:systemCyanColor hierarchical-1:secondary SFSymbolsPreview55BEF0" d="M107.065-34.4239C104.76-22.5655 96.854-18.448 86.6426-18.448L85.1603-18.448C83.8427-18.448 82.8545-17.6245 82.6898-16.3069L82.5251-15.6481L80.5487-3.13087L80.384-2.63677C80.2193-1.48387 79.0664-0.495665 77.9135-0.495665L67.3727-0.495665C66.3845-0.495665 65.7257-1.31917 65.8904-2.30737L66.7139-7.74247L69.6785-26.8477C69.8432-28.1653 71.1608-29.3182 72.4784-29.3182L78.4076-29.3182C89.9366-29.3182 98.9951-34.0945 101.63-47.5999C101.63-47.9293 101.795-48.4234 101.795-48.7528C102.948-48.094 103.936-47.4352 104.595-46.6117C107.559-43.485 108.054-39.3649 107.065-34.4239Z"/>
   <path class="multicolor-2:systemBlueColor hierarchical-2:primary SFSymbolsPreview007AFF" d="M62.8035-11.6953L50.451-11.6953C49.4628-11.6953 48.6393-12.6835 48.804-13.6717L57.2037-66.7051C57.3684-68.0227 58.686-69.1756 60.0036-69.1756L80.097-69.1756C87.0144-69.1756 92.4495-67.6933 95.4141-64.2346C98.214-61.1053 98.8728-57.6466 98.214-52.7056L98.214-52.7056C98.214-52.3762 98.0493-51.8821 98.0493-51.5527C95.4141-37.8826 86.3556-33.271 74.8266-33.271L68.8948-33.271C67.4125-33.271 66.2596-32.2828 66.0949-30.8005L66.2596-31.4593L62.8035-11.6953Z"/>
  </g>
  <g id="Heavy-L" transform="matrix(1 0 0 1 2559.5 1556)">
   <path class="multicolor-0:tintColor hierarchical-0:tertiary SFSymbolsPreview007AFF" d="M131.966-89.5602C128.009-93.5178 122.429-95.4266 115.074-95.4266L39.225-95.4266C31.9314-95.4266 26.3516-93.5301 22.394-89.5725C18.4364-85.615 16.54-80.0961 16.54-72.8149L16.54 3.27837C16.54 10.5719 18.4364 16.1518 22.394 20.0484C26.3516 24.006 31.9314 25.9024 39.225 25.9024L115.074 25.9024C122.429 25.9024 128.009 23.9936 131.966 20.036C135.924 16.0784 137.82 10.5595 137.82 3.27837L137.82-72.8149C137.82-80.0837 135.924-85.6636 131.966-89.5602Z"/>
   <path class="multicolor-1:systemCyanColor hierarchical-1:secondary SFSymbolsPreview55BEF0" d="M106.137-34.4141C103.831-22.5557 95.9255-18.4382 85.7141-18.4382L84.2318-18.4382C82.9142-18.4382 81.926-17.6147 81.7613-16.2971L81.5966-15.6383L79.6202-3.12114L79.4555-2.62704C79.2908-1.47414 78.1379-0.485939 76.985-0.485939L66.4442-0.485939C65.456-0.485939 64.7972-1.30944 64.9619-2.29764L65.7854-7.73274L68.75-26.8379C68.9147-28.1555 70.2323-29.3084 71.5499-29.3084L77.4791-29.3084C89.0081-29.3084 98.0666-34.0847 100.702-47.5901C100.702-47.9195 100.867-48.4136 100.867-48.743C102.019-48.0842 103.008-47.4254 103.666-46.6019C106.631-43.485 107.125-39.3551 106.137-34.4141Z"/>
   <path class="multicolor-2:systemBlueColor hierarchical-2:primary SFSymbolsPreview007AFF" d="M61.8936-11.6855L49.5411-11.6855C48.5529-11.6855 47.7294-12.6737 47.8941-13.6619L56.2938-66.6953C56.4585-68.0129 57.7761-69.1658 59.0937-69.1658L79.1871-69.1658C86.1045-69.1658 91.5396-67.6835 94.5042-64.2248C97.3041-61.0955 97.9629-57.6368 97.3041-52.6958L97.3041-52.6958C97.3041-52.3664 97.1394-51.8723 97.1394-51.5429C94.5042-37.8728 85.4457-33.2612 73.9167-33.2612L67.9751-33.2612C66.4928-33.2612 65.3399-32.273 65.1752-30.7907L65.3399-31.4495L61.8936-11.6855Z"/>
  </g>
  <g id="Bold-L" transform="matrix(1 0 0 1 2263.93 1556)">
   <path class="multicolor-0:tintColor hierarchical-0:tertiary SFSymbolsPreview007AFF" d="M130.07-88.8033C126.369-92.5043 121.079-94.3016 114.065-94.3016L37.9214-94.3016C30.9831-94.3016 25.6934-92.5335 21.9924-88.8324C18.2914-85.1314 16.5232-79.9174 16.5232-73.0083L16.5232 3.43824C16.5232 10.3765 18.2914 15.6663 21.9924 19.2915C25.6934 22.9925 30.9831 24.7607 37.9214 24.7607L114.065 24.7607C121.079 24.7607 126.369 22.9634 130.07 19.2624C133.771 15.5614 135.539 10.3474 135.539 3.43824L135.539-73.0083C135.539-79.8883 133.771-85.1781 130.07-88.8033Z"/>
   <path class="multicolor-1:systemCyanColor hierarchical-1:secondary SFSymbolsPreview55BEF0" d="M104.98-34.3974C102.675-22.539 94.769-18.4215 84.5576-18.4215L83.0753-18.4215C81.7577-18.4215 80.7695-17.598 80.6048-16.2804L80.4401-15.6216L78.4637-3.10436L78.299-2.61026C78.1343-1.45736 76.9814-0.469165 75.8285-0.469165L65.2877-0.469165C64.2995-0.469165 63.6407-1.29266 63.8054-2.28086L64.6289-7.71596L67.5935-26.8212C67.7582-28.1388 69.0758-29.2917 70.3934-29.2917L76.3226-29.2917C87.8516-29.2917 96.9101-34.068 99.5453-47.5734C99.5453-47.9028 99.71-48.3969 99.71-48.7263C100.863-48.0675 101.851-47.4087 102.51-46.5852C105.474-43.485 105.969-39.3384 104.98-34.3974Z"/>
   <path class="multicolor-2:systemBlueColor hierarchical-2:primary SFSymbolsPreview007AFF" d="M60.7518-11.6688L48.3993-11.6688C47.4111-11.6688 46.5876-12.657 46.7523-13.6452L55.152-66.6786C55.3167-67.9962 56.6343-69.1491 57.9519-69.1491L78.0453-69.1491C84.9627-69.1491 90.3978-67.6668 93.3624-64.2081C96.1623-61.0788 96.8211-57.6201 96.1623-52.6791L96.1623-52.6791C96.1623-52.3497 95.9976-51.8556 95.9976-51.5262C93.3624-37.8561 84.3039-33.2445 72.7749-33.2445L66.8166-33.2445C65.3343-33.2445 64.1814-32.2563 64.0167-30.774L64.1814-31.4328L60.7518-11.6688Z"/>
  </g>
  <g id="Semibold-L" transform="matrix(1 0 0 1 1968.01 1556)">
   <path class="multicolor-0:tintColor hierarchical-0:tertiary SFSymbolsPreview007AFF" d="M128.762-88.2815C125.238-91.8057 120.148-93.5261 113.369-93.5261L37.0227-93.5261C30.3294-93.5261 25.2396-91.8464 21.7155-88.3222C18.1914-84.7981 16.5117-79.7943 16.5117-73.1416L16.5117 3.54845C16.5117 10.2418 18.1914 15.3316 21.7155 18.7697C25.2396 22.2939 30.3294 23.9736 37.0227 23.9736L113.369 23.9736C120.148 23.9736 125.238 22.2532 128.762 18.729C132.286 15.2049 133.966 10.2011 133.966 3.54845L133.966-73.1416C133.966-79.7536 132.286-84.8434 128.762-88.2815Z"/>
   <path class="multicolor-1:systemCyanColor hierarchical-1:secondary SFSymbolsPreview55BEF0" d="M104.183-34.3858C101.877-22.5274 93.9717-18.4099 83.7603-18.4099L82.278-18.4099C80.9604-18.4099 79.9722-17.5864 79.8075-16.2688L79.6428-15.61L77.6664-3.0928L77.5017-2.5987C77.337-1.4458 76.1841-0.457601 75.0312-0.457601L64.4904-0.457601C63.5022-0.457601 62.8434-1.2811 63.0081-2.2693L63.8316-7.7044L66.7962-26.8096C66.9609-28.1272 68.2785-29.2801 69.5961-29.2801L75.5253-29.2801C87.0543-29.2801 96.1128-34.0564 98.748-47.5618C98.748-47.8912 98.9127-48.3853 98.9127-48.7147C100.066-48.0559 101.054-47.3971 101.713-46.5736C104.677-43.485 105.171-39.3268 104.183-34.3858Z"/>
   <path class="multicolor-2:systemBlueColor hierarchical-2:primary SFSymbolsPreview007AFF" d="M59.9647-11.6572L47.6122-11.6572C46.624-11.6572 45.8005-12.6454 45.9652-13.6336L54.3649-66.667C54.5296-67.9846 55.8472-69.1375 57.1648-69.1375L77.2582-69.1375C84.1756-69.1375 89.6107-67.6552 92.5753-64.1965C95.3752-61.0672 96.034-57.6085 95.3752-52.6675L95.3752-52.6675C95.3752-52.3381 95.2105-51.844 95.2105-51.5146C92.5753-37.8445 83.5168-33.2329 71.9878-33.2329L66.0179-33.2329C64.5356-33.2329 63.3827-32.2447 63.218-30.7624L63.3827-31.4212L59.9647-11.6572Z"/>
  </g>
  <g id="Medium-L" transform="matrix(1 0 0 1 1671.89 1556)">
   <path class="multicolor-0:tintColor hierarchical-0:tertiary SFSymbolsPreview007AFF" d="M127.771-87.8859C124.381-91.2759 119.443-92.938 112.841-92.938L36.3413-92.938C29.8337-92.938 24.8956-91.3254 21.5056-87.9354C18.1155-84.5453 16.5029-79.701 16.5029-73.2427L16.5029 3.63201C16.5029 10.1397 18.1155 15.0778 21.5056 18.3741C24.8956 21.7641 29.8337 23.3768 36.3413 23.3768L112.841 23.3768C119.443 23.3768 124.381 21.7146 127.771 18.3246C131.161 14.9346 132.773 10.0902 132.773 3.63201L132.773-73.2427C132.773-79.6515 131.161-84.5896 127.771-87.8859Z"/>
   <path class="multicolor-1:systemCyanColor hierarchical-1:secondary SFSymbolsPreview55BEF0" d="M103.579-34.377C101.273-22.5186 93.3671-18.4011 83.1557-18.4011L81.6734-18.4011C80.3558-18.4011 79.3676-17.5776 79.2029-16.26L79.0382-15.6012L77.0618-3.08403L76.8971-2.58993C76.7324-1.43703 75.5795-0.448832 74.4266-0.448832L63.8858-0.448832C62.8976-0.448832 62.2388-1.27233 62.4035-2.26053L63.227-7.69563L66.1916-26.8008C66.3563-28.1184 67.6739-29.2713 68.9915-29.2713L74.9207-29.2713C86.4497-29.2713 95.5082-34.0476 98.1434-47.553C98.1434-47.8824 98.3081-48.3765 98.3081-48.7059C99.461-48.0471 100.449-47.3883 101.108-46.5648C104.073-43.485 104.567-39.318 103.579-34.377Z"/>
   <path class="multicolor-2:systemBlueColor hierarchical-2:primary SFSymbolsPreview007AFF" d="M59.3679-11.6484L47.0154-11.6484C46.0272-11.6484 45.2037-12.6366 45.3684-13.6248L53.7681-66.6582C53.9328-67.9758 55.2504-69.1287 56.568-69.1287L76.6614-69.1287C83.5788-69.1287 89.0139-67.6464 91.9785-64.1877C94.7784-61.0584 95.4372-57.5997 94.7784-52.6587L94.7784-52.6587C94.7784-52.3293 94.6137-51.8352 94.6137-51.5058C91.9785-37.8357 82.92-33.2241 71.391-33.2241L65.4123-33.2241C63.93-33.2241 62.7771-32.2359 62.6124-30.7536L62.7771-31.4124L59.3679-11.6484Z"/>
  </g>
  <g id="Regular-L" transform="matrix(1 0 0 1 1375.96 1556)">
   <path class="multicolor-0:tintColor hierarchical-0:tertiary SFSymbolsPreview007AFF" d="M126.478-87.3698C123.263-90.5849 118.522-92.171 112.153-92.171L35.4525-92.171C29.1871-92.171 24.4468-90.6458 21.2317-87.4307C18.0166-84.2157 16.4914-79.5792 16.4914-73.3746L16.4914 3.74101C16.4914 10.0065 18.0166 14.7467 21.2317 17.858C24.4468 21.0731 29.1871 22.5983 35.4525 22.5983L112.153 22.5983C118.522 22.5983 123.263 21.0122 126.478 17.7971C129.693 14.582 131.218 9.94557 131.218 3.74101L131.218-73.3746C131.218-79.5183 129.693-84.2585 126.478-87.3698Z"/>
   <path class="multicolor-1:systemCyanColor hierarchical-1:secondary SFSymbolsPreview55BEF0" d="M102.79-34.3656C100.484-22.5072 92.5786-18.3897 82.3672-18.3897L80.8849-18.3897C79.5673-18.3897 78.5791-17.5662 78.4144-16.2486L78.2497-15.5898L76.2733-3.0726L76.1086-2.5785C75.9439-1.4256 74.791-0.437395 73.6381-0.437395L63.0973-0.437395C62.1091-0.437395 61.4503-1.2609 61.615-2.2491L62.4385-7.6842L65.4031-26.7894C65.5678-28.107 66.8854-29.2599 68.203-29.2599L74.1322-29.2599C85.6612-29.2599 94.7197-34.0362 97.3549-47.5416C97.3549-47.871 97.5196-48.3651 97.5196-48.6945C98.6725-48.0357 99.6607-47.3769 100.319-46.5534C103.284-43.485 103.778-39.3066 102.79-34.3656Z"/>
   <path class="multicolor-2:systemBlueColor hierarchical-2:primary SFSymbolsPreview007AFF" d="M58.5895-11.637L46.237-11.637C45.2488-11.637 44.4253-12.6252 44.59-13.6134L52.9897-66.6468C53.1544-67.9644 54.472-69.1173 55.7896-69.1173L75.883-69.1173C82.8004-69.1173 88.2355-67.635 91.2001-64.1763C94-61.047 94.6588-57.5883 94-52.6473L94-52.6473C94-52.3179 93.8353-51.8238 93.8353-51.4944C91.2001-37.8243 82.1416-33.2127 70.6126-33.2127L64.6224-33.2127C63.1401-33.2127 61.9872-32.2245 61.8225-30.7422L61.9872-31.401L58.5895-11.637Z"/>
  </g>
  <g id="Light-L" transform="matrix(1 0 0 1 1080.09 1556)">
   <path class="multicolor-0:tintColor hierarchical-0:tertiary SFSymbolsPreview007AFF" d="M125.049-86.7394C122.002-89.7864 117.514-91.3304 111.523-91.3304L34.4018-91.3304C28.4726-91.3304 23.9845-89.8893 20.9375-86.8423C17.8905-83.7954 16.4494-79.369 16.4494-73.5427L16.4494 3.82507C16.4494 9.7543 17.8905 14.2424 20.9375 17.2276C23.9845 20.2746 28.4726 21.7157 34.4018 21.7157L111.523 21.7157C117.514 21.7157 122.002 20.1716 125.049 17.1247C128.096 14.0777 129.537 9.65136 129.537 3.82507L129.537-73.5427C129.537-79.2661 128.096-83.7542 125.049-86.7394Z"/>
   <path class="multicolor-1:systemCyanColor hierarchical-1:secondary SFSymbolsPreview55BEF0" d="M101.949-34.3236C99.6436-22.4652 91.738-18.3477 81.5266-18.3477L80.0443-18.3477C78.7267-18.3477 77.7385-17.5242 77.5738-16.2066L77.4091-15.5478L75.4327-3.03057L75.268-2.53647C75.1033-1.38357 73.9504-0.395366 72.7975-0.395366L62.2567-0.395366C61.2685-0.395366 60.6097-1.21887 60.7744-2.20707L61.5979-7.64217L64.5625-26.7474C64.7272-28.065 66.0448-29.2179 67.3624-29.2179L73.2916-29.2179C84.8206-29.2179 93.8791-33.9942 96.5143-47.4996C96.5143-47.829 96.679-48.3231 96.679-48.6525C97.8319-47.9937 98.8201-47.3349 99.4789-46.5114C102.443-43.485 102.938-39.2646 101.949-34.3236Z"/>
   <path class="multicolor-2:systemBlueColor hierarchical-2:primary SFSymbolsPreview007AFF" d="M57.7068-11.595L45.3543-11.595C44.3661-11.595 43.5426-12.5832 43.7073-13.5714L52.107-66.6048C52.2717-67.9224 53.5893-69.0753 54.9069-69.0753L75.0003-69.0753C81.9177-69.0753 87.3528-67.593 90.3174-64.1343C93.1173-61.005 93.7761-57.5463 93.1173-52.6053L93.1173-52.6053C93.1173-52.2759 92.9526-51.7818 92.9526-51.4524C90.3174-37.7823 81.2589-33.1707 69.7299-33.1707L63.6978-33.1707C62.2155-33.1707 61.0626-32.1825 60.8979-30.7002L61.0626-31.359L57.7068-11.595Z"/>
  </g>
  <g id="Thin-L" transform="matrix(1 0 0 1 784.489 1556)">
   <path class="multicolor-0:tintColor hierarchical-0:tertiary SFSymbolsPreview007AFF" d="M123.159-85.9056C120.334-88.7302 116.179-90.2187 110.689-90.2187L33.0121-90.2187C27.5276-90.2187 23.373-88.8887 20.5484-86.0641C17.7238-83.2395 16.3938-79.0911 16.3938-73.7651L16.3938 3.93624C16.3938 9.42078 17.7238 13.5754 20.5484 16.3938C23.373 19.2184 27.5276 20.5484 33.0121 20.5484L110.689 20.5484C116.179 20.5484 120.334 19.0599 123.159 16.2353C125.983 13.4107 127.313 9.26226 127.313 3.93624L127.313-73.7651C127.313-78.9326 125.983-83.0872 123.159-85.9056Z"/>
   <path class="multicolor-1:systemCyanColor hierarchical-1:secondary SFSymbolsPreview55BEF0" d="M100.838-34.268C98.5318-22.4096 90.6262-18.2921 80.4148-18.2921L78.9325-18.2921C77.6149-18.2921 76.6267-17.4686 76.462-16.151L76.2973-15.4922L74.3209-2.97498L74.1562-2.48088C73.9915-1.32798 72.8386-0.33978 71.6857-0.33978L61.1449-0.33978C60.1567-0.33978 59.4979-1.16328 59.6626-2.15148L60.4861-7.58658L63.4507-26.6918C63.6154-28.0094 64.933-29.1623 66.2506-29.1623L72.1798-29.1623C83.7088-29.1623 92.7673-33.9386 95.4025-47.444C95.4025-47.7734 95.5672-48.2675 95.5672-48.5969C96.7201-47.9381 97.7083-47.2793 98.3671-46.4558C101.332-43.485 101.826-39.209 100.838-34.268Z"/>
   <path class="multicolor-2:systemBlueColor hierarchical-2:primary SFSymbolsPreview007AFF" d="M56.5395-11.5394L44.187-11.5394C43.1988-11.5394 42.3753-12.5276 42.54-13.5158L50.9397-66.5492C51.1044-67.8668 52.422-69.0197 53.7396-69.0197L73.833-69.0197C80.7504-69.0197 86.1855-67.5374 89.1501-64.0787C91.95-60.9494 92.6088-57.4907 91.95-52.5497L91.95-52.5497C91.95-52.2203 91.7853-51.7262 91.7853-51.3968C89.1501-37.7267 80.0916-33.1151 68.5626-33.1151L62.4749-33.1151C60.9926-33.1151 59.8397-32.1269 59.675-30.6446L59.8397-31.3034L56.5395-11.5394Z"/>
  </g>
  <g id="Ultralight-L" transform="matrix(1 0 0 1 488.348 1556)">
   <path class="multicolor-0:tintColor hierarchical-0:tertiary SFSymbolsPreview007AFF" d="M122.191-85.4785C119.48-88.1893 115.496-89.6493 110.262-89.6493L32.3004-89.6493C27.0436-89.6493 23.0598-88.3763 20.3491-85.6655C17.6384-82.9548 16.3654-78.9487 16.3654-73.879L16.3654 3.99318C16.3654 9.24995 17.6384 13.2337 20.3491 15.9667C23.0598 18.6775 27.0436 19.9505 32.3004 19.9505L110.262 19.9505C115.496 19.9505 119.48 18.4905 122.191 15.7797C124.901 13.069 126.174 9.06296 126.174 3.99318L126.174-73.879C126.174-78.7618 124.901-82.7455 122.191-85.4785Z"/>
   <path class="multicolor-1:systemCyanColor hierarchical-1:secondary SFSymbolsPreview55BEF0" d="M100.268-34.2395C97.9624-22.3811 90.0568-18.2636 79.8454-18.2636L78.3631-18.2636C77.0455-18.2636 76.0573-17.4401 75.8926-16.1225L75.7279-15.4637L73.7515-2.94651L73.5868-2.45241C73.4221-1.29951 72.2692-0.311308 71.1163-0.311308L60.5755-0.311308C59.5873-0.311308 58.9285-1.13481 59.0932-2.12301L59.9167-7.55811L62.8813-26.6633C63.046-27.9809 64.3636-29.1338 65.6812-29.1338L71.6104-29.1338C83.1394-29.1338 92.1979-33.9101 94.8331-47.4155C94.8331-47.7449 94.9978-48.239 94.9978-48.5684C96.1507-47.9096 97.1389-47.2508 97.7977-46.4273C100.762-43.485 101.256-39.1805 100.268-34.2395Z"/>
   <path class="multicolor-2:systemBlueColor hierarchical-2:primary SFSymbolsPreview007AFF" d="M55.9416-11.5109L43.5891-11.5109C42.6009-11.5109 41.7774-12.4991 41.9421-13.4873L50.3418-66.5207C50.5065-67.8383 51.8241-68.9912 53.1417-68.9912L73.2351-68.9912C80.1525-68.9912 85.5876-67.5089 88.5522-64.0502C91.3521-60.9209 92.0109-57.4622 91.3521-52.5212L91.3521-52.5212C91.3521-52.1918 91.1874-51.6977 91.1874-51.3683C88.5522-37.6982 79.4937-33.0866 67.9647-33.0866L61.8485-33.0866C60.3662-33.0866 59.2133-32.0984 59.0486-30.6161L59.2133-31.2749L55.9416-11.5109Z"/>
  </g>
  <g id="Black-M" transform="matrix(1 0 0 1 2872.22 1126)">
   <path class="multicolor-0:tintColor hierarchical-0:tertiary SFSymbolsPreview007AFF" d="M104.524-78.2175C101.141-81.6012 96.4796-83.2286 90.4132-83.2286L31.9359-83.2286C25.8808-83.2286 21.2199-81.6006 17.8362-78.2169C14.4525-74.8332 12.8244-70.1835 12.8244-64.1278L12.8244-5.60538C12.8244 0.44974 14.4525 5.11068 17.8362 8.48308C21.2199 11.8668 25.8808 13.4948 31.9359 13.4948L90.4132 13.4948C96.4796 13.4948 101.141 11.8674 104.524 8.48371C107.908 5.10001 109.536 0.450363 109.536-5.60538L109.536-64.1278C109.536-70.1841 107.908-74.8451 104.524-78.2175Z"/>
   <path class="multicolor-1:systemCyanColor hierarchical-1:secondary SFSymbolsPreview55BEF0" d="M83.6321-34.6126C81.8457-25.4254 75.7209-22.2354 67.8097-22.2354L66.6613-22.2354C65.6405-22.2354 64.8749-21.5974 64.7473-20.5766L64.6197-20.0662L63.0885-10.3686L62.9609-9.98582C62.8333-9.09262 61.9401-8.32702 61.0469-8.32702L52.8805-8.32702C52.1149-8.32702 51.6045-8.96502 51.7321-9.73062L52.3701-13.9414L54.6669-28.743C54.7945-29.7638 55.8153-30.657 56.8361-30.657L61.4297-30.657C70.3617-30.657 77.3797-34.3574 79.4213-44.8206C79.4213-45.0758 79.5489-45.4586 79.5489-45.7138C80.4421-45.2034 81.2077-44.693 81.7181-44.055C84.0149-41.63 84.3977-38.4406 83.6321-34.6126Z"/>
   <path class="multicolor-2:systemBlueColor hierarchical-2:primary SFSymbolsPreview007AFF" d="M49.319-17.0038L39.749-17.0038C38.9834-17.0038 38.3454-17.7694 38.473-18.535L44.9806-59.6222C45.1082-60.643 46.129-61.5362 47.1498-61.5362L62.717-61.5362C68.0762-61.5362 72.287-60.3878 74.5838-57.7082C76.753-55.2838 77.2634-52.6042 76.753-48.7762L76.753-48.7762C76.753-48.521 76.6254-48.1382 76.6254-47.883C74.5838-37.2922 67.5658-33.7194 58.6338-33.7194L54.0408-33.7194C52.8924-33.7194 51.9992-32.9538 51.8716-31.8054L51.9992-32.3158L49.319-17.0038Z"/>
  </g>
  <g id="Heavy-M" transform="matrix(1 0 0 1 2576.33 1126)">
   <path class="multicolor-0:tintColor hierarchical-0:tertiary SFSymbolsPreview007AFF" d="M103.174-77.6915C99.9781-80.8871 95.5165-82.4261 89.6664-82.4261L31.0225-82.4261C25.2056-82.4261 20.744-80.8921 17.5484-77.6965C14.3528-74.5009 12.8188-70.0726 12.8188-64.2607L12.8188-5.48373C12.8188 0.333168 14.3528 4.79475 17.5484 7.95708C20.744 11.1527 25.2056 12.6867 31.0225 12.6867L89.6664 12.6867C95.5165 12.6867 99.9781 11.1477 103.174 7.95208C106.369 4.75648 107.903 0.32816 107.903-5.48373L107.903-64.2607C107.903-70.0676 106.369-74.5291 103.174-77.6915Z"/>
   <path class="multicolor-1:systemCyanColor hierarchical-1:secondary SFSymbolsPreview55BEF0" d="M82.802-34.607C81.0156-25.4198 74.8908-22.2298 66.9796-22.2298L65.8312-22.2298C64.8104-22.2298 64.0448-21.5918 63.9172-20.571L63.7896-20.0606L62.2584-10.363L62.1308-9.98019C62.0032-9.08699 61.11-8.32139 60.2168-8.32139L52.0504-8.32139C51.2848-8.32139 50.7744-8.95939 50.902-9.72499L51.54-13.9358L53.8368-28.7374C53.9644-29.7582 54.9852-30.6514 56.006-30.6514L60.5996-30.6514C69.5316-30.6514 76.5496-34.3518 78.5912-44.815C78.5912-45.0702 78.7188-45.453 78.7188-45.7082C79.612-45.1978 80.3776-44.6874 80.888-44.0494C83.1848-41.63 83.5676-38.435 82.802-34.607Z"/>
   <path class="multicolor-2:systemBlueColor hierarchical-2:primary SFSymbolsPreview007AFF" d="M48.5109-16.9982L38.9409-16.9982C38.1753-16.9982 37.5373-17.7638 37.6649-18.5294L44.1725-59.6166C44.3001-60.6374 45.3209-61.5306 46.3417-61.5306L61.9089-61.5306C67.2681-61.5306 71.4789-60.3822 73.7757-57.7026C75.9449-55.2782 76.4553-52.5986 75.9449-48.7706L75.9449-48.7706C75.9449-48.5154 75.8173-48.1326 75.8173-47.8774C73.7757-37.2866 66.7577-33.7138 57.8257-33.7138L53.2271-33.7138C52.0787-33.7138 51.1855-32.9482 51.0579-31.7998L51.1855-32.3102L48.5109-16.9982Z"/>
  </g>
  <g id="Bold-M" transform="matrix(1 0 0 1 2280.53 1126)">
   <path class="multicolor-0:tintColor hierarchical-0:tertiary SFSymbolsPreview007AFF" d="M101.663-77.1031C98.6778-80.0883 94.4393-81.5283 88.831-81.5283L30.0006-81.5283C24.4502-81.5283 20.2116-80.0996 17.2265-77.1144C14.2413-74.1292 12.8125-69.9485 12.8125-64.4094L12.8125-5.34765C12.8125 0.202765 14.2413 4.44133 17.2265 7.36868C20.2116 10.3539 24.4502 11.7826 30.0006 11.7826L88.831 11.7826C94.4393 11.7826 98.6778 10.3425 101.663 7.35737C104.648 4.3722 106.077 0.191459 106.077-5.34765L106.077-64.4094C106.077-69.9372 104.648-74.1757 101.663-77.1031Z"/>
   <path class="multicolor-1:systemCyanColor hierarchical-1:secondary SFSymbolsPreview55BEF0" d="M81.8734-34.6007C80.087-25.4135 73.9622-22.2235 66.051-22.2235L64.9026-22.2235C63.8818-22.2235 63.1162-21.5855 62.9886-20.5647L62.861-20.0543L61.3298-10.3567L61.2022-9.97389C61.0746-9.08069 60.1814-8.31509 59.2882-8.31509L51.1218-8.31509C50.3562-8.31509 49.8458-8.95309 49.9734-9.71869L50.6114-13.9295L52.9082-28.7311C53.0358-29.7519 54.0566-30.6451 55.0774-30.6451L59.671-30.6451C68.603-30.6451 75.621-34.3455 77.6626-44.8087C77.6626-45.0639 77.7902-45.4467 77.7902-45.7019C78.6834-45.1915 79.449-44.6811 79.9594-44.0431C82.2562-41.63 82.639-38.4287 81.8734-34.6007Z"/>
   <path class="multicolor-2:systemBlueColor hierarchical-2:primary SFSymbolsPreview007AFF" d="M47.6068-16.9919L38.0368-16.9919C37.2712-16.9919 36.6332-17.7575 36.7608-18.5231L43.2684-59.6103C43.396-60.6311 44.4168-61.5243 45.4376-61.5243L61.0048-61.5243C66.364-61.5243 70.5748-60.3759 72.8716-57.6963C75.0408-55.2719 75.5512-52.5923 75.0408-48.7643L75.0408-48.7643C75.0408-48.5091 74.9132-48.1263 74.9132-47.8711C72.8716-37.2803 65.8536-33.7075 56.9216-33.7075L52.3167-33.7075C51.1683-33.7075 50.2751-32.9419 50.1475-31.7935L50.2751-32.3039L47.6068-16.9919Z"/>
  </g>
  <g id="Semibold-M" transform="matrix(1 0 0 1 1984.45 1126)">
   <path class="multicolor-0:tintColor hierarchical-0:tertiary SFSymbolsPreview007AFF" d="M100.622-76.6974C97.7814-79.5376 93.6966-80.9095 88.2551-80.9095L29.2962-80.9095C23.9295-80.9095 19.8446-79.5532 17.0045-76.7131C14.1644-73.873 12.8082-69.8629 12.8082-64.5119L12.8082-5.25384C12.8082 0.112865 14.1644 4.19769 17.0045 6.96303C19.8446 9.80315 23.9295 11.1594 29.2962 11.1594L88.2551 11.1594C93.6966 11.1594 97.7814 9.7875 100.622 6.94739C103.462 4.10727 104.818 0.0972173 104.818-5.25384L104.818-64.5119C104.818-69.8473 103.462-73.9321 100.622-76.6974Z"/>
   <path class="multicolor-1:systemCyanColor hierarchical-1:secondary SFSymbolsPreview55BEF0" d="M81.2332-34.5964C79.4468-25.4092 73.322-22.2192 65.4108-22.2192L64.2624-22.2192C63.2416-22.2192 62.476-21.5812 62.3484-20.5604L62.2208-20.05L60.6896-10.3524L60.562-9.96955C60.4344-9.07635 59.5412-8.31075 58.648-8.31075L50.4816-8.31075C49.716-8.31075 49.2056-8.94875 49.3332-9.71435L49.9712-13.9252L52.268-28.7268C52.3956-29.7476 53.4164-30.6408 54.4372-30.6408L59.0308-30.6408C67.9628-30.6408 74.9808-34.3412 77.0224-44.8044C77.0224-45.0596 77.15-45.4424 77.15-45.6976C78.0432-45.1872 78.8088-44.6768 79.3192-44.0388C81.616-41.63 81.9988-38.4244 81.2332-34.5964Z"/>
   <path class="multicolor-2:systemBlueColor hierarchical-2:primary SFSymbolsPreview007AFF" d="M46.9836-16.9876L37.4136-16.9876C36.648-16.9876 36.01-17.7532 36.1376-18.5188L42.6452-59.606C42.7728-60.6268 43.7936-61.52 44.8144-61.52L60.3816-61.52C65.7408-61.52 69.9516-60.3716 72.2484-57.692C74.4176-55.2676 74.928-52.588 74.4176-48.76L74.4176-48.76C74.4176-48.5048 74.29-48.122 74.29-47.8668C72.2484-37.276 65.2304-33.7032 56.2984-33.7032L51.6892-33.7032C50.5408-33.7032 49.6476-32.9376 49.52-31.7892L49.6476-32.2996L46.9836-16.9876Z"/>
  </g>
  <g id="Medium-M" transform="matrix(1 0 0 1 1688.21 1126)">
   <path class="multicolor-0:tintColor hierarchical-0:tertiary SFSymbolsPreview007AFF" d="M99.8318-76.3899C97.1017-79.12 93.1335-80.4402 87.8184-80.4402L28.762-80.4402C23.5346-80.4402 19.5664-79.1389 16.8362-76.4088C14.1061-73.6787 12.8049-69.798 12.8049-64.5896L12.8049-5.18271C12.8049 0.0447002 14.1061 4.01294 16.8362 6.65546C19.5664 9.38558 23.5346 10.6868 28.762 10.6868L87.8184 10.6868C93.1335 10.6868 97.1017 9.36664 99.8318 6.63652C102.562 3.90639 103.863 0.0257596 103.863-5.18271L103.863-64.5896C103.863-69.7791 102.562-73.7473 99.8318-76.3899Z"/>
   <path class="multicolor-1:systemCyanColor hierarchical-1:secondary SFSymbolsPreview55BEF0" d="M80.7478-34.5931C78.9614-25.4059 72.8366-22.2159 64.9254-22.2159L63.777-22.2159C62.7562-22.2159 61.9906-21.5779 61.863-20.5571L61.7354-20.0467L60.2042-10.3491L60.0766-9.96626C59.949-9.07306 59.0558-8.30746 58.1626-8.30746L49.9962-8.30746C49.2306-8.30746 48.7202-8.94546 48.8478-9.71106L49.4858-13.9219L51.7826-28.7235C51.9102-29.7443 52.931-30.6375 53.9518-30.6375L58.5454-30.6375C67.4774-30.6375 74.4954-34.3379 76.537-44.8011C76.537-45.0563 76.6646-45.4391 76.6646-45.6943C77.5578-45.1839 78.3234-44.6735 78.8338-44.0355C81.1306-41.63 81.5134-38.4211 80.7478-34.5931Z"/>
   <path class="multicolor-2:systemBlueColor hierarchical-2:primary SFSymbolsPreview007AFF" d="M46.511-16.9843L36.941-16.9843C36.1754-16.9843 35.5374-17.7499 35.665-18.5155L42.1726-59.6027C42.3002-60.6235 43.321-61.5167 44.3418-61.5167L59.909-61.5167C65.2682-61.5167 69.479-60.3683 71.7758-57.6887C73.945-55.2643 74.4554-52.5847 73.945-48.7567L73.945-48.7567C73.945-48.5015 73.8174-48.1187 73.8174-47.8635C71.7758-37.2727 64.7578-33.6999 55.8258-33.6999L51.2133-33.6999C50.0649-33.6999 49.1717-32.9343 49.0441-31.7859L49.1717-32.2963L46.511-16.9843Z"/>
  </g>
  <g id="Regular-M" transform="matrix(1 0 0 1 1392.12 1126)">
   <path class="multicolor-0:tintColor hierarchical-0:tertiary SFSymbolsPreview007AFF" d="M98.8018-75.9887C96.2151-78.5753 92.399-79.8281 87.2489-79.8281L28.0653-79.8281C23.0196-79.8281 19.2034-78.5986 16.6168-76.0119C14.0301-73.4252 12.8006-69.7134 12.8006-64.6909L12.8006-5.08993C12.8006-0.0442109 14.0301 3.77198 16.6168 6.25427C19.2034 8.84093 23.0196 10.0705 28.0653 10.0705L87.2489 10.0705C92.399 10.0705 96.2151 8.8177 98.8018 6.23104C101.388 3.64438 102.618-0.0674461 102.618-5.08993L102.618-64.6909C102.618-69.6902 101.388-73.5064 98.8018-75.9887Z"/>
   <path class="multicolor-1:systemCyanColor hierarchical-1:secondary SFSymbolsPreview55BEF0" d="M80.1147-34.5888C78.3283-25.4016 72.2035-22.2116 64.2923-22.2116L63.1439-22.2116C62.1231-22.2116 61.3575-21.5736 61.2299-20.5528L61.1023-20.0424L59.5711-10.3448L59.4435-9.96196C59.3159-9.06876 58.4227-8.30316 57.5295-8.30316L49.3631-8.30316C48.5975-8.30316 48.0871-8.94116 48.2147-9.70676L48.8527-13.9176L51.1495-28.7192C51.2771-29.74 52.2979-30.6332 53.3187-30.6332L57.9123-30.6332C66.8443-30.6332 73.8623-34.3336 75.9039-44.7968C75.9039-45.052 76.0315-45.4348 76.0315-45.69C76.9247-45.1796 77.6903-44.6692 78.2007-44.0312C80.4975-41.63 80.8803-38.4168 80.1147-34.5888Z"/>
   <path class="multicolor-2:systemBlueColor hierarchical-2:primary SFSymbolsPreview007AFF" d="M45.8947-16.98L36.3247-16.98C35.5591-16.98 34.9211-17.7456 35.0487-18.5112L41.5563-59.5984C41.6839-60.6192 42.7047-61.5124 43.7255-61.5124L59.2927-61.5124C64.6519-61.5124 68.8627-60.364 71.1595-57.6844C73.3287-55.26 73.8391-52.5804 73.3287-48.7524L73.3287-48.7524C73.3287-48.4972 73.2011-48.1144 73.2011-47.8592C71.1595-37.2684 64.1415-33.6956 55.2095-33.6956L50.5926-33.6956C49.4442-33.6956 48.551-32.93 48.4234-31.7816L48.551-32.292L45.8947-16.98Z"/>
  </g>
  <g id="Light-M" transform="matrix(1 0 0 1 1096.17 1126)">
   <path class="multicolor-0:tintColor hierarchical-0:tertiary SFSymbolsPreview007AFF" d="M97.5206-75.4235C95.0847-77.8594 91.4946-79.0745 86.6837-79.0745L27.1233-79.0745C22.379-79.0745 18.7889-77.9203 16.353-75.4844C13.9171-73.0484 12.7629-69.525 12.7629-64.8417L12.7629-5.01457C12.7629-0.270298 13.9171 3.3198 16.353 5.68906C18.7889 8.12499 22.379 9.27916 27.1233 9.27916L86.6837 9.27916C91.4946 9.27916 95.0847 8.06407 97.5206 5.62814C99.9566 3.1922 101.111-0.331214 101.111-5.01457L101.111-64.8417C101.111-69.4641 99.9566-73.0542 97.5206-75.4235Z"/>
   <path class="multicolor-1:systemCyanColor hierarchical-1:secondary SFSymbolsPreview55BEF0" d="M79.3611-34.5511C77.5747-25.3639 71.4499-22.1739 63.5387-22.1739L62.3903-22.1739C61.3695-22.1739 60.6039-21.5359 60.4763-20.5151L60.3487-20.0047L58.8175-10.3071L58.6899-9.92428C58.5623-9.03108 57.6691-8.26548 56.7759-8.26548L48.6095-8.26548C47.8439-8.26548 47.3335-8.90348 47.4611-9.66908L48.0991-13.8799L50.3959-28.6815C50.5235-29.7023 51.5443-30.5955 52.5651-30.5955L57.1587-30.5955C66.0907-30.5955 73.1087-34.2959 75.1503-44.7591C75.1503-45.0143 75.2779-45.3971 75.2779-45.6523C76.1711-45.1419 76.9367-44.6315 77.4471-43.9935C79.7439-41.63 80.1267-38.3791 79.3611-34.5511Z"/>
   <path class="multicolor-2:systemBlueColor hierarchical-2:primary SFSymbolsPreview007AFF" d="M45.1034-16.9423L35.5334-16.9423C34.7678-16.9423 34.1298-17.7079 34.2574-18.4735L40.765-59.5607C40.8926-60.5815 41.9134-61.4747 42.9342-61.4747L58.5014-61.4747C63.8606-61.4747 68.0714-60.3263 70.3682-57.6467C72.5374-55.2223 73.0478-52.5427 72.5374-48.7147L72.5374-48.7147C72.5374-48.4595 72.4098-48.0767 72.4098-47.8215C70.3682-37.2307 63.3502-33.6579 54.4182-33.6579L49.7636-33.6579C48.6152-33.6579 47.722-32.8923 47.5944-31.7439L47.722-32.2543L45.1034-16.9423Z"/>
  </g>
  <g id="Thin-M" transform="matrix(1 0 0 1 800.452 1126)">
   <path class="multicolor-0:tintColor hierarchical-0:tertiary SFSymbolsPreview007AFF" d="M95.8262-74.6759C93.5896-76.9125 90.2985-78.0777 85.9361-78.0777L25.8774-78.0777C21.5318-78.0777 18.2407-77.0233 16.0041-74.7867C13.7675-72.5501 12.713-69.2758 12.713-65.041L12.713-4.91489C12.713-0.569316 13.7675 2.72177 16.0041 4.94151C18.2407 7.1781 21.5318 8.23259 25.8774 8.23259L85.9361 8.23259C90.2985 8.23259 93.5896 7.06735 95.8262 4.83076C98.0628 2.59417 99.1173-0.680069 99.1173-4.91489L99.1173-65.041C99.1173-69.1651 98.0628-72.4562 95.8262-74.6759Z"/>
   <path class="multicolor-1:systemCyanColor hierarchical-1:secondary SFSymbolsPreview55BEF0" d="M78.3643-34.5012C76.5779-25.314 70.4531-22.124 62.5419-22.124L61.3935-22.124C60.3727-22.124 59.6071-21.486 59.4795-20.4652L59.3519-19.9548L57.8207-10.2572L57.6931-9.87445C57.5655-8.98125 56.6723-8.21565 55.7791-8.21565L47.6127-8.21565C46.8471-8.21565 46.3367-8.85365 46.4643-9.61925L47.1023-13.83L49.3991-28.6316C49.5267-29.6524 50.5475-30.5456 51.5683-30.5456L56.1619-30.5456C65.0939-30.5456 72.1119-34.246 74.1535-44.7092C74.1535-44.9644 74.2811-45.3472 74.2811-45.6024C75.1743-45.092 75.9399-44.5816 76.4503-43.9436C78.7471-41.63 79.1299-38.3292 78.3643-34.5012Z"/>
   <path class="multicolor-2:systemBlueColor hierarchical-2:primary SFSymbolsPreview007AFF" d="M44.0568-16.8924L34.4868-16.8924C33.7212-16.8924 33.0832-17.658 33.2108-18.4236L39.7184-59.5108C39.846-60.5316 40.8668-61.4248 41.8876-61.4248L57.4548-61.4248C62.814-61.4248 67.0248-60.2764 69.3216-57.5968C71.4908-55.1724 72.0012-52.4928 71.4908-48.6648L71.4908-48.6648C71.4908-48.4096 71.3632-48.0268 71.3632-47.7716C69.3216-37.1808 62.3036-33.608 53.3716-33.608L48.6672-33.608C47.5188-33.608 46.6256-32.8424 46.498-31.694L46.6256-32.2044L44.0568-16.8924Z"/>
  </g>
  <g id="Ultralight-M" transform="matrix(1 0 0 1 504.251 1126)">
   <path class="multicolor-0:tintColor hierarchical-0:tertiary SFSymbolsPreview007AFF" d="M94.9583-74.293C92.8238-76.4275 89.6859-77.5672 85.5532-77.5672L25.2392-77.5672C21.0979-77.5672 17.9599-76.5638 15.8254-74.4293C13.691-72.2948 12.6875-69.1482 12.6875-65.1431L12.6875-4.86384C12.6875-0.722472 13.691 2.41546 15.8254 4.55862C17.9599 6.69311 21.0979 7.69655 25.2392 7.69655L85.5532 7.69655C89.6859 7.69655 92.8238 6.55683 94.9583 4.42234C97.0928 2.28786 98.0963-0.85875 98.0963-4.86384L98.0963-65.1431C98.0963-69.0119 97.0928-72.1499 94.9583-74.293Z"/>
   <path class="multicolor-1:systemCyanColor hierarchical-1:secondary SFSymbolsPreview55BEF0" d="M77.8538-34.4757C76.0674-25.2885 69.9426-22.0985 62.0314-22.0985L60.883-22.0985C59.8622-22.0985 59.0966-21.4605 58.969-20.4397L58.8414-19.9293L57.3102-10.2317L57.1826-9.84892C57.055-8.95572 56.1618-8.19012 55.2686-8.19012L47.1022-8.19012C46.3366-8.19012 45.8262-8.82812 45.9538-9.59372L46.5918-13.8045L48.8886-28.6061C49.0162-29.6269 50.037-30.5201 51.0578-30.5201L55.6514-30.5201C64.5834-30.5201 71.6014-34.2205 73.643-44.6837C73.643-44.9389 73.7706-45.3217 73.7706-45.5769C74.6638-45.0665 75.4294-44.5561 75.9398-43.9181C78.2366-41.63 78.6194-38.3037 77.8538-34.4757Z"/>
   <path class="multicolor-2:systemBlueColor hierarchical-2:primary SFSymbolsPreview007AFF" d="M43.5207-16.8669L33.9507-16.8669C33.1851-16.8669 32.5471-17.6325 32.6747-18.3981L39.1823-59.4853C39.3099-60.5061 40.3307-61.3993 41.3515-61.3993L56.9187-61.3993C62.2779-61.3993 66.4887-60.2509 68.7855-57.5713C70.9547-55.1469 71.4651-52.4673 70.9547-48.6393L70.9547-48.6393C70.9547-48.3841 70.8271-48.0013 70.8271-47.7461C68.7855-37.1553 61.7675-33.5825 52.8355-33.5825L48.1057-33.5825C46.9573-33.5825 46.0641-32.8169 45.9365-31.6685L46.0641-32.1789L43.5207-16.8669Z"/>
  </g>
  <g id="Black-S" transform="matrix(1 0 0 1 2885.25 696)">
   <path class="multicolor-0:tintColor hierarchical-0:tertiary SFSymbolsPreview007AFF" d="M82.25-69.05C79.55-71.75 75.85-73.05 71.05-73.05L25.25-73.05C20.45-73.05 16.75-71.75 14.05-69.05C11.35-66.35 10.05-62.65 10.05-57.85L10.05-12.05C10.05-7.25 11.35-3.55 14.05-0.85C16.75 1.85 20.45 3.15 25.25 3.15L71.05 3.15C75.85 3.15 79.55 1.85 82.25-0.85C84.95-3.55 86.25-7.25 86.25-12.05L86.25-57.85C86.25-62.65 84.95-66.35 82.25-69.05Z"/>
   <path class="multicolor-1:systemCyanColor hierarchical-1:secondary SFSymbolsPreview55BEF0" d="M65.75-34.75C64.35-27.55 59.55-25.05 53.35-25.05L52.45-25.05C51.65-25.05 51.05-24.55 50.95-23.75L50.85-23.35L49.65-15.75L49.55-15.45C49.45-14.75 48.75-14.15 48.05-14.15L41.65-14.15C41.05-14.15 40.65-14.65 40.75-15.25L41.25-18.55L43.05-30.15C43.15-30.95 43.95-31.65 44.75-31.65L48.35-31.65C55.35-31.65 60.85-34.55 62.45-42.75C62.45-42.95 62.55-43.25 62.55-43.45C63.25-43.05 63.85-42.65 64.25-42.15C66.05-40.25 66.35-37.75 65.75-34.75Z"/>
   <path class="multicolor-2:systemBlueColor hierarchical-2:primary SFSymbolsPreview007AFF" d="M38.85-20.95L31.35-20.95C30.75-20.95 30.25-21.55 30.35-22.15L35.45-54.35C35.55-55.15 36.35-55.85 37.15-55.85L49.35-55.85C53.55-55.85 56.85-54.95 58.65-52.85C60.35-50.95 60.75-48.85 60.35-45.85L60.35-45.85C60.35-45.65 60.25-45.35 60.25-45.15C58.65-36.85 53.15-34.05 46.15-34.05L42.55-34.05C41.65-34.05 40.95-33.45 40.85-32.55L40.95-32.95L38.85-20.95Z"/>
  </g>
  <g id="Heavy-S" transform="matrix(1 0 0 1 2589.14 696)">
   <path class="multicolor-0:tintColor hierarchical-0:tertiary SFSymbolsPreview007AFF" d="M81.2587-68.6724C78.7003-71.2308 75.1419-72.4599 70.4835-72.4599L24.5891-72.4599C19.9544-72.4599 16.396-71.2308 13.8376-68.6724C11.2792-66.114 10.05-62.5792 10.05-57.9444L10.05-11.9556C10.05-7.32081 11.2792-3.76242 13.8376-1.22763C16.396 1.33075 19.9544 2.55995 24.5891 2.55995L70.4835 2.55995C75.1419 2.55995 78.7003 1.33075 81.2587-1.22763C83.8171-3.78602 85.0463-7.32081 85.0463-11.9556L85.0463-57.9444C85.0463-62.5792 83.8171-66.1376 81.2587-68.6724Z"/>
   <path class="multicolor-1:systemCyanColor hierarchical-1:secondary SFSymbolsPreview55BEF0" d="M65.1363-34.75C63.7363-27.55 58.9363-25.05 52.7363-25.05L51.8363-25.05C51.0363-25.05 50.4363-24.55 50.3363-23.75L50.2363-23.35L49.0363-15.75L48.9363-15.45C48.8363-14.75 48.1363-14.15 47.4363-14.15L41.0363-14.15C40.4363-14.15 40.0363-14.65 40.1363-15.25L40.6363-18.55L42.4363-30.15C42.5363-30.95 43.3363-31.65 44.1363-31.65L47.7363-31.65C54.7363-31.65 60.2363-34.55 61.8363-42.75C61.8363-42.95 61.9363-43.25 61.9363-43.45C62.6363-43.05 63.2363-42.65 63.6363-42.15C65.4363-40.25 65.7363-37.75 65.1363-34.75Z"/>
   <path class="multicolor-2:systemBlueColor hierarchical-2:primary SFSymbolsPreview007AFF" d="M38.2599-20.95L30.7599-20.95C30.1599-20.95 29.6599-21.55 29.7599-22.15L34.8599-54.35C34.9599-55.15 35.7599-55.85 36.5599-55.85L48.7599-55.85C52.9599-55.85 56.2599-54.95 58.0599-52.85C59.7599-50.95 60.1599-48.85 59.7599-45.85L59.7599-45.85C59.7599-45.65 59.6599-45.35 59.6599-45.15C58.0599-36.85 52.5599-34.05 45.5599-34.05L41.9599-34.05C41.0599-34.05 40.3599-33.45 40.2599-32.55L40.3599-32.95L38.2599-20.95Z"/>
  </g>
  <g id="Bold-S" transform="matrix(1 0 0 1 2293.1 696)">
   <path class="multicolor-0:tintColor hierarchical-0:tertiary SFSymbolsPreview007AFF" d="M80.15-68.25C77.75-70.65 74.35-71.8 69.85-71.8L23.85-71.8C19.4-71.8 16-70.65 13.6-68.25C11.2-65.85 10.05-62.5 10.05-58.05L10.05-11.85C10.05-7.4 11.2-4 13.6-1.65C16 0.75 19.4 1.9 23.85 1.9L69.85 1.9C74.35 1.9 77.75 0.75 80.15-1.65C82.55-4.05 83.7-7.4 83.7-11.85L83.7-58.05C83.7-62.5 82.55-65.9 80.15-68.25Z"/>
   <path class="multicolor-1:systemCyanColor hierarchical-1:secondary SFSymbolsPreview55BEF0" d="M64.45-34.75C63.05-27.55 58.25-25.05 52.05-25.05L51.15-25.05C50.35-25.05 49.75-24.55 49.65-23.75L49.55-23.35L48.35-15.75L48.25-15.45C48.15-14.75 47.45-14.15 46.75-14.15L40.35-14.15C39.75-14.15 39.35-14.65 39.45-15.25L39.95-18.55L41.75-30.15C41.85-30.95 42.65-31.65 43.45-31.65L47.05-31.65C54.05-31.65 59.55-34.55 61.15-42.75C61.15-42.95 61.25-43.25 61.25-43.45C61.95-43.05 62.55-42.65 62.95-42.15C64.75-40.25 65.05-37.75 64.45-34.75Z"/>
   <path class="multicolor-2:systemBlueColor hierarchical-2:primary SFSymbolsPreview007AFF" d="M37.6-20.95L30.1-20.95C29.5-20.95 29-21.55 29.1-22.15L34.2-54.35C34.3-55.15 35.1-55.85 35.9-55.85L48.1-55.85C52.3-55.85 55.6-54.95 57.4-52.85C59.1-50.95 59.5-48.85 59.1-45.85L59.1-45.85C59.1-45.65 59-45.35 59-45.15C57.4-36.85 51.9-34.05 44.9-34.05L41.3-34.05C40.4-34.05 39.7-33.45 39.6-32.55L39.7-32.95L37.6-20.95Z"/>
  </g>
  <g id="Semibold-S" transform="matrix(1 0 0 1 1996.86 696)">
   <path class="multicolor-0:tintColor hierarchical-0:tertiary SFSymbolsPreview007AFF" d="M79.3856-67.9588C77.0948-70.2496 73.804-71.345 69.4132-71.345L23.3404-71.345C19.0178-71.345 15.727-70.2496 13.4362-67.9588C11.1454-65.668 10.05-62.4454 10.05-58.1228L10.05-11.7772C10.05-7.4546 11.1454-4.1638 13.4362-1.9412C15.727 0.3496 19.0178 1.445 23.3404 1.445L69.4132 1.445C73.804 1.445 77.0948 0.3496 79.3856-1.9412C81.6764-4.232 82.7718-7.4546 82.7718-11.7772L82.7718-58.1228C82.7718-62.4454 81.6764-65.7362 79.3856-67.9588Z"/>
   <path class="multicolor-1:systemCyanColor hierarchical-1:secondary SFSymbolsPreview55BEF0" d="M63.9768-34.75C62.5768-27.55 57.7768-25.05 51.5768-25.05L50.6768-25.05C49.8768-25.05 49.2768-24.55 49.1768-23.75L49.0768-23.35L47.8768-15.75L47.7768-15.45C47.6768-14.75 46.9768-14.15 46.2768-14.15L39.8768-14.15C39.2768-14.15 38.8768-14.65 38.9768-15.25L39.4768-18.55L41.2768-30.15C41.3768-30.95 42.1768-31.65 42.9768-31.65L46.5768-31.65C53.5768-31.65 59.0768-34.55 60.6768-42.75C60.6768-42.95 60.7768-43.25 60.7768-43.45C61.4768-43.05 62.0768-42.65 62.4768-42.15C64.2768-40.25 64.5768-37.75 63.9768-34.75Z"/>
   <path class="multicolor-2:systemBlueColor hierarchical-2:primary SFSymbolsPreview007AFF" d="M37.145-20.95L29.645-20.95C29.045-20.95 28.545-21.55 28.645-22.15L33.745-54.35C33.845-55.15 34.645-55.85 35.445-55.85L47.645-55.85C51.845-55.85 55.145-54.95 56.945-52.85C58.645-50.95 59.045-48.85 58.645-45.85L58.645-45.85C58.645-45.65 58.545-45.35 58.545-45.15C56.945-36.85 51.445-34.05 44.445-34.05L40.845-34.05C39.945-34.05 39.245-33.45 39.145-32.55L39.245-32.95L37.145-20.95Z"/>
  </g>
  <g id="Medium-S" transform="matrix(1 0 0 1 1700.5 696)">
   <path class="multicolor-0:tintColor hierarchical-0:tertiary SFSymbolsPreview007AFF" d="M78.806-67.738C76.598-69.946 73.39-71 69.082-71L22.954-71C18.728-71 15.52-69.946 13.312-67.738C11.104-65.53 10.05-62.404 10.05-58.178L10.05-11.722C10.05-7.496 11.104-4.288 13.312-2.162C15.52 0.046 18.728 1.1 22.954 1.1L69.082 1.1C73.39 1.1 76.598 0.046 78.806-2.162C81.014-4.37 82.068-7.496 82.068-11.722L82.068-58.178C82.068-62.404 81.014-65.612 78.806-67.738Z"/>
   <path class="multicolor-1:systemCyanColor hierarchical-1:secondary SFSymbolsPreview55BEF0" d="M63.618-34.75C62.218-27.55 57.418-25.05 51.218-25.05L50.318-25.05C49.518-25.05 48.918-24.55 48.818-23.75L48.718-23.35L47.518-15.75L47.418-15.45C47.318-14.75 46.618-14.15 45.918-14.15L39.518-14.15C38.918-14.15 38.518-14.65 38.618-15.25L39.118-18.55L40.918-30.15C41.018-30.95 41.818-31.65 42.618-31.65L46.218-31.65C53.218-31.65 58.718-34.55 60.318-42.75C60.318-42.95 60.418-43.25 60.418-43.45C61.118-43.05 61.718-42.65 62.118-42.15C63.918-40.25 64.218-37.75 63.618-34.75Z"/>
   <path class="multicolor-2:systemBlueColor hierarchical-2:primary SFSymbolsPreview007AFF" d="M36.8-20.95L29.3-20.95C28.7-20.95 28.2-21.55 28.3-22.15L33.4-54.35C33.5-55.15 34.3-55.85 35.1-55.85L47.3-55.85C51.5-55.85 54.8-54.95 56.6-52.85C58.3-50.95 58.7-48.85 58.3-45.85L58.3-45.85C58.3-45.65 58.2-45.35 58.2-45.15C56.6-36.85 51.1-34.05 44.1-34.05L40.5-34.05C39.6-34.05 38.9-33.45 38.8-32.55L38.9-32.95L36.8-20.95Z"/>
  </g>
  <g id="Regular-S" transform="matrix(1 0 0 1 1404.24 696)">
   <path class="multicolor-0:tintColor hierarchical-0:tertiary SFSymbolsPreview007AFF" d="M78.05-67.45C75.95-69.55 72.85-70.55 68.65-70.55L22.45-70.55C18.35-70.55 15.25-69.55 13.15-67.45C11.05-65.35 10.05-62.35 10.05-58.25L10.05-11.65C10.05-7.55 11.05-4.45 13.15-2.45C15.25-0.35 18.35 0.65 22.45 0.65L68.65 0.65C72.85 0.65 75.95-0.35 78.05-2.45C80.15-4.55 81.15-7.55 81.15-11.65L81.15-58.25C81.15-62.35 80.15-65.45 78.05-67.45Z"/>
   <path class="multicolor-1:systemCyanColor hierarchical-1:secondary SFSymbolsPreview55BEF0" d="M63.15-34.75C61.75-27.55 56.95-25.05 50.75-25.05L49.85-25.05C49.05-25.05 48.45-24.55 48.35-23.75L48.25-23.35L47.05-15.75L46.95-15.45C46.85-14.75 46.15-14.15 45.45-14.15L39.05-14.15C38.45-14.15 38.05-14.65 38.15-15.25L38.65-18.55L40.45-30.15C40.55-30.95 41.35-31.65 42.15-31.65L45.75-31.65C52.75-31.65 58.25-34.55 59.85-42.75C59.85-42.95 59.95-43.25 59.95-43.45C60.65-43.05 61.25-42.65 61.65-42.15C63.45-40.25 63.75-37.75 63.15-34.75Z"/>
   <path class="multicolor-2:systemBlueColor hierarchical-2:primary SFSymbolsPreview007AFF" d="M36.35-20.95L28.85-20.95C28.25-20.95 27.75-21.55 27.85-22.15L32.95-54.35C33.05-55.15 33.85-55.85 34.65-55.85L46.85-55.85C51.05-55.85 54.35-54.95 56.15-52.85C57.85-50.95 58.25-48.85 57.85-45.85L57.85-45.85C57.85-45.65 57.75-45.35 57.75-45.15C56.15-36.85 50.65-34.05 43.65-34.05L40.05-34.05C39.15-34.05 38.45-33.45 38.35-32.55L38.45-32.95L36.35-20.95Z"/>
  </g>
  <g id="Light-S" transform="matrix(1 0 0 1 1108.2 696)">
   <path class="multicolor-0:tintColor hierarchical-0:tertiary SFSymbolsPreview007AFF" d="M76.9167-66.95C74.95-68.9167 72.05-69.8833 68.15-69.8833L21.6167-69.8833C17.7833-69.8833 14.8833-68.95 12.9167-66.9833C10.95-65.0167 10.0167-62.1833 10.0167-58.3833L10.0167-11.5833C10.0167-7.75 10.95-4.85 12.9167-2.95C14.8833-0.983333 17.7833-0.05 21.6167-0.05L68.15-0.05C72.05-0.05 74.95-1.01667 76.9167-2.98333C78.8833-4.95 79.8167-7.78333 79.8167-11.5833L79.8167-58.3833C79.8167-62.15 78.8833-65.05 76.9167-66.95Z"/>
   <path class="multicolor-1:systemCyanColor hierarchical-1:secondary SFSymbolsPreview55BEF0" d="M62.4833-34.7167C61.0833-27.5167 56.2833-25.0167 50.0833-25.0167L49.1833-25.0167C48.3833-25.0167 47.7833-24.5167 47.6833-23.7167L47.5833-23.3167L46.3833-15.7167L46.2833-15.4167C46.1833-14.7167 45.4833-14.1167 44.7833-14.1167L38.3833-14.1167C37.7833-14.1167 37.3833-14.6167 37.4833-15.2167L37.9833-18.5167L39.7833-30.1167C39.8833-30.9167 40.6833-31.6167 41.4833-31.6167L45.0833-31.6167C52.0833-31.6167 57.5833-34.5167 59.1833-42.7167C59.1833-42.9167 59.2833-43.2167 59.2833-43.4167C59.9833-43.0167 60.5833-42.6167 60.9833-42.1167C62.7833-40.25 63.0833-37.7167 62.4833-34.7167Z"/>
   <path class="multicolor-2:systemBlueColor hierarchical-2:primary SFSymbolsPreview007AFF" d="M35.65-20.9167L28.15-20.9167C27.55-20.9167 27.05-21.5167 27.15-22.1167L32.25-54.3167C32.35-55.1167 33.15-55.8167 33.95-55.8167L46.15-55.8167C50.35-55.8167 53.65-54.9167 55.45-52.8167C57.15-50.9167 57.55-48.8167 57.15-45.8167L57.15-45.8167C57.15-45.6167 57.05-45.3167 57.05-45.1167C55.45-36.8167 49.95-34.0167 42.95-34.0167L39.3167-34.0167C38.4167-34.0167 37.7167-33.4167 37.6167-32.5167L37.7167-32.9167L35.65-20.9167Z"/>
  </g>
  <g id="Thin-S" transform="matrix(1 0 0 1 812.371 696)">
   <path class="multicolor-0:tintColor hierarchical-0:tertiary SFSymbolsPreview007AFF" d="M75.4177-66.2887C73.6274-68.079 70.9919-69.0016 67.4887-69.0016L20.5145-69.0016C17.0339-69.0016 14.3984-68.1565 12.6081-66.3661C10.8177-64.5758 9.97258-61.9629 9.97258-58.5597L9.97258-11.4952C9.97258-8.01452 10.8177-5.37903 12.6081-3.61129C14.3984-1.82097 17.0339-0.975806 20.5145-0.975806L67.4887-0.975806C70.9919-0.975806 73.6274-1.89839 75.4177-3.68871C77.2081-5.47903 78.0532-8.09194 78.0532-11.4952L78.0532-58.5597C78.0532-61.8855 77.2081-64.521 75.4177-66.2887Z"/>
   <path class="multicolor-1:systemCyanColor hierarchical-1:secondary SFSymbolsPreview55BEF0" d="M61.6016-34.6726C60.2016-27.4726 55.4016-24.9726 49.2016-24.9726L48.3016-24.9726C47.5016-24.9726 46.9016-24.4726 46.8016-23.6726L46.7016-23.2726L45.5016-15.6726L45.4016-15.3726C45.3016-14.6726 44.6016-14.0726 43.9016-14.0726L37.5016-14.0726C36.9016-14.0726 36.5016-14.5726 36.6016-15.1726L37.1016-18.4726L38.9016-30.0726C39.0016-30.8726 39.8016-31.5726 40.6016-31.5726L44.2016-31.5726C51.2016-31.5726 56.7016-34.4726 58.3016-42.6726C58.3016-42.8726 58.4016-43.1726 58.4016-43.3726C59.1016-42.9726 59.7016-42.5726 60.1016-42.0726C61.9016-40.25 62.2016-37.6726 61.6016-34.6726Z"/>
   <path class="multicolor-2:systemBlueColor hierarchical-2:primary SFSymbolsPreview007AFF" d="M34.7242-20.8726L27.2242-20.8726C26.6242-20.8726 26.1242-21.4726 26.2242-22.0726L31.3242-54.2726C31.4242-55.0726 32.2242-55.7726 33.0242-55.7726L45.2242-55.7726C49.4242-55.7726 52.7242-54.8726 54.5242-52.7726C56.2242-50.8726 56.6242-48.7726 56.2242-45.7726L56.2242-45.7726C56.2242-45.5726 56.1242-45.2726 56.1242-45.0726C54.5242-36.7726 49.0242-33.9726 42.0242-33.9726L38.3468-33.9726C37.4468-33.9726 36.7468-33.3726 36.6468-32.4726L36.7468-32.8726L34.7242-20.8726Z"/>
  </g>
  <g id="Ultralight-S" transform="matrix(1 0 0 1 516.111 696)">
   <path class="multicolor-0:tintColor hierarchical-0:tertiary SFSymbolsPreview007AFF" d="M74.65-65.95C72.95-67.65 70.45-68.55 67.15-68.55L19.95-68.55C16.65-68.55 14.15-67.75 12.45-66.05C10.75-64.35 9.95-61.85 9.95-58.65L9.95-11.45C9.95-8.15 10.75-5.65 12.45-3.95C14.15-2.25 16.65-1.45 19.95-1.45L67.15-1.45C70.45-1.45 72.95-2.35 74.65-4.05C76.35-5.75 77.15-8.25 77.15-11.45L77.15-58.65C77.15-61.75 76.35-64.25 74.65-65.95Z"/>
   <path class="multicolor-1:systemCyanColor hierarchical-1:secondary SFSymbolsPreview55BEF0" d="M61.15-34.65C59.75-27.45 54.95-24.95 48.75-24.95L47.85-24.95C47.05-24.95 46.45-24.45 46.35-23.65L46.25-23.25L45.05-15.65L44.95-15.35C44.85-14.65 44.15-14.05 43.45-14.05L37.05-14.05C36.45-14.05 36.05-14.55 36.15-15.15L36.65-18.45L38.45-30.05C38.55-30.85 39.35-31.55 40.15-31.55L43.75-31.55C50.75-31.55 56.25-34.45 57.85-42.65C57.85-42.85 57.95-43.15 57.95-43.35C58.65-42.95 59.25-42.55 59.65-42.05C61.45-40.25 61.75-37.65 61.15-34.65Z"/>
   <path class="multicolor-2:systemBlueColor hierarchical-2:primary SFSymbolsPreview007AFF" d="M34.25-20.85L26.75-20.85C26.15-20.85 25.65-21.45 25.75-22.05L30.85-54.25C30.95-55.05 31.75-55.75 32.55-55.75L44.75-55.75C48.95-55.75 52.25-54.85 54.05-52.75C55.75-50.85 56.15-48.75 55.75-45.75L55.75-45.75C55.75-45.55 55.65-45.25 55.65-45.05C54.05-36.75 48.55-33.95 41.55-33.95L37.85-33.95C36.95-33.95 36.25-33.35 36.15-32.45L36.25-32.85L34.25-20.85Z"/>
  </g>
 </g>
</svg>
