<?xml version="1.0" encoding="UTF-8"?>
<!--Generator: Apple Native CoreSVG 149-->
<!DOCTYPE svg
PUBLIC "-//W3C//DTD SVG 1.1//EN"
       "http://www.w3.org/Graphics/SVG/1.1/DTD/svg11.dtd">
<svg version="1.1" xmlns="http://www.w3.org/2000/svg" xmlns:xlink="http://www.w3.org/1999/xlink" width="3300" height="2200">
 <!--glyph: "", point size: 100.0, font version: "17.0d9e1", template writer version: "59"-->
 <style>.multicolor-0:systemBlueColor {fill:#007AFF;opacity:1.0}

.SFSymbolsPreview007AFF {fill:#007AFF;opacity:1.0}
</style>
 <g id="Notes">
  <rect height="2200" id="artboard" style="fill:white;opacity:1" width="3300" x="0" y="0"/>
  <line style="fill:none;stroke:black;opacity:1;stroke-width:0.5;" x1="263" x2="3036" y1="292" y2="292"/>
  <text style="stroke:none;fill:black;font-family:sans-serif;font-size:13;font-weight:bold;" transform="matrix(1 0 0 1 263 322)">Weight/Scale Variations</text>
  <text style="stroke:none;fill:black;font-family:sans-serif;font-size:13;text-anchor:middle;" transform="matrix(1 0 0 1 559.711 322)">Ultralight</text>
  <text style="stroke:none;fill:black;font-family:sans-serif;font-size:13;text-anchor:middle;" transform="matrix(1 0 0 1 856.422 322)">Thin</text>
  <text style="stroke:none;fill:black;font-family:sans-serif;font-size:13;text-anchor:middle;" transform="matrix(1 0 0 1 1153.13 322)">Light</text>
  <text style="stroke:none;fill:black;font-family:sans-serif;font-size:13;text-anchor:middle;" transform="matrix(1 0 0 1 1449.84 322)">Regular</text>
  <text style="stroke:none;fill:black;font-family:sans-serif;font-size:13;text-anchor:middle;" transform="matrix(1 0 0 1 1746.56 322)">Medium</text>
  <text style="stroke:none;fill:black;font-family:sans-serif;font-size:13;text-anchor:middle;" transform="matrix(1 0 0 1 2043.27 322)">Semibold</text>
  <text style="stroke:none;fill:black;font-family:sans-serif;font-size:13;text-anchor:middle;" transform="matrix(1 0 0 1 2339.98 322)">Bold</text>
  <text style="stroke:none;fill:black;font-family:sans-serif;font-size:13;text-anchor:middle;" transform="matrix(1 0 0 1 2636.69 322)">Heavy</text>
  <text style="stroke:none;fill:black;font-family:sans-serif;font-size:13;text-anchor:middle;" transform="matrix(1 0 0 1 2933.4 322)">Black</text>
  <line style="fill:none;stroke:black;opacity:1;stroke-width:0.5;" x1="263" x2="3036" y1="1903" y2="1903"/>
  <g transform="matrix(1 0 0 1 263 1933)">
   <path d="M9.24805 0.830078Q10.8691 0.830078 12.2949 0.214844Q13.7207-0.400391 14.8096-1.49414Q15.8984-2.58789 16.5186-4.01367Q17.1387-5.43945 17.1387-7.05078Q17.1387-8.66211 16.5186-10.0879Q15.8984-11.5137 14.8047-12.6074Q13.7109-13.7012 12.2852-14.3164Q10.8594-14.9316 9.23828-14.9316Q7.62695-14.9316 6.20117-14.3164Q4.77539-13.7012 3.69141-12.6074Q2.60742-11.5137 1.9873-10.0879Q1.36719-8.66211 1.36719-7.05078Q1.36719-5.43945 1.9873-4.01367Q2.60742-2.58789 3.69629-1.49414Q4.78516-0.400391 6.21094 0.214844Q7.63672 0.830078 9.24805 0.830078ZM9.24805-0.654297Q7.91992-0.654297 6.7627-1.14746Q5.60547-1.64062 4.73145-2.51953Q3.85742-3.39844 3.36426-4.56055Q2.87109-5.72266 2.87109-7.05078Q2.87109-8.37891 3.35938-9.54102Q3.84766-10.7031 4.72168-11.582Q5.5957-12.4609 6.75293-12.9541Q7.91016-13.4473 9.23828-13.4473Q10.5762-13.4473 11.7334-12.9541Q12.8906-12.4609 13.7695-11.582Q14.6484-10.7031 15.1465-9.54102Q15.6445-8.37891 15.6445-7.05078Q15.6445-5.72266 15.1514-4.56055Q14.6582-3.39844 13.7842-2.51953Q12.9102-1.64062 11.748-1.14746Q10.5859-0.654297 9.24805-0.654297ZM5.83984-7.04102Q5.83984-6.71875 6.04492-6.51855Q6.25-6.31836 6.5918-6.31836L8.50586-6.31836L8.50586-4.39453Q8.50586-4.0625 8.70605-3.85742Q8.90625-3.65234 9.22852-3.65234Q9.56055-3.65234 9.76562-3.85742Q9.9707-4.0625 9.9707-4.39453L9.9707-6.31836L11.8945-6.31836Q12.2266-6.31836 12.4316-6.51855Q12.6367-6.71875 12.6367-7.04102Q12.6367-7.37305 12.4316-7.57812Q12.2266-7.7832 11.8945-7.7832L9.9707-7.7832L9.9707-9.69727Q9.9707-10.0391 9.76562-10.2441Q9.56055-10.4492 9.22852-10.4492Q8.90625-10.4492 8.70605-10.2441Q8.50586-10.0391 8.50586-9.69727L8.50586-7.7832L6.5918-7.7832Q6.25-7.7832 6.04492-7.57812Q5.83984-7.37305 5.83984-7.04102Z"/>
  </g>
  <g transform="matrix(1 0 0 1 281.867 1933)">
   <path d="M11.709 2.91016Q13.75 2.91016 15.5518 2.12891Q17.3535 1.34766 18.7305-0.0292969Q20.1074-1.40625 20.8887-3.20801Q21.6699-5.00977 21.6699-7.05078Q21.6699-9.0918 20.8887-10.8936Q20.1074-12.6953 18.7305-14.0723Q17.3535-15.4492 15.5469-16.2305Q13.7402-17.0117 11.6992-17.0117Q9.6582-17.0117 7.85645-16.2305Q6.05469-15.4492 4.68262-14.0723Q3.31055-12.6953 2.5293-10.8936Q1.74805-9.0918 1.74805-7.05078Q1.74805-5.00977 2.5293-3.20801Q3.31055-1.40625 4.6875-0.0292969Q6.06445 1.34766 7.86621 2.12891Q9.66797 2.91016 11.709 2.91016ZM11.709 1.25Q9.98047 1.25 8.47656 0.605469Q6.97266-0.0390625 5.83496-1.17676Q4.69727-2.31445 4.05762-3.81836Q3.41797-5.32227 3.41797-7.05078Q3.41797-8.7793 4.05762-10.2832Q4.69727-11.7871 5.83008-12.9297Q6.96289-14.0723 8.4668-14.7119Q9.9707-15.3516 11.6992-15.3516Q13.4277-15.3516 14.9316-14.7119Q16.4355-14.0723 17.5781-12.9297Q18.7207-11.7871 19.3652-10.2832Q20.0098-8.7793 20.0098-7.05078Q20.0098-5.32227 19.3701-3.81836Q18.7305-2.31445 17.5928-1.17676Q16.4551-0.0390625 14.9463 0.605469Q13.4375 1.25 11.709 1.25ZM7.39258-7.04102Q7.39258-6.68945 7.62695-6.46484Q7.86133-6.24023 8.23242-6.24023L10.8789-6.24023L10.8789-3.57422Q10.8789-3.21289 11.1035-2.9834Q11.3281-2.75391 11.6797-2.75391Q12.0508-2.75391 12.2852-2.9834Q12.5195-3.21289 12.5195-3.57422L12.5195-6.24023L15.1758-6.24023Q15.5371-6.24023 15.7715-6.46484Q16.0059-6.68945 16.0059-7.04102Q16.0059-7.41211 15.7715-7.6416Q15.5371-7.87109 15.1758-7.87109L12.5195-7.87109L12.5195-10.5176Q12.5195-10.8984 12.2852-11.1279Q12.0508-11.3574 11.6797-11.3574Q11.3281-11.3574 11.1035-11.1279Q10.8789-10.8984 10.8789-10.5176L10.8789-7.87109L8.23242-7.87109Q7.85156-7.87109 7.62207-7.6416Q7.39258-7.41211 7.39258-7.04102Z"/>
  </g>
  <g transform="matrix(1 0 0 1 305.646 1933)">
   <path d="M14.9707 5.66406Q17.0605 5.66406 18.96 5.01465Q20.8594 4.36523 22.4512 3.19336Q24.043 2.02148 25.2197 0.429688Q26.3965-1.16211 27.0459-3.06641Q27.6953-4.9707 27.6953-7.05078Q27.6953-9.14062 27.0459-11.04Q26.3965-12.9395 25.2197-14.5312Q24.043-16.123 22.4512-17.2998Q20.8594-18.4766 18.9551-19.126Q17.0508-19.7754 14.9609-19.7754Q12.8711-19.7754 10.9717-19.126Q9.07227-18.4766 7.48535-17.2998Q5.89844-16.123 4.72168-14.5312Q3.54492-12.9395 2.90039-11.04Q2.25586-9.14062 2.25586-7.05078Q2.25586-4.9707 2.90527-3.06641Q3.55469-1.16211 4.72656 0.429688Q5.89844 2.02148 7.49023 3.19336Q9.08203 4.36523 10.9814 5.01465Q12.8809 5.66406 14.9707 5.66406ZM14.9707 3.84766Q13.1641 3.84766 11.5283 3.2959Q9.89258 2.74414 8.53516 1.74805Q7.17773 0.751953 6.17676-0.610352Q5.17578-1.97266 4.62891-3.6084Q4.08203-5.24414 4.08203-7.05078Q4.08203-8.86719 4.62891-10.5029Q5.17578-12.1387 6.17188-13.501Q7.16797-14.8633 8.52539-15.8594Q9.88281-16.8555 11.5186-17.4023Q13.1543-17.9492 14.9609-17.9492Q16.7773-17.9492 18.4131-17.4023Q20.0488-16.8555 21.4111-15.8594Q22.7734-14.8633 23.7695-13.501Q24.7656-12.1387 25.3174-10.5029Q25.8691-8.86719 25.8691-7.05078Q25.8789-5.24414 25.332-3.6084Q24.7852-1.97266 23.7842-0.610352Q22.7832 0.751953 21.4209 1.74805Q20.0586 2.74414 18.4229 3.2959Q16.7871 3.84766 14.9707 3.84766ZM9.45312-7.04102Q9.45312-6.66016 9.71191-6.41113Q9.9707-6.16211 10.3711-6.16211L14.0625-6.16211L14.0625-2.46094Q14.0625-2.06055 14.3115-1.80664Q14.5605-1.55273 14.9414-1.55273Q15.3516-1.55273 15.6055-1.80664Q15.8594-2.06055 15.8594-2.46094L15.8594-6.16211L19.5605-6.16211Q19.9609-6.16211 20.2148-6.41113Q20.4688-6.66016 20.4688-7.04102Q20.4688-7.45117 20.2148-7.70508Q19.9609-7.95898 19.5605-7.95898L15.8594-7.95898L15.8594-11.6504Q15.8594-12.0605 15.6055-12.3145Q15.3516-12.5684 14.9414-12.5684Q14.5605-12.5684 14.3115-12.3096Q14.0625-12.0508 14.0625-11.6504L14.0625-7.95898L10.3711-7.95898Q9.96094-7.95898 9.70703-7.70508Q9.45312-7.45117 9.45312-7.04102Z"/>
  </g>
  <text style="stroke:none;fill:black;font-family:sans-serif;font-size:13;font-weight:bold;" transform="matrix(1 0 0 1 263 1953)">Design Variations</text>
  <text style="stroke:none;fill:black;font-family:sans-serif;font-size:13;" transform="matrix(1 0 0 1 263 1971)">Symbols are supported in up to nine weights and three scales.</text>
  <text style="stroke:none;fill:black;font-family:sans-serif;font-size:13;" transform="matrix(1 0 0 1 263 1989)">For optimal layout with text and other symbols, vertically align</text>
  <text style="stroke:none;fill:black;font-family:sans-serif;font-size:13;" transform="matrix(1 0 0 1 263 2007)">symbols with the adjacent text.</text>
  <line style="fill:none;stroke:#00AEEF;stroke-width:0.5;opacity:1.0;" x1="776" x2="776" y1="1919" y2="1933"/>
  <g transform="matrix(1 0 0 1 776 1933)">
   <path d="M3.31055 0.15625Q3.70117 0.15625 3.91602-0.00976562Q4.13086-0.175781 4.26758-0.585938L5.52734-4.0332L11.2891-4.0332L12.5488-0.585938Q12.6855-0.175781 12.9004-0.00976562Q13.1152 0.15625 13.4961 0.15625Q13.8867 0.15625 14.1162-0.0585938Q14.3457-0.273438 14.3457-0.644531Q14.3457-0.869141 14.2383-1.17188L9.6582-13.3691Q9.48242-13.8184 9.17969-14.043Q8.87695-14.2676 8.4082-14.2676Q7.5-14.2676 7.17773-13.3789L2.59766-1.16211Q2.49023-0.859375 2.49023-0.634766Q2.49023-0.263672 2.70996-0.0537109Q2.92969 0.15625 3.31055 0.15625ZM6.00586-5.51758L8.37891-12.0898L8.42773-12.0898L10.8008-5.51758Z"/>
  </g>
  <line style="fill:none;stroke:#00AEEF;stroke-width:0.5;opacity:1.0;" x1="793.197" x2="793.197" y1="1919" y2="1933"/>
  <text style="stroke:none;fill:black;font-family:sans-serif;font-size:13;font-weight:bold;" transform="matrix(1 0 0 1 776 1953)">Margins</text>
  <text style="stroke:none;fill:black;font-family:sans-serif;font-size:13;" transform="matrix(1 0 0 1 776 1971)">Leading and trailing margins on the left and right side of each symbol</text>
  <text style="stroke:none;fill:black;font-family:sans-serif;font-size:13;" transform="matrix(1 0 0 1 776 1989)">can be adjusted by modifying the x-location of the margin guidelines.</text>
  <text style="stroke:none;fill:black;font-family:sans-serif;font-size:13;" transform="matrix(1 0 0 1 776 2007)">Modifications are automatically applied proportionally to all</text>
  <text style="stroke:none;fill:black;font-family:sans-serif;font-size:13;" transform="matrix(1 0 0 1 776 2025)">scales and weights.</text>
  <g transform="matrix(1 0 0 1 1289 1933)">
   <path d="M2.8418 1.86523L4.54102 3.57422Q5.18555 4.22852 5.90332 4.17969Q6.62109 4.13086 7.31445 3.35938L18.0078-8.42773L17.041-9.4043L6.42578 2.27539Q6.16211 2.57812 5.89355 2.61719Q5.625 2.65625 5.27344 2.30469L4.10156 1.14258Q3.75 0.791016 3.79395 0.522461Q3.83789 0.253906 4.14062-0.0195312L15.6152-10.8203L14.6387-11.7871L3.04688-0.898438Q2.30469-0.214844 2.25098 0.498047Q2.19727 1.21094 2.8418 1.86523ZM9.25781-16.3281Q8.94531-16.0254 8.90625-15.6348Q8.86719-15.2441 9.04297-14.9512Q9.21875-14.6777 9.55566-14.541Q9.89258-14.4043 10.3809-14.5215Q11.4746-14.7754 12.5977-14.7314Q13.7207-14.6875 14.7949-13.9844L14.209-12.5293Q13.9551-11.9043 14.0674-11.4404Q14.1797-10.9766 14.5801-10.5664L16.875-8.25195Q17.2363-7.88086 17.5781-7.82227Q17.9199-7.76367 18.3398-7.8418L19.4043-8.03711L20.0684-7.36328L20.0293-6.80664Q20-6.43555 20.1221-6.12305Q20.2441-5.81055 20.6055-5.44922L21.3672-4.70703Q21.7285-4.3457 22.1533-4.33105Q22.5781-4.31641 22.9297-4.66797L25.8398-7.58789Q26.1914-7.93945 26.1816-8.35449Q26.1719-8.76953 25.8105-9.13086L25.0391-9.89258Q24.6875-10.2539 24.3799-10.3857Q24.0723-10.5176 23.7109-10.4883L23.1348-10.4395L22.4902-11.0742L22.7344-12.1973Q22.832-12.6172 22.6953-12.9834Q22.5586-13.3496 22.1191-13.7891L19.9219-15.9766Q18.6719-17.2168 17.2607-17.8369Q15.8496-18.457 14.4189-18.4814Q12.9883-18.5059 11.665-17.959Q10.3418-17.4121 9.25781-16.3281ZM10.752-15.957Q11.6602-16.6211 12.7002-16.9043Q13.7402-17.1875 14.8047-17.085Q15.8691-16.9824 16.8701-16.5137Q17.8711-16.0449 18.7012-15.2051L21.1328-12.793Q21.3086-12.6172 21.3525-12.4512Q21.3965-12.2852 21.3379-12.0312L21.0156-10.5469L22.5195-9.0625L23.5059-9.12109Q23.6914-9.13086 23.7891-9.09668Q23.8867-9.0625 24.0332-8.91602L24.6094-8.33984L22.168-5.89844L21.5918-6.47461Q21.4453-6.62109 21.4062-6.71875Q21.3672-6.81641 21.377-7.01172L21.4453-7.98828L19.9512-9.47266L18.4277-9.21875Q18.1836-9.16992 18.042-9.2041Q17.9004-9.23828 17.7148-9.41406L15.7129-11.416Q15.5176-11.5918 15.4932-11.7529Q15.4688-11.9141 15.5859-12.1875L16.4648-14.2773Q15.293-15.3711 13.8281-15.791Q12.3633-16.2109 10.8398-15.7617Q10.7227-15.7324 10.6885-15.8057Q10.6543-15.8789 10.752-15.957Z"/>
  </g>
  <text style="stroke:none;fill:black;font-family:sans-serif;font-size:13;font-weight:bold;" transform="matrix(1 0 0 1 1289 1953)">Exporting</text>
  <text style="stroke:none;fill:black;font-family:sans-serif;font-size:13;" transform="matrix(1 0 0 1 1289 1971)">Symbols should be outlined when exporting to ensure the</text>
  <text style="stroke:none;fill:black;font-family:sans-serif;font-size:13;" transform="matrix(1 0 0 1 1289 1989)">design is preserved when submitting to Xcode.</text>
  <text id="template-version" style="stroke:none;fill:black;font-family:sans-serif;font-size:13;text-anchor:end;" transform="matrix(1 0 0 1 3036 1933)">Template v.3.0</text>
  <text style="stroke:none;fill:black;font-family:sans-serif;font-size:13;text-anchor:end;" transform="matrix(1 0 0 1 3036 1951)">Requires Xcode 13 or greater</text>
  <text id="descriptive-name" style="stroke:none;fill:black;font-family:sans-serif;font-size:13;text-anchor:end;" transform="matrix(1 0 0 1 3036 1969)">Generated from logo.bluetooth</text>
  <text style="stroke:none;fill:black;font-family:sans-serif;font-size:13;text-anchor:end;" transform="matrix(1 0 0 1 3036 1987)">Typeset at 100 points</text>
  <text style="stroke:none;fill:black;font-family:sans-serif;font-size:13;" transform="matrix(1 0 0 1 263 726)">Small</text>
  <text style="stroke:none;fill:black;font-family:sans-serif;font-size:13;" transform="matrix(1 0 0 1 263 1156)">Medium</text>
  <text style="stroke:none;fill:black;font-family:sans-serif;font-size:13;" transform="matrix(1 0 0 1 263 1586)">Large</text>
 </g>
 <g id="Guides">
  <g id="H-reference" style="fill:#27AAE1;stroke:none;" transform="matrix(1 0 0 1 339 696)">
   <path d="M0.976562 0L3.66211 0L29.3457-67.1387L30.0293-67.1387L30.0293-70.459L28.125-70.459ZM11.6699-24.4629L46.9727-24.4629L46.2402-26.709L12.4512-26.709ZM55.127 0L57.7637 0L30.6152-70.459L29.4434-70.459L29.4434-67.1387Z"/>
  </g>
  <line id="Baseline-S" style="fill:none;stroke:#27AAE1;opacity:1;stroke-width:0.5;" x1="263" x2="3036" y1="696" y2="696"/>
  <line id="Capline-S" style="fill:none;stroke:#27AAE1;opacity:1;stroke-width:0.5;" x1="263" x2="3036" y1="625.541" y2="625.541"/>
  <g id="H-reference" style="fill:#27AAE1;stroke:none;" transform="matrix(1 0 0 1 339 1126)">
   <path d="M0.976562 0L3.66211 0L29.3457-67.1387L30.0293-67.1387L30.0293-70.459L28.125-70.459ZM11.6699-24.4629L46.9727-24.4629L46.2402-26.709L12.4512-26.709ZM55.127 0L57.7637 0L30.6152-70.459L29.4434-70.459L29.4434-67.1387Z"/>
  </g>
  <line id="Baseline-M" style="fill:none;stroke:#27AAE1;opacity:1;stroke-width:0.5;" x1="263" x2="3036" y1="1126" y2="1126"/>
  <line id="Capline-M" style="fill:none;stroke:#27AAE1;opacity:1;stroke-width:0.5;" x1="263" x2="3036" y1="1055.54" y2="1055.54"/>
  <g id="H-reference" style="fill:#27AAE1;stroke:none;" transform="matrix(1 0 0 1 339 1556)">
   <path d="M0.976562 0L3.66211 0L29.3457-67.1387L30.0293-67.1387L30.0293-70.459L28.125-70.459ZM11.6699-24.4629L46.9727-24.4629L46.2402-26.709L12.4512-26.709ZM55.127 0L57.7637 0L30.6152-70.459L29.4434-70.459L29.4434-67.1387Z"/>
  </g>
  <line id="Baseline-L" style="fill:none;stroke:#27AAE1;opacity:1;stroke-width:0.5;" x1="263" x2="3036" y1="1556" y2="1556"/>
  <line id="Capline-L" style="fill:none;stroke:#27AAE1;opacity:1;stroke-width:0.5;" x1="263" x2="3036" y1="1485.54" y2="1485.54"/>
  <line id="left-margin-Regular-M" style="fill:none;stroke:#00AEEF;stroke-width:0.5;opacity:1.0;" x1="1408.28" x2="1408.28" y1="1030.73" y2="1150.14"/>
  <line id="right-margin-Regular-M" style="fill:none;stroke:#00AEEF;stroke-width:0.5;opacity:1.0;" x1="1491.41" x2="1491.41" y1="1030.73" y2="1150.14"/>
 </g>
 <g id="Symbols">
  <g id="Black-L" transform="matrix(1 0 0 1 2880.96 1556)">
   <path class="multicolor-0:systemBlueColor SFSymbolsPreview007AFF" d="M47.036 36.4538L47.036-24.2309L26.3579-4.00179L19.6157-10.9086L45.4341-36.0709L19.6157-62.1736L26.5226-68.9184L47.0811-48.1978L47.0811-106.085L85.3982-61.8442L59.0858-36.0682L85.2335-9.75575L47.036 36.4538ZM56.7375-24.725L56.7375 9.6446L72.1956-9.10222L56.7375-24.725ZM56.7375-80.1472L56.7375-47.2573L72.0335-62.386L56.7375-80.1472Z"/>
  </g>
  <g id="Heavy-L" transform="matrix(1 0 0 1 2584.04 1556)">
   <path class="multicolor-0:systemBlueColor SFSymbolsPreview007AFF" d="M47.2649 36.0648L47.2649-24.2893L26.722-4.16713L20.0188-11.0351L45.6913-36.0611L20.0188-61.9897L26.8867-68.7053L47.3383-48.1015L47.3383-105.668L85.4414-61.6603L59.2748-36.0488L85.2767-9.88219L47.2649 36.0648ZM56.9081-24.7834L56.9081 9.39172L72.2786-9.24811L56.9081-24.7834ZM56.9081-79.9041L56.9081-47.1989L72.1263-62.2401L56.9081-79.9041Z"/>
  </g>
  <g id="Bold-L" transform="matrix(1 0 0 1 2287.24 1556)">
   <path class="multicolor-0:systemBlueColor SFSymbolsPreview007AFF" d="M47.4031 35.3938L47.4031-24.3899L27.0763-4.4523L20.4402-11.2532L45.861-36.0444L20.4402-61.6897L27.241-68.355L47.508-47.9525L47.508-104.965L85.2422-61.3603L59.3272-36.0152L85.0775-10.1003L47.4031 35.3938ZM56.9456-24.884L56.9456 8.95559L72.1652-9.49973L56.9456-24.884ZM56.9456-79.4847L56.9456-47.0983L72.0296-61.9885L56.9456-79.4847Z"/>
  </g>
  <g id="Semibold-L" transform="matrix(1 0 0 1 1990.46 1556)">
   <path class="multicolor-0:systemBlueColor SFSymbolsPreview007AFF" d="M47.4984 34.9312L47.4984-24.4593L27.3206-4.64889L20.7307-11.4035L45.9781-36.0328L20.7307-61.483L27.4853-68.1136L47.6251-47.8497L47.6251-104.481L85.1048-61.1536L59.3633-35.9921L84.9401-10.2506L47.4984 34.9312ZM56.9715-24.9534L56.9715 8.65492L72.087-9.67319L56.9715-24.9534ZM56.9715-79.1956L56.9715-47.0289L71.963-61.815L56.9715-79.1956Z"/>
  </g>
  <g id="Medium-L" transform="matrix(1 0 0 1 1693.7 1556)">
   <path class="multicolor-0:systemBlueColor SFSymbolsPreview007AFF" d="M47.5706 34.5805L47.5706-24.5119L27.5058-4.79795L20.9509-11.5175L46.0668-36.024L20.9509-61.3261L27.6705-67.9304L47.7138-47.7719L47.7138-104.114L85.0006-60.9967L59.3906-35.9746L84.8359-10.3646L47.5706 34.5805ZM56.9911-25.006L56.9911 8.42694L72.0277-9.80471L56.9911-25.006ZM56.9911-78.9764L56.9911-46.9763L71.9125-61.6835L56.9911-78.9764Z"/>
  </g>
  <g id="Regular-L" transform="matrix(1 0 0 1 1396.92 1556)">
   <path class="multicolor-0:systemBlueColor SFSymbolsPreview007AFF" d="M47.6649 34.123L47.6649-24.5805L27.7473-4.99238L21.2382-11.6662L46.1826-36.0126L21.2382-61.1216L27.912-67.6916L47.8296-47.6703L47.8296-103.635L84.8648-60.7922L59.4263-35.9517L84.7001-10.5133L47.6649 34.123ZM57.0167-25.0746L57.0167 8.12958L71.9504-9.97627L57.0167-25.0746ZM57.0167-78.6905L57.0167-46.9077L71.8466-61.5119L57.0167-78.6905Z"/>
  </g>
  <g id="Light-L" transform="matrix(1 0 0 1 1101.2 1556)">
   <path class="multicolor-0:systemBlueColor SFSymbolsPreview007AFF" d="M46.8243 32.4419L46.8243-24.8327L27.3691-5.70687L21.0281-12.2125L45.342-35.9706L21.0281-60.4492L27.5338-66.8931L46.989-47.3761L46.989-101.954L83.0995-60.1198L58.2916-35.8676L82.9348-11.0596L46.8243 32.4419ZM55.924-25.3268L55.924 7.03683L70.4794-10.6067L55.924-25.3268ZM55.924-77.6398L55.924-46.6555L70.4176-60.8815L55.924-77.6398Z"/>
  </g>
  <g id="Thin-L" transform="matrix(1 0 0 1 805.796 1556)">
   <path class="multicolor-0:systemBlueColor SFSymbolsPreview007AFF" d="M45.7126 30.2184L45.7126-25.1662L26.8688-6.65185L20.7502-12.9352L44.2303-35.915L20.7502-59.5598L27.0335-65.8369L45.8773-46.987L45.8773-99.7302L80.7649-59.2304L56.7907-35.7565L80.6002-11.7823L45.7126 30.2184ZM54.4787-25.6603L54.4787 5.59157L68.5338-11.4405L54.4787-25.6603ZM54.4787-76.2501L54.4787-46.322L68.5277-60.0477L54.4787-76.2501Z"/>
  </g>
  <g id="Ultralight-L" transform="matrix(1 0 0 1 509.754 1556)">
   <path class="multicolor-0:systemBlueColor SFSymbolsPreview007AFF" d="M45.1431 29.0795L45.1431-25.337L26.6125-7.13586L20.6078-13.3053L43.6608-35.8865L20.6078-59.1042L26.7772-65.296L45.3078-46.7877L45.3078-98.5913L79.5691-58.7748L56.022-35.6995L79.4044-12.1524L45.1431 29.0795ZM53.7385-25.8311L53.7385 4.85132L67.5374-11.8676L53.7385-25.8311ZM53.7385-75.5383L53.7385-46.1512L67.5596-59.6206L53.7385-75.5383Z"/>
  </g>
  <g id="Black-M" transform="matrix(1 0 0 1 2893.09 1126)">
   <path class="multicolor-0:systemBlueColor SFSymbolsPreview007AFF" d="M36.1301 20.4085L36.1301-26.6971L20.0564-10.9954L14.8223-16.3571L34.8648-35.8886L14.8223-56.1757L20.184-61.4092L36.1408-45.3241L36.1408-90.2599L65.8853-55.9205L45.46-35.8892L65.7577-15.4639L36.1301 20.4085ZM43.6623-27.0799L43.6623-0.398993L55.6623-14.9522L43.6623-27.0799ZM43.6623-70.1004L43.6623-44.5685L55.5341-56.3134L43.6623-70.1004Z"/>
  </g>
  <g id="Heavy-M" transform="matrix(1 0 0 1 2596.08 1126)">
   <path class="multicolor-0:systemBlueColor SFSymbolsPreview007AFF" d="M36.4315 20.1833L36.4315-26.7308L20.4472-11.0911L15.2357-16.4303L35.1937-35.883L15.2357-56.058L20.5748-61.2746L36.4697-45.2571L36.4697-90.007L66.0904-55.8028L45.7495-35.878L65.9628-15.5371L36.4315 20.1833ZM43.9298-27.1136L43.9298-0.545389L55.8792-15.0367L43.9298-27.1136ZM43.9298-69.9596L43.9298-44.5348L55.7566-56.2289L43.9298-69.9596Z"/>
  </g>
  <g id="Bold-M" transform="matrix(1 0 0 1 2299.04 1126)">
   <path class="multicolor-0:systemBlueColor SFSymbolsPreview007AFF" d="M36.7686 19.9314L36.7686-26.7686L20.8845-11.1982L15.6981-16.5122L35.5617-35.8767L15.6981-55.9264L21.0121-61.1241L36.8377-45.1821L36.8377-89.7242L66.3198-55.6712L46.0734-35.8654L66.1922-15.619L36.7686 19.9314ZM44.2291-27.1514L44.2291-0.709154L56.1218-15.1312L44.2291-27.1514ZM44.2291-69.8022L44.2291-44.497L56.0055-56.1344L44.2291-69.8022Z"/>
  </g>
  <g id="Semibold-M" transform="matrix(1 0 0 1 2002.1 1126)">
   <path class="multicolor-0:systemBlueColor SFSymbolsPreview007AFF" d="M37.0009 19.7577L37.0009-26.7947L21.1859-11.272L16.0169-16.5686L35.8154-35.8724L16.0169-55.8356L21.3135-61.0203L37.0914-45.1304L37.0914-89.5293L66.4779-55.5804L46.2966-35.8567L66.3503-15.6754L37.0009 19.7577ZM44.4355-27.1775L44.4355-0.822052L56.289-15.1963L44.4355-27.1775ZM44.4355-69.6936L44.4355-44.4709L56.1771-56.0693L44.4355-69.6936Z"/>
  </g>
  <g id="Medium-M" transform="matrix(1 0 0 1 1705.22 1126)">
   <path class="multicolor-0:systemBlueColor SFSymbolsPreview007AFF" d="M37.1771 19.626L37.1771-26.8144L21.4144-11.328L16.2586-16.6114L36.0077-35.8691L16.2586-55.7668L21.542-60.9416L37.2837-45.0913L37.2837-89.3814L66.5978-55.5116L46.4659-35.8501L66.4702-15.7182L37.1771 19.626ZM44.5919-27.1972L44.5919-0.907656L56.4158-15.2457L44.5919-27.1972ZM44.5919-69.6113L44.5919-44.4512L56.3072-56.0199L44.5919-69.6113Z"/>
  </g>
  <g id="Regular-M" transform="matrix(1 0 0 1 1408.28 1126)">
   <path class="multicolor-0:systemBlueColor SFSymbolsPreview007AFF" d="M37.407 19.4542L37.407-26.8402L21.7126-11.401L16.5739-16.6673L36.2586-35.8648L16.5739-55.677L21.8402-60.8389L37.5346-45.0402L37.5346-89.1886L66.7542-55.4218L46.6867-35.8415L66.6266-15.7741L37.407 19.4542ZM44.796-27.223L44.796-1.01931L56.5812-15.3101L44.796-27.223ZM44.796-69.5039L44.796-44.4254L56.4769-55.9555L44.796-69.5039Z"/>
  </g>
  <g id="Light-M" transform="matrix(1 0 0 1 1112.46 1126)">
   <path class="multicolor-0:systemBlueColor SFSymbolsPreview007AFF" d="M36.6534 17.9469L36.6534-27.0663L21.3734-12.0416L16.3855-17.1571L35.505-35.8271L16.3855-55.0741L21.501-60.123L36.781-44.7764L36.781-87.6813L65.1716-54.8189L45.6693-35.7662L65.044-16.2639L36.6534 17.9469ZM43.8163-27.4491L43.8163-1.99902L55.2624-15.8753L43.8163-27.4491ZM43.8163-68.5619L43.8163-44.1993L55.1957-55.3903L43.8163-68.5619Z"/>
  </g>
  <g id="Thin-M" transform="matrix(1 0 0 1 816.917 1126)">
   <path class="multicolor-0:systemBlueColor SFSymbolsPreview007AFF" d="M35.6566 15.9535L35.6566-27.3653L20.9249-12.8888L16.1363-17.805L34.5082-35.7772L16.1363-54.2768L21.0525-59.1761L35.7842-44.4275L35.7842-85.6879L63.0785-54.0216L44.3238-35.6665L62.9509-16.9118L35.6566 15.9535ZM42.5205-27.7481L42.5205-3.29477L53.5181-16.6229L42.5205-27.7481ZM42.5205-67.316L42.5205-43.9003L53.5013-54.6427L42.5205-67.316Z"/>
  </g>
  <g id="Ultralight-M" transform="matrix(1 0 0 1 520.806 1126)">
   <path class="multicolor-0:systemBlueColor SFSymbolsPreview007AFF" d="M35.1461 14.9325L35.1461-27.5185L20.6952-13.3227L16.0087-18.1368L33.9977-35.7517L16.0087-53.8683L20.8228-58.6911L35.2737-44.2488L35.2737-84.6669L62.0064-53.6131L43.6346-35.6154L61.8788-17.2436L35.1461 14.9325ZM41.8568-27.9013L41.8568-3.95844L52.6247-17.0058L41.8568-27.9013ZM41.8568-66.6778L41.8568-43.7471L52.6334-54.2598L41.8568-66.6778Z"/>
  </g>
  <g id="Black-S" transform="matrix(1 0 0 1 2901.95 696)">
   <path class="multicolor-0:systemBlueColor SFSymbolsPreview007AFF" d="M28.18 8.35L28.18-28.55L15.58-16.25L11.48-20.45L27.18-35.75L11.48-51.65L15.68-55.75L28.18-43.15L28.18-78.35L51.48-51.45L35.48-35.75L51.38-19.75L28.18 8.35ZM34.08-28.85L34.08-7.95L43.48-19.35L34.08-28.85ZM34.08-62.55L34.08-42.55L43.38-51.75L34.08-62.55Z"/>
  </g>
  <g id="Heavy-S" transform="matrix(1 0 0 1 2604.87 696)">
   <path class="multicolor-0:systemBlueColor SFSymbolsPreview007AFF" d="M28.534 8.35L28.534-28.55L15.9576-16.25L11.8576-20.45L27.5576-35.75L11.8576-51.6264L16.0576-55.7264L28.5576-43.1264L28.5576-78.3264L51.8576-51.4264L35.8576-35.75L51.7576-19.75L28.534 8.35ZM34.434-28.85L34.434-7.95L43.834-19.35L34.434-28.85ZM34.434-62.55L34.434-42.55L43.734-51.75L34.434-62.55Z"/>
  </g>
  <g id="Bold-S" transform="matrix(1 0 0 1 2307.75 696)">
   <path class="multicolor-0:systemBlueColor SFSymbolsPreview007AFF" d="M28.93 8.35L28.93-28.55L16.38-16.25L12.28-20.45L27.98-35.75L12.28-51.6L16.48-55.7L28.98-43.1L28.98-78.3L52.28-51.4L36.28-35.75L52.18-19.75L28.93 8.35ZM34.83-28.85L34.83-7.95L44.23-19.35L34.83-28.85ZM34.83-62.55L34.83-42.55L44.13-51.75L34.83-62.55Z"/>
  </g>
  <g id="Semibold-S" transform="matrix(1 0 0 1 2010.76 696)">
   <path class="multicolor-0:systemBlueColor SFSymbolsPreview007AFF" d="M29.203 8.35L29.203-28.55L16.6712-16.25L12.5712-20.45L28.2712-35.75L12.5712-51.5818L16.7712-55.6818L29.2712-43.0818L29.2712-78.2818L52.5712-51.3818L36.5712-35.75L52.4712-19.75L29.203 8.35ZM35.103-28.85L35.103-7.95L44.503-19.35L35.103-28.85ZM35.103-62.55L35.103-42.55L44.403-51.75L35.103-62.55Z"/>
  </g>
  <g id="Medium-S" transform="matrix(1 0 0 1 1713.83 696)">
   <path class="multicolor-0:systemBlueColor SFSymbolsPreview007AFF" d="M29.41 8.35L29.41-28.55L16.892-16.25L12.792-20.45L28.492-35.75L12.792-51.568L16.992-55.668L29.492-43.068L29.492-78.268L52.792-51.368L36.792-35.75L52.692-19.75L29.41 8.35ZM35.31-28.85L35.31-7.95L44.71-19.35L35.31-28.85ZM35.31-62.55L35.31-42.55L44.61-51.75L35.31-62.55Z"/>
  </g>
  <g id="Regular-S" transform="matrix(1 0 0 1 1416.84 696)">
   <path class="multicolor-0:systemBlueColor SFSymbolsPreview007AFF" d="M29.68 8.35L29.68-28.55L17.18-16.25L13.08-20.45L28.78-35.75L13.08-51.55L17.28-55.65L29.78-43.05L29.78-78.25L53.08-51.35L37.08-35.75L52.98-19.75L29.68 8.35ZM35.58-28.85L35.58-7.95L44.98-19.35L35.58-28.85ZM35.58-62.55L35.58-42.55L44.88-51.75L35.58-62.55Z"/>
  </g>
  <g id="Light-S" transform="matrix(1 0 0 1 1120.92 696)">
   <path class="multicolor-0:systemBlueColor SFSymbolsPreview007AFF" d="M29.0133 7.01667L29.0133-28.75L16.88-16.8167L12.9133-20.8833L28.1133-35.7167L12.9133-51.0167L16.98-55.0167L29.1133-42.8167L29.1133-76.9167L51.68-50.8167L36.18-35.6833L51.58-20.1833L29.0133 7.01667ZM34.7133-29.05L34.7133-8.81667L43.8133-19.85L34.7133-29.05ZM34.7133-61.7167L34.7133-42.35L43.7467-51.25L34.7133-61.7167Z"/>
  </g>
  <g id="Thin-S" transform="matrix(1 0 0 1 825.242 696)">
   <path class="multicolor-0:systemBlueColor SFSymbolsPreview007AFF" d="M28.1316 5.25323L28.1316-29.0145L16.4832-17.5661L12.6929-21.4565L27.2316-35.6726L12.6929-50.3113L16.5832-54.179L28.2316-42.5081L28.2316-75.1532L49.8284-50.1113L34.9897-35.5952L49.7284-20.7565L28.1316 5.25323ZM33.5671-29.3145L33.5671-9.9629L42.2703-20.5113L33.5671-29.3145ZM33.5671-60.6145L33.5671-42.0855L42.2477-50.5887L33.5671-60.6145Z"/>
  </g>
  <g id="Ultralight-S" transform="matrix(1 0 0 1 529.061 696)">
   <path class="multicolor-0:systemBlueColor SFSymbolsPreview007AFF" d="M27.68 4.35L27.68-29.15L16.28-17.95L12.58-21.75L26.78-35.65L12.58-49.95L16.38-53.75L27.78-42.35L27.78-74.25L48.88-49.75L34.38-35.55L48.78-21.05L27.68 4.35ZM32.98-29.45L32.98-10.55L41.48-20.85L32.98-29.45ZM32.98-60.05L32.98-41.95L41.48-50.25L32.98-60.05Z"/>
  </g>
 </g>
</svg>
