<?xml version="1.0" encoding="UTF-8"?>
<!--Generator: Apple Native CoreSVG 149-->
<!DOCTYPE svg
PUBLIC "-//W3C//DTD SVG 1.1//EN"
       "http://www.w3.org/Graphics/SVG/1.1/DTD/svg11.dtd">
<svg version="1.1" xmlns="http://www.w3.org/2000/svg" xmlns:xlink="http://www.w3.org/1999/xlink" width="3300" height="2200">
 <!--glyph: "", point size: 100.0, font version: "17.0d9e1", template writer version: "59"-->
 <g id="Notes">
  <rect height="2200" id="artboard" style="fill:white;opacity:1" width="3300" x="0" y="0"/>
  <line style="fill:none;stroke:black;opacity:1;stroke-width:0.5;" x1="263" x2="3036" y1="292" y2="292"/>
  <text style="stroke:none;fill:black;font-family:sans-serif;font-size:13;font-weight:bold;" transform="matrix(1 0 0 1 263 322)">Weight/Scale Variations</text>
  <text style="stroke:none;fill:black;font-family:sans-serif;font-size:13;text-anchor:middle;" transform="matrix(1 0 0 1 559.711 322)">Ultralight</text>
  <text style="stroke:none;fill:black;font-family:sans-serif;font-size:13;text-anchor:middle;" transform="matrix(1 0 0 1 856.422 322)">Thin</text>
  <text style="stroke:none;fill:black;font-family:sans-serif;font-size:13;text-anchor:middle;" transform="matrix(1 0 0 1 1153.13 322)">Light</text>
  <text style="stroke:none;fill:black;font-family:sans-serif;font-size:13;text-anchor:middle;" transform="matrix(1 0 0 1 1449.84 322)">Regular</text>
  <text style="stroke:none;fill:black;font-family:sans-serif;font-size:13;text-anchor:middle;" transform="matrix(1 0 0 1 1746.56 322)">Medium</text>
  <text style="stroke:none;fill:black;font-family:sans-serif;font-size:13;text-anchor:middle;" transform="matrix(1 0 0 1 2043.27 322)">Semibold</text>
  <text style="stroke:none;fill:black;font-family:sans-serif;font-size:13;text-anchor:middle;" transform="matrix(1 0 0 1 2339.98 322)">Bold</text>
  <text style="stroke:none;fill:black;font-family:sans-serif;font-size:13;text-anchor:middle;" transform="matrix(1 0 0 1 2636.69 322)">Heavy</text>
  <text style="stroke:none;fill:black;font-family:sans-serif;font-size:13;text-anchor:middle;" transform="matrix(1 0 0 1 2933.4 322)">Black</text>
  <line style="fill:none;stroke:black;opacity:1;stroke-width:0.5;" x1="263" x2="3036" y1="1903" y2="1903"/>
  <g transform="matrix(1 0 0 1 263 1933)">
   <path d="M9.24805 0.830078Q10.8691 0.830078 12.2949 0.214844Q13.7207-0.400391 14.8096-1.49414Q15.8984-2.58789 16.5186-4.01367Q17.1387-5.43945 17.1387-7.05078Q17.1387-8.66211 16.5186-10.0879Q15.8984-11.5137 14.8047-12.6074Q13.7109-13.7012 12.2852-14.3164Q10.8594-14.9316 9.23828-14.9316Q7.62695-14.9316 6.20117-14.3164Q4.77539-13.7012 3.69141-12.6074Q2.60742-11.5137 1.9873-10.0879Q1.36719-8.66211 1.36719-7.05078Q1.36719-5.43945 1.9873-4.01367Q2.60742-2.58789 3.69629-1.49414Q4.78516-0.400391 6.21094 0.214844Q7.63672 0.830078 9.24805 0.830078ZM9.24805-0.654297Q7.91992-0.654297 6.7627-1.14746Q5.60547-1.64062 4.73145-2.51953Q3.85742-3.39844 3.36426-4.56055Q2.87109-5.72266 2.87109-7.05078Q2.87109-8.37891 3.35938-9.54102Q3.84766-10.7031 4.72168-11.582Q5.5957-12.4609 6.75293-12.9541Q7.91016-13.4473 9.23828-13.4473Q10.5762-13.4473 11.7334-12.9541Q12.8906-12.4609 13.7695-11.582Q14.6484-10.7031 15.1465-9.54102Q15.6445-8.37891 15.6445-7.05078Q15.6445-5.72266 15.1514-4.56055Q14.6582-3.39844 13.7842-2.51953Q12.9102-1.64062 11.748-1.14746Q10.5859-0.654297 9.24805-0.654297ZM5.83984-7.04102Q5.83984-6.71875 6.04492-6.51855Q6.25-6.31836 6.5918-6.31836L8.50586-6.31836L8.50586-4.39453Q8.50586-4.0625 8.70605-3.85742Q8.90625-3.65234 9.22852-3.65234Q9.56055-3.65234 9.76562-3.85742Q9.9707-4.0625 9.9707-4.39453L9.9707-6.31836L11.8945-6.31836Q12.2266-6.31836 12.4316-6.51855Q12.6367-6.71875 12.6367-7.04102Q12.6367-7.37305 12.4316-7.57812Q12.2266-7.7832 11.8945-7.7832L9.9707-7.7832L9.9707-9.69727Q9.9707-10.0391 9.76562-10.2441Q9.56055-10.4492 9.22852-10.4492Q8.90625-10.4492 8.70605-10.2441Q8.50586-10.0391 8.50586-9.69727L8.50586-7.7832L6.5918-7.7832Q6.25-7.7832 6.04492-7.57812Q5.83984-7.37305 5.83984-7.04102Z"/>
  </g>
  <g transform="matrix(1 0 0 1 281.867 1933)">
   <path d="M11.709 2.91016Q13.75 2.91016 15.5518 2.12891Q17.3535 1.34766 18.7305-0.0292969Q20.1074-1.40625 20.8887-3.20801Q21.6699-5.00977 21.6699-7.05078Q21.6699-9.0918 20.8887-10.8936Q20.1074-12.6953 18.7305-14.0723Q17.3535-15.4492 15.5469-16.2305Q13.7402-17.0117 11.6992-17.0117Q9.6582-17.0117 7.85645-16.2305Q6.05469-15.4492 4.68262-14.0723Q3.31055-12.6953 2.5293-10.8936Q1.74805-9.0918 1.74805-7.05078Q1.74805-5.00977 2.5293-3.20801Q3.31055-1.40625 4.6875-0.0292969Q6.06445 1.34766 7.86621 2.12891Q9.66797 2.91016 11.709 2.91016ZM11.709 1.25Q9.98047 1.25 8.47656 0.605469Q6.97266-0.0390625 5.83496-1.17676Q4.69727-2.31445 4.05762-3.81836Q3.41797-5.32227 3.41797-7.05078Q3.41797-8.7793 4.05762-10.2832Q4.69727-11.7871 5.83008-12.9297Q6.96289-14.0723 8.4668-14.7119Q9.9707-15.3516 11.6992-15.3516Q13.4277-15.3516 14.9316-14.7119Q16.4355-14.0723 17.5781-12.9297Q18.7207-11.7871 19.3652-10.2832Q20.0098-8.7793 20.0098-7.05078Q20.0098-5.32227 19.3701-3.81836Q18.7305-2.31445 17.5928-1.17676Q16.4551-0.0390625 14.9463 0.605469Q13.4375 1.25 11.709 1.25ZM7.39258-7.04102Q7.39258-6.68945 7.62695-6.46484Q7.86133-6.24023 8.23242-6.24023L10.8789-6.24023L10.8789-3.57422Q10.8789-3.21289 11.1035-2.9834Q11.3281-2.75391 11.6797-2.75391Q12.0508-2.75391 12.2852-2.9834Q12.5195-3.21289 12.5195-3.57422L12.5195-6.24023L15.1758-6.24023Q15.5371-6.24023 15.7715-6.46484Q16.0059-6.68945 16.0059-7.04102Q16.0059-7.41211 15.7715-7.6416Q15.5371-7.87109 15.1758-7.87109L12.5195-7.87109L12.5195-10.5176Q12.5195-10.8984 12.2852-11.1279Q12.0508-11.3574 11.6797-11.3574Q11.3281-11.3574 11.1035-11.1279Q10.8789-10.8984 10.8789-10.5176L10.8789-7.87109L8.23242-7.87109Q7.85156-7.87109 7.62207-7.6416Q7.39258-7.41211 7.39258-7.04102Z"/>
  </g>
  <g transform="matrix(1 0 0 1 305.646 1933)">
   <path d="M14.9707 5.66406Q17.0605 5.66406 18.96 5.01465Q20.8594 4.36523 22.4512 3.19336Q24.043 2.02148 25.2197 0.429688Q26.3965-1.16211 27.0459-3.06641Q27.6953-4.9707 27.6953-7.05078Q27.6953-9.14062 27.0459-11.04Q26.3965-12.9395 25.2197-14.5312Q24.043-16.123 22.4512-17.2998Q20.8594-18.4766 18.9551-19.126Q17.0508-19.7754 14.9609-19.7754Q12.8711-19.7754 10.9717-19.126Q9.07227-18.4766 7.48535-17.2998Q5.89844-16.123 4.72168-14.5312Q3.54492-12.9395 2.90039-11.04Q2.25586-9.14062 2.25586-7.05078Q2.25586-4.9707 2.90527-3.06641Q3.55469-1.16211 4.72656 0.429688Q5.89844 2.02148 7.49023 3.19336Q9.08203 4.36523 10.9814 5.01465Q12.8809 5.66406 14.9707 5.66406ZM14.9707 3.84766Q13.1641 3.84766 11.5283 3.2959Q9.89258 2.74414 8.53516 1.74805Q7.17773 0.751953 6.17676-0.610352Q5.17578-1.97266 4.62891-3.6084Q4.08203-5.24414 4.08203-7.05078Q4.08203-8.86719 4.62891-10.5029Q5.17578-12.1387 6.17188-13.501Q7.16797-14.8633 8.52539-15.8594Q9.88281-16.8555 11.5186-17.4023Q13.1543-17.9492 14.9609-17.9492Q16.7773-17.9492 18.4131-17.4023Q20.0488-16.8555 21.4111-15.8594Q22.7734-14.8633 23.7695-13.501Q24.7656-12.1387 25.3174-10.5029Q25.8691-8.86719 25.8691-7.05078Q25.8789-5.24414 25.332-3.6084Q24.7852-1.97266 23.7842-0.610352Q22.7832 0.751953 21.4209 1.74805Q20.0586 2.74414 18.4229 3.2959Q16.7871 3.84766 14.9707 3.84766ZM9.45312-7.04102Q9.45312-6.66016 9.71191-6.41113Q9.9707-6.16211 10.3711-6.16211L14.0625-6.16211L14.0625-2.46094Q14.0625-2.06055 14.3115-1.80664Q14.5605-1.55273 14.9414-1.55273Q15.3516-1.55273 15.6055-1.80664Q15.8594-2.06055 15.8594-2.46094L15.8594-6.16211L19.5605-6.16211Q19.9609-6.16211 20.2148-6.41113Q20.4688-6.66016 20.4688-7.04102Q20.4688-7.45117 20.2148-7.70508Q19.9609-7.95898 19.5605-7.95898L15.8594-7.95898L15.8594-11.6504Q15.8594-12.0605 15.6055-12.3145Q15.3516-12.5684 14.9414-12.5684Q14.5605-12.5684 14.3115-12.3096Q14.0625-12.0508 14.0625-11.6504L14.0625-7.95898L10.3711-7.95898Q9.96094-7.95898 9.70703-7.70508Q9.45312-7.45117 9.45312-7.04102Z"/>
  </g>
  <text style="stroke:none;fill:black;font-family:sans-serif;font-size:13;font-weight:bold;" transform="matrix(1 0 0 1 263 1953)">Design Variations</text>
  <text style="stroke:none;fill:black;font-family:sans-serif;font-size:13;" transform="matrix(1 0 0 1 263 1971)">Symbols are supported in up to nine weights and three scales.</text>
  <text style="stroke:none;fill:black;font-family:sans-serif;font-size:13;" transform="matrix(1 0 0 1 263 1989)">For optimal layout with text and other symbols, vertically align</text>
  <text style="stroke:none;fill:black;font-family:sans-serif;font-size:13;" transform="matrix(1 0 0 1 263 2007)">symbols with the adjacent text.</text>
  <line style="fill:none;stroke:#00AEEF;stroke-width:0.5;opacity:1.0;" x1="776" x2="776" y1="1919" y2="1933"/>
  <g transform="matrix(1 0 0 1 776 1933)">
   <path d="M3.31055 0.15625Q3.70117 0.15625 3.91602-0.00976562Q4.13086-0.175781 4.26758-0.585938L5.52734-4.0332L11.2891-4.0332L12.5488-0.585938Q12.6855-0.175781 12.9004-0.00976562Q13.1152 0.15625 13.4961 0.15625Q13.8867 0.15625 14.1162-0.0585938Q14.3457-0.273438 14.3457-0.644531Q14.3457-0.869141 14.2383-1.17188L9.6582-13.3691Q9.48242-13.8184 9.17969-14.043Q8.87695-14.2676 8.4082-14.2676Q7.5-14.2676 7.17773-13.3789L2.59766-1.16211Q2.49023-0.859375 2.49023-0.634766Q2.49023-0.263672 2.70996-0.0537109Q2.92969 0.15625 3.31055 0.15625ZM6.00586-5.51758L8.37891-12.0898L8.42773-12.0898L10.8008-5.51758Z"/>
  </g>
  <line style="fill:none;stroke:#00AEEF;stroke-width:0.5;opacity:1.0;" x1="793.197" x2="793.197" y1="1919" y2="1933"/>
  <text style="stroke:none;fill:black;font-family:sans-serif;font-size:13;font-weight:bold;" transform="matrix(1 0 0 1 776 1953)">Margins</text>
  <text style="stroke:none;fill:black;font-family:sans-serif;font-size:13;" transform="matrix(1 0 0 1 776 1971)">Leading and trailing margins on the left and right side of each symbol</text>
  <text style="stroke:none;fill:black;font-family:sans-serif;font-size:13;" transform="matrix(1 0 0 1 776 1989)">can be adjusted by modifying the x-location of the margin guidelines.</text>
  <text style="stroke:none;fill:black;font-family:sans-serif;font-size:13;" transform="matrix(1 0 0 1 776 2007)">Modifications are automatically applied proportionally to all</text>
  <text style="stroke:none;fill:black;font-family:sans-serif;font-size:13;" transform="matrix(1 0 0 1 776 2025)">scales and weights.</text>
  <g transform="matrix(1 0 0 1 1289 1933)">
   <path d="M2.8418 1.86523L4.54102 3.57422Q5.18555 4.22852 5.90332 4.17969Q6.62109 4.13086 7.31445 3.35938L18.0078-8.42773L17.041-9.4043L6.42578 2.27539Q6.16211 2.57812 5.89355 2.61719Q5.625 2.65625 5.27344 2.30469L4.10156 1.14258Q3.75 0.791016 3.79395 0.522461Q3.83789 0.253906 4.14062-0.0195312L15.6152-10.8203L14.6387-11.7871L3.04688-0.898438Q2.30469-0.214844 2.25098 0.498047Q2.19727 1.21094 2.8418 1.86523ZM9.25781-16.3281Q8.94531-16.0254 8.90625-15.6348Q8.86719-15.2441 9.04297-14.9512Q9.21875-14.6777 9.55566-14.541Q9.89258-14.4043 10.3809-14.5215Q11.4746-14.7754 12.5977-14.7314Q13.7207-14.6875 14.7949-13.9844L14.209-12.5293Q13.9551-11.9043 14.0674-11.4404Q14.1797-10.9766 14.5801-10.5664L16.875-8.25195Q17.2363-7.88086 17.5781-7.82227Q17.9199-7.76367 18.3398-7.8418L19.4043-8.03711L20.0684-7.36328L20.0293-6.80664Q20-6.43555 20.1221-6.12305Q20.2441-5.81055 20.6055-5.44922L21.3672-4.70703Q21.7285-4.3457 22.1533-4.33105Q22.5781-4.31641 22.9297-4.66797L25.8398-7.58789Q26.1914-7.93945 26.1816-8.35449Q26.1719-8.76953 25.8105-9.13086L25.0391-9.89258Q24.6875-10.2539 24.3799-10.3857Q24.0723-10.5176 23.7109-10.4883L23.1348-10.4395L22.4902-11.0742L22.7344-12.1973Q22.832-12.6172 22.6953-12.9834Q22.5586-13.3496 22.1191-13.7891L19.9219-15.9766Q18.6719-17.2168 17.2607-17.8369Q15.8496-18.457 14.4189-18.4814Q12.9883-18.5059 11.665-17.959Q10.3418-17.4121 9.25781-16.3281ZM10.752-15.957Q11.6602-16.6211 12.7002-16.9043Q13.7402-17.1875 14.8047-17.085Q15.8691-16.9824 16.8701-16.5137Q17.8711-16.0449 18.7012-15.2051L21.1328-12.793Q21.3086-12.6172 21.3525-12.4512Q21.3965-12.2852 21.3379-12.0312L21.0156-10.5469L22.5195-9.0625L23.5059-9.12109Q23.6914-9.13086 23.7891-9.09668Q23.8867-9.0625 24.0332-8.91602L24.6094-8.33984L22.168-5.89844L21.5918-6.47461Q21.4453-6.62109 21.4062-6.71875Q21.3672-6.81641 21.377-7.01172L21.4453-7.98828L19.9512-9.47266L18.4277-9.21875Q18.1836-9.16992 18.042-9.2041Q17.9004-9.23828 17.7148-9.41406L15.7129-11.416Q15.5176-11.5918 15.4932-11.7529Q15.4688-11.9141 15.5859-12.1875L16.4648-14.2773Q15.293-15.3711 13.8281-15.791Q12.3633-16.2109 10.8398-15.7617Q10.7227-15.7324 10.6885-15.8057Q10.6543-15.8789 10.752-15.957Z"/>
  </g>
  <text style="stroke:none;fill:black;font-family:sans-serif;font-size:13;font-weight:bold;" transform="matrix(1 0 0 1 1289 1953)">Exporting</text>
  <text style="stroke:none;fill:black;font-family:sans-serif;font-size:13;" transform="matrix(1 0 0 1 1289 1971)">Symbols should be outlined when exporting to ensure the</text>
  <text style="stroke:none;fill:black;font-family:sans-serif;font-size:13;" transform="matrix(1 0 0 1 1289 1989)">design is preserved when submitting to Xcode.</text>
  <text id="template-version" style="stroke:none;fill:black;font-family:sans-serif;font-size:13;text-anchor:end;" transform="matrix(1 0 0 1 3036 1933)">Template v.3.0</text>
  <text style="stroke:none;fill:black;font-family:sans-serif;font-size:13;text-anchor:end;" transform="matrix(1 0 0 1 3036 1951)">Requires Xcode 13 or greater</text>
  <text id="descriptive-name" style="stroke:none;fill:black;font-family:sans-serif;font-size:13;text-anchor:end;" transform="matrix(1 0 0 1 3036 1969)">Generated from logo.github.circle.fill</text>
  <text style="stroke:none;fill:black;font-family:sans-serif;font-size:13;text-anchor:end;" transform="matrix(1 0 0 1 3036 1987)">Typeset at 100 points</text>
  <text style="stroke:none;fill:black;font-family:sans-serif;font-size:13;" transform="matrix(1 0 0 1 263 726)">Small</text>
  <text style="stroke:none;fill:black;font-family:sans-serif;font-size:13;" transform="matrix(1 0 0 1 263 1156)">Medium</text>
  <text style="stroke:none;fill:black;font-family:sans-serif;font-size:13;" transform="matrix(1 0 0 1 263 1586)">Large</text>
 </g>
 <g id="Guides">
  <g id="H-reference" style="fill:#27AAE1;stroke:none;" transform="matrix(1 0 0 1 339 696)">
   <path d="M0.976562 0L3.66211 0L29.3457-67.1387L30.0293-67.1387L30.0293-70.459L28.125-70.459ZM11.6699-24.4629L46.9727-24.4629L46.2402-26.709L12.4512-26.709ZM55.127 0L57.7637 0L30.6152-70.459L29.4434-70.459L29.4434-67.1387Z"/>
  </g>
  <line id="Baseline-S" style="fill:none;stroke:#27AAE1;opacity:1;stroke-width:0.5;" x1="263" x2="3036" y1="696" y2="696"/>
  <line id="Capline-S" style="fill:none;stroke:#27AAE1;opacity:1;stroke-width:0.5;" x1="263" x2="3036" y1="625.541" y2="625.541"/>
  <g id="H-reference" style="fill:#27AAE1;stroke:none;" transform="matrix(1 0 0 1 339 1126)">
   <path d="M0.976562 0L3.66211 0L29.3457-67.1387L30.0293-67.1387L30.0293-70.459L28.125-70.459ZM11.6699-24.4629L46.9727-24.4629L46.2402-26.709L12.4512-26.709ZM55.127 0L57.7637 0L30.6152-70.459L29.4434-70.459L29.4434-67.1387Z"/>
  </g>
  <line id="Baseline-M" style="fill:none;stroke:#27AAE1;opacity:1;stroke-width:0.5;" x1="263" x2="3036" y1="1126" y2="1126"/>
  <line id="Capline-M" style="fill:none;stroke:#27AAE1;opacity:1;stroke-width:0.5;" x1="263" x2="3036" y1="1055.54" y2="1055.54"/>
  <g id="H-reference" style="fill:#27AAE1;stroke:none;" transform="matrix(1 0 0 1 339 1556)">
   <path d="M0.976562 0L3.66211 0L29.3457-67.1387L30.0293-67.1387L30.0293-70.459L28.125-70.459ZM11.6699-24.4629L46.9727-24.4629L46.2402-26.709L12.4512-26.709ZM55.127 0L57.7637 0L30.6152-70.459L29.4434-70.459L29.4434-67.1387Z"/>
  </g>
  <line id="Baseline-L" style="fill:none;stroke:#27AAE1;opacity:1;stroke-width:0.5;" x1="263" x2="3036" y1="1556" y2="1556"/>
  <line id="Capline-L" style="fill:none;stroke:#27AAE1;opacity:1;stroke-width:0.5;" x1="263" x2="3036" y1="1485.54" y2="1485.54"/>
  <line id="left-margin-Regular-M" style="fill:none;stroke:#00AEEF;stroke-width:0.5;opacity:1.0;" x1="1391.01" x2="1391.01" y1="1030.73" y2="1150.14"/>
  <line id="right-margin-Regular-M" style="fill:none;stroke:#00AEEF;stroke-width:0.5;opacity:1.0;" x1="1508.68" x2="1508.68" y1="1030.73" y2="1150.14"/>
 </g>
 <g id="Symbols">
  <g id="Black-L" transform="matrix(1 0 0 1 2853.82 1556)">
   <path d="M142.205-61.0876C138.631-69.3442 133.783-76.4929 127.455-82.7783C121.173-89.0611 114.021-93.9518 105.765-97.4824C97.5082-101.013 88.8-102.822 79.4356-102.822C70.0712-102.822 61.363-101.055 53.1065-97.4824C44.85-93.9093 37.7437-89.0611 31.4583-82.7783C25.1755-76.4956 20.2848-69.3442 16.7542-61.0876C13.2236-52.8311 11.4146-44.1229 11.4146-34.7585C11.4146-25.3942 13.1812-16.6833 16.7542-8.42943C20.3273-0.172882 25.1755 6.97585 31.4583 13.2613C37.741 19.544 44.8924 24.4347 53.1489 27.9653C61.4055 31.4959 70.1137 33.305 79.4781 33.305C88.8424 33.305 97.5957 31.5383 105.807 27.9653C114.019 24.3922 121.17 19.544 127.498 13.2613C133.781 6.97848 138.671-0.172882 142.205-8.42943C145.778-16.686 147.544-25.3942 147.544-34.7585C147.544-44.1229 145.738-52.8735 142.205-61.0876ZM67.2275 11.4281C67.3922 11.0987 67.3922 10.889 67.3922 10.5596C67.3922 9.35894 67.3922 6.2989 67.2275 2.1605C53.6542 5.22053 50.7562-4.37914 50.7562-4.37914C48.5223-10.0502 45.2525-11.5776 45.2525-11.5776C40.782-14.6376 45.5845-14.6376 45.5845-14.6376C50.5491-14.3056 53.115-9.50838 53.115-9.50838C57.4207-1.97791 64.4545-4.16936 67.3498-5.36998C67.8465-8.4751 69.0445-10.709 70.4549-11.9096C59.4899-13.1102 48.1504-17.4133 48.1504-36.1212C48.1504-41.4602 50.055-45.8856 53.2797-49.2005C52.783-50.4011 51.0458-55.3656 53.7764-62.2347C53.7764-62.2347 57.9148-63.6 67.1877-57.2702C71.1164-58.3061 75.2574-58.8453 79.3984-58.9649C83.5368-58.9649 87.7975-58.3061 91.6091-57.2702C100.922-63.6 105.02-62.2347 105.02-62.2347C107.751-55.4081 106.011-50.4011 105.517-49.2005C108.622-45.766 110.646-41.4602 110.646-36.1212C110.646-17.2513 99.3069-13.1553 88.3419-11.9122C90.2014-10.5018 91.6118-7.44181 91.6118-2.80667C91.6118 3.73296 91.6118 9.07198 91.6118 10.6046C91.6118 10.934 91.6118 11.1438 91.7765 11.4732C87.8452 12.5091 83.7068 13.0032 79.4037 13.0032C75.2972 12.9582 71.1588 12.4614 67.2275 11.4281Z"/>
  </g>
  <g id="Heavy-L" transform="matrix(1 0 0 1 2558.04 1556)">
   <path d="M140.413-60.709C136.887-68.8517 132.105-75.9148 125.853-82.1058C119.675-88.2844 112.599-93.1274 104.457-96.5918C96.314-100.056 87.7382-101.856 78.5159-101.856C69.2936-101.856 60.7178-100.117 52.5751-96.5918C44.4324-93.0665 37.4303-88.2844 31.2393-82.1058C25.0607-75.9272 20.2177-68.8517 16.7533-60.709C13.2889-52.5664 11.4895-43.9905 11.4895-34.7683C11.4895-25.546 13.2279-16.9578 16.7533-8.82749C20.2786-0.684808 25.0607 6.37828 31.2393 12.5693C37.4179 18.7479 44.4934 23.5909 52.6361 27.0553C60.7788 30.5197 69.3546 32.3191 78.5768 32.3191C87.7991 32.3191 96.4483 30.5807 104.518 27.0553C112.587 23.5299 119.662 18.7479 125.914 12.5693C132.093 6.39064 136.936-0.684808 140.413-8.82749C143.938-16.9702 145.677-25.546 145.677-34.7683C145.677-43.9905 143.89-52.6273 140.413-60.709ZM65.9292 12.8394C66.0939 12.51 66.0939 12.272 66.0939 11.9426C66.0939 10.704 66.0939 7.56804 65.9292 3.29727C51.9393 6.43321 48.9557-3.45065 48.9557-3.45065C46.6556-9.30176 43.2816-10.8574 43.2816-10.8574C38.6691-13.9933 43.6234-13.9933 43.6234-13.9933C48.73-13.6516 51.3719-8.72199 51.3719-8.72199C55.8197-0.973505 63.0617-3.21264 66.033-4.45121C66.5394-7.66047 67.7656-9.96056 69.2422-11.1991C57.9551-12.4377 46.2652-16.8732 46.2652-36.1592C46.2652-41.6685 48.2359-46.2077 51.5366-49.655C51.0301-50.8936 49.2365-56.0002 52.043-63.0775C52.043-63.0775 56.3138-64.4808 65.8806-57.9709C69.9134-59.0448 74.1965-59.6122 78.4797-59.7036C82.7504-59.7036 87.125-59.0448 91.0787-57.9709C100.694-64.4808 104.916-63.0775 104.916-63.0775C107.723-56.0612 105.917-50.8936 105.423-49.655C108.632-46.1164 110.694-41.6685 110.694-36.1592C110.694-16.7208 99.0042-12.511 87.7171-11.2115C89.6145-9.73491 91.0911-6.59896 91.0911-1.82173C91.0911 4.92619 91.0911 10.4355 91.0911 12.0159C91.0911 12.3453 91.0911 12.5833 91.2558 12.9127C87.2106 13.9866 82.9399 14.4807 78.5044 14.4807C74.2451 14.4073 69.9743 13.9009 65.9292 12.8394Z"/>
  </g>
  <g id="Bold-L" transform="matrix(1 0 0 1 2262.49 1556)">
   <path d="M138.161-60.2442C134.701-68.2419 129.999-75.1915 123.843-81.271C117.793-87.3213 110.814-92.0992 102.817-95.4836C94.819-98.8681 86.403-100.651 77.3574-100.651C68.3118-100.651 59.8958-98.9439 51.8982-95.4836C43.9006-92.0234 37.0267-87.3213 30.9472-81.271C24.8969-75.2206 20.119-68.2419 16.7345-60.2442C13.3501-52.2466 11.5675-43.8307 11.5675-34.785C11.5675-25.7394 13.2743-17.2943 16.7345-9.32582C20.1948-1.3282 24.8969 5.62141 30.9472 11.7009C36.9976 17.7513 43.9763 22.5291 51.9739 25.9136C59.9716 29.2981 68.3875 31.0806 77.4331 31.0806C86.4788 31.0806 94.9996 29.3738 102.892 25.9136C110.785 22.4533 117.764 17.7513 123.919 11.7009C129.969 5.65054 134.747-1.3282 138.161-9.32582C141.621-17.3234 143.328-25.7394 143.328-34.785C143.328-43.8307 141.575-52.3224 138.161-60.2442ZM64.3059 14.589C64.4706 14.2596 64.4706 13.99 64.4706 13.6606C64.4706 12.3737 64.4706 9.14101 64.3059 4.71037C49.8029 7.94303 46.7058-2.29412 46.7058-2.29412C44.3257-8.37021 40.8235-9.95741 40.8235-9.95741C36.0343-13.1901 41.182-13.1901 41.182-13.1901C46.4653-12.8315 49.2039-7.74209 49.2039-7.74209C53.8283 0.279737 61.3269-2.02452 64.3949-3.31145C64.9181-6.649 66.1759-9.02901 67.7324-10.3159C56.0437-11.6029 43.9206-16.1982 43.9206-36.2075C43.9206-41.9251 45.9712-46.6094 49.3686-50.2165C48.8453-51.5034 46.9885-56.7867 49.8918-64.1206C49.8918-64.1206 54.3224-65.5722 64.2593-58.8373C68.4204-59.9596 72.8801-60.5585 77.3399-60.6184C81.7705-60.6184 86.2901-59.9596 90.4205-58.8373C100.404-65.5722 104.788-64.1206 104.788-64.1206C107.691-56.8625 105.805-51.5034 105.311-50.2165C108.649-46.5496 110.759-41.9251 110.759-36.2075C110.759-16.0626 98.6361-11.7078 86.9474-10.3451C88.8931-8.78856 90.4496-5.5559 90.4496-0.602033C90.4496 6.40246 90.4496 12.12 90.4496 13.7655C90.4496 14.0949 90.4496 14.3645 90.6143 14.6939C86.4241 15.8161 81.9935 16.3102 77.3982 16.3102C72.9268 16.2053 68.4961 15.6821 64.3059 14.589Z"/>
  </g>
  <g id="Semibold-L" transform="matrix(1 0 0 1 1966.59 1556)">
   <path d="M136.608-59.9238C133.193-67.8214 128.546-74.6928 122.458-80.6954C116.496-86.6574 109.584-91.3903 101.686-94.7197C93.7883-98.049 85.4826-99.82 76.5587-99.82C67.6349-99.82 59.3291-98.135 51.4315-94.7197C43.5339-91.3043 36.7485-86.6574 30.7458-80.6954C24.7839-74.7335 20.051-67.8214 16.7216-59.9238C13.3922-52.0262 11.6212-43.7205 11.6212-34.7966C11.6212-25.8727 13.3063-17.5263 16.7216-9.66937C20.137-1.77176 24.7839 5.09962 30.7458 11.1022C36.7078 17.0642 43.6198 21.7971 51.5175 25.1265C59.4151 28.4558 67.7208 30.2268 76.6447 30.2268C85.5685 30.2268 94.001 28.5418 101.772 25.1265C109.543 21.7111 116.455 17.0642 122.544 11.1022C128.505 5.14032 133.238-1.77176 136.608-9.66937C140.024-17.567 141.709-25.8727 141.709-34.7966C141.709-43.7205 139.979-52.1122 136.608-59.9238ZM63.1868 15.7952C63.3515 15.4658 63.3515 15.1744 63.3515 14.845C63.3515 13.5247 63.3515 10.2254 63.1868 5.68456C48.33 8.98388 45.1547-1.49681 45.1547-1.49681C42.7196-7.72801 39.1289-9.33698 39.1289-9.33698C34.2179-12.6363 39.499-12.6363 39.499-12.6363C44.904-12.2662 47.7092-7.06655 47.7092-7.06655C52.4555 1.14371 60.131-1.20545 63.2656-2.52571C63.8004-5.95169 65.0799-8.38681 66.6916-9.70707C54.7259-11.0273 42.3042-15.7329 42.3042-36.2409C42.3042-42.102 44.4099-46.8863 47.8739-50.6036C47.3391-51.9239 45.4388-57.3289 48.4087-64.8397C48.4087-64.8397 52.9496-66.3246 63.1416-59.4346C67.3911-60.5902 71.9726-61.2109 76.5542-61.249C81.095-61.249 85.7146-60.5902 89.9667-59.4346C100.204-66.3246 104.7-64.8397 104.7-64.8397C107.669-57.4149 105.728-51.9239 105.234-50.6036C108.66-46.8482 110.804-42.102 110.804-36.2409C110.804-15.6089 98.3824-11.154 86.4167-9.74777C88.3958-8.13615 90.0074-4.83683 90.0074 0.238816C90.0074 7.42018 90.0074 13.2813 90.0074 14.9717C90.0074 15.3011 90.0074 15.5924 90.1721 15.9218C85.8819 17.0774 81.3411 17.5715 76.6356 17.5715C72.0179 17.4448 67.477 16.91 63.1868 15.7952Z"/>
  </g>
  <g id="Medium-L" transform="matrix(1 0 0 1 1670.48 1556)">
   <path d="M135.431-59.6809C132.05-67.5027 127.445-74.3147 121.407-80.259C115.512-86.1539 108.65-90.8528 100.829-94.1404C93.0068-97.428 84.7847-99.1902 75.9531-99.1902C67.1216-99.1902 58.8994-97.5217 51.0776-94.1404C43.2558-90.7591 36.5375-86.1539 30.5932-80.259C24.6983-74.3642 19.9994-67.5027 16.7118-59.6809C13.4242-51.8591 11.662-43.6369 11.662-34.8054C11.662-25.9738 13.3305-17.7022 16.7118-9.92987C20.0931-2.10808 24.6983 4.70398 30.5932 10.6483C36.488 16.5432 43.3495 21.2421 51.1713 24.5297C58.9931 27.8173 67.2153 29.5795 76.0468 29.5795C84.8784 29.5795 93.2437 27.911 100.922 24.5297C108.601 21.1484 115.462 16.5432 121.501 10.6483C127.395 4.75345 132.094-2.10808 135.431-9.92987C138.813-17.7517 140.481-25.9738 140.481-34.8054C140.481-43.6369 138.768-51.9528 135.431-59.6809ZM62.3383 16.7097C62.503 16.3803 62.503 16.0725 62.503 15.7431C62.503 14.3975 62.503 11.0476 62.3383 6.42323C47.2132 9.7731 43.9786-0.892255 43.9786-0.892255C41.5017-7.24107 37.8439-8.86654 37.8439-8.86654C32.8407-12.2164 38.2228-12.2164 38.2228-12.2164C43.7202-11.8375 46.576-6.55433 46.576-6.55433C51.4145 1.79882 59.2241-0.584386 62.4093-1.92992C62.9529-5.42296 64.2489-7.89987 65.9023-9.24541C53.7268-10.5909 41.0786-15.3801 41.0786-36.2661C41.0786-42.2361 43.2261-47.0962 46.7407-50.8971C46.1971-52.2426 44.2638-57.74 47.2842-65.3849C47.2842-65.3849 51.9086-66.8951 62.2941-59.8875C66.6106-61.0684 71.2845-61.7056 75.9584-61.7272C80.5828-61.7272 85.2782-61.0684 89.6227-59.8875C100.052-66.8951 104.633-65.3849 104.633-65.3849C107.653-57.8337 105.67-52.2426 105.176-50.8971C108.669-47.0747 110.838-42.2361 110.838-36.2661C110.838-15.2648 98.19-10.7341 86.0144-9.29487C88.0187-7.64147 89.6721-4.2916 89.6721 0.876383C89.6721 8.19187 89.6721 14.1618 89.6721 15.8862C89.6721 16.2156 89.6721 16.5235 89.8368 16.8529C85.4708 18.0337 80.8464 18.5278 76.0573 18.5278C71.3287 18.3847 66.7043 17.8411 62.3383 16.7097Z"/>
  </g>
  <g id="Regular-L" transform="matrix(1 0 0 1 1374.57 1556)">
   <path d="M133.896-59.364C130.559-67.0869 126.008-73.8215 120.036-79.6898C114.229-85.4972 107.433-90.1517 99.7104-93.3848C91.9875-96.6179 83.8743-98.3687 75.1632-98.3687C66.4522-98.3687 58.339-96.7217 50.6161-93.3848C42.8932-90.0479 36.2623-85.4972 30.394-79.6898C24.5866-73.8824 19.9321-67.0869 16.699-59.364C13.4659-51.6411 11.7151-43.5279 11.7151-34.8168C11.7151-26.1057 13.3621-17.9316 16.699-10.2696C20.0359-2.54676 24.5866 4.18793 30.394 10.0562C36.2014 15.8636 42.997 20.5181 50.7199 23.7512C58.4428 26.9843 66.556 28.7351 75.267 28.7351C83.9781 28.7351 92.256 27.0881 99.8142 23.7512C107.372 20.4143 114.168 15.8636 120.14 10.0562C125.947 4.24884 130.602-2.54676 133.896-10.2696C137.233-17.9925 138.88-26.1057 138.88-34.8168C138.88-43.5279 137.19-51.7449 133.896-59.364ZM61.2315 17.9026C61.3962 17.5732 61.3962 17.2438 61.3962 16.9144C61.3962 15.5359 61.3962 12.1201 61.2315 7.38671C45.7566 10.8025 42.4446-0.103707 42.4446-0.103707C39.9132-6.60593 36.168-8.25293 36.168-8.25293C31.0442-11.6687 36.5583-11.6687 36.5583-11.6687C42.1761-11.2784 45.0978-5.88622 45.0978-5.88622C50.0568 2.6533 58.0413 0.225693 61.2924-1.15281C61.8474-4.73332 63.165-7.26473 64.8729-8.64323C52.4235-10.0217 39.48-14.9198 39.48-36.2991C39.48-42.411 41.682-47.37 45.2625-51.2799C44.7075-52.6584 42.7311-58.2763 45.8175-66.0961C45.8175-66.0961 50.5509-67.6393 61.1886-60.4783C65.5926-61.6921 70.3869-62.3509 75.1813-62.3509C79.9147-62.3509 84.709-61.6921 89.1739-60.4783C99.8545-67.6393 104.545-66.0961 104.545-66.0961C107.631-58.3801 105.594-52.6584 105.1-51.2799C108.681-47.37 110.883-42.411 110.883-36.2991C110.883-14.816 97.939-10.1864 85.4896-8.70414C87.5269-6.99623 89.2348-3.58042 89.2348 1.70799C89.2348 9.19841 89.2348 15.3103 89.2348 17.0791C89.2348 17.4085 89.2348 17.7379 89.3995 18.0673C84.9346 19.2811 80.2012 19.7752 75.3031 19.7752C70.4298 19.6105 65.6964 19.0555 61.2315 17.9026Z"/>
  </g>
  <g id="Light-L" transform="matrix(1 0 0 1 1078.76 1556)">
   <path d="M132.131-59.0698C128.878-66.6666 124.369-73.2752 118.481-79.1014C112.758-84.8248 106.046-89.3952 98.4495-92.5863C90.8527-95.7773 82.8236-97.4861 74.2386-97.4861C65.6536-97.4861 57.6245-95.8391 50.0277-92.5863C42.4309-89.3334 35.884-84.8248 30.0578-79.1014C24.3344-73.3781 19.764-66.6666 16.5729-59.0698C13.3819-51.473 11.6731-43.4438 11.6731-34.8588C11.6731-26.2738 13.3201-18.1418 16.5729-10.6479C19.8258-3.0511 24.3344 3.5575 30.0578 9.38376C35.7811 15.1071 42.4926 19.6775 50.0894 22.8686C57.6862 26.0597 65.7154 27.7684 74.3004 27.7684C82.8854 27.7684 91.0792 26.1214 98.5113 22.8686C105.943 19.6158 112.655 15.1071 118.543 9.38376C124.266 3.66043 128.837-3.0511 132.131-10.6479C135.384-18.2447 137.031-26.2738 137.031-34.8588C137.031-43.4438 135.425-51.5347 132.131-59.0698ZM60.0127 19.1215C60.1774 18.7921 60.1774 18.4627 60.1774 18.1333C60.1774 16.7127 60.1774 13.2129 60.0127 8.39541C44.2015 11.8953 40.7634 0.736872 40.7634 0.736872C38.19-5.93346 34.3607-7.58046 34.3607-7.58046C29.1109-11.0803 34.793-11.0803 34.793-11.0803C40.5369-10.648 43.5427-5.17173 43.5427-5.17173C48.6278 3.57794 56.7804 1.06627 60.1156-0.354261C60.7126-4.01883 62.0302-6.59226 63.7802-8.0128C51.0365-9.43333 37.7988-14.4155 37.7988-36.3411C37.7988-42.5791 40.0428-47.6642 43.7074-51.6582C43.1104-53.0787 41.134-58.8226 44.3044-66.8106C44.3044-66.8106 49.1219-68.3958 60.0538-61.0667C64.5419-62.3225 69.4623-62.9813 74.3827-62.9813C79.2002-62.9813 84.1206-62.3225 88.7116-61.0667C99.6023-68.3958 104.461-66.8106 104.461-66.8106C107.631-58.8844 105.552-53.0787 105.058-51.6582C108.723-47.6642 110.967-42.5791 110.967-36.3411C110.967-14.3537 97.7289-9.59803 84.9852-8.11573C87.0646-6.3658 88.8145-2.86593 88.8145 2.54857C88.8145 10.2071 88.8145 16.4451 88.8145 18.298C88.8145 18.6274 88.8145 18.9568 88.9792 19.2862C84.3882 20.542 79.5707 21.0361 74.5886 21.0361C69.4211 20.8714 64.6037 20.2744 60.0127 19.1215Z"/>
  </g>
  <g id="Thin-L" transform="matrix(1 0 0 1 783.245 1556)">
   <path d="M129.796-58.6807C126.654-66.1107 122.201-72.5525 116.424-78.3232C110.812-83.9354 104.212-88.3946 96.7819-91.5301C89.3519-94.6656 81.4339-96.3188 73.0157-96.3188C64.5975-96.3188 56.6795-94.6718 49.2495-91.5301C41.8194-88.3885 35.3838-83.9354 29.6131-78.3232C24.0009-72.7111 19.5417-66.1107 16.4062-58.6807C13.2707-51.2506 11.6175-43.3327 11.6175-34.9144C11.6175-26.4962 13.2645-18.4197 16.4062-11.1482C19.5478-3.71814 24.0009 2.72369 29.6131 8.49437C35.2252 14.1065 41.8256 18.5658 49.2556 21.7013C56.6857 24.8368 64.6036 26.4899 73.0219 26.4899C81.4401 26.4899 89.5228 24.8429 96.7881 21.7013C104.053 18.5596 110.654 14.1065 116.431 8.49437C122.043 2.88222 126.502-3.71814 129.796-11.1482C132.938-18.5782 134.585-26.4962 134.585-34.9144C134.585-43.3327 133.09-51.2568 129.796-58.6807ZM58.4007 20.7335C58.5654 20.4041 58.5654 20.0747 58.5654 19.7453C58.5654 18.2692 58.5654 14.6581 58.4007 9.72949C42.1448 13.3405 38.5399 1.84861 38.5399 1.84861C35.9109-5.04407 31.9705-6.69107 31.9705-6.69107C26.5539-10.3021 32.4584-10.3021 32.4584-10.3021C38.3691-9.81419 41.486-4.22675 41.486-4.22675C46.7379 4.80085 55.1128 2.17801 58.5592 0.701886C59.2118-3.07385 60.5294-5.70287 62.3349-7.17899C49.2022-8.65512 35.5753-13.7485 35.5753-36.3967C35.5753-42.8015 37.875-48.0533 41.6507-52.1585C40.9981-53.6346 39.0217-59.5453 42.3033-67.7555C42.3033-67.7555 47.232-69.3964 58.553-61.8449C63.1522-63.1563 68.2394-63.8151 73.3266-63.8151C78.2552-63.8151 83.3424-63.1563 88.1001-61.8449C99.2688-69.3964 104.35-67.7555 104.35-67.7555C107.631-59.5514 105.497-53.6346 105.002-52.1585C108.778-48.0533 111.078-42.8015 111.078-36.3967C111.078-13.7423 97.4509-8.81982 84.3182-7.33752C86.4531-5.53199 88.2586-1.92095 88.2586 3.66031C88.2586 11.5412 88.2586 17.9459 88.2586 19.91C88.2586 20.2394 88.2586 20.5688 88.4233 20.8982C83.6656 22.2096 78.7369 22.7037 73.6436 22.7037C68.0871 22.539 63.1584 21.8864 58.4007 20.7335Z"/>
  </g>
  <g id="Ultralight-L" transform="matrix(1 0 0 1 487.146 1556)">
   <path d="M128.6-58.4814C125.516-65.826 121.091-72.1824 115.371-77.9246C109.816-83.4798 103.272-87.8822 95.9278-90.9892C88.5832-94.0962 80.7222-95.7209 72.3893-95.7209C64.0565-95.7209 56.1955-94.0739 48.8509-90.9892C41.5062-87.9044 35.1275-83.4798 29.3853-77.9246C23.8301-72.3694 19.4278-65.826 16.3208-58.4814C13.2138-51.1367 11.5891-43.2757 11.5891-34.9429C11.5891-26.6101 13.2361-18.5621 16.3208-11.4044C19.4055-4.0598 23.8301 2.29663 29.3853 8.03883C34.9405 13.5941 41.484 17.9964 48.8286 21.1034C56.1732 24.2104 64.0342 25.8351 72.367 25.8351C80.6999 25.8351 88.7256 24.1881 95.9055 21.1034C103.085 18.0187 109.629 13.5941 115.349 8.03883C120.904 2.48362 125.306-4.0598 128.6-11.4044C131.685-18.749 133.332-26.6101 133.332-34.9429C133.332-43.2757 131.894-51.1144 128.6-58.4814ZM57.575 21.5592C57.7397 21.2298 57.7397 20.9004 57.7397 20.571C57.7397 19.0664 57.7397 15.3984 57.575 10.4128C41.0914 14.0808 37.4011 2.41803 37.4011 2.41803C34.7436-4.58853 30.7462-6.23553 30.7462-6.23553C25.2442-9.90352 31.2626-9.90352 31.2626-9.90352C37.2587-9.38713 40.4326-3.74274 40.4326-3.74274C45.7698 5.42721 54.2587 2.74743 57.762 1.24284C58.4431-2.58984 59.7607-5.24733 61.5947-6.75193C48.2626-8.25652 34.4365-13.4068 34.4365-36.4252C34.4365-42.9154 36.7646-48.2526 40.5973-52.4147C39.9162-53.9193 37.9398-59.9154 41.2784-68.2396C41.2784-68.2396 46.2639-69.9088 57.7843-62.2435C62.4405-63.5834 67.613-64.2422 72.7856-64.2422C77.7712-64.2422 82.9438-63.5834 87.7869-62.2435C99.098-69.9088 104.293-68.2396 104.293-68.2396C107.631-59.8931 105.468-53.9193 104.974-52.4147C108.807-48.2526 111.135-42.9154 111.135-36.4252C111.135-13.4291 97.3086-8.42122 83.9766-6.93892C86.1399-5.10493 87.9739-1.43694 87.9739 4.22973C87.9739 12.2245 87.9739 18.7147 87.9739 20.7357C87.9739 21.0651 87.9739 21.3945 88.1386 21.7239C83.2955 23.0637 78.3099 23.5578 73.1596 23.5578C67.4038 23.3931 62.4182 22.7121 57.575 21.5592Z"/>
  </g>
  <g id="Black-M" transform="matrix(1 0 0 1 2871.07 1126)">
   <path d="M111.473-55.553C108.675-62.0305 104.867-67.6254 99.9111-72.5705C94.9655-77.5161 89.3712-81.3347 82.8937-84.1212C76.4162-86.9077 69.5673-88.3119 62.2072-88.3119C54.8472-88.3119 47.9983-86.919 41.5208-84.1212C35.0433-81.3234 29.4597-77.5161 24.5147-72.5705C19.569-67.6248 15.7504-62.0305 12.9639-55.553C10.1774-49.0756 8.77322-42.2266 8.77322-34.8666C8.77322-27.5066 10.1662-20.6582 12.9639-14.1801C15.7617-7.70265 19.569-2.10772 24.5147 2.83731C29.4603 7.78295 35.0546 11.6015 41.5321 14.388C48.0096 17.1745 54.8585 18.5787 62.2185 18.5787C69.5785 18.5787 76.4382 17.1858 82.905 14.388C89.3718 11.5902 94.9661 7.78295 99.9224 2.83731C104.868-2.10834 108.687-7.70265 111.473-14.1801C114.27-20.6576 115.663-27.5066 115.663-34.8666C115.663-42.2266 114.258-49.0869 111.473-55.553ZM53.0347-0.13421C53.1623-0.38941 53.1623-0.527677 53.1623-0.782877C53.1623-1.68612 53.1623-4.00301 53.0347-7.10683C42.8313-4.78994 40.6426-12.0171 40.6426-12.0171C38.9631-16.2788 36.5079-17.4378 36.5079-17.4378C33.1495-19.7547 36.7625-19.7547 36.7625-19.7547C40.5037-19.5002 42.4378-15.8859 42.4378-15.8859C45.6686-10.2106 50.9617-11.8789 53.151-12.7821C53.5332-15.1097 54.437-16.7892 55.4785-17.6924C47.2205-18.5957 38.6966-21.8271 38.6966-35.898C38.6966-39.9051 40.1209-43.2528 42.5654-45.7187C42.1832-46.6219 40.8859-50.3631 42.9476-55.5286C42.9476-55.5286 46.0514-56.5594 53.0228-51.7874C55.9883-52.563 59.0915-52.9565 62.1947-53.0734C65.2985-53.0734 68.5187-52.563 71.3667-51.7874C78.3499-56.5594 81.4418-55.5286 81.4418-55.5286C83.5035-50.3744 82.2068-46.6219 81.824-45.7187C84.1516-43.1359 85.6928-39.9051 85.6928-35.898C85.6928-21.6989 77.1689-18.6063 68.9109-17.6918C70.3245-16.6503 71.366-14.3334 71.366-10.8474C71.366-5.93709 71.366-1.93003 71.366-0.77221C71.366-0.51701 71.366-0.378744 71.4936-0.123544C68.5287 0.6521 65.4249 1.0349 62.1935 1.0349C59.1034 1.02423 55.9996 0.642056 53.0347-0.13421Z"/>
  </g>
  <g id="Heavy-M" transform="matrix(1 0 0 1 2575.18 1126)">
   <path d="M109.884-55.2101C107.125-61.5878 103.378-67.1107 98.4886-71.9673C93.637-76.8189 88.1091-80.5986 81.7313-83.3243C75.3535-86.05 68.6262-87.4485 61.3935-87.4485C54.1607-87.4485 47.4334-86.0832 41.0556-83.3243C34.6778-80.5654 29.1882-76.8189 24.3316-71.9673C19.48-67.1157 15.7003-61.5878 12.9746-55.2101C10.249-48.8323 8.85038-42.1049 8.85038-34.8722C8.85038-27.6395 10.2157-20.9071 12.9746-14.5344C15.7336-8.15657 19.48-2.63372 24.3316 2.22289C29.1832 7.07448 34.7111 10.8542 41.0889 13.5799C47.4667 16.3055 54.194 17.7041 61.4267 17.7041C68.6594 17.7041 75.425 16.3388 81.7646 13.5799C88.1041 10.821 93.632 7.07448 98.5218 2.22289C103.373-2.62871 107.153-8.15657 109.884-14.5344C112.643-20.9121 114.008-27.6395 114.008-34.8722C114.008-42.1049 112.614-48.8655 109.884-55.2101ZM51.8779 1.13293C52.0055 0.877728 52.0055 0.711865 52.0055 0.456665C52.0055-0.479805 52.0055-2.86315 51.8779-6.08861C41.2983-3.70527 39.0376-11.187 39.0376-11.187C37.2972-15.6092 34.748-16.7958 34.748-16.7958C31.2624-19.1792 35.0082-19.1792 35.0082-19.1792C38.8767-18.919 40.8772-15.1831 40.8772-15.1831C44.2353-9.31408 49.7165-11.0212 51.9723-11.9576C52.3601-14.3792 53.2915-16.1196 54.3939-17.056C45.8481-17.9925 37.0088-21.3456 37.0088-35.9313C37.0088-40.0932 38.4939-43.5406 41.0048-46.1281C40.617-47.0646 39.2645-50.933 41.3927-56.2866C41.3927-56.2866 44.6181-57.3507 51.8497-52.4182C54.9093-53.227 58.1398-53.6481 61.3702-53.7374C64.5957-53.7374 67.9155-53.227 70.8908-52.4182C78.1506-57.3507 81.3478-56.2866 81.3478-56.2866C83.4759-50.9663 82.1184-47.0646 81.7356-46.1281C84.1572-43.4513 85.7317-40.0932 85.7317-35.9313C85.7317-21.223 76.8924-18.0308 68.3466-17.061C69.7935-15.9587 70.8958-13.5754 70.8958-9.96209C70.8958-4.86369 70.8958-0.70175 70.8958 0.494928C70.8958 0.750128 70.8958 0.915991 71.0234 1.17119C67.9588 1.98006 64.7333 2.36286 61.3802 2.36286C58.168 2.3246 54.9425 1.93679 51.8779 1.13293Z"/>
  </g>
  <g id="Bold-M" transform="matrix(1 0 0 1 2279.4 1126)">
   <path d="M108.107-54.8264C105.391-61.0927 101.713-66.5349 96.8972-71.2926C92.1508-76.039 86.6973-79.7752 80.431-82.4329C74.1647-85.0905 67.5735-86.4828 60.4831-86.4828C53.3928-86.4828 46.8015-85.1483 40.5353-82.4329C34.269-79.7174 28.8846-76.039 24.1269-71.2926C19.3805-66.5462 15.6442-61.0927 12.9866-54.8264C10.329-48.5601 8.93669-41.9689 8.93669-34.8785C8.93669-27.7882 10.2712-21.1856 12.9866-14.9306C15.7021-8.66434 19.3805-3.22212 24.1269 1.53557C28.8733 6.28196 34.3268 10.0182 40.5931 12.6758C46.8594 15.3335 53.4506 16.7258 60.541 16.7258C67.6313 16.7258 74.2917 15.3913 80.4889 12.6758C86.686 9.96039 92.1395 6.28196 96.955 1.53557C101.701-3.21082 105.438-8.66434 108.107-14.9306C110.822-21.1969 112.157-27.7882 112.157-34.8785C112.157-41.9689 110.776-48.6179 108.107-54.8264ZM50.5839 2.5504C50.7115 2.2952 50.7115 2.09847 50.7115 1.84327C50.7115 0.869632 50.7115-1.58805 50.5839-4.94959C39.5835-2.49191 37.2421-10.2584 37.2421-10.2584C35.4337-14.8601 32.7793-16.0776 32.7793-16.0776C29.1513-18.5353 33.0458-18.5353 33.0458-18.5353C37.0567-18.2688 39.1315-14.3969 39.1315-14.3969C42.632-8.31114 48.3236-10.0617 50.6537-11.0353C51.0478-13.5621 52.0101-15.3705 53.1805-16.3441C44.3128-17.3178 35.1207-20.8069 35.1207-35.9684C35.1207-40.3036 36.6739-43.8625 39.2591-46.5861C38.865-47.5597 37.4508-51.5706 39.6533-57.1346C39.6533-57.1346 43.0148-58.2358 50.5374-53.1237C53.7022-53.9698 57.0751-54.4217 60.4479-54.4802C63.8095-54.4802 67.2408-53.9698 70.3584-53.1237C77.9276-58.2358 81.2426-57.1346 81.2426-57.1346C83.4451-51.6284 82.0195-47.5597 81.6367-46.5861C84.1635-43.8041 85.7751-40.3036 85.7751-35.9684C85.7751-20.6906 76.5831-17.3869 67.7153-16.3555C69.1994-15.1851 70.3697-12.7274 70.3697-8.97175C70.3697-3.66292 70.3697 0.672259 70.3697 1.9124C70.3697 2.1676 70.3697 2.36434 70.4973 2.61954C67.3212 3.46558 63.9597 3.84838 60.4705 3.84838C57.1216 3.77924 53.76 3.38514 50.5839 2.5504Z"/>
  </g>
  <g id="Semibold-M" transform="matrix(1 0 0 1 1983.32 1126)">
   <path d="M106.881-54.5619C104.196-60.7513 100.564-66.1379 95.8001-70.8274C91.1263-75.5013 85.724-79.2076 79.5346-81.8183C73.3452-84.429 66.8478-85.817 59.8556-85.817C52.8634-85.817 46.3659-84.5038 40.1765-81.8183C33.9871-79.1328 28.6752-75.5013 23.9857-70.8274C19.3119-66.1536 15.6056-60.7513 12.9949-54.5619C10.3841-48.3725 8.9962-41.875 8.9962-34.8828C8.9962-27.8907 10.3094-21.3776 12.9949-15.2038C15.6804-9.01439 19.3119-3.62777 23.9857 1.06174C28.6596 5.7356 34.0619 9.44189 40.2513 12.0526C46.4407 14.6633 52.9381 16.0513 59.9303 16.0513C66.9225 16.0513 73.5104 14.7381 79.6094 12.0526C85.7084 9.36712 91.1106 5.7356 95.8749 1.06174C100.549-3.61212 104.255-9.01439 106.881-15.2038C109.567-21.3932 110.88-27.8907 110.88-34.8828C110.88-41.875 109.508-48.4473 106.881-54.5619ZM49.6919 3.5276C49.8195 3.2724 49.8195 3.05439 49.8195 2.79919C49.8195 1.79993 49.8195-0.709001 49.6919-4.16436C38.4013-1.65543 36.0043-9.61824 36.0043-9.61824C34.149-14.3437 31.4221-15.5825 31.4221-15.5825C27.6959-18.0915 31.6929-18.0915 31.6929-18.0915C35.8019-17.8206 37.9281-13.8548 37.9281-13.8548C41.5267-7.61972 47.3634-9.40023 49.7447-10.3995C50.1431-12.9988 51.1268-14.8541 52.344-15.8534C43.2544-16.8526 33.8191-20.4356 33.8191-35.9941C33.8191-40.4487 35.4191-44.0845 38.0557-46.9018C37.6572-47.9011 36.2004-52.0101 38.4541-57.7192C38.4541-57.7192 41.9095-58.846 49.6327-53.6102C52.8701-54.4818 56.3411-54.9551 59.8121-54.9922C63.2674-54.9922 66.7756-54.4818 69.9914-53.6102C77.7738-58.846 81.1701-57.7192 81.1701-57.7192C83.4238-52.0849 81.9513-47.9011 81.5685-46.9018C84.1678-44.0473 85.8051-40.4487 85.8051-35.9941C85.8051-20.3236 76.3698-16.9431 67.2801-15.869C68.7898-14.6517 70.0071-12.1428 70.0071-8.28901C70.0071-2.83513 70.0071 1.61949 70.0071 2.8896C70.0071 3.1448 70.0071 3.36282 70.1347 3.61802C66.8817 4.48968 63.4263 4.87248 59.8434 4.87248C56.4002 4.78207 52.9448 4.38362 49.6919 3.5276Z"/>
  </g>
  <g id="Medium-M" transform="matrix(1 0 0 1 1687.09 1126)">
   <path d="M105.952-54.3613C103.29-60.4925 99.6937-65.8369 94.9683-70.4747C90.3494-75.0936 84.986-78.7772 78.8549-81.3523C72.7238-83.9275 66.2975-85.3121 59.3797-85.3121C52.4619-85.3121 46.0356-84.0151 39.9045-81.3523C33.7734-78.6896 28.5165-75.0936 23.8787-70.4747C19.2599-65.8559 15.5763-60.4925 13.0011-54.3613C10.426-48.2302 9.04132-41.8039 9.04132-34.8861C9.04132-27.9684 10.3384-21.5231 13.0011-15.4109C15.6639-9.27982 19.2599-3.93534 23.8787 0.702462C28.4976 5.32132 33.861 9.00489 39.9921 11.58C46.1232 14.1552 52.5495 15.5399 59.4673 15.5399C66.3851 15.5399 72.918 14.2428 78.9425 11.58C84.9671 8.91728 90.3305 5.32132 95.0559 0.702462C99.6748-3.9164 103.358-9.27982 105.952-15.4109C108.615-21.5421 109.912-27.9684 109.912-34.8861C109.912-41.8039 108.547-48.3178 105.952-54.3613ZM49.0154 4.26856C49.143 4.01336 49.143 3.77921 49.143 3.52401C49.143 2.50531 49.143-0.0424717 49.0154-3.56896C37.5049-1.02118 35.0658-9.13284 35.0658-9.13284C33.1749-13.9522 30.393-15.2071 30.393-15.2071C26.5924-17.7549 30.6671-17.7549 30.6671-17.7549C34.8506-17.4808 37.0155-13.4439 37.0155-13.4439C40.6886-7.09545 46.6353-8.89868 49.0554-9.91738C49.4572-12.5717 50.4569-14.4626 51.7098-15.4813C42.4518-16.4999 32.8321-20.154 32.8321-36.0135C32.8321-40.5587 34.4678-44.2528 37.1431-47.1412C36.7414-48.1599 35.2523-52.3434 37.5449-58.1624C37.5449-58.1624 41.0714-59.3087 48.9468-53.979C52.2391-54.8701 55.7845-55.3595 59.33-55.3805C62.8565-55.3805 66.4229-54.8701 69.7132-53.979C77.6572-59.3087 81.1151-58.1624 81.1151-58.1624C83.4076-52.431 81.8996-48.1599 81.5168-47.1412C84.1711-44.2317 85.8278-40.5587 85.8278-36.0135C85.8278-20.0454 76.2081-16.6065 66.9502-15.5002C68.4793-14.2473 69.7321-11.6996 69.7321-7.77133C69.7321-2.20746 69.7321 2.33772 69.7321 3.63056C69.7321 3.88576 69.7321 4.11991 69.8597 4.37511C66.5484 5.2662 63.0219 5.649 59.3679 5.649C55.8532 5.54245 52.3267 5.14071 49.0154 4.26856Z"/>
  </g>
  <g id="Regular-M" transform="matrix(1 0 0 1 1391.01 1126)">
   <path d="M104.741-54.0998C102.108-60.1548 98.558-65.4443 93.8833-70.0147C89.3362-74.5618 84.0234-78.2158 77.9683-80.7445C71.9133-83.2733 65.5797-84.6537 58.759-84.6537C51.9383-84.6537 45.6048-83.3777 39.5497-80.7445C33.4946-78.1114 28.3095-74.5618 23.7391-70.0147C19.192-65.4676 15.5381-60.1548 13.0093-54.0998C10.4805-48.0447 9.10016-41.7111 9.10016-34.8904C9.10016-28.0697 10.3762-21.713 13.0093-15.6811C15.6424-9.62602 19.192-4.33653 23.7391 0.233838C28.2862 4.78097 33.599 8.4349 39.6541 10.9637C45.7092 13.4924 52.0427 14.8728 58.8634 14.8728C65.6841 14.8728 72.1452 13.5968 78.0727 10.9637C84.0002 8.33053 89.3129 4.78097 93.9877 0.233838C98.5348-4.31329 102.189-9.62602 104.741-15.6811C107.374-21.7362 108.65-28.0697 108.65-34.8904C108.65-41.7111 107.293-48.149 104.741-54.0998ZM48.1332 5.23502C48.2608 4.97982 48.2608 4.72462 48.2608 4.46942C48.2608 3.42538 48.2608 0.826914 48.1332-2.79236C36.3357-0.193886 33.8416-8.4997 33.8416-8.4997C31.9044-13.4414 29.0507-14.7174 29.0507-14.7174C25.153-17.3159 29.3291-17.3159 29.3291-17.3159C33.6096-17.0375 35.8253-12.9078 35.8253-12.9078C39.5954-6.41163 45.6855-8.2445 48.1564-9.28853C48.5625-12.0146 49.5833-13.9518 50.8825-14.9959C41.405-16.0399 31.5448-19.7868 31.5448-36.0388C31.5448-40.7021 33.2268-44.4722 35.9529-47.4535C35.5469-48.4976 34.0157-52.7781 36.3589-58.7406C36.3589-58.7406 39.9782-59.9122 48.0521-54.4601C51.4161-55.3765 55.0586-55.8869 58.7011-55.8869C62.3204-55.8869 65.9629-55.3765 69.3502-54.4601C77.5052-59.9122 81.0433-58.7406 81.0433-58.7406C83.3866-52.8824 81.8322-48.4976 81.4494-47.4535C84.1754-44.4722 85.8575-40.7021 85.8575-36.0388C85.8575-19.6824 75.9972-16.1675 66.5198-15.0191C68.0742-13.7199 69.3734-11.1214 69.3734-7.0961C69.3734-1.38876 69.3734 3.27455 69.3734 4.59702C69.3734 4.85222 69.3734 5.10742 69.501 5.36262C66.1137 6.27905 62.4945 6.66185 58.7476 6.66185C55.1398 6.53425 51.5205 6.12822 48.1332 5.23502Z"/>
  </g>
  <g id="Light-M" transform="matrix(1 0 0 1 1095.11 1126)">
   <path d="M103.158-53.836C100.6-59.778 97.0885-64.9545 92.4891-69.4872C88.0173-73.9589 82.78-77.5375 76.8379-80.0286C70.8959-82.5197 64.6377-83.8624 57.93-83.8624C51.2224-83.8624 44.9642-82.5864 39.0222-80.0286C33.0801-77.4708 27.9704-73.9589 23.4377-69.4872C18.9659-65.0154 15.3873-59.778 12.8963-53.836C10.4052-47.8939 9.06248-41.6358 9.06248-34.9281C9.06248-28.2205 10.3385-21.9014 12.8963-16.0202C15.454-10.0782 18.9659-4.90174 23.4377-0.369061C27.9094 4.10271 33.1468 7.68127 39.0889 10.1724C45.0309 12.6634 51.2891 14.0061 57.9967 14.0061C64.7044 14.0061 71.0901 12.7301 76.9046 10.1724C82.719 7.61459 87.9564 4.10271 92.5558-0.369061C97.0275-4.84083 100.606-10.0782 103.158-16.0202C105.716-21.9623 106.992-28.2205 106.992-34.9281C106.992-41.6358 105.71-47.9606 103.158-53.836ZM47.0404 6.32777C47.168 6.07257 47.168 5.81737 47.168 5.56217C47.168 4.48046 47.168 1.80662 47.0404-1.88801C34.9415 0.785824 32.3343-7.74607 32.3343-7.74607C30.3594-12.8385 27.4304-14.1145 27.4304-14.1145C23.4196-16.7884 27.7465-16.7884 27.7465-16.7884C32.1401-16.4723 34.4311-12.2672 34.4311-12.2672C38.3142-5.58264 44.5551-7.49087 47.1013-8.57259C47.5451-11.374 48.5659-13.3489 49.9028-14.4307C40.1616-15.5124 30.0375-19.3346 30.0375-36.0765C30.0375-40.8529 31.7573-44.736 34.5587-47.7926C34.115-48.8744 32.5838-53.2679 35.0024-59.3812C35.0024-59.3812 38.697-60.5905 47.0347-54.9876C50.4741-55.9417 54.2296-56.4521 57.9852-56.4521C61.6798-56.4521 65.4354-55.9417 68.9357-54.9876C77.2791-60.5905 80.968-59.3812 80.968-59.3812C83.3866-53.3346 81.7945-48.8744 81.4117-47.7926C84.2131-44.736 85.9328-40.8529 85.9328-36.0765C85.9328-19.2679 75.8088-15.64 66.0676-14.4916C67.6597-13.1547 68.9966-10.4808 68.9966-6.34247C68.9966-0.484408 68.9966 4.29194 68.9966 5.68977C68.9966 5.94497 68.9966 6.20017 69.1242 6.45537C65.6239 7.40949 61.9293 7.79229 58.107 7.79229C54.2354 7.66469 50.5408 7.22097 47.0404 6.32777Z"/>
  </g>
  <g id="Thin-M" transform="matrix(1 0 0 1 799.469 1126)">
   <path d="M101.065-53.4871C98.6069-59.2797 95.1448-64.3066 90.6452-68.7895C86.2731-73.1616 81.1354-76.6405 75.3428-79.0817C69.5503-81.5229 63.3918-82.8158 56.8336-82.8158C50.2755-82.8158 44.117-81.5398 38.3245-79.0817C32.5319-76.6236 27.5218-73.1616 23.039-68.7895C18.6669-64.4174 15.188-59.2797 12.7467-53.4871C10.3055-47.6946 9.01265-41.5361 9.01265-34.978C9.01265-28.4198 10.2886-22.1506 12.7467-16.4688C15.2048-10.6762 18.6669-5.64929 23.039-1.16644C27.4111 3.20565 32.5488 6.68455 38.3413 9.12579C44.1339 11.567 50.2923 12.8599 56.8505 12.8599C63.4086 12.8599 69.6947 11.5839 75.3597 9.12579C81.0246 6.6677 86.1623 3.20565 90.662-1.16644C95.0341-5.53854 98.513-10.6762 101.065-16.4688C103.523-22.2613 104.799-28.4198 104.799-34.978C104.799-41.5361 103.617-47.7114 101.065-53.4871ZM45.5952 7.77303C45.7228 7.51783 45.7228 7.26263 45.7228 7.00743C45.7228 5.87588 45.7228 3.10237 45.5952-0.691935C33.0976 2.08157 30.3409-6.74935 30.3409-6.74935C28.3161-12.0412 25.2874-13.3172 25.2874-13.3172C21.1272-16.0907 25.6534-16.0907 25.6534-16.0907C30.1964-15.7247 32.5872-11.42 32.5872-11.42C36.6198-4.48624 43.06-6.49415 45.7059-7.6257C46.1995-10.5268 47.2203-12.5516 48.607-13.6831C38.517-14.8147 28.0441-18.7366 28.0441-36.1264C28.0441-41.0522 29.8136-45.0849 32.7148-48.2412C32.2212-49.3727 30.69-53.9158 33.2083-60.2284C33.2083-60.2284 37.0026-61.4875 45.6891-55.6853C49.2282-56.6893 53.1332-57.1997 57.0383-57.1997C60.8326-57.1997 64.7377-56.6893 68.3875-55.6853C76.9801-61.4875 80.8683-60.2284 80.8683-60.2284C83.3866-53.9326 81.7446-49.3727 81.3618-48.2412C84.263-45.0849 86.0325-41.0522 86.0325-36.1264C86.0325-18.7197 75.5596-14.9423 65.4696-13.7939C67.1115-12.4071 68.4983-9.6336 68.4983-5.34575C68.4983 0.711665 68.4983 5.63752 68.4983 7.13503C68.4983 7.39023 68.4983 7.64543 68.6259 7.90063C64.976 8.90458 61.1817 9.28738 57.2598 9.28738C53.0393 9.15978 49.245 8.66623 45.5952 7.77303Z"/>
  </g>
  <g id="Ultralight-M" transform="matrix(1 0 0 1 503.307 1126)">
   <path d="M99.9929-53.3084C97.5859-59.0244 94.1493-63.9748 89.7007-68.4321C85.3796-72.7531 80.293-76.181 74.577-78.5967C68.8611-81.0124 62.7536-82.2797 56.2721-82.2797C49.7905-82.2797 43.6831-81.0037 37.9671-78.5967C32.2511-76.1897 27.2921-72.7531 22.8348-68.4321C18.5137-64.1111 15.0859-59.0244 12.6702-53.3084C10.2544-47.5925 8.98712-41.485 8.98712-35.0035C8.98712-28.5219 10.2631-22.2782 12.6702-16.6985C15.0772-10.9825 18.5137-6.03218 22.8348-1.57486C27.1558 2.74618 32.2425 6.17403 37.9584 8.58975C43.6744 11.0055 49.7818 12.2728 56.2634 12.2728C62.745 12.2728 68.98 10.9968 74.5684 8.58975C80.1567 6.18271 85.2434 2.74618 89.692-1.57486C94.0131-5.8959 97.4409-10.9825 99.9929-16.6985C102.4-22.4145 103.676-28.5219 103.676-35.0035C103.676-41.485 102.545-47.5838 99.9929-53.3084ZM44.8549 8.51328C44.9825 8.25808 44.9825 8.00288 44.9825 7.74768C44.9825 6.5906 44.9825 3.76604 44.8549-0.0793128C32.1531 2.74524 29.3199-6.23883 29.3199-6.23883C27.2696-11.6327 24.1898-12.9087 24.1898-12.9087C19.953-15.7333 24.5813-15.7333 24.5813-15.7333C29.2009-15.3418 31.6427-10.9861 31.6427-10.9861C35.7519-3.92467 42.2942-5.98363 44.9912-7.14071C45.5103-10.0929 46.5311-12.1431 47.9434-13.3002C37.6746-14.4573 27.0231-18.4303 27.0231-36.1519C27.0231-41.1543 28.8181-45.2636 31.7703-48.4709C31.2512-49.628 29.72-54.2476 32.2894-60.6623C32.2894-60.6623 36.1347-61.947 44.9999-56.0427C48.59-57.0722 52.5717-57.5826 56.5533-57.5826C60.3987-57.5826 64.3803-57.0722 68.1067-56.0427C76.8269-61.947 80.8172-60.6623 80.8172-60.6623C83.3866-54.2389 81.7191-49.628 81.3363-48.4709C84.2885-45.2636 86.0836-41.1543 86.0836-36.1519C86.0836-18.4389 75.432-14.5849 65.1633-13.4365C66.8307-12.0242 68.243-9.19966 68.243-4.83523C68.243 1.32429 68.243 6.32672 68.243 7.87528C68.243 8.13048 68.243 8.38568 68.3706 8.64088C64.6442 9.67036 60.7988 10.0532 56.8259 10.0532C52.4267 9.92556 48.5814 9.40648 44.8549 8.51328Z"/>
  </g>
  <g id="Black-S" transform="matrix(1 0 0 1 2884.35 696)">
   <path d="M87.75-51.25C85.55-56.35 82.55-60.75 78.65-64.65C74.75-68.55 70.35-71.55 65.25-73.75C60.15-75.95 54.75-77.05 48.95-77.05C43.15-77.05 37.75-75.95 32.65-73.75C27.55-71.55 23.15-68.55 19.25-64.65C15.35-60.75 12.35-56.35 10.15-51.25C7.95-46.15 6.85-40.75 6.85-34.95C6.85-29.15 7.95-23.75 10.15-18.65C12.35-13.55 15.35-9.15 19.25-5.25C23.15-1.35 27.55 1.65 32.65 3.85C37.75 6.05 43.15 7.15 48.95 7.15C54.75 7.15 60.15 6.05 65.25 3.85C70.35 1.65 74.75-1.35 78.65-5.25C82.55-9.15 85.55-13.55 87.75-18.65C89.95-23.75 91.05-29.15 91.05-34.95C91.05-40.75 89.95-46.15 87.75-51.25ZM41.85-8.05C41.95-8.25 41.95-8.35 41.95-8.55C41.95-9.25 41.95-11.05 41.85-13.45C33.95-11.65 32.25-17.25 32.25-17.25C30.95-20.55 29.05-21.45 29.05-21.45C26.45-23.25 29.25-23.25 29.25-23.25C32.15-23.05 33.65-20.25 33.65-20.25C36.15-15.85 40.25-17.15 41.95-17.85C42.25-19.65 42.95-20.95 43.75-21.65C37.35-22.35 30.75-24.85 30.75-35.75C30.75-38.85 31.85-41.45 33.75-43.35C33.45-44.05 32.45-46.95 34.05-50.95C34.05-50.95 36.45-51.75 41.85-48.05C44.15-48.65 46.55-48.95 48.95-49.05C51.35-49.05 53.85-48.65 56.05-48.05C61.45-51.75 63.85-50.95 63.85-50.95C65.45-46.95 64.45-44.05 64.15-43.35C65.95-41.35 67.15-38.85 67.15-35.75C67.15-24.75 60.55-22.35 54.15-21.65C55.25-20.85 56.05-19.05 56.05-16.35C56.05-12.55 56.05-9.45 56.05-8.55C56.05-8.35 56.05-8.25 56.15-8.05C53.85-7.45 51.45-7.15 48.95-7.15C46.55-7.15 44.15-7.45 41.85-8.05Z"/>
  </g>
  <g id="Heavy-S" transform="matrix(1 0 0 1 2588.24 696)">
   <path d="M86.5935-50.9904C84.4171-56.0196 81.4643-60.3724 77.6115-64.2016C73.7823-68.0308 69.4295-71.0072 64.4003-73.1599C59.3711-75.3127 54.0655-76.4127 48.3599-76.4127C42.6544-76.4127 37.3488-75.3363 32.3196-73.1599C27.2904-70.9835 22.9612-68.0308 19.132-64.2016C15.3028-60.3724 12.3264-56.0196 10.1736-50.9904C8.02081-45.9612 6.92081-40.6556 6.92081-34.95C6.92081-29.2444 7.9972-23.9388 10.1736-18.9096C12.35-13.8804 15.3028-9.52763 19.132-5.69844C22.9612-1.86925 27.314 1.10715 32.3432 3.25995C37.3724 5.41274 42.678 6.51274 48.3835 6.51274C54.0891 6.51274 59.4183 5.43635 64.4239 3.25995C69.4295 1.08355 73.7823-1.86925 77.6351-5.69844C81.4643-9.52763 84.4407-13.8804 86.5935-18.9096C88.7699-23.9388 89.8463-29.2444 89.8463-34.95C89.8463-40.6556 88.7463-45.9848 86.5935-50.9904ZM41.0003-7.10592C41.1003-7.30592 41.1003-7.42952 41.1003-7.62952C41.1003-8.35312 41.1003-10.2003 41.0003-12.6947C32.8171-10.8475 31.0699-16.6363 31.0699-16.6363C29.7227-20.0544 27.7519-20.978 27.7519-20.978C25.0575-22.8252 27.9519-22.8252 27.9519-22.8252C30.9463-22.6252 32.4935-19.7308 32.4935-19.7308C35.0879-15.1891 39.3295-16.5127 41.0767-17.2363C41.3767-19.1072 42.1003-20.4544 42.9475-21.178C36.3351-21.9016 29.4991-24.496 29.4991-35.7736C29.4991-38.9916 30.6463-41.6624 32.5935-43.6568C32.2935-44.3804 31.2463-47.3748 32.8935-51.5165C32.8935-51.5165 35.3879-52.3401 40.9767-48.522C43.3475-49.1456 45.8419-49.4692 48.3363-49.5456C50.8308-49.5456 53.4016-49.1456 55.696-48.522C61.3084-52.3401 63.7792-51.5165 63.7792-51.5165C65.4264-47.3984 64.3792-44.3804 64.0792-43.6568C65.95-41.586 67.1736-38.9916 67.1736-35.7736C67.1736-24.396 60.3376-21.9252 53.7252-21.178C54.8488-20.3308 55.696-18.4835 55.696-15.6891C55.696-11.7475 55.696-8.52952 55.696-7.60592C55.696-7.40592 55.696-7.28231 55.796-7.08231C53.4252-6.45871 50.9308-6.15871 48.3363-6.15871C45.8655-6.18231 43.3711-6.48231 41.0003-7.10592Z"/>
  </g>
  <g id="Bold-S" transform="matrix(1 0 0 1 2292.2 696)">
   <path d="M85.3-50.7C83.15-55.65 80.25-59.95 76.45-63.7C72.7-67.45 68.4-70.4 63.45-72.5C58.5-74.6 53.3-75.7 47.7-75.7C42.1-75.7 36.9-74.65 31.95-72.5C27-70.35 22.75-67.45 19-63.7C15.25-59.95 12.3-55.65 10.2-50.7C8.1-45.75 7-40.55 7-34.95C7-29.35 8.05-24.15 10.2-19.2C12.35-14.25 15.25-9.95 19-6.2C22.75-2.45 27.05 0.5 32 2.6C36.95 4.7 42.15 5.8 47.75 5.8C53.35 5.8 58.6 4.75 63.5 2.6C68.4 0.45 72.7-2.45 76.5-6.2C80.25-9.95 83.2-14.25 85.3-19.2C87.45-24.15 88.5-29.35 88.5-34.95C88.5-40.55 87.4-45.8 85.3-50.7ZM40.05-6.05C40.15-6.25 40.15-6.4 40.15-6.6C40.15-7.35 40.15-9.25 40.05-11.85C31.55-9.95 29.75-15.95 29.75-15.95C28.35-19.5 26.3-20.45 26.3-20.45C23.5-22.35 26.5-22.35 26.5-22.35C29.6-22.15 31.2-19.15 31.2-19.15C33.9-14.45 38.3-15.8 40.1-16.55C40.4-18.5 41.15-19.9 42.05-20.65C35.2-21.4 28.1-24.1 28.1-35.8C28.1-39.15 29.3-41.9 31.3-44C31-44.75 29.9-47.85 31.6-52.15C31.6-52.15 34.2-53 40-49.05C42.45-49.7 45.05-50.05 47.65-50.1C50.25-50.1 52.9-49.7 55.3-49.05C61.15-53 63.7-52.15 63.7-52.15C65.4-47.9 64.3-44.75 64-44C65.95-41.85 67.2-39.15 67.2-35.8C67.2-24 60.1-21.45 53.25-20.65C54.4-19.75 55.3-17.85 55.3-14.95C55.3-10.85 55.3-7.5 55.3-6.55C55.3-6.35 55.3-6.2 55.4-6C52.95-5.35 50.35-5.05 47.65-5.05C45.1-5.1 42.5-5.4 40.05-6.05Z"/>
  </g>
  <g id="Semibold-S" transform="matrix(1 0 0 1 1995.96 696)">
   <path d="M84.4082-50.4998C82.2764-55.3952 79.4128-59.6588 75.6492-63.3542C71.9538-67.0496 67.6902-69.9814 62.7948-72.045C57.8994-74.1086 52.7722-75.2086 47.245-75.2086C41.7178-75.2086 36.5906-74.1768 31.6952-72.045C26.7998-69.9132 22.6044-67.0496 18.909-63.3542C15.2136-59.6588 12.2818-55.3952 10.2182-50.4998C8.1546-45.6044 7.0546-40.4772 7.0546-34.95C7.0546-29.4228 8.0864-24.2956 10.2182-19.4002C12.35-14.5048 15.2136-10.2412 18.909-6.5458C22.6044-2.8504 26.868 0.0814 31.7634 2.145C36.6588 4.2086 41.786 5.3086 47.3132 5.3086C52.8404 5.3086 58.0358 4.2768 62.863 2.145C67.6902 0.0132 71.9538-2.8504 75.7174-6.5458C79.4128-10.2412 82.3446-14.5048 84.4082-19.4002C86.54-24.2956 87.5718-29.4228 87.5718-34.95C87.5718-40.4772 86.4718-45.6726 84.4082-50.4998ZM39.3948-5.322C39.4948-5.522 39.4948-5.6902 39.4948-5.8902C39.4948-6.6584 39.4948-8.5948 39.3948-11.2676C30.6764-9.3312 28.84-15.4768 28.84-15.4768C27.4036-19.1178 25.299-20.086 25.299-20.086C22.4262-22.0224 25.499-22.0224 25.499-22.0224C28.6718-21.8224 30.3082-18.7496 30.3082-18.7496C33.081-13.9404 37.5902-15.3086 39.4266-16.0768C39.7266-18.0814 40.4948-19.5178 41.4312-20.286C34.4174-21.0542 27.1354-23.827 27.1354-35.8182C27.1354-39.2592 28.3718-42.0638 30.4082-44.2366C30.1082-45.0048 28.9718-48.1776 30.7082-52.5868C30.7082-52.5868 33.381-53.455 39.3266-49.414C41.8312-50.0822 44.504-50.4504 47.1768-50.4822C49.8496-50.4822 52.5542-50.0822 55.027-49.414C61.0408-53.455 63.6454-52.5868 63.6454-52.5868C65.3818-48.2458 64.2454-45.0048 63.9454-44.2366C65.95-42.032 67.2182-39.2592 67.2182-35.8182C67.2182-23.727 59.9362-21.1224 52.9224-20.286C54.0906-19.3496 55.027-17.4132 55.027-14.4404C55.027-10.2312 55.027-6.7902 55.027-5.822C55.027-5.622 55.027-5.4538 55.127-5.2538C52.6224-4.5856 49.9496-4.2856 47.1768-4.2856C44.5722-4.3538 41.8994-4.6538 39.3948-5.322Z"/>
  </g>
  <g id="Medium-S" transform="matrix(1 0 0 1 1699.6 696)">
   <path d="M83.732-50.348C81.614-55.202 78.778-59.438 75.042-63.092C71.388-66.746 67.152-69.664 62.298-71.7C57.444-73.736 52.372-74.836 46.9-74.836C41.428-74.836 36.356-73.818 31.502-71.7C26.648-69.582 22.494-66.746 18.84-63.092C15.186-59.438 12.268-55.202 10.232-50.348C8.196-45.494 7.096-40.422 7.096-34.95C7.096-29.478 8.114-24.406 10.232-19.552C12.35-14.698 15.186-10.462 18.84-6.808C22.494-3.154 26.73-0.236 31.584 1.8C36.438 3.836 41.51 4.936 46.982 4.936C52.454 4.936 57.608 3.918 62.38 1.8C67.152-0.318 71.388-3.154 75.124-6.808C78.778-10.462 81.696-14.698 83.732-19.552C85.85-24.406 86.868-29.478 86.868-34.95C86.868-40.422 85.768-45.576 83.732-50.348ZM38.898-4.77C38.998-4.97 38.998-5.152 38.998-5.352C38.998-6.134 38.998-8.098 38.898-10.826C30.014-8.862 28.15-15.118 28.15-15.118C26.686-18.828 24.54-19.81 24.54-19.81C21.612-21.774 24.74-21.774 24.74-21.774C27.968-21.574 29.632-18.446 29.632-18.446C32.46-13.554 37.052-14.936 38.916-15.718C39.216-17.764 39.998-19.228 40.962-20.01C33.824-20.792 26.404-23.62 26.404-35.832C26.404-39.342 27.668-42.188 29.732-44.416C29.432-45.198 28.268-48.426 30.032-52.918C30.032-52.918 32.76-53.8 38.816-49.69C41.362-50.372 44.09-50.754 46.818-50.772C49.546-50.772 52.292-50.372 54.82-49.69C60.958-53.8 63.604-52.918 63.604-52.918C65.368-48.508 64.204-45.198 63.904-44.416C65.95-42.17 67.232-39.342 67.232-35.832C67.232-23.52 59.812-20.874 52.674-20.01C53.856-19.046 54.82-17.082 54.82-14.054C54.82-9.762 54.82-6.252 54.82-5.27C54.82-5.07 54.82-4.888 54.92-4.688C52.374-4.006 49.646-3.706 46.818-3.706C44.172-3.788 41.444-4.088 38.898-4.77Z"/>
  </g>
  <g id="Regular-S" transform="matrix(1 0 0 1 1403.34 696)">
   <path d="M82.85-50.15C80.75-54.95 77.95-59.15 74.25-62.75C70.65-66.35 66.45-69.25 61.65-71.25C56.85-73.25 51.85-74.35 46.45-74.35C41.05-74.35 36.05-73.35 31.25-71.25C26.45-69.15 22.35-66.35 18.75-62.75C15.15-59.15 12.25-54.95 10.25-50.15C8.25-45.35 7.15-40.35 7.15-34.95C7.15-29.55 8.15-24.55 10.25-19.75C12.35-14.95 15.15-10.75 18.75-7.15C22.35-3.55 26.55-0.65 31.35 1.35C36.15 3.35 41.15 4.45 46.55 4.45C51.95 4.45 57.05 3.45 61.75 1.35C66.45-0.75 70.65-3.55 74.35-7.15C77.95-10.75 80.85-14.95 82.85-19.75C84.95-24.55 85.95-29.55 85.95-34.95C85.95-40.35 84.85-45.45 82.85-50.15ZM38.25-4.05C38.35-4.25 38.35-4.45 38.35-4.65C38.35-5.45 38.35-7.45 38.25-10.25C29.15-8.25 27.25-14.65 27.25-14.65C25.75-18.45 23.55-19.45 23.55-19.45C20.55-21.45 23.75-21.45 23.75-21.45C27.05-21.25 28.75-18.05 28.75-18.05C31.65-13.05 36.35-14.45 38.25-15.25C38.55-17.35 39.35-18.85 40.35-19.65C33.05-20.45 25.45-23.35 25.45-35.85C25.45-39.45 26.75-42.35 28.85-44.65C28.55-45.45 27.35-48.75 29.15-53.35C29.15-53.35 31.95-54.25 38.15-50.05C40.75-50.75 43.55-51.15 46.35-51.15C49.15-51.15 51.95-50.75 54.55-50.05C60.85-54.25 63.55-53.35 63.55-53.35C65.35-48.85 64.15-45.45 63.85-44.65C65.95-42.35 67.25-39.45 67.25-35.85C67.25-23.25 59.65-20.55 52.35-19.65C53.55-18.65 54.55-16.65 54.55-13.55C54.55-9.15 54.55-5.55 54.55-4.55C54.55-4.35 54.55-4.15 54.65-3.95C52.05-3.25 49.25-2.95 46.35-2.95C43.65-3.05 40.85-3.35 38.25-4.05Z"/>
  </g>
  <g id="Light-S" transform="matrix(1 0 0 1 1107.35 696)">
   <path d="M81.45-49.9167C79.4167-54.6167 76.65-58.7167 73.0167-62.2833C69.4833-65.8167 65.35-68.65 60.65-70.6167C55.95-72.5833 51.0167-73.65 45.7167-73.65C40.4167-73.65 35.4833-72.65 30.7833-70.6167C26.0833-68.5833 22.05-65.8167 18.4833-62.2833C14.95-58.75 12.1167-54.6167 10.15-49.9167C8.18333-45.2167 7.11667-40.2833 7.11667-34.9833C7.11667-29.6833 8.11667-24.7167 10.15-20.05C12.1833-15.35 14.95-11.25 18.4833-7.68333C22.0167-4.15 26.15-1.31667 30.85 0.65C35.55 2.61667 40.4833 3.68333 45.7833 3.68333C51.0833 3.68333 56.1167 2.68333 60.7167 0.65C65.3167-1.38333 69.45-4.15 73.0833-7.68333C76.6167-11.2167 79.45-15.35 81.45-20.05C83.4833-24.75 84.4833-29.6833 84.4833-34.9833C84.4833-40.2833 83.45-45.2833 81.45-49.9167ZM37.2833-3.08333C37.3833-3.28333 37.3833-3.48333 37.3833-3.68333C37.3833-4.51667 37.3833-6.58333 37.2833-9.45C27.9167-7.38333 25.9167-13.9833 25.9167-13.9833C24.3833-17.9167 22.1167-18.9167 22.1167-18.9167C19.0167-20.9833 22.35-20.9833 22.35-20.9833C25.75-20.75 27.5167-17.4833 27.5167-17.4833C30.5167-12.3167 35.35-13.7833 37.3167-14.6167C37.65-16.7833 38.45-18.3167 39.4833-19.15C31.95-19.9833 24.1167-22.95 24.1167-35.8833C24.1167-39.5833 25.45-42.5833 27.6167-44.95C27.2833-45.7833 26.0833-49.1833 27.95-53.9167C27.95-53.9167 30.8167-54.85 37.25-50.5167C39.9167-51.25 42.8167-51.65 45.7167-51.65C48.5833-51.65 51.4833-51.25 54.1833-50.5167C60.65-54.85 63.4833-53.9167 63.4833-53.9167C65.35-49.25 64.1167-45.7833 63.8167-44.95C65.9833-42.5833 67.3167-39.5833 67.3167-35.8833C67.3167-22.8833 59.4833-20.0833 51.95-19.1833C53.1833-18.15 54.2167-16.0833 54.2167-12.8833C54.2167-8.35 54.2167-4.65 54.2167-3.58333C54.2167-3.38333 54.2167-3.18333 54.3167-2.98333C51.6167-2.25 48.75-1.95 45.7833-1.95C42.85-2.05 39.9833-2.38333 37.2833-3.08333Z"/>
  </g>
  <g id="Thin-S" transform="matrix(1 0 0 1 811.587 696)">
   <path d="M79.5984-49.6081C77.6532-54.1758 74.9306-58.1435 71.3855-61.6661C67.9403-65.1113 63.8952-67.8565 59.3274-69.779C54.7597-71.7016 49.9145-72.7242 44.7468-72.7242C39.579-72.7242 34.7339-71.7242 30.1661-69.779C25.5984-67.8339 21.6532-65.1113 18.1306-61.6661C14.6855-58.221 11.9403-54.1758 10.0177-49.6081C8.09516-45.0403 7.07258-40.1952 7.07258-35.0274C7.07258-29.8597 8.07258-24.9371 10.0177-20.4468C11.9629-15.879 14.6855-11.9113 18.1306-8.38871C21.5758-4.94355 25.621-2.19839 30.1887-0.275806C34.7565 1.64677 39.6016 2.66935 44.7694 2.66935C49.9371 2.66935 54.8823 1.66935 59.35-0.275806C63.8177-2.22097 67.8629-4.94355 71.4081-8.38871C74.8532-11.8339 77.5984-15.879 79.5984-20.4468C81.5435-25.0145 82.5435-29.8597 82.5435-35.0274C82.5435-40.1952 81.5984-45.0629 79.5984-49.6081ZM36.0048-1.80484C36.1048-2.00484 36.1048-2.20484 36.1048-2.40484C36.1048-3.28226 36.1048-5.4371 36.0048-8.39194C26.2855-6.2371 24.1532-13.1016 24.1532-13.1016C22.5758-17.2113 20.221-18.2113 20.221-18.2113C16.9887-20.3661 20.4984-20.3661 20.4984-20.3661C24.0306-20.0887 25.8855-16.7339 25.8855-16.7339C29.0177-11.3468 34.0274-12.9016 36.0823-13.779C36.4597-16.0339 37.2597-17.6113 38.3371-18.4887C30.4952-19.3661 22.3532-22.421 22.3532-35.9274C22.3532-39.7597 23.7306-42.8919 25.9855-45.3468C25.6081-46.2242 24.4081-49.7565 26.3629-54.6661C26.3629-54.6661 29.3177-55.6435 36.0597-51.1339C38.8145-51.9113 41.8468-52.3113 44.879-52.3113C47.8339-52.3113 50.8661-51.9113 53.6984-51.1339C60.3855-55.6435 63.3952-54.6661 63.3952-54.6661C65.35-49.779 64.0726-46.2242 63.7726-45.3468C66.0274-42.8919 67.4048-39.7597 67.4048-35.9274C67.4048-22.3984 59.2629-19.4661 51.421-18.5661C52.6984-17.4887 53.7758-15.3339 53.7758-12.0016C53.7758-7.29194 53.7758-3.45968 53.7758-2.30484C53.7758-2.10484 53.7758-1.90484 53.8758-1.70484C51.0435-0.927419 48.0887-0.627419 45.0339-0.627419C41.7919-0.727419 38.8371-1.10484 36.0048-1.80484Z"/>
  </g>
  <g id="Ultralight-S" transform="matrix(1 0 0 1 515.361 696)">
   <path d="M78.65-49.45C76.75-53.95 74.05-57.85 70.55-61.35C67.15-64.75 63.15-67.45 58.65-69.35C54.15-71.25 49.35-72.25 44.25-72.25C39.15-72.25 34.35-71.25 29.85-69.35C25.35-67.45 21.45-64.75 17.95-61.35C14.55-57.95 11.85-53.95 9.95-49.45C8.05-44.95 7.05-40.15 7.05-35.05C7.05-29.95 8.05-25.05 9.95-20.65C11.85-16.15 14.55-12.25 17.95-8.75C21.35-5.35 25.35-2.65 29.85-0.75C34.35 1.15 39.15 2.15 44.25 2.15C49.35 2.15 54.25 1.15 58.65-0.75C63.05-2.65 67.05-5.35 70.55-8.75C73.95-12.15 76.65-16.15 78.65-20.65C80.55-25.15 81.55-29.95 81.55-35.05C81.55-40.15 80.65-44.95 78.65-49.45ZM35.35-1.15C35.45-1.35 35.45-1.55 35.45-1.75C35.45-2.65 35.45-4.85 35.35-7.85C25.45-5.65 23.25-12.65 23.25-12.65C21.65-16.85 19.25-17.85 19.25-17.85C15.95-20.05 19.55-20.05 19.55-20.05C23.15-19.75 25.05-16.35 25.05-16.35C28.25-10.85 33.35-12.45 35.45-13.35C35.85-15.65 36.65-17.25 37.75-18.15C29.75-19.05 21.45-22.15 21.45-35.95C21.45-39.85 22.85-43.05 25.15-45.55C24.75-46.45 23.55-50.05 25.55-55.05C25.55-55.05 28.55-56.05 35.45-51.45C38.25-52.25 41.35-52.65 44.45-52.65C47.45-52.65 50.55-52.25 53.45-51.45C60.25-56.05 63.35-55.05 63.35-55.05C65.35-50.05 64.05-46.45 63.75-45.55C66.05-43.05 67.45-39.85 67.45-35.95C67.45-22.15 59.15-19.15 51.15-18.25C52.45-17.15 53.55-14.95 53.55-11.55C53.55-6.75 53.55-2.85 53.55-1.65C53.55-1.45 53.55-1.25 53.65-1.05C50.75-0.25 47.75 0.05 44.65 0.05C41.25-0.05 38.25-0.45 35.35-1.15Z"/>
  </g>
 </g>
</svg>
