<?xml version="1.0" encoding="UTF-8"?>
<!--Generator: Apple Native CoreSVG 149-->
<!DOCTYPE svg
PUBLIC "-//W3C//DTD SVG 1.1//EN"
       "http://www.w3.org/Graphics/SVG/1.1/DTD/svg11.dtd">
<svg version="1.1" xmlns="http://www.w3.org/2000/svg" xmlns:xlink="http://www.w3.org/1999/xlink" width="3300" height="2200">
 <!--glyph: "", point size: 100.0, font version: "17.0d9e1", template writer version: "59"-->
 <style>.hierarchical-0:primary {fill:#212121}
.hierarchical-1:secondary {fill:#4D4D4D}

.clearBehindLayer {}
.SFSymbolsPreview212121 {fill:#212121;opacity:1.0}
.SFSymbolsPreview4D4D4D {fill:#4D4D4D;opacity:1.0}
</style>
 <g id="Notes">
  <rect height="2200" id="artboard" style="fill:white;opacity:1" width="3300" x="0" y="0"/>
  <line style="fill:none;stroke:black;opacity:1;stroke-width:0.5;" x1="263" x2="3036" y1="292" y2="292"/>
  <text style="stroke:none;fill:black;font-family:sans-serif;font-size:13;font-weight:bold;" transform="matrix(1 0 0 1 263 322)">Weight/Scale Variations</text>
  <text style="stroke:none;fill:black;font-family:sans-serif;font-size:13;text-anchor:middle;" transform="matrix(1 0 0 1 559.711 322)">Ultralight</text>
  <text style="stroke:none;fill:black;font-family:sans-serif;font-size:13;text-anchor:middle;" transform="matrix(1 0 0 1 856.422 322)">Thin</text>
  <text style="stroke:none;fill:black;font-family:sans-serif;font-size:13;text-anchor:middle;" transform="matrix(1 0 0 1 1153.13 322)">Light</text>
  <text style="stroke:none;fill:black;font-family:sans-serif;font-size:13;text-anchor:middle;" transform="matrix(1 0 0 1 1449.84 322)">Regular</text>
  <text style="stroke:none;fill:black;font-family:sans-serif;font-size:13;text-anchor:middle;" transform="matrix(1 0 0 1 1746.56 322)">Medium</text>
  <text style="stroke:none;fill:black;font-family:sans-serif;font-size:13;text-anchor:middle;" transform="matrix(1 0 0 1 2043.27 322)">Semibold</text>
  <text style="stroke:none;fill:black;font-family:sans-serif;font-size:13;text-anchor:middle;" transform="matrix(1 0 0 1 2339.98 322)">Bold</text>
  <text style="stroke:none;fill:black;font-family:sans-serif;font-size:13;text-anchor:middle;" transform="matrix(1 0 0 1 2636.69 322)">Heavy</text>
  <text style="stroke:none;fill:black;font-family:sans-serif;font-size:13;text-anchor:middle;" transform="matrix(1 0 0 1 2933.4 322)">Black</text>
  <line style="fill:none;stroke:black;opacity:1;stroke-width:0.5;" x1="263" x2="3036" y1="1903" y2="1903"/>
  <g transform="matrix(1 0 0 1 263 1933)">
   <path d="M9.24805 0.830078Q10.8691 0.830078 12.2949 0.214844Q13.7207-0.400391 14.8096-1.49414Q15.8984-2.58789 16.5186-4.01367Q17.1387-5.43945 17.1387-7.05078Q17.1387-8.66211 16.5186-10.0879Q15.8984-11.5137 14.8047-12.6074Q13.7109-13.7012 12.2852-14.3164Q10.8594-14.9316 9.23828-14.9316Q7.62695-14.9316 6.20117-14.3164Q4.77539-13.7012 3.69141-12.6074Q2.60742-11.5137 1.9873-10.0879Q1.36719-8.66211 1.36719-7.05078Q1.36719-5.43945 1.9873-4.01367Q2.60742-2.58789 3.69629-1.49414Q4.78516-0.400391 6.21094 0.214844Q7.63672 0.830078 9.24805 0.830078ZM9.24805-0.654297Q7.91992-0.654297 6.7627-1.14746Q5.60547-1.64062 4.73145-2.51953Q3.85742-3.39844 3.36426-4.56055Q2.87109-5.72266 2.87109-7.05078Q2.87109-8.37891 3.35938-9.54102Q3.84766-10.7031 4.72168-11.582Q5.5957-12.4609 6.75293-12.9541Q7.91016-13.4473 9.23828-13.4473Q10.5762-13.4473 11.7334-12.9541Q12.8906-12.4609 13.7695-11.582Q14.6484-10.7031 15.1465-9.54102Q15.6445-8.37891 15.6445-7.05078Q15.6445-5.72266 15.1514-4.56055Q14.6582-3.39844 13.7842-2.51953Q12.9102-1.64062 11.748-1.14746Q10.5859-0.654297 9.24805-0.654297ZM5.83984-7.04102Q5.83984-6.71875 6.04492-6.51855Q6.25-6.31836 6.5918-6.31836L8.50586-6.31836L8.50586-4.39453Q8.50586-4.0625 8.70605-3.85742Q8.90625-3.65234 9.22852-3.65234Q9.56055-3.65234 9.76562-3.85742Q9.9707-4.0625 9.9707-4.39453L9.9707-6.31836L11.8945-6.31836Q12.2266-6.31836 12.4316-6.51855Q12.6367-6.71875 12.6367-7.04102Q12.6367-7.37305 12.4316-7.57812Q12.2266-7.7832 11.8945-7.7832L9.9707-7.7832L9.9707-9.69727Q9.9707-10.0391 9.76562-10.2441Q9.56055-10.4492 9.22852-10.4492Q8.90625-10.4492 8.70605-10.2441Q8.50586-10.0391 8.50586-9.69727L8.50586-7.7832L6.5918-7.7832Q6.25-7.7832 6.04492-7.57812Q5.83984-7.37305 5.83984-7.04102Z"/>
  </g>
  <g transform="matrix(1 0 0 1 281.867 1933)">
   <path d="M11.709 2.91016Q13.75 2.91016 15.5518 2.12891Q17.3535 1.34766 18.7305-0.0292969Q20.1074-1.40625 20.8887-3.20801Q21.6699-5.00977 21.6699-7.05078Q21.6699-9.0918 20.8887-10.8936Q20.1074-12.6953 18.7305-14.0723Q17.3535-15.4492 15.5469-16.2305Q13.7402-17.0117 11.6992-17.0117Q9.6582-17.0117 7.85645-16.2305Q6.05469-15.4492 4.68262-14.0723Q3.31055-12.6953 2.5293-10.8936Q1.74805-9.0918 1.74805-7.05078Q1.74805-5.00977 2.5293-3.20801Q3.31055-1.40625 4.6875-0.0292969Q6.06445 1.34766 7.86621 2.12891Q9.66797 2.91016 11.709 2.91016ZM11.709 1.25Q9.98047 1.25 8.47656 0.605469Q6.97266-0.0390625 5.83496-1.17676Q4.69727-2.31445 4.05762-3.81836Q3.41797-5.32227 3.41797-7.05078Q3.41797-8.7793 4.05762-10.2832Q4.69727-11.7871 5.83008-12.9297Q6.96289-14.0723 8.4668-14.7119Q9.9707-15.3516 11.6992-15.3516Q13.4277-15.3516 14.9316-14.7119Q16.4355-14.0723 17.5781-12.9297Q18.7207-11.7871 19.3652-10.2832Q20.0098-8.7793 20.0098-7.05078Q20.0098-5.32227 19.3701-3.81836Q18.7305-2.31445 17.5928-1.17676Q16.4551-0.0390625 14.9463 0.605469Q13.4375 1.25 11.709 1.25ZM7.39258-7.04102Q7.39258-6.68945 7.62695-6.46484Q7.86133-6.24023 8.23242-6.24023L10.8789-6.24023L10.8789-3.57422Q10.8789-3.21289 11.1035-2.9834Q11.3281-2.75391 11.6797-2.75391Q12.0508-2.75391 12.2852-2.9834Q12.5195-3.21289 12.5195-3.57422L12.5195-6.24023L15.1758-6.24023Q15.5371-6.24023 15.7715-6.46484Q16.0059-6.68945 16.0059-7.04102Q16.0059-7.41211 15.7715-7.6416Q15.5371-7.87109 15.1758-7.87109L12.5195-7.87109L12.5195-10.5176Q12.5195-10.8984 12.2852-11.1279Q12.0508-11.3574 11.6797-11.3574Q11.3281-11.3574 11.1035-11.1279Q10.8789-10.8984 10.8789-10.5176L10.8789-7.87109L8.23242-7.87109Q7.85156-7.87109 7.62207-7.6416Q7.39258-7.41211 7.39258-7.04102Z"/>
  </g>
  <g transform="matrix(1 0 0 1 305.646 1933)">
   <path d="M14.9707 5.66406Q17.0605 5.66406 18.96 5.01465Q20.8594 4.36523 22.4512 3.19336Q24.043 2.02148 25.2197 0.429688Q26.3965-1.16211 27.0459-3.06641Q27.6953-4.9707 27.6953-7.05078Q27.6953-9.14062 27.0459-11.04Q26.3965-12.9395 25.2197-14.5312Q24.043-16.123 22.4512-17.2998Q20.8594-18.4766 18.9551-19.126Q17.0508-19.7754 14.9609-19.7754Q12.8711-19.7754 10.9717-19.126Q9.07227-18.4766 7.48535-17.2998Q5.89844-16.123 4.72168-14.5312Q3.54492-12.9395 2.90039-11.04Q2.25586-9.14062 2.25586-7.05078Q2.25586-4.9707 2.90527-3.06641Q3.55469-1.16211 4.72656 0.429688Q5.89844 2.02148 7.49023 3.19336Q9.08203 4.36523 10.9814 5.01465Q12.8809 5.66406 14.9707 5.66406ZM14.9707 3.84766Q13.1641 3.84766 11.5283 3.2959Q9.89258 2.74414 8.53516 1.74805Q7.17773 0.751953 6.17676-0.610352Q5.17578-1.97266 4.62891-3.6084Q4.08203-5.24414 4.08203-7.05078Q4.08203-8.86719 4.62891-10.5029Q5.17578-12.1387 6.17188-13.501Q7.16797-14.8633 8.52539-15.8594Q9.88281-16.8555 11.5186-17.4023Q13.1543-17.9492 14.9609-17.9492Q16.7773-17.9492 18.4131-17.4023Q20.0488-16.8555 21.4111-15.8594Q22.7734-14.8633 23.7695-13.501Q24.7656-12.1387 25.3174-10.5029Q25.8691-8.86719 25.8691-7.05078Q25.8789-5.24414 25.332-3.6084Q24.7852-1.97266 23.7842-0.610352Q22.7832 0.751953 21.4209 1.74805Q20.0586 2.74414 18.4229 3.2959Q16.7871 3.84766 14.9707 3.84766ZM9.45312-7.04102Q9.45312-6.66016 9.71191-6.41113Q9.9707-6.16211 10.3711-6.16211L14.0625-6.16211L14.0625-2.46094Q14.0625-2.06055 14.3115-1.80664Q14.5605-1.55273 14.9414-1.55273Q15.3516-1.55273 15.6055-1.80664Q15.8594-2.06055 15.8594-2.46094L15.8594-6.16211L19.5605-6.16211Q19.9609-6.16211 20.2148-6.41113Q20.4688-6.66016 20.4688-7.04102Q20.4688-7.45117 20.2148-7.70508Q19.9609-7.95898 19.5605-7.95898L15.8594-7.95898L15.8594-11.6504Q15.8594-12.0605 15.6055-12.3145Q15.3516-12.5684 14.9414-12.5684Q14.5605-12.5684 14.3115-12.3096Q14.0625-12.0508 14.0625-11.6504L14.0625-7.95898L10.3711-7.95898Q9.96094-7.95898 9.70703-7.70508Q9.45312-7.45117 9.45312-7.04102Z"/>
  </g>
  <text style="stroke:none;fill:black;font-family:sans-serif;font-size:13;font-weight:bold;" transform="matrix(1 0 0 1 263 1953)">Design Variations</text>
  <text style="stroke:none;fill:black;font-family:sans-serif;font-size:13;" transform="matrix(1 0 0 1 263 1971)">Symbols are supported in up to nine weights and three scales.</text>
  <text style="stroke:none;fill:black;font-family:sans-serif;font-size:13;" transform="matrix(1 0 0 1 263 1989)">For optimal layout with text and other symbols, vertically align</text>
  <text style="stroke:none;fill:black;font-family:sans-serif;font-size:13;" transform="matrix(1 0 0 1 263 2007)">symbols with the adjacent text.</text>
  <line style="fill:none;stroke:#00AEEF;stroke-width:0.5;opacity:1.0;" x1="776" x2="776" y1="1919" y2="1933"/>
  <g transform="matrix(1 0 0 1 776 1933)">
   <path d="M3.31055 0.15625Q3.70117 0.15625 3.91602-0.00976562Q4.13086-0.175781 4.26758-0.585938L5.52734-4.0332L11.2891-4.0332L12.5488-0.585938Q12.6855-0.175781 12.9004-0.00976562Q13.1152 0.15625 13.4961 0.15625Q13.8867 0.15625 14.1162-0.0585938Q14.3457-0.273438 14.3457-0.644531Q14.3457-0.869141 14.2383-1.17188L9.6582-13.3691Q9.48242-13.8184 9.17969-14.043Q8.87695-14.2676 8.4082-14.2676Q7.5-14.2676 7.17773-13.3789L2.59766-1.16211Q2.49023-0.859375 2.49023-0.634766Q2.49023-0.263672 2.70996-0.0537109Q2.92969 0.15625 3.31055 0.15625ZM6.00586-5.51758L8.37891-12.0898L8.42773-12.0898L10.8008-5.51758Z"/>
  </g>
  <line style="fill:none;stroke:#00AEEF;stroke-width:0.5;opacity:1.0;" x1="793.197" x2="793.197" y1="1919" y2="1933"/>
  <text style="stroke:none;fill:black;font-family:sans-serif;font-size:13;font-weight:bold;" transform="matrix(1 0 0 1 776 1953)">Margins</text>
  <text style="stroke:none;fill:black;font-family:sans-serif;font-size:13;" transform="matrix(1 0 0 1 776 1971)">Leading and trailing margins on the left and right side of each symbol</text>
  <text style="stroke:none;fill:black;font-family:sans-serif;font-size:13;" transform="matrix(1 0 0 1 776 1989)">can be adjusted by modifying the x-location of the margin guidelines.</text>
  <text style="stroke:none;fill:black;font-family:sans-serif;font-size:13;" transform="matrix(1 0 0 1 776 2007)">Modifications are automatically applied proportionally to all</text>
  <text style="stroke:none;fill:black;font-family:sans-serif;font-size:13;" transform="matrix(1 0 0 1 776 2025)">scales and weights.</text>
  <g transform="matrix(1 0 0 1 1289 1933)">
   <path d="M2.8418 1.86523L4.54102 3.57422Q5.18555 4.22852 5.90332 4.17969Q6.62109 4.13086 7.31445 3.35938L18.0078-8.42773L17.041-9.4043L6.42578 2.27539Q6.16211 2.57812 5.89355 2.61719Q5.625 2.65625 5.27344 2.30469L4.10156 1.14258Q3.75 0.791016 3.79395 0.522461Q3.83789 0.253906 4.14062-0.0195312L15.6152-10.8203L14.6387-11.7871L3.04688-0.898438Q2.30469-0.214844 2.25098 0.498047Q2.19727 1.21094 2.8418 1.86523ZM9.25781-16.3281Q8.94531-16.0254 8.90625-15.6348Q8.86719-15.2441 9.04297-14.9512Q9.21875-14.6777 9.55566-14.541Q9.89258-14.4043 10.3809-14.5215Q11.4746-14.7754 12.5977-14.7314Q13.7207-14.6875 14.7949-13.9844L14.209-12.5293Q13.9551-11.9043 14.0674-11.4404Q14.1797-10.9766 14.5801-10.5664L16.875-8.25195Q17.2363-7.88086 17.5781-7.82227Q17.9199-7.76367 18.3398-7.8418L19.4043-8.03711L20.0684-7.36328L20.0293-6.80664Q20-6.43555 20.1221-6.12305Q20.2441-5.81055 20.6055-5.44922L21.3672-4.70703Q21.7285-4.3457 22.1533-4.33105Q22.5781-4.31641 22.9297-4.66797L25.8398-7.58789Q26.1914-7.93945 26.1816-8.35449Q26.1719-8.76953 25.8105-9.13086L25.0391-9.89258Q24.6875-10.2539 24.3799-10.3857Q24.0723-10.5176 23.7109-10.4883L23.1348-10.4395L22.4902-11.0742L22.7344-12.1973Q22.832-12.6172 22.6953-12.9834Q22.5586-13.3496 22.1191-13.7891L19.9219-15.9766Q18.6719-17.2168 17.2607-17.8369Q15.8496-18.457 14.4189-18.4814Q12.9883-18.5059 11.665-17.959Q10.3418-17.4121 9.25781-16.3281ZM10.752-15.957Q11.6602-16.6211 12.7002-16.9043Q13.7402-17.1875 14.8047-17.085Q15.8691-16.9824 16.8701-16.5137Q17.8711-16.0449 18.7012-15.2051L21.1328-12.793Q21.3086-12.6172 21.3525-12.4512Q21.3965-12.2852 21.3379-12.0312L21.0156-10.5469L22.5195-9.0625L23.5059-9.12109Q23.6914-9.13086 23.7891-9.09668Q23.8867-9.0625 24.0332-8.91602L24.6094-8.33984L22.168-5.89844L21.5918-6.47461Q21.4453-6.62109 21.4062-6.71875Q21.3672-6.81641 21.377-7.01172L21.4453-7.98828L19.9512-9.47266L18.4277-9.21875Q18.1836-9.16992 18.042-9.2041Q17.9004-9.23828 17.7148-9.41406L15.7129-11.416Q15.5176-11.5918 15.4932-11.7529Q15.4688-11.9141 15.5859-12.1875L16.4648-14.2773Q15.293-15.3711 13.8281-15.791Q12.3633-16.2109 10.8398-15.7617Q10.7227-15.7324 10.6885-15.8057Q10.6543-15.8789 10.752-15.957Z"/>
  </g>
  <text style="stroke:none;fill:black;font-family:sans-serif;font-size:13;font-weight:bold;" transform="matrix(1 0 0 1 1289 1953)">Exporting</text>
  <text style="stroke:none;fill:black;font-family:sans-serif;font-size:13;" transform="matrix(1 0 0 1 1289 1971)">Symbols should be outlined when exporting to ensure the</text>
  <text style="stroke:none;fill:black;font-family:sans-serif;font-size:13;" transform="matrix(1 0 0 1 1289 1989)">design is preserved when submitting to Xcode.</text>
  <text id="template-version" style="stroke:none;fill:black;font-family:sans-serif;font-size:13;text-anchor:end;" transform="matrix(1 0 0 1 3036 1933)">Template v.3.0</text>
  <text style="stroke:none;fill:black;font-family:sans-serif;font-size:13;text-anchor:end;" transform="matrix(1 0 0 1 3036 1951)">Requires Xcode 13 or greater</text>
  <text id="descriptive-name" style="stroke:none;fill:black;font-family:sans-serif;font-size:13;text-anchor:end;" transform="matrix(1 0 0 1 3036 1969)">Generated from logo.github.circle</text>
  <text style="stroke:none;fill:black;font-family:sans-serif;font-size:13;text-anchor:end;" transform="matrix(1 0 0 1 3036 1987)">Typeset at 100 points</text>
  <text style="stroke:none;fill:black;font-family:sans-serif;font-size:13;" transform="matrix(1 0 0 1 263 726)">Small</text>
  <text style="stroke:none;fill:black;font-family:sans-serif;font-size:13;" transform="matrix(1 0 0 1 263 1156)">Medium</text>
  <text style="stroke:none;fill:black;font-family:sans-serif;font-size:13;" transform="matrix(1 0 0 1 263 1586)">Large</text>
 </g>
 <g id="Guides">
  <g id="H-reference" style="fill:#27AAE1;stroke:none;" transform="matrix(1 0 0 1 339 696)">
   <path d="M0.976562 0L3.66211 0L29.3457-67.1387L30.0293-67.1387L30.0293-70.459L28.125-70.459ZM11.6699-24.4629L46.9727-24.4629L46.2402-26.709L12.4512-26.709ZM55.127 0L57.7637 0L30.6152-70.459L29.4434-70.459L29.4434-67.1387Z"/>
  </g>
  <line id="Baseline-S" style="fill:none;stroke:#27AAE1;opacity:1;stroke-width:0.5;" x1="263" x2="3036" y1="696" y2="696"/>
  <line id="Capline-S" style="fill:none;stroke:#27AAE1;opacity:1;stroke-width:0.5;" x1="263" x2="3036" y1="625.541" y2="625.541"/>
  <g id="H-reference" style="fill:#27AAE1;stroke:none;" transform="matrix(1 0 0 1 339 1126)">
   <path d="M0.976562 0L3.66211 0L29.3457-67.1387L30.0293-67.1387L30.0293-70.459L28.125-70.459ZM11.6699-24.4629L46.9727-24.4629L46.2402-26.709L12.4512-26.709ZM55.127 0L57.7637 0L30.6152-70.459L29.4434-70.459L29.4434-67.1387Z"/>
  </g>
  <line id="Baseline-M" style="fill:none;stroke:#27AAE1;opacity:1;stroke-width:0.5;" x1="263" x2="3036" y1="1126" y2="1126"/>
  <line id="Capline-M" style="fill:none;stroke:#27AAE1;opacity:1;stroke-width:0.5;" x1="263" x2="3036" y1="1055.54" y2="1055.54"/>
  <g id="H-reference" style="fill:#27AAE1;stroke:none;" transform="matrix(1 0 0 1 339 1556)">
   <path d="M0.976562 0L3.66211 0L29.3457-67.1387L30.0293-67.1387L30.0293-70.459L28.125-70.459ZM11.6699-24.4629L46.9727-24.4629L46.2402-26.709L12.4512-26.709ZM55.127 0L57.7637 0L30.6152-70.459L29.4434-70.459L29.4434-67.1387Z"/>
  </g>
  <line id="Baseline-L" style="fill:none;stroke:#27AAE1;opacity:1;stroke-width:0.5;" x1="263" x2="3036" y1="1556" y2="1556"/>
  <line id="Capline-L" style="fill:none;stroke:#27AAE1;opacity:1;stroke-width:0.5;" x1="263" x2="3036" y1="1485.54" y2="1485.54"/>
  <line id="left-margin-Regular-M" style="fill:none;stroke:#00AEEF;stroke-width:0.5;opacity:1.0;" x1="1391.01" x2="1391.01" y1="1030.73" y2="1150.14"/>
  <line id="right-margin-Regular-M" style="fill:none;stroke:#00AEEF;stroke-width:0.5;opacity:1.0;" x1="1508.68" x2="1508.68" y1="1030.73" y2="1150.14"/>
 </g>
 <g id="Symbols">
  <g id="Black-L" transform="matrix(1 0 0 1 2853.82 1556)">
   <path class="hierarchical-0:primary SFSymbolsPreview212121" d="M106.644-68.6494C106.644-68.6494 102.317-70.1317 92.2997-63.3339C88.1371-64.4868 83.6451-65.1456 79.2728-65.1456C74.7808-65.1456 70.2888-64.4868 66.2458-63.3339C56.3933-70.0121 51.9013-68.6494 51.9013-68.6494C49.0563-61.3124 50.9131-55.9969 51.4072-54.7989C48.0681-51.1305 46.0466-46.4738 46.0466-40.7838C46.0466-20.914 58.205-16.2573 69.7496-14.9397C68.1026-13.6221 66.9046-11.2712 66.4105-7.93216C63.4009-6.61456 55.8992-4.42838 51.2425-12.4241C51.2425-12.4241 48.5622-17.5749 43.2467-17.7847C43.2467-17.7847 38.096-17.7847 42.9173-14.6103C42.9173-14.6103 46.4211-12.9633 48.772-6.94396C48.772-6.94396 51.7817 3.23799 66.2909 0.0636025C66.4556 4.55559 66.4556 8.71067 66.4556 10.0283C66.4556 10.3577 65.6321 12.0047 65.4674 12.3341C69.63 13.487 74.8259 13.6517 79.1532 13.8164C83.8098 13.8164 89.3351 12.6898 93.4977 11.5369C93.333 11.2075 92.2997 9.48909 92.2997 9.15969C92.2997 7.51269 92.2997 1.8753 92.2997-5.13226C92.2997-10.1183 90.6527-13.2927 88.7959-14.8201C100.46-16.3024 112.499-20.5101 112.499-40.6642C112.499-46.3542 110.477-51.0108 107.138-54.6793C107.632-56.1165 109.489-61.4771 106.644-68.6494Z"/>
   <path class="hierarchical-1:secondary clearBehindLayer SFSymbolsPreview4D4D4D" d="M79.512 33.188C88.8764 33.188 97.6297 31.4214 105.841 27.8483C114.055 24.2753 121.246 19.4271 127.532 13.1018C133.815 6.81905 138.705-0.332313 142.238-8.58886C145.769-16.8454 147.578-25.5536 147.578-34.918C147.578-44.2823 145.812-52.9932 142.238-61.2471C138.665-69.5036 133.817-76.6523 127.489-82.9378C121.207-89.2205 114.055-94.1112 105.799-97.6418C97.5421-101.215 88.8339-102.981 79.4696-102.981C70.1052-102.981 61.397-101.215 53.1405-97.6418C44.8839-94.0687 37.7776-89.2205 31.4922-82.9378C25.2094-76.655 20.3188-69.5036 16.7882-61.2471C13.3348-52.8709 11.5681-44.1627 11.5681-34.7983C11.5681-25.434 13.3348-16.7232 16.9078-8.46924C20.4808-0.212696 25.329 6.93603 31.6118 13.2214C37.8946 19.5042 45.046 24.3949 53.3025 27.9255C61.4394 31.3365 70.1901 33.188 79.512 33.188ZM79.512 12.9582C72.9724 12.9582 66.7648 11.7575 60.9715 9.31385C55.1383 6.91262 50.1685 3.4781 45.7007-0.989705C41.395-5.29544 37.9605-10.4247 35.4396-16.2604C33.0384-22.0936 31.6757-28.2587 31.6757-34.8434C31.6757-41.4282 32.8763-47.5907 35.3972-53.4264C37.7984-59.2595 41.2329-64.2718 45.6583-68.6972C49.964-73.0029 55.0933-76.4374 60.929-79.0007C66.7621-81.402 72.9299-82.7646 79.4696-82.7646C86.0516-82.7646 92.2194-81.564 98.0526-79.0007C103.886-76.557 108.898-73.165 113.323-68.6972C117.629-64.3914 121.064-59.2622 123.627-53.4264C126.071-47.5933 127.391-41.4255 127.391-34.8434C127.391-28.2613 126.19-22.0962 123.627-16.2604C121.226-10.4273 117.791-5.41506 113.366-0.989705C109.06 3.35848 103.931 6.793 98.0976 9.3563C92.4239 11.7575 86.2163 12.9582 79.512 12.9582Z"/>
  </g>
  <g id="Heavy-L" transform="matrix(1 0 0 1 2558.04 1556)">
   <path class="hierarchical-0:primary SFSymbolsPreview212121" d="M105.988-68.7146C105.988-68.7146 101.632-70.1969 91.5302-63.3709C87.3394-64.5238 82.8192-65.1826 78.3903-65.1826C73.8701-65.1826 69.3499-64.5238 65.2505-63.3709C55.3132-70.1055 50.793-68.7146 50.793-68.7146C47.9198-61.3212 49.8048-55.9775 50.2989-54.7513C46.9316-51.0546 44.8819-46.3696 44.8819-40.6232C44.8819-20.584 57.1249-15.8991 68.7825-14.5815C67.1355-13.2639 65.9093-10.8848 65.4152-7.5175C62.3773-6.1999 54.8191-3.98549 50.1342-12.0377C50.1342-12.0377 47.4257-17.2167 42.082-17.4547C42.082-17.4547 36.903-17.4547 41.7526-14.2521C41.7526-14.2521 45.2846-12.6051 47.6637-6.5293C47.6637-6.5293 50.7016 3.73734 65.3238 0.534727C65.4885 5.05494 65.4885 10.0946 65.4885 11.4122C65.4885 11.7416 64.665 13.3886 64.5003 13.718C68.6911 14.8709 73.9434 15.0356 78.299 15.2003C82.9839 15.2003 88.5656 14.171 92.7564 13.0181C92.5917 12.6887 91.5302 10.8448 91.5302 10.5154C91.5302 8.86842 91.5302 2.34643 91.5302-4.7176C91.5302-9.73191 89.8832-12.9345 87.9982-14.4901C99.7471-15.9724 111.899-20.2366 111.899-40.5318C111.899-46.2783 109.849-50.9632 106.482-54.6599C106.976-56.0689 108.861-61.4859 105.988-68.7146Z"/>
   <path class="hierarchical-1:secondary clearBehindLayer SFSymbolsPreview4D4D4D" d="M78.5731 32.24C87.7954 32.24 96.4445 30.5016 104.514 26.9763C112.596 23.4509 119.72 18.6689 125.911 12.4293C132.089 6.25067 136.932-0.824787 140.409-8.96747C143.873-17.1101 145.673-25.686 145.673-34.9082C145.673-44.1305 143.934-52.7187 140.409-60.849C136.884-68.9917 132.102-76.0548 125.85-82.2458C119.671-88.4244 112.596-93.2674 104.453-96.7318C96.3103-100.257 87.7344-101.996 78.5122-101.996C69.2899-101.996 60.7141-100.257 52.5714-96.7318C44.4287-93.2064 37.4266-88.4244 31.2356-82.2458C25.0569-76.0671 20.214-68.9917 16.7495-60.849C13.3156-52.6149 11.5772-44.0391 11.5772-34.8169C11.5772-25.5946 13.3156-17.0064 16.8409-8.87608C20.3663-0.7334 25.1483 6.32969 31.327 12.5207C37.5056 18.6993 44.581 23.5423 52.7237 27.0067C60.775 30.3797 69.4118 32.24 78.5731 32.24ZM78.5731 14.4073C71.8252 14.4073 65.419 13.1688 59.4642 10.6307C53.4607 8.15353 48.3294 4.61487 43.7292 0.0146947C39.2814-4.43314 35.7427-9.70447 33.1742-15.7203C30.697-21.7237 29.3061-28.0689 29.3061-34.8902C29.3061-41.7114 30.5447-48.0442 33.1132-54.0601C35.5904-60.0635 39.129-65.2558 43.6683-69.795C48.1161-74.2429 53.3874-77.7815 59.4032-80.411C65.4067-82.8882 71.7642-84.2791 78.5122-84.2791C85.321-84.2791 91.6786-83.0405 97.682-80.411C103.685-77.8729 108.878-74.3952 113.417-69.795C117.865-65.3472 121.404-60.0759 124.033-54.0601C126.571-48.0566 127.901-41.699 127.901-34.8902C127.901-28.0813 126.662-21.7361 124.033-15.7203C121.556-9.71683 118.017-4.52453 113.478 0.0146947C109.03 4.52348 103.759 8.06214 97.7554 10.6916C91.8919 13.1688 85.4857 14.4073 78.5731 14.4073Z"/>
  </g>
  <g id="Bold-L" transform="matrix(1 0 0 1 2262.49 1556)">
   <path class="hierarchical-0:primary SFSymbolsPreview212121" d="M105.127-68.7758C105.127-68.7758 100.74-70.2581 90.5435-63.4005C86.3211-64.5534 81.7693-65.2122 77.2773-65.2122C72.7255-65.2122 68.1737-64.5534 64.0111-63.4005C53.9792-70.1983 49.4274-68.7758 49.4274-68.7758C46.5226-61.3192 48.4392-55.9439 48.9333-54.6861C45.5344-50.9578 43.4531-46.2414 43.4531-40.4318C43.4531-20.2031 55.7909-15.4866 67.5747-14.169C65.9277-12.8514 64.6699-10.4407 64.1758-7.04185C61.1063-5.72425 53.4851-3.47825 48.7686-11.5936C48.7686-11.5936 46.0285-16.8042 40.6532-17.0738C40.6532-17.0738 35.4426-17.0738 40.3238-13.8396C40.3238-13.8396 43.8874-12.1926 46.2981-6.05365C46.2981-6.05365 49.3676 4.30773 64.116 1.07354C64.2807 5.62533 64.2807 11.8314 64.2807 13.149C64.2807 13.4784 63.4572 15.1254 63.2925 15.4548C67.5149 16.6077 72.8304 16.7724 77.2175 16.9371C81.934 16.9371 87.5789 16.0756 91.8013 14.9227C91.6366 14.5933 90.5435 12.55 90.5435 12.2206C90.5435 10.5736 90.5435 2.88524 90.5435-4.24195C90.5435-9.28784 88.8965-12.522 86.9799-14.1092C98.8236-15.5915 111.102-19.9188 111.102-40.372C111.102-46.1815 109.02-50.898 105.621-54.6263C106.115-56.0037 108.032-61.4839 105.127-68.7758Z"/>
   <path class="hierarchical-1:secondary clearBehindLayer SFSymbolsPreview4D4D4D" d="M77.3969 31.0499C86.4426 31.0499 94.9634 29.3431 102.856 25.8829C110.778 22.4227 117.803 17.7206 123.883 11.5945C129.933 5.54411 134.711-1.43463 138.125-9.43225C141.509-17.4299 143.292-25.8458 143.292-34.8915C143.292-43.9371 141.585-52.3822 138.125-60.3507C134.664-68.3483 129.962-75.2979 123.807-81.3774C117.757-87.4278 110.778-92.2056 102.78-95.5901C94.7828-99.0503 86.3668-100.757 77.3212-100.757C68.2755-100.757 59.8596-99.0503 51.862-95.5901C43.8643-92.1298 36.9905-87.4278 30.911-81.3774C24.8606-75.327 20.0828-68.3483 16.6983-60.3507C13.2979-52.2932 11.5911-43.8773 11.5911-34.8317C11.5911-25.786 13.2979-17.3409 16.7581-9.37245C20.2184-1.37483 24.9204 5.57479 30.9708 11.6543C37.0212 17.7046 43.9999 22.4825 51.9975 25.867C59.9353 29.1916 68.4271 31.0499 77.3969 31.0499ZM77.3969 16.2053C70.3924 16.2053 63.7465 14.9184 57.5814 12.2688C51.3698 9.69492 46.0282 6.02797 41.2682 1.26794C36.6437-3.35653 32.9768-8.80451 30.3431-15.0453C27.7693-21.257 26.3468-27.8272 26.3468-34.9365C26.3468-42.0459 27.6337-48.587 30.2674-54.8278C32.8412-61.0395 36.5082-66.4568 41.1924-71.141C45.8169-75.7655 51.2649-79.4325 57.5057-82.1419C63.7173-84.7157 70.3167-86.1382 77.3212-86.1382C84.4014-86.1382 91.0007-84.8513 97.2124-82.1419C103.424-79.4923 108.841-75.9011 113.526-71.141C118.15-66.5166 121.817-61.0686 124.526-54.8278C127.176-48.6161 128.523-42.0168 128.523-34.9365C128.523-27.8563 127.236-21.2861 124.526-15.0453C121.953-8.83364 118.286-3.41634 113.601 1.26794C108.977 5.96817 103.529 9.63511 97.3173 12.3445C91.2121 14.9184 84.5661 16.2053 77.3969 16.2053Z"/>
  </g>
  <g id="Semibold-L" transform="matrix(1 0 0 1 1966.59 1556)">
   <path class="hierarchical-0:primary SFSymbolsPreview212121" d="M104.534-68.818C104.534-68.818 100.125-70.3003 89.8632-63.4209C85.6191-64.5738 81.0455-65.2326 76.51-65.2326C71.9364-65.2326 67.3629-64.5738 63.1567-63.4209C53.0595-70.2622 48.4859-68.818 48.4859-68.818C45.5593-61.3179 47.4977-55.9208 47.9918-54.6412C44.5711-50.8912 42.4681-46.1529 42.4681-40.2998C42.4681-19.9405 54.8712-15.2023 66.7421-13.8847C65.0951-12.5671 63.8155-10.1346 63.3214-6.71394C60.2302-5.39634 52.5654-3.12857 47.8271-11.2875C47.8271-11.2875 45.0652-16.5199 39.6682-16.8112C39.6682-16.8112 34.4358-16.8112 39.3388-13.5553C39.3388-13.5553 42.9241-11.9083 45.3566-5.72574C45.3566-5.72574 48.4479 4.70095 63.2834 1.44499C63.4481 6.01855 63.4481 13.0287 63.4481 14.3463C63.4481 14.6757 62.6246 16.3227 62.4599 16.6521C66.7041 17.805 72.0631 17.9697 76.4719 18.1344C81.2102 18.1344 86.8986 17.3885 91.1428 16.2356C90.9781 15.9062 89.8632 13.7256 89.8632 13.3962C89.8632 11.7492 89.8632 3.25669 89.8632-3.91404C89.8632-8.9817 88.2162-12.2377 86.2779-13.8466C98.1869-15.3289 110.552-19.6997 110.552-40.2618C110.552-46.1149 108.449-50.8531 105.028-54.6032C105.522-55.9588 107.461-61.4826 104.534-68.818Z"/>
   <path class="hierarchical-1:secondary clearBehindLayer SFSymbolsPreview4D4D4D" d="M76.5861 30.2295C85.5099 30.2295 93.9423 28.5445 101.713 25.1291C109.525 21.7138 116.482 17.0668 122.485 11.0189C128.447 5.05702 133.18-1.85506 136.55-9.75267C139.879-17.6503 141.65-25.956 141.65-34.8799C141.65-43.8038 139.965-52.1502 136.55-60.0071C133.134-67.9047 128.488-74.7761 122.399-80.7787C116.437-86.7407 109.525-91.4736 101.627-94.803C93.7297-98.2183 85.424-99.9033 76.5001-99.9033C67.5762-99.9033 59.2705-98.2183 51.3729-94.803C43.4753-91.3876 36.6898-86.7407 30.6872-80.7787C24.7253-74.8168 19.9924-67.9047 16.663-60.0071C13.2857-52.0715 11.6007-43.7657 11.6007-34.8419C11.6007-25.918 13.2857-17.5716 16.701-9.71464C20.1164-1.81702 24.7633 5.05436 30.7253 11.057C36.6872 17.0189 43.5993 21.7518 51.4969 25.0812C59.3565 28.3725 67.7482 30.2295 76.5861 30.2295ZM76.5861 17.4448C69.4047 17.4448 62.5934 16.1246 56.2835 13.3981C49.9283 10.7575 44.4418 7.00216 39.5716 2.13191C34.8253-2.61433 31.07-8.18408 28.3914-14.58C25.7509-20.9352 24.3066-27.6605 24.3066-34.9685C24.3066-42.2766 25.6269-48.9612 28.3054-55.3571C30.946-61.7123 34.7013-67.2847 39.4856-72.069C44.2319-76.8152 49.8016-80.5706 56.1975-83.3351C62.5527-85.9756 69.3187-87.4199 76.5001-87.4199C83.7674-87.4199 90.5334-86.0996 96.8886-83.3351C103.244-80.6086 108.816-76.9392 113.601-72.069C118.347-67.3227 122.102-61.753 124.867-55.3571C127.593-49.0019 128.951-42.2359 128.951-34.9685C128.951-27.7012 127.631-20.9759 124.867-14.58C122.226-8.22477 118.471-2.65237 113.687 2.13191C108.94 6.96412 103.371 10.7195 97.0153 13.484C90.7434 16.1246 83.9321 17.4448 76.5861 17.4448Z"/>
  </g>
  <g id="Medium-L" transform="matrix(1 0 0 1 1670.48 1556)">
   <path class="hierarchical-0:primary SFSymbolsPreview212121" d="M104.084-68.85C104.084-68.85 99.659-70.3323 89.3474-63.4364C85.0868-64.5893 80.4967-65.2481 75.9282-65.2481C71.3381-65.2481 66.748-64.5893 62.5089-63.4364C52.3621-70.3107 47.772-68.85 47.772-68.85C44.829-61.3168 46.7838-55.9033 47.2779-54.6072C43.8408-50.8406 41.7212-46.0859 41.7212-40.1997C41.7212-19.7414 54.1738-14.9866 66.1108-13.669C64.4638-12.3514 63.1677-9.90247 62.6736-6.4653C59.5658-5.1477 51.868-2.86343 47.1132-11.0554C47.1132-11.0554 44.3349-16.3042 38.9213-16.6121C38.9213-16.6121 33.6724-16.6121 38.5919-13.3396C38.5919-13.3396 42.1938-11.6926 44.6427-5.4771C44.6427-5.4771 47.7505 4.99911 62.6521 1.72664C62.8168 6.31671 62.8168 13.9366 62.8168 15.2542C62.8168 15.5836 61.9933 17.2306 61.8286 17.56C66.0892 18.7129 71.4813 18.8776 75.9066 19.0423C80.6614 19.0423 86.3828 18.3841 90.6435 17.2312C90.4788 16.9018 89.3474 14.6169 89.3474 14.2875C89.3474 12.6405 89.3474 3.53834 89.3474-3.6654C89.3474-8.74957 87.7004-12.022 85.7456-13.6475C97.7041-15.1298 110.135-19.5336 110.135-40.1782C110.135-46.0643 108.016-50.8191 104.578-54.5857C105.073-55.9248 107.027-61.4815 104.084-68.85Z"/>
   <path class="hierarchical-1:secondary clearBehindLayer SFSymbolsPreview4D4D4D" d="M75.9712 29.6074C84.8028 29.6074 93.1681 27.9389 100.847 24.5576C108.575 21.1763 115.481 16.5711 121.425 10.5825C127.32 4.68769 132.019-2.17384 135.356-9.99563C138.643-17.8174 140.406-26.0396 140.406-34.8711C140.406-43.7027 138.737-51.9743 135.356-59.7466C131.974-67.5684 127.369-74.3805 121.331-80.3248C115.436-86.2197 108.575-90.9186 100.753-94.2062C92.9312-97.5875 84.7091-99.256 75.8775-99.256C67.046-99.256 58.8238-97.5875 51.002-94.2062C43.1802-90.8249 36.4619-86.2197 30.5176-80.3248C24.6227-74.43 19.9238-67.5684 16.6362-59.7466C13.2764-51.9033 11.6079-43.6811 11.6079-34.8496C11.6079-26.0181 13.2764-17.7464 16.6577-9.9741C20.039-2.15231 24.6442 4.65975 30.5391 10.6041C36.4339 16.4989 43.2955 21.1978 51.1173 24.4854C58.9175 27.7515 67.2334 29.6074 75.9712 29.6074ZM75.9712 18.3847C68.6558 18.3847 61.7191 17.0391 55.2993 14.2543C48.8353 11.5633 43.239 7.74083 38.2851 2.78702C33.4466-2.05156 29.6241-7.71364 26.9115-14.2272C24.2205-20.6912 22.7597-27.5341 22.7597-34.9928C22.7597-42.4514 24.1052-49.2449 26.8178-55.7584C29.5089-62.2224 33.3313-67.9124 38.1914-72.7726C43.03-77.6111 48.6921-81.4336 55.2056-84.2399C61.6697-86.931 68.562-88.3917 75.8775-88.3917C83.2867-88.3917 90.1791-87.0462 96.6432-84.2399C103.107-81.4551 108.797-77.7264 113.657-72.7726C118.496-67.934 122.318-62.2719 125.125-55.7584C127.909-49.2943 129.276-42.402 129.276-34.9928C129.276-27.5836 127.931-20.7407 125.125-14.2272C122.434-7.76311 118.611-2.07309 113.751 2.78702C108.912 7.7193 103.25 11.5417 96.7863 14.348C90.388 17.0391 83.4514 18.3847 75.9712 18.3847Z"/>
  </g>
  <g id="Regular-L" transform="matrix(1 0 0 1 1374.57 1556)">
   <path class="hierarchical-0:primary SFSymbolsPreview212121" d="M103.498-68.8917C103.498-68.8917 99.0508-70.374 88.6747-63.4566C84.3925-64.6095 79.7809-65.2683 75.1693-65.2683C70.5577-65.2683 65.9461-64.6095 61.6639-63.4566C51.4525-70.374 46.8409-68.8917 46.8409-68.8917C43.8763-61.3155 45.8527-55.8804 46.3468-54.5628C42.8881-50.7747 40.747-45.9984 40.747-40.0692C40.747-19.4817 53.2642-14.7054 65.2873-13.3878C63.6403-12.0702 62.3227-9.59969 61.8286-6.14099C58.6993-4.82339 50.9584-2.51759 46.1821-10.7526C46.1821-10.7526 43.3822-16.023 37.9471-16.3524C37.9471-16.3524 32.6767-16.3524 37.6177-13.0584C37.6177-13.0584 41.2411-11.4114 43.7116-5.15279C43.7116-5.15279 46.8409 5.38801 61.8286 2.09401C61.9933 6.70561 61.9933 15.1207 61.9933 16.4383C61.9933 16.7677 61.1698 18.4147 61.0051 18.7441C65.2873 19.897 70.7224 20.0617 75.1693 20.2264C79.9456 20.2264 85.7101 19.6826 89.9923 18.5297C89.8276 18.2003 88.6747 15.7795 88.6747 15.4501C88.6747 13.8031 88.6747 3.90571 88.6747-3.34109C88.6747-8.44679 87.0277-11.7408 85.0513-13.3878C97.0744-14.8701 109.592-19.317 109.592-40.0692C109.592-45.9984 107.45-50.7747 103.992-54.5628C104.486-55.8804 106.462-61.4802 103.498-68.8917Z"/>
   <path class="hierarchical-1:secondary clearBehindLayer SFSymbolsPreview4D4D4D" d="M75.1693 28.796C83.8804 28.796 92.1583 27.149 99.7165 23.8121C107.336 20.4752 114.174 15.9245 120.042 10.0133C125.85 4.20594 130.504-2.58965 133.798-10.3125C137.031-18.0354 138.782-26.1486 138.782-34.8597C138.782-43.5708 137.135-51.7449 133.798-59.4069C130.461-67.1297 125.911-73.8644 119.939-79.7327C114.131-85.5401 107.336-90.1946 99.6127-93.4277C91.8898-96.7646 83.7766-98.4116 75.0655-98.4116C66.3544-98.4116 58.2412-96.7646 50.5183-93.4277C42.7954-90.0908 36.1646-85.5401 30.2963-79.7327C24.4889-73.9253 19.8344-67.1297 16.6013-59.4069C13.2644-51.684 11.6174-43.5708 11.6174-34.8597C11.6174-26.1486 13.2644-17.9745 16.6013-10.3125C19.9382-2.58965 24.4889 4.14504 30.2963 10.0133C36.1036 15.8207 42.8992 20.4752 50.6221 23.7083C58.345 26.9414 66.562 28.796 75.1693 28.796ZM75.1693 19.6105C67.6789 19.6105 60.5788 18.232 54.0156 15.3712C47.4096 12.6142 41.67 8.70431 36.6072 3.6415C31.6482-1.31751 27.7383-7.10003 24.9813-13.7669C22.2242-20.373 20.7419-27.3693 20.7419-35.0244C20.7419-42.6795 22.1204-49.6149 24.8775-56.2818C27.6345-62.8879 31.5444-68.7313 36.5034-73.6903C41.4624-78.6493 47.2449-82.5592 53.9118-85.42C60.5179-88.177 67.5751-89.6593 75.0655-89.6593C82.6597-89.6593 89.7169-88.2808 96.3229-85.42C102.929-82.5592 108.772-78.7531 113.731-73.6903C118.69-68.7313 122.6-62.9488 125.461-56.2818C128.322-49.6758 129.7-42.6186 129.7-35.0244C129.7-27.4302 128.322-20.4339 125.461-13.7669C122.704-7.16093 118.794-1.31751 113.835 3.6415C108.876 8.70431 103.094 12.6142 96.4876 15.475C89.9245 18.232 82.8244 19.6105 75.1693 19.6105Z"/>
  </g>
  <g id="Light-L" transform="matrix(1 0 0 1 1078.76 1556)">
   <path class="hierarchical-0:primary SFSymbolsPreview212121" d="M102.6-68.8076C102.6-68.8076 98.153-70.2899 87.7769-63.3725C83.4947-64.5254 78.8831-65.1842 74.2715-65.1842C69.6599-65.1842 65.0483-64.5254 60.7661-63.3725C50.5547-70.2899 45.9431-68.8076 45.9431-68.8076C42.9785-61.2314 44.9549-55.7963 45.449-54.4787C41.9903-50.6906 39.8492-45.9143 39.8492-39.9851C39.8492-19.3976 52.3664-14.6213 64.3895-13.3037C62.7425-11.9861 61.4249-9.51563 60.9308-6.05693C57.8015-4.73933 50.0606-2.43353 45.2843-10.6685C45.2843-10.6685 42.4844-15.9389 37.0493-16.2683C37.0493-16.2683 31.7789-16.2683 36.7199-12.9743C36.7199-12.9743 40.3433-11.3273 42.8138-5.06873C42.8138-5.06873 45.9431 5.47207 60.9308 2.17807C61.0955 6.78967 61.0955 16.4657 61.0955 17.7833C61.0955 18.1127 60.272 19.7597 60.1073 20.0891C64.3895 21.242 69.8246 21.4067 74.2715 21.5714C79.0478 21.5714 84.8123 21.4478 89.0945 20.2949C88.9298 19.9655 87.7769 17.1245 87.7769 16.7951C87.7769 15.1481 87.7769 3.98977 87.7769-3.25703C87.7769-8.36273 86.1299-11.6567 84.1535-13.3037C96.1766-14.786 108.694-19.2329 108.694-39.9851C108.694-45.9143 106.553-50.6906 103.094-54.4787C103.588-55.7963 105.565-61.3961 102.6-68.8076Z"/>
   <path class="hierarchical-1:secondary clearBehindLayer SFSymbolsPreview4D4D4D" d="M74.2715 27.8714C82.8565 27.8714 91.0504 26.2244 98.4825 22.9715C106.018 19.7187 112.688 15.21 118.514 9.42493C124.237 3.7016 128.808-3.00994 132.102-10.6067C135.293-18.2035 137.002-26.2327 137.002-34.8177C137.002-43.4027 135.355-51.5347 132.102-59.0286C128.849-66.6254 124.34-73.234 118.452-79.0603C112.729-84.7836 106.018-89.354 98.4207-92.5451C90.8239-95.7979 82.7948-97.4449 74.2098-97.4449C65.6248-97.4449 57.5956-95.7979 49.9989-92.5451C42.4021-89.2923 35.8552-84.7836 30.029-79.0603C24.3056-73.3369 19.7352-66.6254 16.5441-59.0286C13.2913-51.4318 11.6443-43.4027 11.6443-34.8177C11.6443-26.2327 13.2913-18.1006 16.5441-10.6067C19.797-3.00994 24.3056 3.59866 30.029 9.42493C35.7523 15.1483 42.4638 19.7187 50.0606 22.9098C57.6574 26.1008 65.7483 27.8714 74.2715 27.8714ZM74.2715 20.8714C66.613 20.8714 59.3868 19.4509 52.6135 16.548C45.8814 13.707 39.9317 9.71301 34.7848 4.56614C29.6997-0.518961 25.7057-6.42756 22.8647-13.2626C20.0236-19.9947 18.5413-27.1591 18.5413-34.9824C18.5413-42.8056 19.9618-49.8671 22.8029-56.7021C25.644-63.4342 29.6379-69.4458 34.723-74.5309C39.8081-79.616 45.7167-83.6099 52.5518-86.5128C59.2839-89.3538 66.5512-90.8361 74.2098-90.8361C81.9301-90.8361 89.1975-89.4156 95.9296-86.5128C102.662-83.6099 108.673-79.6777 113.758-74.5309C118.843-69.4458 122.837-63.5372 125.74-56.7021C128.643-49.97 130.064-42.7027 130.064-34.9824C130.064-27.2621 128.643-20.0976 125.74-13.2626C122.899-6.5305 118.905-0.518961 113.82 4.56614C108.735 9.71301 102.826 13.707 96.0943 16.6098C89.321 19.4509 82.0948 20.8714 74.2715 20.8714Z"/>
  </g>
  <g id="Thin-L" transform="matrix(1 0 0 1 783.245 1556)">
   <path class="hierarchical-0:primary SFSymbolsPreview212121" d="M101.413-68.6965C101.413-68.6965 96.9657-70.1788 86.5896-63.2614C82.3074-64.4143 77.6958-65.0731 73.0842-65.0731C68.4726-65.0731 63.861-64.4143 59.5788-63.2614C49.3674-70.1788 44.7558-68.6965 44.7558-68.6965C41.7912-61.1203 43.7676-55.6852 44.2617-54.3676C40.803-50.5795 38.6619-45.8032 38.6619-39.874C38.6619-19.2865 51.1791-14.5102 63.2022-13.1926C61.5552-11.875 60.2376-9.40446 59.7435-5.94576C56.6142-4.62816 48.8733-2.32236 44.097-10.5574C44.097-10.5574 41.2971-15.8278 35.862-16.1572C35.862-16.1572 30.5916-16.1572 35.5326-12.8632C35.5326-12.8632 39.156-11.2162 41.6265-4.95756C41.6265-4.95756 44.7558 5.58324 59.7435 2.28924C59.9082 6.90084 59.9082 18.2445 59.9082 19.5621C59.9082 19.8915 59.0847 21.5385 58.92 21.8679C63.2022 23.0208 68.6373 23.1855 73.0842 23.3502C77.8605 23.3502 83.625 23.7825 87.9072 22.6296C87.7425 22.3002 86.5896 18.9033 86.5896 18.5739C86.5896 16.9269 86.5896 4.10094 86.5896-3.14586C86.5896-8.25156 84.9426-11.5456 82.9662-13.1926C94.9893-14.6749 107.507-19.1218 107.507-39.874C107.507-45.8032 105.365-50.5795 101.907-54.3676C102.401-55.6852 104.377-61.285 101.413-68.6965Z"/>
   <path class="hierarchical-1:secondary clearBehindLayer SFSymbolsPreview4D4D4D" d="M73.0842 26.6485C81.5025 26.6485 89.5851 25.0015 96.8505 21.8598C104.274 18.7181 110.722 14.2651 116.493 8.64672C122.105 3.03456 126.564-3.5658 129.858-10.9958C132.994-18.4259 134.647-26.3438 134.647-34.7621C134.647-43.1803 133-51.2568 129.858-58.5283C126.717-65.9584 122.264-72.4002 116.487-78.1709C110.875-83.783 104.274-88.2423 96.8443-91.3778C89.4142-94.5194 81.4963-96.1664 73.078-96.1664C64.6598-96.1664 56.7418-94.5194 49.3118-91.3778C41.8818-88.2361 35.4461-83.783 29.6754-78.1709C24.0633-72.5587 19.604-65.9584 16.4685-58.5283C13.3269-51.0983 11.6799-43.1803 11.6799-34.7621C11.6799-26.3438 13.3269-18.2674 16.4685-10.9958C19.6102-3.5658 24.0633 2.87604 29.6754 8.64672C35.2876 14.2589 41.8879 18.7181 49.318 21.8536C56.748 24.9891 64.6722 26.6485 73.0842 26.6485ZM73.0842 22.539C65.2033 22.539 57.8104 21.0629 50.7592 18.1045C43.8603 15.1522 37.6326 11.0471 32.3746 5.78905C27.1227 0.537186 23.0176-5.53817 20.0653-12.5956C17.1131-19.4944 15.6308-26.8812 15.6308-34.9268C15.6308-42.9724 17.1069-50.2006 20.0591-57.258C23.0114-64.1569 27.1165-70.3907 32.3684-75.6426C37.6202-80.8945 43.6956-84.9996 50.753-87.958C57.6519-90.9103 65.1972-92.3926 73.078-92.3926C80.9651-92.3926 88.5104-90.9164 95.4093-87.958C102.308-84.9996 108.542-80.9006 113.794-75.6426C119.046-70.3907 123.151-64.3154 126.109-57.258C129.068-50.3591 130.544-42.8138 130.544-34.9268C130.544-27.0397 129.068-19.6529 126.109-12.5956C123.157-5.69669 119.052 0.537186 113.8 5.78905C108.548 11.0471 102.473 15.1522 95.574 18.1106C88.5228 21.0629 81.1298 22.539 73.0842 22.539Z"/>
  </g>
  <g id="Ultralight-L" transform="matrix(1 0 0 1 487.146 1556)">
   <path class="hierarchical-0:primary SFSymbolsPreview212121" d="M100.804-68.6395C100.804-68.6395 96.3576-70.1218 85.9815-63.2044C81.6993-64.3573 77.0877-65.0161 72.4761-65.0161C67.8645-65.0161 63.2529-64.3573 58.9707-63.2044C48.7593-70.1218 44.1477-68.6395 44.1477-68.6395C41.1831-61.0633 43.1595-55.6282 43.6536-54.3106C40.1949-50.5225 38.0538-45.7462 38.0538-39.817C38.0538-19.2295 50.571-14.4532 62.5941-13.1356C60.9471-11.818 59.6295-9.34752 59.1354-5.88882C56.0061-4.57122 48.2652-2.26542 43.4889-10.5004C43.4889-10.5004 40.689-15.7708 35.2539-16.1002C35.2539-16.1002 29.9835-16.1002 34.9245-12.8062C34.9245-12.8062 38.5479-11.1592 41.0184-4.90062C41.0184-4.90062 44.1477 5.64018 59.1354 2.34618C59.3001 6.95778 59.3001 19.1555 59.3001 20.4731C59.3001 20.8025 58.4766 22.4495 58.3119 22.7789C62.5941 23.9318 68.0292 24.0965 72.4761 24.2612C77.2524 24.2612 83.0169 24.9782 87.2991 23.8253C87.1344 23.4959 85.9815 19.8143 85.9815 19.4849C85.9815 17.8379 85.9815 4.15788 85.9815-3.08892C85.9815-8.19462 84.3345-11.4886 82.3581-13.1356C94.3812-14.6179 106.898-19.0648 106.898-39.817C106.898-45.7462 104.757-50.5225 101.299-54.3106C101.793-55.6282 103.769-61.228 100.804-68.6395Z"/>
   <path class="hierarchical-1:secondary clearBehindLayer SFSymbolsPreview4D4D4D" d="M72.4761 26.0221C80.8089 26.0221 88.8346 24.3751 96.0145 21.2904C103.381 18.2057 109.716 13.781 115.458 8.24812C121.013 2.6929 125.415-3.85052 128.709-11.1951C131.816-18.5398 133.441-26.4008 133.441-34.7336C133.441-43.0664 131.794-51.1144 128.709-58.2721C125.625-65.6167 121.2-71.9731 115.48-77.7153C109.925-83.2706 103.381-87.6729 96.0368-90.7799C88.6922-93.8646 80.8312-95.5116 72.4984-95.5116C64.1655-95.5116 56.3045-93.8646 48.9599-90.7799C41.6153-87.6952 35.2366-83.2706 29.4943-77.7153C23.9391-72.1601 19.5368-65.6167 16.4298-58.2721C13.3451-50.9275 11.6981-43.0664 11.6981-34.7336C11.6981-26.4008 13.3451-18.3528 16.4298-11.1951C19.5145-3.85052 23.9391 2.50591 29.4943 8.24812C35.0496 13.8033 41.593 18.2057 48.9376 21.3127C56.2822 24.4197 64.121 26.0221 72.4761 26.0221ZM72.4761 23.3931C64.4813 23.3931 57.0029 21.8886 49.8094 18.9017C42.8251 15.8925 36.455 11.7304 31.1401 6.41541C25.8028 1.07814 21.6407-5.08263 18.6315-12.2539C15.6223-19.2382 14.14-26.7388 14.14-34.8983C14.14-43.0578 15.6446-50.3714 18.6538-57.5427C21.663-64.527 25.8251-70.8748 31.1623-76.212C36.4996-81.5493 42.6604-85.7114 49.8317-88.6983C56.8159-91.7075 64.5036-93.1898 72.4984-93.1898C80.4708-93.1898 88.1585-91.6852 95.1428-88.6983C102.127-85.7114 108.475-81.527 113.812-76.212C119.149-70.8748 123.311-64.714 126.298-57.5427C129.285-50.5584 130.79-42.8708 130.79-34.8983C130.79-26.9258 129.285-19.4252 126.298-12.2539C123.289-5.26963 119.127 1.07814 113.79 6.41541C108.453 11.7304 102.292 15.8925 95.3075 18.8794C88.1139 21.8886 80.6355 23.3931 72.4761 23.3931Z"/>
  </g>
  <g id="Black-M" transform="matrix(1 0 0 1 2871.07 1126)">
   <path class="hierarchical-0:primary SFSymbolsPreview212121" d="M83.0644-61.0584C83.0644-61.0584 79.7362-62.2068 72.0482-56.9646C68.8475-57.8578 65.3916-58.3682 62.0527-58.3682C58.5968-58.3682 55.141-57.8578 52.0572-56.9646C44.4968-62.0899 41.041-61.0584 41.041-61.0584C38.8611-55.4227 40.2754-51.3288 40.6582-50.425C38.0955-47.6071 36.5536-44.0236 36.5536-39.6639C36.5536-24.4155 45.9004-20.832 54.7475-19.8112C53.4715-18.7904 52.5676-16.9934 52.1848-14.4307C49.8774-13.4099 44.114-11.7404 40.5306-17.8866C40.5306-17.8866 38.4783-21.8528 34.3844-21.9911C34.3844-21.9911 30.4182-21.9911 34.1292-19.556C34.1292-19.556 36.8195-18.28 38.6166-13.6651C38.6166-13.6651 40.924-5.84951 52.0679-8.28458C52.1955-4.82871 52.1955-2.19901 52.1955-1.17821C52.1955-0.923014 51.5575 0.352986 51.4299 0.608186C54.6306 1.50139 58.6075 1.62899 61.9358 1.75659C65.5192 1.75659 69.7514 0.857153 72.952-0.0360471C72.8244-0.291247 72.0482-1.57168 72.0482-1.82688C72.0482-3.10288 72.0482-6.88098 72.0482-12.2615C72.0482-16.1002 70.7722-18.5352 69.3579-19.6943C78.3219-20.8427 87.5518-24.054 87.5518-39.547C87.5518-43.9067 86.0099-47.4902 83.4472-50.308C83.83-51.4458 85.2443-55.5503 83.0644-61.0584Z"/>
   <path class="hierarchical-1:secondary clearBehindLayer SFSymbolsPreview4D4D4D" d="M62.2866 18.4612C69.6466 18.4612 76.5062 17.0682 82.973 14.2705C89.4392 11.4727 95.0454 7.6654 99.9905 2.70846C104.936-2.23719 108.755-7.8315 111.541-14.309C114.327-20.7864 115.731-27.6354 115.731-34.9954C115.731-42.3554 114.338-49.2038 111.541-55.6819C108.743-62.1593 104.935-67.7543 99.9792-72.6993C95.0335-77.645 89.4392-81.4635 82.9617-84.25C76.4843-87.0478 69.6353-88.4407 62.2753-88.4407C54.9153-88.4407 48.0663-87.0478 41.5888-84.25C35.1114-81.4522 29.5277-77.645 24.5827-72.6993C19.637-67.7537 15.8185-62.1593 13.032-55.6819C10.3511-49.0875 8.95819-42.2385 8.95819-34.8785C8.95819-27.5185 10.3511-20.6701 13.1489-14.192C15.9467-7.71457 19.754-2.11963 24.6996 2.82539C29.6453 7.77104 35.2396 11.5896 41.717 14.3761C48.0776 17.0457 54.9379 18.4612 62.2866 18.4612ZM62.2866 1.02423C57.3763 1.02423 52.7205 0.12099 48.3426-1.69679C43.9527-3.50327 40.2128-6.08603 36.8537-9.44505C33.623-12.6758 31.0402-16.5446 29.1168-20.9339C27.3103-25.3237 26.2788-29.9682 26.2788-34.8892C26.2788-39.8101 27.1821-44.4552 29.1055-48.8444C30.912-53.2343 33.4947-56.9855 36.8425-60.3333C40.0733-63.5641 43.9421-66.1468 48.3313-68.0815C52.7212-69.888 57.365-70.9195 62.2753-70.9195C67.1969-70.9195 71.8407-70.0162 76.2306-68.0815C80.6204-66.2637 84.3717-63.6923 87.7194-60.3333C90.9502-57.1025 93.5329-53.2337 95.4676-48.8444C97.2854-44.4546 98.3056-39.8108 98.3056-34.8892C98.3056-29.9676 97.4024-25.3231 95.4676-20.9339C93.6612-16.544 91.0784-12.7928 87.7307-9.44505C84.4999-6.20296 80.6311-3.62021 76.2412-1.6855C71.9802 0.12099 67.3245 1.02423 62.2866 1.02423Z"/>
  </g>
  <g id="Heavy-M" transform="matrix(1 0 0 1 2575.18 1126)">
   <path class="hierarchical-0:primary SFSymbolsPreview212121" d="M82.5054-61.13C82.5054-61.13 79.1495-62.2784 71.3787-57.0085C68.1505-57.9017 64.667-58.4121 61.2729-58.4121C57.7894-58.4121 54.306-57.9017 51.167-57.0085C43.5238-62.189 40.0404-61.13 40.0404-61.13C37.8329-55.439 39.2748-51.3176 39.6576-50.3861C37.0673-47.5407 35.4979-43.9296 35.4979-39.5147C35.4979-24.1007 44.9274-20.4896 53.8849-19.4688C52.6089-18.448 51.6774-16.6234 51.2946-14.0331C48.9596-13.0123 43.141-11.3152 39.53-17.5166C39.53-17.5166 37.4501-21.5104 33.3287-21.6763C33.3287-21.6763 29.3348-21.6763 33.0735-19.2136C33.0735-19.2136 35.7913-17.9376 37.616-13.2675C37.616-13.2675 39.951-5.36912 51.2053-7.83178C51.3329-4.34832 51.3329-0.970176 51.3329 0.0506238C51.3329 0.305824 50.6949 1.58182 50.5673 1.83702C53.7956 2.73022 57.8277 2.85782 61.1835 2.98542C64.7946 2.98542 69.0819 2.1423 72.3102 1.2491C72.1826 0.993896 71.3787-0.370439 71.3787-0.625639C71.3787-1.90164 71.3787-6.42818 71.3787-11.8639C71.3787-15.7302 70.1027-18.1928 68.6609-19.3795C77.7077-20.5279 87.0479-23.7944 87.0479-39.4253C87.0479-43.8403 85.4784-47.4513 82.8882-50.2968C83.271-51.4069 84.7128-55.5666 82.5054-61.13Z"/>
   <path class="hierarchical-1:secondary clearBehindLayer SFSymbolsPreview4D4D4D" d="M61.4516 17.6198C68.6843 17.6198 75.4499 16.2545 81.7894 13.4955C88.1339 10.7366 93.69 6.99015 98.5467 2.1053C103.398-2.74629 107.178-8.27415 109.909-14.6519C112.634-21.0297 114.033-27.7571 114.033-34.9898C114.033-42.2225 112.668-48.9549 109.909-55.3276C107.15-61.7054 103.403-67.2283 98.5134-72.0849C93.6618-76.9365 88.1339-80.7162 81.7561-83.4419C75.3784-86.2008 68.651-87.5661 61.4183-87.5661C54.1856-87.5661 47.4582-86.2008 41.0804-83.4419C34.7027-80.683 29.2131-76.9365 24.3565-72.0849C19.5049-67.2333 15.7251-61.7054 12.9995-55.3276C10.3299-48.8605 8.96455-42.1332 8.96455-34.9005C8.96455-27.6677 10.3299-20.9354 13.0888-14.5626C15.8477-8.18482 19.5942-2.66196 24.4458 2.19464C29.2974 7.04624 34.8253 10.826 41.203 13.5516C47.4915 16.188 54.2521 17.6198 61.4516 17.6198ZM61.4516 2.3246C56.3531 2.3246 51.5149 1.38813 46.9985-0.518068C42.4537-2.39101 38.5752-5.06781 35.0946-8.54848C31.7365-11.9066 29.0597-15.9026 27.0974-20.4524C25.2245-24.9971 24.1654-29.802 24.1654-34.9387C24.1654-40.0754 25.1019-44.8753 27.0642-49.4251C28.9371-53.9698 31.6139-57.8815 35.0613-61.329C38.4194-64.687 42.4155-67.3638 46.9652-69.3594C51.5099-71.2323 56.3199-72.2914 61.4183-72.2914C66.55-72.2914 71.3599-71.3549 75.9046-69.3594C80.4494-67.4532 84.3611-64.8096 87.8085-61.329C91.1666-57.9709 93.8434-53.9748 95.8389-49.4251C97.7451-44.8803 98.771-40.0704 98.771-34.9387C98.771-29.8071 97.8345-25.0021 95.8389-20.4524C93.966-15.9076 91.2892-11.9959 87.8418-8.54848C84.4837-5.15715 80.4876-2.48035 75.9429-0.484812C71.5158 1.38813 66.6776 2.3246 61.4516 2.3246Z"/>
  </g>
  <g id="Bold-M" transform="matrix(1 0 0 1 2279.4 1126)">
   <path class="hierarchical-0:primary SFSymbolsPreview212121" d="M81.88-61.21C81.88-61.21 78.4933-62.3584 70.6299-57.0577C67.3707-57.9509 63.8564-58.4613 60.4005-58.4613C56.8862-58.4613 53.3719-57.9509 50.1712-57.0577C42.4354-62.2999 38.9211-61.21 38.9211-61.21C36.6827-55.4573 38.1555-51.305 38.5383-50.3427C35.9171-47.4663 34.3168-43.8244 34.3168-39.3477C34.3168-23.7485 43.839-20.1066 52.9199-19.0858C51.6439-18.065 50.6816-16.2095 50.2988-13.5883C47.9329-12.5675 42.0526-10.8396 38.4107-17.1027C38.4107-17.1027 36.2999-21.1274 32.1476-21.3241C32.1476-21.3241 28.1229-21.3241 31.8924-18.8306C31.8924-18.8306 34.6411-17.5546 36.4967-12.8227C36.4967-12.8227 38.8626-4.83172 50.2403-7.32525C50.3679-3.81092 50.3679 0.404456 50.3679 1.42526C50.3679 1.68046 49.7299 2.95646 49.6023 3.21166C52.8615 4.10486 56.9553 4.23246 60.3421 4.36006C63.984 4.36006 68.3331 3.57991 71.5922 2.68671C71.4646 2.43151 70.6299 0.973322 70.6299 0.718122C70.6299-0.557878 70.6299-5.92165 70.6299-11.4191C70.6299-15.3163 69.3539-17.8098 67.8811-19.0273C77.0205-20.1757 86.4843-23.504 86.4843-39.2893C86.4843-43.7659 84.8839-47.4079 82.2628-50.2842C82.6456-51.3635 84.1183-55.5849 81.88-61.21Z"/>
   <path class="hierarchical-1:secondary clearBehindLayer SFSymbolsPreview4D4D4D" d="M60.5175 16.6786C67.6078 16.6786 74.2682 15.3441 80.4654 12.6287C86.6738 9.91323 92.1739 6.2348 96.9316 1.43058C101.678-3.3158 105.414-8.76933 108.083-15.0356C110.741-21.3019 112.133-27.8931 112.133-34.9835C112.133-42.0738 110.799-48.6764 108.083-54.9314C105.368-61.1977 101.689-66.6399 96.8737-71.3976C92.1273-76.144 86.6738-79.8802 80.4075-82.5378C74.1412-85.2533 67.55-86.5878 60.4596-86.5878C53.3693-86.5878 46.778-85.2533 40.5118-82.5378C34.2455-79.8224 28.8611-76.144 24.1034-71.3976C19.357-66.6512 15.6208-61.1977 12.9631-54.9314C10.3061-48.6066 8.97167-42.0154 8.97167-34.925C8.97167-27.8347 10.3061-21.2321 13.0216-14.9771C15.737-8.71086 19.4155-3.26864 24.1619 1.48905C28.9082 6.23544 34.3618 9.97169 40.6281 12.6293C46.8359 15.2285 53.485 16.6786 60.5175 16.6786ZM60.5175 3.77924C55.2086 3.77924 50.1663 2.8056 45.4949 0.800499C40.7769-1.14678 36.7434-3.92879 33.1267-7.54554C29.6262-11.046 26.8442-15.1844 24.8385-19.9137C22.8912-24.6317 21.8013-29.6162 21.8013-34.9942C21.8013-40.3721 22.7749-45.3453 24.7806-50.0746C26.7279-54.7926 29.5099-58.8839 33.0688-62.4428C36.5693-65.9432 40.7078-68.7252 45.437-70.7888C50.155-72.7361 55.1508-73.826 60.4596-73.826C65.8263-73.826 70.8221-72.8524 75.5401-70.7888C80.2581-68.7837 84.3494-66.0595 87.9083-62.4428C91.4087-58.9423 94.1907-54.8039 96.2543-50.0746C98.2594-45.3566 99.2915-40.3608 99.2915-34.9942C99.2915-29.6275 98.3179-24.643 96.2543-19.9137C94.307-15.1957 91.525-11.1045 87.9661-7.54554C84.4656-3.98726 80.3272-1.20525 75.6092 0.858326C70.9962 2.8056 65.9539 3.77924 60.5175 3.77924Z"/>
  </g>
  <g id="Semibold-M" transform="matrix(1 0 0 1 1983.32 1126)">
   <path class="hierarchical-0:primary SFSymbolsPreview212121" d="M81.4489-61.2651C81.4489-61.2651 78.0409-62.4135 70.1136-57.0915C66.8332-57.9847 63.2976-58.4951 59.7992-58.4951C56.2635-58.4951 52.7279-57.9847 49.4847-57.0915C41.685-62.3764 38.1494-61.2651 38.1494-61.2651C35.8898-55.4699 37.3838-51.2963 37.7666-50.3127C35.1242-47.4151 33.5026-43.7519 33.5026-39.2326C33.5026-23.5057 43.0886-19.8425 52.2547-18.8217C50.9787-17.8009 49.9951-15.9241 49.6123-13.2817C47.2251-12.2609 41.3022-10.5117 37.639-16.8173C37.639-16.8173 35.507-20.8633 31.3334-21.0813C31.3334-21.0813 27.2874-21.0813 31.0782-18.5665C31.0782-18.5665 33.8482-17.2905 35.725-12.5161C35.725-12.5161 38.1122-4.46125 49.5751-6.97606C49.7027-3.44045 49.7027 1.35212 49.7027 2.37292C49.7027 2.62812 49.0647 3.90412 48.9371 4.15932C52.2175 5.05252 56.354 5.18012 59.762 5.30772C63.4252 5.30772 67.8168 4.571 71.0972 3.6778C70.9696 3.4226 70.1136 1.8997 70.1136 1.6445C70.1136 0.368503 70.1136-5.57246 70.1136-11.1125C70.1136-15.0309 68.8376-17.5457 67.3436-18.7845C76.5468-19.9329 86.0957-23.3038 86.0957-39.1954C86.0957-43.7147 84.4741-47.3779 81.8317-50.2755C82.2145-51.3335 83.7085-55.5975 81.4489-61.2651Z"/>
   <path class="hierarchical-1:secondary clearBehindLayer SFSymbolsPreview4D4D4D" d="M59.8735 16.0297C66.8657 16.0297 73.4536 14.7166 79.5526 12.0311C85.6672 9.34558 91.1286 5.71406 95.8181 0.965437C100.492-3.70842 104.198-9.11069 106.825-15.3001C109.435-21.4895 110.823-27.987 110.823-34.9792C110.823-41.9713 109.51-48.4844 106.825-54.6582C104.139-60.8476 100.508-66.2342 95.7433-70.9237C91.0695-75.5976 85.6672-79.3039 79.4778-81.9146C73.2884-84.6001 66.7909-85.9133 59.7988-85.9133C52.8066-85.9133 46.3091-84.6001 40.1197-81.9146C33.9303-79.2291 28.6184-75.5976 23.9289-70.9237C19.2551-66.2499 15.5488-60.8476 12.9381-54.6582C10.2898-48.4316 8.97658-41.9342 8.97658-34.942C8.97658-27.9498 10.2898-21.4367 12.9752-15.2629C15.6607-9.07351 19.2923-3.68688 23.9661 1.00262C28.64 5.67648 34.0422 9.38277 40.2317 11.9935C46.3839 14.567 52.9561 16.0297 59.8735 16.0297ZM59.8735 4.78207C54.4196 4.78207 49.2366 3.7828 44.4583 1.70951C39.6209-0.289016 35.4806-3.14356 31.77-6.85412C28.1714-10.4527 25.3169-14.6893 23.2812-19.5424C21.2826-24.3798 20.1714-29.4881 20.1714-35.0324C20.1714-40.5767 21.1707-45.6693 23.2064-50.5224C25.2049-55.3598 28.0595-59.5749 31.6953-63.2106C35.2939-66.8093 39.5305-69.6638 44.3835-71.7743C49.221-73.7728 54.3449-74.884 59.7988-74.884C65.3274-74.884 70.4513-73.8848 75.2887-71.7743C80.1262-69.701 84.3412-66.9212 87.977-63.2106C91.5756-59.612 94.4302-55.3754 96.5406-50.5224C98.6139-45.6849 99.6504-40.561 99.6504-35.0324C99.6504-29.5037 98.6511-24.3955 96.5406-19.5424C94.5421-14.705 91.6876-10.4899 88.0518-6.85412C84.4532-3.18074 80.2166-0.326201 75.3792 1.78428C70.638 3.7828 65.455 4.78207 59.8735 4.78207Z"/>
  </g>
  <g id="Medium-M" transform="matrix(1 0 0 1 1687.09 1126)">
   <path class="hierarchical-0:primary SFSymbolsPreview212121" d="M81.122-61.307C81.122-61.307 77.6978-62.4554 69.7222-57.1172C66.4256-58.0104 62.8739-58.5208 59.3432-58.5208C55.7914-58.5208 52.2397-58.0104 48.9641-57.1172C41.1161-62.4343 37.5643-61.307 37.5643-61.307C35.2886-55.4795 36.7987-51.2897 37.1815-50.29C34.523-47.3762 32.8852-43.6969 32.8852-39.1454C32.8852-23.3216 42.5197-19.6423 51.7503-18.6215C50.4743-17.6007 49.4745-15.7077 49.0917-13.0492C46.6884-12.0284 40.7333-10.263 37.0539-16.6009C37.0539-16.6009 34.9058-20.6631 30.716-20.8972C30.716-20.8972 26.6539-20.8972 30.4608-18.3663C30.4608-18.3663 33.247-17.0903 35.1399-12.2836C35.1399-12.2836 37.5433-4.18033 49.0707-6.71129C49.1983-3.15953 49.1983 2.07068 49.1983 3.09148C49.1983 3.34668 48.5603 4.62268 48.4327 4.87788C51.7293 5.77108 55.898 5.89868 59.3221 6.02628C63.0015 6.02628 67.4254 5.32248 70.7219 4.42928C70.5943 4.17408 69.7222 2.60212 69.7222 2.34692C69.7222 1.07092 69.7222-5.30769 69.7222-10.88C69.7222-14.8145 68.4462-17.3455 66.936-18.6004C76.1877-19.7488 85.8011-23.152 85.8011-39.1243C85.8011-43.6758 84.1633-47.3552 81.5048-50.2689C81.8876-51.3108 83.3977-55.6071 81.122-61.307Z"/>
   <path class="hierarchical-1:secondary clearBehindLayer SFSymbolsPreview4D4D4D" d="M59.3853 15.5378C66.303 15.5378 72.8359 14.2407 78.8605 11.5779C84.904 8.91517 90.3361 5.31922 94.9739 0.612743C99.5927-4.00612 103.276-9.36953 105.87-15.5007C108.446-21.6318 109.83-28.0581 109.83-34.9759C109.83-41.8936 108.533-48.3389 105.87-54.4511C103.208-60.5822 99.6117-65.9267 94.8862-70.5645C90.2674-75.1833 84.904-78.8669 78.7728-81.442C72.6417-84.1048 66.2154-85.4019 59.2976-85.4019C52.3799-85.4019 45.9536-84.1048 39.8224-81.442C33.6913-78.7793 28.4345-75.1833 23.7966-70.5645C19.1778-65.9456 15.4942-60.5822 12.9191-54.4511C10.2773-48.2989 8.9803-41.8726 8.9803-34.9548C8.9803-28.037 10.2773-21.5918 12.9401-15.4796C15.6029-9.34849 19.1988-4.00401 23.8177 0.633791C28.4366 5.25265 33.8 8.93622 39.9311 11.5114C46.0412 14.0655 52.5551 15.5378 59.3853 15.5378ZM59.3853 5.54245C53.8214 5.54245 48.5316 4.52376 43.6723 2.39876C38.7444 0.361376 34.523-2.54816 30.7413-6.32985C27.0683-10.0029 24.1588-14.3139 22.1003-19.2608C20.063-24.1888 18.9356-29.3909 18.9356-35.0614C18.9356-40.7318 19.9543-45.915 22.0127-50.8619C24.0501-55.7899 26.9597-60.0988 30.6537-63.7929C34.3268-67.4659 38.6378-70.3754 43.5847-72.5215C48.5127-74.5589 53.7338-75.6862 59.2976-75.6862C64.9491-75.6862 70.1702-74.6675 75.0982-72.5215C80.0262-70.3965 84.3351-67.5746 88.0292-63.7929C91.7022-60.1198 94.6117-55.8088 96.7578-50.8619C98.8828-45.9339 99.9225-40.7128 99.9225-35.0614C99.9225-29.4099 98.9038-24.2078 96.7578-19.2608C94.7204-14.3329 91.8108-10.0239 88.1168-6.32985C84.4437-2.56921 80.1327 0.340328 75.2047 2.48637C70.3665 4.52376 65.0767 5.54245 59.3853 5.54245Z"/>
  </g>
  <g id="Regular-M" transform="matrix(1 0 0 1 1391.01 1126)">
   <path class="hierarchical-0:primary SFSymbolsPreview212121" d="M80.6956-61.3615C80.6956-61.3615 77.2504-62.5099 69.2116-57.1507C65.894-58.0439 62.3212-58.5543 58.7484-58.5543C55.1756-58.5543 51.6028-58.0439 48.2852-57.1507C40.374-62.5099 36.8012-61.3615 36.8012-61.3615C34.5044-55.4919 36.0356-51.2811 36.4184-50.2603C33.7388-47.3255 32.08-43.6251 32.08-39.0315C32.08-23.0815 41.7776-19.3811 51.0924-18.3603C49.8164-17.3395 48.7956-15.4255 48.4128-12.7459C45.9884-11.7251 39.9912-9.93873 36.2908-16.3187C36.2908-16.3187 34.1216-20.4019 29.9108-20.6571C29.9108-20.6571 25.8276-20.6571 29.6556-18.1051C29.6556-18.1051 32.4628-16.8291 34.3768-11.9803C34.3768-11.9803 36.8012-3.81393 48.4128-6.36593C48.5404-2.79313 48.5404 3.00792 48.5404 4.02872C48.5404 4.28392 47.9024 5.55992 47.7748 5.81512C51.0924 6.70832 55.3032 6.83592 58.7484 6.96352C62.4488 6.96352 66.9148 6.30268 70.2324 5.40948C70.1048 5.15428 69.2116 3.51832 69.2116 3.26312C69.2116 1.98712 69.2116-4.96233 69.2116-10.5767C69.2116-14.5323 67.9356-17.0843 66.4044-18.3603C75.7192-19.5087 85.4168-22.9539 85.4168-39.0315C85.4168-43.6251 83.758-47.3255 81.0784-50.2603C81.4612-51.2811 82.9924-55.6195 80.6956-61.3615Z"/>
   <path class="hierarchical-1:secondary clearBehindLayer SFSymbolsPreview4D4D4D" d="M58.7484 14.896C65.5691 14.896 72.0302 13.62 77.9577 10.9869C83.9084 8.35377 89.3023 4.8042 93.8726 0.152708C98.4198-4.39442 102.074-9.70715 104.626-15.7622C107.154-21.8173 108.535-28.1509 108.535-34.9716C108.535-41.7923 107.259-48.149 104.626-54.1809C101.993-60.236 98.443-65.5255 93.7683-70.0958C89.2212-74.643 83.9084-78.2969 77.8533-80.8257C71.7982-83.4588 65.4647-84.7348 58.644-84.7348C51.8233-84.7348 45.4898-83.4588 39.4347-80.8257C33.3796-78.1925 28.1945-74.643 23.6241-70.0958C19.077-65.5487 15.423-60.236 12.8943-54.1809C10.2612-48.1258 8.98515-41.7923 8.98515-34.9716C8.98515-28.1509 10.2612-21.7941 12.8943-15.7622C15.5274-9.70715 19.077-4.41766 23.6241 0.152708C28.1712 4.69984 33.484 8.35377 39.5391 10.8825C45.5942 13.4113 52.032 14.896 58.7484 14.896ZM58.7484 6.53425C53.041 6.53425 47.6121 5.49022 42.6472 3.29778C37.601 1.20971 33.2741-1.77156 29.3996-5.64603C25.6295-9.41613 22.6482-13.8242 20.5602-18.8936C18.4721-23.9397 17.3237-29.2642 17.3237-35.0992C17.3237-40.9341 18.3677-46.2354 20.4558-51.3048C22.5439-56.3509 25.5251-60.7822 29.2952-64.5523C33.0653-68.3224 37.4734-71.3037 42.5428-73.4961C47.5889-75.5842 52.9367-76.7326 58.644-76.7326C64.4557-76.7326 69.8035-75.6885 74.8496-73.4961C79.8957-71.3037 84.327-68.4268 88.0972-64.5523C91.8673-60.7822 94.8485-56.3741 97.041-51.3048C99.2334-46.2586 100.277-40.9109 100.277-35.0992C100.277-29.2875 99.2334-23.9629 97.041-18.8936C94.9529-13.8475 91.9716-9.41613 88.2015-5.64603C84.4314-1.77156 80.0233 1.20971 74.9772 3.40215C70.0122 5.49022 64.5833 6.53425 58.7484 6.53425Z"/>
  </g>
  <g id="Light-M" transform="matrix(1 0 0 1 1095.11 1126)">
   <path class="hierarchical-0:primary SFSymbolsPreview212121" d="M79.8907-61.2862C79.8907-61.2862 76.4455-62.4346 68.4067-57.0754C65.0891-57.9686 61.5163-58.479 57.9435-58.479C54.3707-58.479 50.7979-57.9686 47.4803-57.0754C39.5691-62.4346 35.9963-61.2862 35.9963-61.2862C33.6995-55.4166 35.2307-51.2058 35.6135-50.185C32.9339-47.2502 31.2751-43.5498 31.2751-38.9562C31.2751-23.0062 40.9727-19.3058 50.2875-18.285C49.0115-17.2642 47.9907-15.3502 47.6079-12.6706C45.1835-11.6498 39.1863-9.86337 35.4859-16.2434C35.4859-16.2434 33.3167-20.3266 29.1059-20.5818C29.1059-20.5818 25.0227-20.5818 28.8507-18.0298C28.8507-18.0298 31.6579-16.7538 33.5719-11.905C33.5719-11.905 35.9963-3.73857 47.6079-6.29057C47.7355-2.71777 47.7355 4.21372 47.7355 5.23452C47.7355 5.48972 47.0975 6.76572 46.9699 7.02092C50.2875 7.91412 54.4983 8.04172 57.9435 8.16932C61.6439 8.16932 66.1099 7.88529 69.4275 6.99209C69.2999 6.73689 68.4067 4.72412 68.4067 4.46892C68.4067 3.19292 68.4067-4.88697 68.4067-10.5014C68.4067-14.457 67.1307-17.009 65.5995-18.285C74.9143-19.4334 84.6119-22.8786 84.6119-38.9562C84.6119-43.5498 82.9531-47.2502 80.2735-50.185C80.6563-51.2058 82.1875-55.5442 79.8907-61.2862Z"/>
   <path class="hierarchical-1:secondary clearBehindLayer SFSymbolsPreview4D4D4D" d="M57.9435 14.067C64.6512 14.067 71.0369 12.791 76.8514 10.2333C82.7267 7.67551 87.9699 4.16362 92.5026-0.374828C96.9743-4.8466 100.553-10.084 103.105-16.026C105.596-21.9681 106.939-28.2262 106.939-34.9339C106.939-41.6415 105.663-47.9606 103.105-53.8418C100.547-59.7838 97.0352-64.9603 92.4359-69.4929C87.9641-73.9647 82.7267-77.5433 76.7847-80.0344C70.8426-82.5921 64.5845-83.8681 57.8768-83.8681C51.1692-83.8681 44.911-82.5921 38.969-80.0344C33.0269-77.4766 27.9171-73.9647 23.3845-69.4929C18.9127-65.0212 15.3341-59.7838 12.843-53.8418C10.2853-47.8997 9.00927-41.6415 9.00927-34.9339C9.00927-28.2262 10.2853-21.9071 12.843-16.026C15.4008-10.084 18.9127-4.90751 23.3845-0.374828C27.8562 4.09694 33.0936 7.67551 39.0356 10.1666C44.9777 12.6577 51.3025 14.067 57.9435 14.067ZM57.9435 7.66469C52.0854 7.66469 46.5435 6.58297 41.3901 4.35286C36.231 2.18942 31.7156-0.867208 27.7657-4.81704C23.8826-8.70019 20.826-13.2213 18.6625-18.4414C16.4991-23.6006 15.3507-29.0758 15.3507-35.0615C15.3507-41.0471 16.4324-46.4615 18.5959-51.6816C20.7593-56.8407 23.8159-61.4228 27.6991-65.3059C31.5822-69.1891 36.1034-72.2457 41.3234-74.4758C46.4826-76.6393 52.0188-77.7877 57.8768-77.7877C63.8016-77.7877 69.3378-76.7059 74.4969-74.4758C79.6561-72.2457 84.2381-69.2558 88.1213-65.3059C92.0044-61.4228 95.061-56.9016 97.2912-51.6816C99.5213-46.5224 100.603-40.9862 100.603-35.0615C100.603-29.1367 99.5213-23.6615 97.2912-18.4414C95.1277-13.2823 92.0711-8.70019 88.188-4.81704C84.3048-0.867208 79.7837 2.18942 74.6245 4.41954C69.4711 6.58297 63.9292 7.66469 57.9435 7.66469Z"/>
  </g>
  <g id="Thin-M" transform="matrix(1 0 0 1 799.469 1126)">
   <path class="hierarchical-0:primary SFSymbolsPreview212121" d="M78.8262-61.1865C78.8262-61.1865 75.381-62.3349 67.3422-56.9757C64.0246-57.8689 60.4518-58.3793 56.879-58.3793C53.3062-58.3793 49.7334-57.8689 46.4158-56.9757C38.5046-62.3349 34.9318-61.1865 34.9318-61.1865C32.635-55.3169 34.1662-51.1061 34.549-50.0853C31.8694-47.1505 30.2106-43.4501 30.2106-38.8565C30.2106-22.9065 39.9082-19.2061 49.223-18.1853C47.947-17.1645 46.9262-15.2505 46.5434-12.5709C44.119-11.5501 38.1218-9.76369 34.4214-16.1437C34.4214-16.1437 32.2522-20.2269 28.0414-20.4821C28.0414-20.4821 23.9582-20.4821 27.7862-17.9301C27.7862-17.9301 30.5934-16.6541 32.5074-11.8053C32.5074-11.8053 34.9318-3.63889 46.5434-6.19089C46.671-2.61809 46.671 5.80849 46.671 6.82929C46.671 7.08449 46.033 8.36049 45.9054 8.61569C49.223 9.50889 53.4338 9.63649 56.879 9.76409C60.5794 9.76409 65.0454 9.97841 68.363 9.08521C68.2354 8.83001 67.3422 6.31889 67.3422 6.06369C67.3422 4.78769 67.3422-4.78729 67.3422-10.4017C67.3422-14.3573 66.0662-16.9093 64.535-18.1853C73.8498-19.3337 83.5474-22.7789 83.5474-38.8565C83.5474-43.4501 81.8886-47.1505 79.209-50.0853C79.5918-51.1061 81.123-55.4445 78.8262-61.1865Z"/>
   <path class="hierarchical-1:secondary clearBehindLayer SFSymbolsPreview4D4D4D" d="M56.879 12.9706C63.4371 12.9706 69.7232 11.6946 75.3882 9.23655C81.1639 6.77845 86.2077 3.3164 90.6905-1.07254C95.0626-5.44463 98.5415-10.5823 101.094-16.3749C103.535-22.1674 104.828-28.3259 104.828-34.884C104.828-41.4422 103.552-47.7114 101.094-53.3932C98.6354-59.1858 95.1734-64.2127 90.6737-68.6956C86.3016-73.0677 81.1639-76.5465 75.3713-78.9878C69.5788-81.4459 63.4203-82.7219 56.8622-82.7219C50.304-82.7219 44.1455-81.4459 38.353-78.9878C32.5604-76.5297 27.5503-73.0677 23.0675-68.6956C18.6954-64.3235 15.2165-59.1858 12.7753-53.3932C10.3172-47.6007 9.04116-41.4422 9.04116-34.884C9.04116-28.3259 10.3172-22.0567 12.7753-16.3749C15.2334-10.5823 18.6954-5.55538 23.0675-1.07254C27.4396 3.29956 32.5773 6.77845 38.3698 9.2197C44.1624 11.6609 50.3377 12.9706 56.879 12.9706ZM56.879 9.15978C50.8216 9.15978 45.1301 8.02823 39.7276 5.74828C34.4189 3.48517 29.6543 0.328865 25.6048-3.72064C21.5722-7.7533 18.4159-12.424 16.1528-17.8434C13.8897-23.152 12.7413-28.8266 12.7413-35.0116C12.7413-41.1967 13.8728-46.7605 16.1359-52.1799C18.399-57.4886 21.5553-62.27 25.588-66.3027C29.6207-70.3353 34.2913-73.4916 39.7107-75.7716C45.0194-78.0347 50.8047-79.1831 56.8622-79.1831C62.9364-79.1831 68.7218-78.0515 74.0304-75.7716C79.3391-73.4916 84.1205-70.3522 88.1532-66.3027C92.1858-62.27 95.3421-57.5993 97.6221-52.1799C99.902-46.8713 101.034-41.0859 101.034-35.0116C101.034-28.9374 99.902-23.2628 97.6221-17.8434C95.359-12.5347 92.2027-7.7533 88.17-3.72064C84.1374 0.328865 79.4667 3.48517 74.158 5.76512C68.7555 8.02823 63.064 9.15978 56.879 9.15978Z"/>
  </g>
  <g id="Ultralight-M" transform="matrix(1 0 0 1 503.307 1126)">
   <path class="hierarchical-0:primary SFSymbolsPreview212121" d="M78.281-61.1354C78.281-61.1354 74.8358-62.2838 66.797-56.9246C63.4794-57.8178 59.9066-58.3282 56.3338-58.3282C52.761-58.3282 49.1882-57.8178 45.8706-56.9246C37.9594-62.2838 34.3866-61.1354 34.3866-61.1354C32.0898-55.2658 33.621-51.055 34.0038-50.0342C31.3242-47.0994 29.6654-43.399 29.6654-38.8054C29.6654-22.8554 39.363-19.155 48.6778-18.1342C47.4018-17.1134 46.381-15.1994 45.9982-12.5198C43.5738-11.499 37.5766-9.71264 33.8762-16.0926C33.8762-16.0926 31.707-20.1758 27.4962-20.431C27.4962-20.431 23.413-20.431 27.241-17.879C27.241-17.879 30.0482-16.603 31.9622-11.7542C31.9622-11.7542 34.3866-3.58784 45.9982-6.13984C46.1258-2.56704 46.1258 6.62532 46.1258 7.64612C46.1258 7.90132 45.4878 9.17732 45.3602 9.43252C48.6778 10.3257 52.8886 10.4533 56.3338 10.5809C60.0342 10.5809 64.5002 11.0505 67.8178 10.1573C67.6902 9.9021 66.797 7.13572 66.797 6.88052C66.797 5.60452 66.797-4.73624 66.797-10.3506C66.797-14.3062 65.521-16.8582 63.9898-18.1342C73.3046-19.2826 83.0022-22.7278 83.0022-38.8054C83.0022-43.399 81.3434-47.0994 78.6638-50.0342C79.0466-51.055 80.5778-55.3934 78.281-61.1354Z"/>
   <path class="hierarchical-1:secondary clearBehindLayer SFSymbolsPreview4D4D4D" d="M56.3338 12.4091C62.8153 12.4091 69.0504 11.1331 74.6387 8.72603C80.3634 6.31898 85.3051 2.88246 89.7624-1.4299C94.0834-5.75094 97.5113-10.8376 100.063-16.5536C102.479-22.2695 103.746-28.377 103.746-34.8585C103.746-41.3401 102.47-47.5838 100.063-53.1635C97.6562-58.8795 94.2197-63.8298 89.7711-68.2871C85.45-72.6082 80.3634-76.036 74.6474-78.4517C68.9315-80.8588 62.824-82.1348 56.3424-82.1348C49.8609-82.1348 43.7534-80.8588 38.0375-78.4517C32.3215-76.0447 27.3625-72.6082 22.9051-68.2871C18.5841-63.9661 15.1563-58.8795 12.7405-53.1635C10.3335-47.4475 9.0575-41.3401 9.0575-34.8585C9.0575-28.377 10.3335-22.1332 12.7405-16.5536C15.1476-10.8376 18.5841-5.88722 22.9051-1.4299C27.2262 2.89114 32.3128 6.31898 38.0288 8.73471C43.7448 11.1504 49.8435 12.4091 56.3338 12.4091ZM56.3338 9.92556C50.1743 9.92556 44.4062 8.76848 38.876 6.463C33.4908 4.14884 28.5986 0.941487 24.498-3.15907C20.3888-7.26831 17.1814-12.0155 14.8673-17.5371C12.5531-22.9223 11.4047-28.699 11.4047-34.9861C11.4047-41.2732 12.5618-46.9137 14.876-52.4352C17.1901-57.8204 20.3975-62.7039 24.5067-66.8132C28.616-70.9224 33.3632-74.1298 38.8847-76.4352C44.2699-78.7494 50.1829-79.8978 56.3424-79.8978C62.4933-79.8978 68.4063-78.7407 73.7915-76.4352C79.1767-74.1298 84.0603-70.9137 88.1695-66.8132C92.2787-62.7039 95.4861-57.9567 97.7916-52.4352C100.097-47.05 101.254-41.137 101.254-34.9861C101.254-28.8353 100.097-23.0586 97.7916-17.5371C95.4774-12.1518 92.2701-7.26831 88.1608-3.15907C84.0516 0.941487 79.3043 4.14884 73.9191 6.45432C68.3889 8.76848 62.6209 9.92556 56.3338 9.92556Z"/>
  </g>
  <g id="Black-S" transform="matrix(1 0 0 1 2884.35 696)">
   <path class="hierarchical-0:primary SFSymbolsPreview212121" d="M65.22-55.45C65.22-55.45 62.62-56.35 56.62-52.25C54.12-52.95 51.42-53.35 48.82-53.35C46.12-53.35 43.42-52.95 41.02-52.25C35.12-56.25 32.42-55.45 32.42-55.45C30.72-51.05 31.82-47.85 32.12-47.15C30.12-44.95 28.92-42.15 28.92-38.75C28.92-26.85 36.22-24.05 43.12-23.25C42.12-22.45 41.42-21.05 41.12-19.05C39.32-18.25 34.82-16.95 32.02-21.75C32.02-21.75 30.42-24.85 27.22-24.95C27.22-24.95 24.12-24.95 27.02-23.05C27.02-23.05 29.12-22.05 30.52-18.45C30.52-18.45 32.32-12.35 41.02-14.25C41.12-11.55 41.12-9.65 41.12-8.85C41.12-8.65 40.62-7.65 40.52-7.45C43.02-6.75 46.12-6.65 48.72-6.55C51.52-6.55 54.82-7.25 57.32-7.95C57.22-8.15 56.62-9.15 56.62-9.35C56.62-10.35 56.62-13.15 56.62-17.35C56.62-20.35 55.62-22.25 54.52-23.15C61.52-24.05 68.72-26.55 68.72-38.65C68.72-42.05 67.52-44.85 65.52-47.05C65.82-47.95 66.92-51.15 65.22-55.45Z"/>
   <path class="hierarchical-1:secondary clearBehindLayer SFSymbolsPreview4D4D4D" d="M49.02 7.05C54.82 7.05 60.22 5.95 65.32 3.75C70.42 1.55 74.82-1.45 78.72-5.35C82.62-9.25 85.62-13.65 87.82-18.75C90.02-23.85 91.12-29.25 91.12-35.05C91.12-40.85 90.02-46.25 87.82-51.35C85.62-56.45 82.62-60.85 78.72-64.75C74.82-68.65 70.42-71.65 65.32-73.85C60.22-76.05 54.82-77.15 49.02-77.15C43.22-77.15 37.82-76.05 32.72-73.85C27.62-71.65 23.22-68.65 19.32-64.75C15.42-60.85 12.42-56.45 10.22-51.35C8.12-46.15 7.02-40.75 7.02-34.95C7.02-29.15 8.12-23.75 10.32-18.65C12.52-13.55 15.52-9.15 19.42-5.25C23.32-1.35 27.72 1.65 32.82 3.85C37.82 5.95 43.22 7.05 49.02 7.05ZM49.02-7.15C45.22-7.15 41.62-7.85 38.22-9.25C34.82-10.65 31.92-12.65 29.32-15.25C26.82-17.75 24.82-20.75 23.32-24.15C21.92-27.55 21.12-31.15 21.12-34.95C21.12-38.75 21.82-42.35 23.32-45.75C24.72-49.15 26.72-52.05 29.32-54.65C31.82-57.15 34.82-59.15 38.22-60.65C41.62-62.05 45.22-62.85 49.02-62.85C52.82-62.85 56.42-62.15 59.82-60.65C63.22-59.25 66.12-57.25 68.72-54.65C71.22-52.15 73.22-49.15 74.72-45.75C76.12-42.35 76.92-38.75 76.92-34.95C76.92-31.15 76.22-27.55 74.72-24.15C73.32-20.75 71.32-17.85 68.72-15.25C66.22-12.75 63.22-10.75 59.82-9.25C56.52-7.85 52.92-7.15 49.02-7.15Z"/>
  </g>
  <g id="Heavy-S" transform="matrix(1 0 0 1 2588.24 696)">
   <path class="hierarchical-0:primary SFSymbolsPreview212121" d="M64.8447-55.5208C64.8447-55.5208 62.2211-56.4208 56.1503-52.2972C53.6267-52.9972 50.9031-53.3972 48.2559-53.3972C45.5323-53.3972 42.8087-52.9972 40.3615-52.2972C34.3907-56.3444 31.6671-55.5208 31.6671-55.5208C29.9435-51.0736 31.0671-47.85 31.3671-47.1264C29.3435-44.9028 28.1199-42.0792 28.1199-38.632C28.1199-26.5904 35.4907-23.7668 42.4851-22.9668C41.4851-22.1668 40.7615-20.7432 40.4615-18.7196C38.6379-17.9196 34.0907-16.596 31.2671-21.4432C31.2671-21.4432 29.6435-24.5668 26.4199-24.6904C26.4199-24.6904 23.2963-24.6904 26.2199-22.7668C26.2199-22.7668 28.3435-21.7668 29.7671-18.1196C29.7671-18.1196 31.5907-11.9488 40.3851-13.8724C40.4851-11.1488 40.4851-8.75312 40.4851-7.95312C40.4851-7.75312 39.9851-6.75312 39.8851-6.55312C42.4087-5.85312 45.5559-5.75312 48.1795-5.65312C51.0031-5.65312 54.3503-6.35312 56.8739-7.05312C56.7739-7.25312 56.1503-8.27672 56.1503-8.47672C56.1503-9.47672 56.1503-12.7724 56.1503-17.0196C56.1503-20.0432 55.1503-21.9668 54.0267-22.8904C61.0975-23.7904 68.3919-26.3376 68.3919-38.5556C68.3919-42.0028 67.1683-44.8264 65.1447-47.05C65.4447-47.9264 66.5683-51.1736 64.8447-55.5208Z"/>
   <path class="hierarchical-1:secondary clearBehindLayer SFSymbolsPreview4D4D4D" d="M48.4087 6.43635C54.1143 6.43635 59.4435 5.35995 64.4491 3.18355C69.4547 1.00715 73.8311-1.94564 77.6603-5.79844C81.4895-9.62763 84.4659-13.9804 86.6187-19.0096C88.7714-24.0388 89.8714-29.3444 89.8714-35.05C89.8714-40.7556 88.7951-46.0612 86.6187-51.0904C84.4423-56.1196 81.4895-60.4724 77.6367-64.3016C73.8075-68.1308 69.4547-71.1072 64.4255-73.2599C59.3963-75.4363 54.0907-76.5127 48.3851-76.5127C42.6795-76.5127 37.3739-75.4363 32.3447-73.2599C27.3155-71.0835 22.9863-68.1308 19.1571-64.3016C15.328-60.4724 12.3516-56.1196 10.1988-51.0904C8.09876-45.9848 7.02236-40.6792 7.02236-34.9736C7.02236-29.268 8.09876-23.9624 10.2752-18.9332C12.4516-13.904 15.4043-9.55124 19.2335-5.72204C23.0627-1.89285 27.4155 1.08355 32.4447 3.23635C37.3975 5.31274 42.7267 6.43635 48.4087 6.43635ZM48.4087-6.18231C44.4671-6.18231 40.7255-6.90592 37.2311-8.37672C33.7131-9.82393 30.7187-11.8947 28.0242-14.5891C25.4298-17.1835 23.359-20.278 21.8354-23.796C20.3882-27.314 19.5646-31.032 19.5646-34.9972C19.5646-38.9624 20.2882-42.6804 21.8118-46.1984C23.259-49.7165 25.3298-52.7345 28.0006-55.4053C30.5951-57.9997 33.6895-60.0705 37.2075-61.6177C40.7255-63.0649 44.4435-63.8885 48.3851-63.8885C52.3503-63.8885 56.0683-63.1649 59.5863-61.6177C63.1043-60.1469 66.1224-58.0997 68.7932-55.4053C71.3876-52.8109 73.4584-49.7165 75.0056-46.1984C76.4764-42.6804 77.2764-38.9624 77.2764-34.9972C77.2764-31.032 76.5528-27.314 75.0056-23.796C73.5584-20.278 71.4876-17.2599 68.8168-14.5891C66.2224-11.9711 63.128-9.90032 59.6099-8.35312C56.1919-6.90592 52.4503-6.18231 48.4087-6.18231Z"/>
  </g>
  <g id="Bold-S" transform="matrix(1 0 0 1 2292.2 696)">
   <path class="hierarchical-0:primary SFSymbolsPreview212121" d="M64.425-55.6C64.425-55.6 61.775-56.5 55.625-52.35C53.075-53.05 50.325-53.45 47.625-53.45C44.875-53.45 42.125-53.05 39.625-52.35C33.575-56.45 30.825-55.6 30.825-55.6C29.075-51.1 30.225-47.85 30.525-47.1C28.475-44.85 27.225-42 27.225-38.5C27.225-26.3 34.675-23.45 41.775-22.65C40.775-21.85 40.025-20.4 39.725-18.35C37.875-17.55 33.275-16.2 30.425-21.1C30.425-21.1 28.775-24.25 25.525-24.4C25.525-24.4 22.375-24.4 25.325-22.45C25.325-22.45 27.475-21.45 28.925-17.75C28.925-17.75 30.775-11.5 39.675-13.45C39.775-10.7 39.775-7.75 39.775-6.95C39.775-6.75 39.275-5.75 39.175-5.55C41.725-4.85 44.925-4.75 47.575-4.65C50.425-4.65 53.825-5.35 56.375-6.05C56.275-6.25 55.625-7.3 55.625-7.5C55.625-8.5 55.625-12.35 55.625-16.65C55.625-19.7 54.625-21.65 53.475-22.6C60.625-23.5 68.025-26.1 68.025-38.45C68.025-41.95 66.775-44.8 64.725-47.05C65.025-47.9 66.175-51.2 64.425-55.6Z"/>
   <path class="hierarchical-1:secondary clearBehindLayer SFSymbolsPreview4D4D4D" d="M47.725 5.75C53.325 5.75 58.575 4.7 63.475 2.55C68.375 0.4 72.725-2.5 76.475-6.3C80.225-10.05 83.175-14.35 85.275-19.3C87.375-24.25 88.475-29.45 88.475-35.05C88.475-40.65 87.425-45.85 85.275-50.8C83.125-55.75 80.225-60.05 76.425-63.8C72.675-67.55 68.375-70.5 63.425-72.6C58.475-74.75 53.275-75.8 47.675-75.8C42.075-75.8 36.875-74.75 31.925-72.6C26.975-70.45 22.725-67.55 18.975-63.8C15.225-60.05 12.275-55.75 10.175-50.8C8.075-45.8 7.025-40.6 7.025-35C7.025-29.4 8.075-24.2 10.225-19.25C12.375-14.3 15.275-10 19.025-6.25C22.775-2.5 27.075 0.45 32.025 2.55C36.925 4.6 42.175 5.75 47.725 5.75ZM47.725-5.1C43.625-5.1 39.725-5.85 36.125-7.4C32.475-8.9 29.375-11.05 26.575-13.85C23.875-16.55 21.725-19.75 20.175-23.4C18.675-27.05 17.825-30.9 17.825-35.05C17.825-39.2 18.575-43.05 20.125-46.7C21.625-50.35 23.775-53.5 26.525-56.25C29.225-58.95 32.425-61.1 36.075-62.7C39.725-64.2 43.575-65.05 47.675-65.05C51.825-65.05 55.675-64.3 59.325-62.7C62.975-61.15 66.125-59.05 68.875-56.25C71.575-53.55 73.725-50.35 75.325-46.7C76.875-43.05 77.675-39.2 77.675-35.05C77.675-30.9 76.925-27.05 75.325-23.4C73.825-19.75 71.675-16.6 68.925-13.85C66.225-11.1 63.025-8.95 59.375-7.35C55.825-5.85 51.925-5.1 47.725-5.1Z"/>
  </g>
  <g id="Semibold-S" transform="matrix(1 0 0 1 1995.96 696)">
   <path class="hierarchical-0:primary SFSymbolsPreview212121" d="M64.1356-55.6546C64.1356-55.6546 61.4674-56.5546 55.2628-52.3864C52.6946-53.0864 49.9264-53.4864 47.19-53.4864C44.4218-53.4864 41.6536-53.0864 39.1172-52.3864C33.0126-56.5228 30.2444-55.6546 30.2444-55.6546C28.4762-51.1182 29.6444-47.85 29.9444-47.0818C27.8762-44.8136 26.608-41.9454 26.608-38.409C26.608-26.0998 34.1126-23.2316 41.2854-22.4316C40.2854-21.6316 39.5172-20.1634 39.2172-18.0952C37.349-17.2952 32.7126-15.927 29.8444-20.8634C29.8444-20.8634 28.1762-24.0316 24.908-24.1998C24.908-24.1998 21.7398-24.1998 24.708-22.2316C24.708-22.2316 26.8762-21.2316 28.3444-17.4952C28.3444-17.4952 30.2126-11.1906 39.1854-13.1588C39.2854-10.3906 39.2854-7.0584 39.2854-6.2584C39.2854-6.0584 38.7854-5.0584 38.6854-4.8584C41.2536-4.1584 44.49-4.0584 47.1582-3.9584C50.0264-3.9584 53.4628-4.6584 56.031-5.3584C55.931-5.5584 55.2628-6.6266 55.2628-6.8266C55.2628-7.8266 55.2628-12.0588 55.2628-16.3952C55.2628-19.4634 54.2628-21.4316 53.0946-22.3998C60.2992-23.2998 67.772-25.9362 67.772-38.3772C67.772-41.9136 66.5038-44.7818 64.4356-47.05C64.7356-47.8818 65.9038-51.2182 64.1356-55.6546Z"/>
   <path class="hierarchical-1:secondary clearBehindLayer SFSymbolsPreview4D4D4D" d="M47.2536 5.2768C52.7808 5.2768 57.9762 4.245 62.8034 2.1132C67.6306-0.0186 71.9624-2.8822 75.6578-6.6458C79.3532-10.3412 82.285-14.6048 84.3486-19.5002C86.4122-24.3956 87.5122-29.5228 87.5122-35.05C87.5122-40.5772 86.4804-45.7044 84.3486-50.5998C82.2168-55.4952 79.3532-59.7588 75.5896-63.4542C71.8942-67.1496 67.6306-70.0814 62.7352-72.145C57.8398-74.2768 52.7126-75.3086 47.1854-75.3086C41.6582-75.3086 36.531-74.2768 31.6356-72.145C26.7402-70.0132 22.5448-67.1496 18.8494-63.4542C15.154-59.7588 12.2222-55.4952 10.1586-50.5998C8.05862-45.6726 7.02682-40.5454 7.02682-35.0182C7.02682-29.491 8.05862-24.3638 10.1904-19.4684C12.3222-14.573 15.1858-10.3094 18.8812-6.614C22.5766-2.9186 26.8402 0.0132 31.7356 2.0768C36.5992 4.1086 41.7946 5.2768 47.2536 5.2768ZM47.2536-4.3538C43.0444-4.3538 39.0352-5.122 35.3624-6.7266C31.6214-8.263 28.4486-10.4676 25.5758-13.3404C22.803-16.1132 20.5984-19.386 19.0302-23.127C17.4938-26.868 16.6256-30.809 16.6256-35.0864C16.6256-39.3638 17.3938-43.3048 18.962-47.0458C20.4984-50.7868 22.703-54.0278 25.5076-56.8324C28.2804-59.6052 31.5532-61.8098 35.2942-63.4462C39.0352-64.9826 42.9762-65.8508 47.1854-65.8508C51.4628-65.8508 55.4038-65.0826 59.1448-63.4462C62.8858-61.8416 66.1268-59.7052 68.9314-56.8324C71.7042-54.0596 73.9088-50.7868 75.5452-47.0458C77.1498-43.3048 77.9498-39.3638 77.9498-35.0864C77.9498-30.809 77.1816-26.868 75.5452-23.127C74.0088-19.386 71.8042-16.145 68.9996-13.3404C66.2268-10.4994 62.954-8.2948 59.213-6.6584C55.572-5.122 51.5628-4.3538 47.2536-4.3538Z"/>
  </g>
  <g id="Medium-S" transform="matrix(1 0 0 1 1699.6 696)">
   <path class="hierarchical-0:primary SFSymbolsPreview212121" d="M63.9162-55.696C63.9162-55.696 61.2342-56.596 54.9882-52.414C52.4062-53.114 49.6242-53.514 46.8602-53.514C44.0782-53.514 41.2962-53.114 38.7322-52.414C32.5862-56.578 29.8042-55.696 29.8042-55.696C28.0222-51.132 29.2042-47.85 29.5042-47.068C27.4222-44.786 26.1402-41.904 26.1402-38.34C26.1402-25.948 33.6862-23.066 40.9142-22.266C39.9142-21.466 39.1322-19.984 38.8322-17.902C36.9502-17.102 32.2862-15.72 29.4042-20.684C29.4042-20.684 27.7222-23.866 24.4402-24.048C24.4402-24.048 21.2582-24.048 24.2402-22.066C24.2402-22.066 26.4222-21.066 27.9042-17.302C27.9042-17.302 29.7862-10.956 38.8142-12.938C38.9142-10.156 38.9142-6.534 38.9142-5.734C38.9142-5.534 38.4142-4.534 38.3142-4.334C40.8962-3.634 44.1602-3.534 46.8422-3.434C49.7242-3.434 53.1882-4.134 55.7702-4.834C55.6702-5.034 54.9882-6.116 54.9882-6.316C54.9882-7.316 54.9882-11.838 54.9882-16.202C54.9882-19.284 53.9882-21.266 52.8062-22.248C60.0522-23.148 67.5802-25.812 67.5802-38.322C67.5802-41.886 66.2982-44.768 64.2162-47.05C64.5162-47.868 65.6982-51.232 63.9162-55.696Z"/>
   <path class="hierarchical-1:secondary clearBehindLayer SFSymbolsPreview4D4D4D" d="M46.8962 4.918C52.3682 4.918 57.5222 3.9 62.2942 1.782C67.0662-0.336 71.3842-3.172 75.0382-6.908C78.6922-10.562 81.6102-14.798 83.6462-19.652C85.6822-24.506 86.7822-29.578 86.7822-35.05C86.7822-40.522 85.7642-45.594 83.6462-50.448C81.5282-55.302 78.6922-59.538 74.9562-63.192C71.3022-66.846 67.0662-69.764 62.2122-71.8C57.3582-73.918 52.2862-74.936 46.8142-74.936C41.3422-74.936 36.2702-73.918 31.4162-71.8C26.5622-69.682 22.4082-66.846 18.7542-63.192C15.1002-59.538 12.1822-55.302 10.1462-50.448C8.0462-45.576 7.0282-40.504 7.0282-35.032C7.0282-29.56 8.0462-24.488 10.1642-19.634C12.2822-14.78 15.1182-10.544 18.7722-6.89C22.4262-3.236 26.6622-0.318 31.5162 1.718C36.3522 3.736 41.5062 4.918 46.8962 4.918ZM46.8962-3.788C42.6042-3.788 38.5122-4.57 34.7842-6.216C30.9742-7.78 27.7462-10.026 24.8182-12.954C21.9902-15.782 19.7442-19.11 18.1622-22.92C16.5982-26.73 15.7162-30.74 15.7162-35.114C15.7162-39.488 16.4982-43.498 18.0802-47.308C19.6442-51.118 21.8902-54.428 24.7362-57.274C27.5642-60.102 30.8922-62.348 34.7022-64.012C38.5122-65.576 42.5222-66.458 46.8142-66.458C51.1882-66.458 55.1982-65.676 59.0082-64.012C62.8182-62.366 66.1282-60.202 68.9742-57.274C71.8022-54.446 74.0482-51.118 75.7122-47.308C77.3582-43.498 78.1582-39.488 78.1582-35.114C78.1582-30.74 77.3762-26.73 75.7122-22.92C74.1482-19.11 71.9022-15.8 69.0562-12.954C66.2282-10.044 62.9002-7.798 59.0902-6.134C55.3802-4.57 51.2882-3.788 46.8962-3.788Z"/>
  </g>
  <g id="Regular-S" transform="matrix(1 0 0 1 1403.34 696)">
   <path class="hierarchical-0:primary SFSymbolsPreview212121" d="M63.63-55.75C63.63-55.75 60.93-56.65 54.63-52.45C52.03-53.15 49.23-53.55 46.43-53.55C43.63-53.55 40.83-53.15 38.23-52.45C32.03-56.65 29.23-55.75 29.23-55.75C27.43-51.15 28.63-47.85 28.93-47.05C26.83-44.75 25.53-41.85 25.53-38.25C25.53-25.75 33.13-22.85 40.43-22.05C39.43-21.25 38.63-19.75 38.33-17.65C36.43-16.85 31.73-15.45 28.83-20.45C28.83-20.45 27.13-23.65 23.83-23.85C23.83-23.85 20.63-23.85 23.63-21.85C23.63-21.85 25.83-20.85 27.33-17.05C27.33-17.05 29.23-10.65 38.33-12.65C38.43-9.85 38.43-5.85 38.43-5.05C38.43-4.85 37.93-3.85 37.83-3.65C40.43-2.95 43.73-2.85 46.43-2.75C49.33-2.75 52.83-3.45 55.43-4.15C55.33-4.35 54.63-5.45 54.63-5.65C54.63-6.65 54.63-11.55 54.63-15.95C54.63-19.05 53.63-21.05 52.43-22.05C59.73-22.95 67.33-25.65 67.33-38.25C67.33-41.85 66.03-44.75 63.93-47.05C64.23-47.85 65.43-51.25 63.63-55.75Z"/>
   <path class="hierarchical-1:secondary clearBehindLayer SFSymbolsPreview4D4D4D" d="M46.43 4.45C51.83 4.45 56.93 3.45 61.63 1.35C66.33-0.75 70.63-3.55 74.23-7.25C77.83-10.85 80.73-15.05 82.73-19.85C84.73-24.65 85.83-29.65 85.83-35.05C85.83-40.45 84.83-45.45 82.73-50.25C80.63-55.05 77.83-59.25 74.13-62.85C70.53-66.45 66.33-69.35 61.53-71.35C56.73-73.45 51.73-74.45 46.33-74.45C40.93-74.45 35.93-73.45 31.13-71.35C26.33-69.25 22.23-66.45 18.63-62.85C15.03-59.25 12.13-55.05 10.13-50.25C8.03-45.45 7.03-40.45 7.03-35.05C7.03-29.65 8.03-24.65 10.13-19.85C12.23-15.05 15.03-10.85 18.63-7.25C22.23-3.65 26.43-0.75 31.23 1.25C36.03 3.25 41.13 4.45 46.43 4.45ZM46.43-3.05C42.03-3.05 37.83-3.85 34.03-5.55C30.13-7.15 26.83-9.45 23.83-12.45C20.93-15.35 18.63-18.75 17.03-22.65C15.43-26.55 14.53-30.65 14.53-35.15C14.53-39.65 15.33-43.75 16.93-47.65C18.53-51.55 20.83-54.95 23.73-57.85C26.63-60.75 30.03-63.05 33.93-64.75C37.83-66.35 41.93-67.25 46.33-67.25C50.83-67.25 54.93-66.45 58.83-64.75C62.73-63.05 66.13-60.85 69.03-57.85C71.93-54.95 74.23-51.55 75.93-47.65C77.63-43.75 78.43-39.65 78.43-35.15C78.43-30.65 77.63-26.55 75.93-22.65C74.33-18.75 72.03-15.35 69.13-12.45C66.23-9.45 62.83-7.15 58.93-5.45C55.13-3.85 50.93-3.05 46.43-3.05Z"/>
  </g>
  <g id="Light-S" transform="matrix(1 0 0 1 1107.35 696)">
   <path class="hierarchical-0:primary SFSymbolsPreview212121" d="M62.918-55.6833C62.918-55.6833 60.218-56.5833 53.918-52.3833C51.318-53.0833 48.518-53.4833 45.718-53.4833C42.918-53.4833 40.118-53.0833 37.518-52.3833C31.318-56.5833 28.518-55.6833 28.518-55.6833C26.718-51.0833 27.918-47.7833 28.218-46.9833C26.118-44.6833 24.818-41.7833 24.818-38.1833C24.818-25.6833 32.418-22.7833 39.718-21.9833C38.718-21.1833 37.918-19.6833 37.618-17.5833C35.718-16.7833 31.018-15.3833 28.118-20.3833C28.118-20.3833 26.418-23.5833 23.118-23.7833C23.118-23.7833 19.918-23.7833 22.918-21.7833C22.918-21.7833 25.118-20.7833 26.618-16.9833C26.618-16.9833 28.518-10.5833 37.618-12.5833C37.718-9.78333 37.718-4.78333 37.718-3.98333C37.718-3.78333 37.218-2.78333 37.118-2.58333C39.718-1.88333 43.018-1.78333 45.718-1.68333C48.618-1.68333 52.118-2.05 54.718-2.75C54.618-2.95 53.918-4.38333 53.918-4.58333C53.918-5.58333 53.918-11.4833 53.918-15.8833C53.918-18.9833 52.918-20.9833 51.718-21.9833C59.018-22.8833 66.618-25.5833 66.618-38.1833C66.618-41.7833 65.318-44.6833 63.218-46.9833C63.518-47.7833 64.718-51.1833 62.918-55.6833Z"/>
   <path class="hierarchical-1:secondary clearBehindLayer SFSymbolsPreview4D4D4D" d="M45.718 3.71667C51.018 3.71667 56.0513 2.71667 60.6513 0.683333C65.2847-1.35 69.4513-4.11667 73.018-7.71667C76.5513-11.25 79.3847-15.3833 81.3847-20.0833C83.3513-24.7833 84.418-29.7167 84.418-35.0167C84.418-40.3167 83.418-45.2833 81.3847-49.95C79.3513-54.65 76.5847-58.75 72.9513-62.3167C69.418-65.85 65.2847-68.6833 60.5847-70.65C55.8847-72.6833 50.9513-73.6833 45.6513-73.6833C40.3513-73.6833 35.418-72.6833 30.718-70.65C26.018-68.6167 21.9847-65.85 18.418-62.3167C14.8847-58.7833 12.0513-54.65 10.0847-49.95C8.05133-45.25 7.05133-40.3167 7.05133-35.0167C7.05133-29.7167 8.05133-24.75 10.0847-20.0833C12.118-15.3833 14.8847-11.2833 18.418-7.71667C21.9513-4.18333 26.0847-1.35 30.7847 0.616667C35.4847 2.58333 40.4847 3.71667 45.718 3.71667ZM45.718-2.05C41.1847-2.05 36.8847-2.88333 32.918-4.61667C28.918-6.28333 25.4513-8.65 22.3847-11.7167C19.3847-14.7167 17.018-18.2167 15.3513-22.25C13.6847-26.25 12.7847-30.4833 12.7847-35.1167C12.7847-39.75 13.618-43.95 15.2847-47.9833C16.9513-51.9833 19.318-55.5167 22.318-58.5167C25.318-61.5167 28.818-63.8833 32.8513-65.6167C36.8513-67.2833 41.118-68.1833 45.6513-68.1833C50.2513-68.1833 54.518-67.35 58.518-65.6167C62.518-63.8833 66.0513-61.5833 69.0513-58.5167C72.0513-55.5167 74.418-52.0167 76.1513-47.9833C77.8847-43.9833 78.718-39.7167 78.718-35.1167C78.718-30.5167 77.8847-26.2833 76.1513-22.25C74.4847-18.25 72.118-14.7167 69.118-11.7167C66.118-8.65 62.618-6.28333 58.618-4.55C54.6513-2.88333 50.3513-2.05 45.718-2.05Z"/>
  </g>
  <g id="Thin-S" transform="matrix(1 0 0 1 811.587 696)">
   <path class="hierarchical-0:primary SFSymbolsPreview212121" d="M61.9763-55.5952C61.9763-55.5952 59.2763-56.4952 52.9763-52.2952C50.3763-52.9952 47.5763-53.3952 44.7763-53.3952C41.9763-53.3952 39.1763-52.9952 36.5763-52.2952C30.3763-56.4952 27.5763-55.5952 27.5763-55.5952C25.7763-50.9952 26.9763-47.6952 27.2763-46.8952C25.1763-44.5952 23.8763-41.6952 23.8763-38.0952C23.8763-25.5952 31.4763-22.6952 38.7763-21.8952C37.7763-21.0952 36.9763-19.5952 36.6763-17.4952C34.7763-16.6952 30.0763-15.2952 27.1763-20.2952C27.1763-20.2952 25.4763-23.4952 22.1763-23.6952C22.1763-23.6952 18.9763-23.6952 21.9763-21.6952C21.9763-21.6952 24.1763-20.6952 25.6763-16.8952C25.6763-16.8952 27.5763-10.4952 36.6763-12.4952C36.7763-9.69516 36.7763-3.37258 36.7763-2.57258C36.7763-2.37258 36.2763-1.37258 36.1763-1.17258C38.7763-0.472581 42.0763-0.372581 44.7763-0.272581C47.6763-0.272581 51.1763-0.198387 53.7763-0.898387C53.6763-1.09839 52.9763-2.97258 52.9763-3.17258C52.9763-4.17258 52.9763-11.3952 52.9763-15.7952C52.9763-18.8952 51.9763-20.8952 50.7763-21.8952C58.0763-22.7952 65.6763-25.4952 65.6763-38.0952C65.6763-41.6952 64.3763-44.5952 62.2763-46.8952C62.5763-47.6952 63.7763-51.0952 61.9763-55.5952Z"/>
   <path class="hierarchical-1:secondary clearBehindLayer SFSymbolsPreview4D4D4D" d="M44.7763 2.74677C49.9441 2.74677 54.8892 1.74677 59.357-0.198387C63.9021-2.14355 67.8925-4.86613 71.415-8.33387C74.8602-11.779 77.6054-15.8242 79.6054-20.3919C81.5279-24.9597 82.5505-29.8048 82.5505-34.9726C82.5505-40.1403 81.5505-45.0629 79.6054-49.5532C77.6602-54.121 74.9376-58.0887 71.3925-61.6113C67.9473-65.0565 63.9021-67.8016 59.3344-69.7242C54.7666-71.6694 49.9215-72.6694 44.7537-72.6694C39.586-72.6694 34.7408-71.6694 30.1731-69.7242C25.6054-67.779 21.6602-65.0565 18.1376-61.6113C14.6925-58.1661 11.9473-54.121 10.0247-49.5532C8.07955-44.9855 7.07955-40.1403 7.07955-34.9726C7.07955-29.8048 8.07955-24.8823 10.0247-20.3919C11.9699-15.8242 14.6925-11.8565 18.1376-8.33387C21.5828-4.88871 25.6279-2.14355 30.1957-0.220968C34.7634 1.70161 39.6312 2.74677 44.7763 2.74677ZM44.7763-0.727419C40.0666-0.727419 35.6344-1.60484 31.4473-3.38226C27.315-5.1371 23.6279-7.59194 20.4731-10.7468C17.3408-13.879 14.886-17.5113 13.1312-21.721C11.3763-25.8532 10.4763-30.2629 10.4763-35.0726C10.4763-39.8823 11.3537-44.2145 13.1086-48.4242C14.8634-52.5565 17.3183-56.2661 20.4505-59.3984C23.5828-62.5306 27.215-64.9855 31.4247-66.7629C35.557-68.5177 40.0441-69.4177 44.7537-69.4177C49.486-69.4177 53.9731-68.5403 58.1054-66.7629C62.2376-64.9855 65.9473-62.5532 69.0795-59.3984C72.2118-56.2661 74.6666-52.6339 76.4441-48.4242C78.2215-44.2919 79.0989-39.8048 79.0989-35.0726C79.0989-30.3403 78.2215-25.9306 76.4441-21.721C74.6892-17.5887 72.2344-13.879 69.1021-10.7468C65.9699-7.59194 62.3376-5.1371 58.2054-3.35968C54.0183-1.60484 49.586-0.727419 44.7763-0.727419Z"/>
  </g>
  <g id="Ultralight-S" transform="matrix(1 0 0 1 515.361 696)">
   <path class="hierarchical-0:primary SFSymbolsPreview212121" d="M61.494-55.55C61.494-55.55 58.794-56.45 52.494-52.25C49.894-52.95 47.094-53.35 44.294-53.35C41.494-53.35 38.694-52.95 36.094-52.25C29.894-56.45 27.094-55.55 27.094-55.55C25.294-50.95 26.494-47.65 26.794-46.85C24.694-44.55 23.394-41.65 23.394-38.05C23.394-25.55 30.994-22.65 38.294-21.85C37.294-21.05 36.494-19.55 36.194-17.45C34.294-16.65 29.594-15.25 26.694-20.25C26.694-20.25 24.994-23.45 21.694-23.65C21.694-23.65 18.494-23.65 21.494-21.65C21.494-21.65 23.694-20.65 25.194-16.85C25.194-16.85 27.094-10.45 36.194-12.45C36.294-9.65 36.294-2.65 36.294-1.85C36.294-1.65 35.794-0.65 35.694-0.45C38.294 0.25 41.594 0.35 44.294 0.45C47.194 0.45 50.694 0.75 53.294 0.05C53.194-0.15 52.494-2.25 52.494-2.45C52.494-3.45 52.494-11.35 52.494-15.75C52.494-18.85 51.494-20.85 50.294-21.85C57.594-22.75 65.194-25.45 65.194-38.05C65.194-41.65 63.894-44.55 61.794-46.85C62.094-47.65 63.294-51.05 61.494-55.55Z"/>
   <path class="hierarchical-1:secondary clearBehindLayer SFSymbolsPreview4D4D4D" d="M44.294 2.25C49.394 2.25 54.294 1.25 58.694-0.65C63.194-2.55 67.094-5.25 70.594-8.65C73.994-12.05 76.694-16.05 78.694-20.55C80.594-25.05 81.594-29.85 81.594-34.95C81.594-40.05 80.594-44.95 78.694-49.35C76.794-53.85 74.094-57.75 70.594-61.25C67.194-64.65 63.194-67.35 58.694-69.25C54.194-71.15 49.394-72.15 44.294-72.15C39.194-72.15 34.394-71.15 29.894-69.25C25.394-67.35 21.494-64.65 17.994-61.25C14.594-57.85 11.894-53.85 9.994-49.35C8.094-44.85 7.094-40.05 7.094-34.95C7.094-29.85 8.094-24.95 9.994-20.55C11.894-16.05 14.594-12.15 17.994-8.65C21.394-5.25 25.394-2.55 29.894-0.65C34.394 1.25 39.194 2.25 44.294 2.25ZM44.294-0.05C39.494-0.05 34.994-0.95 30.694-2.75C26.494-4.55 22.694-7.05 19.494-10.25C16.294-13.45 13.794-17.15 11.994-21.45C10.194-25.65 9.294-30.15 9.294-35.05C9.294-39.95 10.194-44.35 11.994-48.65C13.794-52.85 16.294-56.65 19.494-59.85C22.694-63.05 26.394-65.55 30.694-67.35C34.894-69.15 39.494-70.05 44.294-70.05C49.094-70.05 53.694-69.15 57.894-67.35C62.094-65.55 65.894-63.05 69.094-59.85C72.294-56.65 74.794-52.95 76.594-48.65C78.394-44.45 79.294-39.85 79.294-35.05C79.294-30.25 78.394-25.75 76.594-21.45C74.794-17.25 72.294-13.45 69.094-10.25C65.894-7.05 62.194-4.55 57.994-2.75C53.694-0.95 49.194-0.05 44.294-0.05Z"/>
  </g>
 </g>
</svg>
