<?xml version="1.0" encoding="UTF-8"?>
<!--Generator: Apple Native CoreSVG 149-->
<!DOCTYPE svg
PUBLIC "-//W3C//DTD SVG 1.1//EN"
       "http://www.w3.org/Graphics/SVG/1.1/DTD/svg11.dtd">
<svg version="1.1" xmlns="http://www.w3.org/2000/svg" xmlns:xlink="http://www.w3.org/1999/xlink" width="3300" height="2200">
 <!--glyph: "", point size: 100.0, font version: "17.0d9e1", template writer version: "59"-->
 <style>.multicolor-0:systemBlueColor {fill:#007AFF;opacity:1.0}

.hierarchical-0:secondary {fill:#4D4D4D}
.hierarchical-1:primary {fill:#212121}

.SFSymbolsPreview007AFF {fill:#007AFF;opacity:1.0}
.SFSymbolsPreviewFFFFFF {fill:#FFFFFF;opacity:1.0}
</style>
 <g id="Notes">
  <rect height="2200" id="artboard" style="fill:white;opacity:1" width="3300" x="0" y="0"/>
  <line style="fill:none;stroke:black;opacity:1;stroke-width:0.5;" x1="263" x2="3036" y1="292" y2="292"/>
  <text style="stroke:none;fill:black;font-family:sans-serif;font-size:13;font-weight:bold;" transform="matrix(1 0 0 1 263 322)">Weight/Scale Variations</text>
  <text style="stroke:none;fill:black;font-family:sans-serif;font-size:13;text-anchor:middle;" transform="matrix(1 0 0 1 559.711 322)">Ultralight</text>
  <text style="stroke:none;fill:black;font-family:sans-serif;font-size:13;text-anchor:middle;" transform="matrix(1 0 0 1 856.422 322)">Thin</text>
  <text style="stroke:none;fill:black;font-family:sans-serif;font-size:13;text-anchor:middle;" transform="matrix(1 0 0 1 1153.13 322)">Light</text>
  <text style="stroke:none;fill:black;font-family:sans-serif;font-size:13;text-anchor:middle;" transform="matrix(1 0 0 1 1449.84 322)">Regular</text>
  <text style="stroke:none;fill:black;font-family:sans-serif;font-size:13;text-anchor:middle;" transform="matrix(1 0 0 1 1746.56 322)">Medium</text>
  <text style="stroke:none;fill:black;font-family:sans-serif;font-size:13;text-anchor:middle;" transform="matrix(1 0 0 1 2043.27 322)">Semibold</text>
  <text style="stroke:none;fill:black;font-family:sans-serif;font-size:13;text-anchor:middle;" transform="matrix(1 0 0 1 2339.98 322)">Bold</text>
  <text style="stroke:none;fill:black;font-family:sans-serif;font-size:13;text-anchor:middle;" transform="matrix(1 0 0 1 2636.69 322)">Heavy</text>
  <text style="stroke:none;fill:black;font-family:sans-serif;font-size:13;text-anchor:middle;" transform="matrix(1 0 0 1 2933.4 322)">Black</text>
  <line style="fill:none;stroke:black;opacity:1;stroke-width:0.5;" x1="263" x2="3036" y1="1903" y2="1903"/>
  <g transform="matrix(1 0 0 1 263 1933)">
   <path d="M9.24805 0.830078Q10.8691 0.830078 12.2949 0.214844Q13.7207-0.400391 14.8096-1.49414Q15.8984-2.58789 16.5186-4.01367Q17.1387-5.43945 17.1387-7.05078Q17.1387-8.66211 16.5186-10.0879Q15.8984-11.5137 14.8047-12.6074Q13.7109-13.7012 12.2852-14.3164Q10.8594-14.9316 9.23828-14.9316Q7.62695-14.9316 6.20117-14.3164Q4.77539-13.7012 3.69141-12.6074Q2.60742-11.5137 1.9873-10.0879Q1.36719-8.66211 1.36719-7.05078Q1.36719-5.43945 1.9873-4.01367Q2.60742-2.58789 3.69629-1.49414Q4.78516-0.400391 6.21094 0.214844Q7.63672 0.830078 9.24805 0.830078ZM9.24805-0.654297Q7.91992-0.654297 6.7627-1.14746Q5.60547-1.64062 4.73145-2.51953Q3.85742-3.39844 3.36426-4.56055Q2.87109-5.72266 2.87109-7.05078Q2.87109-8.37891 3.35938-9.54102Q3.84766-10.7031 4.72168-11.582Q5.5957-12.4609 6.75293-12.9541Q7.91016-13.4473 9.23828-13.4473Q10.5762-13.4473 11.7334-12.9541Q12.8906-12.4609 13.7695-11.582Q14.6484-10.7031 15.1465-9.54102Q15.6445-8.37891 15.6445-7.05078Q15.6445-5.72266 15.1514-4.56055Q14.6582-3.39844 13.7842-2.51953Q12.9102-1.64062 11.748-1.14746Q10.5859-0.654297 9.24805-0.654297ZM5.83984-7.04102Q5.83984-6.71875 6.04492-6.51855Q6.25-6.31836 6.5918-6.31836L8.50586-6.31836L8.50586-4.39453Q8.50586-4.0625 8.70605-3.85742Q8.90625-3.65234 9.22852-3.65234Q9.56055-3.65234 9.76562-3.85742Q9.9707-4.0625 9.9707-4.39453L9.9707-6.31836L11.8945-6.31836Q12.2266-6.31836 12.4316-6.51855Q12.6367-6.71875 12.6367-7.04102Q12.6367-7.37305 12.4316-7.57812Q12.2266-7.7832 11.8945-7.7832L9.9707-7.7832L9.9707-9.69727Q9.9707-10.0391 9.76562-10.2441Q9.56055-10.4492 9.22852-10.4492Q8.90625-10.4492 8.70605-10.2441Q8.50586-10.0391 8.50586-9.69727L8.50586-7.7832L6.5918-7.7832Q6.25-7.7832 6.04492-7.57812Q5.83984-7.37305 5.83984-7.04102Z"/>
  </g>
  <g transform="matrix(1 0 0 1 281.867 1933)">
   <path d="M11.709 2.91016Q13.75 2.91016 15.5518 2.12891Q17.3535 1.34766 18.7305-0.0292969Q20.1074-1.40625 20.8887-3.20801Q21.6699-5.00977 21.6699-7.05078Q21.6699-9.0918 20.8887-10.8936Q20.1074-12.6953 18.7305-14.0723Q17.3535-15.4492 15.5469-16.2305Q13.7402-17.0117 11.6992-17.0117Q9.6582-17.0117 7.85645-16.2305Q6.05469-15.4492 4.68262-14.0723Q3.31055-12.6953 2.5293-10.8936Q1.74805-9.0918 1.74805-7.05078Q1.74805-5.00977 2.5293-3.20801Q3.31055-1.40625 4.6875-0.0292969Q6.06445 1.34766 7.86621 2.12891Q9.66797 2.91016 11.709 2.91016ZM11.709 1.25Q9.98047 1.25 8.47656 0.605469Q6.97266-0.0390625 5.83496-1.17676Q4.69727-2.31445 4.05762-3.81836Q3.41797-5.32227 3.41797-7.05078Q3.41797-8.7793 4.05762-10.2832Q4.69727-11.7871 5.83008-12.9297Q6.96289-14.0723 8.4668-14.7119Q9.9707-15.3516 11.6992-15.3516Q13.4277-15.3516 14.9316-14.7119Q16.4355-14.0723 17.5781-12.9297Q18.7207-11.7871 19.3652-10.2832Q20.0098-8.7793 20.0098-7.05078Q20.0098-5.32227 19.3701-3.81836Q18.7305-2.31445 17.5928-1.17676Q16.4551-0.0390625 14.9463 0.605469Q13.4375 1.25 11.709 1.25ZM7.39258-7.04102Q7.39258-6.68945 7.62695-6.46484Q7.86133-6.24023 8.23242-6.24023L10.8789-6.24023L10.8789-3.57422Q10.8789-3.21289 11.1035-2.9834Q11.3281-2.75391 11.6797-2.75391Q12.0508-2.75391 12.2852-2.9834Q12.5195-3.21289 12.5195-3.57422L12.5195-6.24023L15.1758-6.24023Q15.5371-6.24023 15.7715-6.46484Q16.0059-6.68945 16.0059-7.04102Q16.0059-7.41211 15.7715-7.6416Q15.5371-7.87109 15.1758-7.87109L12.5195-7.87109L12.5195-10.5176Q12.5195-10.8984 12.2852-11.1279Q12.0508-11.3574 11.6797-11.3574Q11.3281-11.3574 11.1035-11.1279Q10.8789-10.8984 10.8789-10.5176L10.8789-7.87109L8.23242-7.87109Q7.85156-7.87109 7.62207-7.6416Q7.39258-7.41211 7.39258-7.04102Z"/>
  </g>
  <g transform="matrix(1 0 0 1 305.646 1933)">
   <path d="M14.9707 5.66406Q17.0605 5.66406 18.96 5.01465Q20.8594 4.36523 22.4512 3.19336Q24.043 2.02148 25.2197 0.429688Q26.3965-1.16211 27.0459-3.06641Q27.6953-4.9707 27.6953-7.05078Q27.6953-9.14062 27.0459-11.04Q26.3965-12.9395 25.2197-14.5312Q24.043-16.123 22.4512-17.2998Q20.8594-18.4766 18.9551-19.126Q17.0508-19.7754 14.9609-19.7754Q12.8711-19.7754 10.9717-19.126Q9.07227-18.4766 7.48535-17.2998Q5.89844-16.123 4.72168-14.5312Q3.54492-12.9395 2.90039-11.04Q2.25586-9.14062 2.25586-7.05078Q2.25586-4.9707 2.90527-3.06641Q3.55469-1.16211 4.72656 0.429688Q5.89844 2.02148 7.49023 3.19336Q9.08203 4.36523 10.9814 5.01465Q12.8809 5.66406 14.9707 5.66406ZM14.9707 3.84766Q13.1641 3.84766 11.5283 3.2959Q9.89258 2.74414 8.53516 1.74805Q7.17773 0.751953 6.17676-0.610352Q5.17578-1.97266 4.62891-3.6084Q4.08203-5.24414 4.08203-7.05078Q4.08203-8.86719 4.62891-10.5029Q5.17578-12.1387 6.17188-13.501Q7.16797-14.8633 8.52539-15.8594Q9.88281-16.8555 11.5186-17.4023Q13.1543-17.9492 14.9609-17.9492Q16.7773-17.9492 18.4131-17.4023Q20.0488-16.8555 21.4111-15.8594Q22.7734-14.8633 23.7695-13.501Q24.7656-12.1387 25.3174-10.5029Q25.8691-8.86719 25.8691-7.05078Q25.8789-5.24414 25.332-3.6084Q24.7852-1.97266 23.7842-0.610352Q22.7832 0.751953 21.4209 1.74805Q20.0586 2.74414 18.4229 3.2959Q16.7871 3.84766 14.9707 3.84766ZM9.45312-7.04102Q9.45312-6.66016 9.71191-6.41113Q9.9707-6.16211 10.3711-6.16211L14.0625-6.16211L14.0625-2.46094Q14.0625-2.06055 14.3115-1.80664Q14.5605-1.55273 14.9414-1.55273Q15.3516-1.55273 15.6055-1.80664Q15.8594-2.06055 15.8594-2.46094L15.8594-6.16211L19.5605-6.16211Q19.9609-6.16211 20.2148-6.41113Q20.4688-6.66016 20.4688-7.04102Q20.4688-7.45117 20.2148-7.70508Q19.9609-7.95898 19.5605-7.95898L15.8594-7.95898L15.8594-11.6504Q15.8594-12.0605 15.6055-12.3145Q15.3516-12.5684 14.9414-12.5684Q14.5605-12.5684 14.3115-12.3096Q14.0625-12.0508 14.0625-11.6504L14.0625-7.95898L10.3711-7.95898Q9.96094-7.95898 9.70703-7.70508Q9.45312-7.45117 9.45312-7.04102Z"/>
  </g>
  <text style="stroke:none;fill:black;font-family:sans-serif;font-size:13;font-weight:bold;" transform="matrix(1 0 0 1 263 1953)">Design Variations</text>
  <text style="stroke:none;fill:black;font-family:sans-serif;font-size:13;" transform="matrix(1 0 0 1 263 1971)">Symbols are supported in up to nine weights and three scales.</text>
  <text style="stroke:none;fill:black;font-family:sans-serif;font-size:13;" transform="matrix(1 0 0 1 263 1989)">For optimal layout with text and other symbols, vertically align</text>
  <text style="stroke:none;fill:black;font-family:sans-serif;font-size:13;" transform="matrix(1 0 0 1 263 2007)">symbols with the adjacent text.</text>
  <line style="fill:none;stroke:#00AEEF;stroke-width:0.5;opacity:1.0;" x1="776" x2="776" y1="1919" y2="1933"/>
  <g transform="matrix(1 0 0 1 776 1933)">
   <path d="M3.31055 0.15625Q3.70117 0.15625 3.91602-0.00976562Q4.13086-0.175781 4.26758-0.585938L5.52734-4.0332L11.2891-4.0332L12.5488-0.585938Q12.6855-0.175781 12.9004-0.00976562Q13.1152 0.15625 13.4961 0.15625Q13.8867 0.15625 14.1162-0.0585938Q14.3457-0.273438 14.3457-0.644531Q14.3457-0.869141 14.2383-1.17188L9.6582-13.3691Q9.48242-13.8184 9.17969-14.043Q8.87695-14.2676 8.4082-14.2676Q7.5-14.2676 7.17773-13.3789L2.59766-1.16211Q2.49023-0.859375 2.49023-0.634766Q2.49023-0.263672 2.70996-0.0537109Q2.92969 0.15625 3.31055 0.15625ZM6.00586-5.51758L8.37891-12.0898L8.42773-12.0898L10.8008-5.51758Z"/>
  </g>
  <line style="fill:none;stroke:#00AEEF;stroke-width:0.5;opacity:1.0;" x1="793.197" x2="793.197" y1="1919" y2="1933"/>
  <text style="stroke:none;fill:black;font-family:sans-serif;font-size:13;font-weight:bold;" transform="matrix(1 0 0 1 776 1953)">Margins</text>
  <text style="stroke:none;fill:black;font-family:sans-serif;font-size:13;" transform="matrix(1 0 0 1 776 1971)">Leading and trailing margins on the left and right side of each symbol</text>
  <text style="stroke:none;fill:black;font-family:sans-serif;font-size:13;" transform="matrix(1 0 0 1 776 1989)">can be adjusted by modifying the x-location of the margin guidelines.</text>
  <text style="stroke:none;fill:black;font-family:sans-serif;font-size:13;" transform="matrix(1 0 0 1 776 2007)">Modifications are automatically applied proportionally to all</text>
  <text style="stroke:none;fill:black;font-family:sans-serif;font-size:13;" transform="matrix(1 0 0 1 776 2025)">scales and weights.</text>
  <g transform="matrix(1 0 0 1 1289 1933)">
   <path d="M2.8418 1.86523L4.54102 3.57422Q5.18555 4.22852 5.90332 4.17969Q6.62109 4.13086 7.31445 3.35938L18.0078-8.42773L17.041-9.4043L6.42578 2.27539Q6.16211 2.57812 5.89355 2.61719Q5.625 2.65625 5.27344 2.30469L4.10156 1.14258Q3.75 0.791016 3.79395 0.522461Q3.83789 0.253906 4.14062-0.0195312L15.6152-10.8203L14.6387-11.7871L3.04688-0.898438Q2.30469-0.214844 2.25098 0.498047Q2.19727 1.21094 2.8418 1.86523ZM9.25781-16.3281Q8.94531-16.0254 8.90625-15.6348Q8.86719-15.2441 9.04297-14.9512Q9.21875-14.6777 9.55566-14.541Q9.89258-14.4043 10.3809-14.5215Q11.4746-14.7754 12.5977-14.7314Q13.7207-14.6875 14.7949-13.9844L14.209-12.5293Q13.9551-11.9043 14.0674-11.4404Q14.1797-10.9766 14.5801-10.5664L16.875-8.25195Q17.2363-7.88086 17.5781-7.82227Q17.9199-7.76367 18.3398-7.8418L19.4043-8.03711L20.0684-7.36328L20.0293-6.80664Q20-6.43555 20.1221-6.12305Q20.2441-5.81055 20.6055-5.44922L21.3672-4.70703Q21.7285-4.3457 22.1533-4.33105Q22.5781-4.31641 22.9297-4.66797L25.8398-7.58789Q26.1914-7.93945 26.1816-8.35449Q26.1719-8.76953 25.8105-9.13086L25.0391-9.89258Q24.6875-10.2539 24.3799-10.3857Q24.0723-10.5176 23.7109-10.4883L23.1348-10.4395L22.4902-11.0742L22.7344-12.1973Q22.832-12.6172 22.6953-12.9834Q22.5586-13.3496 22.1191-13.7891L19.9219-15.9766Q18.6719-17.2168 17.2607-17.8369Q15.8496-18.457 14.4189-18.4814Q12.9883-18.5059 11.665-17.959Q10.3418-17.4121 9.25781-16.3281ZM10.752-15.957Q11.6602-16.6211 12.7002-16.9043Q13.7402-17.1875 14.8047-17.085Q15.8691-16.9824 16.8701-16.5137Q17.8711-16.0449 18.7012-15.2051L21.1328-12.793Q21.3086-12.6172 21.3525-12.4512Q21.3965-12.2852 21.3379-12.0312L21.0156-10.5469L22.5195-9.0625L23.5059-9.12109Q23.6914-9.13086 23.7891-9.09668Q23.8867-9.0625 24.0332-8.91602L24.6094-8.33984L22.168-5.89844L21.5918-6.47461Q21.4453-6.62109 21.4062-6.71875Q21.3672-6.81641 21.377-7.01172L21.4453-7.98828L19.9512-9.47266L18.4277-9.21875Q18.1836-9.16992 18.042-9.2041Q17.9004-9.23828 17.7148-9.41406L15.7129-11.416Q15.5176-11.5918 15.4932-11.7529Q15.4688-11.9141 15.5859-12.1875L16.4648-14.2773Q15.293-15.3711 13.8281-15.791Q12.3633-16.2109 10.8398-15.7617Q10.7227-15.7324 10.6885-15.8057Q10.6543-15.8789 10.752-15.957Z"/>
  </g>
  <text style="stroke:none;fill:black;font-family:sans-serif;font-size:13;font-weight:bold;" transform="matrix(1 0 0 1 1289 1953)">Exporting</text>
  <text style="stroke:none;fill:black;font-family:sans-serif;font-size:13;" transform="matrix(1 0 0 1 1289 1971)">Symbols should be outlined when exporting to ensure the</text>
  <text style="stroke:none;fill:black;font-family:sans-serif;font-size:13;" transform="matrix(1 0 0 1 1289 1989)">design is preserved when submitting to Xcode.</text>
  <text id="template-version" style="stroke:none;fill:black;font-family:sans-serif;font-size:13;text-anchor:end;" transform="matrix(1 0 0 1 3036 1933)">Template v.3.0</text>
  <text style="stroke:none;fill:black;font-family:sans-serif;font-size:13;text-anchor:end;" transform="matrix(1 0 0 1 3036 1951)">Requires Xcode 13 or greater</text>
  <text id="descriptive-name" style="stroke:none;fill:black;font-family:sans-serif;font-size:13;text-anchor:end;" transform="matrix(1 0 0 1 3036 1969)">Generated from logo.appstore.square.fill</text>
  <text style="stroke:none;fill:black;font-family:sans-serif;font-size:13;text-anchor:end;" transform="matrix(1 0 0 1 3036 1987)">Typeset at 100 points</text>
  <text style="stroke:none;fill:black;font-family:sans-serif;font-size:13;" transform="matrix(1 0 0 1 263 726)">Small</text>
  <text style="stroke:none;fill:black;font-family:sans-serif;font-size:13;" transform="matrix(1 0 0 1 263 1156)">Medium</text>
  <text style="stroke:none;fill:black;font-family:sans-serif;font-size:13;" transform="matrix(1 0 0 1 263 1586)">Large</text>
 </g>
 <g id="Guides">
  <g id="H-reference" style="fill:#27AAE1;stroke:none;" transform="matrix(1 0 0 1 339 696)">
   <path d="M0.976562 0L3.66211 0L29.3457-67.1387L30.0293-67.1387L30.0293-70.459L28.125-70.459ZM11.6699-24.4629L46.9727-24.4629L46.2402-26.709L12.4512-26.709ZM55.127 0L57.7637 0L30.6152-70.459L29.4434-70.459L29.4434-67.1387Z"/>
  </g>
  <line id="Baseline-S" style="fill:none;stroke:#27AAE1;opacity:1;stroke-width:0.5;" x1="263" x2="3036" y1="696" y2="696"/>
  <line id="Capline-S" style="fill:none;stroke:#27AAE1;opacity:1;stroke-width:0.5;" x1="263" x2="3036" y1="625.541" y2="625.541"/>
  <g id="H-reference" style="fill:#27AAE1;stroke:none;" transform="matrix(1 0 0 1 339 1126)">
   <path d="M0.976562 0L3.66211 0L29.3457-67.1387L30.0293-67.1387L30.0293-70.459L28.125-70.459ZM11.6699-24.4629L46.9727-24.4629L46.2402-26.709L12.4512-26.709ZM55.127 0L57.7637 0L30.6152-70.459L29.4434-70.459L29.4434-67.1387Z"/>
  </g>
  <line id="Baseline-M" style="fill:none;stroke:#27AAE1;opacity:1;stroke-width:0.5;" x1="263" x2="3036" y1="1126" y2="1126"/>
  <line id="Capline-M" style="fill:none;stroke:#27AAE1;opacity:1;stroke-width:0.5;" x1="263" x2="3036" y1="1055.54" y2="1055.54"/>
  <g id="H-reference" style="fill:#27AAE1;stroke:none;" transform="matrix(1 0 0 1 339 1556)">
   <path d="M0.976562 0L3.66211 0L29.3457-67.1387L30.0293-67.1387L30.0293-70.459L28.125-70.459ZM11.6699-24.4629L46.9727-24.4629L46.2402-26.709L12.4512-26.709ZM55.127 0L57.7637 0L30.6152-70.459L29.4434-70.459L29.4434-67.1387Z"/>
  </g>
  <line id="Baseline-L" style="fill:none;stroke:#27AAE1;opacity:1;stroke-width:0.5;" x1="263" x2="3036" y1="1556" y2="1556"/>
  <line id="Capline-L" style="fill:none;stroke:#27AAE1;opacity:1;stroke-width:0.5;" x1="263" x2="3036" y1="1485.54" y2="1485.54"/>
  <line id="left-margin-Regular-M" style="fill:none;stroke:#00AEEF;stroke-width:0.5;opacity:1.0;" x1="1392.12" x2="1392.12" y1="1030.73" y2="1150.14"/>
  <line id="right-margin-Regular-M" style="fill:none;stroke:#00AEEF;stroke-width:0.5;opacity:1.0;" x1="1507.57" x2="1507.57" y1="1030.73" y2="1150.14"/>
 </g>
 <g id="Symbols">
  <g id="Black-L" transform="matrix(1 0 0 1 2855.3 1556)">
   <path class="multicolor-0:systemBlueColor hierarchical-0:secondary SFSymbolsPreview007AFF" d="M133.483-90.1577C129.317-94.3236 123.509-96.3268 115.898-96.3268L40.2586-96.3268C32.6896-96.3268 26.882-94.3262 22.7162-90.1604C18.5503-85.9945 16.5497-80.2294 16.5497-72.6631L16.5497 3.146C16.5497 10.7149 18.5503 16.5225 22.7162 20.6459C26.882 24.8118 32.6896 26.8124 40.2586 26.8124L115.898 26.8124C123.509 26.8124 129.317 24.8092 133.483 20.6433C137.649 16.4775 139.649 10.7123 139.649 3.146L139.649-72.6631C139.649-80.2267 137.649-86.0343 133.483-90.1577Z"/>
   <path class="multicolor-0:systemBlueColor hierarchical-1:primary SFSymbolsPreviewFFFFFF" d="M57.4907-7.23537C56.3378-5.25897 53.7026-4.43547 51.7262-5.58837C49.7498-6.74127 48.9263-9.37647 50.0792-11.3529L53.2085-16.6233C56.6672-17.6115 59.4671-16.9527 61.6082-14.1528L57.4907-7.23537ZM87.0144-18.6448L48.3099-18.6448C46.0041-18.6448 44.0277-20.6212 44.0277-22.927C44.0277-25.2328 46.0041-27.2092 48.3099-27.2092L59.1801-27.2092L73.0149-51.2554L68.7327-58.8316C67.5798-60.808 68.2386-63.4432 70.3797-64.5961C72.3561-65.749 74.9913-65.0902 76.1442-62.9491L77.9559-59.6551L79.9323-62.9491C81.0852-64.9255 83.7204-65.749 85.6968-64.5961C87.6732-63.4432 88.4967-60.808 87.3438-58.8316L69.0621-27.2092L82.2381-27.2092C86.4779-27.2065 88.9484-22.2231 87.0144-18.6448ZM107.889-18.6421L101.795-18.6421L105.912-11.3953C107.065-9.41892 106.407-6.78372 104.265-5.63082C102.289-4.47792 99.6539-5.13672 98.501-7.27782C91.5836-19.4656 86.3132-28.5241 82.6898-34.618C79.0664-40.7119 81.7016-46.9705 84.1721-49.1116C86.972-44.3353 91.0895-37.0885 96.6893-27.3712L107.724-27.3712C110.03-27.3712 112.006-25.3948 112.006-23.089C112.171-20.5761 110.237-18.6421 107.889-18.6421Z"/>
  </g>
  <g id="Heavy-L" transform="matrix(1 0 0 1 2559.5 1556)">
   <path class="multicolor-0:systemBlueColor hierarchical-0:secondary SFSymbolsPreview007AFF" d="M131.966-89.5602C128.009-93.5178 122.429-95.4266 115.074-95.4266L39.225-95.4266C31.9314-95.4266 26.3516-93.5301 22.394-89.5725C18.4364-85.615 16.54-80.0961 16.54-72.8149L16.54 3.27837C16.54 10.5719 18.4364 16.1518 22.394 20.0484C26.3516 24.006 31.9314 25.9024 39.225 25.9024L115.074 25.9024C122.429 25.9024 128.009 23.9936 131.966 20.036C135.924 16.0784 137.82 10.5595 137.82 3.27837L137.82-72.8149C137.82-80.0837 135.924-85.6636 131.966-89.5602Z"/>
   <path class="multicolor-0:systemBlueColor hierarchical-1:primary SFSymbolsPreviewFFFFFF" d="M56.5622-7.12245C55.4093-5.14605 52.7741-4.32255 50.7977-5.47545C48.8213-6.62835 47.9978-9.26355 49.1507-11.2399L52.28-16.5103C55.7387-17.4985 58.5386-16.8397 60.6797-14.0398L56.5622-7.12245ZM86.1045-18.5601L47.4-18.5601C45.0942-18.5601 43.1178-20.5365 43.1178-22.8423C43.1178-25.1481 45.0942-27.1245 47.4-27.1245L58.2702-27.1245L72.105-51.1707L67.8228-58.7469C66.6699-60.7233 67.3287-63.3585 69.4698-64.5114C71.4462-65.6643 74.0814-65.0055 75.2343-62.8644L77.046-59.5704L79.0224-62.8644C80.1753-64.8408 82.8105-65.6643 84.7869-64.5114C86.7633-63.3585 87.5868-60.7233 86.4339-58.7469L68.1522-27.1245L81.3282-27.1245C85.5494-27.1121 88.0199-22.1101 86.1045-18.5601ZM106.96-18.5477L100.867-18.5477L104.984-11.3009C106.137-9.3245 105.478-6.6893 103.337-5.5364C101.361-4.3835 98.7254-5.0423 97.5725-7.1834C90.6551-19.3712 85.3847-28.4297 81.7613-34.5236C78.1379-40.6175 80.7731-46.8761 83.2436-49.0172C86.0435-44.2409 90.161-36.9941 95.7608-27.2768L106.796-27.2768C109.102-27.2768 111.078-25.3004 111.078-22.9946C111.243-20.4631 109.327-18.5477 106.96-18.5477Z"/>
  </g>
  <g id="Bold-L" transform="matrix(1 0 0 1 2263.93 1556)">
   <path class="multicolor-0:systemBlueColor hierarchical-0:secondary SFSymbolsPreview007AFF" d="M130.07-88.8033C126.369-92.5043 121.079-94.3016 114.065-94.3016L37.9214-94.3016C30.9831-94.3016 25.6934-92.5335 21.9924-88.8324C18.2914-85.1314 16.5232-79.9174 16.5232-73.0083L16.5232 3.43824C16.5232 10.3765 18.2914 15.6663 21.9924 19.2915C25.6934 22.9925 30.9831 24.7607 37.9214 24.7607L114.065 24.7607C121.079 24.7607 126.369 22.9634 130.07 19.2624C133.771 15.5614 135.539 10.3474 135.539 3.43824L135.539-73.0083C135.539-79.8883 133.771-85.1781 130.07-88.8033Z"/>
   <path class="multicolor-0:systemBlueColor hierarchical-1:primary SFSymbolsPreviewFFFFFF" d="M55.4057-6.99613C54.2528-5.01973 51.6176-4.19623 49.6412-5.34913C47.6648-6.50203 46.8413-9.13723 47.9942-11.1136L51.1235-16.384C54.5822-17.3722 57.3821-16.7134 59.5232-13.9135L55.4057-6.99613ZM84.9627-18.4653L46.2582-18.4653C43.9524-18.4653 41.976-20.4417 41.976-22.7475C41.976-25.0533 43.9524-27.0297 46.2582-27.0297L57.1284-27.0297L70.9632-51.0759L66.681-58.6521C65.5281-60.6285 66.1869-63.2637 68.328-64.4166C70.3044-65.5695 72.9396-64.9107 74.0925-62.7696L75.9042-59.4756L77.8806-62.7696C79.0335-64.746 81.6687-65.5695 83.6451-64.4166C85.6215-63.2637 86.445-60.6285 85.2921-58.6521L67.0104-27.0297L80.1864-27.0297C84.3929-27.0006 86.8634-21.9838 84.9627-18.4653ZM105.804-18.4362L99.71-18.4362L103.827-11.1894C104.98-9.21299 104.322-6.57779 102.18-5.42489C100.204-4.27199 97.5689-4.93079 96.416-7.07189C89.4986-19.2597 84.2282-28.3182 80.6048-34.4121C76.9814-40.506 79.6166-46.7646 82.0871-48.9057C84.887-44.1294 89.0045-36.8826 94.6043-27.1653L105.639-27.1653C107.945-27.1653 109.921-25.1889 109.921-22.8831C110.086-20.3368 108.185-18.4362 105.804-18.4362Z"/>
  </g>
  <g id="Semibold-L" transform="matrix(1 0 0 1 1968.01 1556)">
   <path class="multicolor-0:systemBlueColor hierarchical-0:secondary SFSymbolsPreview007AFF" d="M128.762-88.2815C125.238-91.8057 120.148-93.5261 113.369-93.5261L37.0227-93.5261C30.3294-93.5261 25.2396-91.8464 21.7155-88.3222C18.1914-84.7981 16.5117-79.7943 16.5117-73.1416L16.5117 3.54845C16.5117 10.2418 18.1914 15.3316 21.7155 18.7697C25.2396 22.2939 30.3294 23.9736 37.0227 23.9736L113.369 23.9736C120.148 23.9736 125.238 22.2532 128.762 18.729C132.286 15.2049 133.966 10.2011 133.966 3.54845L133.966-73.1416C133.966-79.7536 132.286-84.8434 128.762-88.2815Z"/>
   <path class="multicolor-0:systemBlueColor hierarchical-1:primary SFSymbolsPreviewFFFFFF" d="M54.6084-6.90905C53.4555-4.93265 50.8203-4.10915 48.8439-5.26205C46.8675-6.41495 46.044-9.05015 47.1969-11.0266L50.3262-16.297C53.7849-17.2852 56.5848-16.6264 58.7259-13.8265L54.6084-6.90905ZM84.1756-18.4L45.4711-18.4C43.1653-18.4 41.1889-20.3764 41.1889-22.6822C41.1889-24.988 43.1653-26.9644 45.4711-26.9644L56.3413-26.9644L70.1761-51.0106L65.8939-58.5868C64.741-60.5632 65.3998-63.1984 67.5409-64.3513C69.5173-65.5042 72.1525-64.8454 73.3054-62.7043L75.1171-59.4103L77.0935-62.7043C78.2464-64.6807 80.8816-65.5042 82.858-64.3513C84.8344-63.1984 85.6579-60.5632 84.505-58.5868L66.2233-26.9644L79.3993-26.9644C83.5956-26.9237 86.0661-21.8968 84.1756-18.4ZM105.007-18.3593L98.9127-18.3593L103.03-11.1125C104.183-9.13612 103.524-6.50092 101.383-5.34802C99.4068-4.19512 96.7716-4.85392 95.6187-6.99502C88.7013-19.1828 83.4309-28.2413 79.8075-34.3352C76.1841-40.4291 78.8193-46.6877 81.2898-48.8288C84.0897-44.0525 88.2072-36.8057 93.807-27.0884L104.842-27.0884C107.148-27.0884 109.124-25.112 109.124-22.8062C109.289-20.2498 107.398-18.3593 105.007-18.3593Z"/>
  </g>
  <g id="Medium-L" transform="matrix(1 0 0 1 1671.89 1556)">
   <path class="multicolor-0:systemBlueColor hierarchical-0:secondary SFSymbolsPreview007AFF" d="M127.771-87.8859C124.381-91.2759 119.443-92.938 112.841-92.938L36.3413-92.938C29.8337-92.938 24.8956-91.3254 21.5056-87.9354C18.1155-84.5453 16.5029-79.701 16.5029-73.2427L16.5029 3.63201C16.5029 10.1397 18.1155 15.0778 21.5056 18.3741C24.8956 21.7641 29.8337 23.3768 36.3413 23.3768L112.841 23.3768C119.443 23.3768 124.381 21.7146 127.771 18.3246C131.161 14.9346 132.773 10.0902 132.773 3.63201L132.773-73.2427C132.773-79.6515 131.161-84.5896 127.771-87.8859Z"/>
   <path class="multicolor-0:systemBlueColor hierarchical-1:primary SFSymbolsPreviewFFFFFF" d="M54.0038-6.84302C52.8509-4.86662 50.2157-4.04312 48.2393-5.19602C46.2629-6.34892 45.4394-8.98412 46.5923-10.9605L49.7216-16.2309C53.1803-17.2191 55.9802-16.5603 58.1213-13.7604L54.0038-6.84302ZM83.5788-18.3505L44.8743-18.3505C42.5685-18.3505 40.5921-20.3269 40.5921-22.6327C40.5921-24.9385 42.5685-26.9149 44.8743-26.9149L55.7445-26.9149L69.5793-50.9611L65.2971-58.5373C64.1442-60.5137 64.803-63.1489 66.9441-64.3018C68.9205-65.4547 71.5557-64.7959 72.7086-62.6548L74.5203-59.3608L76.4967-62.6548C77.6496-64.6312 80.2848-65.4547 82.2612-64.3018C84.2376-63.1489 85.0611-60.5137 83.9082-58.5373L65.6265-26.9149L78.8025-26.9149C82.991-26.8654 85.4615-21.8307 83.5788-18.3505ZM104.402-18.301L98.3081-18.301L102.426-11.0542C103.579-9.07783 102.92-6.44263 100.779-5.28973C98.8022-4.13683 96.167-4.79563 95.0141-6.93673C88.0967-19.1245 82.8263-28.183 79.2029-34.2769C75.5795-40.3708 78.2147-46.6294 80.6852-48.7705C83.4851-43.9942 87.6026-36.7474 93.2024-27.0301L104.237-27.0301C106.543-27.0301 108.52-25.0537 108.52-22.7479C108.684-20.1837 106.802-18.301 104.402-18.301Z"/>
  </g>
  <g id="Regular-L" transform="matrix(1 0 0 1 1375.96 1556)">
   <path class="multicolor-0:systemBlueColor hierarchical-0:secondary SFSymbolsPreview007AFF" d="M126.478-87.3698C123.263-90.5849 118.522-92.171 112.153-92.171L35.4525-92.171C29.1871-92.171 24.4468-90.6458 21.2317-87.4307C18.0166-84.2157 16.4914-79.5792 16.4914-73.3746L16.4914 3.74101C16.4914 10.0065 18.0166 14.7467 21.2317 17.858C24.4468 21.0731 29.1871 22.5983 35.4525 22.5983L112.153 22.5983C118.522 22.5983 123.263 21.0122 126.478 17.7971C129.693 14.582 131.218 9.94557 131.218 3.74101L131.218-73.3746C131.218-79.5183 129.693-84.2585 126.478-87.3698Z"/>
   <path class="multicolor-0:systemBlueColor hierarchical-1:primary SFSymbolsPreviewFFFFFF" d="M53.2153-6.7569C52.0624-4.7805 49.4272-3.957 47.4508-5.1099C45.4744-6.2628 44.6509-8.898 45.8038-10.8744L48.9331-16.1448C52.3918-17.133 55.1917-16.4742 57.3328-13.6743L53.2153-6.7569ZM82.8004-18.2859L44.0959-18.2859C41.7901-18.2859 39.8137-20.2623 39.8137-22.5681C39.8137-24.8739 41.7901-26.8503 44.0959-26.8503L54.9661-26.8503L68.8009-50.8965L64.5187-58.4727C63.3658-60.4491 64.0246-63.0843 66.1657-64.2372C68.1421-65.3901 70.7773-64.7313 71.9302-62.5902L73.7419-59.2962L75.7183-62.5902C76.8712-64.5666 79.5064-65.3901 81.4828-64.2372C83.4592-63.0843 84.2827-60.4491 83.1298-58.4727L64.8481-26.8503L78.0241-26.8503C82.2025-26.7894 84.673-21.7446 82.8004-18.2859ZM103.613-18.225L97.5196-18.225L101.637-10.9782C102.79-9.0018 102.131-6.3666 99.9901-5.2137C98.0137-4.0608 95.3785-4.7196 94.2256-6.8607C87.3082-19.0485 82.0378-28.107 78.4144-34.2009C74.791-40.2948 77.4262-46.5534 79.8967-48.6945C82.6966-43.9182 86.8141-36.6714 92.4139-26.9541L103.449-26.9541C105.755-26.9541 107.731-24.9777 107.731-22.6719C107.896-20.0976 106.023-18.225 103.613-18.225Z"/>
  </g>
  <g id="Light-L" transform="matrix(1 0 0 1 1080.09 1556)">
   <path class="multicolor-0:systemBlueColor hierarchical-0:secondary SFSymbolsPreview007AFF" d="M125.049-86.7394C122.002-89.7864 117.514-91.3304 111.523-91.3304L34.4018-91.3304C28.4726-91.3304 23.9845-89.8893 20.9375-86.8423C17.8905-83.7954 16.4494-79.369 16.4494-73.5427L16.4494 3.82507C16.4494 9.7543 17.8905 14.2424 20.9375 17.2276C23.9845 20.2746 28.4726 21.7157 34.4018 21.7157L111.523 21.7157C117.514 21.7157 122.002 20.1716 125.049 17.1247C128.096 14.0777 129.537 9.65136 129.537 3.82507L129.537-73.5427C129.537-79.2661 128.096-83.7542 125.049-86.7394Z"/>
   <path class="multicolor-0:systemBlueColor hierarchical-1:primary SFSymbolsPreviewFFFFFF" d="M52.3747-6.7569C51.2218-4.7805 48.5866-3.957 46.6102-5.1099C44.6338-6.2628 43.8103-8.898 44.9632-10.8744L48.0925-16.1448C51.5512-17.133 54.3511-16.4742 56.4922-13.6743L52.3747-6.7569ZM81.9177-18.2859L43.2132-18.2859C40.9074-18.2859 38.931-20.2623 38.931-22.5681C38.931-24.8739 40.9074-26.8503 43.2132-26.8503L54.0834-26.8503L67.9182-50.8965L63.636-58.4727C62.4831-60.4491 63.1419-63.0843 65.283-64.2372C67.2594-65.3901 69.8946-64.7313 71.0475-62.5902L72.8592-59.2962L74.8356-62.5902C75.9885-64.5666 78.6237-65.3901 80.6001-64.2372C82.5765-63.0843 83.4-60.4491 82.2471-58.4727L63.9654-26.8503L77.1414-26.8503C81.3619-26.7474 83.8324-21.7446 81.9177-18.2859ZM102.773-18.183L96.679-18.183L100.796-10.9362C101.949-8.95977 101.291-6.32457 99.1495-5.17167C97.1731-4.01877 94.5379-4.67757 93.385-6.81867C86.4676-19.0065 81.1972-28.065 77.5738-34.1589C73.9504-40.2528 76.5856-46.5114 79.0561-48.6525C81.856-43.8762 85.9735-36.6294 91.5733-26.9121L102.608-26.9121C104.914-26.9121 106.89-24.9357 106.89-22.6299C107.055-20.0976 105.14-18.183 102.773-18.183Z"/>
  </g>
  <g id="Thin-L" transform="matrix(1 0 0 1 784.489 1556)">
   <path class="multicolor-0:systemBlueColor hierarchical-0:secondary SFSymbolsPreview007AFF" d="M123.159-85.9056C120.334-88.7302 116.179-90.2187 110.689-90.2187L33.0121-90.2187C27.5276-90.2187 23.373-88.8887 20.5484-86.0641C17.7238-83.2395 16.3938-79.0911 16.3938-73.7651L16.3938 3.93624C16.3938 9.42078 17.7238 13.5754 20.5484 16.3938C23.373 19.2184 27.5276 20.5484 33.0121 20.5484L110.689 20.5484C116.179 20.5484 120.334 19.0599 123.159 16.2353C125.983 13.4107 127.313 9.26226 127.313 3.93624L127.313-73.7651C127.313-78.9326 125.983-83.0872 123.159-85.9056Z"/>
   <path class="multicolor-0:systemBlueColor hierarchical-1:primary SFSymbolsPreviewFFFFFF" d="M51.2629-6.7569C50.11-4.7805 47.4748-3.957 45.4984-5.1099C43.522-6.2628 42.6985-8.898 43.8514-10.8744L46.9807-16.1448C50.4394-17.133 53.2393-16.4742 55.3804-13.6743L51.2629-6.7569ZM80.7504-18.2859L42.0459-18.2859C39.7401-18.2859 37.7637-20.2623 37.7637-22.5681C37.7637-24.8739 39.7401-26.8503 42.0459-26.8503L52.9161-26.8503L66.7509-50.8965L62.4687-58.4727C61.3158-60.4491 61.9746-63.0843 64.1157-64.2372C66.0921-65.3901 68.7273-64.7313 69.8802-62.5902L71.6919-59.2962L73.6683-62.5902C74.8212-64.5666 77.4564-65.3901 79.4328-64.2372C81.4092-63.0843 82.2327-60.4491 81.0798-58.4727L62.7981-26.8503L75.9741-26.8503C80.2501-26.6918 82.7206-21.7446 80.7504-18.2859ZM101.661-18.1274L95.5672-18.1274L99.6847-10.8806C100.838-8.90418 100.179-6.26898 98.0377-5.11608C96.0613-3.96318 93.4261-4.62198 92.2732-6.76308C85.3558-18.9509 80.0854-28.0094 76.462-34.1033C72.8386-40.1972 75.4738-46.4558 77.9443-48.5969C80.7442-43.8206 84.8617-36.5738 90.4615-26.8565L101.496-26.8565C103.802-26.8565 105.779-24.8801 105.779-22.5743C105.943-20.0976 103.973-18.1274 101.661-18.1274Z"/>
  </g>
  <g id="Ultralight-L" transform="matrix(1 0 0 1 488.348 1556)">
   <path class="multicolor-0:systemBlueColor hierarchical-0:secondary SFSymbolsPreview007AFF" d="M122.191-85.4785C119.48-88.1893 115.496-89.6493 110.262-89.6493L32.3004-89.6493C27.0436-89.6493 23.0598-88.3763 20.3491-85.6655C17.6384-82.9548 16.3654-78.9487 16.3654-73.879L16.3654 3.99318C16.3654 9.24995 17.6384 13.2337 20.3491 15.9667C23.0598 18.6775 27.0436 19.9505 32.3004 19.9505L110.262 19.9505C115.496 19.9505 119.48 18.4905 122.191 15.7797C124.901 13.069 126.174 9.06296 126.174 3.99318L126.174-73.879C126.174-78.7618 124.901-82.7455 122.191-85.4785Z"/>
   <path class="multicolor-0:systemBlueColor hierarchical-1:primary SFSymbolsPreviewFFFFFF" d="M50.6935-6.7569C49.5406-4.7805 46.9054-3.957 44.929-5.1099C42.9526-6.2628 42.1291-8.898 43.282-10.8744L46.4113-16.1448C49.87-17.133 52.6699-16.4742 54.811-13.6743L50.6935-6.7569ZM80.1525-18.2859L41.448-18.2859C39.1422-18.2859 37.1658-20.2623 37.1658-22.5681C37.1658-24.8739 39.1422-26.8503 41.448-26.8503L52.3182-26.8503L66.153-50.8965L61.8708-58.4727C60.7179-60.4491 61.3767-63.0843 63.5178-64.2372C65.4942-65.3901 68.1294-64.7313 69.2823-62.5902L71.094-59.2962L73.0704-62.5902C74.2233-64.5666 76.8585-65.3901 78.8349-64.2372C80.8113-63.0843 81.6348-60.4491 80.4819-58.4727L62.2002-26.8503L75.3762-26.8503C79.6807-26.6633 82.1512-21.7446 80.1525-18.2859ZM101.092-18.0989L94.9978-18.0989L99.1153-10.8521C100.268-8.87571 99.6094-6.24051 97.4683-5.08761C95.4919-3.93471 92.8567-4.59351 91.7038-6.73461C84.7864-18.9224 79.516-27.9809 75.8926-34.0748C72.2692-40.1687 74.9044-46.4273 77.3749-48.5684C80.1748-43.7921 84.2923-36.5453 89.8921-26.828L100.927-26.828C103.233-26.828 105.209-24.8516 105.209-22.5458C105.374-20.0976 103.375-18.0989 101.092-18.0989Z"/>
  </g>
  <g id="Black-M" transform="matrix(1 0 0 1 2872.22 1126)">
   <path class="multicolor-0:systemBlueColor hierarchical-0:secondary SFSymbolsPreview007AFF" d="M104.524-78.2175C101.141-81.6012 96.4796-83.2286 90.4132-83.2286L31.9359-83.2286C25.8808-83.2286 21.2199-81.6006 17.8362-78.2169C14.4525-74.8332 12.8244-70.1835 12.8244-64.1278L12.8244-5.60538C12.8244 0.44974 14.4525 5.11068 17.8362 8.48308C21.2199 11.8668 25.8808 13.4948 31.9359 13.4948L90.4132 13.4948C96.4796 13.4948 101.141 11.8674 104.524 8.48371C107.908 5.10001 109.536 0.450363 109.536-5.60538L109.536-64.1278C109.536-70.1841 107.908-74.8451 104.524-78.2175Z"/>
   <path class="multicolor-0:systemBlueColor hierarchical-1:primary SFSymbolsPreviewFFFFFF" d="M45.2245-13.6429C44.3313-12.1117 42.2897-11.4737 40.7585-12.3669C39.2273-13.2601 38.5893-15.3017 39.4825-16.8329L41.9069-20.9161C44.5865-21.6817 46.7557-21.1713 48.4145-19.0021L45.2245-13.6429ZM68.0762-22.458L38.0902-22.458C36.3038-22.458 34.7726-23.9892 34.7726-25.7756C34.7726-27.562 36.3038-29.0932 38.0902-29.0932L46.5118-29.0932L57.2302-47.7228L53.9126-53.5924C53.0194-55.1236 53.5298-57.1652 55.1886-58.0584C56.7198-58.9516 58.7614-58.4412 59.6546-56.7824L61.0582-54.2304L62.5894-56.7824C63.4826-58.3136 65.5242-58.9516 67.0554-58.0584C68.5866-57.1652 69.2246-55.1236 68.3314-53.5924L54.1678-29.0932L64.3758-29.0932C67.6821-29.0938 69.5961-25.2545 68.0762-22.458ZM84.2701-22.4586L79.5489-22.4586L82.7389-16.8442C83.6321-15.313 83.1217-13.2714 81.4629-12.3782C79.9317-11.485 77.8901-11.9954 76.9969-13.6542C71.6377-23.0966 67.5545-30.1146 64.7473-34.8358C61.9401-39.557 63.9817-44.4058 65.8957-46.0646C68.0649-42.3642 71.2549-36.7498 75.5933-29.2214L84.1425-29.2214C85.9289-29.2214 87.4601-27.6902 87.4601-25.9038C87.5877-23.9785 86.0678-22.4586 84.2701-22.4586Z"/>
  </g>
  <g id="Heavy-M" transform="matrix(1 0 0 1 2576.33 1126)">
   <path class="multicolor-0:systemBlueColor hierarchical-0:secondary SFSymbolsPreview007AFF" d="M103.174-77.6915C99.9781-80.8871 95.5165-82.4261 89.6664-82.4261L31.0225-82.4261C25.2056-82.4261 20.744-80.8921 17.5484-77.6965C14.3528-74.5009 12.8188-70.0726 12.8188-64.2607L12.8188-5.48373C12.8188 0.333168 14.3528 4.79475 17.5484 7.95708C20.744 11.1527 25.2056 12.6867 31.0225 12.6867L89.6664 12.6867C95.5165 12.6867 99.9781 11.1477 103.174 7.95208C106.369 4.75648 107.903 0.32816 107.903-5.48373L107.903-64.2607C107.903-70.0676 106.369-74.5291 103.174-77.6915Z"/>
   <path class="multicolor-0:systemBlueColor hierarchical-1:primary SFSymbolsPreviewFFFFFF" d="M44.3944-13.5325C43.5012-12.0013 41.4596-11.3633 39.9284-12.2565C38.3972-13.1497 37.7592-15.1913 38.6524-16.7225L41.0768-20.8057C43.7564-21.5713 45.9256-21.0609 47.5844-18.8917L44.3944-13.5325ZM67.2681-22.3752L37.2821-22.3752C35.4957-22.3752 33.9645-23.9064 33.9645-25.6928C33.9645-27.4792 35.4957-29.0104 37.2821-29.0104L45.7037-29.0104L56.4221-47.64L53.1045-53.5096C52.2113-55.0408 52.7217-57.0824 54.3805-57.9756C55.9117-58.8688 57.9533-58.3584 58.8465-56.6996L60.2501-54.1476L61.7813-56.6996C62.6745-58.2308 64.7161-58.8688 66.2473-57.9756C67.7785-57.0824 68.4165-55.0408 67.5233-53.5096L53.3597-29.0104L63.5677-29.0104C66.852-29.0054 68.766-25.1441 67.2681-22.3752ZM83.44-22.3702L78.7188-22.3702L81.9088-16.7558C82.802-15.2246 82.2916-13.183 80.6328-12.2898C79.1016-11.3966 77.06-11.907 76.1668-13.5658C70.8076-23.0082 66.7244-30.0262 63.9172-34.7474C61.11-39.4686 63.1516-44.3174 65.0656-45.9762C67.2348-42.2758 70.4248-36.6614 74.7632-29.133L83.3124-29.133C85.0988-29.133 86.63-27.6018 86.63-25.8154C86.7576-23.8681 85.2597-22.3702 83.44-22.3702Z"/>
  </g>
  <g id="Bold-M" transform="matrix(1 0 0 1 2280.53 1126)">
   <path class="multicolor-0:systemBlueColor hierarchical-0:secondary SFSymbolsPreview007AFF" d="M101.663-77.1031C98.6778-80.0883 94.4393-81.5283 88.831-81.5283L30.0006-81.5283C24.4502-81.5283 20.2116-80.0996 17.2265-77.1144C14.2413-74.1292 12.8125-69.9485 12.8125-64.4094L12.8125-5.34765C12.8125 0.202765 14.2413 4.44133 17.2265 7.36868C20.2116 10.3539 24.4502 11.7826 30.0006 11.7826L88.831 11.7826C94.4393 11.7826 98.6778 10.3425 101.663 7.35737C104.648 4.3722 106.077 0.191459 106.077-5.34765L106.077-64.4094C106.077-69.9372 104.648-74.1757 101.663-77.1031Z"/>
   <path class="multicolor-0:systemBlueColor hierarchical-1:primary SFSymbolsPreviewFFFFFF" d="M43.4658-13.4091C42.5726-11.8779 40.531-11.2399 38.9998-12.1331C37.4686-13.0263 36.8306-15.0679 37.7238-16.5991L40.1482-20.6823C42.8278-21.4479 44.997-20.9375 46.6558-18.7683L43.4658-13.4091ZM66.364-22.2826L36.378-22.2826C34.5916-22.2826 33.0604-23.8138 33.0604-25.6002C33.0604-27.3866 34.5916-28.9178 36.378-28.9178L44.7996-28.9178L55.518-47.5474L52.2004-53.417C51.3072-54.9482 51.8176-56.9898 53.4764-57.883C55.0076-58.7762 57.0492-58.2658 57.9424-56.607L59.346-54.055L60.8772-56.607C61.7704-58.1382 63.812-58.7762 65.3432-57.883C66.8744-56.9898 67.5124-54.9482 66.6192-53.417L52.4556-28.9178L62.6636-28.9178C65.9234-28.9065 67.8374-25.0207 66.364-22.2826ZM82.5114-22.2713L77.7902-22.2713L80.9802-16.6569C81.8734-15.1257 81.363-13.0841 79.7042-12.1909C78.173-11.2977 76.1314-11.8081 75.2382-13.4669C69.879-22.9093 65.7958-29.9273 62.9886-34.6485C60.1814-39.3697 62.223-44.2185 64.137-45.8773C66.3062-42.1769 69.4962-36.5625 73.8346-29.0341L82.3838-29.0341C84.1702-29.0341 85.7014-27.5029 85.7014-25.7165C85.829-23.7447 84.3556-22.2713 82.5114-22.2713Z"/>
  </g>
  <g id="Semibold-M" transform="matrix(1 0 0 1 1984.45 1126)">
   <path class="multicolor-0:systemBlueColor hierarchical-0:secondary SFSymbolsPreview007AFF" d="M100.622-76.6974C97.7814-79.5376 93.6966-80.9095 88.2551-80.9095L29.2962-80.9095C23.9295-80.9095 19.8446-79.5532 17.0045-76.7131C14.1644-73.873 12.8082-69.8629 12.8082-64.5119L12.8082-5.25384C12.8082 0.112865 14.1644 4.19769 17.0045 6.96303C19.8446 9.80315 23.9295 11.1594 29.2962 11.1594L88.2551 11.1594C93.6966 11.1594 97.7814 9.7875 100.622 6.94739C103.462 4.10727 104.818 0.0972173 104.818-5.25384L104.818-64.5119C104.818-69.8473 103.462-73.9321 100.622-76.6974Z"/>
   <path class="multicolor-0:systemBlueColor hierarchical-1:primary SFSymbolsPreviewFFFFFF" d="M42.8256-13.3239C41.9324-11.7927 39.8908-11.1547 38.3596-12.0479C36.8284-12.9411 36.1904-14.9827 37.0836-16.5139L39.508-20.5971C42.1876-21.3627 44.3568-20.8523 46.0156-18.6831L42.8256-13.3239ZM65.7408-22.2188L35.7548-22.2188C33.9684-22.2188 32.4372-23.75 32.4372-25.5364C32.4372-27.3228 33.9684-28.854 35.7548-28.854L44.1764-28.854L54.8948-47.4836L51.5772-53.3532C50.684-54.8844 51.1944-56.926 52.8532-57.8192C54.3844-58.7124 56.426-58.202 57.3192-56.5432L58.7228-53.9912L60.254-56.5432C61.1472-58.0744 63.1888-58.7124 64.72-57.8192C66.2512-56.926 66.8892-54.8844 65.996-53.3532L51.8324-28.854L62.0404-28.854C65.2832-28.8383 67.1972-24.9355 65.7408-22.2188ZM81.8712-22.2031L77.15-22.2031L80.34-16.5887C81.2332-15.0575 80.7228-13.0159 79.064-12.1227C77.5328-11.2295 75.4912-11.7399 74.598-13.3987C69.2388-22.8411 65.1556-29.8591 62.3484-34.5803C59.5412-39.3015 61.5828-44.1503 63.4968-45.8091C65.666-42.1087 68.856-36.4943 73.1944-28.9659L81.7436-28.9659C83.53-28.9659 85.0612-27.4347 85.0612-25.6483C85.1888-23.6595 83.7324-22.2031 81.8712-22.2031Z"/>
  </g>
  <g id="Medium-M" transform="matrix(1 0 0 1 1688.21 1126)">
   <path class="multicolor-0:systemBlueColor hierarchical-0:secondary SFSymbolsPreview007AFF" d="M99.8318-76.3899C97.1017-79.12 93.1335-80.4402 87.8184-80.4402L28.762-80.4402C23.5346-80.4402 19.5664-79.1389 16.8362-76.4088C14.1061-73.6787 12.8049-69.798 12.8049-64.5896L12.8049-5.18271C12.8049 0.0447002 14.1061 4.01294 16.8362 6.65546C19.5664 9.38558 23.5346 10.6868 28.762 10.6868L87.8184 10.6868C93.1335 10.6868 97.1017 9.36664 99.8318 6.63652C102.562 3.90639 103.863 0.0257596 103.863-5.18271L103.863-64.5896C103.863-69.7791 102.562-73.7473 99.8318-76.3899Z"/>
   <path class="multicolor-0:systemBlueColor hierarchical-1:primary SFSymbolsPreviewFFFFFF" d="M42.3402-13.2594C41.447-11.7282 39.4054-11.0902 37.8742-11.9834C36.343-12.8766 35.705-14.9182 36.5982-16.4494L39.0226-20.5326C41.7022-21.2982 43.8714-20.7878 45.5302-18.6186L42.3402-13.2594ZM65.2682-22.1703L35.2822-22.1703C33.4958-22.1703 31.9646-23.7015 31.9646-25.4879C31.9646-27.2743 33.4958-28.8055 35.2822-28.8055L43.7038-28.8055L54.4222-47.4351L51.1046-53.3047C50.2114-54.8359 50.7218-56.8775 52.3806-57.7707C53.9118-58.6639 55.9534-58.1535 56.8466-56.4947L58.2502-53.9427L59.7814-56.4947C60.6746-58.0259 62.7162-58.6639 64.2474-57.7707C65.7786-56.8775 66.4166-54.8359 65.5234-53.3047L51.3598-28.8055L61.5678-28.8055C64.7978-28.7866 66.7118-24.871 65.2682-22.1703ZM81.3858-22.1514L76.6646-22.1514L79.8546-16.537C80.7478-15.0058 80.2374-12.9642 78.5786-12.071C77.0474-11.1778 75.0058-11.6882 74.1126-13.347C68.7534-22.7894 64.6702-29.8074 61.863-34.5286C59.0558-39.2498 61.0974-44.0986 63.0114-45.7574C65.1806-42.057 68.3706-36.4426 72.709-28.9142L81.2582-28.9142C83.0446-28.9142 84.5758-27.383 84.5758-25.5966C84.7034-23.595 83.2598-22.1514 81.3858-22.1514Z"/>
  </g>
  <g id="Regular-M" transform="matrix(1 0 0 1 1392.12 1126)">
   <path class="multicolor-0:systemBlueColor hierarchical-0:secondary SFSymbolsPreview007AFF" d="M98.8018-75.9887C96.2151-78.5753 92.399-79.8281 87.2489-79.8281L28.0653-79.8281C23.0196-79.8281 19.2034-78.5986 16.6168-76.0119C14.0301-73.4252 12.8006-69.7134 12.8006-64.6909L12.8006-5.08993C12.8006-0.0442109 14.0301 3.77198 16.6168 6.25427C19.2034 8.84093 23.0196 10.0705 28.0653 10.0705L87.2489 10.0705C92.399 10.0705 96.2151 8.8177 98.8018 6.23104C101.388 3.64438 102.618-0.0674461 102.618-5.08993L102.618-64.6909C102.618-69.6902 101.388-73.5064 98.8018-75.9887Z"/>
   <path class="multicolor-0:systemBlueColor hierarchical-1:primary SFSymbolsPreviewFFFFFF" d="M41.7071-13.1752C40.8139-11.644 38.7723-11.006 37.2411-11.8992C35.7099-12.7924 35.0719-14.834 35.9651-16.3652L38.3895-20.4484C41.0691-21.214 43.2383-20.7036 44.8971-18.5344L41.7071-13.1752ZM64.6519-22.1072L34.6659-22.1072C32.8795-22.1072 31.3483-23.6384 31.3483-25.4248C31.3483-27.2112 32.8795-28.7424 34.6659-28.7424L43.0875-28.7424L53.8059-47.372L50.4883-53.2416C49.5951-54.7728 50.1055-56.8144 51.7643-57.7076C53.2955-58.6008 55.3371-58.0904 56.2303-56.4316L57.6339-53.8796L59.1651-56.4316C60.0583-57.9628 62.0999-58.6008 63.6311-57.7076C65.1623-56.8144 65.8003-54.7728 64.9071-53.2416L50.7435-28.7424L60.9515-28.7424C64.1647-28.7192 66.0787-24.7868 64.6519-22.1072ZM80.7527-22.084L76.0315-22.084L79.2215-16.4696C80.1147-14.9384 79.6043-12.8968 77.9455-12.0036C76.4143-11.1104 74.3727-11.6208 73.4795-13.2796C68.1203-22.722 64.0371-29.74 61.2299-34.4612C58.4227-39.1824 60.4643-44.0312 62.3783-45.69C64.5475-41.9896 67.7375-36.3752 72.0759-28.8468L80.6251-28.8468C82.4115-28.8468 83.9427-27.3156 83.9427-25.5292C84.0703-23.5108 82.6435-22.084 80.7527-22.084Z"/>
  </g>
  <g id="Light-M" transform="matrix(1 0 0 1 1096.17 1126)">
   <path class="multicolor-0:systemBlueColor hierarchical-0:secondary SFSymbolsPreview007AFF" d="M97.5206-75.4235C95.0847-77.8594 91.4946-79.0745 86.6837-79.0745L27.1233-79.0745C22.379-79.0745 18.7889-77.9203 16.353-75.4844C13.9171-73.0484 12.7629-69.525 12.7629-64.8417L12.7629-5.01457C12.7629-0.270298 13.9171 3.3198 16.353 5.68906C18.7889 8.12499 22.379 9.27916 27.1233 9.27916L86.6837 9.27916C91.4946 9.27916 95.0847 8.06407 97.5206 5.62814C99.9566 3.1922 101.111-0.331214 101.111-5.01457L101.111-64.8417C101.111-69.4641 99.9566-73.0542 97.5206-75.4235Z"/>
   <path class="multicolor-0:systemBlueColor hierarchical-1:primary SFSymbolsPreviewFFFFFF" d="M40.9535-13.1752C40.0603-11.644 38.0187-11.006 36.4875-11.8992C34.9563-12.7924 34.3183-14.834 35.2115-16.3652L37.6359-20.4484C40.3155-21.214 42.4847-20.7036 44.1435-18.5344L40.9535-13.1752ZM63.8606-22.1072L33.8746-22.1072C32.0882-22.1072 30.557-23.6384 30.557-25.4248C30.557-27.2112 32.0882-28.7424 33.8746-28.7424L42.2962-28.7424L53.0146-47.372L49.697-53.2416C48.8038-54.7728 49.3142-56.8144 50.973-57.7076C52.5042-58.6008 54.5458-58.0904 55.439-56.4316L56.8426-53.8796L58.3738-56.4316C59.267-57.9628 61.3086-58.6008 62.8398-57.7076C64.371-56.8144 65.009-54.7728 64.1158-53.2416L49.9522-28.7424L60.1602-28.7424C63.4111-28.6815 65.3251-24.7868 63.8606-22.1072ZM79.9991-22.0463L75.2779-22.0463L78.4679-16.4319C79.3611-14.9007 78.8507-12.8591 77.1919-11.9659C75.6607-11.0727 73.6191-11.5831 72.7259-13.2419C67.3667-22.6843 63.2835-29.7023 60.4763-34.4235C57.6691-39.1447 59.7107-43.9935 61.6247-45.6523C63.7939-41.9519 66.9839-36.3375 71.3223-28.8091L79.8715-28.8091C81.6579-28.8091 83.1891-27.2779 83.1891-25.4915C83.3167-23.5108 81.8522-22.0463 79.9991-22.0463Z"/>
  </g>
  <g id="Thin-M" transform="matrix(1 0 0 1 800.452 1126)">
   <path class="multicolor-0:systemBlueColor hierarchical-0:secondary SFSymbolsPreview007AFF" d="M95.8262-74.6759C93.5896-76.9125 90.2985-78.0777 85.9361-78.0777L25.8774-78.0777C21.5318-78.0777 18.2407-77.0233 16.0041-74.7867C13.7675-72.5501 12.713-69.2758 12.713-65.041L12.713-4.91489C12.713-0.569316 13.7675 2.72177 16.0041 4.94151C18.2407 7.1781 21.5318 8.23259 25.8774 8.23259L85.9361 8.23259C90.2985 8.23259 93.5896 7.06735 95.8262 4.83076C98.0628 2.59417 99.1173-0.680069 99.1173-4.91489L99.1173-65.041C99.1173-69.1651 98.0628-72.4562 95.8262-74.6759Z"/>
   <path class="multicolor-0:systemBlueColor hierarchical-1:primary SFSymbolsPreviewFFFFFF" d="M39.9567-13.1752C39.0635-11.644 37.0219-11.006 35.4907-11.8992C33.9595-12.7924 33.3215-14.834 34.2147-16.3652L36.6391-20.4484C39.3187-21.214 41.4879-20.7036 43.1467-18.5344L39.9567-13.1752ZM62.814-22.1072L32.828-22.1072C31.0416-22.1072 29.5104-23.6384 29.5104-25.4248C29.5104-27.2112 31.0416-28.7424 32.828-28.7424L41.2496-28.7424L51.968-47.372L48.6504-53.2416C47.7572-54.7728 48.2676-56.8144 49.9264-57.7076C51.4576-58.6008 53.4992-58.0904 54.3924-56.4316L55.796-53.8796L57.3272-56.4316C58.2204-57.9628 60.262-58.6008 61.7932-57.7076C63.3244-56.8144 63.9624-54.7728 63.0692-53.2416L48.9056-28.7424L59.1136-28.7424C62.4143-28.6316 64.3283-24.7868 62.814-22.1072ZM79.0023-21.9964L74.2811-21.9964L77.4711-16.382C78.3643-14.8508 77.8539-12.8092 76.1951-11.916C74.6639-11.0228 72.6223-11.5332 71.7291-13.192C66.3699-22.6344 62.2867-29.6524 59.4795-34.3736C56.6723-39.0948 58.7139-43.9436 60.6279-45.6024C62.7971-41.902 65.9871-36.2876 70.3255-28.7592L78.8747-28.7592C80.6611-28.7592 82.1923-27.228 82.1923-25.4416C82.3199-23.5108 80.8056-21.9964 79.0023-21.9964Z"/>
  </g>
  <g id="Ultralight-M" transform="matrix(1 0 0 1 504.251 1126)">
   <path class="multicolor-0:systemBlueColor hierarchical-0:secondary SFSymbolsPreview007AFF" d="M94.9583-74.293C92.8238-76.4275 89.6859-77.5672 85.5532-77.5672L25.2392-77.5672C21.0979-77.5672 17.9599-76.5638 15.8254-74.4293C13.691-72.2948 12.6875-69.1482 12.6875-65.1431L12.6875-4.86384C12.6875-0.722472 13.691 2.41546 15.8254 4.55862C17.9599 6.69311 21.0979 7.69655 25.2392 7.69655L85.5532 7.69655C89.6859 7.69655 92.8238 6.55683 94.9583 4.42234C97.0928 2.28786 98.0963-0.85875 98.0963-4.86384L98.0963-65.1431C98.0963-69.0119 97.0928-72.1499 94.9583-74.293Z"/>
   <path class="multicolor-0:systemBlueColor hierarchical-1:primary SFSymbolsPreviewFFFFFF" d="M39.4462-13.1752C38.553-11.644 36.5114-11.006 34.9802-11.8992C33.449-12.7924 32.811-14.834 33.7042-16.3652L36.1286-20.4484C38.8082-21.214 40.9774-20.7036 42.6362-18.5344L39.4462-13.1752ZM62.2779-22.1072L32.2919-22.1072C30.5055-22.1072 28.9743-23.6384 28.9743-25.4248C28.9743-27.2112 30.5055-28.7424 32.2919-28.7424L40.7135-28.7424L51.4319-47.372L48.1143-53.2416C47.2211-54.7728 47.7315-56.8144 49.3903-57.7076C50.9215-58.6008 52.9631-58.0904 53.8563-56.4316L55.2599-53.8796L56.7911-56.4316C57.6843-57.9628 59.7259-58.6008 61.2571-57.7076C62.7883-56.8144 63.4263-54.7728 62.5331-53.2416L48.3695-28.7424L58.5775-28.7424C61.9038-28.6061 63.8178-24.7868 62.2779-22.1072ZM78.4918-21.9709L73.7706-21.9709L76.9606-16.3565C77.8538-14.8253 77.3434-12.7837 75.6846-11.8905C74.1534-10.9973 72.1118-11.5077 71.2186-13.1665C65.8594-22.6089 61.7762-29.6269 58.969-34.3481C56.1618-39.0693 58.2034-43.9181 60.1174-45.5769C62.2866-41.8765 65.4766-36.2621 69.815-28.7337L78.3642-28.7337C80.1506-28.7337 81.6818-27.2025 81.6818-25.4161C81.8094-23.5108 80.2695-21.9709 78.4918-21.9709Z"/>
  </g>
  <g id="Black-S" transform="matrix(1 0 0 1 2885.25 696)">
   <path class="multicolor-0:systemBlueColor hierarchical-0:secondary SFSymbolsPreview007AFF" d="M82.25-69.05C79.55-71.75 75.85-73.05 71.05-73.05L25.25-73.05C20.45-73.05 16.75-71.75 14.05-69.05C11.35-66.35 10.05-62.65 10.05-57.85L10.05-12.05C10.05-7.25 11.35-3.55 14.05-0.85C16.75 1.85 20.45 3.15 25.25 3.15L71.05 3.15C75.85 3.15 79.55 1.85 82.25-0.85C84.95-3.55 86.25-7.25 86.25-12.05L86.25-57.85C86.25-62.65 84.95-66.35 82.25-69.05Z"/>
   <path class="multicolor-0:systemBlueColor hierarchical-1:primary SFSymbolsPreviewFFFFFF" d="M35.65-18.35C34.95-17.15 33.35-16.65 32.15-17.35C30.95-18.05 30.45-19.65 31.15-20.85L33.05-24.05C35.15-24.65 36.85-24.25 38.15-22.55L35.65-18.35ZM53.55-25.25L30.05-25.25C28.65-25.25 27.45-26.45 27.45-27.85C27.45-29.25 28.65-30.45 30.05-30.45L36.65-30.45L45.05-45.05L42.45-49.65C41.75-50.85 42.15-52.45 43.45-53.15C44.65-53.85 46.25-53.45 46.95-52.15L48.05-50.15L49.25-52.15C49.95-53.35 51.55-53.85 52.75-53.15C53.95-52.45 54.45-50.85 53.75-49.65L42.65-30.45L50.65-30.45C53.25-30.45 54.75-27.45 53.55-25.25ZM66.25-25.25L62.55-25.25L65.05-20.85C65.75-19.65 65.35-18.05 64.05-17.35C62.85-16.65 61.25-17.05 60.55-18.35C56.35-25.75 53.15-31.25 50.95-34.95C48.75-38.65 50.35-42.45 51.85-43.75C53.55-40.85 56.05-36.45 59.45-30.55L66.15-30.55C67.55-30.55 68.75-29.35 68.75-27.95C68.85-26.45 67.65-25.25 66.25-25.25Z"/>
  </g>
  <g id="Heavy-S" transform="matrix(1 0 0 1 2589.14 696)">
   <path class="multicolor-0:systemBlueColor hierarchical-0:secondary SFSymbolsPreview007AFF" d="M81.2587-68.6724C78.7003-71.2308 75.1419-72.4599 70.4835-72.4599L24.5891-72.4599C19.9544-72.4599 16.396-71.2308 13.8376-68.6724C11.2792-66.114 10.05-62.5792 10.05-57.9444L10.05-11.9556C10.05-7.32081 11.2792-3.76242 13.8376-1.22763C16.396 1.33075 19.9544 2.55995 24.5891 2.55995L70.4835 2.55995C75.1419 2.55995 78.7003 1.33075 81.2587-1.22763C83.8171-3.78602 85.0463-7.32081 85.0463-11.9556L85.0463-57.9444C85.0463-62.5792 83.8171-66.1376 81.2587-68.6724Z"/>
   <path class="multicolor-0:systemBlueColor hierarchical-1:primary SFSymbolsPreviewFFFFFF" d="M35.0363-18.2556C34.3363-17.0556 32.7363-16.5556 31.5363-17.2556C30.3363-17.9556 29.8363-19.5556 30.5363-20.7556L32.4363-23.9556C34.5363-24.5556 36.2363-24.1556 37.5363-22.4556L35.0363-18.2556ZM52.9599-25.1792L29.4599-25.1792C28.0599-25.1792 26.8599-26.3792 26.8599-27.7792C26.8599-29.1792 28.0599-30.3792 29.4599-30.3792L36.0599-30.3792L44.4599-44.9792L41.8599-49.5792C41.1599-50.7792 41.5599-52.3792 42.8599-53.0792C44.0599-53.7792 45.6599-53.3792 46.3599-52.0792L47.4599-50.0792L48.6599-52.0792C49.3599-53.2792 50.9599-53.7792 52.1599-53.0792C53.3599-52.3792 53.8599-50.7792 53.1599-49.5792L42.0599-30.3792L50.0599-30.3792C52.6363-30.3792 54.1363-27.3556 52.9599-25.1792ZM65.6363-25.1792L61.9363-25.1792L64.4363-20.7792C65.1363-19.5792 64.7363-17.9792 63.4363-17.2792C62.2363-16.5792 60.6363-16.9792 59.9363-18.2792C55.7363-25.6792 52.5363-31.1792 50.3363-34.8792C48.1363-38.5792 49.7363-42.3792 51.2363-43.6792C52.9363-40.7792 55.4363-36.3792 58.8363-30.4792L65.5363-30.4792C66.9363-30.4792 68.1363-29.2792 68.1363-27.8792C68.2363-26.3556 67.0599-25.1792 65.6363-25.1792Z"/>
  </g>
  <g id="Bold-S" transform="matrix(1 0 0 1 2293.1 696)">
   <path class="multicolor-0:systemBlueColor hierarchical-0:secondary SFSymbolsPreview007AFF" d="M80.15-68.25C77.75-70.65 74.35-71.8 69.85-71.8L23.85-71.8C19.4-71.8 16-70.65 13.6-68.25C11.2-65.85 10.05-62.5 10.05-58.05L10.05-11.85C10.05-7.4 11.2-4 13.6-1.65C16 0.75 19.4 1.9 23.85 1.9L69.85 1.9C74.35 1.9 77.75 0.75 80.15-1.65C82.55-4.05 83.7-7.4 83.7-11.85L83.7-58.05C83.7-62.5 82.55-65.9 80.15-68.25Z"/>
   <path class="multicolor-0:systemBlueColor hierarchical-1:primary SFSymbolsPreviewFFFFFF" d="M34.35-18.15C33.65-16.95 32.05-16.45 30.85-17.15C29.65-17.85 29.15-19.45 29.85-20.65L31.75-23.85C33.85-24.45 35.55-24.05 36.85-22.35L34.35-18.15ZM52.3-25.1L28.8-25.1C27.4-25.1 26.2-26.3 26.2-27.7C26.2-29.1 27.4-30.3 28.8-30.3L35.4-30.3L43.8-44.9L41.2-49.5C40.5-50.7 40.9-52.3 42.2-53C43.4-53.7 45-53.3 45.7-52L46.8-50L48-52C48.7-53.2 50.3-53.7 51.5-53C52.7-52.3 53.2-50.7 52.5-49.5L41.4-30.3L49.4-30.3C51.95-30.3 53.45-27.25 52.3-25.1ZM64.95-25.1L61.25-25.1L63.75-20.7C64.45-19.5 64.05-17.9 62.75-17.2C61.55-16.5 59.95-16.9 59.25-18.2C55.05-25.6 51.85-31.1 49.65-34.8C47.45-38.5 49.05-42.3 50.55-43.6C52.25-40.7 54.75-36.3 58.15-30.4L64.85-30.4C66.25-30.4 67.45-29.2 67.45-27.8C67.55-26.25 66.4-25.1 64.95-25.1Z"/>
  </g>
  <g id="Semibold-S" transform="matrix(1 0 0 1 1996.86 696)">
   <path class="multicolor-0:systemBlueColor hierarchical-0:secondary SFSymbolsPreview007AFF" d="M79.3856-67.9588C77.0948-70.2496 73.804-71.345 69.4132-71.345L23.3404-71.345C19.0178-71.345 15.727-70.2496 13.4362-67.9588C11.1454-65.668 10.05-62.4454 10.05-58.1228L10.05-11.7772C10.05-7.4546 11.1454-4.1638 13.4362-1.9412C15.727 0.3496 19.0178 1.445 23.3404 1.445L69.4132 1.445C73.804 1.445 77.0948 0.3496 79.3856-1.9412C81.6764-4.232 82.7718-7.4546 82.7718-11.7772L82.7718-58.1228C82.7718-62.4454 81.6764-65.7362 79.3856-67.9588Z"/>
   <path class="multicolor-0:systemBlueColor hierarchical-1:primary SFSymbolsPreviewFFFFFF" d="M33.8768-18.0772C33.1768-16.8772 31.5768-16.3772 30.3768-17.0772C29.1768-17.7772 28.6768-19.3772 29.3768-20.5772L31.2768-23.7772C33.3768-24.3772 35.0768-23.9772 36.3768-22.2772L33.8768-18.0772ZM51.845-25.0454L28.345-25.0454C26.945-25.0454 25.745-26.2454 25.745-27.6454C25.745-29.0454 26.945-30.2454 28.345-30.2454L34.945-30.2454L43.345-44.8454L40.745-49.4454C40.045-50.6454 40.445-52.2454 41.745-52.9454C42.945-53.6454 44.545-53.2454 45.245-51.9454L46.345-49.9454L47.545-51.9454C48.245-53.1454 49.845-53.6454 51.045-52.9454C52.245-52.2454 52.745-50.6454 52.045-49.4454L40.945-30.2454L48.945-30.2454C51.4768-30.2454 52.9768-27.1772 51.845-25.0454ZM64.4768-25.0454L60.7768-25.0454L63.2768-20.6454C63.9768-19.4454 63.5768-17.8454 62.2768-17.1454C61.0768-16.4454 59.4768-16.8454 58.7768-18.1454C54.5768-25.5454 51.3768-31.0454 49.1768-34.7454C46.9768-38.4454 48.5768-42.2454 50.0768-43.5454C51.7768-40.6454 54.2768-36.2454 57.6768-30.3454L64.3768-30.3454C65.7768-30.3454 66.9768-29.1454 66.9768-27.7454C67.0768-26.1772 65.945-25.0454 64.4768-25.0454Z"/>
  </g>
  <g id="Medium-S" transform="matrix(1 0 0 1 1700.5 696)">
   <path class="multicolor-0:systemBlueColor hierarchical-0:secondary SFSymbolsPreview007AFF" d="M78.806-67.738C76.598-69.946 73.39-71 69.082-71L22.954-71C18.728-71 15.52-69.946 13.312-67.738C11.104-65.53 10.05-62.404 10.05-58.178L10.05-11.722C10.05-7.496 11.104-4.288 13.312-2.162C15.52 0.046 18.728 1.1 22.954 1.1L69.082 1.1C73.39 1.1 76.598 0.046 78.806-2.162C81.014-4.37 82.068-7.496 82.068-11.722L82.068-58.178C82.068-62.404 81.014-65.612 78.806-67.738Z"/>
   <path class="multicolor-0:systemBlueColor hierarchical-1:primary SFSymbolsPreviewFFFFFF" d="M33.518-18.022C32.818-16.822 31.218-16.322 30.018-17.022C28.818-17.722 28.318-19.322 29.018-20.522L30.918-23.722C33.018-24.322 34.718-23.922 36.018-22.222L33.518-18.022ZM51.5-25.004L28-25.004C26.6-25.004 25.4-26.204 25.4-27.604C25.4-29.004 26.6-30.204 28-30.204L34.6-30.204L43-44.804L40.4-49.404C39.7-50.604 40.1-52.204 41.4-52.904C42.6-53.604 44.2-53.204 44.9-51.904L46-49.904L47.2-51.904C47.9-53.104 49.5-53.604 50.7-52.904C51.9-52.204 52.4-50.604 51.7-49.404L40.6-30.204L48.6-30.204C51.118-30.204 52.618-27.122 51.5-25.004ZM64.118-25.004L60.418-25.004L62.918-20.604C63.618-19.404 63.218-17.804 61.918-17.104C60.718-16.404 59.118-16.804 58.418-18.104C54.218-25.504 51.018-31.004 48.818-34.704C46.618-38.404 48.218-42.204 49.718-43.504C51.418-40.604 53.918-36.204 57.318-30.304L64.018-30.304C65.418-30.304 66.618-29.104 66.618-27.704C66.718-26.122 65.6-25.004 64.118-25.004Z"/>
  </g>
  <g id="Regular-S" transform="matrix(1 0 0 1 1404.24 696)">
   <path class="multicolor-0:systemBlueColor hierarchical-0:secondary SFSymbolsPreview007AFF" d="M78.05-67.45C75.95-69.55 72.85-70.55 68.65-70.55L22.45-70.55C18.35-70.55 15.25-69.55 13.15-67.45C11.05-65.35 10.05-62.35 10.05-58.25L10.05-11.65C10.05-7.55 11.05-4.45 13.15-2.45C15.25-0.35 18.35 0.65 22.45 0.65L68.65 0.65C72.85 0.65 75.95-0.35 78.05-2.45C80.15-4.55 81.15-7.55 81.15-11.65L81.15-58.25C81.15-62.35 80.15-65.45 78.05-67.45Z"/>
   <path class="multicolor-0:systemBlueColor hierarchical-1:primary SFSymbolsPreviewFFFFFF" d="M33.05-17.95C32.35-16.75 30.75-16.25 29.55-16.95C28.35-17.65 27.85-19.25 28.55-20.45L30.45-23.65C32.55-24.25 34.25-23.85 35.55-22.15L33.05-17.95ZM51.05-24.95L27.55-24.95C26.15-24.95 24.95-26.15 24.95-27.55C24.95-28.95 26.15-30.15 27.55-30.15L34.15-30.15L42.55-44.75L39.95-49.35C39.25-50.55 39.65-52.15 40.95-52.85C42.15-53.55 43.75-53.15 44.45-51.85L45.55-49.85L46.75-51.85C47.45-53.05 49.05-53.55 50.25-52.85C51.45-52.15 51.95-50.55 51.25-49.35L40.15-30.15L48.15-30.15C50.65-30.15 52.15-27.05 51.05-24.95ZM63.65-24.95L59.95-24.95L62.45-20.55C63.15-19.35 62.75-17.75 61.45-17.05C60.25-16.35 58.65-16.75 57.95-18.05C53.75-25.45 50.55-30.95 48.35-34.65C46.15-38.35 47.75-42.15 49.25-43.45C50.95-40.55 53.45-36.15 56.85-30.25L63.55-30.25C64.95-30.25 66.15-29.05 66.15-27.65C66.25-26.05 65.15-24.95 63.65-24.95Z"/>
  </g>
  <g id="Light-S" transform="matrix(1 0 0 1 1108.2 696)">
   <path class="multicolor-0:systemBlueColor hierarchical-0:secondary SFSymbolsPreview007AFF" d="M76.9167-66.95C74.95-68.9167 72.05-69.8833 68.15-69.8833L21.6167-69.8833C17.7833-69.8833 14.8833-68.95 12.9167-66.9833C10.95-65.0167 10.0167-62.1833 10.0167-58.3833L10.0167-11.5833C10.0167-7.75 10.95-4.85 12.9167-2.95C14.8833-0.983333 17.7833-0.05 21.6167-0.05L68.15-0.05C72.05-0.05 74.95-1.01667 76.9167-2.98333C78.8833-4.95 79.8167-7.78333 79.8167-11.5833L79.8167-58.3833C79.8167-62.15 78.8833-65.05 76.9167-66.95Z"/>
   <path class="multicolor-0:systemBlueColor hierarchical-1:primary SFSymbolsPreviewFFFFFF" d="M32.3833-17.95C31.6833-16.75 30.0833-16.25 28.8833-16.95C27.6833-17.65 27.1833-19.25 27.8833-20.45L29.7833-23.65C31.8833-24.25 33.5833-23.85 34.8833-22.15L32.3833-17.95ZM50.35-24.95L26.85-24.95C25.45-24.95 24.25-26.15 24.25-27.55C24.25-28.95 25.45-30.15 26.85-30.15L33.45-30.15L41.85-44.75L39.25-49.35C38.55-50.55 38.95-52.15 40.25-52.85C41.45-53.55 43.05-53.15 43.75-51.85L44.85-49.85L46.05-51.85C46.75-53.05 48.35-53.55 49.55-52.85C50.75-52.15 51.25-50.55 50.55-49.35L39.45-30.15L47.45-30.15C49.9833-30.1167 51.4833-27.05 50.35-24.95ZM62.9833-24.9167L59.2833-24.9167L61.7833-20.5167C62.4833-19.3167 62.0833-17.7167 60.7833-17.0167C59.5833-16.3167 57.9833-16.7167 57.2833-18.0167C53.0833-25.4167 49.8833-30.9167 47.6833-34.6167C45.4833-38.3167 47.0833-42.1167 48.5833-43.4167C50.2833-40.5167 52.7833-36.1167 56.1833-30.2167L62.8833-30.2167C64.2833-30.2167 65.4833-29.0167 65.4833-27.6167C65.5833-26.05 64.45-24.9167 62.9833-24.9167Z"/>
  </g>
  <g id="Thin-S" transform="matrix(1 0 0 1 812.371 696)">
   <path class="multicolor-0:systemBlueColor hierarchical-0:secondary SFSymbolsPreview007AFF" d="M75.4177-66.2887C73.6274-68.079 70.9919-69.0016 67.4887-69.0016L20.5145-69.0016C17.0339-69.0016 14.3984-68.1565 12.6081-66.3661C10.8177-64.5758 9.97258-61.9629 9.97258-58.5597L9.97258-11.4952C9.97258-8.01452 10.8177-5.37903 12.6081-3.61129C14.3984-1.82097 17.0339-0.975806 20.5145-0.975806L67.4887-0.975806C70.9919-0.975806 73.6274-1.89839 75.4177-3.68871C77.2081-5.47903 78.0532-8.09194 78.0532-11.4952L78.0532-58.5597C78.0532-61.8855 77.2081-64.521 75.4177-66.2887Z"/>
   <path class="multicolor-0:systemBlueColor hierarchical-1:primary SFSymbolsPreviewFFFFFF" d="M31.5016-17.95C30.8016-16.75 29.2016-16.25 28.0016-16.95C26.8016-17.65 26.3016-19.25 27.0016-20.45L28.9016-23.65C31.0016-24.25 32.7016-23.85 34.0016-22.15L31.5016-17.95ZM49.4242-24.95L25.9242-24.95C24.5242-24.95 23.3242-26.15 23.3242-27.55C23.3242-28.95 24.5242-30.15 25.9242-30.15L32.5242-30.15L40.9242-44.75L38.3242-49.35C37.6242-50.55 38.0242-52.15 39.3242-52.85C40.5242-53.55 42.1242-53.15 42.8242-51.85L43.9242-49.85L45.1242-51.85C45.8242-53.05 47.4242-53.55 48.6242-52.85C49.8242-52.15 50.3242-50.55 49.6242-49.35L38.5242-30.15L46.5242-30.15C49.1016-30.0726 50.6016-27.05 49.4242-24.95ZM62.1016-24.8726L58.4016-24.8726L60.9016-20.4726C61.6016-19.2726 61.2016-17.6726 59.9016-16.9726C58.7016-16.2726 57.1016-16.6726 56.4016-17.9726C52.2016-25.3726 49.0016-30.8726 46.8016-34.5726C44.6016-38.2726 46.2016-42.0726 47.7016-43.3726C49.4016-40.4726 51.9016-36.0726 55.3016-30.1726L62.0016-30.1726C63.4016-30.1726 64.6016-28.9726 64.6016-27.5726C64.7016-26.05 63.5242-24.8726 62.1016-24.8726Z"/>
  </g>
  <g id="Ultralight-S" transform="matrix(1 0 0 1 516.111 696)">
   <path class="multicolor-0:systemBlueColor hierarchical-0:secondary SFSymbolsPreview007AFF" d="M74.65-65.95C72.95-67.65 70.45-68.55 67.15-68.55L19.95-68.55C16.65-68.55 14.15-67.75 12.45-66.05C10.75-64.35 9.95-61.85 9.95-58.65L9.95-11.45C9.95-8.15 10.75-5.65 12.45-3.95C14.15-2.25 16.65-1.45 19.95-1.45L67.15-1.45C70.45-1.45 72.95-2.35 74.65-4.05C76.35-5.75 77.15-8.25 77.15-11.45L77.15-58.65C77.15-61.75 76.35-64.25 74.65-65.95Z"/>
   <path class="multicolor-0:systemBlueColor hierarchical-1:primary SFSymbolsPreviewFFFFFF" d="M31.05-17.95C30.35-16.75 28.75-16.25 27.55-16.95C26.35-17.65 25.85-19.25 26.55-20.45L28.45-23.65C30.55-24.25 32.25-23.85 33.55-22.15L31.05-17.95ZM48.95-24.95L25.45-24.95C24.05-24.95 22.85-26.15 22.85-27.55C22.85-28.95 24.05-30.15 25.45-30.15L32.05-30.15L40.45-44.75L37.85-49.35C37.15-50.55 37.55-52.15 38.85-52.85C40.05-53.55 41.65-53.15 42.35-51.85L43.45-49.85L44.65-51.85C45.35-53.05 46.95-53.55 48.15-52.85C49.35-52.15 49.85-50.55 49.15-49.35L38.05-30.15L46.05-30.15C48.65-30.05 50.15-27.05 48.95-24.95ZM61.65-24.85L57.95-24.85L60.45-20.45C61.15-19.25 60.75-17.65 59.45-16.95C58.25-16.25 56.65-16.65 55.95-17.95C51.75-25.35 48.55-30.85 46.35-34.55C44.15-38.25 45.75-42.05 47.25-43.35C48.95-40.45 51.45-36.05 54.85-30.15L61.55-30.15C62.95-30.15 64.15-28.95 64.15-27.55C64.25-26.05 63.05-24.85 61.65-24.85Z"/>
  </g>
 </g>
</svg>
